<svg preserveAspectRatio="none" width="100%" height="100%" overflow="visible" style="display: block;" viewBox="0 0 371.63 46.9814" fill="none" xmlns="http://www.w3.org/2000/svg">
<path id="Union" d="M120.217 0.129883H351.161C354.464 0.130003 357.575 1.66091 359.558 4.2627L369.529 17.3477C372.331 21.0257 372.33 26.0867 369.528 29.7646L359.558 42.8486L359.173 43.3232C357.318 45.4812 354.644 46.7978 351.779 46.9639L351.162 46.9814H258.801V46.8516H20.4671C17.3711 46.8514 14.4447 45.5053 12.4574 43.1934L12.0726 42.7188L2.1019 29.6348C-0.700725 25.9567 -0.700545 20.8969 2.1019 17.2188L6.04331 12.0439C6.73503 10.9232 7.53552 9.87656 8.42808 8.91504L12.0726 4.13379C14.0552 1.53227 17.1648 0.0002258 20.4671 0H120.217V0.129883Z" fill="url(#paint0_linear_0_366)"/>
<defs>
<linearGradient id="paint0_linear_0_366" x1="185.814" y1="0.000976562" x2="185.814" y2="46.9814" gradientUnits="userSpaceOnUse">
<stop stop-color="#0144BD"/>
<stop offset="1" stop-color="#192871"/>
</linearGradient>
</defs>
</svg>
