<svg preserveAspectRatio="none" width="100%" height="100%" overflow="visible" style="display: block;" viewBox="0 0 375 47.1111" fill="none" xmlns="http://www.w3.org/2000/svg">
<g id="Group 37">
<g id="Group 36">
<path id="Union" d="M29.9246 5.04448L245.512 5.04448" stroke="url(#paint0_linear_0_315)" stroke-width="1.09562" stroke-linejoin="bevel"/>
<path id="Union_2" d="M245.512 42.2405L32.0208 42.2405" stroke="url(#paint1_linear_0_315)" stroke-width="1.09562" stroke-linejoin="bevel"/>
<path id="Union_3" d="M14.2186 36.0822L8.45014 29.3696C5.62159 26.078 5.62771 21.2121 8.46455 17.9277L12.6562 13.0748" stroke="url(#paint2_linear_0_315)" stroke-width="1.09562" stroke-linejoin="bevel"/>
<path id="Vector 11" d="M15.0491 36.314C14.7696 37.1317 14.4901 37.9494 14.2106 38.7671C14.367 38.7977 14.5233 38.8283 14.6797 38.8589C15.9293 39.1036 17.1788 39.3482 18.4284 39.5928L18.6278 39.693L19.0139 39.5367C20.277 38.5635 21.5401 37.5903 22.8032 36.6171C22.9294 36.5198 23.0556 36.4226 23.1818 36.3254C23.1818 36.3254 23.1818 36.3254 23.1818 36.3254C23.0341 36.3851 22.8864 36.4449 22.7387 36.5046C21.2606 37.1027 19.7825 37.7007 18.3044 38.2988L18.8899 38.2427C17.752 37.6713 16.6141 37.0999 15.4762 36.5285C15.3338 36.457 15.1915 36.3855 15.0491 36.314Z" fill="url(#paint3_linear_0_315)"/>
<path id="Vector 12" d="M31.0398 41.6595C30.63 42.4157 30.2201 43.1719 29.8103 43.9281C29.7031 43.8473 29.5959 43.7666 29.4887 43.6858C28.6332 43.041 27.7777 42.3962 26.9222 41.7515L26.723 41.6844L26.5586 41.2794C26.4821 39.9497 26.4057 38.6201 26.3293 37.2904C26.3217 37.1577 26.3141 37.025 26.3064 36.8923C26.3565 37.0158 26.4067 37.1392 26.4568 37.2627C26.9589 38.4996 27.4611 39.7366 27.9633 40.9736L27.5996 40.5015C28.6187 40.8445 29.6377 41.1875 30.6567 41.5305C30.7844 41.5735 30.9121 41.6165 31.0398 41.6595Z" fill="url(#paint4_linear_0_315)"/>
<path id="Vector 11_2" d="M13.7107 12.9486C13.3281 12.1726 12.9456 11.3967 12.563 10.6207C12.7142 10.5708 12.8654 10.5209 13.0165 10.4711C14.2246 10.0723 15.4326 9.67362 16.6407 9.2749L16.8257 9.15061L17.2291 9.25746C18.6071 10.0651 19.9851 10.8727 21.3631 11.6804C21.5008 11.7611 21.6385 11.8418 21.7762 11.9225C21.622 11.8816 21.4678 11.8408 21.3136 11.7999C19.7704 11.3912 18.2272 10.9824 16.684 10.5736L17.2724 10.5562C16.2172 11.265 15.162 11.9737 14.1068 12.6825C13.9748 12.7712 13.8427 12.8599 13.7107 12.9486Z" fill="url(#paint5_linear_0_315)"/>
<path id="Vector 12_2" d="M28.8811 5.65088C28.3797 4.95178 27.8783 4.25269 27.3768 3.5536C27.2808 3.64715 27.1848 3.7407 27.0887 3.83425C26.3226 4.58057 25.5564 5.32688 24.7903 6.07319L24.6002 6.16518L24.4887 6.58944C24.5839 7.91725 24.679 9.24506 24.7741 10.5729C24.7836 10.7054 24.7931 10.8378 24.8026 10.9703C24.8364 10.8416 24.8703 10.7128 24.9041 10.5841C25.243 9.29365 25.582 8.00323 25.9209 6.71282L25.6194 7.22906C26.5855 6.7616 27.5517 6.29413 28.5178 5.82667C28.6389 5.76807 28.76 5.70948 28.8811 5.65088Z" fill="url(#paint6_linear_0_315)"/>
</g>
<g id="Group 35">
<path id="Union_4" d="M245.512 5.04439L344.986 5.04439" stroke="url(#paint7_linear_0_315)" stroke-width="1.09562" stroke-linejoin="bevel"/>
<path id="Union_5" d="M343.081 42.2404L245.512 42.2404" stroke="url(#paint8_linear_0_315)" stroke-width="1.09562" stroke-linejoin="bevel"/>
<path id="Union_6" d="M359.664 36.6897L365.826 29.2461C368.515 25.9971 368.509 21.2937 365.812 18.0515L359.952 11.0089" stroke="url(#paint9_linear_0_315)" stroke-width="1.09562" stroke-linejoin="bevel"/>
<path id="Vector 11_3" d="M359.341 10.6984C359.611 9.87938 359.882 9.06039 360.153 8.24139C360.012 8.21701 359.87 8.19263 359.729 8.16824C358.779 8.00427 357.829 7.84029 356.879 7.67631L356.607 7.5373L356.134 7.80593C355.036 8.98439 353.938 10.1628 352.84 11.3413C352.742 11.4458 352.645 11.5503 352.547 11.6549C352.672 11.5843 352.796 11.5136 352.92 11.443C354.322 10.6469 355.724 9.8508 357.125 9.05469L356.38 9.1843C357.239 9.62366 358.098 10.063 358.957 10.5024C359.085 10.5677 359.213 10.633 359.341 10.6984Z" fill="url(#paint10_linear_0_315)"/>
<path id="Vector 12_3" d="M345.821 6.00892C346.251 5.26507 346.682 4.52122 347.112 3.77736C347.211 3.85779 347.309 3.93821 347.407 4.01864C348.177 4.64855 348.947 5.27847 349.717 5.90838L349.861 5.96035L350.049 6.31177C350.234 7.57771 350.42 8.84365 350.605 10.1096C350.624 10.2341 350.642 10.3586 350.66 10.4831C350.601 10.3717 350.541 10.2603 350.481 10.1489C349.876 9.0163 349.27 7.88367 348.664 6.75105L348.996 7.15443C348.057 6.81583 347.119 6.47722 346.18 6.13861C346.06 6.09538 345.941 6.05215 345.821 6.00892Z" fill="url(#paint11_linear_0_315)"/>
<path id="Vector 11_4" d="M358.921 36.7653C359.115 37.6062 359.309 38.4472 359.503 39.2881C359.363 39.2988 359.222 39.3095 359.081 39.3202C358.166 39.3899 357.25 39.4595 356.334 39.5292L356.1 39.6237L355.66 39.3856C354.542 38.2216 353.423 37.0575 352.305 35.8935C352.207 35.7921 352.11 35.6908 352.012 35.5894C352.136 35.6564 352.26 35.7234 352.383 35.7904C353.804 36.5596 355.224 37.3288 356.645 38.098L355.971 37.9545C356.823 37.6108 357.676 37.2671 358.529 36.9235C358.659 36.8708 358.79 36.818 358.921 36.7653Z" fill="url(#paint12_linear_0_315)"/>
<path id="Vector 12_4" d="M344.803 41.0524C345.026 41.8813 345.248 42.7102 345.47 43.539C345.601 43.482 345.732 43.425 345.863 43.368C346.705 43.0008 347.547 42.6336 348.389 42.2664L348.627 42.2402L348.911 41.8449C349.418 40.2931 349.925 38.7414 350.432 37.1896C350.476 37.0554 350.52 36.9211 350.564 36.7869C350.481 36.9021 350.398 37.0172 350.316 37.1324C349.36 38.4637 348.403 39.795 347.447 41.1263L347.97 40.7048C347.056 40.8051 346.142 40.9054 345.229 41.0057C345.087 41.0213 344.945 41.0368 344.803 41.0524Z" fill="url(#paint13_linear_0_315)"/>
</g>
<g id="Vector">
<path fill-rule="evenodd" clip-rule="evenodd" d="M263.395 2.59277L347.573 2.72276C348.753 3.03865 350.653 3.66593 351.332 4.58857C352.741 6.5037 352.434 10.4987 352.417 10.7075L352.415 10.7151L352.417 10.7113C352.416 10.7141 352.417 10.7164 352.417 10.7164L352.419 10.7088C352.523 10.5294 354.562 7.05984 356.824 6.26325C357.849 5.90213 359.952 6.26689 361.364 6.58477L370.789 18.9531C372.895 21.7191 372.896 25.5238 370.789 28.2897L361.602 40.3441C360.282 40.6718 357.612 41.2422 356.412 40.82C354.151 40.0234 352.112 36.5538 352.008 36.3745L352.005 36.3669V36.3757C352.022 36.5846 352.329 40.5796 350.921 42.4947C350.098 43.6136 347.479 44.2992 346.524 44.5187L263.395 44.5771V47.1111H354.479L355.097 47.0934C357.97 46.927 360.65 45.6068 362.51 43.4428L362.896 42.9668L372.892 29.8467C375.702 26.1585 375.703 21.0844 372.893 17.3961L362.896 4.27465C360.908 1.6656 357.789 0.130396 354.477 0.130371L263.395 0V2.59277Z" fill="#00042E"/>
<path d="M263.395 0V2.51465L122.058 2.5918H26.8926C26.9948 2.59701 27.0534 2.60224 27.0601 2.60254C27.0098 2.62655 23.9311 4.10296 23.106 5.58203C21.9499 7.65518 22.2663 11.272 22.309 11.4756L22.313 11.4834L22.31 11.4795V11.4834L22.308 11.4766C22.1814 11.3104 20.433 8.68838 18.0893 8.1748C16.5921 7.84699 12.5973 8.75752 11.7205 8.96582L4.21181 18.8223C2.10481 21.5883 2.10462 25.3932 4.21181 28.1592L13.1786 39.9277C14.491 40.1623 18.4122 40.8116 19.7903 40.4365C22.1017 39.8062 24.3908 36.5015 24.5136 36.3223L24.5175 36.3145V36.3184L24.5165 36.3223C24.4844 36.5263 23.8806 40.4903 25.143 42.5029C25.6901 43.3749 27.1564 44.0148 28.2347 44.3877H122.058V46.9805H20.5218C17.4176 46.9804 14.4834 45.6306 12.4907 43.3125L12.1051 42.8359L2.1074 29.7158C-0.70254 26.0277 -0.70239 20.9539 2.1074 17.2656L12.1051 4.14355C14.093 1.53499 17.2108 0.000159768 20.5218 0H263.395Z" fill="var(--fill-0, #00042E)"/>
<path d="M122.058 44.3877L263.395 44.5771V47.1111L122.058 46.9805V44.3877Z" fill="var(--fill-0, #00042E)"/>
</g>
</g>
<defs>
<linearGradient id="paint0_linear_0_315" x1="529.51" y1="5.54448" x2="29.9246" y2="5.54448" gradientUnits="userSpaceOnUse">
<stop stop-color="#020C7B"/>
<stop offset="0.5" stop-color="#040825"/>
<stop offset="1" stop-color="#000D61"/>
</linearGradient>
<linearGradient id="paint1_linear_0_315" x1="529.237" y1="42.7405" x2="32.0208" y2="42.7405" gradientUnits="userSpaceOnUse">
<stop stop-color="#020C7B"/>
<stop offset="0.5" stop-color="#040825"/>
<stop offset="1" stop-color="#000D61"/>
</linearGradient>
<linearGradient id="paint2_linear_0_315" x1="14.2186" y1="24.5785" x2="3.52859" y2="24.5785" gradientUnits="userSpaceOnUse">
<stop stop-color="#020C7B"/>
<stop offset="0.5" stop-color="#040825"/>
<stop offset="1" stop-color="#000D61"/>
</linearGradient>
<linearGradient id="paint3_linear_0_315" x1="23.1818" y1="37.6216" x2="14.6299" y2="37.6216" gradientUnits="userSpaceOnUse">
<stop stop-color="#020C7B"/>
<stop offset="0.5" stop-color="#040825"/>
<stop offset="1" stop-color="#000D61"/>
</linearGradient>
<linearGradient id="paint4_linear_0_315" x1="25.493" y1="37.6324" x2="30.2956" y2="42.9115" gradientUnits="userSpaceOnUse">
<stop stop-color="#020C7B"/>
<stop offset="0.5" stop-color="#040825"/>
<stop offset="1" stop-color="#000D61"/>
</linearGradient>
<linearGradient id="paint5_linear_0_315" x1="21.6095" y1="10.6367" x2="13.1306" y2="11.7361" gradientUnits="userSpaceOnUse">
<stop stop-color="#020C7B"/>
<stop offset="0.5" stop-color="#040825"/>
<stop offset="1" stop-color="#000D61"/>
</linearGradient>
<linearGradient id="paint6_linear_0_315" x1="23.9005" y1="10.3378" x2="27.9903" y2="4.50503" gradientUnits="userSpaceOnUse">
<stop stop-color="#020C7B"/>
<stop offset="0.5" stop-color="#040825"/>
<stop offset="1" stop-color="#000D61"/>
</linearGradient>
<linearGradient id="paint7_linear_0_315" x1="344.986" y1="5.54439" x2="170" y2="5.54439" gradientUnits="userSpaceOnUse">
<stop stop-color="#020C7B"/>
<stop offset="0.5" stop-color="#040825"/>
<stop offset="1" stop-color="#000D61"/>
</linearGradient>
<linearGradient id="paint8_linear_0_315" x1="343.081" y1="42.7404" x2="172.096" y2="42.7404" gradientUnits="userSpaceOnUse">
<stop stop-color="#020C7B"/>
<stop offset="0.5" stop-color="#040825"/>
<stop offset="1" stop-color="#000D61"/>
</linearGradient>
<linearGradient id="paint9_linear_0_315" x1="370.463" y1="23.8493" x2="359.664" y2="23.8493" gradientUnits="userSpaceOnUse">
<stop stop-color="#020C7B"/>
<stop offset="0.5" stop-color="#040825"/>
<stop offset="1" stop-color="#000D61"/>
</linearGradient>
<linearGradient id="paint10_linear_0_315" x1="352.352" y1="10.373" x2="359.714" y2="9.25239" gradientUnits="userSpaceOnUse">
<stop stop-color="#020C7B"/>
<stop offset="0.5" stop-color="#040825"/>
<stop offset="1" stop-color="#000D61"/>
</linearGradient>
<linearGradient id="paint11_linear_0_315" x1="351.089" y1="10.1879" x2="347.127" y2="4.43808" gradientUnits="userSpaceOnUse">
<stop stop-color="#020C7B"/>
<stop offset="0.5" stop-color="#040825"/>
<stop offset="1" stop-color="#000D61"/>
</linearGradient>
<linearGradient id="paint12_linear_0_315" x1="351.84" y1="36.8745" x2="359.234" y2="37.8637" gradientUnits="userSpaceOnUse">
<stop stop-color="#020C7B"/>
<stop offset="0.5" stop-color="#040825"/>
<stop offset="1" stop-color="#000D61"/>
</linearGradient>
<linearGradient id="paint13_linear_0_315" x1="351.084" y1="37.1313" x2="347.166" y2="43.0393" gradientUnits="userSpaceOnUse">
<stop stop-color="#020C7B"/>
<stop offset="0.5" stop-color="#040825"/>
<stop offset="1" stop-color="#000D61"/>
</linearGradient>
</defs>
</svg>
