<svg preserveAspectRatio="none" width="100%" height="100%" overflow="visible" style="display: block;" viewBox="0 0 53 53" fill="none" xmlns="http://www.w3.org/2000/svg">
<g id="Icon">
<path id="Vector" d="M19.8751 6.6238H8.83341C7.61378 6.6238 6.62508 7.6125 6.62508 8.83213V19.8738C6.62508 21.0934 7.61378 22.0821 8.83341 22.0821H19.8751C21.0947 22.0821 22.0834 21.0934 22.0834 19.8738V8.83213C22.0834 7.6125 21.0947 6.6238 19.8751 6.6238Z" stroke="var(--stroke-0, white)" stroke-width="4.41667" stroke-linecap="round" stroke-linejoin="round"/>
<path id="Vector_2" d="M44.1668 6.6238H33.1251C31.9055 6.6238 30.9168 7.6125 30.9168 8.83213V19.8738C30.9168 21.0934 31.9055 22.0821 33.1251 22.0821H44.1668C45.3864 22.0821 46.3751 21.0934 46.3751 19.8738V8.83213C46.3751 7.6125 45.3864 6.6238 44.1668 6.6238Z" stroke="var(--stroke-0, white)" stroke-width="4.41667" stroke-linecap="round" stroke-linejoin="round"/>
<path id="Vector_3" d="M44.1668 30.917H33.1251C31.9055 30.917 30.9168 31.9057 30.9168 33.1253V44.167C30.9168 45.3866 31.9055 46.3753 33.1251 46.3753H44.1668C45.3864 46.3753 46.3751 45.3866 46.3751 44.167V33.1253C46.3751 31.9057 45.3864 30.917 44.1668 30.917Z" stroke="var(--stroke-0, white)" stroke-width="4.41667" stroke-linecap="round" stroke-linejoin="round"/>
<path id="Vector_4" d="M19.8751 30.917H8.83341C7.61378 30.917 6.62508 31.9057 6.62508 33.1253V44.167C6.62508 45.3866 7.61378 46.3753 8.83341 46.3753H19.8751C21.0947 46.3753 22.0834 45.3866 22.0834 44.167V33.1253C22.0834 31.9057 21.0947 30.917 19.8751 30.917Z" stroke="var(--stroke-0, white)" stroke-width="4.41667" stroke-linecap="round" stroke-linejoin="round"/>
</g>
</svg>
