<svg preserveAspectRatio="none" width="100%" height="100%" overflow="visible" style="display: block;" viewBox="0 0 230.201 46.9808" fill="none" xmlns="http://www.w3.org/2000/svg">
<g id="Union" filter="url(#filter0_i_0_64)">
<path fill-rule="evenodd" clip-rule="evenodd" d="M209.983 0C213.245 2.482e-05 216.318 1.53523 218.276 4.14428L228.126 17.2657C230.894 20.954 230.893 26.0282 228.124 29.7163L218.276 42.8365L217.897 43.3124C216.064 45.4764 213.423 46.7966 210.593 46.963L209.984 46.9808H20.2179C17.1596 46.9807 14.2685 45.6308 12.3053 43.3124L11.9256 42.8365L2.07625 29.7163C-0.692171 26.0281 -0.691993 20.954 2.07625 17.2657L11.9256 4.14428C13.884 1.53543 16.9558 0.000151995 20.2179 0H209.983ZM26.6597 2.60252C26.6299 2.61695 23.5789 4.09825 22.7635 5.58225C21.6244 7.65561 21.9366 11.273 21.9787 11.4759L21.9825 11.4835L21.9799 11.4797V11.4835L21.9774 11.4772C21.8532 11.3119 20.1311 8.68832 17.8217 8.17464C16.3469 7.84669 12.4109 8.75747 11.5471 8.96577L4.14965 18.8227C2.07386 21.5888 2.07368 25.3934 4.14965 28.1593L12.9838 39.9276C14.2769 40.1623 18.1404 40.8119 19.4977 40.4365C21.7753 39.806 24.0305 36.5008 24.1508 36.3226L24.1546 36.315V36.3188L24.1533 36.3226C24.1217 36.5266 23.527 40.4911 24.7711 42.5036C25.3101 43.3756 26.7543 44.0155 27.8166 44.3884H202.147C203.088 44.1688 205.668 43.4832 206.479 42.3643C207.867 40.4492 207.564 36.4542 207.547 36.2454V36.2365L207.55 36.2441C207.653 36.4235 209.661 39.8931 211.889 40.6897C213.071 41.1118 215.701 40.5415 217.002 40.2137L226.052 28.1593C228.128 25.3935 228.128 21.5887 226.052 18.8227L216.767 6.4544C215.376 6.13652 213.305 5.77176 212.294 6.13288C210.066 6.92947 208.058 10.3991 207.955 10.5784L207.952 10.586C207.952 10.586 207.952 10.5837 207.952 10.581L207.951 10.5848L207.952 10.5772C207.969 10.3683 208.272 6.37333 206.884 4.4582C206.215 3.53556 204.343 2.90828 203.18 2.59239H26.4938C26.5969 2.59772 26.6552 2.6024 26.6597 2.60252Z" fill="var(--fill-0, #00053D)"/>
</g>
<defs>
<filter id="filter0_i_0_64" x="0" y="0" width="235.386" height="52.1655" filterUnits="userSpaceOnUse" color-interpolation-filters="sRGB">
<feFlood flood-opacity="0" result="BackgroundImageFix"/>
<feBlend mode="normal" in="SourceGraphic" in2="BackgroundImageFix" result="shape"/>
<feColorMatrix in="SourceAlpha" type="matrix" values="0 0 0 0 0 0 0 0 0 0 0 0 0 0 0 0 0 0 127 0" result="hardAlpha"/>
<feOffset dx="5.18478" dy="5.18478"/>
<feGaussianBlur stdDeviation="2.59239"/>
<feComposite in2="hardAlpha" operator="arithmetic" k2="-1" k3="1"/>
<feColorMatrix type="matrix" values="0 0 0 0 0 0 0 0 0 0 0 0 0 0 0 0 0 0 0.25 0"/>
<feBlend mode="normal" in2="shape" result="effect1_innerShadow_0_64"/>
</filter>
</defs>
</svg>
