<svg preserveAspectRatio="none" width="100%" height="100%" overflow="visible" style="display: block;" viewBox="0 0 106.61 93.3279" fill="none" xmlns="http://www.w3.org/2000/svg">
<g id="Group 23">
<g id="Vector">
<mask id="path-1-inside-1_0_35" fill="white">
<path d="M8.46714 5.5785H105.467C105.467 5.5785 68.0496 24.1985 47.3385 41.9532C30.6139 56.2903 8.46714 84.0502 8.46714 84.0502C8.46714 84.0502 14.1405 58.5624 13.8164 41.9532C13.5354 27.5512 8.46714 5.5785 8.46714 5.5785Z"/>
</mask>
<path d="M8.46714 5.5785H105.467C105.467 5.5785 68.0496 24.1985 47.3385 41.9532C30.6139 56.2903 8.46714 84.0502 8.46714 84.0502C8.46714 84.0502 14.1405 58.5624 13.8164 41.9532C13.5354 27.5512 8.46714 5.5785 8.46714 5.5785Z" fill="var(--fill-0, #010B7B)"/>
<path d="M8.46714 5.27649C8.46714 5.47783 8.46714 5.67918 8.46714 5.88052C13.5071 6.12911 18.5471 6.3695 23.5871 6.60169C50.8805 7.8591 78.1738 8.87609 105.467 9.65266L103.652 1.93101C82.7764 12.0261 62.3818 22.7457 43.745 37.7614C28.62 50.7849 16.1488 65.3192 3.81489 80.3386L14.2764 85.3433C14.738 83.2459 15.1499 81.2001 15.5478 79.1397C17.8048 66.996 19.3811 54.7323 18.376 41.8642C17.6217 34.1966 15.8384 27.0661 13.7564 20.0026C12.2862 15.0944 10.6292 10.2676 8.76143 5.51062C8.56524 5.55588 8.36904 5.60113 8.17285 5.64639C8.51527 10.7211 8.79305 15.7801 9.03021 20.8109C9.34629 28.0141 9.64552 35.2496 9.25684 42.0422C8.40995 53.4227 6.03554 65.2171 3.85191 76.8865C3.47304 78.8511 3.06158 80.8995 2.65792 82.7571L13.1194 87.7618C24.9724 73.2202 37.3766 58.4451 50.9319 46.145C67.594 31.8987 87.5769 20.1462 107.282 9.226L105.467 1.50434C78.1738 2.28092 50.8805 3.29791 23.5871 4.55531C18.5471 4.78751 13.5071 5.0279 8.46714 5.27649ZM8.46714 5.88052V5.27649L8.03432 5.29783L8.17285 5.64639L8.76143 5.51062L8.46714 5.88052Z" fill="var(--stroke-0, #020C7B)" mask="url(#path-1-inside-1_0_35)"/>
</g>
<path id="Vector 5" d="M1.93428 4.65911C1.28952 4.89682 0.64476 5.13454 0 5.37225C0.459475 6.58118 0.915672 7.83871 1.36263 9.09702C4.37609 17.7476 7.24116 26.5702 8.59967 35.5923V35.5923C10.2787 50.1234 8.15033 64.9585 5.61197 79.4174C5.37072 80.7134 5.10759 82.0699 4.84214 83.3282C5.14112 82.0773 5.438 80.7274 5.71306 79.4376C8.62119 65.0233 11.156 50.3034 9.83461 35.439V35.439C8.68236 26.1874 6.02725 17.267 3.21662 8.46585C2.79755 7.18313 2.37448 5.91548 1.93428 4.65911Z" fill="url(#paint0_linear_0_35)"/>
<path id="Vector 6" d="M105.683 10.7419C105.992 11.3557 106.301 11.9696 106.61 12.5834C104.937 13.4112 103.178 14.3093 101.473 15.1898C84.1232 24.2998 66.8736 33.814 51.5076 45.9299V45.9299C39.8606 55.5776 29.4551 66.7307 19.2925 77.9893C18.0075 79.4274 16.7267 80.8739 15.4671 82.3282C16.7006 80.8516 17.9556 79.3824 19.215 77.9213C29.1835 66.4775 39.3733 55.1502 50.9267 45.2265V45.2265C66.1936 32.7449 83.3047 22.9135 100.559 13.458C102.257 12.5422 103.999 11.6142 105.683 10.7419Z" fill="url(#paint1_linear_0_35)"/>
</g>
<defs>
<linearGradient id="paint0_linear_0_35" x1="5.09214" y1="83.3282" x2="6.96714" y2="18.8282" gradientUnits="userSpaceOnUse">
<stop stop-color="#001FE8"/>
<stop offset="1" stop-color="#011599"/>
</linearGradient>
<linearGradient id="paint1_linear_0_35" x1="54.9671" y1="51.0782" x2="48.4303" y2="34.705" gradientUnits="userSpaceOnUse">
<stop stop-color="#001FE8"/>
<stop offset="1" stop-color="#011599"/>
</linearGradient>
</defs>
</svg>
