<svg preserveAspectRatio="none" width="100%" height="100%" overflow="visible" style="display: block;" viewBox="0 0 16.9048 16.9048" fill="none" xmlns="http://www.w3.org/2000/svg">
<g id="Icon">
<path id="Vector" d="M6.33933 2.11291H2.81749C2.42848 2.11291 2.11313 2.42827 2.11313 2.81728V6.33912C2.11313 6.72813 2.42848 7.04348 2.81749 7.04348H6.33933C6.72834 7.04348 7.0437 6.72813 7.0437 6.33912V2.81728C7.0437 2.42827 6.72834 2.11291 6.33933 2.11291Z" stroke="var(--stroke-0, white)" stroke-width="1.40874" stroke-linecap="round" stroke-linejoin="round"/>
<path id="Vector_2" d="M14.0874 2.11291H10.5655C10.1765 2.11291 9.86117 2.42827 9.86117 2.81728V6.33912C9.86117 6.72813 10.1765 7.04348 10.5655 7.04348H14.0874C14.4764 7.04348 14.7917 6.72813 14.7917 6.33912V2.81728C14.7917 2.42827 14.4764 2.11291 14.0874 2.11291Z" stroke="var(--stroke-0, white)" stroke-width="1.40874" stroke-linecap="round" stroke-linejoin="round"/>
<path id="Vector_3" d="M14.0874 9.86114H10.5655C10.1765 9.86114 9.86117 10.1765 9.86117 10.5655V14.0873C9.86117 14.4764 10.1765 14.7917 10.5655 14.7917H14.0874C14.4764 14.7917 14.7917 14.4764 14.7917 14.0873V10.5655C14.7917 10.1765 14.4764 9.86114 14.0874 9.86114Z" stroke="var(--stroke-0, white)" stroke-width="1.40874" stroke-linecap="round" stroke-linejoin="round"/>
<path id="Vector_4" d="M6.33933 9.86114H2.81749C2.42848 9.86114 2.11313 10.1765 2.11313 10.5655V14.0873C2.11313 14.4764 2.42848 14.7917 2.81749 14.7917H6.33933C6.72834 14.7917 7.0437 14.4764 7.0437 14.0873V10.5655C7.0437 10.1765 6.72834 9.86114 6.33933 9.86114Z" stroke="var(--stroke-0, white)" stroke-width="1.40874" stroke-linecap="round" stroke-linejoin="round"/>
</g>
</svg>
