<svg width="375" height="113" viewBox="0 0 375 113" fill="none" xmlns="http://www.w3.org/2000/svg">
<g clip-path="url(#clip0_150_26116)">
<mask id="path-1-inside-1_150_26116" fill="white">
<path d="M0 9.66773C0 4.32839 4.32839 0 9.66773 0H365.332C370.672 0 375 4.32839 375 9.66773V103.332C375 108.672 370.672 113 365.332 113H9.66773C4.32839 113 0 108.672 0 103.332V9.66773Z"/>
</mask>
<path d="M0 9.66773C0 4.32839 4.32839 0 9.66773 0H365.332C370.672 0 375 4.32839 375 9.66773V103.332C375 108.672 370.672 113 365.332 113H9.66773C4.32839 113 0 108.672 0 103.332V9.66773Z" fill="url(#paint0_linear_150_26116)"/>
<mask id="path-3-inside-2_150_26116" fill="white">
<path d="M277.25 1.00031H374.25C374.25 1.00031 336.832 19.6203 316.121 37.375C299.397 51.7121 277.25 79.472 277.25 79.472C277.25 79.472 282.923 53.9842 282.599 37.375C282.318 22.9731 277.25 1.00031 277.25 1.00031Z"/>
</mask>
<path d="M277.25 1.00031H374.25C374.25 1.00031 336.832 19.6203 316.121 37.375C299.397 51.7121 277.25 79.472 277.25 79.472C277.25 79.472 282.923 53.9842 282.599 37.375C282.318 22.9731 277.25 1.00031 277.25 1.00031Z" fill="#010B7B"/>
<path d="M277.25 0.698295C277.25 0.89964 277.25 1.10099 277.25 1.30233C282.29 1.55092 287.33 1.79131 292.37 2.0235C319.663 3.28091 346.957 4.2979 374.25 5.07447L372.435 -2.64718C351.559 7.44791 331.165 18.1675 312.528 33.1832C297.403 46.2067 284.932 60.741 272.598 75.7604L283.059 80.7651C283.521 78.6677 283.933 76.6219 284.331 74.5615C286.588 62.4178 288.164 50.1541 287.159 37.286C286.405 29.6184 284.621 22.4879 282.539 15.4244C281.069 10.5162 279.412 5.6894 277.544 0.932431C277.348 0.977686 277.152 1.02294 276.956 1.06819C277.298 6.14291 277.576 11.2019 277.813 16.2327C278.129 23.4359 278.428 30.6715 278.04 37.464C277.193 48.8445 274.818 60.6389 272.635 72.3084C272.256 74.2729 271.844 76.3213 271.441 78.1789L281.902 83.1836C293.755 68.642 306.159 53.8669 319.715 41.5668C336.377 27.3205 356.36 15.568 376.065 4.64781L374.25 -3.07385C346.957 -2.29727 319.663 -1.28028 292.37 -0.0228777C287.33 0.209315 282.29 0.449706 277.25 0.698295ZM277.25 1.30233V0.698295L276.817 0.719643L276.956 1.06819L277.544 0.932431L277.25 1.30233Z" fill="#020C7B" mask="url(#path-3-inside-2_150_26116)"/>
<path d="M270.717 0.0809183C270.072 0.318629 269.428 0.55634 268.783 0.794051C269.242 2.00298 269.699 3.26052 270.145 4.51882C273.159 13.1694 276.024 21.9921 277.383 31.0141V31.0141C279.062 45.5452 276.933 60.3803 274.395 74.8392C274.154 76.1352 273.89 77.4917 273.625 78.75C273.924 77.4991 274.221 76.1492 274.496 74.8594C277.404 60.4451 279.939 45.7252 278.617 30.8608V30.8608C277.465 21.6092 274.81 12.6888 271.999 3.88765C271.58 2.60493 271.157 1.33728 270.717 0.0809183Z" fill="url(#paint1_linear_150_26116)"/>
<path d="M374.466 6.16371C374.775 6.77754 375.084 7.39137 375.393 8.00521C373.721 8.83297 371.961 9.73113 370.256 10.6116C352.906 19.7216 335.657 29.2358 320.291 41.3517V41.3517C308.644 50.9994 298.238 62.1525 288.076 73.4111C286.791 74.8492 285.51 76.2957 284.25 77.75C285.484 76.2734 286.739 74.8042 287.998 73.3431C297.967 61.8993 308.156 50.572 319.71 40.6483V40.6483C334.977 28.1667 352.088 18.3353 369.342 8.87978C371.04 7.96399 372.782 7.03597 374.466 6.16371Z" fill="url(#paint2_linear_150_26116)"/>
<path d="M15.5454 24.0045C15.5454 19.3326 19.3328 15.5452 24.0047 15.5452H40.9122C45.5841 15.5452 49.3714 19.3326 49.3714 24.0045V40.912C49.3714 45.5839 45.5841 49.3713 40.9122 49.3713H24.0047C19.3327 49.3713 15.5454 45.5839 15.5454 40.912V24.0045Z" fill="#CECECE" fill-opacity="0.125"/>
<g clip-path="url(#clip1_150_26116)">
<g clip-path="url(#clip2_150_26116)">
<g clip-path="url(#clip3_150_26116)">
<path d="M28.2242 30.345H27.1677C26.7006 30.345 26.2527 30.1595 25.9225 29.8293C25.5923 29.499 25.4067 29.0511 25.4067 28.5841C25.4067 28.1171 25.5923 27.6692 25.9225 27.3389C26.2527 27.0087 26.7006 26.8232 27.1677 26.8232H28.2242" stroke="white" stroke-width="1.40874" stroke-linecap="round" stroke-linejoin="round"/>
<path d="M36.6768 30.345H37.7333C38.2003 30.345 38.6482 30.1595 38.9785 29.8293C39.3087 29.499 39.4942 29.0511 39.4942 28.5841C39.4942 28.1171 39.3087 27.6692 38.9785 27.3389C38.6482 27.0087 38.2003 26.8232 37.7333 26.8232H36.6768" stroke="white" stroke-width="1.40874" stroke-linecap="round" stroke-linejoin="round"/>
<path d="M26.8154 39.5015H38.0853" stroke="white" stroke-width="1.40874" stroke-linecap="round" stroke-linejoin="round"/>
<path d="M31.0418 34.3318V35.9801C31.0418 36.3675 30.7108 36.6703 30.3586 36.8323C29.5274 37.2127 28.9287 38.2622 28.9287 39.5019" stroke="white" stroke-width="1.40874" stroke-linecap="round" stroke-linejoin="round"/>
<path d="M33.8594 34.3318V35.9801C33.8594 36.3675 34.1904 36.6703 34.5426 36.8323C35.3738 37.2127 35.9725 38.2622 35.9725 39.5019" stroke="white" stroke-width="1.40874" stroke-linecap="round" stroke-linejoin="round"/>
<path d="M36.6765 25.4141H28.2241V30.3447C28.2241 31.4655 28.6694 32.5405 29.4619 33.333C30.2545 34.1256 31.3295 34.5709 32.4503 34.5709C33.5712 34.5709 34.6461 34.1256 35.4387 33.333C36.2313 32.5405 36.6765 31.4655 36.6765 30.3447V25.4141Z" stroke="white" stroke-width="1.40874" stroke-linecap="round" stroke-linejoin="round"/>
</g>
</g>
</g>
<path d="M17.1378 61.1124H20.5511L24.1562 69.9079H24.3097L27.9148 61.1124H31.3281V74.2033H28.6435V65.6827H28.5348L25.147 74.1394H23.3189L19.9311 65.6508H19.8224V74.2033H17.1378V61.1124ZM36.3571 74.3887C35.7306 74.3887 35.1724 74.28 34.6824 74.0627C34.1923 73.8411 33.8045 73.5151 33.519 73.0847C33.2377 72.6501 33.0971 72.1089 33.0971 71.4611C33.0971 70.9157 33.1973 70.4576 33.3975 70.0868C33.5978 69.7161 33.8706 69.4178 34.2157 69.192C34.5609 68.9661 34.9529 68.7957 35.3919 68.6806C35.835 68.5655 36.2995 68.4846 36.7853 68.4377C37.3564 68.378 37.8166 68.3226 38.166 68.2715C38.5154 68.2161 38.769 68.1351 38.9267 68.0286C39.0843 67.9221 39.1632 67.7644 39.1632 67.5556V67.5172C39.1632 67.1124 39.0353 66.7992 38.7797 66.5776C38.5282 66.356 38.1703 66.2452 37.7058 66.2452C37.2157 66.2452 36.8258 66.3539 36.536 66.5712C36.2463 66.7843 36.0545 67.0528 35.9608 67.3766L33.4423 67.1721C33.5701 66.5755 33.8216 66.0599 34.1966 65.6252C34.5716 65.1863 35.0552 64.8496 35.6475 64.6153C36.2441 64.3766 36.9345 64.2573 37.7186 64.2573C38.264 64.2573 38.786 64.3212 39.2846 64.4491C39.7875 64.5769 40.2328 64.7751 40.6206 65.0435C41.0126 65.312 41.3216 65.6572 41.5474 66.079C41.7733 66.4966 41.8862 66.9974 41.8862 67.5812V74.2033H39.3038V72.8418H39.2271C39.0694 73.1486 38.8585 73.4192 38.5943 73.6536C38.3301 73.8837 38.0126 74.0648 37.6419 74.1969C37.2711 74.3248 36.8429 74.3887 36.3571 74.3887ZM37.1369 72.5094C37.5375 72.5094 37.8912 72.4306 38.198 72.2729C38.5048 72.111 38.7456 71.8937 38.9203 71.6209C39.095 71.3482 39.1824 71.0393 39.1824 70.6941V69.6522C39.0971 69.7076 38.9799 69.7587 38.8308 69.8056C38.6859 69.8482 38.5218 69.8887 38.3386 69.927C38.1554 69.9611 37.9721 69.9931 37.7889 70.0229C37.6056 70.0485 37.4395 70.0719 37.2903 70.0932C36.9707 70.1401 36.6916 70.2147 36.4529 70.317C36.2143 70.4192 36.0289 70.5577 35.8968 70.7324C35.7647 70.9029 35.6987 71.116 35.6987 71.3716C35.6987 71.7424 35.8329 72.0258 36.1014 72.2218C36.3741 72.4136 36.7193 72.5094 37.1369 72.5094ZM43.9988 74.2033V64.3851H46.6387V66.0982H46.7409C46.9199 65.4888 47.2203 65.0286 47.6422 64.7175C48.0641 64.4022 48.5499 64.2445 49.0996 64.2445C49.236 64.2445 49.383 64.253 49.5407 64.2701C49.6983 64.2871 49.8368 64.3106 49.9561 64.3404V66.7566C49.8283 66.7182 49.6515 66.6841 49.4256 66.6543C49.1998 66.6245 48.9931 66.6096 48.8056 66.6096C48.405 66.6096 48.0471 66.6969 47.7317 66.8716C47.4206 67.0421 47.1735 67.2807 46.9902 67.5876C46.8113 67.8944 46.7218 68.2481 46.7218 68.6486V74.2033H43.9988ZM53.8313 71.378L53.8377 68.1117H54.234L57.3789 64.3851H60.5046L56.2795 69.3198H55.6339L53.8313 71.378ZM51.364 74.2033V61.1124H54.087V74.2033H51.364ZM57.5004 74.2033L54.6112 69.927L56.4265 68.003L60.69 74.2033H57.5004ZM65.9107 74.3951C64.9007 74.3951 64.0314 74.1905 63.3027 73.7814C62.5783 73.3681 62.0201 72.7843 61.628 72.03C61.236 71.2715 61.04 70.3745 61.04 69.339C61.04 68.329 61.236 67.4427 61.628 66.6799C62.0201 65.9171 62.5719 65.3226 63.2836 64.8965C63.9995 64.4704 64.839 64.2573 65.802 64.2573C66.4498 64.2573 67.0527 64.3617 67.611 64.5705C68.1735 64.7751 68.6635 65.084 69.0811 65.4974C69.503 65.9107 69.8311 66.4306 70.0655 67.057C70.2999 67.6792 70.4171 68.4079 70.4171 69.2431V69.991H62.1266V68.3035H67.8539C67.8539 67.9114 67.7686 67.5641 67.5982 67.2616C67.4277 66.959 67.1912 66.7225 66.8887 66.552C66.5904 66.3773 66.2431 66.29 65.8468 66.29C65.4334 66.29 65.0669 66.3859 64.7473 66.5776C64.432 66.7651 64.1848 67.0187 64.0059 67.3383C63.8269 67.6536 63.7353 68.0052 63.731 68.393V69.9974C63.731 70.4832 63.8205 70.9029 63.9995 71.2566C64.1827 71.6103 64.4405 71.883 64.7729 72.0748C65.1053 72.2665 65.4995 72.3624 65.9554 72.3624C66.258 72.3624 66.535 72.3198 66.7864 72.2346C67.0378 72.1493 67.253 72.0215 67.432 71.8511C67.611 71.6806 67.7473 71.4718 67.8411 71.2246L70.3596 71.3908C70.2317 71.9959 69.9696 72.5243 69.5733 72.9761C69.1813 73.4235 68.6742 73.7729 68.052 74.0243C67.4341 74.2715 66.7203 74.3951 65.9107 74.3951ZM77.4164 64.3851V66.4306H71.5037V64.3851H77.4164ZM72.8461 62.0329H75.5691V71.1863C75.5691 71.4377 75.6074 71.6337 75.6841 71.7743C75.7608 71.9107 75.8674 72.0066 76.0037 72.062C76.1444 72.1174 76.3063 72.1451 76.4895 72.1451C76.6174 72.1451 76.7452 72.1344 76.873 72.1131C77.0009 72.0876 77.0989 72.0684 77.1671 72.0556L77.5953 74.0819C77.459 74.1245 77.2672 74.1735 77.0201 74.2289C76.7729 74.2886 76.4725 74.3248 76.1188 74.3376C75.4625 74.3631 74.8873 74.2758 74.3929 74.0755C73.9029 73.8752 73.5215 73.5641 73.2488 73.1422C72.976 72.7204 72.8418 72.1877 72.8461 71.5442V62.0329ZM79.1902 77.8851V64.3851H81.8748V66.0343H81.9963C82.1156 65.7701 82.2882 65.5016 82.514 65.2289C82.7441 64.9519 83.0424 64.7218 83.4089 64.5386C83.7797 64.3511 84.2399 64.2573 84.7896 64.2573C85.5055 64.2573 86.166 64.4448 86.7711 64.8198C87.3762 65.1905 87.8599 65.7509 88.2221 66.5009C88.5843 67.2466 88.7654 68.182 88.7654 69.307C88.7654 70.4022 88.5886 71.3269 88.2349 72.0812C87.8855 72.8312 87.4082 73.4001 86.8031 73.7878C86.2022 74.1714 85.5289 74.3631 84.7832 74.3631C84.2548 74.3631 83.8052 74.2758 83.4345 74.1011C83.068 73.9263 82.7676 73.7069 82.5332 73.4427C82.2988 73.1742 82.1199 72.9036 81.9963 72.6309H81.9132V77.8851H79.1902ZM81.8556 69.2942C81.8556 69.878 81.9366 70.3873 82.0985 70.8219C82.2605 71.2566 82.4949 71.5954 82.8017 71.8383C83.1085 72.0769 83.4814 72.1962 83.9203 72.1962C84.3635 72.1962 84.7385 72.0748 85.0453 71.8319C85.3521 71.5847 85.5843 71.2438 85.742 70.8091C85.9039 70.3702 85.9849 69.8653 85.9849 69.2942C85.9849 68.7275 85.9061 68.2289 85.7484 67.7985C85.5907 67.3681 85.3585 67.0314 85.0517 66.7886C84.7449 66.5457 84.3677 66.4242 83.9203 66.4242C83.4771 66.4242 83.1021 66.5414 82.7953 66.7758C82.4927 67.0101 82.2605 67.3425 82.0985 67.7729C81.9366 68.2033 81.8556 68.7104 81.8556 69.2942ZM93.3038 61.1124V74.2033H90.5808V61.1124H93.3038ZM98.2848 74.3887C97.6584 74.3887 97.1001 74.28 96.6101 74.0627C96.12 73.8411 95.7322 73.5151 95.4467 73.0847C95.1655 72.6501 95.0249 72.1089 95.0249 71.4611C95.0249 70.9157 95.125 70.4576 95.3253 70.0868C95.5256 69.7161 95.7983 69.4178 96.1435 69.192C96.4886 68.9661 96.8807 68.7957 97.3196 68.6806C97.7628 68.5655 98.2273 68.4846 98.7131 68.4377C99.2841 68.378 99.7443 68.3226 100.094 68.2715C100.443 68.2161 100.697 68.1351 100.854 68.0286C101.012 67.9221 101.091 67.7644 101.091 67.5556V67.5172C101.091 67.1124 100.963 66.7992 100.707 66.5776C100.456 66.356 100.098 66.2452 99.6335 66.2452C99.1435 66.2452 98.7536 66.3539 98.4638 66.5712C98.174 66.7843 97.9822 67.0528 97.8885 67.3766L95.37 67.1721C95.4979 66.5755 95.7493 66.0599 96.1243 65.6252C96.4993 65.1863 96.983 64.8496 97.5753 64.6153C98.1719 64.3766 98.8622 64.2573 99.6463 64.2573C100.192 64.2573 100.714 64.3212 101.212 64.4491C101.715 64.5769 102.161 64.7751 102.548 65.0435C102.94 65.312 103.249 65.6572 103.475 66.079C103.701 66.4966 103.814 66.9974 103.814 67.5812V74.2033H101.232V72.8418H101.155C100.997 73.1486 100.786 73.4192 100.522 73.6536C100.258 73.8837 99.9403 74.0648 99.5696 74.1969C99.1989 74.3248 98.7706 74.3887 98.2848 74.3887ZM99.0646 72.5094C99.4652 72.5094 99.8189 72.4306 100.126 72.2729C100.433 72.111 100.673 71.8937 100.848 71.6209C101.023 71.3482 101.11 71.0393 101.11 70.6941V69.6522C101.025 69.7076 100.908 69.7587 100.759 69.8056C100.614 69.8482 100.45 69.8887 100.266 69.927C100.083 69.9611 99.8999 69.9931 99.7166 70.0229C99.5334 70.0485 99.3672 70.0719 99.218 70.0932C98.8984 70.1401 98.6193 70.2147 98.3807 70.317C98.142 70.4192 97.9567 70.5577 97.8246 70.7324C97.6925 70.9029 97.6264 71.116 97.6264 71.3716C97.6264 71.7424 97.7607 72.0258 98.0291 72.2218C98.3018 72.4136 98.647 72.5094 99.0646 72.5094ZM110.363 74.3951C109.357 74.3951 108.492 74.182 107.767 73.7559C107.047 73.3255 106.493 72.7289 106.105 71.9661C105.722 71.2033 105.53 70.3255 105.53 69.3326C105.53 68.3269 105.724 67.4448 106.112 66.6863C106.504 65.9235 107.06 65.329 107.78 64.9029C108.5 64.4725 109.357 64.2573 110.35 64.2573C111.206 64.2573 111.956 64.4128 112.6 64.7239C113.243 65.035 113.752 65.4718 114.127 66.0343C114.502 66.5968 114.709 67.2573 114.748 68.0158H112.178C112.105 67.5258 111.914 67.1316 111.603 66.8333C111.296 66.5307 110.893 66.3795 110.395 66.3795C109.973 66.3795 109.604 66.4945 109.289 66.7246C108.978 66.9505 108.735 67.2807 108.56 67.7154C108.385 68.1501 108.298 68.6763 108.298 69.2942C108.298 69.9207 108.383 70.4533 108.554 70.8922C108.728 71.3312 108.973 71.6657 109.289 71.8958C109.604 72.1259 109.973 72.241 110.395 72.241C110.706 72.241 110.985 72.177 111.232 72.0492C111.483 71.9214 111.69 71.736 111.852 71.4931C112.018 71.2459 112.127 70.9498 112.178 70.6046H114.748C114.705 71.3546 114.5 72.0151 114.134 72.5861C113.772 73.1529 113.271 73.5961 112.632 73.9157C111.993 74.2353 111.236 74.3951 110.363 74.3951ZM120.965 74.3951C119.955 74.3951 119.086 74.1905 118.357 73.7814C117.633 73.3681 117.075 72.7843 116.683 72.03C116.291 71.2715 116.095 70.3745 116.095 69.339C116.095 68.329 116.291 67.4427 116.683 66.6799C117.075 65.9171 117.627 65.3226 118.338 64.8965C119.054 64.4704 119.894 64.2573 120.857 64.2573C121.504 64.2573 122.107 64.3617 122.666 64.5705C123.228 64.7751 123.718 65.084 124.136 65.4974C124.558 65.9107 124.886 66.4306 125.12 67.057C125.355 67.6792 125.472 68.4079 125.472 69.2431V69.991H117.181V68.3035H122.909C122.909 67.9114 122.823 67.5641 122.653 67.2616C122.482 66.959 122.246 66.7225 121.943 66.552C121.645 66.3773 121.298 66.29 120.901 66.29C120.488 66.29 120.122 66.3859 119.802 66.5776C119.487 66.7651 119.24 67.0187 119.061 67.3383C118.882 67.6536 118.79 68.0052 118.786 68.393V69.9974C118.786 70.4832 118.875 70.9029 119.054 71.2566C119.237 71.6103 119.495 71.883 119.828 72.0748C120.16 72.2665 120.554 72.3624 121.01 72.3624C121.313 72.3624 121.59 72.3198 121.841 72.2346C122.093 72.1493 122.308 72.0215 122.487 71.8511C122.666 71.6806 122.802 71.4718 122.896 71.2246L125.414 71.3908C125.286 71.9959 125.024 72.5243 124.628 72.9761C124.236 73.4235 123.729 73.7729 123.107 74.0243C122.489 74.2715 121.775 74.3951 120.965 74.3951Z" fill="white"/>
<path d="M16.7045 94.1677V85.4404H19.6491C20.2173 85.4404 20.6903 85.5398 21.0681 85.7387C21.4488 85.9376 21.7343 86.2089 21.9247 86.5526C22.115 86.8964 22.2102 87.287 22.2102 87.7245C22.2102 88.0881 22.1491 88.3992 22.0269 88.6577C21.9048 88.9163 21.7386 89.1251 21.5284 89.2842C21.3181 89.4432 21.0838 89.5583 20.8252 89.6293V89.6975C21.1065 89.7174 21.3792 89.8168 21.6434 89.9958C21.9076 90.1719 22.125 90.4191 22.2954 90.7373C22.4659 91.0555 22.5511 91.4361 22.5511 91.8793C22.5511 92.3197 22.4531 92.7131 22.2571 93.0597C22.061 93.4035 21.7599 93.6748 21.3536 93.8736C20.9502 94.0697 20.436 94.1677 19.811 94.1677H16.7045ZM17.5014 93.4518H19.811C20.4843 93.4518 20.9815 93.3026 21.3025 93.0043C21.6264 92.706 21.7883 92.331 21.7883 91.8793C21.7883 91.5469 21.7073 91.2458 21.5454 90.9759C21.3863 90.7032 21.1605 90.4873 20.8679 90.3282C20.5781 90.1691 20.2372 90.0896 19.8451 90.0896H17.5014V93.4518ZM17.5014 89.3822H19.7215C20.0653 89.3822 20.3664 89.3111 20.625 89.1691C20.8835 89.0271 21.0852 88.831 21.2301 88.581C21.375 88.331 21.4474 88.0455 21.4474 87.7245C21.4474 87.2614 21.2968 86.885 20.9957 86.5952C20.6946 86.3026 20.2457 86.1563 19.6491 86.1563H17.5014V89.3822ZM28.4755 91.6663V87.6222H29.234V94.1677H28.4755V93.081H28.4158C28.2624 93.4163 28.0195 93.6961 27.6871 93.9205C27.3547 94.1421 26.9485 94.2529 26.4684 94.2529C26.0507 94.2529 25.68 94.162 25.3561 93.9802C25.0323 93.7955 24.778 93.5256 24.5934 93.1705C24.4087 92.8154 24.3164 92.3793 24.3164 91.8623V87.6222H25.0749V91.8154C25.0749 92.3268 25.2255 92.7387 25.5266 93.0512C25.8277 93.3609 26.2141 93.5157 26.6857 93.5157C26.9811 93.5157 27.2652 93.4447 27.538 93.3026C27.8107 93.1606 28.0351 92.9532 28.2112 92.6805C28.3874 92.4049 28.4755 92.0668 28.4755 91.6663ZM31.7706 96.6222C31.62 96.6222 31.4794 96.608 31.3487 96.5796C31.218 96.5512 31.1143 96.52 31.0376 96.4859L31.2421 95.8168C31.5007 95.8964 31.7308 95.9248 31.9325 95.9021C32.1342 95.8822 32.3132 95.7913 32.4694 95.6293C32.6257 95.4702 32.7649 95.2259 32.887 94.8964L33.1257 94.2316L30.718 87.6222H31.5404L33.4836 93.1663H33.5433L35.4865 87.6222H36.3089L33.539 95.2032C33.4225 95.5185 33.2791 95.7813 33.1086 95.9915C32.9382 96.2046 32.7407 96.3623 32.5163 96.4646C32.2947 96.5697 32.0461 96.6222 31.7706 96.6222ZM38.6441 92.9745L38.5674 93.4305C38.5191 93.7373 38.451 94.0753 38.3629 94.4447C38.2748 94.814 38.1839 95.1648 38.0902 95.4972C37.9964 95.8296 37.9154 96.0967 37.8473 96.2984H37.2634C37.3004 96.1052 37.3473 95.8594 37.4041 95.5611C37.4637 95.2628 37.5248 94.9319 37.5873 94.5682C37.6498 94.2075 37.7066 93.8353 37.7578 93.4518L37.8174 92.9745H38.6441ZM48.425 89.0583L47.7304 89.2543C47.6622 89.0583 47.5657 88.8807 47.4407 88.7217C47.3157 88.5626 47.1523 88.4361 46.9506 88.3424C46.7517 88.2486 46.5046 88.2018 46.2091 88.2018C45.7659 88.2018 45.4023 88.3069 45.1182 88.5171C44.8341 88.7273 44.6921 88.9986 44.6921 89.331C44.6921 89.6123 44.7887 89.841 44.9818 90.0171C45.1779 90.1904 45.479 90.3282 45.8853 90.4305L46.8739 90.6734C47.4222 90.8069 47.8327 91.0185 48.1054 91.3083C48.381 91.5981 48.5188 91.9617 48.5188 92.3992C48.5188 92.7685 48.4165 93.0967 48.212 93.3836C48.0074 93.6705 47.7219 93.8964 47.3554 94.0611C46.9918 94.2231 46.5699 94.304 46.0898 94.304C45.4506 94.304 44.9236 94.1606 44.5088 93.8736C44.0941 93.5839 43.8284 93.1663 43.712 92.6208L44.4407 92.4418C44.5344 92.831 44.7176 93.1251 44.9904 93.3239C45.2659 93.5228 45.6282 93.6222 46.077 93.6222C46.5799 93.6222 46.9818 93.51 47.283 93.2856C47.5841 93.0583 47.7347 92.7742 47.7347 92.4333C47.7347 92.1691 47.6466 91.9475 47.4705 91.7685C47.2943 91.5867 47.0273 91.4532 46.6693 91.368L45.5997 91.1123C45.0316 90.9759 44.6111 90.76 44.3384 90.4646C44.0657 90.1691 43.9293 89.8026 43.9293 89.3651C43.9293 89.0043 44.0273 88.6876 44.2233 88.4148C44.4193 88.1393 44.6892 87.9234 45.033 87.7671C45.3767 87.6109 45.7688 87.5327 46.2091 87.5327C46.8085 87.5327 47.2872 87.6691 47.6452 87.9418C48.006 88.2117 48.2659 88.5839 48.425 89.0583ZM52.826 94.304C52.2152 94.304 51.6867 94.162 51.2407 93.8779C50.7947 93.591 50.4495 93.1947 50.2052 92.689C49.9637 92.1805 49.843 91.5952 49.843 90.9333C49.843 90.2742 49.9637 89.689 50.2052 89.1776C50.4495 88.6634 50.7862 88.2614 51.2152 87.9717C51.647 87.679 52.1456 87.5327 52.7109 87.5327C53.066 87.5327 53.4083 87.5981 53.7379 87.7288C54.0674 87.8566 54.3629 88.054 54.6242 88.3211C54.8885 88.5853 55.0973 88.9191 55.2507 89.3225C55.4041 89.7231 55.4808 90.1975 55.4808 90.7458V91.1208H50.3671V90.4518H54.7052C54.7052 90.0313 54.62 89.6535 54.4495 89.3182C54.2819 88.9802 54.0475 88.7131 53.7464 88.5171C53.4481 88.3211 53.1029 88.2231 52.7109 88.2231C52.2961 88.2231 51.9311 88.3339 51.6157 88.5555C51.3004 88.7771 51.0532 89.0697 50.8742 89.4333C50.6981 89.7969 50.6086 90.1947 50.6058 90.6265V91.0271C50.6058 91.5469 50.6953 92.0015 50.8742 92.3907C51.0561 92.7771 51.3132 93.0768 51.6456 93.2898C51.9779 93.5029 52.3714 93.6094 52.826 93.6094C53.1356 93.6094 53.4069 93.5611 53.6399 93.4646C53.8757 93.368 54.0731 93.2387 54.2322 93.0768C54.3941 92.912 54.5163 92.7316 54.5987 92.5356L55.3188 92.77C55.2194 93.0455 55.0561 93.2998 54.8288 93.5327C54.6044 93.7657 54.3231 93.9532 53.985 94.0952C53.6498 94.2344 53.2635 94.304 52.826 94.304ZM57.9108 85.4404V94.1677H57.1523V85.4404H57.9108ZM60.6764 85.4404V94.1677H59.9179V85.4404H60.6764ZM63.9449 92.9745L63.8682 93.4305C63.8199 93.7373 63.7517 94.0753 63.6637 94.4447C63.5756 94.814 63.4847 95.1648 63.3909 95.4972C63.2972 95.8296 63.2162 96.0967 63.148 96.2984H62.5642C62.6012 96.1052 62.648 95.8594 62.7049 95.5611C62.7645 95.2628 62.8256 94.9319 62.8881 94.5682C62.9506 94.2075 63.0074 93.8353 63.0585 93.4518L63.1182 92.9745H63.9449ZM71.1562 94.3168C70.7613 94.3168 70.4005 94.2401 70.0738 94.0867C69.7471 93.9305 69.4872 93.706 69.294 93.4134C69.1008 93.118 69.0042 92.76 69.0042 92.3396C69.0042 92.0157 69.0653 91.743 69.1875 91.5214C69.3096 91.2998 69.4829 91.118 69.7073 90.9759C69.9318 90.8339 70.1974 90.7217 70.5042 90.6393C70.811 90.5569 71.1491 90.493 71.5184 90.4475C71.8849 90.4021 72.1946 90.3623 72.4474 90.3282C72.7031 90.2941 72.8977 90.2401 73.0312 90.1663C73.1647 90.0924 73.2315 89.9731 73.2315 89.8083V89.6549C73.2315 89.2089 73.098 88.858 72.8309 88.6023C72.5667 88.3438 72.186 88.2146 71.6889 88.2146C71.2173 88.2146 70.8323 88.3182 70.534 88.5256C70.2386 88.733 70.0312 88.9773 69.9119 89.2586L69.1917 88.9986C69.3394 88.6407 69.544 88.3552 69.8054 88.1421C70.0667 87.9262 70.3593 87.7714 70.6832 87.6776C71.0071 87.581 71.3352 87.5327 71.6676 87.5327C71.9176 87.5327 72.1775 87.5654 72.4474 87.6307C72.7201 87.6961 72.973 87.8097 73.2059 87.9717C73.4389 88.1307 73.6278 88.3538 73.7727 88.6407C73.9176 88.9248 73.99 89.2856 73.99 89.7231V94.1677H73.2315V93.1322H73.1846C73.0937 93.3253 72.9588 93.5128 72.7798 93.6947C72.6008 93.8765 72.3764 94.0256 72.1065 94.1421C71.8366 94.2586 71.5198 94.3168 71.1562 94.3168ZM71.2585 93.6222C71.6619 93.6222 72.0113 93.5327 72.3068 93.3538C72.6022 93.1748 72.8295 92.9376 72.9886 92.6421C73.1505 92.3438 73.2315 92.0157 73.2315 91.6577V90.7117C73.1747 90.7657 73.0795 90.814 72.946 90.8566C72.8153 90.8992 72.6633 90.9376 72.49 90.9717C72.3196 91.0029 72.1491 91.0299 71.9786 91.0526C71.8082 91.0753 71.6548 91.0952 71.5184 91.1123C71.1491 91.1577 70.8338 91.2288 70.5724 91.3253C70.311 91.4219 70.1108 91.5555 69.9715 91.7259C69.8323 91.8935 69.7627 92.1094 69.7627 92.3736C69.7627 92.7714 69.9048 93.0796 70.1889 93.2984C70.473 93.5143 70.8295 93.6222 71.2585 93.6222ZM76.7663 90.0768V94.1677H76.0078V87.6222H76.745V88.6492H76.8132C76.9666 88.314 77.2052 88.0455 77.5291 87.8438C77.8558 87.6393 78.2592 87.537 78.7393 87.537C79.1796 87.537 79.566 87.6293 79.8984 87.814C80.2336 87.9958 80.4936 88.2643 80.6782 88.6194C80.8657 88.9745 80.9595 89.4106 80.9595 89.9276V94.1677H80.201V89.9745C80.201 89.4376 80.0504 89.0128 79.7492 88.7003C79.451 88.3878 79.0504 88.2316 78.5475 88.2316C78.2038 88.2316 77.8984 88.3055 77.6313 88.4532C77.3643 88.6009 77.1527 88.814 76.9964 89.0924C76.843 89.368 76.7663 89.6961 76.7663 90.0768ZM85.3135 94.304C84.7766 94.304 84.3064 94.162 83.903 93.8779C83.4996 93.5938 83.1843 93.1975 82.957 92.689C82.7326 92.1805 82.6203 91.5881 82.6203 90.912C82.6203 90.2387 82.7326 89.6492 82.957 89.1435C83.1843 88.635 83.501 88.2401 83.9073 87.9589C84.3135 87.6748 84.7865 87.5327 85.3263 87.5327C85.724 87.5327 86.055 87.6038 86.3192 87.7458C86.5834 87.885 86.7951 88.0583 86.9541 88.2657C87.1132 88.4731 87.2368 88.6748 87.3249 88.8708H87.3931V85.4404H88.1559V94.1677H87.4144V92.9532H87.3249C87.2368 93.1521 87.1118 93.3566 86.9499 93.5668C86.788 93.7742 86.5735 93.9489 86.3064 94.091C86.0422 94.233 85.7112 94.304 85.3135 94.304ZM85.403 93.6094C85.8263 93.6094 86.1871 93.4944 86.4854 93.2643C86.7837 93.0313 87.011 92.7117 87.1672 92.3055C87.3263 91.8964 87.4059 91.4276 87.4059 90.8992C87.4059 90.3765 87.3277 89.9148 87.1715 89.5143C87.0152 89.1109 86.788 88.7955 86.4897 88.5682C86.1914 88.3381 85.8291 88.2231 85.403 88.2231C84.9655 88.2231 84.5962 88.3424 84.2951 88.581C83.9968 88.8168 83.7695 89.1364 83.6132 89.5398C83.4598 89.9432 83.3831 90.3964 83.3831 90.8992C83.3831 91.4077 83.4612 91.8665 83.6175 92.2756C83.7737 92.6847 84.001 93.01 84.2993 93.2515C84.6005 93.4901 84.9684 93.6094 85.403 93.6094ZM96.2695 87.6222V88.2827H93.1459V87.6222H96.2695ZM94.1218 86.054H94.8845V92.4589C94.8845 92.7316 94.9314 92.9461 95.0252 93.1023C95.1189 93.2557 95.2411 93.3651 95.3916 93.4305C95.5422 93.493 95.7027 93.5242 95.8732 93.5242C95.9726 93.5242 96.0578 93.5185 96.1289 93.5072C96.1999 93.493 96.2624 93.4788 96.3164 93.4646L96.4783 94.1506C96.4044 94.179 96.3135 94.2046 96.2056 94.2273C96.0976 94.2529 95.9641 94.2657 95.805 94.2657C95.5266 94.2657 95.2581 94.2046 94.9996 94.0825C94.7439 93.9603 94.5337 93.7785 94.3689 93.537C94.2041 93.2955 94.1218 92.9958 94.1218 92.6378V86.054ZM97.9921 94.1677V87.6222H98.7294V88.6279H98.7848C98.9154 88.2984 99.1427 88.0327 99.4666 87.831C99.7933 87.6265 100.163 87.5242 100.575 87.5242C100.637 87.5242 100.707 87.5256 100.783 87.5285C100.86 87.5313 100.924 87.5342 100.975 87.537V88.3083C100.941 88.3026 100.881 88.2941 100.796 88.2827C100.711 88.2714 100.619 88.2657 100.519 88.2657C100.178 88.2657 99.8742 88.3381 99.6072 88.483C99.343 88.6251 99.1342 88.8225 98.9808 89.0753C98.8274 89.3282 98.7507 89.6165 98.7507 89.9404V94.1677H97.9921ZM104.098 94.3168C103.703 94.3168 103.342 94.2401 103.015 94.0867C102.689 93.9305 102.429 93.706 102.235 93.4134C102.042 93.118 101.946 92.76 101.946 92.3396C101.946 92.0157 102.007 91.743 102.129 91.5214C102.251 91.2998 102.424 91.118 102.649 90.9759C102.873 90.8339 103.139 90.7217 103.446 90.6393C103.752 90.5569 104.091 90.493 104.46 90.4475C104.826 90.4021 105.136 90.3623 105.389 90.3282C105.644 90.2941 105.839 90.2401 105.973 90.1663C106.106 90.0924 106.173 89.9731 106.173 89.8083V89.6549C106.173 89.2089 106.039 88.858 105.772 88.6023C105.508 88.3438 105.127 88.2146 104.63 88.2146C104.159 88.2146 103.774 88.3182 103.475 88.5256C103.18 88.733 102.973 88.9773 102.853 89.2586L102.133 88.9986C102.281 88.6407 102.485 88.3552 102.747 88.1421C103.008 87.9262 103.301 87.7714 103.625 87.6776C103.948 87.581 104.277 87.5327 104.609 87.5327C104.859 87.5327 105.119 87.5654 105.389 87.6307C105.662 87.6961 105.914 87.8097 106.147 87.9717C106.38 88.1307 106.569 88.3538 106.714 88.6407C106.859 88.9248 106.931 89.2856 106.931 89.7231V94.1677H106.173V93.1322H106.126C106.035 93.3253 105.9 93.5128 105.721 93.6947C105.542 93.8765 105.318 94.0256 105.048 94.1421C104.778 94.2586 104.461 94.3168 104.098 94.3168ZM104.2 93.6222C104.603 93.6222 104.953 93.5327 105.248 93.3538C105.544 93.1748 105.771 92.9376 105.93 92.6421C106.092 92.3438 106.173 92.0157 106.173 91.6577V90.7117C106.116 90.7657 106.021 90.814 105.887 90.8566C105.757 90.8992 105.605 90.9376 105.431 90.9717C105.261 91.0029 105.091 91.0299 104.92 91.0526C104.75 91.0753 104.596 91.0952 104.46 91.1123C104.091 91.1577 103.775 91.2288 103.514 91.3253C103.252 91.4219 103.052 91.5555 102.913 91.7259C102.774 91.8935 102.704 92.1094 102.704 92.3736C102.704 92.7714 102.846 93.0796 103.13 93.2984C103.414 93.5143 103.771 93.6222 104.2 93.6222ZM111.306 94.304C110.769 94.304 110.299 94.162 109.895 93.8779C109.492 93.5938 109.176 93.1975 108.949 92.689C108.725 92.1805 108.613 91.5881 108.613 90.912C108.613 90.2387 108.725 89.6492 108.949 89.1435C109.176 88.635 109.493 88.2401 109.899 87.9589C110.306 87.6748 110.779 87.5327 111.318 87.5327C111.716 87.5327 112.047 87.6038 112.311 87.7458C112.576 87.885 112.787 88.0583 112.946 88.2657C113.105 88.4731 113.229 88.6748 113.317 88.8708H113.385V85.4404H114.148V94.1677H113.407V92.9532H113.317C113.229 93.1521 113.104 93.3566 112.942 93.5668C112.78 93.7742 112.566 93.9489 112.299 94.091C112.034 94.233 111.703 94.304 111.306 94.304ZM111.395 93.6094C111.818 93.6094 112.179 93.4944 112.478 93.2643C112.776 93.0313 113.003 92.7117 113.159 92.3055C113.318 91.8964 113.398 91.4276 113.398 90.8992C113.398 90.3765 113.32 89.9148 113.164 89.5143C113.007 89.1109 112.78 88.7955 112.482 88.5682C112.184 88.3381 111.821 88.2231 111.395 88.2231C110.958 88.2231 110.588 88.3424 110.287 88.581C109.989 88.8168 109.762 89.1364 109.605 89.5398C109.452 89.9432 109.375 90.3964 109.375 90.8992C109.375 91.4077 109.453 91.8665 109.61 92.2756C109.766 92.6847 109.993 93.01 110.292 93.2515C110.593 93.4901 110.961 93.6094 111.395 93.6094ZM118.955 94.304C118.344 94.304 117.816 94.162 117.37 93.8779C116.924 93.591 116.578 93.1947 116.334 92.689C116.093 92.1805 115.972 91.5952 115.972 90.9333C115.972 90.2742 116.093 89.689 116.334 89.1776C116.578 88.6634 116.915 88.2614 117.344 87.9717C117.776 87.679 118.274 87.5327 118.84 87.5327C119.195 87.5327 119.537 87.5981 119.867 87.7288C120.196 87.8566 120.492 88.054 120.753 88.3211C121.017 88.5853 121.226 88.9191 121.38 89.3225C121.533 89.7231 121.61 90.1975 121.61 90.7458V91.1208H116.496V90.4518H120.834C120.834 90.0313 120.749 89.6535 120.578 89.3182C120.411 88.9802 120.176 88.7131 119.875 88.5171C119.577 88.3211 119.232 88.2231 118.84 88.2231C118.425 88.2231 118.06 88.3339 117.745 88.5555C117.429 88.7771 117.182 89.0697 117.003 89.4333C116.827 89.7969 116.738 90.1947 116.735 90.6265V91.0271C116.735 91.5469 116.824 92.0015 117.003 92.3907C117.185 92.7771 117.442 93.0768 117.774 93.2898C118.107 93.5029 118.5 93.6094 118.955 93.6094C119.265 93.6094 119.536 93.5611 119.769 93.4646C120.005 93.368 120.202 93.2387 120.361 93.0768C120.523 92.912 120.645 92.7316 120.728 92.5356L121.448 92.77C121.348 93.0455 121.185 93.2998 120.958 93.5327C120.733 93.7657 120.452 93.9532 120.114 94.0952C119.779 94.2344 119.392 94.304 118.955 94.304ZM129.213 94.304C128.628 94.304 128.118 94.1577 127.683 93.8651C127.251 93.5725 126.916 93.1719 126.678 92.6634C126.439 92.1549 126.32 91.5753 126.32 90.9248C126.32 90.2685 126.44 89.6847 126.682 89.1734C126.926 88.662 127.264 88.2614 127.696 87.9717C128.128 87.679 128.629 87.5327 129.2 87.5327C129.638 87.5327 130.034 87.618 130.389 87.7884C130.744 87.956 131.037 88.1932 131.267 88.5001C131.5 88.804 131.646 89.1592 131.706 89.5654H130.939C130.859 89.1961 130.668 88.8807 130.364 88.6194C130.062 88.3552 129.679 88.2231 129.213 88.2231C128.795 88.2231 128.426 88.3367 128.105 88.564C127.784 88.7884 127.533 89.1023 127.351 89.5057C127.172 89.9063 127.082 90.3708 127.082 90.8992C127.082 91.4305 127.17 91.9006 127.347 92.3097C127.523 92.716 127.77 93.0342 128.088 93.2643C128.409 93.4944 128.784 93.6094 129.213 93.6094C129.503 93.6094 129.767 93.5555 130.006 93.4475C130.247 93.3367 130.449 93.1805 130.611 92.9788C130.776 92.7771 130.886 92.537 130.943 92.2586H131.71C131.653 92.6535 131.513 93.0057 131.288 93.3154C131.067 93.6222 130.778 93.8637 130.423 94.0398C130.071 94.216 129.668 94.304 129.213 94.304ZM135.164 94.3168C134.769 94.3168 134.408 94.2401 134.082 94.0867C133.755 93.9305 133.495 93.706 133.302 93.4134C133.109 93.118 133.012 92.76 133.012 92.3396C133.012 92.0157 133.073 91.743 133.195 91.5214C133.317 91.2998 133.491 91.118 133.715 90.9759C133.94 90.8339 134.205 90.7217 134.512 90.6393C134.819 90.5569 135.157 90.493 135.526 90.4475C135.893 90.4021 136.202 90.3623 136.455 90.3282C136.711 90.2941 136.905 90.2401 137.039 90.1663C137.173 90.0924 137.239 89.9731 137.239 89.8083V89.6549C137.239 89.2089 137.106 88.858 136.839 88.6023C136.575 88.3438 136.194 88.2146 135.697 88.2146C135.225 88.2146 134.84 88.3182 134.542 88.5256C134.246 88.733 134.039 88.9773 133.92 89.2586L133.2 88.9986C133.347 88.6407 133.552 88.3552 133.813 88.1421C134.075 87.9262 134.367 87.7714 134.691 87.6776C135.015 87.581 135.343 87.5327 135.675 87.5327C135.925 87.5327 136.185 87.5654 136.455 87.6307C136.728 87.6961 136.981 87.8097 137.214 87.9717C137.447 88.1307 137.636 88.3538 137.78 88.6407C137.925 88.9248 137.998 89.2856 137.998 89.7231V94.1677H137.239V93.1322H137.192C137.102 93.3253 136.967 93.5128 136.788 93.6947C136.609 93.8765 136.384 94.0256 136.114 94.1421C135.844 94.2586 135.528 94.3168 135.164 94.3168ZM135.266 93.6222C135.67 93.6222 136.019 93.5327 136.315 93.3538C136.61 93.1748 136.837 92.9376 136.996 92.6421C137.158 92.3438 137.239 92.0157 137.239 91.6577V90.7117C137.182 90.7657 137.087 90.814 136.954 90.8566C136.823 90.8992 136.671 90.9376 136.498 90.9717C136.327 91.0029 136.157 91.0299 135.986 91.0526C135.816 91.0753 135.663 91.0952 135.526 91.1123C135.157 91.1577 134.842 91.2288 134.58 91.3253C134.319 91.4219 134.119 91.5555 133.979 91.7259C133.84 91.8935 133.771 92.1094 133.771 92.3736C133.771 92.7714 133.913 93.0796 134.197 93.2984C134.481 93.5143 134.837 93.6222 135.266 93.6222ZM140.016 94.1677V87.6222H140.753V88.6279H140.808C140.939 88.2984 141.166 88.0327 141.49 87.831C141.817 87.6265 142.186 87.5242 142.598 87.5242C142.66 87.5242 142.73 87.5256 142.807 87.5285C142.883 87.5313 142.947 87.5342 142.999 87.537V88.3083C142.964 88.3026 142.905 88.2941 142.82 88.2827C142.734 88.2714 142.642 88.2657 142.543 88.2657C142.202 88.2657 141.898 88.3381 141.631 88.483C141.366 88.6251 141.158 88.8225 141.004 89.0753C140.851 89.3282 140.774 89.6165 140.774 89.9404V94.1677H140.016ZM146.45 94.304C145.913 94.304 145.443 94.162 145.04 93.8779C144.636 93.5938 144.321 93.1975 144.094 92.689C143.869 92.1805 143.757 91.5881 143.757 90.912C143.757 90.2387 143.869 89.6492 144.094 89.1435C144.321 88.635 144.638 88.2401 145.044 87.9589C145.45 87.6748 145.923 87.5327 146.463 87.5327C146.861 87.5327 147.192 87.6038 147.456 87.7458C147.72 87.885 147.932 88.0583 148.091 88.2657C148.25 88.4731 148.374 88.6748 148.462 88.8708H148.53V85.4404H149.293V94.1677H148.551V92.9532H148.462C148.374 93.1521 148.249 93.3566 148.087 93.5668C147.925 93.7742 147.71 93.9489 147.443 94.091C147.179 94.233 146.848 94.304 146.45 94.304ZM146.54 93.6094C146.963 93.6094 147.324 93.4944 147.622 93.2643C147.92 93.0313 148.148 92.7117 148.304 92.3055C148.463 91.8964 148.543 91.4276 148.543 90.8992C148.543 90.3765 148.464 89.9148 148.308 89.5143C148.152 89.1109 147.925 88.7955 147.626 88.5682C147.328 88.3381 146.966 88.2231 146.54 88.2231C146.102 88.2231 145.733 88.3424 145.432 88.581C145.133 88.8168 144.906 89.1364 144.75 89.5398C144.597 89.9432 144.52 90.3964 144.52 90.8992C144.52 91.4077 144.598 91.8665 144.754 92.2756C144.91 92.6847 145.138 93.01 145.436 93.2515C145.737 93.4901 146.105 93.6094 146.54 93.6094ZM155.851 89.0583L155.156 89.2543C155.088 89.0583 154.991 88.8807 154.866 88.7217C154.741 88.5626 154.578 88.4361 154.376 88.3424C154.178 88.2486 153.93 88.2018 153.635 88.2018C153.192 88.2018 152.828 88.3069 152.544 88.5171C152.26 88.7273 152.118 88.9986 152.118 89.331C152.118 89.6123 152.214 89.841 152.408 90.0171C152.604 90.1904 152.905 90.3282 153.311 90.4305L154.3 90.6734C154.848 90.8069 155.258 91.0185 155.531 91.3083C155.807 91.5981 155.945 91.9617 155.945 92.3992C155.945 92.7685 155.842 93.0967 155.638 93.3836C155.433 93.6705 155.148 93.8964 154.781 94.0611C154.418 94.2231 153.996 94.304 153.516 94.304C152.876 94.304 152.349 94.1606 151.935 93.8736C151.52 93.5839 151.254 93.1663 151.138 92.6208L151.866 92.4418C151.96 92.831 152.143 93.1251 152.416 93.3239C152.692 93.5228 153.054 93.6222 153.503 93.6222C154.006 93.6222 154.408 93.51 154.709 93.2856C155.01 93.0583 155.16 92.7742 155.16 92.4333C155.16 92.1691 155.072 91.9475 154.896 91.7685C154.72 91.5867 154.453 91.4532 154.095 91.368L153.026 91.1123C152.457 90.9759 152.037 90.76 151.764 90.4646C151.491 90.1691 151.355 89.8026 151.355 89.3651C151.355 89.0043 151.453 88.6876 151.649 88.4148C151.845 88.1393 152.115 87.9234 152.459 87.7671C152.803 87.6109 153.195 87.5327 153.635 87.5327C154.234 87.5327 154.713 87.6691 155.071 87.9418C155.432 88.2117 155.692 88.5839 155.851 89.0583ZM162.434 94.1677L160.456 87.6222H161.257L162.809 93.0214H162.864L164.411 87.6222H165.216L166.75 93.0086H166.81L168.361 87.6222H169.162L167.185 94.1677H166.401L164.85 88.8026H164.769L163.218 94.1677H162.434ZM170.645 94.1677V87.6222H171.408V94.1677H170.645ZM171.033 86.4972C170.877 86.4972 170.743 86.4447 170.632 86.3396C170.522 86.2316 170.466 86.1023 170.466 85.9518C170.466 85.8012 170.522 85.6734 170.632 85.5682C170.743 85.4603 170.877 85.4063 171.033 85.4063C171.189 85.4063 171.323 85.4603 171.434 85.5682C171.544 85.6734 171.6 85.8012 171.6 85.9518C171.6 86.1023 171.544 86.2316 171.434 86.3396C171.323 86.4447 171.189 86.4972 171.033 86.4972ZM175.992 87.6222V88.2827H172.869V87.6222H175.992ZM173.844 86.054H174.607V92.4589C174.607 92.7316 174.654 92.9461 174.748 93.1023C174.842 93.2557 174.964 93.3651 175.114 93.4305C175.265 93.493 175.425 93.5242 175.596 93.5242C175.695 93.5242 175.78 93.5185 175.852 93.5072C175.923 93.493 175.985 93.4788 176.039 93.4646L176.201 94.1506C176.127 94.179 176.036 94.2046 175.928 94.2273C175.82 94.2529 175.687 94.2657 175.528 94.2657C175.249 94.2657 174.981 94.2046 174.722 94.0825C174.467 93.9603 174.256 93.7785 174.092 93.537C173.927 93.2955 173.844 92.9958 173.844 92.6378V86.054ZM178.614 90.0768V94.1677H177.855V85.4404H178.614V88.6492H178.682C178.836 88.3111 179.073 88.0413 179.394 87.8396C179.718 87.6378 180.127 87.537 180.621 87.537C181.064 87.537 181.453 87.6279 181.789 87.8097C182.124 87.9915 182.385 88.26 182.573 88.6151C182.76 88.9702 182.854 89.4077 182.854 89.9276V94.1677H182.091V89.9745C182.091 89.4347 181.941 89.01 181.64 88.7003C181.341 88.3878 180.938 88.2316 180.429 88.2316C180.08 88.2316 179.769 88.3055 179.496 88.4532C179.223 88.6009 179.007 88.814 178.848 89.0924C178.692 89.368 178.614 89.6961 178.614 90.0768ZM190.771 94.304C190.205 94.304 189.705 94.1606 189.271 93.8736C188.839 93.5867 188.501 93.1904 188.256 92.6847C188.012 92.1762 187.89 91.5896 187.89 90.9248C187.89 90.2543 188.012 89.6648 188.256 89.1563C188.501 88.645 188.839 88.2472 189.271 87.9631C189.705 87.6762 190.205 87.5327 190.771 87.5327C191.336 87.5327 191.834 87.6762 192.266 87.9631C192.698 88.2501 193.036 88.6478 193.28 89.1563C193.528 89.6648 193.651 90.2543 193.651 90.9248C193.651 91.5896 193.529 92.1762 193.285 92.6847C193.04 93.1904 192.701 93.5867 192.266 93.8736C191.834 94.1606 191.336 94.304 190.771 94.304ZM190.771 93.6094C191.225 93.6094 191.61 93.4873 191.925 93.243C192.241 92.9986 192.479 92.6734 192.641 92.2671C192.806 91.8609 192.888 91.4134 192.888 90.9248C192.888 90.4361 192.806 89.9873 192.641 89.5782C192.479 89.1691 192.241 88.841 191.925 88.5938C191.61 88.3467 191.225 88.2231 190.771 88.2231C190.319 88.2231 189.934 88.3467 189.616 88.5938C189.3 88.841 189.06 89.1691 188.896 89.5782C188.734 89.9873 188.653 90.4361 188.653 90.9248C188.653 91.4134 188.734 91.8609 188.896 92.2671C189.06 92.6734 189.3 92.9986 189.616 93.243C189.931 93.4873 190.316 93.6094 190.771 93.6094ZM197.894 87.6222V88.2827H194.771V87.6222H197.894ZM195.747 86.054H196.51V92.4589C196.51 92.7316 196.556 92.9461 196.65 93.1023C196.744 93.2557 196.866 93.3651 197.017 93.4305C197.167 93.493 197.328 93.5242 197.498 93.5242C197.598 93.5242 197.683 93.5185 197.754 93.5072C197.825 93.493 197.887 93.4788 197.941 93.4646L198.103 94.1506C198.029 94.179 197.939 94.2046 197.831 94.2273C197.723 94.2529 197.589 94.2657 197.43 94.2657C197.152 94.2657 196.883 94.2046 196.625 94.0825C196.369 93.9603 196.159 93.7785 195.994 93.537C195.829 93.2955 195.747 92.9958 195.747 92.6378V86.054ZM200.516 90.0768V94.1677H199.758V85.4404H200.516V88.6492H200.584C200.738 88.3111 200.975 88.0413 201.296 87.8396C201.62 87.6378 202.029 87.537 202.523 87.537C202.967 87.537 203.356 87.6279 203.691 87.8097C204.026 87.9915 204.288 88.26 204.475 88.6151C204.663 88.9702 204.756 89.4077 204.756 89.9276V94.1677H203.994V89.9745C203.994 89.4347 203.843 89.01 203.542 88.7003C203.244 88.3878 202.84 88.2316 202.332 88.2316C201.982 88.2316 201.671 88.3055 201.398 88.4532C201.126 88.6009 200.91 88.814 200.751 89.0924C200.594 89.368 200.516 89.6961 200.516 90.0768ZM209.4 94.304C208.789 94.304 208.261 94.162 207.815 93.8779C207.369 93.591 207.024 93.1947 206.779 92.689C206.538 92.1805 206.417 91.5952 206.417 90.9333C206.417 90.2742 206.538 89.689 206.779 89.1776C207.024 88.6634 207.36 88.2614 207.789 87.9717C208.221 87.679 208.72 87.5327 209.285 87.5327C209.64 87.5327 209.983 87.5981 210.312 87.7288C210.642 87.8566 210.937 88.054 211.198 88.3211C211.463 88.5853 211.671 88.9191 211.825 89.3225C211.978 89.7231 212.055 90.1975 212.055 90.7458V91.1208H206.941V90.4518H211.279C211.279 90.0313 211.194 89.6535 211.024 89.3182C210.856 88.9802 210.622 88.7131 210.321 88.5171C210.022 88.3211 209.677 88.2231 209.285 88.2231C208.87 88.2231 208.505 88.3339 208.19 88.5555C207.875 88.7771 207.627 89.0697 207.448 89.4333C207.272 89.7969 207.183 90.1947 207.18 90.6265V91.0271C207.18 91.5469 207.269 92.0015 207.448 92.3907C207.63 92.7771 207.887 93.0768 208.22 93.2898C208.552 93.5029 208.946 93.6094 209.4 93.6094C209.71 93.6094 209.981 93.5611 210.214 93.4646C210.45 93.368 210.647 93.2387 210.806 93.0768C210.968 92.912 211.091 92.7316 211.173 92.5356L211.893 92.77C211.794 93.0455 211.63 93.2998 211.403 93.5327C211.179 93.7657 210.897 93.9532 210.559 94.0952C210.224 94.2344 209.838 94.304 209.4 94.304ZM213.727 94.1677V87.6222H214.464V88.6279H214.519C214.65 88.2984 214.877 88.0327 215.201 87.831C215.528 87.6265 215.897 87.5242 216.309 87.5242C216.371 87.5242 216.441 87.5256 216.518 87.5285C216.594 87.5313 216.658 87.5342 216.709 87.537V88.3083C216.675 88.3026 216.616 88.2941 216.53 88.2827C216.445 88.2714 216.353 88.2657 216.254 88.2657C215.913 88.2657 215.609 88.3381 215.342 88.483C215.077 88.6251 214.869 88.8225 214.715 89.0753C214.562 89.3282 214.485 89.6165 214.485 89.9404V94.1677H213.727ZM221.379 96.6222V87.6222H222.116V88.8708H222.206C222.296 88.6748 222.421 88.4745 222.581 88.27C222.74 88.0626 222.95 87.8878 223.211 87.7458C223.475 87.6038 223.808 87.5327 224.208 87.5327C224.748 87.5327 225.22 87.6748 225.623 87.9589C226.029 88.2401 226.345 88.635 226.569 89.1435C226.796 89.6492 226.91 90.2387 226.91 90.912C226.91 91.5881 226.796 92.1805 226.569 92.689C226.345 93.1975 226.029 93.5938 225.623 93.8779C225.22 94.162 224.751 94.304 224.217 94.304C223.822 94.304 223.491 94.233 223.224 94.091C222.96 93.9489 222.745 93.7742 222.581 93.5668C222.419 93.3566 222.294 93.1521 222.206 92.9532H222.137V96.6222H221.379ZM222.129 90.8992C222.129 91.4276 222.207 91.8964 222.363 92.3055C222.522 92.7117 222.75 93.0313 223.045 93.2643C223.343 93.4944 223.704 93.6094 224.127 93.6094C224.562 93.6094 224.929 93.4901 225.227 93.2515C225.528 93.01 225.757 92.6847 225.913 92.2756C226.072 91.8665 226.152 91.4077 226.152 90.8992C226.152 90.3964 226.073 89.9432 225.917 89.5398C225.764 89.1364 225.537 88.8168 225.235 88.581C224.934 88.3424 224.565 88.2231 224.127 88.2231C223.701 88.2231 223.339 88.3381 223.041 88.5682C222.742 88.7955 222.515 89.1109 222.359 89.5143C222.206 89.9148 222.129 90.3765 222.129 90.8992ZM229.333 85.4404V94.1677H228.574V85.4404H229.333ZM233.168 94.3168C232.773 94.3168 232.412 94.2401 232.086 94.0867C231.759 93.9305 231.499 93.706 231.306 93.4134C231.113 93.118 231.016 92.76 231.016 92.3396C231.016 92.0157 231.077 91.743 231.199 91.5214C231.321 91.2998 231.495 91.118 231.719 90.9759C231.943 90.8339 232.209 90.7217 232.516 90.6393C232.823 90.5569 233.161 90.493 233.53 90.4475C233.897 90.4021 234.206 90.3623 234.459 90.3282C234.715 90.2941 234.909 90.2401 235.043 90.1663C235.176 90.0924 235.243 89.9731 235.243 89.8083V89.6549C235.243 89.2089 235.11 88.858 234.843 88.6023C234.578 88.3438 234.198 88.2146 233.701 88.2146C233.229 88.2146 232.844 88.3182 232.546 88.5256C232.25 88.733 232.043 88.9773 231.924 89.2586L231.203 88.9986C231.351 88.6407 231.556 88.3552 231.817 88.1421C232.078 87.9262 232.371 87.7714 232.695 87.6776C233.019 87.581 233.347 87.5327 233.679 87.5327C233.929 87.5327 234.189 87.5654 234.459 87.6307C234.732 87.6961 234.985 87.8097 235.218 87.9717C235.451 88.1307 235.64 88.3538 235.784 88.6407C235.929 88.9248 236.002 89.2856 236.002 89.7231V94.1677H235.243V93.1322H235.196C235.105 93.3253 234.97 93.5128 234.792 93.6947C234.613 93.8765 234.388 94.0256 234.118 94.1421C233.848 94.2586 233.532 94.3168 233.168 94.3168ZM233.27 93.6222C233.674 93.6222 234.023 93.5327 234.318 93.3538C234.614 93.1748 234.841 92.9376 235 92.6421C235.162 92.3438 235.243 92.0157 235.243 91.6577V90.7117C235.186 90.7657 235.091 90.814 234.958 90.8566C234.827 90.8992 234.675 90.9376 234.502 90.9717C234.331 91.0029 234.161 91.0299 233.99 91.0526C233.82 91.0753 233.667 91.0952 233.53 91.1123C233.161 91.1577 232.845 91.2288 232.584 91.3253C232.323 91.4219 232.122 91.5555 231.983 91.7259C231.844 91.8935 231.774 92.1094 231.774 92.3736C231.774 92.7714 231.917 93.0796 232.201 93.2984C232.485 93.5143 232.841 93.6222 233.27 93.6222ZM238.314 96.6222C238.163 96.6222 238.022 96.608 237.892 96.5796C237.761 96.5512 237.657 96.52 237.581 96.4859L237.785 95.8168C238.044 95.8964 238.274 95.9248 238.475 95.9021C238.677 95.8822 238.856 95.7913 239.012 95.6293C239.169 95.4702 239.308 95.2259 239.43 94.8964L239.669 94.2316L237.261 87.6222H238.083L240.027 93.1663H240.086L242.029 87.6222H242.852L240.082 95.2032C239.966 95.5185 239.822 95.7813 239.652 95.9915C239.481 96.2046 239.284 96.3623 239.059 96.4646C238.838 96.5697 238.589 96.6222 238.314 96.6222ZM246.748 94.304C246.137 94.304 245.609 94.162 245.163 93.8779C244.717 93.591 244.371 93.1947 244.127 92.689C243.886 92.1805 243.765 91.5952 243.765 90.9333C243.765 90.2742 243.886 89.689 244.127 89.1776C244.371 88.6634 244.708 88.2614 245.137 87.9717C245.569 87.679 246.067 87.5327 246.633 87.5327C246.988 87.5327 247.33 87.5981 247.66 87.7288C247.989 87.8566 248.285 88.054 248.546 88.3211C248.81 88.5853 249.019 88.9191 249.173 89.3225C249.326 89.7231 249.403 90.1975 249.403 90.7458V91.1208H244.289V90.4518H248.627C248.627 90.0313 248.542 89.6535 248.371 89.3182C248.204 88.9802 247.969 88.7131 247.668 88.5171C247.37 88.3211 247.025 88.2231 246.633 88.2231C246.218 88.2231 245.853 88.3339 245.538 88.5555C245.222 88.7771 244.975 89.0697 244.796 89.4333C244.62 89.7969 244.53 90.1947 244.528 90.6265V91.0271C244.528 91.5469 244.617 92.0015 244.796 92.3907C244.978 92.7771 245.235 93.0768 245.567 93.2898C245.9 93.5029 246.293 93.6094 246.748 93.6094C247.057 93.6094 247.329 93.5611 247.562 93.4646C247.798 93.368 247.995 93.2387 248.154 93.0768C248.316 92.912 248.438 92.7316 248.521 92.5356L249.241 92.77C249.141 93.0455 248.978 93.2998 248.751 93.5327C248.526 93.7657 248.245 93.9532 247.907 94.0952C247.572 94.2344 247.185 94.304 246.748 94.304ZM251.074 94.1677V87.6222H251.811V88.6279H251.867C251.997 88.2984 252.225 88.0327 252.549 87.831C252.875 87.6265 253.245 87.5242 253.657 87.5242C253.719 87.5242 253.789 87.5256 253.865 87.5285C253.942 87.5313 254.006 87.5342 254.057 87.537V88.3083C254.023 88.3026 253.963 88.2941 253.878 88.2827C253.793 88.2714 253.701 88.2657 253.601 88.2657C253.26 88.2657 252.956 88.3381 252.689 88.483C252.425 88.6251 252.216 88.8225 252.063 89.0753C251.909 89.3282 251.833 89.6165 251.833 89.9404V94.1677H251.074ZM259.749 89.0583L259.055 89.2543C258.986 89.0583 258.89 88.8807 258.765 88.7217C258.64 88.5626 258.477 88.4361 258.275 88.3424C258.076 88.2486 257.829 88.2018 257.533 88.2018C257.09 88.2018 256.727 88.3069 256.442 88.5171C256.158 88.7273 256.016 88.9986 256.016 89.331C256.016 89.6123 256.113 89.841 256.306 90.0171C256.502 90.1904 256.803 90.3282 257.209 90.4305L258.198 90.6734C258.746 90.8069 259.157 91.0185 259.43 91.3083C259.705 91.5981 259.843 91.9617 259.843 92.3992C259.843 92.7685 259.741 93.0967 259.536 93.3836C259.332 93.6705 259.046 93.8964 258.68 94.0611C258.316 94.2231 257.894 94.304 257.414 94.304C256.775 94.304 256.248 94.1606 255.833 93.8736C255.418 93.5839 255.153 93.1663 255.036 92.6208L255.765 92.4418C255.859 92.831 256.042 93.1251 256.315 93.3239C256.59 93.5228 256.952 93.6222 257.401 93.6222C257.904 93.6222 258.306 93.51 258.607 93.2856C258.908 93.0583 259.059 92.7742 259.059 92.4333C259.059 92.1691 258.971 91.9475 258.795 91.7685C258.619 91.5867 258.352 91.4532 257.994 91.368L256.924 91.1123C256.356 90.9759 255.935 90.76 255.663 90.4646C255.39 90.1691 255.254 89.8026 255.254 89.3651C255.254 89.0043 255.352 88.6876 255.548 88.4148C255.744 88.1393 256.013 87.9234 256.357 87.7671C256.701 87.6109 257.093 87.5327 257.533 87.5327C258.133 87.5327 258.611 87.6691 258.969 87.9418C259.33 88.2117 259.59 88.5839 259.749 89.0583Z" fill="#E8E8E8"/>
<g filter="url(#filter0_i_150_26116)">
<path d="M261.715 13.6821C261.791 10.1517 261.546 7.57401 260.978 5.45453C260.441 3.45333 259.519 1.49783 257.776 -0.664091C255.925 -2.96008 254.209 -4.10726 252.437 -4.68177C250.552 -5.29287 248.295 -5.353 245.348 -4.84024C244.567 -4.70428 243.095 -4.11447 241.032 -2.97717C240.201 -2.51934 239.336 -2.00544 238.459 -1.46164C240.762 -0.360671 243.159 1.02185 245.33 2.75237C248.181 5.02585 251.394 8.50343 252.838 13.5709L253.046 14.3362C255.067 22.209 253.437 29.0882 252.217 34.0718C250.8 39.8572 249.842 43.5408 250.413 47.53C251.785 57.1057 257.246 67.9647 263.682 74.7136C265.668 76.7962 267.342 78.6631 269.228 80.5676C266.184 76.6655 263.625 72.8322 261.58 68.5267C258.782 62.6381 257.161 56.3374 256.135 48.463C254.946 39.3406 256.755 34.1188 258.483 29.4427C260.023 25.2766 261.548 21.402 261.715 13.6821Z" fill="#020C7B" fill-opacity="0.25"/>
</g>
<g filter="url(#filter1_i_150_26116)">
<path d="M374.46 38.6369C377.748 37.3503 380.034 36.1331 381.772 34.7935C383.413 33.5286 384.864 31.9258 386.189 29.4856C387.597 26.8941 387.997 24.8695 387.846 23.0125C387.685 21.0371 386.873 18.9307 385.267 16.4077C384.841 15.7387 383.731 14.6062 381.888 13.1389C381.146 12.5483 380.339 11.9474 379.5 11.3469C379.369 13.8956 379.014 16.64 378.251 19.3092C377.248 22.8157 375.273 27.1183 371.15 30.3996L370.523 30.8854C364.033 35.778 357.056 36.9177 351.986 37.7067C346.1 38.6227 342.331 39.1544 338.868 41.2155C330.556 46.1633 322.631 55.3791 318.874 63.9147C317.715 66.5487 316.635 68.8115 315.602 71.2855C318.035 66.9754 320.59 63.1393 323.778 59.5959C328.139 54.7497 333.332 50.8305 340.207 46.8562C348.171 42.2522 353.687 41.9142 358.668 41.7122C363.106 41.5322 367.269 41.4504 374.46 38.6369Z" fill="#020C7B" fill-opacity="0.25"/>
</g>
<g filter="url(#filter2_i_150_26116)">
<path d="M226.449 -2.92484C225.217 -4.16403 224.396 -5.16166 223.817 -6.09517C223.27 -6.97659 222.839 -7.96051 222.553 -9.27157C222.249 -10.664 222.303 -11.6035 222.57 -12.3559C222.853 -13.1561 223.422 -13.8739 224.369 -14.5996C224.62 -14.792 225.208 -15.0353 226.138 -15.265C226.512 -15.3575 226.915 -15.4405 227.331 -15.5166C227.107 -14.4124 226.955 -13.1783 226.982 -11.8896C227.016 -10.1966 227.37 -7.96149 228.733 -5.70333L228.941 -5.36557C231.116 -1.92589 233.905 0.0317814 235.936 1.43776C238.293 3.06995 239.809 4.09194 241.029 5.69516C243.959 9.54359 246.26 15.1126 246.894 19.5122C247.09 20.8699 247.293 22.054 247.454 23.3174C246.91 20.9826 246.263 18.8219 245.319 16.6507C244.029 13.6814 242.289 10.9273 239.853 7.79423C237.031 4.16456 234.765 2.85473 232.707 1.71542C230.874 0.700359 229.144 -0.215066 226.449 -2.92484Z" fill="#020C7B" fill-opacity="0.25"/>
</g>
</g>
<path d="M-2 9.66773C-2 3.22382 3.22382 -2 9.66773 -2H365.332C371.776 -2 377 3.22382 377 9.66773H373C373 5.43296 369.567 2 365.332 2H9.66773C5.43296 2 2 5.43296 2 9.66773H-2ZM2 9.66773M375 113H0H375M9.66773 113C3.22382 113 -2 107.776 -2 101.332V9.66773C-2 3.22382 3.22382 -2 9.66773 -2V2C5.43296 2 2 5.43296 2 9.66773V103.332C2 108.672 5.43296 113 9.66773 113ZM365.332 -2C371.776 -2 377 3.22382 377 9.66773V101.332C377 107.776 371.776 113 365.332 113C369.567 113 373 108.672 373 103.332V9.66773C373 5.43296 369.567 2 365.332 2V-2Z" fill="url(#paint3_linear_150_26116)" mask="url(#path-1-inside-1_150_26116)"/>
<defs>
<filter id="filter0_i_150_26116" x="238.459" y="-5.18644" width="30.769" height="87.1616" filterUnits="userSpaceOnUse" color-interpolation-filters="sRGB">
<feFlood flood-opacity="0" result="BackgroundImageFix"/>
<feBlend mode="normal" in="SourceGraphic" in2="BackgroundImageFix" result="shape"/>
<feColorMatrix in="SourceAlpha" type="matrix" values="0 0 0 0 0 0 0 0 0 0 0 0 0 0 0 0 0 0 127 0" result="hardAlpha"/>
<feOffset dy="1.40755"/>
<feGaussianBlur stdDeviation="0.703773"/>
<feComposite in2="hardAlpha" operator="arithmetic" k2="-1" k3="1"/>
<feColorMatrix type="matrix" values="0 0 0 0 0 0 0 0 0 0 0 0 0 0 0 0 0 0 0.25 0"/>
<feBlend mode="normal" in2="shape" result="effect1_innerShadow_150_26116"/>
</filter>
<filter id="filter1_i_150_26116" x="315.603" y="11.3469" width="72.2734" height="61.3461" filterUnits="userSpaceOnUse" color-interpolation-filters="sRGB">
<feFlood flood-opacity="0" result="BackgroundImageFix"/>
<feBlend mode="normal" in="SourceGraphic" in2="BackgroundImageFix" result="shape"/>
<feColorMatrix in="SourceAlpha" type="matrix" values="0 0 0 0 0 0 0 0 0 0 0 0 0 0 0 0 0 0 127 0" result="hardAlpha"/>
<feOffset dy="1.40755"/>
<feGaussianBlur stdDeviation="0.703773"/>
<feComposite in2="hardAlpha" operator="arithmetic" k2="-1" k3="1"/>
<feColorMatrix type="matrix" values="0 0 0 0 0 0 0 0 0 0 0 0 0 0 0 0 0 0 0.25 0"/>
<feBlend mode="normal" in2="shape" result="effect1_innerShadow_150_26116"/>
</filter>
<filter id="filter2_i_150_26116" x="222.346" y="-15.5166" width="25.1079" height="40.2416" filterUnits="userSpaceOnUse" color-interpolation-filters="sRGB">
<feFlood flood-opacity="0" result="BackgroundImageFix"/>
<feBlend mode="normal" in="SourceGraphic" in2="BackgroundImageFix" result="shape"/>
<feColorMatrix in="SourceAlpha" type="matrix" values="0 0 0 0 0 0 0 0 0 0 0 0 0 0 0 0 0 0 127 0" result="hardAlpha"/>
<feOffset dy="1.40755"/>
<feGaussianBlur stdDeviation="0.703773"/>
<feComposite in2="hardAlpha" operator="arithmetic" k2="-1" k3="1"/>
<feColorMatrix type="matrix" values="0 0 0 0 0 0 0 0 0 0 0 0 0 0 0 0 0 0 0.25 0"/>
<feBlend mode="normal" in2="shape" result="effect1_innerShadow_150_26116"/>
</filter>
<linearGradient id="paint0_linear_150_26116" x1="187.5" y1="80" x2="187.5" y2="-26" gradientUnits="userSpaceOnUse">
<stop stop-color="#010B7B"/>
<stop offset="1" stop-color="#0060DE"/>
</linearGradient>
<linearGradient id="paint1_linear_150_26116" x1="273.875" y1="78.75" x2="275.75" y2="14.25" gradientUnits="userSpaceOnUse">
<stop stop-color="#001FE8"/>
<stop offset="1" stop-color="#011599"/>
</linearGradient>
<linearGradient id="paint2_linear_150_26116" x1="323.75" y1="46.5" x2="317.213" y2="30.1268" gradientUnits="userSpaceOnUse">
<stop stop-color="#001FE8"/>
<stop offset="1" stop-color="#011599"/>
</linearGradient>
<linearGradient id="paint3_linear_150_26116" x1="187.5" y1="0" x2="187.5" y2="103.5" gradientUnits="userSpaceOnUse">
<stop stop-color="#ABC3FF"/>
<stop offset="0.128319" stop-color="#566FE3"/>
<stop offset="0.247788" stop-color="#001FE8"/>
<stop offset="0.402655" stop-color="#020C7B"/>
<stop offset="1" stop-color="#010B7B"/>
</linearGradient>
<clipPath id="clip0_150_26116">
<path d="M0 9.66773C0 4.32839 4.32839 0 9.66773 0H365.332C370.672 0 375 4.32839 375 9.66773V103.332C375 108.672 370.672 113 365.332 113H9.66773C4.32839 113 0 108.672 0 103.332V9.66773Z" fill="white"/>
</clipPath>
<clipPath id="clip1_150_26116">
<rect width="16.9048" height="16.9048" fill="white" transform="translate(23.998 24.0058)"/>
</clipPath>
<clipPath id="clip2_150_26116">
<rect width="16.9048" height="16.9048" fill="white" transform="translate(23.998 24.0058)"/>
</clipPath>
<clipPath id="clip3_150_26116">
<rect width="16.9048" height="16.9048" fill="white" transform="translate(23.998 24.0058)"/>
</clipPath>
</defs>
</svg>
