<svg width="375" height="113" viewBox="0 0 375 113" fill="none" xmlns="http://www.w3.org/2000/svg">
<g clip-path="url(#clip0_150_26113)">
<mask id="path-1-inside-1_150_26113" fill="white">
<path d="M0 9.66773C0 4.32839 4.32839 0 9.66773 0H365.332C370.672 0 375 4.32839 375 9.66773V103.332C375 108.672 370.672 113 365.332 113H9.66773C4.32839 113 0 108.672 0 103.332V9.66773Z"/>
</mask>
<path d="M0 9.66773C0 4.32839 4.32839 0 9.66773 0H365.332C370.672 0 375 4.32839 375 9.66773V103.332C375 108.672 370.672 113 365.332 113H9.66773C4.32839 113 0 108.672 0 103.332V9.66773Z" fill="url(#paint0_linear_150_26113)"/>
<mask id="path-3-inside-2_150_26113" fill="white">
<path d="M277.25 1.00031H374.25C374.25 1.00031 336.832 19.6203 316.121 37.375C299.397 51.7121 277.25 79.472 277.25 79.472C277.25 79.472 282.923 53.9842 282.599 37.375C282.318 22.973 277.25 1.00031 277.25 1.00031Z"/>
</mask>
<path d="M277.25 1.00031H374.25C374.25 1.00031 336.832 19.6203 316.121 37.375C299.397 51.7121 277.25 79.472 277.25 79.472C277.25 79.472 282.923 53.9842 282.599 37.375C282.318 22.973 277.25 1.00031 277.25 1.00031Z" fill="#010B7B"/>
<path d="M277.25 0.698287C277.25 0.899632 277.25 1.10098 277.25 1.30232C282.29 1.55091 287.33 1.7913 292.37 2.0235C319.663 3.2809 346.957 4.29789 374.25 5.07447L372.435 -2.64719C351.559 7.4479 331.165 18.1675 312.528 33.1832C297.403 46.2067 284.932 60.741 272.598 75.7604L283.059 80.7651C283.521 78.6677 283.933 76.6219 284.331 74.5615C286.588 62.4178 288.164 50.1541 287.159 37.286C286.405 29.6184 284.621 22.4879 282.539 15.4244C281.069 10.5162 279.412 5.6894 277.544 0.932424C277.348 0.977678 277.152 1.02293 276.956 1.06819C277.298 6.1429 277.576 11.2019 277.813 16.2327C278.129 23.4359 278.428 30.6714 278.04 37.464C277.193 48.8445 274.818 60.6389 272.635 72.3083C272.256 74.2729 271.844 76.3213 271.441 78.1789L281.902 83.1836C293.755 68.642 306.159 53.8669 319.715 41.5668C336.377 27.3205 356.36 15.568 376.065 4.6478L374.25 -3.07385C346.957 -2.29728 319.663 -1.28029 292.37 -0.0228853C287.33 0.209307 282.29 0.449698 277.25 0.698287ZM277.25 1.30232V0.698287L276.817 0.719635L276.956 1.06819L277.544 0.932424L277.25 1.30232Z" fill="#020C7B" mask="url(#path-3-inside-2_150_26113)"/>
<path d="M270.717 0.0809335C270.072 0.318645 269.428 0.556355 268.783 0.794066C269.242 2.003 269.699 3.26053 270.145 4.51884C273.159 13.1694 276.024 21.9921 277.383 31.0141V31.0141C279.062 45.5452 276.933 60.3804 274.395 74.8392C274.154 76.1352 273.89 77.4917 273.625 78.75C273.924 77.4992 274.221 76.1492 274.496 74.8594C277.404 60.4451 279.939 45.7252 278.617 30.8609V30.8609C277.465 21.6092 274.81 12.6888 271.999 3.88767C271.58 2.60495 271.157 1.3373 270.717 0.0809335Z" fill="url(#paint1_linear_150_26113)"/>
<path d="M374.466 6.16372C374.775 6.77756 375.084 7.39139 375.393 8.00522C373.721 8.83299 371.961 9.73115 370.256 10.6117C352.906 19.7216 335.657 29.2358 320.291 41.3517V41.3517C308.644 50.9994 298.238 62.1526 288.076 73.4111C286.791 74.8493 285.51 76.2957 284.25 77.75C285.484 76.2734 286.739 74.8042 287.998 73.3431C297.967 61.8993 308.156 50.572 319.71 40.6483V40.6483C334.977 28.1667 352.088 18.3353 369.342 8.8798C371.04 7.96401 372.782 7.03598 374.466 6.16372Z" fill="url(#paint2_linear_150_26113)"/>
<path d="M15.5454 24.0045C15.5454 19.3326 19.3328 15.5452 24.0047 15.5452H40.9122C45.5841 15.5452 49.3714 19.3326 49.3714 24.0045V40.912C49.3714 45.5839 45.5841 49.3713 40.9122 49.3713H24.0047C19.3327 49.3713 15.5454 45.5839 15.5454 40.912V24.0045Z" fill="#CECECE" fill-opacity="0.125"/>
<path d="M28.2241 31.7536H31.0416" stroke="white" stroke-width="1.40874" stroke-linecap="round" stroke-linejoin="round"/>
<path d="M29.6328 30.3445V33.162" stroke="white" stroke-width="1.40874" stroke-linecap="round" stroke-linejoin="round"/>
<path d="M34.5635 32.4576H34.5712" stroke="white" stroke-width="1.40874" stroke-linecap="round" stroke-linejoin="round"/>
<path d="M36.6768 31.0491H36.6844" stroke="white" stroke-width="1.40874" stroke-linecap="round" stroke-linejoin="round"/>
<path d="M36.1977 27.5269H28.7032C28.0061 27.5271 27.3337 27.7857 26.8162 28.2528C26.2987 28.7198 25.9727 29.3622 25.9012 30.0556C25.897 30.0923 25.8942 30.1268 25.8892 30.1627C25.8322 30.6374 25.4067 34.1874 25.4067 35.275C25.4067 35.8354 25.6294 36.3729 26.0257 36.7692C26.4219 37.1655 26.9594 37.3881 27.5198 37.3881C28.2242 37.3881 28.5764 37.0359 28.9286 36.6837L29.9246 35.6878C30.1887 35.4235 30.5469 35.2751 30.9205 35.275H33.9803C34.3539 35.2751 34.7122 35.4235 34.9763 35.6878L35.9723 36.6837C36.3244 37.0359 36.6766 37.3881 37.381 37.3881C37.9414 37.3881 38.4789 37.1655 38.8752 36.7692C39.2715 36.3729 39.4941 35.8354 39.4941 35.275C39.4941 34.1867 39.0687 30.6374 39.0116 30.1627C39.0067 30.1275 39.0039 30.0923 38.9996 30.0563C38.9283 29.3627 38.6024 28.7202 38.0848 28.253C37.5673 27.7858 36.8949 27.5271 36.1977 27.5269Z" stroke="white" stroke-width="1.40874" stroke-linecap="round" stroke-linejoin="round"/>
<path d="M25.8182 65.3439C25.7287 65.0329 25.603 64.758 25.4411 64.5194C25.2791 64.2765 25.081 64.0719 24.8466 63.9057C24.6165 63.7353 24.3523 63.6053 24.054 63.5158C23.7599 63.4263 23.4339 63.3816 23.076 63.3816C22.407 63.3816 21.8189 63.5478 21.3118 63.8802C20.8089 64.2125 20.4169 64.6962 20.1357 65.3311C19.8544 65.9618 19.7138 66.7331 19.7138 67.6451C19.7138 68.557 19.8523 69.3326 20.1293 69.9718C20.4063 70.611 20.7983 71.0989 21.3054 71.4356C21.8125 71.7679 22.4112 71.9341 23.1016 71.9341C23.728 71.9341 24.2628 71.8233 24.706 71.6017C25.1534 71.3759 25.4943 71.0584 25.7287 70.6493C25.9673 70.2402 26.0866 69.7566 26.0866 69.1983L26.6491 69.2814H23.2741V67.1976H28.7521V68.8468C28.7521 69.9973 28.5092 70.986 28.0234 71.8127C27.5376 72.6351 26.8686 73.2701 26.0163 73.7175C25.1641 74.1607 24.1882 74.3823 23.0888 74.3823C21.8615 74.3823 20.7834 74.1117 19.8544 73.5705C18.9254 73.025 18.201 72.2516 17.6811 71.2502C17.1655 70.2445 16.9077 69.0513 16.9077 67.6706C16.9077 66.6096 17.0611 65.6635 17.3679 64.8326C17.679 63.9973 18.1136 63.29 18.6719 62.7104C19.2301 62.1309 19.88 61.6898 20.6214 61.3873C21.3629 61.0847 22.1662 60.9334 23.0312 60.9334C23.7727 60.9334 24.4631 61.0421 25.1023 61.2594C25.7415 61.4725 26.3082 61.775 26.8026 62.1671C27.3011 62.5591 27.7081 63.0258 28.0234 63.5669C28.3388 64.1039 28.5412 64.6962 28.6307 65.3439H25.8182ZM33.5797 74.3887C32.9533 74.3887 32.3951 74.28 31.905 74.0627C31.415 73.8411 31.0272 73.5151 30.7417 73.0847C30.4604 72.65 30.3198 72.1088 30.3198 71.4611C30.3198 70.9157 30.4199 70.4576 30.6202 70.0868C30.8205 69.7161 31.0932 69.4178 31.4384 69.1919C31.7836 68.9661 32.1756 68.7956 32.6145 68.6806C33.0577 68.5655 33.5222 68.4846 34.008 68.4377C34.579 68.378 35.0392 68.3226 35.3887 68.2715C35.7381 68.2161 35.9917 68.1351 36.1493 68.0286C36.307 67.9221 36.3858 67.7644 36.3858 67.5556V67.5172C36.3858 67.1124 36.258 66.7992 36.0023 66.5776C35.7509 66.356 35.3929 66.2452 34.9284 66.2452C34.4384 66.2452 34.0485 66.3539 33.7587 66.5712C33.4689 66.7843 33.2772 67.0527 33.1834 67.3766L30.665 67.1721C30.7928 66.5755 31.0442 66.0598 31.4192 65.6252C31.7942 65.1863 32.2779 64.8496 32.8702 64.6152C33.4668 64.3766 34.1571 64.2573 34.9412 64.2573C35.4867 64.2573 36.0087 64.3212 36.5073 64.449C37.0101 64.5769 37.4554 64.775 37.8432 65.0435C38.2353 65.312 38.5442 65.6571 38.7701 66.079C38.9959 66.4966 39.1088 66.9973 39.1088 67.5811V74.2033H36.5265V72.8418H36.4498C36.2921 73.1486 36.0811 73.4192 35.8169 73.6536C35.5527 73.8837 35.2353 74.0648 34.8645 74.1969C34.4938 74.3248 34.0655 74.3887 33.5797 74.3887ZM34.3596 72.5094C34.7601 72.5094 35.1138 72.4306 35.4206 72.2729C35.7275 72.111 35.9682 71.8936 36.1429 71.6209C36.3176 71.3482 36.405 71.0392 36.405 70.6941V69.6522C36.3198 69.7076 36.2026 69.7587 36.0534 69.8056C35.9086 69.8482 35.7445 69.8887 35.5613 69.927C35.378 69.9611 35.1948 69.9931 35.0115 70.0229C34.8283 70.0485 34.6621 70.0719 34.513 70.0932C34.1934 70.1401 33.9142 70.2147 33.6756 70.3169C33.437 70.4192 33.2516 70.5577 33.1195 70.7324C32.9874 70.9029 32.9213 71.1159 32.9213 71.3716C32.9213 71.7424 33.0556 72.0258 33.324 72.2218C33.5968 72.4135 33.9419 72.5094 34.3596 72.5094ZM45.6575 74.3951C44.6518 74.3951 43.7868 74.182 43.0623 73.7559C42.3422 73.3255 41.7882 72.7289 41.4004 71.9661C41.0169 71.2033 40.8251 70.3255 40.8251 69.3326C40.8251 68.3269 41.019 67.4448 41.4068 66.6863C41.7988 65.9235 42.3549 65.329 43.0751 64.9029C43.7953 64.4725 44.6518 64.2573 45.6447 64.2573C46.5012 64.2573 47.2512 64.4128 47.8947 64.7239C48.5382 65.035 49.0474 65.4718 49.4224 66.0343C49.7974 66.5968 50.0041 67.2573 50.0424 68.0158H47.4728C47.4004 67.5258 47.2086 67.1316 46.8976 66.8333C46.5907 66.5307 46.188 66.3794 45.6895 66.3794C45.2676 66.3794 44.899 66.4945 44.5836 66.7246C44.2725 66.9505 44.0297 67.2807 43.8549 67.7154C43.6802 68.15 43.5929 68.6763 43.5929 69.2942C43.5929 69.9206 43.6781 70.4533 43.8485 70.8922C44.0233 71.3311 44.2683 71.6657 44.5836 71.8958C44.899 72.1259 45.2676 72.241 45.6895 72.241C46.0005 72.241 46.2797 72.177 46.5268 72.0492C46.7782 71.9213 46.9849 71.736 47.1468 71.4931C47.313 71.2459 47.4217 70.9498 47.4728 70.6046H50.0424C49.9998 71.3546 49.7953 72.0151 49.4288 72.5861C49.0666 73.1529 48.5659 73.5961 47.9267 73.9157C47.2875 74.2353 46.5311 74.3951 45.6575 74.3951ZM54.5089 68.5272V74.2033H51.7859V61.1124H54.4322V66.1174H54.5472C54.7688 65.5378 55.1268 65.084 55.6211 64.7559C56.1154 64.4235 56.7354 64.2573 57.4812 64.2573C58.163 64.2573 58.7575 64.4064 59.2646 64.7047C59.7759 64.9988 60.1722 65.4228 60.4535 65.9767C60.739 66.5265 60.8796 67.1848 60.8754 67.9519V74.2033H58.1523V68.4377C58.1566 67.8326 58.0032 67.3617 57.6921 67.025C57.3853 66.6884 56.9549 66.5201 56.4009 66.5201C56.0302 66.5201 55.7021 66.5989 55.4165 66.7566C55.1353 66.9142 54.9137 67.1444 54.7518 67.4469C54.5941 67.7452 54.5131 68.1053 54.5089 68.5272ZM65.818 74.3887C65.1916 74.3887 64.6333 74.28 64.1433 74.0627C63.6532 73.8411 63.2654 73.5151 62.9799 73.0847C62.6987 72.65 62.5581 72.1088 62.5581 71.4611C62.5581 70.9157 62.6582 70.4576 62.8585 70.0868C63.0588 69.7161 63.3315 69.4178 63.6767 69.1919C64.0218 68.9661 64.4139 68.7956 64.8528 68.6806C65.296 68.5655 65.7605 68.4846 66.2463 68.4377C66.8173 68.378 67.2775 68.3226 67.627 68.2715C67.9764 68.2161 68.2299 68.1351 68.3876 68.0286C68.5453 67.9221 68.6241 67.7644 68.6241 67.5556V67.5172C68.6241 67.1124 68.4963 66.7992 68.2406 66.5776C67.9892 66.356 67.6312 66.2452 67.1667 66.2452C66.6767 66.2452 66.2868 66.3539 65.997 66.5712C65.7072 66.7843 65.5154 67.0527 65.4217 67.3766L62.9032 67.1721C63.0311 66.5755 63.2825 66.0598 63.6575 65.6252C64.0325 65.1863 64.5162 64.8496 65.1085 64.6152C65.7051 64.3766 66.3954 64.2573 67.1795 64.2573C67.725 64.2573 68.247 64.3212 68.7456 64.449C69.2484 64.5769 69.6937 64.775 70.0815 65.0435C70.4735 65.312 70.7825 65.6571 71.0083 66.079C71.2342 66.4966 71.3471 66.9973 71.3471 67.5811V74.2033H68.7647V72.8418H68.688C68.5304 73.1486 68.3194 73.4192 68.0552 73.6536C67.791 73.8837 67.4735 74.0648 67.1028 74.1969C66.7321 74.3248 66.3038 74.3887 65.818 74.3887ZM66.5978 72.5094C66.9984 72.5094 67.3521 72.4306 67.6589 72.2729C67.9657 72.111 68.2065 71.8936 68.3812 71.6209C68.5559 71.3482 68.6433 71.0392 68.6433 70.6941V69.6522C68.5581 69.7076 68.4409 69.7587 68.2917 69.8056C68.1468 69.8482 67.9828 69.8887 67.7995 69.927C67.6163 69.9611 67.4331 69.9931 67.2498 70.0229C67.0666 70.0485 66.9004 70.0719 66.7512 70.0932C66.4316 70.1401 66.1525 70.2147 65.9139 70.3169C65.6752 70.4192 65.4899 70.5577 65.3578 70.7324C65.2257 70.9029 65.1596 71.1159 65.1596 71.3716C65.1596 71.7424 65.2939 72.0258 65.5623 72.2218C65.835 72.4135 66.1802 72.5094 66.5978 72.5094ZM84.7784 64.8773C84.7273 64.3617 84.5078 63.9611 84.12 63.6756C83.7322 63.3901 83.206 63.2473 82.5412 63.2473C82.0895 63.2473 81.7081 63.3113 81.397 63.4391C81.0859 63.5627 80.8473 63.7353 80.6811 63.9569C80.5192 64.1784 80.4382 64.4299 80.4382 64.7111C80.4297 64.9455 80.4787 65.15 80.5852 65.3248C80.696 65.4995 80.8473 65.6508 81.0391 65.7786C81.2308 65.9022 81.4524 66.0108 81.7038 66.1046C81.9553 66.1941 82.2237 66.2708 82.5092 66.3347L83.6854 66.6159C84.2564 66.7438 84.7805 66.9142 85.2578 67.1273C85.7351 67.3404 86.1484 67.6025 86.4979 67.9135C86.8473 68.2246 87.1179 68.5911 87.3097 69.013C87.5057 69.4348 87.6058 69.9185 87.6101 70.464C87.6058 71.2651 87.4013 71.9597 86.9964 72.5478C86.5959 73.1316 86.0163 73.5854 85.2578 73.9093C84.5036 74.2289 83.5938 74.3887 82.5284 74.3887C81.4716 74.3887 80.5511 74.2267 79.767 73.9029C78.9872 73.579 78.3778 73.0996 77.9389 72.4647C77.5043 71.8255 77.2763 71.035 77.255 70.0932H79.9332C79.9631 70.5321 80.0888 70.8986 80.3104 71.1927C80.5362 71.4824 80.8366 71.7019 81.2116 71.851C81.5909 71.9959 82.0192 72.0684 82.4964 72.0684C82.9652 72.0684 83.3722 72.0002 83.7173 71.8638C84.0668 71.7275 84.3374 71.5378 84.5291 71.2949C84.7209 71.052 84.8168 70.7729 84.8168 70.4576C84.8168 70.1635 84.7294 69.9164 84.5547 69.7161C84.3842 69.5158 84.1328 69.3454 83.8004 69.2047C83.4723 69.0641 83.0696 68.9363 82.5923 68.8212L81.1669 68.4633C80.0632 68.1948 79.1918 67.775 78.5526 67.204C77.9134 66.633 77.5959 65.8638 77.6001 64.8965C77.5959 64.1039 77.8068 63.4114 78.233 62.8191C78.6634 62.2267 79.2536 61.7644 80.0036 61.432C80.7536 61.0996 81.6058 60.9334 82.5604 60.9334C83.532 60.9334 84.38 61.0996 85.1044 61.432C85.8331 61.7644 86.3999 62.2267 86.8047 62.8191C87.2095 63.4114 87.4183 64.0975 87.4311 64.8773H84.7784ZM91.1017 77.8851C90.7566 77.8851 90.4327 77.8574 90.1301 77.802C89.8319 77.7509 89.5847 77.6848 89.3887 77.6039L90.0023 75.5712C90.3219 75.6692 90.6096 75.7225 90.8652 75.731C91.1252 75.7395 91.3489 75.6799 91.5364 75.552C91.7282 75.4242 91.8837 75.2069 92.003 74.9L92.1628 74.4846L88.6408 64.3851H91.5044L93.5371 71.5954H93.6394L95.6912 64.3851H98.574L94.758 75.2644C94.5748 75.7928 94.3255 76.253 94.0101 76.6451C93.699 77.0414 93.3049 77.3461 92.8276 77.5591C92.3503 77.7765 91.775 77.8851 91.1017 77.8851ZM108.137 67.1848L105.644 67.3383C105.601 67.1252 105.509 66.9334 105.369 66.763C105.228 66.5883 105.043 66.4498 104.813 66.3475C104.587 66.2409 104.316 66.1877 104.001 66.1877C103.579 66.1877 103.223 66.2772 102.933 66.4561C102.644 66.6309 102.499 66.8652 102.499 67.1593C102.499 67.3936 102.593 67.5918 102.78 67.7537C102.968 67.9157 103.289 68.0456 103.745 68.1436L105.522 68.5016C106.477 68.6976 107.188 69.013 107.657 69.4476C108.126 69.8823 108.36 70.4533 108.36 71.1607C108.36 71.8042 108.171 72.3688 107.791 72.8546C107.416 73.3404 106.901 73.7196 106.244 73.9924C105.593 74.2608 104.84 74.3951 103.988 74.3951C102.688 74.3951 101.653 74.1245 100.882 73.5833C100.115 73.0378 99.665 72.2963 99.5328 71.3588L102.211 71.2182C102.292 71.6145 102.488 71.9171 102.799 72.1259C103.11 72.3304 103.509 72.4327 103.994 72.4327C104.472 72.4327 104.855 72.3411 105.145 72.1579C105.439 71.9704 105.588 71.7296 105.593 71.4356C105.588 71.1884 105.484 70.986 105.279 70.8283C105.075 70.6664 104.759 70.5428 104.333 70.4576L102.633 70.1188C101.674 69.927 100.96 69.5946 100.492 69.1216C100.027 68.6486 99.7949 68.0456 99.7949 67.3127C99.7949 66.682 99.9654 66.1387 100.306 65.6827C100.651 65.2267 101.135 64.8752 101.757 64.628C102.384 64.3809 103.117 64.2573 103.956 64.2573C105.196 64.2573 106.172 64.5194 106.884 65.0435C107.6 65.5677 108.017 66.2814 108.137 67.1848ZM115.297 64.3851V66.4306H109.385V64.3851H115.297ZM110.727 62.0329H113.45V71.1863C113.45 71.4377 113.488 71.6337 113.565 71.7743C113.642 71.9107 113.748 72.0066 113.885 72.062C114.025 72.1174 114.187 72.1451 114.37 72.1451C114.498 72.1451 114.626 72.1344 114.754 72.1131C114.882 72.0875 114.98 72.0684 115.048 72.0556L115.476 74.0819C115.34 74.1245 115.148 74.1735 114.901 74.2289C114.654 74.2885 114.353 74.3248 114 74.3375C113.343 74.3631 112.768 74.2758 112.274 74.0755C111.784 73.8752 111.402 73.5641 111.13 73.1422C110.857 72.7204 110.723 72.1877 110.727 71.5442V62.0329ZM121.44 74.3951C120.43 74.3951 119.561 74.1905 118.832 73.7814C118.108 73.3681 117.549 72.7843 117.157 72.03C116.765 71.2715 116.569 70.3745 116.569 69.339C116.569 68.329 116.765 67.4427 117.157 66.6799C117.549 65.9171 118.101 65.3226 118.813 64.8965C119.529 64.4704 120.368 64.2573 121.331 64.2573C121.979 64.2573 122.582 64.3617 123.14 64.5705C123.703 64.775 124.193 65.084 124.61 65.4973C125.032 65.9107 125.36 66.4306 125.595 67.057C125.829 67.6792 125.946 68.4079 125.946 69.2431V69.991H117.656V68.3034H123.383C123.383 67.9114 123.298 67.5641 123.127 67.2615C122.957 66.959 122.721 66.7225 122.418 66.552C122.12 66.3773 121.772 66.29 121.376 66.29C120.963 66.29 120.596 66.3858 120.277 66.5776C119.961 66.7651 119.714 67.0186 119.535 67.3383C119.356 67.6536 119.265 68.0052 119.26 68.3929V69.9973C119.26 70.4831 119.35 70.9029 119.529 71.2566C119.712 71.6103 119.97 71.883 120.302 72.0748C120.635 72.2665 121.029 72.3624 121.485 72.3624C121.787 72.3624 122.064 72.3198 122.316 72.2346C122.567 72.1493 122.782 72.0215 122.961 71.851C123.14 71.6806 123.277 71.4718 123.37 71.2246L125.889 71.3908C125.761 71.9959 125.499 72.5243 125.103 72.976C124.711 73.4235 124.203 73.7729 123.581 74.0243C122.963 74.2715 122.25 74.3951 121.44 74.3951ZM127.723 74.2033V64.3851H130.319V66.1174H130.434C130.638 65.5421 130.979 65.0883 131.456 64.7559C131.934 64.4235 132.505 64.2573 133.169 64.2573C133.843 64.2573 134.416 64.4256 134.889 64.7623C135.362 65.0946 135.677 65.5463 135.835 66.1174H135.937C136.137 65.5549 136.5 65.1053 137.024 64.7686C137.552 64.4277 138.176 64.2573 138.897 64.2573C139.813 64.2573 140.556 64.5492 141.127 65.133C141.703 65.7125 141.99 66.535 141.99 67.6003V74.2033H139.274V68.1373C139.274 67.5918 139.129 67.1827 138.839 66.91C138.549 66.6373 138.187 66.5009 137.752 66.5009C137.258 66.5009 136.873 66.6586 136.596 66.9739C136.319 67.285 136.18 67.6962 136.18 68.2076V74.2033H133.54V68.0797C133.54 67.5982 133.402 67.2147 133.125 66.9292C132.852 66.6436 132.492 66.5009 132.044 66.5009C131.742 66.5009 131.469 66.5776 131.226 66.731C130.988 66.8802 130.798 67.0911 130.657 67.3638C130.517 67.6323 130.446 67.9476 130.446 68.3098V74.2033H127.723Z" fill="white"/>
<path d="M23.8593 89.804C23.8593 90.7131 23.6974 91.5043 23.3735 92.1776C23.0497 92.8481 22.6036 93.3679 22.0355 93.7373C21.4701 94.1037 20.8196 94.287 20.0838 94.287C19.348 94.287 18.696 94.1037 18.1278 93.7373C17.5625 93.3679 17.1179 92.8481 16.794 92.1776C16.473 91.5043 16.3125 90.7131 16.3125 89.804C16.3125 88.8949 16.473 88.1052 16.794 87.4347C17.1179 86.7614 17.5639 86.2415 18.1321 85.875C18.7002 85.5057 19.3508 85.3211 20.0838 85.3211C20.8196 85.3211 21.4701 85.5057 22.0355 85.875C22.6036 86.2415 23.0497 86.7614 23.3735 87.4347C23.6974 88.1052 23.8593 88.8949 23.8593 89.804ZM23.0838 89.804C23.0838 89.0228 22.9531 88.3537 22.6917 87.7969C22.4304 87.2373 22.0738 86.8097 21.6221 86.5143C21.1704 86.2188 20.6576 86.0711 20.0838 86.0711C19.5127 86.0711 19.0014 86.2188 18.5497 86.5143C18.098 86.8097 17.74 87.2358 17.4758 87.7927C17.2144 88.3495 17.0838 89.0199 17.0838 89.804C17.0838 90.5853 17.2144 91.2543 17.4758 91.8111C17.7372 92.3679 18.0937 92.7955 18.5454 93.0938C18.9971 93.3893 19.5099 93.537 20.0838 93.537C20.6576 93.537 21.1704 93.3893 21.6221 93.0938C22.0767 92.7983 22.4346 92.3722 22.696 91.8154C22.9573 91.2557 23.0866 90.5853 23.0838 89.804ZM25.6289 96.6222V87.6222H26.3661V88.8708H26.4556C26.5465 88.6748 26.6715 88.4745 26.8306 88.2699C26.9897 88.0625 27.1999 87.8878 27.4612 87.7458C27.7255 87.6037 28.0578 87.5327 28.4584 87.5327C28.9982 87.5327 29.4698 87.6748 29.8732 87.9589C30.2794 88.2401 30.5948 88.635 30.8192 89.1435C31.0465 89.6492 31.1601 90.2387 31.1601 90.912C31.1601 91.5881 31.0465 92.1804 30.8192 92.689C30.5948 93.1975 30.2794 93.5938 29.8732 93.8779C29.4698 94.162 29.001 94.304 28.4669 94.304C28.072 94.304 27.7411 94.233 27.474 94.091C27.2098 93.9489 26.9953 93.7742 26.8306 93.5668C26.6686 93.3566 26.5436 93.152 26.4556 92.9532H26.3874V96.6222H25.6289ZM26.3789 90.8992C26.3789 91.4276 26.457 91.8964 26.6132 92.3054C26.7723 92.7117 26.9996 93.0313 27.2951 93.2643C27.5934 93.4944 27.9541 93.6094 28.3774 93.6094C28.8121 93.6094 29.1786 93.4901 29.4769 93.2515C29.778 93.01 30.0067 92.6847 30.163 92.2756C30.322 91.8665 30.4016 91.4077 30.4016 90.8992C30.4016 90.3964 30.3235 89.9432 30.1672 89.5398C30.0138 89.1364 29.7865 88.8168 29.4854 88.581C29.1843 88.3424 28.8149 88.2231 28.3774 88.2231C27.9513 88.2231 27.5891 88.3381 27.2908 88.5682C26.9925 88.7955 26.7652 89.1108 26.609 89.5143C26.4556 89.9148 26.3789 90.3765 26.3789 90.8992ZM35.4705 94.304C34.8597 94.304 34.3313 94.162 33.8853 93.8779C33.4392 93.591 33.0941 93.1947 32.8497 92.689C32.6083 92.1804 32.4875 91.5952 32.4875 90.9333C32.4875 90.2742 32.6083 89.689 32.8497 89.1776C33.0941 88.6634 33.4307 88.2614 33.8597 87.9716C34.2915 87.679 34.7901 87.5327 35.3554 87.5327C35.7105 87.5327 36.0529 87.5981 36.3824 87.7287C36.712 87.8566 37.0074 88.054 37.2688 88.3211C37.533 88.5853 37.7418 88.9191 37.8952 89.3225C38.0486 89.7231 38.1253 90.1975 38.1253 90.7458V91.1208H33.0117V90.4518H37.3497C37.3497 90.0313 37.2645 89.6535 37.0941 89.3182C36.9264 88.9802 36.6921 88.7131 36.3909 88.5171C36.0926 88.3211 35.7475 88.2231 35.3554 88.2231C34.9407 88.2231 34.5756 88.3339 34.2603 88.5554C33.9449 88.777 33.6978 89.0697 33.5188 89.4333C33.3426 89.7969 33.2532 90.1947 33.2503 90.6265V91.027C33.2503 91.5469 33.3398 92.0015 33.5188 92.3907C33.7006 92.777 33.9577 93.0768 34.2901 93.2898C34.6225 93.5029 35.0159 93.6094 35.4705 93.6094C35.7801 93.6094 36.0514 93.5611 36.2844 93.4645C36.5202 93.3679 36.7176 93.2387 36.8767 93.0768C37.0387 92.912 37.1608 92.7316 37.2432 92.5356L37.9634 92.7699C37.8639 93.0455 37.7006 93.2998 37.4733 93.5327C37.2489 93.7657 36.9676 93.9532 36.6296 94.0952C36.2943 94.2344 35.908 94.304 35.4705 94.304ZM40.5554 90.0768V94.1677H39.7968V87.6222H40.534V88.6492H40.6022C40.7556 88.314 40.9943 88.0455 41.3181 87.8438C41.6448 87.6393 42.0483 87.537 42.5284 87.537C42.9687 87.537 43.3551 87.6293 43.6875 87.814C44.0227 87.9958 44.2826 88.2643 44.4673 88.6194C44.6548 88.9745 44.7485 89.4106 44.7485 89.9276V94.1677H43.99V89.9745C43.99 89.4375 43.8394 89.0128 43.5383 88.7003C43.24 88.3878 42.8394 88.2316 42.3366 88.2316C41.9929 88.2316 41.6875 88.3054 41.4204 88.4532C41.1534 88.6009 40.9417 88.814 40.7855 89.0924C40.6321 89.3679 40.5554 89.6961 40.5554 90.0768ZM52.7674 94.304C52.1566 94.304 51.6282 94.162 51.1821 93.8779C50.7361 93.591 50.3909 93.1947 50.1466 92.689C49.9051 92.1804 49.7844 91.5952 49.7844 90.9333C49.7844 90.2742 49.9051 89.689 50.1466 89.1776C50.3909 88.6634 50.7276 88.2614 51.1566 87.9716C51.5884 87.679 52.087 87.5327 52.6523 87.5327C53.0074 87.5327 53.3497 87.5981 53.6793 87.7287C54.0088 87.8566 54.3043 88.054 54.5657 88.3211C54.8299 88.5853 55.0387 88.9191 55.1921 89.3225C55.3455 89.7231 55.4222 90.1975 55.4222 90.7458V91.1208H50.3085V90.4518H54.6466C54.6466 90.0313 54.5614 89.6535 54.3909 89.3182C54.2233 88.9802 53.9889 88.7131 53.6878 88.5171C53.3895 88.3211 53.0443 88.2231 52.6523 88.2231C52.2375 88.2231 51.8725 88.3339 51.5571 88.5554C51.2418 88.777 50.9946 89.0697 50.8157 89.4333C50.6395 89.7969 50.55 90.1947 50.5472 90.6265V91.027C50.5472 91.5469 50.6367 92.0015 50.8157 92.3907C50.9975 92.777 51.2546 93.0768 51.587 93.2898C51.9193 93.5029 52.3128 93.6094 52.7674 93.6094C53.077 93.6094 53.3483 93.5611 53.5813 93.4645C53.8171 93.3679 54.0145 93.2387 54.1736 93.0768C54.3355 92.912 54.4577 92.7316 54.5401 92.5356L55.2603 92.7699C55.1608 93.0455 54.9975 93.2998 54.7702 93.5327C54.5458 93.7657 54.2645 93.9532 53.9264 94.0952C53.5912 94.2344 53.2049 94.304 52.7674 94.304ZM57.3867 87.6222L59.0742 90.4134L60.7617 87.6222H61.6438L59.5387 90.8949L61.6438 94.1677H60.7617L59.0742 91.466L57.3867 94.1677H56.5088L58.5884 90.8949L56.5088 87.6222H57.3867ZM65.5216 94.304C64.9364 94.304 64.4264 94.1577 63.9918 93.8651C63.56 93.5725 63.2247 93.1719 62.9861 92.6634C62.7475 92.1549 62.6282 91.5753 62.6282 90.9248C62.6282 90.2685 62.7489 89.6847 62.9904 89.1733C63.2347 88.662 63.5728 88.2614 64.0046 87.9716C64.4364 87.679 64.9378 87.5327 65.5088 87.5327C65.9463 87.5327 66.3426 87.6179 66.6978 87.7884C67.0529 87.956 67.3455 88.1932 67.5756 88.5C67.8085 88.804 67.9549 89.1591 68.0145 89.5654H67.2475C67.1679 89.1961 66.9762 88.8807 66.6722 88.6194C66.371 88.3552 65.9875 88.2231 65.5216 88.2231C65.104 88.2231 64.7347 88.3367 64.4137 88.564C64.0926 88.7884 63.8412 89.1023 63.6594 89.5057C63.4804 89.9063 63.3909 90.3708 63.3909 90.8992C63.3909 91.4304 63.479 91.9006 63.6551 92.3097C63.8313 92.716 64.0784 93.0341 64.3966 93.2643C64.7176 93.4944 65.0926 93.6094 65.5216 93.6094C65.8114 93.6094 66.0756 93.5554 66.3142 93.4475C66.5557 93.3367 66.7574 93.1804 66.9193 92.9787C67.0841 92.777 67.1949 92.537 67.2517 92.2586H68.0188C67.962 92.6535 67.8213 93.0057 67.5969 93.3154C67.3753 93.6222 67.087 93.8637 66.7318 94.0398C66.3796 94.216 65.9762 94.304 65.5216 94.304ZM70.403 85.4404V94.1677H69.6445V85.4404H70.403ZM76.5692 91.6662V87.6222H77.3277V94.1677H76.5692V93.081H76.5095C76.3561 93.4162 76.1132 93.6961 75.7809 93.9205C75.4485 94.1421 75.0422 94.2529 74.5621 94.2529C74.1445 94.2529 73.7737 94.162 73.4499 93.9802C73.126 93.7955 72.8718 93.5256 72.6871 93.1705C72.5024 92.8154 72.4101 92.3793 72.4101 91.8623V87.6222H73.1686V91.8154C73.1686 92.3268 73.3192 92.7387 73.6203 93.0512C73.9215 93.3608 74.3078 93.5157 74.7794 93.5157C75.0749 93.5157 75.359 93.4447 75.6317 93.3026C75.9044 93.1606 76.1289 92.9532 76.305 92.6804C76.4811 92.4049 76.5692 92.0668 76.5692 91.6662ZM83.7336 89.0583L83.039 89.2543C82.9708 89.0583 82.8742 88.8807 82.7492 88.7216C82.6242 88.5625 82.4609 88.4361 82.2592 88.3424C82.0603 88.2486 81.8132 88.2018 81.5177 88.2018C81.0745 88.2018 80.7109 88.3069 80.4268 88.5171C80.1427 88.7273 80.0007 88.9986 80.0007 89.331C80.0007 89.6123 80.0973 89.841 80.2904 90.0171C80.4865 90.1904 80.7876 90.3282 81.1938 90.4304L82.1825 90.6733C82.7308 90.8069 83.1413 91.0185 83.414 91.3083C83.6896 91.5981 83.8274 91.9617 83.8274 92.3992C83.8274 92.7685 83.7251 93.0966 83.5206 93.3836C83.316 93.6705 83.0305 93.8964 82.664 94.0611C82.3004 94.2231 81.8785 94.304 81.3984 94.304C80.7592 94.304 80.2322 94.1606 79.8174 93.8736C79.4027 93.5839 79.137 93.1662 79.0206 92.6208L79.7492 92.4418C79.843 92.831 80.0262 93.125 80.299 93.3239C80.5745 93.5228 80.9367 93.6222 81.3856 93.6222C81.8885 93.6222 82.2904 93.51 82.5916 93.2856C82.8927 93.0583 83.0433 92.7742 83.0433 92.4333C83.0433 92.1691 82.9552 91.9475 82.7791 91.7685C82.6029 91.5867 82.3359 91.4532 81.9779 91.3679L80.9083 91.1123C80.3402 90.9759 79.9197 90.76 79.647 90.4645C79.3742 90.1691 79.2379 89.8026 79.2379 89.3651C79.2379 89.0043 79.3359 88.6875 79.5319 88.4148C79.7279 88.1393 79.9978 87.9233 80.3416 87.7671C80.6853 87.6108 81.0774 87.5327 81.5177 87.5327C82.1171 87.5327 82.5958 87.6691 82.9538 87.9418C83.3146 88.2117 83.5745 88.5839 83.7336 89.0583ZM85.4968 94.1677V87.6222H86.2595V94.1677H85.4968ZM85.8845 86.4972C85.7283 86.4972 85.5948 86.4447 85.484 86.3395C85.3732 86.2316 85.3178 86.1023 85.3178 85.9518C85.3178 85.8012 85.3732 85.6733 85.484 85.5682C85.5948 85.4603 85.7283 85.4063 85.8845 85.4063C86.0408 85.4063 86.1743 85.4603 86.2851 85.5682C86.3959 85.6733 86.4513 85.8012 86.4513 85.9518C86.4513 86.1023 86.3959 86.2316 86.2851 86.3395C86.1743 86.4447 86.0408 86.4972 85.8845 86.4972ZM93.3323 87.6222L90.9417 94.1677H90.1321L87.7414 87.6222H88.5639L90.5071 93.1662H90.5667L92.5099 87.6222H93.3323ZM97.2283 94.304C96.6175 94.304 96.0891 94.162 95.6431 93.8779C95.197 93.591 94.8519 93.1947 94.6076 92.689C94.3661 92.1804 94.2453 91.5952 94.2453 90.9333C94.2453 90.2742 94.3661 89.689 94.6076 89.1776C94.8519 88.6634 95.1885 88.2614 95.6175 87.9716C96.0493 87.679 96.5479 87.5327 97.1132 87.5327C97.4684 87.5327 97.8107 87.5981 98.1402 87.7287C98.4698 87.8566 98.7652 88.054 99.0266 88.3211C99.2908 88.5853 99.4996 88.9191 99.653 89.3225C99.8064 89.7231 99.8831 90.1975 99.8831 90.7458V91.1208H94.7695V90.4518H99.1076C99.1076 90.0313 99.0223 89.6535 98.8519 89.3182C98.6843 88.9802 98.4499 88.7131 98.1487 88.5171C97.8505 88.3211 97.5053 88.2231 97.1132 88.2231C96.6985 88.2231 96.3334 88.3339 96.0181 88.5554C95.7027 88.777 95.4556 89.0697 95.2766 89.4333C95.1005 89.7969 95.011 90.1947 95.0081 90.6265V91.027C95.0081 91.5469 95.0976 92.0015 95.2766 92.3907C95.4584 92.777 95.7155 93.0768 96.0479 93.2898C96.3803 93.5029 96.7737 93.6094 97.2283 93.6094C97.538 93.6094 97.8093 93.5611 98.0422 93.4645C98.278 93.3679 98.4755 93.2387 98.6345 93.0768C98.7965 92.912 98.9186 92.7316 99.001 92.5356L99.7212 92.7699C99.6218 93.0455 99.4584 93.2998 99.2311 93.5327C99.0067 93.7657 98.7255 93.9532 98.3874 94.0952C98.0522 94.2344 97.6658 94.304 97.2283 94.304ZM104.93 96.6222V87.6222H105.667V88.8708H105.756C105.847 88.6748 105.972 88.4745 106.131 88.2699C106.29 88.0625 106.501 87.8878 106.762 87.7458C107.026 87.6037 107.359 87.5327 107.759 87.5327C108.299 87.5327 108.771 87.6748 109.174 87.9589C109.58 88.2401 109.896 88.635 110.12 89.1435C110.347 89.6492 110.461 90.2387 110.461 90.912C110.461 91.5881 110.347 92.1804 110.12 92.689C109.896 93.1975 109.58 93.5938 109.174 93.8779C108.771 94.162 108.302 94.304 107.768 94.304C107.373 94.304 107.042 94.233 106.775 94.091C106.511 93.9489 106.296 93.7742 106.131 93.5668C105.969 93.3566 105.844 93.152 105.756 92.9532H105.688V96.6222H104.93ZM105.68 90.8992C105.68 91.4276 105.758 91.8964 105.914 92.3054C106.073 92.7117 106.3 93.0313 106.596 93.2643C106.894 93.4944 107.255 93.6094 107.678 93.6094C108.113 93.6094 108.479 93.4901 108.778 93.2515C109.079 93.01 109.307 92.6847 109.464 92.2756C109.623 91.8665 109.702 91.4077 109.702 90.8992C109.702 90.3964 109.624 89.9432 109.468 89.5398C109.315 89.1364 109.087 88.8168 108.786 88.581C108.485 88.3424 108.116 88.2231 107.678 88.2231C107.252 88.2231 106.89 88.3381 106.592 88.5682C106.293 88.7955 106.066 89.1108 105.91 89.5143C105.756 89.9148 105.68 90.3765 105.68 90.8992ZM113.953 94.3168C113.558 94.3168 113.197 94.2401 112.871 94.0867C112.544 93.9304 112.284 93.706 112.091 93.4134C111.898 93.1179 111.801 92.76 111.801 92.3395C111.801 92.0157 111.862 91.7429 111.984 91.5214C112.106 91.2998 112.28 91.1179 112.504 90.9759C112.729 90.8339 112.994 90.7216 113.301 90.6393C113.608 90.5569 113.946 90.4929 114.315 90.4475C114.682 90.402 114.991 90.3623 115.244 90.3282C115.5 90.2941 115.695 90.2401 115.828 90.1662C115.962 90.0924 116.028 89.9731 116.028 89.8083V89.6549C116.028 89.2089 115.895 88.858 115.628 88.6023C115.364 88.3438 114.983 88.2145 114.486 88.2145C114.014 88.2145 113.629 88.3182 113.331 88.5256C113.035 88.733 112.828 88.9773 112.709 89.2586L111.989 88.9986C112.136 88.6407 112.341 88.3552 112.602 88.1421C112.864 87.9262 113.156 87.7714 113.48 87.6776C113.804 87.581 114.132 87.5327 114.464 87.5327C114.714 87.5327 114.974 87.5654 115.244 87.6307C115.517 87.6961 115.77 87.8097 116.003 87.9716C116.236 88.1307 116.425 88.3537 116.57 88.6407C116.714 88.9248 116.787 89.2856 116.787 89.7231V94.1677H116.028V93.1322H115.981C115.891 93.3253 115.756 93.5128 115.577 93.6947C115.398 93.8765 115.173 94.0256 114.903 94.1421C114.633 94.2586 114.317 94.3168 113.953 94.3168ZM114.055 93.6222C114.459 93.6222 114.808 93.5327 115.104 93.3537C115.399 93.1748 115.626 92.9375 115.785 92.6421C115.947 92.3438 116.028 92.0157 116.028 91.6577V90.7117C115.972 90.7657 115.876 90.814 115.743 90.8566C115.612 90.8992 115.46 90.9375 115.287 90.9716C115.116 91.0029 114.946 91.0299 114.776 91.0526C114.605 91.0753 114.452 91.0952 114.315 91.1123C113.946 91.1577 113.631 91.2287 113.369 91.3253C113.108 91.4219 112.908 91.5554 112.768 91.7259C112.629 91.8935 112.56 92.1094 112.56 92.3736C112.56 92.7714 112.702 93.0796 112.986 93.2983C113.27 93.5143 113.626 93.6222 114.055 93.6222ZM121.361 94.304C120.776 94.304 120.266 94.1577 119.832 93.8651C119.4 93.5725 119.065 93.1719 118.826 92.6634C118.587 92.1549 118.468 91.5753 118.468 90.9248C118.468 90.2685 118.589 89.6847 118.83 89.1733C119.075 88.662 119.413 88.2614 119.844 87.9716C120.276 87.679 120.778 87.5327 121.349 87.5327C121.786 87.5327 122.182 87.6179 122.538 87.7884C122.893 87.956 123.185 88.1932 123.415 88.5C123.648 88.804 123.795 89.1591 123.854 89.5654H123.087C123.008 89.1961 122.816 88.8807 122.512 88.6194C122.211 88.3552 121.827 88.2231 121.361 88.2231C120.944 88.2231 120.575 88.3367 120.254 88.564C119.932 88.7884 119.681 89.1023 119.499 89.5057C119.32 89.9063 119.231 90.3708 119.231 90.8992C119.231 91.4304 119.319 91.9006 119.495 92.3097C119.671 92.716 119.918 93.0341 120.236 93.2643C120.557 93.4944 120.932 93.6094 121.361 93.6094C121.651 93.6094 121.915 93.5554 122.154 93.4475C122.396 93.3367 122.597 93.1804 122.759 92.9787C122.924 92.777 123.035 92.537 123.092 92.2586H123.859C123.802 92.6535 123.661 93.0057 123.437 93.3154C123.215 93.6222 122.927 93.8637 122.572 94.0398C122.219 94.216 121.816 94.304 121.361 94.304ZM126.175 91.6961L126.166 90.7032H126.337L129.405 87.6222H130.364L127.334 90.6563L127.266 90.6691L126.175 91.6961ZM125.484 94.1677V85.4404H126.243V94.1677H125.484ZM129.562 94.1677L126.903 90.8054L127.449 90.2813L130.534 94.1677H129.562ZM136.187 89.0583L135.492 89.2543C135.424 89.0583 135.327 88.8807 135.202 88.7216C135.077 88.5625 134.914 88.4361 134.712 88.3424C134.513 88.2486 134.266 88.2018 133.971 88.2018C133.528 88.2018 133.164 88.3069 132.88 88.5171C132.596 88.7273 132.454 88.9986 132.454 89.331C132.454 89.6123 132.55 89.841 132.744 90.0171C132.94 90.1904 133.241 90.3282 133.647 90.4304L134.636 90.6733C135.184 90.8069 135.594 91.0185 135.867 91.3083C136.143 91.5981 136.28 91.9617 136.28 92.3992C136.28 92.7685 136.178 93.0966 135.974 93.3836C135.769 93.6705 135.484 93.8964 135.117 94.0611C134.754 94.2231 134.332 94.304 133.852 94.304C133.212 94.304 132.685 94.1606 132.271 93.8736C131.856 93.5839 131.59 93.1662 131.474 92.6208L132.202 92.4418C132.296 92.831 132.479 93.125 132.752 93.3239C133.028 93.5228 133.39 93.6222 133.839 93.6222C134.342 93.6222 134.744 93.51 135.045 93.2856C135.346 93.0583 135.496 92.7742 135.496 92.4333C135.496 92.1691 135.408 91.9475 135.232 91.7685C135.056 91.5867 134.789 91.4532 134.431 91.3679L133.361 91.1123C132.793 90.9759 132.373 90.76 132.1 90.4645C131.827 90.1691 131.691 89.8026 131.691 89.3651C131.691 89.0043 131.789 88.6875 131.985 88.4148C132.181 88.1393 132.451 87.9233 132.795 87.7671C133.138 87.6108 133.53 87.5327 133.971 87.5327C134.57 87.5327 135.049 87.6691 135.407 87.9418C135.768 88.2117 136.028 88.5839 136.187 89.0583ZM143.894 87.6222V88.2827H140.771V87.6222H143.894ZM141.747 86.054H142.51V92.4589C142.51 92.7316 142.556 92.9461 142.65 93.1023C142.744 93.2557 142.866 93.3651 143.017 93.4304C143.167 93.4929 143.328 93.5242 143.498 93.5242C143.598 93.5242 143.683 93.5185 143.754 93.5072C143.825 93.4929 143.887 93.4787 143.941 93.4645L144.103 94.1506C144.029 94.179 143.939 94.2046 143.831 94.2273C143.723 94.2529 143.589 94.2657 143.43 94.2657C143.152 94.2657 142.883 94.2046 142.625 94.0824C142.369 93.9603 142.159 93.7785 141.994 93.537C141.829 93.2955 141.747 92.9958 141.747 92.6378V86.054ZM148.091 94.304C147.526 94.304 147.026 94.1606 146.591 93.8736C146.159 93.5867 145.821 93.1904 145.577 92.6847C145.332 92.1762 145.21 91.5895 145.21 90.9248C145.21 90.2543 145.332 89.6648 145.577 89.1563C145.821 88.6449 146.159 88.2472 146.591 87.9631C147.026 87.6762 147.526 87.5327 148.091 87.5327C148.656 87.5327 149.155 87.6762 149.587 87.9631C150.018 88.25 150.356 88.6478 150.601 89.1563C150.848 89.6648 150.972 90.2543 150.972 90.9248C150.972 91.5895 150.849 92.1762 150.605 92.6847C150.361 93.1904 150.021 93.5867 149.587 93.8736C149.155 94.1606 148.656 94.304 148.091 94.304ZM148.091 93.6094C148.545 93.6094 148.93 93.4873 149.246 93.2429C149.561 92.9986 149.8 92.6733 149.962 92.2671C150.126 91.8608 150.209 91.4134 150.209 90.9248C150.209 90.4361 150.126 89.9873 149.962 89.5782C149.8 89.1691 149.561 88.841 149.246 88.5938C148.93 88.3466 148.545 88.2231 148.091 88.2231C147.639 88.2231 147.254 88.3466 146.936 88.5938C146.621 88.841 146.381 89.1691 146.216 89.5782C146.054 89.9873 145.973 90.4361 145.973 90.9248C145.973 91.4134 146.054 91.8608 146.216 92.2671C146.381 92.6733 146.621 92.9986 146.936 93.2429C147.251 93.4873 147.636 93.6094 148.091 93.6094ZM160.171 91.6662V87.6222H160.929V94.1677H160.171V93.081H160.111C159.958 93.4162 159.715 93.6961 159.382 93.9205C159.05 94.1421 158.644 94.2529 158.164 94.2529C157.746 94.2529 157.375 94.162 157.051 93.9802C156.728 93.7955 156.473 93.5256 156.289 93.1705C156.104 92.8154 156.012 92.3793 156.012 91.8623V87.6222H156.77V91.8154C156.77 92.3268 156.921 92.7387 157.222 93.0512C157.523 93.3608 157.909 93.5157 158.381 93.5157C158.676 93.5157 158.961 93.4447 159.233 93.3026C159.506 93.1606 159.73 92.9532 159.907 92.6804C160.083 92.4049 160.171 92.0668 160.171 91.6662ZM163.696 90.0768V94.1677H162.937V87.6222H163.675V88.6492H163.743C163.896 88.314 164.135 88.0455 164.459 87.8438C164.785 87.6393 165.189 87.537 165.669 87.537C166.109 87.537 166.496 87.6293 166.828 87.814C167.163 87.9958 167.423 88.2643 167.608 88.6194C167.795 88.9745 167.889 89.4106 167.889 89.9276V94.1677H167.131V89.9745C167.131 89.4375 166.98 89.0128 166.679 88.7003C166.381 88.3878 165.98 88.2316 165.477 88.2316C165.133 88.2316 164.828 88.3054 164.561 88.4532C164.294 88.6009 164.082 88.814 163.926 89.0924C163.773 89.3679 163.696 89.6961 163.696 90.0768ZM170.645 85.4404V94.1677H169.887V85.4404H170.645ZM175.196 94.304C174.631 94.304 174.131 94.1606 173.696 93.8736C173.265 93.5867 172.926 93.1904 172.682 92.6847C172.438 92.1762 172.316 91.5895 172.316 90.9248C172.316 90.2543 172.438 89.6648 172.682 89.1563C172.926 88.6449 173.265 88.2472 173.696 87.9631C174.131 87.6762 174.631 87.5327 175.196 87.5327C175.762 87.5327 176.26 87.6762 176.692 87.9631C177.124 88.25 177.462 88.6478 177.706 89.1563C177.953 89.6648 178.077 90.2543 178.077 90.9248C178.077 91.5895 177.955 92.1762 177.711 92.6847C177.466 93.1904 177.127 93.5867 176.692 93.8736C176.26 94.1606 175.762 94.304 175.196 94.304ZM175.196 93.6094C175.651 93.6094 176.036 93.4873 176.351 93.2429C176.667 92.9986 176.905 92.6733 177.067 92.2671C177.232 91.8608 177.314 91.4134 177.314 90.9248C177.314 90.4361 177.232 89.9873 177.067 89.5782C176.905 89.1691 176.667 88.841 176.351 88.5938C176.036 88.3466 175.651 88.2231 175.196 88.2231C174.745 88.2231 174.36 88.3466 174.042 88.5938C173.726 88.841 173.486 89.1691 173.321 89.5782C173.159 89.9873 173.078 90.4361 173.078 90.9248C173.078 91.4134 173.159 91.8608 173.321 92.2671C173.486 92.6733 173.726 92.9986 174.042 93.2429C174.357 93.4873 174.742 93.6094 175.196 93.6094ZM182.299 94.304C181.714 94.304 181.204 94.1577 180.769 93.8651C180.337 93.5725 180.002 93.1719 179.763 92.6634C179.525 92.1549 179.405 91.5753 179.405 90.9248C179.405 90.2685 179.526 89.6847 179.768 89.1733C180.012 88.662 180.35 88.2614 180.782 87.9716C181.214 87.679 181.715 87.5327 182.286 87.5327C182.724 87.5327 183.12 87.6179 183.475 87.7884C183.83 87.956 184.123 88.1932 184.353 88.5C184.586 88.804 184.732 89.1591 184.792 89.5654H184.025C183.945 89.1961 183.754 88.8807 183.45 88.6194C183.148 88.3552 182.765 88.2231 182.299 88.2231C181.881 88.2231 181.512 88.3367 181.191 88.564C180.87 88.7884 180.619 89.1023 180.437 89.5057C180.258 89.9063 180.168 90.3708 180.168 90.8992C180.168 91.4304 180.256 91.9006 180.432 92.3097C180.609 92.716 180.856 93.0341 181.174 93.2643C181.495 93.4944 181.87 93.6094 182.299 93.6094C182.589 93.6094 182.853 93.5554 183.092 93.4475C183.333 93.3367 183.535 93.1804 183.697 92.9787C183.861 92.777 183.972 92.537 184.029 92.2586H184.796C184.739 92.6535 184.599 93.0057 184.374 93.3154C184.153 93.6222 183.864 93.8637 183.509 94.0398C183.157 94.216 182.754 94.304 182.299 94.304ZM187.112 91.6961L187.104 90.7032H187.274L190.342 87.6222H191.301L188.271 90.6563L188.203 90.6691L187.112 91.6961ZM186.422 94.1677V85.4404H187.18V94.1677H186.422ZM190.5 94.1677L187.841 90.8054L188.386 90.2813L191.472 94.1677H190.5ZM196.86 85.4404V94.1677H196.102V85.4404H196.86ZM201.513 94.304C200.903 94.304 200.374 94.162 199.928 93.8779C199.482 93.591 199.137 93.1947 198.893 92.689C198.651 92.1804 198.53 91.5952 198.53 90.9333C198.53 90.2742 198.651 89.689 198.893 89.1776C199.137 88.6634 199.474 88.2614 199.903 87.9716C200.334 87.679 200.833 87.5327 201.398 87.5327C201.754 87.5327 202.096 87.5981 202.425 87.7287C202.755 87.8566 203.05 88.054 203.312 88.3211C203.576 88.5853 203.785 88.9191 203.938 89.3225C204.092 89.7231 204.168 90.1975 204.168 90.7458V91.1208H199.055V90.4518H203.393C203.393 90.0313 203.307 89.6535 203.137 89.3182C202.969 88.9802 202.735 88.7131 202.434 88.5171C202.136 88.3211 201.79 88.2231 201.398 88.2231C200.984 88.2231 200.619 88.3339 200.303 88.5554C199.988 88.777 199.741 89.0697 199.562 89.4333C199.386 89.7969 199.296 90.1947 199.293 90.6265V91.027C199.293 91.5469 199.383 92.0015 199.562 92.3907C199.744 92.777 200.001 93.0768 200.333 93.2898C200.665 93.5029 201.059 93.6094 201.513 93.6094C201.823 93.6094 202.094 93.5611 202.327 93.4645C202.563 93.3679 202.761 93.2387 202.92 93.0768C203.082 92.912 203.204 92.7316 203.286 92.5356L204.006 92.7699C203.907 93.0455 203.744 93.2998 203.516 93.5327C203.292 93.7657 203.011 93.9532 202.673 94.0952C202.337 94.2344 201.951 94.304 201.513 94.304ZM208.337 96.7586C207.891 96.7586 207.5 96.7003 207.165 96.5839C206.83 96.4702 206.547 96.314 206.317 96.1151C206.087 95.9162 205.908 95.6932 205.78 95.4461L206.402 95.037C206.496 95.2018 206.621 95.3637 206.777 95.5228C206.936 95.6819 207.142 95.814 207.395 95.9191C207.651 96.0242 207.965 96.0768 208.337 96.0768C208.917 96.0768 209.384 95.9319 209.739 95.6421C210.097 95.3523 210.276 94.902 210.276 94.2912V92.8168H210.208C210.12 93.0157 209.993 93.2145 209.828 93.4134C209.664 93.6094 209.448 93.7728 209.181 93.9035C208.917 94.0341 208.588 94.0995 208.196 94.0995C207.674 94.0995 207.209 93.9702 206.803 93.7117C206.399 93.4532 206.081 93.0839 205.848 92.6037C205.618 92.1208 205.503 91.5455 205.503 90.8779C205.503 90.216 205.615 89.6336 205.84 89.1307C206.067 88.6279 206.384 88.2358 206.79 87.9546C207.196 87.6733 207.669 87.5327 208.209 87.5327C208.61 87.5327 208.942 87.6037 209.206 87.7458C209.47 87.885 209.682 88.0583 209.841 88.2657C210.003 88.4731 210.13 88.6748 210.22 88.8708H210.297V87.6222H211.039V94.3381C211.039 94.8921 210.921 95.3481 210.685 95.706C210.449 96.064 210.128 96.3282 209.722 96.4986C209.316 96.6719 208.854 96.7586 208.337 96.7586ZM208.286 93.4049C208.706 93.4049 209.066 93.304 209.364 93.1023C209.662 92.8978 209.891 92.6052 210.05 92.2245C210.209 91.8438 210.289 91.3907 210.289 90.8651C210.289 90.3537 210.211 89.9006 210.054 89.5057C209.898 89.108 209.671 88.7955 209.372 88.5682C209.077 88.3381 208.715 88.2231 208.286 88.2231C207.848 88.2231 207.479 88.341 207.178 88.5768C206.877 88.8125 206.649 89.1307 206.496 89.5313C206.343 89.929 206.266 90.3736 206.266 90.8651C206.266 91.3651 206.344 91.8069 206.5 92.1904C206.657 92.5711 206.885 92.8694 207.186 93.0853C207.488 93.2983 207.854 93.4049 208.286 93.4049ZM215.693 94.304C215.082 94.304 214.554 94.162 214.108 93.8779C213.662 93.591 213.317 93.1947 213.072 92.689C212.831 92.1804 212.71 91.5952 212.71 90.9333C212.71 90.2742 212.831 89.689 213.072 89.1776C213.317 88.6634 213.653 88.2614 214.082 87.9716C214.514 87.679 215.013 87.5327 215.578 87.5327C215.933 87.5327 216.276 87.5981 216.605 87.7287C216.935 87.8566 217.23 88.054 217.491 88.3211C217.756 88.5853 217.964 88.9191 218.118 89.3225C218.271 89.7231 218.348 90.1975 218.348 90.7458V91.1208H213.234V90.4518H217.572C217.572 90.0313 217.487 89.6535 217.317 89.3182C217.149 88.9802 216.915 88.7131 216.614 88.5171C216.315 88.3211 215.97 88.2231 215.578 88.2231C215.163 88.2231 214.798 88.3339 214.483 88.5554C214.168 88.777 213.92 89.0697 213.741 89.4333C213.565 89.7969 213.476 90.1947 213.473 90.6265V91.027C213.473 91.5469 213.562 92.0015 213.741 92.3907C213.923 92.777 214.18 93.0768 214.513 93.2898C214.845 93.5029 215.239 93.6094 215.693 93.6094C216.003 93.6094 216.274 93.5611 216.507 93.4645C216.743 93.3679 216.94 93.2387 217.099 93.0768C217.261 92.912 217.383 92.7316 217.466 92.5356L218.186 92.7699C218.087 93.0455 217.923 93.2998 217.696 93.5327C217.472 93.7657 217.19 93.9532 216.852 94.0952C216.517 94.2344 216.131 94.304 215.693 94.304ZM220.778 90.0768V94.1677H220.019V87.6222H220.757V88.6492H220.825C220.978 88.314 221.217 88.0455 221.541 87.8438C221.867 87.6393 222.271 87.537 222.751 87.537C223.191 87.537 223.578 87.6293 223.91 87.814C224.245 87.9958 224.505 88.2643 224.69 88.6194C224.877 88.9745 224.971 89.4106 224.971 89.9276V94.1677H224.213V89.9745C224.213 89.4375 224.062 89.0128 223.761 88.7003C223.463 88.3878 223.062 88.2316 222.559 88.2316C222.216 88.2316 221.91 88.3054 221.643 88.4532C221.376 88.6009 221.164 88.814 221.008 89.0924C220.855 89.3679 220.778 89.6961 220.778 90.0768ZM229.325 94.304C228.788 94.304 228.318 94.162 227.915 93.8779C227.511 93.5938 227.196 93.1975 226.969 92.689C226.744 92.1804 226.632 91.5881 226.632 90.912C226.632 90.2387 226.744 89.6492 226.969 89.1435C227.196 88.635 227.513 88.2401 227.919 87.9589C228.325 87.6748 228.798 87.5327 229.338 87.5327C229.736 87.5327 230.067 87.6037 230.331 87.7458C230.595 87.885 230.807 88.0583 230.966 88.2657C231.125 88.4731 231.249 88.6748 231.337 88.8708H231.405V85.4404H232.168V94.1677H231.426V92.9532H231.337C231.249 93.152 231.124 93.3566 230.962 93.5668C230.8 93.7742 230.585 93.9489 230.318 94.091C230.054 94.233 229.723 94.304 229.325 94.304ZM229.415 93.6094C229.838 93.6094 230.199 93.4944 230.497 93.2643C230.795 93.0313 231.023 92.7117 231.179 92.3054C231.338 91.8964 231.418 91.4276 231.418 90.8992C231.418 90.3765 231.339 89.9148 231.183 89.5143C231.027 89.1108 230.8 88.7955 230.501 88.5682C230.203 88.3381 229.841 88.2231 229.415 88.2231C228.977 88.2231 228.608 88.3424 228.307 88.581C228.008 88.8168 227.781 89.1364 227.625 89.5398C227.472 89.9432 227.395 90.3964 227.395 90.8992C227.395 91.4077 227.473 91.8665 227.629 92.2756C227.785 92.6847 228.013 93.01 228.311 93.2515C228.612 93.4901 228.98 93.6094 229.415 93.6094ZM236.156 94.3168C235.761 94.3168 235.401 94.2401 235.074 94.0867C234.747 93.9304 234.487 93.706 234.294 93.4134C234.101 93.1179 234.004 92.76 234.004 92.3395C234.004 92.0157 234.065 91.7429 234.187 91.5214C234.31 91.2998 234.483 91.1179 234.707 90.9759C234.932 90.8339 235.197 90.7216 235.504 90.6393C235.811 90.5569 236.149 90.4929 236.518 90.4475C236.885 90.402 237.195 90.3623 237.447 90.3282C237.703 90.2941 237.898 90.2401 238.031 90.1662C238.165 90.0924 238.231 89.9731 238.231 89.8083V89.6549C238.231 89.2089 238.098 88.858 237.831 88.6023C237.567 88.3438 237.186 88.2145 236.689 88.2145C236.217 88.2145 235.832 88.3182 235.534 88.5256C235.239 88.733 235.031 88.9773 234.912 89.2586L234.192 88.9986C234.339 88.6407 234.544 88.3552 234.805 88.1421C235.067 87.9262 235.359 87.7714 235.683 87.6776C236.007 87.581 236.335 87.5327 236.668 87.5327C236.918 87.5327 237.178 87.5654 237.447 87.6307C237.72 87.6961 237.973 87.8097 238.206 87.9716C238.439 88.1307 238.628 88.3537 238.773 88.6407C238.918 88.9248 238.99 89.2856 238.99 89.7231V94.1677H238.231V93.1322H238.185C238.094 93.3253 237.959 93.5128 237.78 93.6947C237.601 93.8765 237.376 94.0256 237.106 94.1421C236.837 94.2586 236.52 94.3168 236.156 94.3168ZM236.258 93.6222C236.662 93.6222 237.011 93.5327 237.307 93.3537C237.602 93.1748 237.83 92.9375 237.989 92.6421C238.151 92.3438 238.231 92.0157 238.231 91.6577V90.7117C238.175 90.7657 238.08 90.814 237.946 90.8566C237.815 90.8992 237.663 90.9375 237.49 90.9716C237.32 91.0029 237.149 91.0299 236.979 91.0526C236.808 91.0753 236.655 91.0952 236.518 91.1123C236.149 91.1577 235.834 91.2287 235.572 91.3253C235.311 91.4219 235.111 91.5554 234.972 91.7259C234.832 91.8935 234.763 92.1094 234.763 92.3736C234.763 92.7714 234.905 93.0796 235.189 93.2983C235.473 93.5143 235.83 93.6222 236.258 93.6222ZM241.008 94.1677V87.6222H241.745V88.6279H241.8C241.931 88.2983 242.158 88.0327 242.482 87.831C242.809 87.6265 243.178 87.5242 243.59 87.5242C243.653 87.5242 243.722 87.5256 243.799 87.5285C243.876 87.5313 243.94 87.5341 243.991 87.537V88.3083C243.957 88.3026 243.897 88.2941 243.812 88.2827C243.727 88.2714 243.634 88.2657 243.535 88.2657C243.194 88.2657 242.89 88.3381 242.623 88.483C242.359 88.625 242.15 88.8225 241.996 89.0753C241.843 89.3282 241.766 89.6165 241.766 89.9404V94.1677H241.008ZM246.013 96.6222C245.862 96.6222 245.722 96.608 245.591 96.5796C245.46 96.5512 245.356 96.5199 245.28 96.4858L245.484 95.8168C245.743 95.8964 245.973 95.9248 246.175 95.902C246.376 95.8822 246.555 95.7912 246.712 95.6293C246.868 95.4702 247.007 95.2259 247.129 94.8964L247.368 94.2316L244.96 87.6222H245.783L247.726 93.1662H247.785L249.729 87.6222H250.551L247.781 95.2032C247.665 95.5185 247.521 95.7813 247.351 95.9915C247.18 96.2046 246.983 96.3623 246.758 96.4645C246.537 96.5697 246.288 96.6222 246.013 96.6222ZM257.967 94.304C257.382 94.304 256.872 94.1577 256.437 93.8651C256.005 93.5725 255.67 93.1719 255.431 92.6634C255.193 92.1549 255.073 91.5753 255.073 90.9248C255.073 90.2685 255.194 89.6847 255.436 89.1733C255.68 88.662 256.018 88.2614 256.45 87.9716C256.882 87.679 257.383 87.5327 257.954 87.5327C258.392 87.5327 258.788 87.6179 259.143 87.7884C259.498 87.956 259.791 88.1932 260.021 88.5C260.254 88.804 260.4 89.1591 260.46 89.5654H259.693C259.613 89.1961 259.421 88.8807 259.117 88.6194C258.816 88.3552 258.433 88.2231 257.967 88.2231C257.549 88.2231 257.18 88.3367 256.859 88.564C256.538 88.7884 256.287 89.1023 256.105 89.5057C255.926 89.9063 255.836 90.3708 255.836 90.8992C255.836 91.4304 255.924 91.9006 256.1 92.3097C256.277 92.716 256.524 93.0341 256.842 93.2643C257.163 93.4944 257.538 93.6094 257.967 93.6094C258.257 93.6094 258.521 93.5554 258.76 93.4475C259.001 93.3367 259.203 93.1804 259.365 92.9787C259.529 92.777 259.64 92.537 259.697 92.2586H260.464C260.407 92.6535 260.267 93.0057 260.042 93.3154C259.821 93.6222 259.532 93.8637 259.177 94.0398C258.825 94.216 258.421 94.304 257.967 94.304ZM263.918 94.3168C263.523 94.3168 263.162 94.2401 262.836 94.0867C262.509 93.9304 262.249 93.706 262.056 93.4134C261.863 93.1179 261.766 92.76 261.766 92.3395C261.766 92.0157 261.827 91.7429 261.949 91.5214C262.071 91.2998 262.245 91.1179 262.469 90.9759C262.693 90.8339 262.959 90.7216 263.266 90.6393C263.573 90.5569 263.911 90.4929 264.28 90.4475C264.647 90.402 264.956 90.3623 265.209 90.3282C265.465 90.2941 265.659 90.2401 265.793 90.1662C265.926 90.0924 265.993 89.9731 265.993 89.8083V89.6549C265.993 89.2089 265.86 88.858 265.593 88.6023C265.328 88.3438 264.948 88.2145 264.451 88.2145C263.979 88.2145 263.594 88.3182 263.296 88.5256C263 88.733 262.793 88.9773 262.674 89.2586L261.953 88.9986C262.101 88.6407 262.306 88.3552 262.567 88.1421C262.828 87.9262 263.121 87.7714 263.445 87.6776C263.769 87.581 264.097 87.5327 264.429 87.5327C264.679 87.5327 264.939 87.5654 265.209 87.6307C265.482 87.6961 265.735 87.8097 265.968 87.9716C266.201 88.1307 266.39 88.3537 266.534 88.6407C266.679 88.9248 266.752 89.2856 266.752 89.7231V94.1677H265.993V93.1322H265.946C265.855 93.3253 265.72 93.5128 265.542 93.6947C265.363 93.8765 265.138 94.0256 264.868 94.1421C264.598 94.2586 264.282 94.3168 263.918 94.3168ZM264.02 93.6222C264.424 93.6222 264.773 93.5327 265.068 93.3537C265.364 93.1748 265.591 92.9375 265.75 92.6421C265.912 92.3438 265.993 92.0157 265.993 91.6577V90.7117C265.936 90.7657 265.841 90.814 265.708 90.8566C265.577 90.8992 265.425 90.9375 265.252 90.9716C265.081 91.0029 264.911 91.0299 264.74 91.0526C264.57 91.0753 264.417 91.0952 264.28 91.1123C263.911 91.1577 263.595 91.2287 263.334 91.3253C263.073 91.4219 262.872 91.5554 262.733 91.7259C262.594 91.8935 262.524 92.1094 262.524 92.3736C262.524 92.7714 262.667 93.0796 262.951 93.2983C263.235 93.5143 263.591 93.6222 264.02 93.6222ZM268.769 94.1677V87.6222H269.507V88.6279H269.562C269.693 88.2983 269.92 88.0327 270.244 87.831C270.571 87.6265 270.94 87.5242 271.352 87.5242C271.414 87.5242 271.484 87.5256 271.561 87.5285C271.637 87.5313 271.701 87.5341 271.752 87.537V88.3083C271.718 88.3026 271.659 88.2941 271.573 88.2827C271.488 88.2714 271.396 88.2657 271.296 88.2657C270.956 88.2657 270.652 88.3381 270.385 88.483C270.12 88.625 269.912 88.8225 269.758 89.0753C269.605 89.3282 269.528 89.6165 269.528 89.9404V94.1677H268.769ZM275.204 94.304C274.667 94.304 274.197 94.162 273.794 93.8779C273.39 93.5938 273.075 93.1975 272.848 92.689C272.623 92.1804 272.511 91.5881 272.511 90.912C272.511 90.2387 272.623 89.6492 272.848 89.1435C273.075 88.635 273.392 88.2401 273.798 87.9589C274.204 87.6748 274.677 87.5327 275.217 87.5327C275.615 87.5327 275.946 87.6037 276.21 87.7458C276.474 87.885 276.686 88.0583 276.845 88.2657C277.004 88.4731 277.127 88.6748 277.216 88.8708H277.284V85.4404H278.046V94.1677H277.305V92.9532H277.216C277.127 93.152 277.002 93.3566 276.841 93.5668C276.679 93.7742 276.464 93.9489 276.197 94.091C275.933 94.233 275.602 94.304 275.204 94.304ZM275.294 93.6094C275.717 93.6094 276.078 93.4944 276.376 93.2643C276.674 93.0313 276.902 92.7117 277.058 92.3054C277.217 91.8964 277.296 91.4276 277.296 90.8992C277.296 90.3765 277.218 89.9148 277.062 89.5143C276.906 89.1108 276.679 88.7955 276.38 88.5682C276.082 88.3381 275.72 88.2231 275.294 88.2231C274.856 88.2231 274.487 88.3424 274.186 88.581C273.887 88.8168 273.66 89.1364 273.504 89.5398C273.35 89.9432 273.274 90.3964 273.274 90.8992C273.274 91.4077 273.352 91.8665 273.508 92.2756C273.664 92.6847 273.892 93.01 274.19 93.2515C274.491 93.4901 274.859 93.6094 275.294 93.6094ZM284.605 89.0583L283.91 89.2543C283.842 89.0583 283.745 88.8807 283.62 88.7216C283.495 88.5625 283.332 88.4361 283.13 88.3424C282.931 88.2486 282.684 88.2018 282.389 88.2018C281.946 88.2018 281.582 88.3069 281.298 88.5171C281.014 88.7273 280.872 88.9986 280.872 89.331C280.872 89.6123 280.968 89.841 281.162 90.0171C281.358 90.1904 281.659 90.3282 282.065 90.4304L283.054 90.6733C283.602 90.8069 284.012 91.0185 284.285 91.3083C284.561 91.5981 284.698 91.9617 284.698 92.3992C284.698 92.7685 284.596 93.0966 284.392 93.3836C284.187 93.6705 283.902 93.8964 283.535 94.0611C283.171 94.2231 282.75 94.304 282.269 94.304C281.63 94.304 281.103 94.1606 280.689 93.8736C280.274 93.5839 280.008 93.1662 279.892 92.6208L280.62 92.4418C280.714 92.831 280.897 93.125 281.17 93.3239C281.446 93.5228 281.808 93.6222 282.257 93.6222C282.76 93.6222 283.162 93.51 283.463 93.2856C283.764 93.0583 283.914 92.7742 283.914 92.4333C283.914 92.1691 283.826 91.9475 283.65 91.7685C283.474 91.5867 283.207 91.4532 282.849 91.3679L281.779 91.1123C281.211 90.9759 280.791 90.76 280.518 90.4645C280.245 90.1691 280.109 89.8026 280.109 89.3651C280.109 89.0043 280.207 88.6875 280.403 88.4148C280.599 88.1393 280.869 87.9233 281.213 87.7671C281.556 87.6108 281.948 87.5327 282.389 87.5327C282.988 87.5327 283.467 87.6691 283.825 87.9418C284.186 88.2117 284.446 88.5839 284.605 89.0583ZM291.562 94.3168C291.168 94.3168 290.807 94.2401 290.48 94.0867C290.153 93.9304 289.893 93.706 289.7 93.4134C289.507 93.1179 289.41 92.76 289.41 92.3395C289.41 92.0157 289.472 91.7429 289.594 91.5214C289.716 91.2998 289.889 91.1179 290.114 90.9759C290.338 90.8339 290.604 90.7216 290.91 90.6393C291.217 90.5569 291.555 90.4929 291.925 90.4475C292.291 90.402 292.601 90.3623 292.854 90.3282C293.109 90.2941 293.304 90.2401 293.437 90.1662C293.571 90.0924 293.638 89.9731 293.638 89.8083V89.6549C293.638 89.2089 293.504 88.858 293.237 88.6023C292.973 88.3438 292.592 88.2145 292.095 88.2145C291.624 88.2145 291.239 88.3182 290.94 88.5256C290.645 88.733 290.437 88.9773 290.318 89.2586L289.598 88.9986C289.746 88.6407 289.95 88.3552 290.212 88.1421C290.473 87.9262 290.766 87.7714 291.089 87.6776C291.413 87.581 291.741 87.5327 292.074 87.5327C292.324 87.5327 292.584 87.5654 292.854 87.6307C293.126 87.6961 293.379 87.8097 293.612 87.9716C293.845 88.1307 294.034 88.3537 294.179 88.6407C294.324 88.9248 294.396 89.2856 294.396 89.7231V94.1677H293.638V93.1322H293.591C293.5 93.3253 293.365 93.5128 293.186 93.6947C293.007 93.8765 292.783 94.0256 292.513 94.1421C292.243 94.2586 291.926 94.3168 291.562 94.3168ZM291.665 93.6222C292.068 93.6222 292.418 93.5327 292.713 93.3537C293.008 93.1748 293.236 92.9375 293.395 92.6421C293.557 92.3438 293.638 92.0157 293.638 91.6577V90.7117C293.581 90.7657 293.486 90.814 293.352 90.8566C293.222 90.8992 293.07 90.9375 292.896 90.9716C292.726 91.0029 292.555 91.0299 292.385 91.0526C292.214 91.0753 292.061 91.0952 291.925 91.1123C291.555 91.1577 291.24 91.2287 290.979 91.3253C290.717 91.4219 290.517 91.5554 290.378 91.7259C290.239 91.8935 290.169 92.1094 290.169 92.3736C290.169 92.7714 290.311 93.0796 290.595 93.2983C290.879 93.5143 291.236 93.6222 291.665 93.6222ZM297.173 90.0768V94.1677H296.414V87.6222H297.151V88.6492H297.219C297.373 88.314 297.611 88.0455 297.935 87.8438C298.262 87.6393 298.665 87.537 299.146 87.537C299.586 87.537 299.972 87.6293 300.305 87.814C300.64 87.9958 300.9 88.2643 301.084 88.6194C301.272 88.9745 301.366 89.4106 301.366 89.9276V94.1677H300.607V89.9745C300.607 89.4375 300.457 89.0128 300.155 88.7003C299.857 88.3878 299.457 88.2316 298.954 88.2316C298.61 88.2316 298.305 88.3054 298.038 88.4532C297.771 88.6009 297.559 88.814 297.403 89.0924C297.249 89.3679 297.173 89.6961 297.173 90.0768ZM305.72 94.304C305.183 94.304 304.713 94.162 304.309 93.8779C303.906 93.5938 303.591 93.1975 303.363 92.689C303.139 92.1804 303.027 91.5881 303.027 90.912C303.027 90.2387 303.139 89.6492 303.363 89.1435C303.591 88.635 303.907 88.2401 304.314 87.9589C304.72 87.6748 305.193 87.5327 305.733 87.5327C306.13 87.5327 306.461 87.6037 306.725 87.7458C306.99 87.885 307.201 88.0583 307.36 88.2657C307.519 88.4731 307.643 88.6748 307.731 88.8708H307.799V85.4404H308.562V94.1677H307.821V92.9532H307.731C307.643 93.152 307.518 93.3566 307.356 93.5668C307.194 93.7742 306.98 93.9489 306.713 94.091C306.448 94.233 306.117 94.304 305.72 94.304ZM305.809 93.6094C306.233 93.6094 306.593 93.4944 306.892 93.2643C307.19 93.0313 307.417 92.7117 307.573 92.3054C307.733 91.8964 307.812 91.4276 307.812 90.8992C307.812 90.3765 307.734 89.9148 307.578 89.5143C307.421 89.1108 307.194 88.7955 306.896 88.5682C306.598 88.3381 306.235 88.2231 305.809 88.2231C305.372 88.2231 305.002 88.3424 304.701 88.581C304.403 88.8168 304.176 89.1364 304.019 89.5398C303.866 89.9432 303.789 90.3964 303.789 90.8992C303.789 91.4077 303.867 91.8665 304.024 92.2756C304.18 92.6847 304.407 93.01 304.706 93.2515C305.007 93.4901 305.375 93.6094 305.809 93.6094ZM318.495 89.0583L317.801 89.2543C317.733 89.0583 317.636 88.8807 317.511 88.7216C317.386 88.5625 317.223 88.4361 317.021 88.3424C316.822 88.2486 316.575 88.2018 316.279 88.2018C315.836 88.2018 315.473 88.3069 315.189 88.5171C314.904 88.7273 314.762 88.9986 314.762 89.331C314.762 89.6123 314.859 89.841 315.052 90.0171C315.248 90.1904 315.549 90.3282 315.956 90.4304L316.944 90.6733C317.492 90.8069 317.903 91.0185 318.176 91.3083C318.451 91.5981 318.589 91.9617 318.589 92.3992C318.589 92.7685 318.487 93.0966 318.282 93.3836C318.078 93.6705 317.792 93.8964 317.426 94.0611C317.062 94.2231 316.64 94.304 316.16 94.304C315.521 94.304 314.994 94.1606 314.579 93.8736C314.164 93.5839 313.899 93.1662 313.782 92.6208L314.511 92.4418C314.605 92.831 314.788 93.125 315.061 93.3239C315.336 93.5228 315.698 93.6222 316.147 93.6222C316.65 93.6222 317.052 93.51 317.353 93.2856C317.654 93.0583 317.805 92.7742 317.805 92.4333C317.805 92.1691 317.717 91.9475 317.541 91.7685C317.365 91.5867 317.098 91.4532 316.74 91.3679L315.67 91.1123C315.102 90.9759 314.681 90.76 314.409 90.4645C314.136 90.1691 314 89.8026 314 89.3651C314 89.0043 314.098 88.6875 314.294 88.4148C314.49 88.1393 314.76 87.9233 315.103 87.7671C315.447 87.6108 315.839 87.5327 316.279 87.5327C316.879 87.5327 317.358 87.6691 317.716 87.9418C318.076 88.2117 318.336 88.5839 318.495 89.0583ZM320.94 91.6961L320.932 90.7032H321.102L324.17 87.6222H325.129L322.099 90.6563L322.031 90.6691L320.94 91.6961ZM320.25 94.1677V85.4404H321.008V94.1677H320.25ZM324.328 94.1677L321.669 90.8054L322.214 90.2813L325.3 94.1677H324.328ZM326.563 94.1677V87.6222H327.326V94.1677H326.563ZM326.951 86.4972C326.795 86.4972 326.661 86.4447 326.55 86.3395C326.44 86.2316 326.384 86.1023 326.384 85.9518C326.384 85.8012 326.44 85.6733 326.55 85.5682C326.661 85.4603 326.795 85.4063 326.951 85.4063C327.107 85.4063 327.241 85.4603 327.352 85.5682C327.462 85.6733 327.518 85.8012 327.518 85.9518C327.518 86.1023 327.462 86.2316 327.352 86.3395C327.241 86.4447 327.107 86.4972 326.951 86.4972ZM330.091 90.0768V94.1677H329.332V87.6222H330.069V88.6492H330.137C330.291 88.314 330.529 88.0455 330.853 87.8438C331.18 87.6393 331.583 87.537 332.064 87.537C332.504 87.537 332.89 87.6293 333.223 87.814C333.558 87.9958 333.818 88.2643 334.002 88.6194C334.19 88.9745 334.284 89.4106 334.284 89.9276V94.1677H333.525V89.9745C333.525 89.4375 333.375 89.0128 333.073 88.7003C332.775 88.3878 332.375 88.2316 331.872 88.2316C331.528 88.2316 331.223 88.3054 330.956 88.4532C330.689 88.6009 330.477 88.814 330.321 89.0924C330.167 89.3679 330.091 89.6961 330.091 90.0768ZM340.679 89.0583L339.984 89.2543C339.916 89.0583 339.82 88.8807 339.695 88.7216C339.57 88.5625 339.406 88.4361 339.205 88.3424C339.006 88.2486 338.758 88.2018 338.463 88.2018C338.02 88.2018 337.656 88.3069 337.372 88.5171C337.088 88.7273 336.946 88.9986 336.946 89.331C336.946 89.6123 337.043 89.841 337.236 90.0171C337.432 90.1904 337.733 90.3282 338.139 90.4304L339.128 90.6733C339.676 90.8069 340.087 91.0185 340.359 91.3083C340.635 91.5981 340.773 91.9617 340.773 92.3992C340.773 92.7685 340.67 93.0966 340.466 93.3836C340.261 93.6705 339.976 93.8964 339.609 94.0611C339.246 94.2231 338.824 94.304 338.344 94.304C337.705 94.304 337.178 94.1606 336.763 93.8736C336.348 93.5839 336.082 93.1662 335.966 92.6208L336.695 92.4418C336.788 92.831 336.972 93.125 337.244 93.3239C337.52 93.5228 337.882 93.6222 338.331 93.6222C338.834 93.6222 339.236 93.51 339.537 93.2856C339.838 93.0583 339.989 92.7742 339.989 92.4333C339.989 92.1691 339.901 91.9475 339.724 91.7685C339.548 91.5867 339.281 91.4532 338.923 91.3679L337.854 91.1123C337.285 90.9759 336.865 90.76 336.592 90.4645C336.32 90.1691 336.183 89.8026 336.183 89.3651C336.183 89.0043 336.281 88.6875 336.477 88.4148C336.673 88.1393 336.943 87.9233 337.287 87.7671C337.631 87.6108 338.023 87.5327 338.463 87.5327C339.062 87.5327 339.541 87.6691 339.899 87.9418C340.26 88.2117 340.52 88.5839 340.679 89.0583Z" fill="#E8E8E8"/>
<g filter="url(#filter0_i_150_26113)">
<path d="M261.715 13.682C261.791 10.1517 261.546 7.574 260.978 5.45452C260.441 3.45332 259.519 1.49782 257.776 -0.664099C255.925 -2.96009 254.209 -4.10726 252.437 -4.68178C250.552 -5.29288 248.295 -5.35301 245.348 -4.84025C244.567 -4.70428 243.095 -4.11448 241.032 -2.97718C240.201 -2.51935 239.336 -2.00545 238.459 -1.46165C240.762 -0.360679 243.159 1.02184 245.33 2.75236C248.181 5.02584 251.394 8.50343 252.838 13.5709L253.046 14.3362C255.067 22.209 253.437 29.0882 252.217 34.0718C250.8 39.8572 249.842 43.5407 250.413 47.53C251.785 57.1057 257.246 67.9647 263.682 74.7136C265.668 76.7962 267.342 78.6631 269.228 80.5676C266.184 76.6655 263.625 72.8322 261.58 68.5267C258.782 62.6381 257.161 56.3374 256.135 48.463C254.946 39.3406 256.755 34.1188 258.483 29.4427C260.023 25.2766 261.548 21.402 261.715 13.682Z" fill="#020C7B" fill-opacity="0.25"/>
</g>
<g filter="url(#filter1_i_150_26113)">
<path d="M374.46 38.6369C377.748 37.3503 380.034 36.1331 381.772 34.7935C383.413 33.5286 384.864 31.9258 386.189 29.4856C387.597 26.8941 387.997 24.8695 387.846 23.0125C387.685 21.0371 386.873 18.9307 385.267 16.4077C384.841 15.7387 383.731 14.6062 381.888 13.1389C381.146 12.5483 380.339 11.9474 379.5 11.3469C379.369 13.8956 379.014 16.64 378.251 19.3092C377.248 22.8157 375.273 27.1183 371.15 30.3996L370.523 30.8854C364.033 35.778 357.056 36.9177 351.986 37.7067C346.1 38.6227 342.331 39.1544 338.868 41.2155C330.556 46.1633 322.631 55.3791 318.874 63.9147C317.715 66.5487 316.635 68.8115 315.602 71.2855C318.035 66.9754 320.59 63.1393 323.778 59.5959C328.139 54.7497 333.332 50.8305 340.207 46.8562C348.171 42.2522 353.687 41.9142 358.668 41.7122C363.106 41.5322 367.269 41.4504 374.46 38.6369Z" fill="#020C7B" fill-opacity="0.25"/>
</g>
<g filter="url(#filter2_i_150_26113)">
<path d="M226.449 -2.92483C225.217 -4.16402 224.396 -5.16165 223.817 -6.09516C223.27 -6.97658 222.839 -7.9605 222.553 -9.27156C222.249 -10.6639 222.303 -11.6035 222.57 -12.3558C222.853 -13.1561 223.422 -13.8739 224.369 -14.5996C224.62 -14.792 225.208 -15.0353 226.138 -15.265C226.512 -15.3575 226.915 -15.4405 227.331 -15.5166C227.107 -14.4124 226.955 -13.1783 226.982 -11.8896C227.016 -10.1965 227.37 -7.96148 228.733 -5.70332L228.941 -5.36556C231.116 -1.92588 233.905 0.0317928 235.936 1.43777C238.293 3.06996 239.809 4.09195 241.029 5.69517C243.959 9.54361 246.26 15.1126 246.894 19.5122C247.09 20.8699 247.293 22.0541 247.454 23.3174C246.91 20.9826 246.263 18.8219 245.319 16.6507C244.029 13.6814 242.289 10.9273 239.853 7.79424C237.031 4.16457 234.765 2.85474 232.707 1.71543C230.874 0.700371 229.144 -0.215055 226.449 -2.92483Z" fill="#020C7B" fill-opacity="0.25"/>
</g>
</g>
<path d="M-2 9.66773C-2 3.22382 3.22382 -2 9.66773 -2H365.332C371.776 -2 377 3.22382 377 9.66773H373C373 5.43296 369.567 2 365.332 2H9.66773C5.43296 2 2 5.43296 2 9.66773H-2ZM2 9.66773M375 113H0H375M9.66773 113C3.22382 113 -2 107.776 -2 101.332V9.66773C-2 3.22382 3.22382 -2 9.66773 -2V2C5.43296 2 2 5.43296 2 9.66773V103.332C2 108.672 5.43296 113 9.66773 113ZM365.332 -2C371.776 -2 377 3.22382 377 9.66773V101.332C377 107.776 371.776 113 365.332 113C369.567 113 373 108.672 373 103.332V9.66773C373 5.43296 369.567 2 365.332 2V-2Z" fill="url(#paint3_linear_150_26113)" mask="url(#path-1-inside-1_150_26113)"/>
<defs>
<filter id="filter0_i_150_26113" x="238.459" y="-5.18643" width="30.769" height="87.1616" filterUnits="userSpaceOnUse" color-interpolation-filters="sRGB">
<feFlood flood-opacity="0" result="BackgroundImageFix"/>
<feBlend mode="normal" in="SourceGraphic" in2="BackgroundImageFix" result="shape"/>
<feColorMatrix in="SourceAlpha" type="matrix" values="0 0 0 0 0 0 0 0 0 0 0 0 0 0 0 0 0 0 127 0" result="hardAlpha"/>
<feOffset dy="1.40755"/>
<feGaussianBlur stdDeviation="0.703773"/>
<feComposite in2="hardAlpha" operator="arithmetic" k2="-1" k3="1"/>
<feColorMatrix type="matrix" values="0 0 0 0 0 0 0 0 0 0 0 0 0 0 0 0 0 0 0.25 0"/>
<feBlend mode="normal" in2="shape" result="effect1_innerShadow_150_26113"/>
</filter>
<filter id="filter1_i_150_26113" x="315.603" y="11.3469" width="72.2734" height="61.3461" filterUnits="userSpaceOnUse" color-interpolation-filters="sRGB">
<feFlood flood-opacity="0" result="BackgroundImageFix"/>
<feBlend mode="normal" in="SourceGraphic" in2="BackgroundImageFix" result="shape"/>
<feColorMatrix in="SourceAlpha" type="matrix" values="0 0 0 0 0 0 0 0 0 0 0 0 0 0 0 0 0 0 127 0" result="hardAlpha"/>
<feOffset dy="1.40755"/>
<feGaussianBlur stdDeviation="0.703773"/>
<feComposite in2="hardAlpha" operator="arithmetic" k2="-1" k3="1"/>
<feColorMatrix type="matrix" values="0 0 0 0 0 0 0 0 0 0 0 0 0 0 0 0 0 0 0.25 0"/>
<feBlend mode="normal" in2="shape" result="effect1_innerShadow_150_26113"/>
</filter>
<filter id="filter2_i_150_26113" x="222.346" y="-15.5166" width="25.1079" height="40.2416" filterUnits="userSpaceOnUse" color-interpolation-filters="sRGB">
<feFlood flood-opacity="0" result="BackgroundImageFix"/>
<feBlend mode="normal" in="SourceGraphic" in2="BackgroundImageFix" result="shape"/>
<feColorMatrix in="SourceAlpha" type="matrix" values="0 0 0 0 0 0 0 0 0 0 0 0 0 0 0 0 0 0 127 0" result="hardAlpha"/>
<feOffset dy="1.40755"/>
<feGaussianBlur stdDeviation="0.703773"/>
<feComposite in2="hardAlpha" operator="arithmetic" k2="-1" k3="1"/>
<feColorMatrix type="matrix" values="0 0 0 0 0 0 0 0 0 0 0 0 0 0 0 0 0 0 0.25 0"/>
<feBlend mode="normal" in2="shape" result="effect1_innerShadow_150_26113"/>
</filter>
<linearGradient id="paint0_linear_150_26113" x1="187.5" y1="80" x2="187.5" y2="-26" gradientUnits="userSpaceOnUse">
<stop stop-color="#010B7B"/>
<stop offset="1" stop-color="#0060DE"/>
</linearGradient>
<linearGradient id="paint1_linear_150_26113" x1="273.875" y1="78.75" x2="275.75" y2="14.25" gradientUnits="userSpaceOnUse">
<stop stop-color="#001FE8"/>
<stop offset="1" stop-color="#011599"/>
</linearGradient>
<linearGradient id="paint2_linear_150_26113" x1="323.75" y1="46.5" x2="317.213" y2="30.1268" gradientUnits="userSpaceOnUse">
<stop stop-color="#001FE8"/>
<stop offset="1" stop-color="#011599"/>
</linearGradient>
<linearGradient id="paint3_linear_150_26113" x1="187.5" y1="0" x2="187.5" y2="103.5" gradientUnits="userSpaceOnUse">
<stop stop-color="#ABC3FF"/>
<stop offset="0.128319" stop-color="#566FE3"/>
<stop offset="0.247788" stop-color="#001FE8"/>
<stop offset="0.402655" stop-color="#020C7B"/>
<stop offset="1" stop-color="#010B7B"/>
</linearGradient>
<clipPath id="clip0_150_26113">
<path d="M0 9.66773C0 4.32839 4.32839 0 9.66773 0H365.332C370.672 0 375 4.32839 375 9.66773V103.332C375 108.672 370.672 113 365.332 113H9.66773C4.32839 113 0 108.672 0 103.332V9.66773Z" fill="white"/>
</clipPath>
</defs>
</svg>
