<svg width="375" height="113" viewBox="0 0 375 113" fill="none" xmlns="http://www.w3.org/2000/svg">
<g clip-path="url(#clip0_150_26117)">
<mask id="path-1-inside-1_150_26117" fill="white">
<path d="M0 9.66773C0 4.32839 4.32839 0 9.66773 0H365.332C370.672 0 375 4.32839 375 9.66773V103.332C375 108.672 370.672 113 365.332 113H9.66773C4.32839 113 0 108.672 0 103.332V9.66773Z"/>
</mask>
<path d="M0 9.66773C0 4.32839 4.32839 0 9.66773 0H365.332C370.672 0 375 4.32839 375 9.66773V103.332C375 108.672 370.672 113 365.332 113H9.66773C4.32839 113 0 108.672 0 103.332V9.66773Z" fill="url(#paint0_linear_150_26117)"/>
<mask id="path-3-inside-2_150_26117" fill="white">
<path d="M277.25 1.00031H374.25C374.25 1.00031 336.832 19.6203 316.121 37.375C299.397 51.7121 277.25 79.472 277.25 79.472C277.25 79.472 282.923 53.9842 282.599 37.375C282.318 22.973 277.25 1.00031 277.25 1.00031Z"/>
</mask>
<path d="M277.25 1.00031H374.25C374.25 1.00031 336.832 19.6203 316.121 37.375C299.397 51.7121 277.25 79.472 277.25 79.472C277.25 79.472 282.923 53.9842 282.599 37.375C282.318 22.973 277.25 1.00031 277.25 1.00031Z" fill="#010B7B"/>
<path d="M277.25 0.698287C277.25 0.899632 277.25 1.10098 277.25 1.30232C282.29 1.55091 287.33 1.7913 292.37 2.0235C319.663 3.2809 346.957 4.29789 374.25 5.07447L372.435 -2.64719C351.559 7.4479 331.165 18.1675 312.528 33.1832C297.403 46.2067 284.932 60.741 272.598 75.7604L283.059 80.7651C283.521 78.6677 283.933 76.6219 284.331 74.5615C286.588 62.4178 288.164 50.1541 287.159 37.286C286.405 29.6184 284.621 22.4879 282.539 15.4244C281.069 10.5162 279.412 5.6894 277.544 0.932424C277.348 0.977678 277.152 1.02293 276.956 1.06819C277.298 6.1429 277.576 11.2019 277.813 16.2327C278.129 23.4359 278.428 30.6714 278.04 37.464C277.193 48.8445 274.818 60.6389 272.635 72.3083C272.256 74.2729 271.844 76.3213 271.441 78.1789L281.902 83.1836C293.755 68.642 306.159 53.8669 319.715 41.5668C336.377 27.3205 356.36 15.568 376.065 4.6478L374.25 -3.07385C346.957 -2.29728 319.663 -1.28029 292.37 -0.0228853C287.33 0.209307 282.29 0.449698 277.25 0.698287ZM277.25 1.30232V0.698287L276.817 0.719635L276.956 1.06819L277.544 0.932424L277.25 1.30232Z" fill="#020C7B" mask="url(#path-3-inside-2_150_26117)"/>
<path d="M270.717 0.0809183C270.072 0.318629 269.428 0.55634 268.783 0.794051C269.242 2.00298 269.699 3.26052 270.145 4.51882C273.159 13.1694 276.024 21.9921 277.383 31.0141V31.0141C279.062 45.5452 276.933 60.3803 274.395 74.8392C274.154 76.1352 273.89 77.4917 273.625 78.75C273.924 77.4991 274.221 76.1492 274.496 74.8594C277.404 60.4451 279.939 45.7252 278.617 30.8608V30.8608C277.465 21.6092 274.81 12.6888 271.999 3.88765C271.58 2.60493 271.157 1.33728 270.717 0.0809183Z" fill="url(#paint1_linear_150_26117)"/>
<path d="M374.466 6.16371C374.775 6.77754 375.084 7.39137 375.393 8.00521C373.721 8.83297 371.961 9.73113 370.256 10.6116C352.906 19.7216 335.657 29.2358 320.291 41.3517V41.3517C308.644 50.9994 298.238 62.1525 288.076 73.4111C286.791 74.8492 285.51 76.2957 284.25 77.75C285.484 76.2734 286.739 74.8042 287.998 73.3431C297.967 61.8993 308.156 50.572 319.71 40.6483V40.6483C334.977 28.1667 352.088 18.3353 369.342 8.87978C371.04 7.96399 372.782 7.03597 374.466 6.16371Z" fill="url(#paint2_linear_150_26117)"/>
<path d="M15.5454 24.0045C15.5454 19.3326 19.3328 15.5452 24.0047 15.5452H40.9122C45.5841 15.5452 49.3714 19.3326 49.3714 24.0045V40.912C49.3714 45.5839 45.5841 49.3713 40.9122 49.3713H24.0047C19.3327 49.3713 15.5454 45.5839 15.5454 40.912V24.0045Z" fill="#CECECE" fill-opacity="0.125"/>
<g clip-path="url(#clip1_150_26117)">
<g clip-path="url(#clip2_150_26117)">
<g clip-path="url(#clip3_150_26117)">
<path d="M28.2242 30.345H27.1677C26.7006 30.345 26.2527 30.1595 25.9225 29.8293C25.5923 29.499 25.4067 29.0511 25.4067 28.5841C25.4067 28.1171 25.5923 27.6692 25.9225 27.3389C26.2527 27.0087 26.7006 26.8232 27.1677 26.8232H28.2242" stroke="white" stroke-width="1.40874" stroke-linecap="round" stroke-linejoin="round"/>
<path d="M36.6768 30.345H37.7333C38.2003 30.345 38.6482 30.1595 38.9785 29.8293C39.3087 29.499 39.4942 29.0511 39.4942 28.5841C39.4942 28.1171 39.3087 27.6692 38.9785 27.3389C38.6482 27.0087 38.2003 26.8232 37.7333 26.8232H36.6768" stroke="white" stroke-width="1.40874" stroke-linecap="round" stroke-linejoin="round"/>
<path d="M26.8154 39.5015H38.0853" stroke="white" stroke-width="1.40874" stroke-linecap="round" stroke-linejoin="round"/>
<path d="M31.0418 34.3318V35.9801C31.0418 36.3675 30.7108 36.6703 30.3586 36.8324C29.5274 37.2127 28.9287 38.2622 28.9287 39.5019" stroke="white" stroke-width="1.40874" stroke-linecap="round" stroke-linejoin="round"/>
<path d="M33.8594 34.3318V35.9801C33.8594 36.3675 34.1904 36.6703 34.5426 36.8324C35.3738 37.2127 35.9725 38.2622 35.9725 39.5019" stroke="white" stroke-width="1.40874" stroke-linecap="round" stroke-linejoin="round"/>
<path d="M36.6765 25.4141H28.2241V30.3447C28.2241 31.4655 28.6694 32.5405 29.4619 33.333C30.2545 34.1256 31.3295 34.5709 32.4503 34.5709C33.5712 34.5709 34.6461 34.1256 35.4387 33.333C36.2313 32.5405 36.6765 31.4655 36.6765 30.3447V25.4141Z" stroke="white" stroke-width="1.40874" stroke-linecap="round" stroke-linejoin="round"/>
</g>
</g>
</g>
<path d="M19.9055 61.1124V74.2033H17.1378V61.1124H19.9055ZM24.8546 68.5272V74.2033H22.1316V64.3851H24.7267V66.1174H24.8418C25.0591 65.5463 25.4235 65.0946 25.9348 64.7623C26.4462 64.4256 27.0662 64.2573 27.7949 64.2573C28.4767 64.2573 29.0712 64.4064 29.5783 64.7047C30.0854 65.003 30.4796 65.4292 30.7608 65.9831C31.0421 66.5329 31.1827 67.1891 31.1827 67.9519V74.2033H28.4597V68.4377C28.464 67.8368 28.3105 67.3681 27.9995 67.0314C27.6884 66.6905 27.2601 66.5201 26.7147 66.5201C26.3482 66.5201 26.0243 66.5989 25.7431 66.7566C25.4661 66.9142 25.2488 67.1444 25.0911 67.4469C24.9377 67.7452 24.8588 68.1053 24.8546 68.5272ZM42.1307 64.3851L38.6982 74.2033H35.63L32.1974 64.3851H35.0739L37.1129 71.41H37.2152L39.2479 64.3851H42.1307ZM47.6822 74.3951C46.6722 74.3951 45.8029 74.1905 45.0742 73.7814C44.3498 73.3681 43.7915 72.7843 43.3995 72.03C43.0075 71.2715 42.8114 70.3745 42.8114 69.339C42.8114 68.329 43.0075 67.4427 43.3995 66.6799C43.7915 65.9171 44.3434 65.3226 45.055 64.8965C45.771 64.4704 46.6104 64.2573 47.5735 64.2573C48.2212 64.2573 48.8242 64.3617 49.3825 64.5705C49.945 64.775 50.435 65.084 50.8526 65.4973C51.2745 65.9107 51.6026 66.4306 51.837 67.057C52.0714 67.6792 52.1886 68.4079 52.1886 69.2431V69.991H43.8981V68.3034H49.6254C49.6254 67.9114 49.5401 67.5641 49.3697 67.2615C49.1992 66.959 48.9627 66.7225 48.6602 66.552C48.3619 66.3773 48.0146 66.29 47.6183 66.29C47.2049 66.29 46.8384 66.3858 46.5188 66.5776C46.2035 66.7651 45.9563 67.0186 45.7773 67.3383C45.5984 67.6536 45.5067 68.0052 45.5025 68.3929V69.9973C45.5025 70.4831 45.592 70.9029 45.771 71.2566C45.9542 71.6103 46.212 71.883 46.5444 72.0748C46.8768 72.2665 47.271 72.3624 47.7269 72.3624C48.0295 72.3624 48.3065 72.3198 48.5579 72.2346C48.8093 72.1493 49.0245 72.0215 49.2035 71.851C49.3825 71.6806 49.5188 71.4718 49.6126 71.2246L52.131 71.3908C52.0032 71.9959 51.7411 72.5243 51.3448 72.976C50.9528 73.4235 50.4457 73.7729 49.8235 74.0243C49.2056 74.2715 48.4918 74.3951 47.6822 74.3951ZM56.6886 68.5272V74.2033H53.9656V64.3851H56.5607V66.1174H56.6758C56.8931 65.5463 57.2575 65.0946 57.7688 64.7623C58.2802 64.4256 58.9002 64.2573 59.6289 64.2573C60.3107 64.2573 60.9052 64.4064 61.4123 64.7047C61.9194 65.003 62.3136 65.4292 62.5948 65.9831C62.8761 66.5329 63.0167 67.1891 63.0167 67.9519V74.2033H60.2937V68.4377C60.2979 67.8368 60.1445 67.3681 59.8335 67.0314C59.5224 66.6905 59.0941 66.5201 58.5487 66.5201C58.1822 66.5201 57.8583 66.5989 57.5771 66.7566C57.3001 66.9142 57.0827 67.1444 56.9251 67.4469C56.7717 67.7452 56.6928 68.1053 56.6886 68.5272ZM70.3851 64.3851V66.4306H64.4725V64.3851H70.3851ZM65.8148 62.0329H68.5378V71.1863C68.5378 71.4377 68.5762 71.6337 68.6529 71.7743C68.7296 71.9107 68.8361 72.0066 68.9725 72.062C69.1131 72.1174 69.275 72.1451 69.4583 72.1451C69.5861 72.1451 69.714 72.1344 69.8418 72.1131C69.9696 72.0875 70.0676 72.0684 70.1358 72.0556L70.5641 74.0819C70.4277 74.1245 70.236 74.1735 69.9888 74.2289C69.7417 74.2885 69.4412 74.3248 69.0875 74.3375C68.4313 74.3631 67.856 74.2758 67.3617 74.0755C66.8716 73.8752 66.4902 73.5641 66.2175 73.1422C65.9448 72.7204 65.8105 72.1877 65.8148 71.5442V62.0329ZM76.4895 74.3951C75.4966 74.3951 74.638 74.1841 73.9135 73.7623C73.1934 73.3361 72.6373 72.7438 72.2452 71.9853C71.8532 71.2225 71.6571 70.3383 71.6571 69.3326C71.6571 68.3184 71.8532 67.432 72.2452 66.6735C72.6373 65.9107 73.1934 65.3184 73.9135 64.8965C74.638 64.4704 75.4966 64.2573 76.4895 64.2573C77.4824 64.2573 78.339 64.4704 79.0591 64.8965C79.7836 65.3184 80.3418 65.9107 80.7338 66.6735C81.1259 67.432 81.3219 68.3184 81.3219 69.3326C81.3219 70.3383 81.1259 71.2225 80.7338 71.9853C80.3418 72.7438 79.7836 73.3361 79.0591 73.7623C78.339 74.1841 77.4824 74.3951 76.4895 74.3951ZM76.5023 72.2857C76.954 72.2857 77.3311 72.1579 77.6337 71.9022C77.9363 71.6422 78.1642 71.2885 78.3176 70.8411C78.4753 70.3936 78.5542 69.8844 78.5542 69.3134C78.5542 68.7424 78.4753 68.2331 78.3176 67.7857C78.1642 67.3383 77.9363 66.9846 77.6337 66.7246C77.3311 66.4647 76.954 66.3347 76.5023 66.3347C76.0463 66.3347 75.6628 66.4647 75.3517 66.7246C75.0449 66.9846 74.8127 67.3383 74.655 67.7857C74.5016 68.2331 74.4249 68.7424 74.4249 69.3134C74.4249 69.8844 74.5016 70.3936 74.655 70.8411C74.8127 71.2885 75.0449 71.6422 75.3517 71.9022C75.6628 72.1579 76.0463 72.2857 76.5023 72.2857ZM83.0925 74.2033V64.3851H85.7324V66.0982H85.8347C86.0137 65.4888 86.3141 65.0286 86.736 64.7175C87.1578 64.4022 87.6436 64.2445 88.1934 64.2445C88.3297 64.2445 88.4767 64.253 88.6344 64.2701C88.7921 64.2871 88.9306 64.3106 89.0499 64.3404V66.7566C88.9221 66.7182 88.7452 66.6841 88.5194 66.6543C88.2935 66.6245 88.0868 66.6096 87.8993 66.6096C87.4988 66.6096 87.1408 66.6969 86.8255 66.8716C86.5144 67.0421 86.2672 67.2807 86.084 67.5875C85.905 67.8944 85.8155 68.2481 85.8155 68.6486V74.2033H83.0925ZM92.4377 77.8851C92.0925 77.8851 91.7686 77.8574 91.4661 77.802C91.1678 77.7509 90.9206 77.6848 90.7246 77.6039L91.3382 75.5712C91.6578 75.6692 91.9455 75.7225 92.2012 75.731C92.4611 75.7395 92.6848 75.6799 92.8723 75.552C93.0641 75.4242 93.2196 75.2069 93.339 74.9L93.4988 74.4846L89.9767 64.3851H92.8404L94.873 71.5954H94.9753L97.0272 64.3851H99.91L96.0939 75.2644C95.9107 75.7928 95.6614 76.253 95.3461 76.6451C95.035 77.0414 94.6408 77.3461 94.1635 77.5591C93.6863 77.7765 93.111 77.8851 92.4377 77.8851Z" fill="white"/>
<path d="M16.7173 85.4404L19.4446 93.1322H19.5213L22.2485 85.4404H23.0838L19.909 94.1677H19.0568L15.8821 85.4404H16.7173ZM24.4304 94.1677V87.6222H25.1931V94.1677H24.4304ZM24.8181 86.4972C24.6619 86.4972 24.5284 86.4447 24.4176 86.3395C24.3068 86.2316 24.2514 86.1023 24.2514 85.9518C24.2514 85.8012 24.3068 85.6733 24.4176 85.5682C24.5284 85.4603 24.6619 85.4063 24.8181 85.4063C24.9744 85.4063 25.1079 85.4603 25.2187 85.5682C25.3295 85.6733 25.3849 85.8012 25.3849 85.9518C25.3849 86.1023 25.3295 86.2316 25.2187 86.3395C25.1079 86.4447 24.9744 86.4972 24.8181 86.4972ZM29.8455 94.304C29.2347 94.304 28.7063 94.162 28.2603 93.8779C27.8142 93.591 27.4691 93.1947 27.2247 92.689C26.9833 92.1804 26.8625 91.5952 26.8625 90.9333C26.8625 90.2742 26.9833 89.689 27.2247 89.1776C27.4691 88.6634 27.8057 88.2614 28.2347 87.9716C28.6665 87.679 29.1651 87.5327 29.7304 87.5327C30.0855 87.5327 30.4279 87.5981 30.7574 87.7287C31.087 87.8566 31.3824 88.054 31.6438 88.3211C31.908 88.5853 32.1168 88.9191 32.2702 89.3225C32.4236 89.7231 32.5003 90.1975 32.5003 90.7458V91.1208H27.3867V90.4518H31.7247C31.7247 90.0313 31.6395 89.6535 31.4691 89.3182C31.3014 88.9802 31.0671 88.7131 30.7659 88.5171C30.4676 88.3211 30.1225 88.2231 29.7304 88.2231C29.3157 88.2231 28.9506 88.3339 28.6353 88.5554C28.3199 88.777 28.0728 89.0697 27.8938 89.4333C27.7176 89.7969 27.6282 90.1947 27.6253 90.6265V91.027C27.6253 91.5469 27.7148 92.0015 27.8938 92.3907C28.0756 92.777 28.3327 93.0768 28.6651 93.2898C28.9975 93.5029 29.3909 93.6094 29.8455 93.6094C30.1551 93.6094 30.4264 93.5611 30.6594 93.4645C30.8952 93.3679 31.0926 93.2387 31.2517 93.0768C31.4137 92.912 31.5358 92.7316 31.6182 92.5356L32.3384 92.7699C32.2389 93.0455 32.0756 93.2998 31.8483 93.5327C31.6239 93.7657 31.3426 93.9532 31.0046 94.0952C30.6693 94.2344 30.283 94.304 29.8455 94.304ZM35.625 94.1677L33.6477 87.6222H34.4488L36 93.0214H36.0554L37.6022 87.6222H38.4076L39.9417 93.0086H40.0014L41.5525 87.6222H42.3536L40.3764 94.1677H39.5923L38.0411 88.8026H37.9602L36.409 94.1677H35.625ZM44.1988 92.9745L44.1221 93.4304C44.0738 93.7373 44.0056 94.0753 43.9176 94.4447C43.8295 94.814 43.7386 95.1648 43.6448 95.4972C43.5511 95.8296 43.4701 96.0966 43.4019 96.2983H42.8181C42.8551 96.1052 42.9019 95.8594 42.9588 95.5611C43.0184 95.2628 43.0795 94.9319 43.142 94.5682C43.2045 94.2074 43.2613 93.8353 43.3125 93.4518L43.3721 92.9745H44.1988ZM49.582 94.1677V87.6222H50.3192V88.6279H50.3874C50.5181 88.2898 50.7354 88.0242 51.0394 87.831C51.3462 87.635 51.7141 87.537 52.1431 87.537C52.5948 87.537 52.9655 87.6435 53.2553 87.8566C53.5479 88.0668 53.7666 88.3566 53.9115 88.7259H53.9669C54.1147 88.3623 54.3547 88.0739 54.6871 87.8608C55.0223 87.6449 55.4286 87.537 55.9059 87.537C56.5138 87.537 56.9939 87.7287 57.3462 88.1123C57.6985 88.4929 57.8746 89.0498 57.8746 89.7827V94.1677H57.1161V89.7827C57.1161 89.2657 56.984 88.8779 56.7198 88.6194C56.4556 88.3608 56.1076 88.2316 55.6757 88.2316C55.1757 88.2316 54.7908 88.385 54.5209 88.6918C54.251 88.9986 54.1161 89.3878 54.1161 89.8594V94.1677H53.3405V89.7145C53.3405 89.2714 53.2169 88.9134 52.9698 88.6407C52.7226 88.3679 52.3746 88.2316 51.9257 88.2316C51.6246 88.2316 51.3533 88.3054 51.1118 88.4532C50.8732 88.6009 50.6843 88.8069 50.5451 89.0711C50.4087 89.3324 50.3405 89.6336 50.3405 89.9745V94.1677H49.582ZM61.7109 94.3168C61.316 94.3168 60.9552 94.2401 60.6285 94.0867C60.3018 93.9304 60.0419 93.706 59.8487 93.4134C59.6555 93.1179 59.5589 92.76 59.5589 92.3395C59.5589 92.0157 59.62 91.7429 59.7421 91.5214C59.8643 91.2998 60.0376 91.1179 60.262 90.9759C60.4865 90.8339 60.7521 90.7216 61.0589 90.6393C61.3657 90.5569 61.7038 90.4929 62.0731 90.4475C62.4396 90.402 62.7492 90.3623 63.0021 90.3282C63.2578 90.2941 63.4524 90.2401 63.5859 90.1662C63.7194 90.0924 63.7862 89.9731 63.7862 89.8083V89.6549C63.7862 89.2089 63.6527 88.858 63.3856 88.6023C63.1214 88.3438 62.7407 88.2145 62.2436 88.2145C61.772 88.2145 61.387 88.3182 61.0887 88.5256C60.7933 88.733 60.5859 88.9773 60.4666 89.2586L59.7464 88.9986C59.8941 88.6407 60.0987 88.3552 60.36 88.1421C60.6214 87.9262 60.914 87.7714 61.2379 87.6776C61.5617 87.581 61.8899 87.5327 62.2223 87.5327C62.4723 87.5327 62.7322 87.5654 63.0021 87.6307C63.2748 87.6961 63.5277 87.8097 63.7606 87.9716C63.9936 88.1307 64.1825 88.3537 64.3274 88.6407C64.4723 88.9248 64.5447 89.2856 64.5447 89.7231V94.1677H63.7862V93.1322H63.7393C63.6484 93.3253 63.5134 93.5128 63.3345 93.6947C63.1555 93.8765 62.9311 94.0256 62.6612 94.1421C62.3913 94.2586 62.0745 94.3168 61.7109 94.3168ZM61.8132 93.6222C62.2166 93.6222 62.566 93.5327 62.8615 93.3537C63.1569 93.1748 63.3842 92.9375 63.5433 92.6421C63.7052 92.3438 63.7862 92.0157 63.7862 91.6577V90.7117C63.7294 90.7657 63.6342 90.814 63.5007 90.8566C63.37 90.8992 63.218 90.9375 63.0447 90.9716C62.8742 91.0029 62.7038 91.0299 62.5333 91.0526C62.3629 91.0753 62.2095 91.0952 62.0731 91.1123C61.7038 91.1577 61.3884 91.2287 61.1271 91.3253C60.8657 91.4219 60.6654 91.5554 60.5262 91.7259C60.387 91.8935 60.3174 92.1094 60.3174 92.3736C60.3174 92.7714 60.4595 93.0796 60.7436 93.2983C61.0277 93.5143 61.3842 93.6222 61.8132 93.6222ZM67.321 90.0768V94.1677H66.5625V87.6222H67.2997V88.6492H67.3679C67.5213 88.314 67.7599 88.0455 68.0838 87.8438C68.4105 87.6393 68.8139 87.537 69.294 87.537C69.7343 87.537 70.1207 87.6293 70.4531 87.814C70.7883 87.9958 71.0483 88.2643 71.2329 88.6194C71.4204 88.9745 71.5142 89.4106 71.5142 89.9276V94.1677H70.7556V89.9745C70.7556 89.4375 70.6051 89.0128 70.3039 88.7003C70.0056 88.3878 69.6051 88.2316 69.1022 88.2316C68.7585 88.2316 68.4531 88.3054 68.186 88.4532C67.919 88.6009 67.7073 88.814 67.5511 89.0924C67.3977 89.3679 67.321 89.6961 67.321 90.0768ZM75.3398 94.3168C74.9449 94.3168 74.5841 94.2401 74.2574 94.0867C73.9307 93.9304 73.6708 93.706 73.4776 93.4134C73.2844 93.1179 73.1878 92.76 73.1878 92.3395C73.1878 92.0157 73.2489 91.7429 73.371 91.5214C73.4932 91.2998 73.6665 91.1179 73.8909 90.9759C74.1154 90.8339 74.381 90.7216 74.6878 90.6393C74.9946 90.5569 75.3327 90.4929 75.702 90.4475C76.0685 90.402 76.3782 90.3623 76.631 90.3282C76.8867 90.2941 77.0813 90.2401 77.2148 90.1662C77.3483 90.0924 77.4151 89.9731 77.4151 89.8083V89.6549C77.4151 89.2089 77.2816 88.858 77.0145 88.6023C76.7503 88.3438 76.3696 88.2145 75.8725 88.2145C75.4009 88.2145 75.0159 88.3182 74.7176 88.5256C74.4222 88.733 74.2148 88.9773 74.0955 89.2586L73.3753 88.9986C73.523 88.6407 73.7276 88.3552 73.9889 88.1421C74.2503 87.9262 74.5429 87.7714 74.8668 87.6776C75.1907 87.581 75.5188 87.5327 75.8512 87.5327C76.1012 87.5327 76.3611 87.5654 76.631 87.6307C76.9037 87.6961 77.1566 87.8097 77.3895 87.9716C77.6225 88.1307 77.8114 88.3537 77.9563 88.6407C78.1012 88.9248 78.1736 89.2856 78.1736 89.7231V94.1677H77.4151V93.1322H77.3682C77.2773 93.3253 77.1424 93.5128 76.9634 93.6947C76.7844 93.8765 76.56 94.0256 76.2901 94.1421C76.0202 94.2586 75.7034 94.3168 75.3398 94.3168ZM75.4421 93.6222C75.8455 93.6222 76.1949 93.5327 76.4904 93.3537C76.7858 93.1748 77.0131 92.9375 77.1722 92.6421C77.3341 92.3438 77.4151 92.0157 77.4151 91.6577V90.7117C77.3583 90.7657 77.2631 90.814 77.1296 90.8566C76.9989 90.8992 76.8469 90.9375 76.6736 90.9716C76.5032 91.0029 76.3327 91.0299 76.1622 91.0526C75.9918 91.0753 75.8384 91.0952 75.702 91.1123C75.3327 91.1577 75.0174 91.2287 74.756 91.3253C74.4946 91.4219 74.2943 91.5554 74.1551 91.7259C74.0159 91.8935 73.9463 92.1094 73.9463 92.3736C73.9463 92.7714 74.0884 93.0796 74.3725 93.2983C74.6566 93.5143 75.0131 93.6222 75.4421 93.6222ZM82.6885 96.7586C82.2425 96.7586 81.8519 96.7003 81.5166 96.5839C81.1814 96.4702 80.8987 96.314 80.6686 96.1151C80.4385 95.9162 80.2595 95.6932 80.1317 95.4461L80.7539 95.037C80.8476 95.2018 80.9726 95.3637 81.1289 95.5228C81.288 95.6819 81.4939 95.814 81.7468 95.9191C82.0024 96.0242 82.3164 96.0768 82.6885 96.0768C83.2681 96.0768 83.7354 95.9319 84.0905 95.6421C84.4485 95.3523 84.6274 94.902 84.6274 94.2912V92.8168H84.5593C84.4712 93.0157 84.3448 93.2145 84.18 93.4134C84.0152 93.6094 83.7993 93.7728 83.5323 93.9035C83.2681 94.0341 82.9399 94.0995 82.5479 94.0995C82.0252 94.0995 81.5607 93.9702 81.1544 93.7117C80.751 93.4532 80.4328 93.0839 80.1999 92.6037C79.9698 92.1208 79.8547 91.5455 79.8547 90.8779C79.8547 90.216 79.9669 89.6336 80.1914 89.1307C80.4186 88.6279 80.7354 88.2358 81.1416 87.9546C81.5479 87.6733 82.0209 87.5327 82.5607 87.5327C82.9612 87.5327 83.2936 87.6037 83.5578 87.7458C83.822 87.885 84.0337 88.0583 84.1928 88.2657C84.3547 88.4731 84.4811 88.6748 84.572 88.8708H84.6487V87.6222H85.3902V94.3381C85.3902 94.8921 85.2723 95.3481 85.0365 95.706C84.8007 96.064 84.4797 96.3282 84.0735 96.4986C83.6672 96.6719 83.2056 96.7586 82.6885 96.7586ZM82.6374 93.4049C83.0578 93.4049 83.4172 93.304 83.7155 93.1023C84.0138 92.8978 84.2425 92.6052 84.4016 92.2245C84.5607 91.8438 84.6402 91.3907 84.6402 90.8651C84.6402 90.3537 84.5621 89.9006 84.4059 89.5057C84.2496 89.108 84.0223 88.7955 83.724 88.5682C83.4286 88.3381 83.0664 88.2231 82.6374 88.2231C82.1999 88.2231 81.8306 88.341 81.5294 88.5768C81.2283 88.8125 81.001 89.1307 80.8476 89.5313C80.6942 89.929 80.6175 90.3736 80.6175 90.8651C80.6175 91.3651 80.6956 91.8069 80.8519 92.1904C81.0081 92.5711 81.2368 92.8694 81.538 93.0853C81.8391 93.2983 82.2056 93.4049 82.6374 93.4049ZM90.0447 94.304C89.4339 94.304 88.9055 94.162 88.4595 93.8779C88.0134 93.591 87.6683 93.1947 87.424 92.689C87.1825 92.1804 87.0617 91.5952 87.0617 90.9333C87.0617 90.2742 87.1825 89.689 87.424 89.1776C87.6683 88.6634 88.0049 88.2614 88.4339 87.9716C88.8657 87.679 89.3643 87.5327 89.9296 87.5327C90.2848 87.5327 90.6271 87.5981 90.9566 87.7287C91.2862 87.8566 91.5816 88.054 91.843 88.3211C92.1072 88.5853 92.316 88.9191 92.4694 89.3225C92.6228 89.7231 92.6995 90.1975 92.6995 90.7458V91.1208H87.5859V90.4518H91.924C91.924 90.0313 91.8387 89.6535 91.6683 89.3182C91.5007 88.9802 91.2663 88.7131 90.9652 88.5171C90.6669 88.3211 90.3217 88.2231 89.9296 88.2231C89.5149 88.2231 89.1498 88.3339 88.8345 88.5554C88.5191 88.777 88.272 89.0697 88.093 89.4333C87.9169 89.7969 87.8274 90.1947 87.8245 90.6265V91.027C87.8245 91.5469 87.914 92.0015 88.093 92.3907C88.2748 92.777 88.5319 93.0768 88.8643 93.2898C89.1967 93.5029 89.5902 93.6094 90.0447 93.6094C90.3544 93.6094 90.6257 93.5611 90.8586 93.4645C91.0944 93.3679 91.2919 93.2387 91.451 93.0768C91.6129 92.912 91.735 92.7316 91.8174 92.5356L92.5376 92.7699C92.4382 93.0455 92.2748 93.2998 92.0475 93.5327C91.8231 93.7657 91.5419 93.9532 91.2038 94.0952C90.8686 94.2344 90.4822 94.304 90.0447 94.304ZM95.6324 92.9745L95.5557 93.4304C95.5074 93.7373 95.4392 94.0753 95.3512 94.4447C95.2631 94.814 95.1722 95.1648 95.0784 95.4972C94.9847 95.8296 94.9037 96.0966 94.8355 96.2983H94.2517C94.2887 96.1052 94.3355 95.8594 94.3924 95.5611C94.452 95.2628 94.5131 94.9319 94.5756 94.5682C94.6381 94.2074 94.6949 93.8353 94.746 93.4518L94.8057 92.9745H95.6324ZM102.844 94.3168C102.449 94.3168 102.088 94.2401 101.761 94.0867C101.435 93.9304 101.175 93.706 100.981 93.4134C100.788 93.1179 100.692 92.76 100.692 92.3395C100.692 92.0157 100.753 91.7429 100.875 91.5214C100.997 91.2998 101.17 91.1179 101.395 90.9759C101.619 90.8339 101.885 90.7216 102.192 90.6393C102.499 90.5569 102.837 90.4929 103.206 90.4475C103.572 90.402 103.882 90.3623 104.135 90.3282C104.391 90.2941 104.585 90.2401 104.719 90.1662C104.852 90.0924 104.919 89.9731 104.919 89.8083V89.6549C104.919 89.2089 104.785 88.858 104.518 88.6023C104.254 88.3438 103.874 88.2145 103.376 88.2145C102.905 88.2145 102.52 88.3182 102.222 88.5256C101.926 88.733 101.719 88.9773 101.599 89.2586L100.879 88.9986C101.027 88.6407 101.231 88.3552 101.493 88.1421C101.754 87.9262 102.047 87.7714 102.371 87.6776C102.695 87.581 103.023 87.5327 103.355 87.5327C103.605 87.5327 103.865 87.5654 104.135 87.6307C104.408 87.6961 104.66 87.8097 104.893 87.9716C105.126 88.1307 105.315 88.3537 105.46 88.6407C105.605 88.9248 105.678 89.2856 105.678 89.7231V94.1677H104.919V93.1322H104.872C104.781 93.3253 104.646 93.5128 104.467 93.6947C104.288 93.8765 104.064 94.0256 103.794 94.1421C103.524 94.2586 103.207 94.3168 102.844 94.3168ZM102.946 93.6222C103.349 93.6222 103.699 93.5327 103.994 93.3537C104.29 93.1748 104.517 92.9375 104.676 92.6421C104.838 92.3438 104.919 92.0157 104.919 91.6577V90.7117C104.862 90.7657 104.767 90.814 104.633 90.8566C104.503 90.8992 104.351 90.9375 104.178 90.9716C104.007 91.0029 103.837 91.0299 103.666 91.0526C103.496 91.0753 103.342 91.0952 103.206 91.1123C102.837 91.1577 102.521 91.2287 102.26 91.3253C101.999 91.4219 101.798 91.5554 101.659 91.7259C101.52 91.8935 101.45 92.1094 101.45 92.3736C101.45 92.7714 101.592 93.0796 101.876 93.2983C102.16 93.5143 102.517 93.6222 102.946 93.6222ZM108.454 90.0768V94.1677H107.695V87.6222H108.432V88.6492H108.501C108.654 88.314 108.893 88.0455 109.217 87.8438C109.543 87.6393 109.947 87.537 110.427 87.537C110.867 87.537 111.254 87.6293 111.586 87.814C111.921 87.9958 112.181 88.2643 112.366 88.6194C112.553 88.9745 112.647 89.4106 112.647 89.9276V94.1677H111.888V89.9745C111.888 89.4375 111.738 89.0128 111.437 88.7003C111.138 88.3878 110.738 88.2316 110.235 88.2316C109.891 88.2316 109.586 88.3054 109.319 88.4532C109.052 88.6009 108.84 88.814 108.684 89.0924C108.53 89.3679 108.454 89.6961 108.454 90.0768ZM117.001 94.304C116.464 94.304 115.994 94.162 115.591 93.8779C115.187 93.5938 114.872 93.1975 114.644 92.689C114.42 92.1804 114.308 91.5881 114.308 90.912C114.308 90.2387 114.42 89.6492 114.644 89.1435C114.872 88.635 115.189 88.2401 115.595 87.9589C116.001 87.6748 116.474 87.5327 117.014 87.5327C117.412 87.5327 117.742 87.6037 118.007 87.7458C118.271 87.885 118.483 88.0583 118.642 88.2657C118.801 88.4731 118.924 88.6748 119.012 88.8708H119.081V85.4404H119.843V94.1677H119.102V92.9532H119.012C118.924 93.152 118.799 93.3566 118.637 93.5668C118.475 93.7742 118.261 93.9489 117.994 94.091C117.73 94.233 117.399 94.304 117.001 94.304ZM117.091 93.6094C117.514 93.6094 117.875 93.4944 118.173 93.2643C118.471 93.0313 118.698 92.7117 118.855 92.3054C119.014 91.8964 119.093 91.4276 119.093 90.8992C119.093 90.3765 119.015 89.9148 118.859 89.5143C118.703 89.1108 118.475 88.7955 118.177 88.5682C117.879 88.3381 117.517 88.2231 117.091 88.2231C116.653 88.2231 116.284 88.3424 115.983 88.581C115.684 88.8168 115.457 89.1364 115.301 89.5398C115.147 89.9432 115.071 90.3964 115.071 90.8992C115.071 91.4077 115.149 91.8665 115.305 92.2756C115.461 92.6847 115.689 93.01 115.987 93.2515C116.288 93.4901 116.656 93.6094 117.091 93.6094ZM127.923 94.304C127.358 94.304 126.858 94.1606 126.423 93.8736C125.991 93.5867 125.653 93.1904 125.409 92.6847C125.164 92.1762 125.042 91.5895 125.042 90.9248C125.042 90.2543 125.164 89.6648 125.409 89.1563C125.653 88.6449 125.991 88.2472 126.423 87.9631C126.858 87.6762 127.358 87.5327 127.923 87.5327C128.488 87.5327 128.987 87.6762 129.419 87.9631C129.85 88.25 130.189 88.6478 130.433 89.1563C130.68 89.6648 130.804 90.2543 130.804 90.9248C130.804 91.5895 130.681 92.1762 130.437 92.6847C130.193 93.1904 129.853 93.5867 129.419 93.8736C128.987 94.1606 128.488 94.304 127.923 94.304ZM127.923 93.6094C128.377 93.6094 128.762 93.4873 129.078 93.2429C129.393 92.9986 129.632 92.6733 129.794 92.2671C129.958 91.8608 130.041 91.4134 130.041 90.9248C130.041 90.4361 129.958 89.9873 129.794 89.5782C129.632 89.1691 129.393 88.841 129.078 88.5938C128.762 88.3466 128.377 88.2231 127.923 88.2231C127.471 88.2231 127.086 88.3466 126.768 88.5938C126.453 88.841 126.213 89.1691 126.048 89.5782C125.886 89.9873 125.805 90.4361 125.805 90.9248C125.805 91.4134 125.886 91.8608 126.048 92.2671C126.213 92.6733 126.453 92.9986 126.768 93.2429C127.083 93.4873 127.468 93.6094 127.923 93.6094ZM132.469 94.1677V87.6222H133.206V88.6279H133.261C133.392 88.2983 133.619 88.0327 133.943 87.831C134.27 87.6265 134.639 87.5242 135.051 87.5242C135.114 87.5242 135.183 87.5256 135.26 87.5285C135.337 87.5313 135.401 87.5341 135.452 87.537V88.3083C135.418 88.3026 135.358 88.2941 135.273 88.2827C135.187 88.2714 135.095 88.2657 134.996 88.2657C134.655 88.2657 134.351 88.3381 134.084 88.483C133.82 88.625 133.611 88.8225 133.457 89.0753C133.304 89.3282 133.227 89.6165 133.227 89.9404V94.1677H132.469ZM139.044 96.7586C138.598 96.7586 138.207 96.7003 137.872 96.5839C137.537 96.4702 137.254 96.314 137.024 96.1151C136.794 95.9162 136.615 95.6932 136.487 95.4461L137.109 95.037C137.203 95.2018 137.328 95.3637 137.484 95.5228C137.643 95.6819 137.849 95.814 138.102 95.9191C138.358 96.0242 138.672 96.0768 139.044 96.0768C139.624 96.0768 140.091 95.9319 140.446 95.6421C140.804 95.3523 140.983 94.902 140.983 94.2912V92.8168H140.915C140.827 93.0157 140.7 93.2145 140.535 93.4134C140.371 93.6094 140.155 93.7728 139.888 93.9035C139.624 94.0341 139.295 94.0995 138.903 94.0995C138.381 94.0995 137.916 93.9702 137.51 93.7117C137.106 93.4532 136.788 93.0839 136.555 92.6037C136.325 92.1208 136.21 91.5455 136.21 90.8779C136.21 90.216 136.322 89.6336 136.547 89.1307C136.774 88.6279 137.091 88.2358 137.497 87.9546C137.903 87.6733 138.376 87.5327 138.916 87.5327C139.317 87.5327 139.649 87.6037 139.913 87.7458C140.178 87.885 140.389 88.0583 140.548 88.2657C140.71 88.4731 140.837 88.6748 140.928 88.8708H141.004V87.6222H141.746V94.3381C141.746 94.8921 141.628 95.3481 141.392 95.706C141.156 96.064 140.835 96.3282 140.429 96.4986C140.023 96.6719 139.561 96.7586 139.044 96.7586ZM138.993 93.4049C139.413 93.4049 139.773 93.304 140.071 93.1023C140.369 92.8978 140.598 92.6052 140.757 92.2245C140.916 91.8438 140.996 91.3907 140.996 90.8651C140.996 90.3537 140.918 89.9006 140.761 89.5057C140.605 89.108 140.378 88.7955 140.08 88.5682C139.784 88.3381 139.422 88.2231 138.993 88.2231C138.555 88.2231 138.186 88.341 137.885 88.5768C137.584 88.8125 137.356 89.1307 137.203 89.5313C137.05 89.929 136.973 90.3736 136.973 90.8651C136.973 91.3651 137.051 91.8069 137.207 92.1904C137.364 92.5711 137.592 92.8694 137.893 93.0853C138.195 93.2983 138.561 93.4049 138.993 93.4049ZM145.582 94.3168C145.187 94.3168 144.826 94.2401 144.5 94.0867C144.173 93.9304 143.913 93.706 143.72 93.4134C143.527 93.1179 143.43 92.76 143.43 92.3395C143.43 92.0157 143.491 91.7429 143.613 91.5214C143.735 91.2998 143.909 91.1179 144.133 90.9759C144.358 90.8339 144.623 90.7216 144.93 90.6393C145.237 90.5569 145.575 90.4929 145.944 90.4475C146.311 90.402 146.62 90.3623 146.873 90.3282C147.129 90.2941 147.323 90.2401 147.457 90.1662C147.591 90.0924 147.657 89.9731 147.657 89.8083V89.6549C147.657 89.2089 147.524 88.858 147.257 88.6023C146.992 88.3438 146.612 88.2145 146.115 88.2145C145.643 88.2145 145.258 88.3182 144.96 88.5256C144.664 88.733 144.457 88.9773 144.338 89.2586L143.617 88.9986C143.765 88.6407 143.97 88.3552 144.231 88.1421C144.492 87.9262 144.785 87.7714 145.109 87.6776C145.433 87.581 145.761 87.5327 146.093 87.5327C146.343 87.5327 146.603 87.5654 146.873 87.6307C147.146 87.6961 147.399 87.8097 147.632 87.9716C147.865 88.1307 148.054 88.3537 148.198 88.6407C148.343 88.9248 148.416 89.2856 148.416 89.7231V94.1677H147.657V93.1322H147.61C147.519 93.3253 147.385 93.5128 147.206 93.6947C147.027 93.8765 146.802 94.0256 146.532 94.1421C146.262 94.2586 145.946 94.3168 145.582 94.3168ZM145.684 93.6222C146.088 93.6222 146.437 93.5327 146.733 93.3537C147.028 93.1748 147.255 92.9375 147.414 92.6421C147.576 92.3438 147.657 92.0157 147.657 91.6577V90.7117C147.6 90.7657 147.505 90.814 147.372 90.8566C147.241 90.8992 147.089 90.9375 146.916 90.9716C146.745 91.0029 146.575 91.0299 146.404 91.0526C146.234 91.0753 146.081 91.0952 145.944 91.1123C145.575 91.1577 145.26 91.2287 144.998 91.3253C144.737 91.4219 144.537 91.5554 144.397 91.7259C144.258 91.8935 144.189 92.1094 144.189 92.3736C144.189 92.7714 144.331 93.0796 144.615 93.2983C144.899 93.5143 145.255 93.6222 145.684 93.6222ZM151.192 90.0768V94.1677H150.434V87.6222H151.171V88.6492H151.239C151.392 88.314 151.631 88.0455 151.955 87.8438C152.282 87.6393 152.685 87.537 153.165 87.537C153.605 87.537 153.992 87.6293 154.324 87.814C154.659 87.9958 154.919 88.2643 155.104 88.6194C155.292 88.9745 155.385 89.4106 155.385 89.9276V94.1677H154.627V89.9745C154.627 89.4375 154.476 89.0128 154.175 88.7003C153.877 88.3878 153.476 88.2316 152.973 88.2316C152.63 88.2316 152.324 88.3054 152.057 88.4532C151.79 88.6009 151.578 88.814 151.422 89.0924C151.269 89.3679 151.192 89.6961 151.192 90.0768ZM157.391 94.1677V87.6222H158.154V94.1677H157.391ZM157.779 86.4972C157.623 86.4972 157.489 86.4447 157.379 86.3395C157.268 86.2316 157.212 86.1023 157.212 85.9518C157.212 85.8012 157.268 85.6733 157.379 85.5682C157.489 85.4603 157.623 85.4063 157.779 85.4063C157.935 85.4063 158.069 85.4603 158.18 85.5682C158.29 85.6733 158.346 85.8012 158.346 85.9518C158.346 86.1023 158.29 86.2316 158.18 86.3395C158.069 86.4447 157.935 86.4972 157.779 86.4972ZM159.956 94.1677V93.5668L163.74 88.3935V88.3381H160.117V87.6222H164.716V88.2486L161 93.3964V93.4518H164.852V94.1677H159.956ZM168.982 94.304C168.371 94.304 167.843 94.162 167.397 93.8779C166.951 93.591 166.606 93.1947 166.361 92.689C166.12 92.1804 165.999 91.5952 165.999 90.9333C165.999 90.2742 166.12 89.689 166.361 89.1776C166.606 88.6634 166.942 88.2614 167.371 87.9716C167.803 87.679 168.302 87.5327 168.867 87.5327C169.222 87.5327 169.565 87.5981 169.894 87.7287C170.224 87.8566 170.519 88.054 170.78 88.3211C171.045 88.5853 171.254 88.9191 171.407 89.3225C171.56 89.7231 171.637 90.1975 171.637 90.7458V91.1208H166.523V90.4518H170.861C170.861 90.0313 170.776 89.6535 170.606 89.3182C170.438 88.9802 170.204 88.7131 169.903 88.5171C169.604 88.3211 169.259 88.2231 168.867 88.2231C168.452 88.2231 168.087 88.3339 167.772 88.5554C167.457 88.777 167.209 89.0697 167.03 89.4333C166.854 89.7969 166.765 90.1947 166.762 90.6265V91.027C166.762 91.5469 166.852 92.0015 167.03 92.3907C167.212 92.777 167.469 93.0768 167.802 93.2898C168.134 93.5029 168.528 93.6094 168.982 93.6094C169.292 93.6094 169.563 93.5611 169.796 93.4645C170.032 93.3679 170.229 93.2387 170.388 93.0768C170.55 92.912 170.673 92.7316 170.755 92.5356L171.475 92.7699C171.376 93.0455 171.212 93.2998 170.985 93.5327C170.761 93.7657 170.479 93.9532 170.141 94.0952C169.806 94.2344 169.42 94.304 168.982 94.304ZM179.262 87.6222V88.2827H176.138V87.6222H179.262ZM177.114 86.054H177.877V92.4589C177.877 92.7316 177.924 92.9461 178.017 93.1023C178.111 93.2557 178.233 93.3651 178.384 93.4304C178.534 93.4929 178.695 93.5242 178.865 93.5242C178.965 93.5242 179.05 93.5185 179.121 93.5072C179.192 93.4929 179.255 93.4787 179.309 93.4645L179.47 94.1506C179.397 94.179 179.306 94.2046 179.198 94.2273C179.09 94.2529 178.956 94.2657 178.797 94.2657C178.519 94.2657 178.25 94.2046 177.992 94.0824C177.736 93.9603 177.526 93.7785 177.361 93.537C177.196 93.2955 177.114 92.9958 177.114 92.6378V86.054ZM181.883 90.0768V94.1677H181.125V85.4404H181.883V88.6492H181.952C182.105 88.3111 182.342 88.0412 182.663 87.8395C182.987 87.6378 183.396 87.537 183.891 87.537C184.334 87.537 184.723 87.6279 185.058 87.8097C185.393 87.9915 185.655 88.26 185.842 88.6151C186.03 88.9702 186.124 89.4077 186.124 89.9276V94.1677H185.361V89.9745C185.361 89.4347 185.21 89.01 184.909 88.7003C184.611 88.3878 184.207 88.2316 183.699 88.2316C183.349 88.2316 183.038 88.3054 182.766 88.4532C182.493 88.6009 182.277 88.814 182.118 89.0924C181.962 89.3679 181.883 89.6961 181.883 90.0768ZM190.767 94.304C190.157 94.304 189.628 94.162 189.182 93.8779C188.736 93.591 188.391 93.1947 188.147 92.689C187.905 92.1804 187.784 91.5952 187.784 90.9333C187.784 90.2742 187.905 89.689 188.147 89.1776C188.391 88.6634 188.728 88.2614 189.157 87.9716C189.588 87.679 190.087 87.5327 190.652 87.5327C191.007 87.5327 191.35 87.5981 191.679 87.7287C192.009 87.8566 192.304 88.054 192.566 88.3211C192.83 88.5853 193.039 88.9191 193.192 89.3225C193.345 89.7231 193.422 90.1975 193.422 90.7458V91.1208H188.309V90.4518H192.647C192.647 90.0313 192.561 89.6535 192.391 89.3182C192.223 88.9802 191.989 88.7131 191.688 88.5171C191.39 88.3211 191.044 88.2231 190.652 88.2231C190.238 88.2231 189.872 88.3339 189.557 88.5554C189.242 88.777 188.995 89.0697 188.816 89.4333C188.64 89.7969 188.55 90.1947 188.547 90.6265V91.027C188.547 91.5469 188.637 92.0015 188.816 92.3907C188.997 92.777 189.255 93.0768 189.587 93.2898C189.919 93.5029 190.313 93.6094 190.767 93.6094C191.077 93.6094 191.348 93.5611 191.581 93.4645C191.817 93.3679 192.015 93.2387 192.174 93.0768C192.336 92.912 192.458 92.7316 192.54 92.5356L193.26 92.7699C193.161 93.0455 192.997 93.2998 192.77 93.5327C192.546 93.7657 192.265 93.9532 191.926 94.0952C191.591 94.2344 191.205 94.304 190.767 94.304ZM201.026 94.304C200.44 94.304 199.93 94.1577 199.496 93.8651C199.064 93.5725 198.729 93.1719 198.49 92.6634C198.251 92.1549 198.132 91.5753 198.132 90.9248C198.132 90.2685 198.253 89.6847 198.494 89.1733C198.739 88.662 199.077 88.2614 199.508 87.9716C199.94 87.679 200.442 87.5327 201.013 87.5327C201.45 87.5327 201.847 87.6179 202.202 87.7884C202.557 87.956 202.849 88.1932 203.08 88.5C203.312 88.804 203.459 89.1591 203.518 89.5654H202.751C202.672 89.1961 202.48 88.8807 202.176 88.6194C201.875 88.3552 201.491 88.2231 201.026 88.2231C200.608 88.2231 200.239 88.3367 199.918 88.564C199.597 88.7884 199.345 89.1023 199.163 89.5057C198.984 89.9063 198.895 90.3708 198.895 90.8992C198.895 91.4304 198.983 91.9006 199.159 92.3097C199.335 92.716 199.582 93.0341 199.901 93.2643C200.222 93.4944 200.597 93.6094 201.026 93.6094C201.315 93.6094 201.58 93.5554 201.818 93.4475C202.06 93.3367 202.261 93.1804 202.423 92.9787C202.588 92.777 202.699 92.537 202.756 92.2586H203.523C203.466 92.6535 203.325 93.0057 203.101 93.3154C202.879 93.6222 202.591 93.8637 202.236 94.0398C201.883 94.216 201.48 94.304 201.026 94.304ZM206.977 94.3168C206.582 94.3168 206.221 94.2401 205.894 94.0867C205.567 93.9304 205.307 93.706 205.114 93.4134C204.921 93.1179 204.825 92.76 204.825 92.3395C204.825 92.0157 204.886 91.7429 205.008 91.5214C205.13 91.2998 205.303 91.1179 205.528 90.9759C205.752 90.8339 206.018 90.7216 206.325 90.6393C206.631 90.5569 206.969 90.4929 207.339 90.4475C207.705 90.402 208.015 90.3623 208.268 90.3282C208.523 90.2941 208.718 90.2401 208.852 90.1662C208.985 90.0924 209.052 89.9731 209.052 89.8083V89.6549C209.052 89.2089 208.918 88.858 208.651 88.6023C208.387 88.3438 208.006 88.2145 207.509 88.2145C207.038 88.2145 206.653 88.3182 206.354 88.5256C206.059 88.733 205.852 88.9773 205.732 89.2586L205.012 88.9986C205.16 88.6407 205.364 88.3552 205.626 88.1421C205.887 87.9262 206.18 87.7714 206.504 87.6776C206.827 87.581 207.155 87.5327 207.488 87.5327C207.738 87.5327 207.998 87.5654 208.268 87.6307C208.54 87.6961 208.793 87.8097 209.026 87.9716C209.259 88.1307 209.448 88.3537 209.593 88.6407C209.738 88.9248 209.81 89.2856 209.81 89.7231V94.1677H209.052V93.1322H209.005C208.914 93.3253 208.779 93.5128 208.6 93.6947C208.421 93.8765 208.197 94.0256 207.927 94.1421C207.657 94.2586 207.34 94.3168 206.977 94.3168ZM207.079 93.6222C207.482 93.6222 207.832 93.5327 208.127 93.3537C208.423 93.1748 208.65 92.9375 208.809 92.6421C208.971 92.3438 209.052 92.0157 209.052 91.6577V90.7117C208.995 90.7657 208.9 90.814 208.766 90.8566C208.636 90.8992 208.484 90.9375 208.31 90.9716C208.14 91.0029 207.969 91.0299 207.799 91.0526C207.629 91.0753 207.475 91.0952 207.339 91.1123C206.969 91.1577 206.654 91.2287 206.393 91.3253C206.131 91.4219 205.931 91.5554 205.792 91.7259C205.653 91.8935 205.583 92.1094 205.583 92.3736C205.583 92.7714 205.725 93.0796 206.009 93.2983C206.293 93.5143 206.65 93.6222 207.079 93.6222ZM211.828 94.1677V87.6222H212.565V88.6279H212.621C212.751 88.2983 212.979 88.0327 213.303 87.831C213.629 87.6265 213.999 87.5242 214.41 87.5242C214.473 87.5242 214.543 87.5256 214.619 87.5285C214.696 87.5313 214.76 87.5341 214.811 87.537V88.3083C214.777 88.3026 214.717 88.2941 214.632 88.2827C214.547 88.2714 214.455 88.2657 214.355 88.2657C214.014 88.2657 213.71 88.3381 213.443 88.483C213.179 88.625 212.97 88.8225 212.817 89.0753C212.663 89.3282 212.587 89.6165 212.587 89.9404V94.1677H211.828ZM218.263 94.304C217.726 94.304 217.256 94.162 216.852 93.8779C216.449 93.5938 216.133 93.1975 215.906 92.689C215.682 92.1804 215.57 91.5881 215.57 90.912C215.57 90.2387 215.682 89.6492 215.906 89.1435C216.133 88.635 216.45 88.2401 216.856 87.9589C217.263 87.6748 217.736 87.5327 218.276 87.5327C218.673 87.5327 219.004 87.6037 219.268 87.7458C219.533 87.885 219.744 88.0583 219.903 88.2657C220.062 88.4731 220.186 88.6748 220.274 88.8708H220.342V85.4404H221.105V94.1677H220.364V92.9532H220.274C220.186 93.152 220.061 93.3566 219.899 93.5668C219.737 93.7742 219.523 93.9489 219.256 94.091C218.991 94.233 218.66 94.304 218.263 94.304ZM218.352 93.6094C218.776 93.6094 219.136 93.4944 219.435 93.2643C219.733 93.0313 219.96 92.7117 220.116 92.3054C220.276 91.8964 220.355 91.4276 220.355 90.8992C220.355 90.3765 220.277 89.9148 220.121 89.5143C219.964 89.1108 219.737 88.7955 219.439 88.5682C219.141 88.3381 218.778 88.2231 218.352 88.2231C217.915 88.2231 217.545 88.3424 217.244 88.581C216.946 88.8168 216.719 89.1364 216.562 89.5398C216.409 89.9432 216.332 90.3964 216.332 90.8992C216.332 91.4077 216.41 91.8665 216.567 92.2756C216.723 92.6847 216.95 93.01 217.249 93.2515C217.55 93.4901 217.918 93.6094 218.352 93.6094ZM227.663 89.0583L226.969 89.2543C226.901 89.0583 226.804 88.8807 226.679 88.7216C226.554 88.5625 226.391 88.4361 226.189 88.3424C225.99 88.2486 225.743 88.2018 225.447 88.2018C225.004 88.2018 224.641 88.3069 224.356 88.5171C224.072 88.7273 223.93 88.9986 223.93 89.331C223.93 89.6123 224.027 89.841 224.22 90.0171C224.416 90.1904 224.717 90.3282 225.124 90.4304L226.112 90.6733C226.66 90.8069 227.071 91.0185 227.344 91.3083C227.619 91.5981 227.757 91.9617 227.757 92.3992C227.757 92.7685 227.655 93.0966 227.45 93.3836C227.246 93.6705 226.96 93.8964 226.594 94.0611C226.23 94.2231 225.808 94.304 225.328 94.304C224.689 94.304 224.162 94.1606 223.747 93.8736C223.332 93.5839 223.067 93.1662 222.95 92.6208L223.679 92.4418C223.773 92.831 223.956 93.125 224.229 93.3239C224.504 93.5228 224.866 93.6222 225.315 93.6222C225.818 93.6222 226.22 93.51 226.521 93.2856C226.822 93.0583 226.973 92.7742 226.973 92.4333C226.973 92.1691 226.885 91.9475 226.709 91.7685C226.533 91.5867 226.266 91.4532 225.908 91.3679L224.838 91.1123C224.27 90.9759 223.849 90.76 223.577 90.4645C223.304 90.1691 223.168 89.8026 223.168 89.3651C223.168 89.0043 223.266 88.6875 223.462 88.4148C223.658 88.1393 223.928 87.9233 224.271 87.7671C224.615 87.6108 225.007 87.5327 225.447 87.5327C226.047 87.5327 226.526 87.6691 226.883 87.9418C227.244 88.2117 227.504 88.5839 227.663 89.0583ZM233.321 96.6222C233.171 96.6222 233.03 96.608 232.899 96.5796C232.769 96.5512 232.665 96.5199 232.588 96.4858L232.793 95.8168C233.051 95.8964 233.282 95.9248 233.483 95.902C233.685 95.8822 233.864 95.7912 234.02 95.6293C234.176 95.4702 234.316 95.2259 234.438 94.8964L234.676 94.2316L232.269 87.6222H233.091L235.034 93.1662H235.094L237.037 87.6222H237.86L235.09 95.2032C234.973 95.5185 234.83 95.7813 234.659 95.9915C234.489 96.2046 234.292 96.3623 234.067 96.4645C233.845 96.5697 233.597 96.6222 233.321 96.6222ZM241.653 94.304C241.088 94.304 240.588 94.1606 240.153 93.8736C239.722 93.5867 239.383 93.1904 239.139 92.6847C238.895 92.1762 238.773 91.5895 238.773 90.9248C238.773 90.2543 238.895 89.6648 239.139 89.1563C239.383 88.6449 239.722 88.2472 240.153 87.9631C240.588 87.6762 241.088 87.5327 241.653 87.5327C242.219 87.5327 242.717 87.6762 243.149 87.9631C243.581 88.25 243.919 88.6478 244.163 89.1563C244.41 89.6648 244.534 90.2543 244.534 90.9248C244.534 91.5895 244.412 92.1762 244.168 92.6847C243.923 93.1904 243.584 93.5867 243.149 93.8736C242.717 94.1606 242.219 94.304 241.653 94.304ZM241.653 93.6094C242.108 93.6094 242.493 93.4873 242.808 93.2429C243.124 92.9986 243.362 92.6733 243.524 92.2671C243.689 91.8608 243.771 91.4134 243.771 90.9248C243.771 90.4361 243.689 89.9873 243.524 89.5782C243.362 89.1691 243.124 88.841 242.808 88.5938C242.493 88.3466 242.108 88.2231 241.653 88.2231C241.202 88.2231 240.817 88.3466 240.499 88.5938C240.183 88.841 239.943 89.1691 239.778 89.5782C239.616 89.9873 239.535 90.4361 239.535 90.9248C239.535 91.4134 239.616 91.8608 239.778 92.2671C239.943 92.6733 240.183 92.9986 240.499 93.2429C240.814 93.4873 241.199 93.6094 241.653 93.6094ZM250.358 91.6662V87.6222H251.117V94.1677H250.358V93.081H250.299C250.145 93.4162 249.902 93.6961 249.57 93.9205C249.238 94.1421 248.831 94.2529 248.351 94.2529C247.934 94.2529 247.563 94.162 247.239 93.9802C246.915 93.7955 246.661 93.5256 246.476 93.1705C246.292 92.8154 246.199 92.3793 246.199 91.8623V87.6222H246.958V91.8154C246.958 92.3268 247.108 92.7387 247.409 93.0512C247.711 93.3608 248.097 93.5157 248.568 93.5157C248.864 93.5157 249.148 93.4447 249.421 93.3026C249.693 93.1606 249.918 92.9532 250.094 92.6804C250.27 92.4049 250.358 92.0668 250.358 91.6662ZM259.044 94.304C258.479 94.304 257.979 94.1606 257.544 93.8736C257.112 93.5867 256.774 93.1904 256.53 92.6847C256.285 92.1762 256.163 91.5895 256.163 90.9248C256.163 90.2543 256.285 89.6648 256.53 89.1563C256.774 88.6449 257.112 88.2472 257.544 87.9631C257.979 87.6762 258.479 87.5327 259.044 87.5327C259.609 87.5327 260.108 87.6762 260.54 87.9631C260.972 88.25 261.31 88.6478 261.554 89.1563C261.801 89.6648 261.925 90.2543 261.925 90.9248C261.925 91.5895 261.803 92.1762 261.558 92.6847C261.314 93.1904 260.974 93.5867 260.54 93.8736C260.108 94.1606 259.609 94.304 259.044 94.304ZM259.044 93.6094C259.499 93.6094 259.883 93.4873 260.199 93.2429C260.514 92.9986 260.753 92.6733 260.915 92.2671C261.08 91.8608 261.162 91.4134 261.162 90.9248C261.162 90.4361 261.08 89.9873 260.915 89.5782C260.753 89.1691 260.514 88.841 260.199 88.5938C259.883 88.3466 259.499 88.2231 259.044 88.2231C258.592 88.2231 258.207 88.3466 257.889 88.5938C257.574 88.841 257.334 89.1691 257.169 89.5782C257.007 89.9873 256.926 90.4361 256.926 90.9248C256.926 91.4134 257.007 91.8608 257.169 92.2671C257.334 92.6733 257.574 92.9986 257.889 93.2429C258.205 93.4873 258.589 93.6094 259.044 93.6094ZM264.82 94.1677L262.843 87.6222H263.644L265.195 93.0214H265.251L266.798 87.6222H267.603L269.137 93.0086H269.197L270.748 87.6222H271.549L269.572 94.1677H268.788L267.236 88.8026H267.155L265.604 94.1677H264.82ZM273.782 90.0768V94.1677H273.023V87.6222H273.761V88.6492H273.829C273.982 88.314 274.221 88.0455 274.545 87.8438C274.871 87.6393 275.275 87.537 275.755 87.537C276.195 87.537 276.582 87.6293 276.914 87.814C277.249 87.9958 277.509 88.2643 277.694 88.6194C277.881 88.9745 277.975 89.4106 277.975 89.9276V94.1677H277.217V89.9745C277.217 89.4375 277.066 89.0128 276.765 88.7003C276.467 88.3878 276.066 88.2316 275.563 88.2316C275.219 88.2316 274.914 88.3054 274.647 88.4532C274.38 88.6009 274.168 88.814 274.012 89.0924C273.859 89.3679 273.782 89.6961 273.782 90.0768Z" fill="#E8E8E8"/>
<g filter="url(#filter0_i_150_26117)">
<path d="M261.715 13.682C261.791 10.1517 261.546 7.574 260.978 5.45452C260.441 3.45332 259.519 1.49782 257.776 -0.664099C255.925 -2.96009 254.209 -4.10726 252.437 -4.68178C250.552 -5.29288 248.295 -5.35301 245.348 -4.84025C244.567 -4.70428 243.095 -4.11448 241.032 -2.97718C240.201 -2.51935 239.336 -2.00545 238.459 -1.46165C240.762 -0.360679 243.159 1.02184 245.33 2.75236C248.181 5.02584 251.394 8.50343 252.838 13.5709L253.046 14.3362C255.067 22.209 253.437 29.0882 252.217 34.0718C250.8 39.8572 249.842 43.5407 250.413 47.53C251.785 57.1057 257.246 67.9647 263.682 74.7136C265.668 76.7962 267.342 78.6631 269.228 80.5676C266.184 76.6655 263.625 72.8322 261.58 68.5267C258.782 62.6381 257.161 56.3374 256.135 48.463C254.946 39.3406 256.755 34.1188 258.483 29.4427C260.023 25.2766 261.548 21.402 261.715 13.682Z" fill="#020C7B" fill-opacity="0.25"/>
</g>
<g filter="url(#filter1_i_150_26117)">
<path d="M374.46 38.6369C377.748 37.3503 380.034 36.1331 381.772 34.7935C383.413 33.5286 384.864 31.9258 386.189 29.4856C387.597 26.8941 387.997 24.8695 387.846 23.0125C387.685 21.0371 386.873 18.9307 385.267 16.4077C384.841 15.7387 383.731 14.6062 381.888 13.1389C381.146 12.5483 380.339 11.9474 379.5 11.3469C379.369 13.8956 379.014 16.64 378.251 19.3092C377.248 22.8157 375.273 27.1183 371.15 30.3996L370.523 30.8854C364.033 35.778 357.056 36.9177 351.986 37.7067C346.1 38.6227 342.331 39.1544 338.868 41.2155C330.556 46.1633 322.631 55.3791 318.874 63.9147C317.715 66.5487 316.635 68.8115 315.602 71.2855C318.035 66.9754 320.59 63.1393 323.778 59.5959C328.139 54.7497 333.332 50.8305 340.207 46.8562C348.171 42.2522 353.687 41.9142 358.668 41.7122C363.106 41.5322 367.269 41.4504 374.46 38.6369Z" fill="#020C7B" fill-opacity="0.25"/>
</g>
<g filter="url(#filter2_i_150_26117)">
<path d="M226.449 -2.92485C225.217 -4.16403 224.396 -5.16167 223.817 -6.09517C223.27 -6.97659 222.839 -7.96051 222.553 -9.27157C222.249 -10.664 222.303 -11.6035 222.57 -12.3559C222.853 -13.1561 223.422 -13.8739 224.369 -14.5996C224.62 -14.792 225.208 -15.0353 226.138 -15.265C226.512 -15.3575 226.915 -15.4405 227.331 -15.5166C227.107 -14.4124 226.955 -13.1783 226.982 -11.8896C227.016 -10.1966 227.37 -7.9615 228.733 -5.70333L228.941 -5.36557C231.116 -1.9259 233.905 0.0317775 235.936 1.43776C238.293 3.06994 239.809 4.09193 241.029 5.69515C243.959 9.54359 246.26 15.1126 246.894 19.5122C247.09 20.8699 247.293 22.054 247.454 23.3174C246.91 20.9826 246.263 18.8218 245.319 16.6507C244.029 13.6813 242.289 10.9273 239.853 7.79423C237.031 4.16456 234.765 2.85473 232.707 1.71541C230.874 0.700355 229.144 -0.21507 226.449 -2.92485Z" fill="#020C7B" fill-opacity="0.25"/>
</g>
</g>
<path d="M-2 9.66773C-2 3.22382 3.22382 -2 9.66773 -2H365.332C371.776 -2 377 3.22382 377 9.66773H373C373 5.43296 369.567 2 365.332 2H9.66773C5.43296 2 2 5.43296 2 9.66773H-2ZM2 9.66773M375 113H0H375M9.66773 113C3.22382 113 -2 107.776 -2 101.332V9.66773C-2 3.22382 3.22382 -2 9.66773 -2V2C5.43296 2 2 5.43296 2 9.66773V103.332C2 108.672 5.43296 113 9.66773 113ZM365.332 -2C371.776 -2 377 3.22382 377 9.66773V101.332C377 107.776 371.776 113 365.332 113C369.567 113 373 108.672 373 103.332V9.66773C373 5.43296 369.567 2 365.332 2V-2Z" fill="url(#paint3_linear_150_26117)" mask="url(#path-1-inside-1_150_26117)"/>
<defs>
<filter id="filter0_i_150_26117" x="238.459" y="-5.18645" width="30.769" height="87.1616" filterUnits="userSpaceOnUse" color-interpolation-filters="sRGB">
<feFlood flood-opacity="0" result="BackgroundImageFix"/>
<feBlend mode="normal" in="SourceGraphic" in2="BackgroundImageFix" result="shape"/>
<feColorMatrix in="SourceAlpha" type="matrix" values="0 0 0 0 0 0 0 0 0 0 0 0 0 0 0 0 0 0 127 0" result="hardAlpha"/>
<feOffset dy="1.40755"/>
<feGaussianBlur stdDeviation="0.703773"/>
<feComposite in2="hardAlpha" operator="arithmetic" k2="-1" k3="1"/>
<feColorMatrix type="matrix" values="0 0 0 0 0 0 0 0 0 0 0 0 0 0 0 0 0 0 0.25 0"/>
<feBlend mode="normal" in2="shape" result="effect1_innerShadow_150_26117"/>
</filter>
<filter id="filter1_i_150_26117" x="315.603" y="11.3469" width="72.2734" height="61.3461" filterUnits="userSpaceOnUse" color-interpolation-filters="sRGB">
<feFlood flood-opacity="0" result="BackgroundImageFix"/>
<feBlend mode="normal" in="SourceGraphic" in2="BackgroundImageFix" result="shape"/>
<feColorMatrix in="SourceAlpha" type="matrix" values="0 0 0 0 0 0 0 0 0 0 0 0 0 0 0 0 0 0 127 0" result="hardAlpha"/>
<feOffset dy="1.40755"/>
<feGaussianBlur stdDeviation="0.703773"/>
<feComposite in2="hardAlpha" operator="arithmetic" k2="-1" k3="1"/>
<feColorMatrix type="matrix" values="0 0 0 0 0 0 0 0 0 0 0 0 0 0 0 0 0 0 0.25 0"/>
<feBlend mode="normal" in2="shape" result="effect1_innerShadow_150_26117"/>
</filter>
<filter id="filter2_i_150_26117" x="222.346" y="-15.5166" width="25.1079" height="40.2416" filterUnits="userSpaceOnUse" color-interpolation-filters="sRGB">
<feFlood flood-opacity="0" result="BackgroundImageFix"/>
<feBlend mode="normal" in="SourceGraphic" in2="BackgroundImageFix" result="shape"/>
<feColorMatrix in="SourceAlpha" type="matrix" values="0 0 0 0 0 0 0 0 0 0 0 0 0 0 0 0 0 0 127 0" result="hardAlpha"/>
<feOffset dy="1.40755"/>
<feGaussianBlur stdDeviation="0.703773"/>
<feComposite in2="hardAlpha" operator="arithmetic" k2="-1" k3="1"/>
<feColorMatrix type="matrix" values="0 0 0 0 0 0 0 0 0 0 0 0 0 0 0 0 0 0 0.25 0"/>
<feBlend mode="normal" in2="shape" result="effect1_innerShadow_150_26117"/>
</filter>
<linearGradient id="paint0_linear_150_26117" x1="187.5" y1="80" x2="187.5" y2="-26" gradientUnits="userSpaceOnUse">
<stop stop-color="#010B7B"/>
<stop offset="1" stop-color="#0060DE"/>
</linearGradient>
<linearGradient id="paint1_linear_150_26117" x1="273.875" y1="78.75" x2="275.75" y2="14.25" gradientUnits="userSpaceOnUse">
<stop stop-color="#001FE8"/>
<stop offset="1" stop-color="#011599"/>
</linearGradient>
<linearGradient id="paint2_linear_150_26117" x1="323.75" y1="46.5" x2="317.213" y2="30.1268" gradientUnits="userSpaceOnUse">
<stop stop-color="#001FE8"/>
<stop offset="1" stop-color="#011599"/>
</linearGradient>
<linearGradient id="paint3_linear_150_26117" x1="187.5" y1="0" x2="187.5" y2="103.5" gradientUnits="userSpaceOnUse">
<stop stop-color="#ABC3FF"/>
<stop offset="0.128319" stop-color="#566FE3"/>
<stop offset="0.247788" stop-color="#001FE8"/>
<stop offset="0.402655" stop-color="#020C7B"/>
<stop offset="1" stop-color="#010B7B"/>
</linearGradient>
<clipPath id="clip0_150_26117">
<path d="M0 9.66773C0 4.32839 4.32839 0 9.66773 0H365.332C370.672 0 375 4.32839 375 9.66773V103.332C375 108.672 370.672 113 365.332 113H9.66773C4.32839 113 0 108.672 0 103.332V9.66773Z" fill="white"/>
</clipPath>
<clipPath id="clip1_150_26117">
<rect width="16.9048" height="16.9048" fill="white" transform="translate(23.998 24.0058)"/>
</clipPath>
<clipPath id="clip2_150_26117">
<rect width="16.9048" height="16.9048" fill="white" transform="translate(23.998 24.0058)"/>
</clipPath>
<clipPath id="clip3_150_26117">
<rect width="16.9048" height="16.9048" fill="white" transform="translate(23.998 24.0058)"/>
</clipPath>
</defs>
</svg>
