<svg width="375" height="113" viewBox="0 0 375 113" fill="none" xmlns="http://www.w3.org/2000/svg">
<g clip-path="url(#clip0_150_26114)">
<mask id="path-1-inside-1_150_26114" fill="white">
<path d="M0 9.66773C0 4.32839 4.32839 0 9.66773 0H365.332C370.672 0 375 4.32839 375 9.66773V103.332C375 108.672 370.672 113 365.332 113H9.66773C4.32839 113 0 108.672 0 103.332V9.66773Z"/>
</mask>
<path d="M0 9.66773C0 4.32839 4.32839 0 9.66773 0H365.332C370.672 0 375 4.32839 375 9.66773V103.332C375 108.672 370.672 113 365.332 113H9.66773C4.32839 113 0 108.672 0 103.332V9.66773Z" fill="url(#paint0_linear_150_26114)"/>
<mask id="path-3-inside-2_150_26114" fill="white">
<path d="M277.25 1.00031H374.25C374.25 1.00031 336.832 19.6203 316.121 37.375C299.397 51.7121 277.25 79.472 277.25 79.472C277.25 79.472 282.923 53.9842 282.599 37.375C282.318 22.973 277.25 1.00031 277.25 1.00031Z"/>
</mask>
<path d="M277.25 1.00031H374.25C374.25 1.00031 336.832 19.6203 316.121 37.375C299.397 51.7121 277.25 79.472 277.25 79.472C277.25 79.472 282.923 53.9842 282.599 37.375C282.318 22.973 277.25 1.00031 277.25 1.00031Z" fill="#010B7B"/>
<path d="M277.25 0.698287C277.25 0.899632 277.25 1.10098 277.25 1.30232C282.29 1.55091 287.33 1.7913 292.37 2.0235C319.663 3.2809 346.957 4.29789 374.25 5.07447L372.435 -2.64719C351.559 7.4479 331.165 18.1675 312.528 33.1832C297.403 46.2067 284.932 60.741 272.598 75.7604L283.059 80.7651C283.521 78.6677 283.933 76.6219 284.331 74.5615C286.588 62.4178 288.164 50.1541 287.159 37.286C286.405 29.6184 284.621 22.4879 282.539 15.4244C281.069 10.5162 279.412 5.6894 277.544 0.932424C277.348 0.977678 277.152 1.02293 276.956 1.06819C277.298 6.1429 277.576 11.2019 277.813 16.2327C278.129 23.4359 278.428 30.6714 278.04 37.464C277.193 48.8445 274.818 60.6389 272.635 72.3083C272.256 74.2729 271.844 76.3213 271.441 78.1789L281.902 83.1836C293.755 68.642 306.159 53.8669 319.715 41.5668C336.377 27.3205 356.36 15.568 376.065 4.6478L374.25 -3.07385C346.957 -2.29728 319.663 -1.28029 292.37 -0.0228853C287.33 0.209307 282.29 0.449698 277.25 0.698287ZM277.25 1.30232V0.698287L276.817 0.719635L276.956 1.06819L277.544 0.932424L277.25 1.30232Z" fill="#020C7B" mask="url(#path-3-inside-2_150_26114)"/>
<path d="M270.717 0.0809183C270.072 0.318629 269.428 0.55634 268.783 0.794051C269.242 2.00298 269.699 3.26052 270.145 4.51882C273.159 13.1694 276.024 21.9921 277.383 31.0141V31.0141C279.062 45.5452 276.933 60.3803 274.395 74.8392C274.154 76.1352 273.89 77.4917 273.625 78.75C273.924 77.4991 274.221 76.1492 274.496 74.8594C277.404 60.4451 279.939 45.7252 278.617 30.8608V30.8608C277.465 21.6092 274.81 12.6888 271.999 3.88765C271.58 2.60493 271.157 1.33728 270.717 0.0809183Z" fill="url(#paint1_linear_150_26114)"/>
<path d="M374.466 6.16371C374.775 6.77754 375.084 7.39137 375.393 8.00521C373.721 8.83297 371.961 9.73113 370.256 10.6116C352.906 19.7216 335.657 29.2358 320.291 41.3517V41.3517C308.644 50.9994 298.238 62.1525 288.076 73.4111C286.791 74.8492 285.51 76.2957 284.25 77.75C285.484 76.2734 286.739 74.8042 287.998 73.3431C297.967 61.8993 308.156 50.572 319.71 40.6483V40.6483C334.977 28.1667 352.088 18.3353 369.342 8.87978C371.04 7.96399 372.782 7.03597 374.466 6.16371Z" fill="url(#paint2_linear_150_26114)"/>
<path d="M15.5454 24.0045C15.5454 19.3326 19.3328 15.5452 24.0047 15.5452H40.9122C45.5841 15.5452 49.3714 19.3326 49.3714 24.0045V40.912C49.3714 45.5839 45.5841 49.3713 40.9122 49.3713H24.0047C19.3327 49.3713 15.5454 45.5839 15.5454 40.912V24.0045Z" fill="#CECECE" fill-opacity="0.125"/>
<g clip-path="url(#clip1_150_26114)">
<path d="M30.3375 26.1187H26.8157C26.4267 26.1187 26.1113 26.4341 26.1113 26.8231V30.345C26.1113 30.734 26.4267 31.0493 26.8157 31.0493H30.3375C30.7265 31.0493 31.0419 30.734 31.0419 30.345V26.8231C31.0419 26.4341 30.7265 26.1187 30.3375 26.1187Z" stroke="white" stroke-width="1.40874" stroke-linecap="round" stroke-linejoin="round"/>
<path d="M38.0856 26.1187H34.5637C34.1747 26.1187 33.8594 26.4341 33.8594 26.8231V30.345C33.8594 30.734 34.1747 31.0493 34.5637 31.0493H38.0856C38.4746 31.0493 38.7899 30.734 38.7899 30.345V26.8231C38.7899 26.4341 38.4746 26.1187 38.0856 26.1187Z" stroke="white" stroke-width="1.40874" stroke-linecap="round" stroke-linejoin="round"/>
<path d="M38.0856 33.867H34.5637C34.1747 33.867 33.8594 34.1823 33.8594 34.5713V38.0932C33.8594 38.4822 34.1747 38.7975 34.5637 38.7975H38.0856C38.4746 38.7975 38.7899 38.4822 38.7899 38.0932V34.5713C38.7899 34.1823 38.4746 33.867 38.0856 33.867Z" stroke="white" stroke-width="1.40874" stroke-linecap="round" stroke-linejoin="round"/>
<path d="M30.3375 33.867H26.8157C26.4267 33.867 26.1113 34.1823 26.1113 34.5713V38.0932C26.1113 38.4822 26.4267 38.7975 26.8157 38.7975H30.3375C30.7265 38.7975 31.0419 38.4822 31.0419 38.0932V34.5713C31.0419 34.1823 30.7265 33.867 30.3375 33.867Z" stroke="white" stroke-width="1.40874" stroke-linecap="round" stroke-linejoin="round"/>
</g>
<path d="M21.7784 74.2033H17.1378V61.1124H21.8168C23.1335 61.1124 24.267 61.3745 25.2173 61.8986C26.1676 62.4185 26.8984 63.1664 27.4098 64.1422C27.9254 65.1181 28.1832 66.2857 28.1832 67.6451C28.1832 69.0087 27.9254 70.1806 27.4098 71.1607C26.8984 72.1408 26.1634 72.8929 25.2045 73.4171C24.25 73.9412 23.108 74.2033 21.7784 74.2033ZM19.9055 71.8319H21.6634C22.4815 71.8319 23.1697 71.687 23.728 71.3972C24.2905 71.1032 24.7124 70.6493 24.9936 70.0357C25.2791 69.4178 25.4219 68.6209 25.4219 67.6451C25.4219 66.6777 25.2791 65.8873 24.9936 65.2736C24.7124 64.66 24.2926 64.2083 23.7344 63.9185C23.1761 63.6287 22.4879 63.4838 21.6697 63.4838H19.9055V71.8319ZM34.6568 74.3951C33.6468 74.3951 32.7775 74.1905 32.0488 73.7814C31.3244 73.3681 30.7662 72.7843 30.3741 72.03C29.9821 71.2715 29.786 70.3745 29.786 69.339C29.786 68.329 29.9821 67.4427 30.3741 66.6799C30.7662 65.9171 31.318 65.3226 32.0297 64.8965C32.7456 64.4704 33.585 64.2573 34.5481 64.2573C35.1958 64.2573 35.7988 64.3617 36.3571 64.5705C36.9196 64.775 37.4096 65.084 37.8272 65.4973C38.2491 65.9107 38.5772 66.4306 38.8116 67.057C39.046 67.6792 39.1632 68.4079 39.1632 69.2431V69.991H30.8727V68.3034H36.6C36.6 67.9114 36.5147 67.5641 36.3443 67.2615C36.1738 66.959 35.9373 66.7225 35.6348 66.552C35.3365 66.3773 34.9892 66.29 34.5929 66.29C34.1795 66.29 33.813 66.3858 33.4934 66.5776C33.1781 66.7651 32.9309 67.0186 32.752 67.3383C32.573 67.6536 32.4814 68.0052 32.4771 68.3929V69.9973C32.4771 70.4831 32.5666 70.9029 32.7456 71.2566C32.9288 71.6103 33.1866 71.883 33.519 72.0748C33.8514 72.2665 34.2456 72.3624 34.7015 72.3624C35.0041 72.3624 35.2811 72.3198 35.5325 72.2346C35.7839 72.1493 35.9991 72.0215 36.1781 71.851C36.3571 71.6806 36.4934 71.4718 36.5872 71.2246L39.1056 71.3908C38.9778 71.9959 38.7157 72.5243 38.3194 72.976C37.9274 73.4235 37.4203 73.7729 36.7981 74.0243C36.1802 74.2715 35.4664 74.3951 34.6568 74.3951ZM45.3762 74.3951C44.3706 74.3951 43.5055 74.182 42.7811 73.7559C42.0609 73.3255 41.5069 72.7289 41.1191 71.9661C40.7356 71.2033 40.5439 70.3255 40.5439 69.3326C40.5439 68.3269 40.7377 67.4448 41.1255 66.6863C41.5176 65.9235 42.0737 65.329 42.7939 64.9029C43.514 64.4725 44.3706 64.2573 45.3635 64.2573C46.22 64.2573 46.97 64.4128 47.6135 64.7239C48.2569 65.035 48.7662 65.4718 49.1412 66.0343C49.5162 66.5968 49.7228 67.2573 49.7612 68.0158H47.1916C47.1191 67.5258 46.9274 67.1316 46.6163 66.8333C46.3095 66.5307 45.9068 66.3794 45.4082 66.3794C44.9863 66.3794 44.6177 66.4945 44.3024 66.7246C43.9913 66.9505 43.7484 67.2807 43.5737 67.7154C43.399 68.15 43.3116 68.6763 43.3116 69.2942C43.3116 69.9206 43.3968 70.4533 43.5673 70.8922C43.742 71.3311 43.987 71.6657 44.3024 71.8958C44.6177 72.1259 44.9863 72.241 45.4082 72.241C45.7193 72.241 45.9984 72.177 46.2456 72.0492C46.497 71.9213 46.7037 71.736 46.8656 71.4931C47.0318 71.2459 47.1404 70.9498 47.1916 70.6046H49.7612C49.7186 71.3546 49.514 72.0151 49.1476 72.5861C48.7853 73.1529 48.2846 73.5961 47.6454 73.9157C47.0062 74.2353 46.2498 74.3951 45.3762 74.3951ZM53.9719 71.378L53.9783 68.1117H54.3746L57.5195 64.3851H60.6452L56.4201 69.3198H55.7745L53.9719 71.378ZM51.5046 74.2033V61.1124H54.2276V74.2033H51.5046ZM57.641 74.2033L54.7518 69.927L56.5671 68.003L60.8306 74.2033H57.641ZM66.1983 74.2033V61.1124H71.4398C72.4029 61.1124 73.2061 61.2552 73.8496 61.5407C74.4931 61.8262 74.9767 62.2225 75.3006 62.7296C75.6245 63.2324 75.7864 63.812 75.7864 64.4682C75.7864 64.9796 75.6841 65.4292 75.4796 65.8169C75.275 66.2005 74.9938 66.5158 74.6358 66.763C74.2821 67.0059 73.8773 67.1784 73.4213 67.2807V67.4086C73.9199 67.4299 74.3865 67.5705 74.8212 67.8304C75.2601 68.0904 75.6159 68.4547 75.8887 68.9235C76.1614 69.388 76.2978 69.9419 76.2978 70.5854C76.2978 71.28 76.1252 71.9 75.78 72.4455C75.4391 72.9867 74.9341 73.415 74.2651 73.7303C73.5961 74.0456 72.7715 74.2033 71.7914 74.2033H66.1983ZM68.9661 71.9405H71.2225C71.9938 71.9405 72.5563 71.7935 72.91 71.4995C73.2637 71.2012 73.4405 70.8049 73.4405 70.3106C73.4405 69.9483 73.3532 69.6287 73.1784 69.3517C73.0037 69.0748 72.7544 68.8574 72.4306 68.6998C72.111 68.5421 71.7296 68.4633 71.2864 68.4633H68.9661V71.9405ZM68.9661 66.5904H71.0179C71.3972 66.5904 71.7338 66.5243 72.0279 66.3922C72.3262 66.2559 72.5605 66.0641 72.731 65.8169C72.9057 65.5698 72.9931 65.2736 72.9931 64.9285C72.9931 64.4554 72.8248 64.074 72.4881 63.7843C72.1557 63.4945 71.6827 63.3496 71.0691 63.3496H68.9661V66.5904ZM84.3438 70.0229V64.3851H87.0668V74.2033H84.4524V72.4199H84.3501C84.1286 72.9952 83.7599 73.4576 83.2443 73.807C82.733 74.1564 82.1087 74.3311 81.3714 74.3311C80.7152 74.3311 80.1378 74.182 79.6392 73.8837C79.1406 73.5854 78.7507 73.1614 78.4695 72.6117C78.1925 72.062 78.0518 71.4036 78.0476 70.6365V64.3851H80.7706V70.1508C80.7749 70.7303 80.9304 71.1884 81.2372 71.525C81.544 71.8617 81.9553 72.03 82.4709 72.03C82.799 72.03 83.1058 71.9554 83.3913 71.8063C83.6768 71.6529 83.907 71.427 84.0817 71.1287C84.2607 70.8304 84.348 70.4618 84.3438 70.0229ZM89.2449 74.2033V64.3851H91.9679V74.2033H89.2449ZM90.6127 63.1195C90.2079 63.1195 89.8606 62.9853 89.5708 62.7168C89.2853 62.4441 89.1426 62.1181 89.1426 61.7388C89.1426 61.3638 89.2853 61.0421 89.5708 60.7736C89.8606 60.5009 90.2079 60.3645 90.6127 60.3645C91.0176 60.3645 91.3627 60.5009 91.6483 60.7736C91.938 61.0421 92.0829 61.3638 92.0829 61.7388C92.0829 62.1181 91.938 62.4441 91.6483 62.7168C91.3627 62.9853 91.0176 63.1195 90.6127 63.1195ZM96.8722 61.1124V74.2033H94.1491V61.1124H96.8722ZM102.671 74.3631C101.926 74.3631 101.25 74.1713 100.645 73.7878C100.044 73.4 99.5669 72.8311 99.2132 72.0811C98.8638 71.3269 98.6891 70.4022 98.6891 69.307C98.6891 68.182 98.8702 67.2466 99.2324 66.5009C99.5946 65.7509 100.076 65.1905 100.677 64.8198C101.282 64.4448 101.945 64.2573 102.665 64.2573C103.215 64.2573 103.673 64.351 104.039 64.5385C104.41 64.7218 104.708 64.9519 104.934 65.2289C105.164 65.5016 105.339 65.7701 105.458 66.0343H105.541V61.1124H108.258V74.2033H105.573V72.6309H105.458C105.33 72.9036 105.149 73.1742 104.915 73.4427C104.685 73.7069 104.384 73.9263 104.014 74.101C103.647 74.2758 103.2 74.3631 102.671 74.3631ZM103.534 72.1962C103.973 72.1962 104.344 72.0769 104.646 71.8383C104.953 71.5954 105.188 71.2566 105.35 70.8219C105.516 70.3873 105.599 69.878 105.599 69.2942C105.599 68.7104 105.518 68.2033 105.356 67.7729C105.194 67.3425 104.96 67.0101 104.653 66.7758C104.346 66.5414 103.973 66.4242 103.534 66.4242C103.087 66.4242 102.71 66.5456 102.403 66.7885C102.096 67.0314 101.864 67.3681 101.706 67.7985C101.548 68.2289 101.47 68.7275 101.47 69.2942C101.47 69.8652 101.548 70.3702 101.706 70.8091C101.868 71.2438 102.1 71.5847 102.403 71.8319C102.71 72.0748 103.087 72.1962 103.534 72.1962ZM114.971 74.3951C113.961 74.3951 113.092 74.1905 112.363 73.7814C111.639 73.3681 111.081 72.7843 110.689 72.03C110.297 71.2715 110.1 70.3745 110.1 69.339C110.1 68.329 110.297 67.4427 110.689 66.6799C111.081 65.9171 111.632 65.3226 112.344 64.8965C113.06 64.4704 113.9 64.2573 114.863 64.2573C115.51 64.2573 116.113 64.3617 116.672 64.5705C117.234 64.775 117.724 65.084 118.142 65.4973C118.564 65.9107 118.892 66.4306 119.126 67.057C119.36 67.6792 119.478 68.4079 119.478 69.2431V69.991H111.187V68.3034H116.914C116.914 67.9114 116.829 67.5641 116.659 67.2615C116.488 66.959 116.252 66.7225 115.949 66.552C115.651 66.3773 115.304 66.29 114.907 66.29C114.494 66.29 114.127 66.3858 113.808 66.5776C113.493 66.7651 113.245 67.0186 113.066 67.3383C112.887 67.6536 112.796 68.0052 112.792 68.3929V69.9973C112.792 70.4831 112.881 70.9029 113.06 71.2566C113.243 71.6103 113.501 71.883 113.833 72.0748C114.166 72.2665 114.56 72.3624 115.016 72.3624C115.319 72.3624 115.596 72.3198 115.847 72.2346C116.098 72.1493 116.314 72.0215 116.493 71.851C116.672 71.6806 116.808 71.4718 116.902 71.2246L119.42 71.3908C119.292 71.9959 119.03 72.5243 118.634 72.976C118.242 73.4235 117.735 73.7729 117.113 74.0243C116.495 74.2715 115.781 74.3951 114.971 74.3951ZM121.255 74.2033V64.3851H123.895V66.0982H123.997C124.176 65.4888 124.476 65.0286 124.898 64.7175C125.32 64.4022 125.806 64.2445 126.355 64.2445C126.492 64.2445 126.639 64.253 126.797 64.2701C126.954 64.2871 127.093 64.3106 127.212 64.3404V66.7566C127.084 66.7182 126.907 66.6841 126.681 66.6543C126.456 66.6245 126.249 66.6096 126.061 66.6096C125.661 66.6096 125.303 66.6969 124.988 66.8716C124.676 67.0421 124.429 67.2807 124.246 67.5875C124.067 67.8944 123.978 68.2481 123.978 68.6486V74.2033H121.255Z" fill="white"/>
<path d="M23.5397 88.1677H22.7386C22.6789 87.8694 22.571 87.5938 22.4147 87.341C22.2613 87.0853 22.0681 86.8623 21.8352 86.6719C21.6022 86.4816 21.338 86.3339 21.0426 86.2287C20.7471 86.1236 20.4275 86.0711 20.0838 86.0711C19.5326 86.0711 19.0298 86.2145 18.5752 86.5015C18.1235 86.7884 17.7613 87.2103 17.4886 87.7671C17.2187 88.3211 17.0838 89 17.0838 89.804C17.0838 90.6137 17.2187 91.2955 17.4886 91.8495C17.7613 92.4035 18.1235 92.8239 18.5752 93.1108C19.0298 93.3949 19.5326 93.537 20.0838 93.537C20.4275 93.537 20.7471 93.4844 21.0426 93.3793C21.338 93.2742 21.6022 93.1279 21.8352 92.9404C22.0681 92.75 22.2613 92.527 22.4147 92.2714C22.571 92.0157 22.6789 91.7387 22.7386 91.4404H23.5397C23.4687 91.841 23.3352 92.2145 23.1392 92.5611C22.946 92.9049 22.6988 93.206 22.3977 93.4645C22.0994 93.7231 21.7556 93.9248 21.3664 94.0697C20.9772 94.2145 20.5497 94.287 20.0838 94.287C19.3508 94.287 18.7002 94.1037 18.1321 93.7373C17.5639 93.3679 17.1179 92.8481 16.794 92.1776C16.473 91.5072 16.3125 90.716 16.3125 89.804C16.3125 88.8921 16.473 88.1009 16.794 87.4304C17.1179 86.76 17.5639 86.2415 18.1321 85.875C18.7002 85.5057 19.3508 85.3211 20.0838 85.3211C20.5497 85.3211 20.9772 85.3935 21.3664 85.5384C21.7556 85.6804 22.0994 85.8822 22.3977 86.1435C22.6988 86.402 22.946 86.7032 23.1392 87.0469C23.3352 87.3907 23.4687 87.7643 23.5397 88.1677ZM29.413 91.6662V87.6222H30.1715V94.1677H29.413V93.081H29.3533C29.1999 93.4162 28.957 93.6961 28.6246 93.9205C28.2922 94.1421 27.886 94.2529 27.4059 94.2529C26.9882 94.2529 26.6175 94.162 26.2936 93.9802C25.9698 93.7955 25.7155 93.5256 25.5309 93.1705C25.3462 92.8154 25.2539 92.3793 25.2539 91.8623V87.6222H26.0124V91.8154C26.0124 92.3268 26.163 92.7387 26.4641 93.0512C26.7652 93.3608 27.1516 93.5157 27.6232 93.5157C27.9186 93.5157 28.2027 93.4447 28.4755 93.3026C28.7482 93.1606 28.9726 92.9532 29.1487 92.6804C29.3249 92.4049 29.413 92.0668 29.413 91.6662ZM36.5774 89.0583L35.8828 89.2543C35.8146 89.0583 35.718 88.8807 35.593 88.7216C35.468 88.5625 35.3046 88.4361 35.1029 88.3424C34.9041 88.2486 34.6569 88.2018 34.3615 88.2018C33.9183 88.2018 33.5546 88.3069 33.2706 88.5171C32.9865 88.7273 32.8444 88.9986 32.8444 89.331C32.8444 89.6123 32.941 89.841 33.1342 90.0171C33.3302 90.1904 33.6313 90.3282 34.0376 90.4304L35.0262 90.6733C35.5745 90.8069 35.985 91.0185 36.2578 91.3083C36.5333 91.5981 36.6711 91.9617 36.6711 92.3992C36.6711 92.7685 36.5688 93.0966 36.3643 93.3836C36.1598 93.6705 35.8742 93.8964 35.5078 94.0611C35.1441 94.2231 34.7223 94.304 34.2421 94.304C33.6029 94.304 33.0759 94.1606 32.6612 93.8736C32.2464 93.5839 31.9808 93.1662 31.8643 92.6208L32.593 92.4418C32.6867 92.831 32.87 93.125 33.1427 93.3239C33.4183 93.5228 33.7805 93.6222 34.2294 93.6222C34.7322 93.6222 35.1342 93.51 35.4353 93.2856C35.7365 93.0583 35.887 92.7742 35.887 92.4333C35.887 92.1691 35.799 91.9475 35.6228 91.7685C35.4467 91.5867 35.1796 91.4532 34.8217 91.3679L33.7521 91.1123C33.1839 90.9759 32.7634 90.76 32.4907 90.4645C32.218 90.1691 32.0816 89.8026 32.0816 89.3651C32.0816 89.0043 32.1796 88.6875 32.3757 88.4148C32.5717 88.1393 32.8416 87.9233 33.1853 87.7671C33.5291 87.6108 33.9211 87.5327 34.3615 87.5327C34.9609 87.5327 35.4396 87.6691 35.7975 87.9418C36.1583 88.2117 36.4183 88.5839 36.5774 89.0583ZM40.9101 87.6222V88.2827H37.7865V87.6222H40.9101ZM38.7624 86.054H39.5252V92.4589C39.5252 92.7316 39.572 92.9461 39.6658 93.1023C39.7595 93.2557 39.8817 93.3651 40.0323 93.4304C40.1828 93.4929 40.3434 93.5242 40.5138 93.5242C40.6132 93.5242 40.6985 93.5185 40.7695 93.5072C40.8405 93.4929 40.903 93.4787 40.957 93.4645L41.1189 94.1506C41.0451 94.179 40.9541 94.2046 40.8462 94.2273C40.7382 94.2529 40.6047 94.2657 40.4456 94.2657C40.1672 94.2657 39.8987 94.2046 39.6402 94.0824C39.3845 93.9603 39.1743 93.7785 39.0095 93.537C38.8448 93.2955 38.7624 92.9958 38.7624 92.6378V86.054ZM45.1065 94.304C44.5411 94.304 44.0411 94.1606 43.6065 93.8736C43.1747 93.5867 42.8366 93.1904 42.5923 92.6847C42.348 92.1762 42.2258 91.5895 42.2258 90.9248C42.2258 90.2543 42.348 89.6648 42.5923 89.1563C42.8366 88.6449 43.1747 88.2472 43.6065 87.9631C44.0411 87.6762 44.5411 87.5327 45.1065 87.5327C45.6718 87.5327 46.1704 87.6762 46.6022 87.9631C47.034 88.25 47.3721 88.6478 47.6164 89.1563C47.8636 89.6648 47.9872 90.2543 47.9872 90.9248C47.9872 91.5895 47.865 92.1762 47.6207 92.6847C47.3764 93.1904 47.0369 93.5867 46.6022 93.8736C46.1704 94.1606 45.6718 94.304 45.1065 94.304ZM45.1065 93.6094C45.561 93.6094 45.946 93.4873 46.2613 93.2429C46.5767 92.9986 46.8153 92.6733 46.9772 92.2671C47.142 91.8608 47.2244 91.4134 47.2244 90.9248C47.2244 90.4361 47.142 89.9873 46.9772 89.5782C46.8153 89.1691 46.5767 88.841 46.2613 88.5938C45.946 88.3466 45.561 88.2231 45.1065 88.2231C44.6548 88.2231 44.2698 88.3466 43.9517 88.5938C43.6363 88.841 43.3963 89.1691 43.2315 89.5782C43.0696 89.9873 42.9886 90.4361 42.9886 90.9248C42.9886 91.4134 43.0696 91.8608 43.2315 92.2671C43.3963 92.6733 43.6363 92.9986 43.9517 93.2429C44.267 93.4873 44.6519 93.6094 45.1065 93.6094ZM49.6523 94.1677V87.6222H50.3895V88.6279H50.4577C50.5884 88.2898 50.8057 88.0242 51.1097 87.831C51.4165 87.635 51.7844 87.537 52.2134 87.537C52.6651 87.537 53.0358 87.6435 53.3256 87.8566C53.6182 88.0668 53.837 88.3566 53.9818 88.7259H54.0372C54.185 88.3623 54.425 88.0739 54.7574 87.8608C55.0926 87.6449 55.4989 87.537 55.9762 87.537C56.5841 87.537 57.0642 87.7287 57.4165 88.1123C57.7688 88.4929 57.9449 89.0498 57.9449 89.7827V94.1677H57.1864V89.7827C57.1864 89.2657 57.0543 88.8779 56.7901 88.6194C56.5259 88.3608 56.1779 88.2316 55.746 88.2316C55.246 88.2316 54.8611 88.385 54.5912 88.6918C54.3213 88.9986 54.1864 89.3878 54.1864 89.8594V94.1677H53.4108V89.7145C53.4108 89.2714 53.2872 88.9134 53.0401 88.6407C52.7929 88.3679 52.4449 88.2316 51.996 88.2316C51.6949 88.2316 51.4236 88.3054 51.1821 88.4532C50.9435 88.6009 50.7546 88.8069 50.6154 89.0711C50.479 89.3324 50.4108 89.6336 50.4108 89.9745V94.1677H49.6523ZM59.9616 94.1677V87.6222H60.7244V94.1677H59.9616ZM60.3494 86.4972C60.1931 86.4972 60.0596 86.4447 59.9488 86.3395C59.838 86.2316 59.7826 86.1023 59.7826 85.9518C59.7826 85.8012 59.838 85.6733 59.9488 85.5682C60.0596 85.4603 60.1931 85.4063 60.3494 85.4063C60.5056 85.4063 60.6392 85.4603 60.75 85.5682C60.8608 85.6733 60.9161 85.8012 60.9161 85.9518C60.9161 86.1023 60.8608 86.2316 60.75 86.3395C60.6392 86.4447 60.5056 86.4972 60.3494 86.4972ZM62.5259 94.1677V93.5668L66.31 88.3935V88.3381H62.6878V87.6222H67.2858V88.2486L63.5699 93.3964V93.4518H67.4222V94.1677H62.5259ZM71.5525 94.304C70.9417 94.304 70.4133 94.162 69.9673 93.8779C69.5213 93.591 69.1761 93.1947 68.9318 92.689C68.6903 92.1804 68.5696 91.5952 68.5696 90.9333C68.5696 90.2742 68.6903 89.689 68.9318 89.1776C69.1761 88.6634 69.5127 88.2614 69.9417 87.9716C70.3735 87.679 70.8721 87.5327 71.4375 87.5327C71.7926 87.5327 72.1349 87.5981 72.4644 87.7287C72.794 87.8566 73.0894 88.054 73.3508 88.3211C73.615 88.5853 73.8238 88.9191 73.9772 89.3225C74.1306 89.7231 74.2073 90.1975 74.2073 90.7458V91.1208H69.0937V90.4518H73.4318C73.4318 90.0313 73.3465 89.6535 73.1761 89.3182C73.0085 88.9802 72.7741 88.7131 72.473 88.5171C72.1747 88.3211 71.8295 88.2231 71.4375 88.2231C71.0227 88.2231 70.6576 88.3339 70.3423 88.5554C70.0269 88.777 69.7798 89.0697 69.6008 89.4333C69.4247 89.7969 69.3352 90.1947 69.3323 90.6265V91.027C69.3323 91.5469 69.4218 92.0015 69.6008 92.3907C69.7826 92.777 70.0397 93.0768 70.3721 93.2898C70.7045 93.5029 71.098 93.6094 71.5525 93.6094C71.8622 93.6094 72.1335 93.5611 72.3664 93.4645C72.6022 93.3679 72.7997 93.2387 72.9588 93.0768C73.1207 92.912 73.2429 92.7316 73.3252 92.5356L74.0454 92.7699C73.946 93.0455 73.7826 93.2998 73.5554 93.5327C73.3309 93.7657 73.0497 93.9532 72.7116 94.0952C72.3764 94.2344 71.99 94.304 71.5525 94.304ZM81.082 94.3168C80.6871 94.3168 80.3263 94.2401 79.9996 94.0867C79.6729 93.9304 79.413 93.706 79.2198 93.4134C79.0266 93.1179 78.93 92.76 78.93 92.3395C78.93 92.0157 78.9911 91.7429 79.1132 91.5214C79.2354 91.2998 79.4087 91.1179 79.6331 90.9759C79.8576 90.8339 80.1232 90.7216 80.43 90.6393C80.7368 90.5569 81.0749 90.4929 81.4442 90.4475C81.8107 90.402 82.1203 90.3623 82.3732 90.3282C82.6289 90.2941 82.8235 90.2401 82.957 90.1662C83.0905 90.0924 83.1573 89.9731 83.1573 89.8083V89.6549C83.1573 89.2089 83.0237 88.858 82.7567 88.6023C82.4925 88.3438 82.1118 88.2145 81.6147 88.2145C81.1431 88.2145 80.7581 88.3182 80.4598 88.5256C80.1644 88.733 79.957 88.9773 79.8377 89.2586L79.1175 88.9986C79.2652 88.6407 79.4698 88.3552 79.7311 88.1421C79.9925 87.9262 80.2851 87.7714 80.609 87.6776C80.9328 87.581 81.261 87.5327 81.5934 87.5327C81.8434 87.5327 82.1033 87.5654 82.3732 87.6307C82.6459 87.6961 82.8987 87.8097 83.1317 87.9716C83.3647 88.1307 83.5536 88.3537 83.6985 88.6407C83.8434 88.9248 83.9158 89.2856 83.9158 89.7231V94.1677H83.1573V93.1322H83.1104C83.0195 93.3253 82.8845 93.5128 82.7056 93.6947C82.5266 93.8765 82.3022 94.0256 82.0323 94.1421C81.7624 94.2586 81.4456 94.3168 81.082 94.3168ZM81.1843 93.6222C81.5877 93.6222 81.9371 93.5327 82.2326 93.3537C82.528 93.1748 82.7553 92.9375 82.9144 92.6421C83.0763 92.3438 83.1573 92.0157 83.1573 91.6577V90.7117C83.1005 90.7657 83.0053 90.814 82.8718 90.8566C82.7411 90.8992 82.5891 90.9375 82.4158 90.9716C82.2453 91.0029 82.0749 91.0299 81.9044 91.0526C81.734 91.0753 81.5806 91.0952 81.4442 91.1123C81.0749 91.1577 80.7595 91.2287 80.4982 91.3253C80.2368 91.4219 80.0365 91.5554 79.8973 91.7259C79.7581 91.8935 79.6885 92.1094 79.6885 92.3736C79.6885 92.7714 79.8306 93.0796 80.1147 93.2983C80.3987 93.5143 80.7553 93.6222 81.1843 93.6222ZM86.6921 90.0768V94.1677H85.9335V87.6222H86.6708V88.6492H86.7389C86.8924 88.314 87.131 88.0455 87.4549 87.8438C87.7816 87.6393 88.185 87.537 88.6651 87.537C89.1054 87.537 89.4918 87.6293 89.8242 87.814C90.1594 87.9958 90.4193 88.2643 90.604 88.6194C90.7915 88.9745 90.8853 89.4106 90.8853 89.9276V94.1677H90.1267V89.9745C90.1267 89.4375 89.9762 89.0128 89.675 88.7003C89.3767 88.3878 88.9762 88.2316 88.4733 88.2316C88.1296 88.2316 87.8242 88.3054 87.5571 88.4532C87.2901 88.6009 87.0784 88.814 86.9222 89.0924C86.7688 89.3679 86.6921 89.6961 86.6921 90.0768ZM95.2393 94.304C94.7024 94.304 94.2322 94.162 93.8288 93.8779C93.4254 93.5938 93.11 93.1975 92.8828 92.689C92.6583 92.1804 92.5461 91.5881 92.5461 90.912C92.5461 90.2387 92.6583 89.6492 92.8828 89.1435C93.11 88.635 93.4268 88.2401 93.8331 87.9589C94.2393 87.6748 94.7123 87.5327 95.2521 87.5327C95.6498 87.5327 95.9808 87.6037 96.245 87.7458C96.5092 87.885 96.7208 88.0583 96.8799 88.2657C97.039 88.4731 97.1626 88.6748 97.2507 88.8708H97.3188V85.4404H98.0816V94.1677H97.3402V92.9532H97.2507C97.1626 93.152 97.0376 93.3566 96.8757 93.5668C96.7137 93.7742 96.4992 93.9489 96.2322 94.091C95.968 94.233 95.637 94.304 95.2393 94.304ZM95.3288 93.6094C95.7521 93.6094 96.1129 93.4944 96.4112 93.2643C96.7095 93.0313 96.9367 92.7117 97.093 92.3054C97.2521 91.8964 97.3316 91.4276 97.3316 90.8992C97.3316 90.3765 97.2535 89.9148 97.0973 89.5143C96.941 89.1108 96.7137 88.7955 96.4154 88.5682C96.1171 88.3381 95.7549 88.2231 95.3288 88.2231C94.8913 88.2231 94.522 88.3424 94.2208 88.581C93.9225 88.8168 93.6953 89.1364 93.539 89.5398C93.3856 89.9432 93.3089 90.3964 93.3089 90.8992C93.3089 91.4077 93.387 91.8665 93.5433 92.2756C93.6995 92.6847 93.9268 93.01 94.2251 93.2515C94.5262 93.4901 94.8941 93.6094 95.3288 93.6094ZM106.161 94.304C105.596 94.304 105.096 94.1606 104.661 93.8736C104.229 93.5867 103.891 93.1904 103.647 92.6847C103.403 92.1762 103.28 91.5895 103.28 90.9248C103.28 90.2543 103.403 89.6648 103.647 89.1563C103.891 88.6449 104.229 88.2472 104.661 87.9631C105.096 87.6762 105.596 87.5327 106.161 87.5327C106.727 87.5327 107.225 87.6762 107.657 87.9631C108.089 88.25 108.427 88.6478 108.671 89.1563C108.918 89.6648 109.042 90.2543 109.042 90.9248C109.042 91.5895 108.92 92.1762 108.675 92.6847C108.431 93.1904 108.092 93.5867 107.657 93.8736C107.225 94.1606 106.727 94.304 106.161 94.304ZM106.161 93.6094C106.616 93.6094 107.001 93.4873 107.316 93.2429C107.631 92.9986 107.87 92.6733 108.032 92.2671C108.197 91.8608 108.279 91.4134 108.279 90.9248C108.279 90.4361 108.197 89.9873 108.032 89.5782C107.87 89.1691 107.631 88.841 107.316 88.5938C107.001 88.3466 106.616 88.2231 106.161 88.2231C105.709 88.2231 105.325 88.3466 105.006 88.5938C104.691 88.841 104.451 89.1691 104.286 89.5782C104.124 89.9873 104.043 90.4361 104.043 90.9248C104.043 91.4134 104.124 91.8608 104.286 92.2671C104.451 92.6733 104.691 92.9986 105.006 93.2429C105.322 93.4873 105.707 93.6094 106.161 93.6094ZM110.707 96.6222V87.6222H111.444V88.8708H111.534C111.625 88.6748 111.75 88.4745 111.909 88.2699C112.068 88.0625 112.278 87.8878 112.539 87.7458C112.804 87.6037 113.136 87.5327 113.537 87.5327C114.076 87.5327 114.548 87.6748 114.951 87.9589C115.358 88.2401 115.673 88.635 115.897 89.1435C116.125 89.6492 116.238 90.2387 116.238 90.912C116.238 91.5881 116.125 92.1804 115.897 92.689C115.673 93.1975 115.358 93.5938 114.951 93.8779C114.548 94.162 114.079 94.304 113.545 94.304C113.15 94.304 112.819 94.233 112.552 94.091C112.288 93.9489 112.073 93.7742 111.909 93.5668C111.747 93.3566 111.622 93.152 111.534 92.9532H111.466V96.6222H110.707ZM111.457 90.8992C111.457 91.4276 111.535 91.8964 111.691 92.3054C111.85 92.7117 112.078 93.0313 112.373 93.2643C112.671 93.4944 113.032 93.6094 113.456 93.6094C113.89 93.6094 114.257 93.4901 114.555 93.2515C114.856 93.01 115.085 92.6847 115.241 92.2756C115.4 91.8665 115.48 91.4077 115.48 90.8992C115.48 90.3964 115.402 89.9432 115.245 89.5398C115.092 89.1364 114.865 88.8168 114.564 88.581C114.262 88.3424 113.893 88.2231 113.456 88.2231C113.029 88.2231 112.667 88.3381 112.369 88.5682C112.071 88.7955 111.843 89.1108 111.687 89.5143C111.534 89.9148 111.457 90.3765 111.457 90.8992ZM120.48 87.6222V88.2827H117.357V87.6222H120.48ZM118.333 86.054H119.095V92.4589C119.095 92.7316 119.142 92.9461 119.236 93.1023C119.33 93.2557 119.452 93.3651 119.603 93.4304C119.753 93.4929 119.914 93.5242 120.084 93.5242C120.184 93.5242 120.269 93.5185 120.34 93.5072C120.411 93.4929 120.473 93.4787 120.527 93.4645L120.689 94.1506C120.615 94.179 120.524 94.2046 120.417 94.2273C120.309 94.2529 120.175 94.2657 120.016 94.2657C119.738 94.2657 119.469 94.2046 119.211 94.0824C118.955 93.9603 118.745 93.7785 118.58 93.537C118.415 93.2955 118.333 92.9958 118.333 92.6378V86.054ZM122.212 94.1677V87.6222H122.974V94.1677H122.212ZM122.599 86.4972C122.443 86.4972 122.31 86.4447 122.199 86.3395C122.088 86.2316 122.033 86.1023 122.033 85.9518C122.033 85.8012 122.088 85.6733 122.199 85.5682C122.31 85.4603 122.443 85.4063 122.599 85.4063C122.756 85.4063 122.889 85.4603 123 85.5682C123.111 85.6733 123.166 85.8012 123.166 85.9518C123.166 86.1023 123.111 86.2316 123 86.3395C122.889 86.4447 122.756 86.4972 122.599 86.4972ZM124.98 94.1677V87.6222H125.718V88.6279H125.786C125.917 88.2898 126.134 88.0242 126.438 87.831C126.745 87.635 127.113 87.537 127.542 87.537C127.993 87.537 128.364 87.6435 128.654 87.8566C128.946 88.0668 129.165 88.3566 129.31 88.7259H129.365C129.513 88.3623 129.753 88.0739 130.086 87.8608C130.421 87.6449 130.827 87.537 131.304 87.537C131.912 87.537 132.392 87.7287 132.745 88.1123C133.097 88.4929 133.273 89.0498 133.273 89.7827V94.1677H132.515V89.7827C132.515 89.2657 132.382 88.8779 132.118 88.6194C131.854 88.3608 131.506 88.2316 131.074 88.2316C130.574 88.2316 130.189 88.385 129.919 88.6918C129.649 88.9986 129.515 89.3878 129.515 89.8594V94.1677H128.739V89.7145C128.739 89.2714 128.615 88.9134 128.368 88.6407C128.121 88.3679 127.773 88.2316 127.324 88.2316C127.023 88.2316 126.752 88.3054 126.51 88.4532C126.272 88.6009 126.083 88.8069 125.943 89.0711C125.807 89.3324 125.739 89.6336 125.739 89.9745V94.1677H124.98ZM135.29 94.1677V87.6222H136.053V94.1677H135.29ZM135.678 86.4972C135.521 86.4972 135.388 86.4447 135.277 86.3395C135.166 86.2316 135.111 86.1023 135.111 85.9518C135.111 85.8012 135.166 85.6733 135.277 85.5682C135.388 85.4603 135.521 85.4063 135.678 85.4063C135.834 85.4063 135.967 85.4603 136.078 85.5682C136.189 85.6733 136.244 85.8012 136.244 85.9518C136.244 86.1023 136.189 86.2316 136.078 86.3395C135.967 86.4447 135.834 86.4972 135.678 86.4972ZM137.854 94.1677V93.5668L141.638 88.3935V88.3381H138.016V87.6222H142.614V88.2486L138.898 93.3964V93.4518H142.75V94.1677H137.854ZM146.881 94.304C146.27 94.304 145.741 94.162 145.295 93.8779C144.849 93.591 144.504 93.1947 144.26 92.689C144.018 92.1804 143.898 91.5952 143.898 90.9333C143.898 90.2742 144.018 89.689 144.26 89.1776C144.504 88.6634 144.841 88.2614 145.27 87.9716C145.702 87.679 146.2 87.5327 146.766 87.5327C147.121 87.5327 147.463 87.5981 147.793 87.7287C148.122 87.8566 148.418 88.054 148.679 88.3211C148.943 88.5853 149.152 88.9191 149.305 89.3225C149.459 89.7231 149.535 90.1975 149.535 90.7458V91.1208H144.422V90.4518H148.76C148.76 90.0313 148.675 89.6535 148.504 89.3182C148.337 88.9802 148.102 88.7131 147.801 88.5171C147.503 88.3211 147.158 88.2231 146.766 88.2231C146.351 88.2231 145.986 88.3339 145.67 88.5554C145.355 88.777 145.108 89.0697 144.929 89.4333C144.753 89.7969 144.663 90.1947 144.66 90.6265V91.027C144.66 91.5469 144.75 92.0015 144.929 92.3907C145.111 92.777 145.368 93.0768 145.7 93.2898C146.033 93.5029 146.426 93.6094 146.881 93.6094C147.19 93.6094 147.462 93.5611 147.695 93.4645C147.93 93.3679 148.128 93.2387 148.287 93.0768C148.449 92.912 148.571 92.7316 148.653 92.5356L149.374 92.7699C149.274 93.0455 149.111 93.2998 148.883 93.5327C148.659 93.7657 148.378 93.9532 148.04 94.0952C147.705 94.2344 147.318 94.304 146.881 94.304ZM155.11 96.6222C154.96 96.6222 154.819 96.608 154.689 96.5796C154.558 96.5512 154.454 96.5199 154.377 96.4858L154.582 95.8168C154.841 95.8964 155.071 95.9248 155.272 95.902C155.474 95.8822 155.653 95.7912 155.809 95.6293C155.966 95.4702 156.105 95.2259 156.227 94.8964L156.466 94.2316L154.058 87.6222H154.88L156.823 93.1662H156.883L158.826 87.6222H159.649L156.879 95.2032C156.762 95.5185 156.619 95.7813 156.448 95.9915C156.278 96.2046 156.081 96.3623 155.856 96.4645C155.635 96.5697 155.386 96.6222 155.11 96.6222ZM163.442 94.304C162.877 94.304 162.377 94.1606 161.942 93.8736C161.511 93.5867 161.173 93.1904 160.928 92.6847C160.684 92.1762 160.562 91.5895 160.562 90.9248C160.562 90.2543 160.684 89.6648 160.928 89.1563C161.173 88.6449 161.511 88.2472 161.942 87.9631C162.377 87.6762 162.877 87.5327 163.442 87.5327C164.008 87.5327 164.506 87.6762 164.938 87.9631C165.37 88.25 165.708 88.6478 165.952 89.1563C166.2 89.6648 166.323 90.2543 166.323 90.9248C166.323 91.5895 166.201 92.1762 165.957 92.6847C165.712 93.1904 165.373 93.5867 164.938 93.8736C164.506 94.1606 164.008 94.304 163.442 94.304ZM163.442 93.6094C163.897 93.6094 164.282 93.4873 164.597 93.2429C164.913 92.9986 165.151 92.6733 165.313 92.2671C165.478 91.8608 165.56 91.4134 165.56 90.9248C165.56 90.4361 165.478 89.9873 165.313 89.5782C165.151 89.1691 164.913 88.841 164.597 88.5938C164.282 88.3466 163.897 88.2231 163.442 88.2231C162.991 88.2231 162.606 88.3466 162.288 88.5938C161.972 88.841 161.732 89.1691 161.567 89.5782C161.405 89.9873 161.325 90.4361 161.325 90.9248C161.325 91.4134 161.405 91.8608 161.567 92.2671C161.732 92.6733 161.972 92.9986 162.288 93.2429C162.603 93.4873 162.988 93.6094 163.442 93.6094ZM172.147 91.6662V87.6222H172.906V94.1677H172.147V93.081H172.088C171.934 93.4162 171.691 93.6961 171.359 93.9205C171.027 94.1421 170.62 94.2529 170.14 94.2529C169.723 94.2529 169.352 94.162 169.028 93.9802C168.704 93.7955 168.45 93.5256 168.265 93.1705C168.081 92.8154 167.988 92.3793 167.988 91.8623V87.6222H168.747V91.8154C168.747 92.3268 168.897 92.7387 169.198 93.0512C169.5 93.3608 169.886 93.5157 170.358 93.5157C170.653 93.5157 170.937 93.4447 171.21 93.3026C171.483 93.1606 171.707 92.9532 171.883 92.6804C172.059 92.4049 172.147 92.0668 172.147 91.6662ZM174.914 94.1677V87.6222H175.651V88.6279H175.707C175.837 88.2983 176.065 88.0327 176.388 87.831C176.715 87.6265 177.084 87.5242 177.496 87.5242C177.559 87.5242 177.629 87.5256 177.705 87.5285C177.782 87.5313 177.846 87.5341 177.897 87.537V88.3083C177.863 88.3026 177.803 88.2941 177.718 88.2827C177.633 88.2714 177.54 88.2657 177.441 88.2657C177.1 88.2657 176.796 88.3381 176.529 88.483C176.265 88.625 176.056 88.8225 175.903 89.0753C175.749 89.3282 175.673 89.6165 175.673 89.9404V94.1677H174.914ZM184.923 94.304C184.386 94.304 183.916 94.162 183.512 93.8779C183.109 93.5938 182.794 93.1975 182.566 92.689C182.342 92.1804 182.23 91.5881 182.23 90.912C182.23 90.2387 182.342 89.6492 182.566 89.1435C182.794 88.635 183.11 88.2401 183.517 87.9589C183.923 87.6748 184.396 87.5327 184.936 87.5327C185.333 87.5327 185.664 87.6037 185.929 87.7458C186.193 87.885 186.404 88.0583 186.564 88.2657C186.723 88.4731 186.846 88.6748 186.934 88.8708H187.002V85.4404H187.765V94.1677H187.024V92.9532H186.934C186.846 93.152 186.721 93.3566 186.559 93.5668C186.397 93.7742 186.183 93.9489 185.916 94.091C185.652 94.233 185.321 94.304 184.923 94.304ZM185.012 93.6094C185.436 93.6094 185.796 93.4944 186.095 93.2643C186.393 93.0313 186.62 92.7117 186.777 92.3054C186.936 91.8964 187.015 91.4276 187.015 90.8992C187.015 90.3765 186.937 89.9148 186.781 89.5143C186.625 89.1108 186.397 88.7955 186.099 88.5682C185.801 88.3381 185.439 88.2231 185.012 88.2231C184.575 88.2231 184.206 88.3424 183.904 88.581C183.606 88.8168 183.379 89.1364 183.223 89.5398C183.069 89.9432 182.992 90.3964 182.992 90.8992C182.992 91.4077 183.071 91.8665 183.227 92.2756C183.383 92.6847 183.61 93.01 183.909 93.2515C184.21 93.4901 184.578 93.6094 185.012 93.6094ZM192.572 94.304C191.961 94.304 191.433 94.162 190.987 93.8779C190.541 93.591 190.196 93.1947 189.951 92.689C189.71 92.1804 189.589 91.5952 189.589 90.9333C189.589 90.2742 189.71 89.689 189.951 89.1776C190.196 88.6634 190.532 88.2614 190.961 87.9716C191.393 87.679 191.892 87.5327 192.457 87.5327C192.812 87.5327 193.154 87.5981 193.484 87.7287C193.814 87.8566 194.109 88.054 194.37 88.3211C194.635 88.5853 194.843 88.9191 194.997 89.3225C195.15 89.7231 195.227 90.1975 195.227 90.7458V91.1208H190.113V90.4518H194.451C194.451 90.0313 194.366 89.6535 194.196 89.3182C194.028 88.9802 193.794 88.7131 193.492 88.5171C193.194 88.3211 192.849 88.2231 192.457 88.2231C192.042 88.2231 191.677 88.3339 191.362 88.5554C191.046 88.777 190.799 89.0697 190.62 89.4333C190.444 89.7969 190.355 90.1947 190.352 90.6265V91.027C190.352 91.5469 190.441 92.0015 190.62 92.3907C190.802 92.777 191.059 93.0768 191.392 93.2898C191.724 93.5029 192.117 93.6094 192.572 93.6094C192.882 93.6094 193.153 93.5611 193.386 93.4645C193.622 93.3679 193.819 93.2387 193.978 93.0768C194.14 92.912 194.262 92.7316 194.345 92.5356L195.065 92.7699C194.966 93.0455 194.802 93.2998 194.575 93.5327C194.35 93.7657 194.069 93.9532 193.731 94.0952C193.396 94.2344 193.01 94.304 192.572 94.304ZM199.455 94.304C198.87 94.304 198.36 94.1577 197.925 93.8651C197.494 93.5725 197.158 93.1719 196.92 92.6634C196.681 92.1549 196.562 91.5753 196.562 90.9248C196.562 90.2685 196.682 89.6847 196.924 89.1733C197.168 88.662 197.506 88.2614 197.938 87.9716C198.37 87.679 198.871 87.5327 199.442 87.5327C199.88 87.5327 200.276 87.6179 200.631 87.7884C200.986 87.956 201.279 88.1932 201.509 88.5C201.742 88.804 201.888 89.1591 201.948 89.5654H201.181C201.102 89.1961 200.91 88.8807 200.606 88.6194C200.305 88.3552 199.921 88.2231 199.455 88.2231C199.038 88.2231 198.668 88.3367 198.347 88.564C198.026 88.7884 197.775 89.1023 197.593 89.5057C197.414 89.9063 197.325 90.3708 197.325 90.8992C197.325 91.4304 197.413 91.9006 197.589 92.3097C197.765 92.716 198.012 93.0341 198.33 93.2643C198.651 93.4944 199.026 93.6094 199.455 93.6094C199.745 93.6094 200.009 93.5554 200.248 93.4475C200.489 93.3367 200.691 93.1804 200.853 92.9787C201.018 92.777 201.129 92.537 201.185 92.2586H201.952C201.896 92.6535 201.755 93.0057 201.53 93.3154C201.309 93.6222 201.021 93.8637 200.665 94.0398C200.313 94.216 199.91 94.304 199.455 94.304ZM204.268 91.6961L204.26 90.7032H204.43L207.499 87.6222H208.457L205.428 90.6563L205.359 90.6691L204.268 91.6961ZM203.578 94.1677V85.4404H204.337V94.1677H203.578ZM207.656 94.1677L204.997 90.8054L205.543 90.2813L208.628 94.1677H207.656ZM216.79 90.0682V90.7841H213.16V90.0682H216.79ZM224.627 94.304C224.042 94.304 223.532 94.1577 223.097 93.8651C222.665 93.5725 222.33 93.1719 222.092 92.6634C221.853 92.1549 221.734 91.5753 221.734 90.9248C221.734 90.2685 221.854 89.6847 222.096 89.1733C222.34 88.662 222.678 88.2614 223.11 87.9716C223.542 87.679 224.043 87.5327 224.614 87.5327C225.052 87.5327 225.448 87.6179 225.803 87.7884C226.158 87.956 226.451 88.1932 226.681 88.5C226.914 88.804 227.06 89.1591 227.12 89.5654H226.353C226.273 89.1961 226.082 88.8807 225.778 88.6194C225.477 88.3552 225.093 88.2231 224.627 88.2231C224.209 88.2231 223.84 88.3367 223.519 88.564C223.198 88.7884 222.947 89.1023 222.765 89.5057C222.586 89.9063 222.496 90.3708 222.496 90.8992C222.496 91.4304 222.584 91.9006 222.761 92.3097C222.937 92.716 223.184 93.0341 223.502 93.2643C223.823 93.4944 224.198 93.6094 224.627 93.6094C224.917 93.6094 225.181 93.5554 225.42 93.4475C225.661 93.3367 225.863 93.1804 226.025 92.9787C226.19 92.777 226.3 92.537 226.357 92.2586H227.124C227.067 92.6535 226.927 93.0057 226.702 93.3154C226.481 93.6222 226.192 93.8637 225.837 94.0398C225.485 94.216 225.082 94.304 224.627 94.304ZM228.75 94.1677V87.6222H229.487V88.6279H229.543C229.673 88.2983 229.901 88.0327 230.224 87.831C230.551 87.6265 230.92 87.5242 231.332 87.5242C231.395 87.5242 231.464 87.5256 231.541 87.5285C231.618 87.5313 231.682 87.5341 231.733 87.537V88.3083C231.699 88.3026 231.639 88.2941 231.554 88.2827C231.469 88.2714 231.376 88.2657 231.277 88.2657C230.936 88.2657 230.632 88.3381 230.365 88.483C230.101 88.625 229.892 88.8225 229.739 89.0753C229.585 89.3282 229.508 89.6165 229.508 89.9404V94.1677H228.75ZM235.474 94.304C234.864 94.304 234.335 94.162 233.889 93.8779C233.443 93.591 233.098 93.1947 232.854 92.689C232.612 92.1804 232.491 91.5952 232.491 90.9333C232.491 90.2742 232.612 89.689 232.854 89.1776C233.098 88.6634 233.435 88.2614 233.864 87.9716C234.295 87.679 234.794 87.5327 235.359 87.5327C235.714 87.5327 236.057 87.5981 236.386 87.7287C236.716 87.8566 237.011 88.054 237.273 88.3211C237.537 88.5853 237.746 88.9191 237.899 89.3225C238.053 89.7231 238.129 90.1975 238.129 90.7458V91.1208H233.016V90.4518H237.354C237.354 90.0313 237.268 89.6535 237.098 89.3182C236.93 88.9802 236.696 88.7131 236.395 88.5171C236.097 88.3211 235.751 88.2231 235.359 88.2231C234.945 88.2231 234.58 88.3339 234.264 88.5554C233.949 88.777 233.702 89.0697 233.523 89.4333C233.347 89.7969 233.257 90.1947 233.254 90.6265V91.027C233.254 91.5469 233.344 92.0015 233.523 92.3907C233.705 92.777 233.962 93.0768 234.294 93.2898C234.626 93.5029 235.02 93.6094 235.474 93.6094C235.784 93.6094 236.055 93.5611 236.288 93.4645C236.524 93.3679 236.722 93.2387 236.881 93.0768C237.043 92.912 237.165 92.7316 237.247 92.5356L237.967 92.7699C237.868 93.0455 237.705 93.2998 237.477 93.5327C237.253 93.7657 236.972 93.9532 236.633 94.0952C236.298 94.2344 235.912 94.304 235.474 94.304ZM241.629 94.3168C241.234 94.3168 240.873 94.2401 240.546 94.0867C240.22 93.9304 239.96 93.706 239.767 93.4134C239.573 93.1179 239.477 92.76 239.477 92.3395C239.477 92.0157 239.538 91.7429 239.66 91.5214C239.782 91.2998 239.956 91.1179 240.18 90.9759C240.404 90.8339 240.67 90.7216 240.977 90.6393C241.284 90.5569 241.622 90.4929 241.991 90.4475C242.358 90.402 242.667 90.3623 242.92 90.3282C243.176 90.2941 243.37 90.2401 243.504 90.1662C243.637 90.0924 243.704 89.9731 243.704 89.8083V89.6549C243.704 89.2089 243.571 88.858 243.304 88.6023C243.039 88.3438 242.659 88.2145 242.162 88.2145C241.69 88.2145 241.305 88.3182 241.007 88.5256C240.711 88.733 240.504 88.9773 240.385 89.2586L239.664 88.9986C239.812 88.6407 240.017 88.3552 240.278 88.1421C240.539 87.9262 240.832 87.7714 241.156 87.6776C241.48 87.581 241.808 87.5327 242.14 87.5327C242.39 87.5327 242.65 87.5654 242.92 87.6307C243.193 87.6961 243.446 87.8097 243.679 87.9716C243.912 88.1307 244.1 88.3537 244.245 88.6407C244.39 88.9248 244.463 89.2856 244.463 89.7231V94.1677H243.704V93.1322H243.657C243.566 93.3253 243.431 93.5128 243.252 93.6947C243.073 93.8765 242.849 94.0256 242.579 94.1421C242.309 94.2586 241.992 94.3168 241.629 94.3168ZM241.731 93.6222C242.135 93.6222 242.484 93.5327 242.779 93.3537C243.075 93.1748 243.302 92.9375 243.461 92.6421C243.623 92.3438 243.704 92.0157 243.704 91.6577V90.7117C243.647 90.7657 243.552 90.814 243.419 90.8566C243.288 90.8992 243.136 90.9375 242.963 90.9716C242.792 91.0029 242.622 91.0299 242.451 91.0526C242.281 91.0753 242.127 91.0952 241.991 91.1123C241.622 91.1577 241.306 91.2287 241.045 91.3253C240.784 91.4219 240.583 91.5554 240.444 91.7259C240.305 91.8935 240.235 92.1094 240.235 92.3736C240.235 92.7714 240.377 93.0796 240.662 93.2983C240.946 93.5143 241.302 93.6222 241.731 93.6222ZM249.059 87.6222V88.2827H245.935V87.6222H249.059ZM246.911 86.054H247.674V92.4589C247.674 92.7316 247.72 92.9461 247.814 93.1023C247.908 93.2557 248.03 93.3651 248.181 93.4304C248.331 93.4929 248.492 93.5242 248.662 93.5242C248.762 93.5242 248.847 93.5185 248.918 93.5072C248.989 93.4929 249.051 93.4787 249.105 93.4645L249.267 94.1506C249.193 94.179 249.103 94.2046 248.995 94.2273C248.887 94.2529 248.753 94.2657 248.594 94.2657C248.316 94.2657 248.047 94.2046 247.789 94.0824C247.533 93.9603 247.323 93.7785 247.158 93.537C246.993 93.2955 246.911 92.9958 246.911 92.6378V86.054ZM253.357 94.304C252.746 94.304 252.218 94.162 251.772 93.8779C251.326 93.591 250.981 93.1947 250.736 92.689C250.495 92.1804 250.374 91.5952 250.374 90.9333C250.374 90.2742 250.495 89.689 250.736 89.1776C250.981 88.6634 251.317 88.2614 251.746 87.9716C252.178 87.679 252.677 87.5327 253.242 87.5327C253.597 87.5327 253.94 87.5981 254.269 87.7287C254.599 87.8566 254.894 88.054 255.155 88.3211C255.42 88.5853 255.629 88.9191 255.782 89.3225C255.935 89.7231 256.012 90.1975 256.012 90.7458V91.1208H250.898V90.4518H255.236C255.236 90.0313 255.151 89.6535 254.981 89.3182C254.813 88.9802 254.579 88.7131 254.278 88.5171C253.979 88.3211 253.634 88.2231 253.242 88.2231C252.827 88.2231 252.462 88.3339 252.147 88.5554C251.832 88.777 251.584 89.0697 251.405 89.4333C251.229 89.7969 251.14 90.1947 251.137 90.6265V91.027C251.137 91.5469 251.227 92.0015 251.405 92.3907C251.587 92.777 251.844 93.0768 252.177 93.2898C252.509 93.5029 252.903 93.6094 253.357 93.6094C253.667 93.6094 253.938 93.5611 254.171 93.4645C254.407 93.3679 254.604 93.2387 254.763 93.0768C254.925 92.912 255.048 92.7316 255.13 92.5356L255.85 92.7699C255.751 93.0455 255.587 93.2998 255.36 93.5327C255.136 93.7657 254.854 93.9532 254.516 94.0952C254.181 94.2344 253.795 94.304 253.357 94.304ZM263.637 87.6222V88.2827H260.513V87.6222H263.637ZM261.489 86.054H262.252V92.4589C262.252 92.7316 262.299 92.9461 262.392 93.1023C262.486 93.2557 262.608 93.3651 262.759 93.4304C262.909 93.4929 263.07 93.5242 263.24 93.5242C263.34 93.5242 263.425 93.5185 263.496 93.5072C263.567 93.4929 263.63 93.4787 263.684 93.4645L263.845 94.1506C263.772 94.179 263.681 94.2046 263.573 94.2273C263.465 94.2529 263.331 94.2657 263.172 94.2657C262.894 94.2657 262.625 94.2046 262.367 94.0824C262.111 93.9603 261.901 93.7785 261.736 93.537C261.571 93.2955 261.489 92.9958 261.489 92.6378V86.054ZM266.258 90.0768V94.1677H265.5V85.4404H266.258V88.6492H266.327C266.48 88.3111 266.717 88.0412 267.038 87.8395C267.362 87.6378 267.771 87.537 268.266 87.537C268.709 87.537 269.098 87.6279 269.433 87.8097C269.768 87.9915 270.03 88.26 270.217 88.6151C270.405 88.9702 270.499 89.4077 270.499 89.9276V94.1677H269.736V89.9745C269.736 89.4347 269.585 89.01 269.284 88.7003C268.986 88.3878 268.582 88.2316 268.074 88.2316C267.724 88.2316 267.413 88.3054 267.141 88.4532C266.868 88.6009 266.652 88.814 266.493 89.0924C266.337 89.3679 266.258 89.6961 266.258 90.0768ZM275.142 94.304C274.532 94.304 274.003 94.162 273.557 93.8779C273.111 93.591 272.766 93.1947 272.522 92.689C272.28 92.1804 272.159 91.5952 272.159 90.9333C272.159 90.2742 272.28 89.689 272.522 89.1776C272.766 88.6634 273.103 88.2614 273.532 87.9716C273.963 87.679 274.462 87.5327 275.027 87.5327C275.382 87.5327 275.725 87.5981 276.054 87.7287C276.384 87.8566 276.679 88.054 276.941 88.3211C277.205 88.5853 277.414 88.9191 277.567 89.3225C277.72 89.7231 277.797 90.1975 277.797 90.7458V91.1208H272.684V90.4518H277.022C277.022 90.0313 276.936 89.6535 276.766 89.3182C276.598 88.9802 276.364 88.7131 276.063 88.5171C275.765 88.3211 275.419 88.2231 275.027 88.2231C274.613 88.2231 274.247 88.3339 273.932 88.5554C273.617 88.777 273.37 89.0697 273.191 89.4333C273.015 89.7969 272.925 90.1947 272.922 90.6265V91.027C272.922 91.5469 273.012 92.0015 273.191 92.3907C273.372 92.777 273.63 93.0768 273.962 93.2898C274.294 93.5029 274.688 93.6094 275.142 93.6094C275.452 93.6094 275.723 93.5611 275.956 93.4645C276.192 93.3679 276.39 93.2387 276.549 93.0768C276.711 92.912 276.833 92.7316 276.915 92.5356L277.635 92.7699C277.536 93.0455 277.372 93.2998 277.145 93.5327C276.921 93.7657 276.64 93.9532 276.301 94.0952C275.966 94.2344 275.58 94.304 275.142 94.304ZM287.003 91.6662V87.6222H287.761V94.1677H287.003V93.081H286.943C286.79 93.4162 286.547 93.6961 286.214 93.9205C285.882 94.1421 285.476 94.2529 284.996 94.2529C284.578 94.2529 284.207 94.162 283.883 93.9802C283.56 93.7955 283.305 93.5256 283.121 93.1705C282.936 92.8154 282.844 92.3793 282.844 91.8623V87.6222H283.602V91.8154C283.602 92.3268 283.753 92.7387 284.054 93.0512C284.355 93.3608 284.741 93.5157 285.213 93.5157C285.508 93.5157 285.793 93.4447 286.065 93.3026C286.338 93.1606 286.562 92.9532 286.739 92.6804C286.915 92.4049 287.003 92.0668 287.003 91.6662ZM290.528 85.4404V94.1677H289.769V85.4404H290.528ZM295.113 87.6222V88.2827H291.99V87.6222H295.113ZM292.966 86.054H293.728V92.4589C293.728 92.7316 293.775 92.9461 293.869 93.1023C293.963 93.2557 294.085 93.3651 294.235 93.4304C294.386 93.4929 294.546 93.5242 294.717 93.5242C294.816 93.5242 294.902 93.5185 294.973 93.5072C295.044 93.4929 295.106 93.4787 295.16 93.4645L295.322 94.1506C295.248 94.179 295.157 94.2046 295.049 94.2273C294.941 94.2529 294.808 94.2657 294.649 94.2657C294.37 94.2657 294.102 94.2046 293.843 94.0824C293.588 93.9603 293.377 93.7785 293.213 93.537C293.048 93.2955 292.966 92.9958 292.966 92.6378V86.054ZM296.844 94.1677V87.6222H297.607V94.1677H296.844ZM297.232 86.4972C297.076 86.4972 296.942 86.4447 296.832 86.3395C296.721 86.2316 296.665 86.1023 296.665 85.9518C296.665 85.8012 296.721 85.6733 296.832 85.5682C296.942 85.4603 297.076 85.4063 297.232 85.4063C297.388 85.4063 297.522 85.4603 297.633 85.5682C297.744 85.6733 297.799 85.8012 297.799 85.9518C297.799 86.1023 297.744 86.2316 297.633 86.3395C297.522 86.4447 297.388 86.4972 297.232 86.4972ZM299.613 94.1677V87.6222H300.35V88.6279H300.419C300.549 88.2898 300.767 88.0242 301.071 87.831C301.377 87.635 301.745 87.537 302.174 87.537C302.626 87.537 302.997 87.6435 303.287 87.8566C303.579 88.0668 303.798 88.3566 303.943 88.7259H303.998C304.146 88.3623 304.386 88.0739 304.718 87.8608C305.054 87.6449 305.46 87.537 305.937 87.537C306.545 87.537 307.025 87.7287 307.377 88.1123C307.73 88.4929 307.906 89.0498 307.906 89.7827V94.1677H307.147V89.7827C307.147 89.2657 307.015 88.8779 306.751 88.6194C306.487 88.3608 306.139 88.2316 305.707 88.2316C305.207 88.2316 304.822 88.385 304.552 88.6918C304.282 88.9986 304.147 89.3878 304.147 89.8594V94.1677H303.372V89.7145C303.372 89.2714 303.248 88.9134 303.001 88.6407C302.754 88.3679 302.406 88.2316 301.957 88.2316C301.656 88.2316 301.385 88.3054 301.143 88.4532C300.904 88.6009 300.716 88.8069 300.576 89.0711C300.44 89.3324 300.372 89.6336 300.372 89.9745V94.1677H299.613ZM311.742 94.3168C311.347 94.3168 310.986 94.2401 310.66 94.0867C310.333 93.9304 310.073 93.706 309.88 93.4134C309.687 93.1179 309.59 92.76 309.59 92.3395C309.59 92.0157 309.651 91.7429 309.773 91.5214C309.896 91.2998 310.069 91.1179 310.293 90.9759C310.518 90.8339 310.783 90.7216 311.09 90.6393C311.397 90.5569 311.735 90.4929 312.104 90.4475C312.471 90.402 312.78 90.3623 313.033 90.3282C313.289 90.2941 313.484 90.2401 313.617 90.1662C313.751 90.0924 313.817 89.9731 313.817 89.8083V89.6549C313.817 89.2089 313.684 88.858 313.417 88.6023C313.153 88.3438 312.772 88.2145 312.275 88.2145C311.803 88.2145 311.418 88.3182 311.12 88.5256C310.825 88.733 310.617 88.9773 310.498 89.2586L309.778 88.9986C309.925 88.6407 310.13 88.3552 310.391 88.1421C310.653 87.9262 310.945 87.7714 311.269 87.6776C311.593 87.581 311.921 87.5327 312.254 87.5327C312.504 87.5327 312.763 87.5654 313.033 87.6307C313.306 87.6961 313.559 87.8097 313.792 87.9716C314.025 88.1307 314.214 88.3537 314.359 88.6407C314.504 88.9248 314.576 89.2856 314.576 89.7231V94.1677H313.817V93.1322H313.771C313.68 93.3253 313.545 93.5128 313.366 93.6947C313.187 93.8765 312.962 94.0256 312.692 94.1421C312.423 94.2586 312.106 94.3168 311.742 94.3168ZM311.844 93.6222C312.248 93.6222 312.597 93.5327 312.893 93.3537C313.188 93.1748 313.415 92.9375 313.575 92.6421C313.736 92.3438 313.817 92.0157 313.817 91.6577V90.7117C313.761 90.7657 313.665 90.814 313.532 90.8566C313.401 90.8992 313.249 90.9375 313.076 90.9716C312.905 91.0029 312.735 91.0299 312.565 91.0526C312.394 91.0753 312.241 91.0952 312.104 91.1123C311.735 91.1577 311.42 91.2287 311.158 91.3253C310.897 91.4219 310.697 91.5554 310.557 91.7259C310.418 91.8935 310.349 92.1094 310.349 92.3736C310.349 92.7714 310.491 93.0796 310.775 93.2983C311.059 93.5143 311.415 93.6222 311.844 93.6222ZM319.172 87.6222V88.2827H316.048V87.6222H319.172ZM317.024 86.054H317.787V92.4589C317.787 92.7316 317.834 92.9461 317.928 93.1023C318.021 93.2557 318.143 93.3651 318.294 93.4304C318.445 93.4929 318.605 93.5242 318.776 93.5242C318.875 93.5242 318.96 93.5185 319.031 93.5072C319.102 93.4929 319.165 93.4787 319.219 93.4645L319.381 94.1506C319.307 94.179 319.216 94.2046 319.108 94.2273C319 94.2529 318.866 94.2657 318.707 94.2657C318.429 94.2657 318.16 94.2046 317.902 94.0824C317.646 93.9603 317.436 93.7785 317.271 93.537C317.106 93.2955 317.024 92.9958 317.024 92.6378V86.054ZM323.47 94.304C322.86 94.304 322.331 94.162 321.885 93.8779C321.439 93.591 321.094 93.1947 320.85 92.689C320.608 92.1804 320.488 91.5952 320.488 90.9333C320.488 90.2742 320.608 89.689 320.85 89.1776C321.094 88.6634 321.431 88.2614 321.86 87.9716C322.292 87.679 322.79 87.5327 323.355 87.5327C323.711 87.5327 324.053 87.5981 324.382 87.7287C324.712 87.8566 325.007 88.054 325.269 88.3211C325.533 88.5853 325.742 88.9191 325.895 89.3225C326.049 89.7231 326.125 90.1975 326.125 90.7458V91.1208H321.012V90.4518H325.35C325.35 90.0313 325.265 89.6535 325.094 89.3182C324.926 88.9802 324.692 88.7131 324.391 88.5171C324.093 88.3211 323.747 88.2231 323.355 88.2231C322.941 88.2231 322.576 88.3339 322.26 88.5554C321.945 88.777 321.698 89.0697 321.519 89.4333C321.343 89.7969 321.253 90.1947 321.25 90.6265V91.027C321.25 91.5469 321.34 92.0015 321.519 92.3907C321.701 92.777 321.958 93.0768 322.29 93.2898C322.622 93.5029 323.016 93.6094 323.47 93.6094C323.78 93.6094 324.051 93.5611 324.284 93.4645C324.52 93.3679 324.718 93.2387 324.877 93.0768C325.039 92.912 325.161 92.7316 325.243 92.5356L325.963 92.7699C325.864 93.0455 325.701 93.2998 325.473 93.5327C325.249 93.7657 324.968 93.9532 324.63 94.0952C324.294 94.2344 323.908 94.304 323.47 94.304ZM331.33 94.1677V85.4404H332.092V88.8708H332.16C332.246 88.6748 332.368 88.4731 332.527 88.2657C332.689 88.0583 332.901 87.885 333.162 87.7458C333.426 87.6037 333.758 87.5327 334.159 87.5327C334.696 87.5327 335.168 87.6748 335.574 87.9589C335.98 88.2401 336.297 88.635 336.524 89.1435C336.751 89.6492 336.865 90.2387 336.865 90.912C336.865 91.5881 336.751 92.1804 336.524 92.689C336.3 93.1975 335.984 93.5938 335.578 93.8779C335.175 94.162 334.706 94.304 334.172 94.304C333.774 94.304 333.442 94.233 333.175 94.091C332.91 93.9489 332.697 93.7742 332.535 93.5668C332.374 93.3566 332.249 93.152 332.16 92.9532H332.067V94.1677H331.33ZM332.08 90.8992C332.08 91.4276 332.158 91.8964 332.314 92.3054C332.473 92.7117 332.7 93.0313 332.996 93.2643C333.294 93.4944 333.655 93.6094 334.078 93.6094C334.513 93.6094 334.881 93.4901 335.182 93.2515C335.483 93.01 335.712 92.6847 335.868 92.2756C336.024 91.8665 336.102 91.4077 336.102 90.8992C336.102 90.3964 336.024 89.9432 335.868 89.5398C335.714 89.1364 335.487 88.8168 335.186 88.581C334.885 88.3424 334.516 88.2231 334.078 88.2231C333.652 88.2231 333.29 88.3381 332.991 88.5682C332.696 88.7955 332.47 89.1108 332.314 89.5143C332.158 89.9148 332.08 90.3765 332.08 90.8992ZM340.359 94.3168C339.964 94.3168 339.604 94.2401 339.277 94.0867C338.95 93.9304 338.69 93.706 338.497 93.4134C338.304 93.1179 338.207 92.76 338.207 92.3395C338.207 92.0157 338.268 91.7429 338.391 91.5214C338.513 91.2998 338.686 91.1179 338.91 90.9759C339.135 90.8339 339.401 90.7216 339.707 90.6393C340.014 90.5569 340.352 90.4929 340.722 90.4475C341.088 90.402 341.398 90.3623 341.651 90.3282C341.906 90.2941 342.101 90.2401 342.234 90.1662C342.368 90.0924 342.435 89.9731 342.435 89.8083V89.6549C342.435 89.2089 342.301 88.858 342.034 88.6023C341.77 88.3438 341.389 88.2145 340.892 88.2145C340.42 88.2145 340.035 88.3182 339.737 88.5256C339.442 88.733 339.234 88.9773 339.115 89.2586L338.395 88.9986C338.543 88.6407 338.747 88.3552 339.008 88.1421C339.27 87.9262 339.562 87.7714 339.886 87.6776C340.21 87.581 340.538 87.5327 340.871 87.5327C341.121 87.5327 341.381 87.5654 341.651 87.6307C341.923 87.6961 342.176 87.8097 342.409 87.9716C342.642 88.1307 342.831 88.3537 342.976 88.6407C343.121 88.9248 343.193 89.2856 343.193 89.7231V94.1677H342.435V93.1322H342.388C342.297 93.3253 342.162 93.5128 341.983 93.6947C341.804 93.8765 341.58 94.0256 341.31 94.1421C341.04 94.2586 340.723 94.3168 340.359 94.3168ZM340.462 93.6222C340.865 93.6222 341.214 93.5327 341.51 93.3537C341.805 93.1748 342.033 92.9375 342.192 92.6421C342.354 92.3438 342.435 92.0157 342.435 91.6577V90.7117C342.378 90.7657 342.283 90.814 342.149 90.8566C342.018 90.8992 341.866 90.9375 341.693 90.9716C341.523 91.0029 341.352 91.0299 341.182 91.0526C341.011 91.0753 340.858 91.0952 340.722 91.1123C340.352 91.1577 340.037 91.2287 339.776 91.3253C339.514 91.4219 339.314 91.5554 339.175 91.7259C339.035 91.8935 338.966 92.1094 338.966 92.3736C338.966 92.7714 339.108 93.0796 339.392 93.2983C339.676 93.5143 340.033 93.6222 340.462 93.6222ZM347.789 87.6222V88.2827H344.665V87.6222H347.789ZM345.641 86.054H346.404V92.4589C346.404 92.7316 346.451 92.9461 346.545 93.1023C346.638 93.2557 346.761 93.3651 346.911 93.4304C347.062 93.4929 347.222 93.5242 347.393 93.5242C347.492 93.5242 347.577 93.5185 347.648 93.5072C347.719 93.4929 347.782 93.4787 347.836 93.4645L347.998 94.1506C347.924 94.179 347.833 94.2046 347.725 94.2273C347.617 94.2529 347.484 94.2657 347.325 94.2657C347.046 94.2657 346.778 94.2046 346.519 94.0824C346.263 93.9603 346.053 93.7785 345.888 93.537C345.724 93.2955 345.641 92.9958 345.641 92.6378V86.054ZM352.09 87.6222V88.2827H348.966V87.6222H352.09ZM349.942 86.054H350.705V92.4589C350.705 92.7316 350.752 92.9461 350.845 93.1023C350.939 93.2557 351.061 93.3651 351.212 93.4304C351.363 93.4929 351.523 93.5242 351.693 93.5242C351.793 93.5242 351.878 93.5185 351.949 93.5072C352.02 93.4929 352.083 93.4787 352.137 93.4645L352.299 94.1506C352.225 94.179 352.134 94.2046 352.026 94.2273C351.918 94.2529 351.784 94.2657 351.625 94.2657C351.347 94.2657 351.078 94.2046 350.82 94.0824C350.564 93.9603 350.354 93.7785 350.189 93.537C350.024 93.2955 349.942 92.9958 349.942 92.6378V86.054ZM354.712 85.4404V94.1677H353.953V85.4404H354.712ZM359.365 94.304C358.754 94.304 358.226 94.162 357.78 93.8779C357.334 93.591 356.989 93.1947 356.744 92.689C356.503 92.1804 356.382 91.5952 356.382 90.9333C356.382 90.2742 356.503 89.689 356.744 89.1776C356.989 88.6634 357.325 88.2614 357.754 87.9716C358.186 87.679 358.685 87.5327 359.25 87.5327C359.605 87.5327 359.947 87.5981 360.277 87.7287C360.606 87.8566 360.902 88.054 361.163 88.3211C361.428 88.5853 361.636 88.9191 361.79 89.3225C361.943 89.7231 362.02 90.1975 362.02 90.7458V91.1208H356.906V90.4518H361.244C361.244 90.0313 361.159 89.6535 360.989 89.3182C360.821 88.9802 360.587 88.7131 360.285 88.5171C359.987 88.3211 359.642 88.2231 359.25 88.2231C358.835 88.2231 358.47 88.3339 358.155 88.5554C357.839 88.777 357.592 89.0697 357.413 89.4333C357.237 89.7969 357.148 90.1947 357.145 90.6265V91.027C357.145 91.5469 357.234 92.0015 357.413 92.3907C357.595 92.777 357.852 93.0768 358.185 93.2898C358.517 93.5029 358.91 93.6094 359.365 93.6094C359.675 93.6094 359.946 93.5611 360.179 93.4645C360.415 93.3679 360.612 93.2387 360.771 93.0768C360.933 92.912 361.055 92.7316 361.138 92.5356L361.858 92.7699C361.758 93.0455 361.595 93.2998 361.368 93.5327C361.143 93.7657 360.862 93.9532 360.524 94.0952C360.189 94.2344 359.803 94.304 359.365 94.304ZM20.9446 101.058L20.25 101.254C20.1818 101.058 20.0852 100.881 19.9602 100.722C19.8352 100.563 19.6718 100.436 19.4701 100.342C19.2713 100.249 19.0241 100.202 18.7286 100.202C18.2855 100.202 17.9218 100.307 17.6377 100.517C17.3536 100.727 17.2116 100.999 17.2116 101.331C17.2116 101.612 17.3082 101.841 17.5014 102.017C17.6974 102.19 17.9985 102.328 18.4048 102.43L19.3934 102.673C19.9417 102.807 20.3522 103.019 20.625 103.308C20.9005 103.598 21.0383 103.962 21.0383 104.399C21.0383 104.769 20.936 105.097 20.7315 105.384C20.5269 105.671 20.2414 105.896 19.875 106.061C19.5113 106.223 19.0894 106.304 18.6093 106.304C17.9701 106.304 17.4431 106.161 17.0284 105.874C16.6136 105.584 16.348 105.166 16.2315 104.621L16.9602 104.442C17.0539 104.831 17.2372 105.125 17.5099 105.324C17.7855 105.523 18.1477 105.622 18.5965 105.622C19.0994 105.622 19.5014 105.51 19.8025 105.286C20.1036 105.058 20.2542 104.774 20.2542 104.433C20.2542 104.169 20.1661 103.947 19.99 103.769C19.8139 103.587 19.5468 103.453 19.1889 103.368L18.1193 103.112C17.5511 102.976 17.1306 102.76 16.8579 102.465C16.5852 102.169 16.4488 101.803 16.4488 101.365C16.4488 101.004 16.5468 100.688 16.7429 100.415C16.9389 100.139 17.2088 99.9233 17.5525 99.7671C17.8963 99.6108 18.2883 99.5327 18.7286 99.5327C19.3281 99.5327 19.8068 99.6691 20.1647 99.9418C20.5255 100.212 20.7855 100.584 20.9446 101.058ZM25.2773 99.6222V100.283H22.1537V99.6222H25.2773ZM23.1296 98.054H23.8924V104.459C23.8924 104.732 23.9392 104.946 24.033 105.102C24.1267 105.256 24.2489 105.365 24.3995 105.43C24.55 105.493 24.7105 105.524 24.881 105.524C24.9804 105.524 25.0657 105.519 25.1367 105.507C25.2077 105.493 25.2702 105.479 25.3242 105.465L25.4861 106.151C25.4122 106.179 25.3213 106.205 25.2134 106.227C25.1054 106.253 24.9719 106.266 24.8128 106.266C24.5344 106.266 24.2659 106.205 24.0074 106.082C23.7517 105.96 23.5415 105.778 23.3767 105.537C23.212 105.296 23.1296 104.996 23.1296 104.638V98.054ZM27 106.168V99.6222H27.7372V100.628H27.7926C27.9233 100.298 28.1505 100.033 28.4744 99.831C28.8011 99.6265 29.1704 99.5242 29.5823 99.5242C29.6448 99.5242 29.7144 99.5256 29.7911 99.5285C29.8679 99.5313 29.9318 99.5341 29.9829 99.537V100.308C29.9488 100.303 29.8892 100.294 29.8039 100.283C29.7187 100.271 29.6264 100.266 29.5269 100.266C29.186 100.266 28.8821 100.338 28.615 100.483C28.3508 100.625 28.142 100.822 27.9886 101.075C27.8352 101.328 27.7585 101.617 27.7585 101.94V106.168H27ZM33.1054 106.317C32.7105 106.317 32.3497 106.24 32.023 106.087C31.6963 105.93 31.4364 105.706 31.2432 105.413C31.05 105.118 30.9534 104.76 30.9534 104.34C30.9534 104.016 31.0145 103.743 31.1367 103.521C31.2588 103.3 31.4321 103.118 31.6566 102.976C31.881 102.834 32.1466 102.722 32.4534 102.639C32.7603 102.557 33.0983 102.493 33.4676 102.447C33.8341 102.402 34.1438 102.362 34.3966 102.328C34.6523 102.294 34.8469 102.24 34.9804 102.166C35.1139 102.092 35.1807 101.973 35.1807 101.808V101.655C35.1807 101.209 35.0472 100.858 34.7801 100.602C34.5159 100.344 34.1353 100.215 33.6381 100.215C33.1665 100.215 32.7816 100.318 32.4833 100.526C32.1878 100.733 31.9804 100.977 31.8611 101.259L31.1409 100.999C31.2887 100.641 31.4932 100.355 31.7546 100.142C32.0159 99.9262 32.3085 99.7714 32.6324 99.6776C32.9563 99.581 33.2844 99.5327 33.6168 99.5327C33.8668 99.5327 34.1267 99.5654 34.3966 99.6307C34.6693 99.6961 34.9222 99.8097 35.1551 99.9716C35.3881 100.131 35.577 100.354 35.7219 100.641C35.8668 100.925 35.9392 101.286 35.9392 101.723V106.168H35.1807V105.132H35.1338C35.0429 105.325 34.908 105.513 34.729 105.695C34.55 105.876 34.3256 106.026 34.0557 106.142C33.7858 106.259 33.4691 106.317 33.1054 106.317ZM33.2077 105.622C33.6111 105.622 33.9605 105.533 34.256 105.354C34.5514 105.175 34.7787 104.938 34.9378 104.642C35.0997 104.344 35.1807 104.016 35.1807 103.658V102.712C35.1239 102.766 35.0287 102.814 34.8952 102.857C34.7645 102.899 34.6125 102.938 34.4392 102.972C34.2688 103.003 34.0983 103.03 33.9279 103.053C33.7574 103.075 33.604 103.095 33.4676 103.112C33.0983 103.158 32.783 103.229 32.5216 103.325C32.2603 103.422 32.06 103.555 31.9208 103.726C31.7816 103.894 31.712 104.109 31.712 104.374C31.712 104.771 31.854 105.08 32.1381 105.298C32.4222 105.514 32.7787 105.622 33.2077 105.622ZM40.5351 99.6222V100.283H37.4115V99.6222H40.5351ZM38.3874 98.054H39.1502V104.459C39.1502 104.732 39.197 104.946 39.2908 105.102C39.3845 105.256 39.5067 105.365 39.6573 105.43C39.8078 105.493 39.9684 105.524 40.1388 105.524C40.2382 105.524 40.3235 105.519 40.3945 105.507C40.4655 105.493 40.528 105.479 40.582 105.465L40.7439 106.151C40.6701 106.179 40.5791 106.205 40.4712 106.227C40.3632 106.253 40.2297 106.266 40.0706 106.266C39.7922 106.266 39.5237 106.205 39.2652 106.082C39.0095 105.96 38.7993 105.778 38.6345 105.537C38.4698 105.296 38.3874 104.996 38.3874 104.638V98.054ZM44.8338 106.304C44.223 106.304 43.6946 106.162 43.2485 105.878C42.8025 105.591 42.4573 105.195 42.213 104.689C41.9715 104.18 41.8508 103.595 41.8508 102.933C41.8508 102.274 41.9715 101.689 42.213 101.178C42.4573 100.663 42.794 100.261 43.223 99.9716C43.6548 99.679 44.1534 99.5327 44.7187 99.5327C45.0738 99.5327 45.4161 99.5981 45.7457 99.7287C46.0752 99.8566 46.3707 100.054 46.6321 100.321C46.8963 100.585 47.1051 100.919 47.2585 101.322C47.4119 101.723 47.4886 102.197 47.4886 102.746V103.121H42.375V102.452H46.713C46.713 102.031 46.6278 101.653 46.4573 101.318C46.2897 100.98 46.0554 100.713 45.7542 100.517C45.4559 100.321 45.1108 100.223 44.7187 100.223C44.3039 100.223 43.9389 100.334 43.6235 100.555C43.3082 100.777 43.061 101.07 42.8821 101.433C42.7059 101.797 42.6164 102.195 42.6136 102.626V103.027C42.6136 103.547 42.7031 104.001 42.8821 104.391C43.0639 104.777 43.321 105.077 43.6534 105.29C43.9858 105.503 44.3792 105.609 44.8338 105.609C45.1434 105.609 45.4147 105.561 45.6477 105.465C45.8835 105.368 46.0809 105.239 46.24 105.077C46.4019 104.912 46.5241 104.732 46.6065 104.536L47.3267 104.77C47.2272 105.046 47.0639 105.3 46.8366 105.533C46.6122 105.766 46.3309 105.953 45.9929 106.095C45.6576 106.234 45.2713 106.304 44.8338 106.304ZM51.6573 108.759C51.2112 108.759 50.8206 108.7 50.4854 108.584C50.1502 108.47 49.8675 108.314 49.6374 108.115C49.4073 107.916 49.2283 107.693 49.1005 107.446L49.7226 107.037C49.8164 107.202 49.9414 107.364 50.0976 107.523C50.2567 107.682 50.4627 107.814 50.7155 107.919C50.9712 108.024 51.2851 108.077 51.6573 108.077C52.2368 108.077 52.7041 107.932 53.0593 107.642C53.4172 107.352 53.5962 106.902 53.5962 106.291V104.817H53.528C53.4399 105.016 53.3135 105.215 53.1487 105.413C52.984 105.609 52.7681 105.773 52.501 105.903C52.2368 106.034 51.9087 106.099 51.5166 106.099C50.9939 106.099 50.5294 105.97 50.1232 105.712C49.7198 105.453 49.4016 105.084 49.1686 104.604C48.9385 104.121 48.8235 103.546 48.8235 102.878C48.8235 102.216 48.9357 101.634 49.1601 101.131C49.3874 100.628 49.7041 100.236 50.1104 99.9546C50.5166 99.6733 50.9897 99.5327 51.5294 99.5327C51.93 99.5327 52.2624 99.6037 52.5266 99.7458C52.7908 99.885 53.0024 100.058 53.1615 100.266C53.3235 100.473 53.4499 100.675 53.5408 100.871H53.6175V99.6222H54.359V106.338C54.359 106.892 54.2411 107.348 54.0053 107.706C53.7695 108.064 53.4485 108.328 53.0422 108.499C52.636 108.672 52.1743 108.759 51.6573 108.759ZM51.6061 105.405C52.0266 105.405 52.386 105.304 52.6843 105.102C52.9826 104.898 53.2112 104.605 53.3703 104.224C53.5294 103.844 53.609 103.391 53.609 102.865C53.609 102.354 53.5309 101.901 53.3746 101.506C53.2184 101.108 52.9911 100.796 52.6928 100.568C52.3973 100.338 52.0351 100.223 51.6061 100.223C51.1686 100.223 50.7993 100.341 50.4982 100.577C50.197 100.813 49.9698 101.131 49.8164 101.531C49.663 101.929 49.5862 102.374 49.5862 102.865C49.5862 103.365 49.6644 103.807 49.8206 104.19C49.9769 104.571 50.2056 104.869 50.5067 105.085C50.8078 105.298 51.1743 105.405 51.6061 105.405ZM56.8956 108.622C56.745 108.622 56.6044 108.608 56.4737 108.58C56.343 108.551 56.2393 108.52 56.1626 108.486L56.3671 107.817C56.6257 107.896 56.8558 107.925 57.0575 107.902C57.2592 107.882 57.4382 107.791 57.5944 107.629C57.7507 107.47 57.8899 107.226 58.012 106.896L58.2507 106.232L55.843 99.6222H56.6654L58.6086 105.166H58.6683L60.6115 99.6222H61.4339L58.664 107.203C58.5475 107.519 58.4041 107.781 58.2336 107.992C58.0632 108.205 57.8657 108.362 57.6413 108.465C57.4197 108.57 57.1711 108.622 56.8956 108.622Z" fill="#E8E8E8"/>
<g filter="url(#filter0_i_150_26114)">
<path d="M261.715 13.682C261.791 10.1517 261.546 7.574 260.978 5.45452C260.441 3.45332 259.519 1.49782 257.776 -0.664099C255.925 -2.96009 254.209 -4.10726 252.437 -4.68178C250.552 -5.29288 248.295 -5.35301 245.348 -4.84025C244.567 -4.70428 243.095 -4.11448 241.032 -2.97718C240.201 -2.51935 239.336 -2.00545 238.459 -1.46165C240.762 -0.360679 243.159 1.02184 245.33 2.75236C248.181 5.02584 251.394 8.50343 252.838 13.5709L253.046 14.3362C255.067 22.209 253.437 29.0882 252.217 34.0718C250.8 39.8572 249.842 43.5407 250.413 47.53C251.785 57.1057 257.246 67.9647 263.682 74.7136C265.668 76.7962 267.342 78.6631 269.228 80.5676C266.184 76.6655 263.625 72.8322 261.58 68.5267C258.782 62.6381 257.161 56.3374 256.135 48.463C254.946 39.3406 256.755 34.1188 258.483 29.4427C260.023 25.2766 261.548 21.402 261.715 13.682Z" fill="#020C7B" fill-opacity="0.25"/>
</g>
<g filter="url(#filter1_i_150_26114)">
<path d="M374.46 38.6369C377.748 37.3503 380.034 36.1331 381.772 34.7935C383.413 33.5286 384.864 31.9258 386.189 29.4856C387.597 26.8941 387.997 24.8695 387.846 23.0125C387.685 21.0371 386.873 18.9307 385.267 16.4077C384.841 15.7387 383.731 14.6062 381.888 13.1389C381.146 12.5483 380.339 11.9474 379.5 11.3469C379.369 13.8956 379.014 16.64 378.251 19.3092C377.248 22.8157 375.273 27.1183 371.15 30.3996L370.523 30.8854C364.033 35.778 357.056 36.9177 351.986 37.7067C346.1 38.6227 342.331 39.1544 338.868 41.2155C330.556 46.1633 322.631 55.3791 318.874 63.9147C317.715 66.5487 316.635 68.8115 315.602 71.2855C318.035 66.9754 320.59 63.1393 323.778 59.5959C328.139 54.7497 333.332 50.8305 340.207 46.8562C348.171 42.2522 353.687 41.9142 358.668 41.7122C363.106 41.5322 367.269 41.4504 374.46 38.6369Z" fill="#020C7B" fill-opacity="0.25"/>
</g>
<g filter="url(#filter2_i_150_26114)">
<path d="M226.449 -2.92485C225.217 -4.16403 224.396 -5.16167 223.817 -6.09517C223.27 -6.97659 222.839 -7.96051 222.553 -9.27157C222.249 -10.664 222.303 -11.6035 222.57 -12.3559C222.853 -13.1561 223.422 -13.8739 224.369 -14.5996C224.62 -14.792 225.208 -15.0353 226.138 -15.265C226.512 -15.3575 226.915 -15.4405 227.331 -15.5166C227.107 -14.4124 226.955 -13.1783 226.982 -11.8896C227.016 -10.1966 227.37 -7.9615 228.733 -5.70333L228.941 -5.36557C231.116 -1.9259 233.905 0.0317775 235.936 1.43776C238.293 3.06994 239.809 4.09193 241.029 5.69515C243.959 9.54359 246.26 15.1126 246.894 19.5122C247.09 20.8699 247.293 22.054 247.454 23.3174C246.91 20.9826 246.263 18.8218 245.319 16.6507C244.029 13.6813 242.289 10.9273 239.853 7.79423C237.031 4.16456 234.765 2.85473 232.707 1.71541C230.874 0.700355 229.144 -0.21507 226.449 -2.92485Z" fill="#020C7B" fill-opacity="0.25"/>
</g>
</g>
<path d="M-2 9.66773C-2 3.22382 3.22382 -2 9.66773 -2H365.332C371.776 -2 377 3.22382 377 9.66773H373C373 5.43296 369.567 2 365.332 2H9.66773C5.43296 2 2 5.43296 2 9.66773H-2ZM2 9.66773M375 113H0H375M9.66773 113C3.22382 113 -2 107.776 -2 101.332V9.66773C-2 3.22382 3.22382 -2 9.66773 -2V2C5.43296 2 2 5.43296 2 9.66773V103.332C2 108.672 5.43296 113 9.66773 113ZM365.332 -2C371.776 -2 377 3.22382 377 9.66773V101.332C377 107.776 371.776 113 365.332 113C369.567 113 373 108.672 373 103.332V9.66773C373 5.43296 369.567 2 365.332 2V-2Z" fill="url(#paint3_linear_150_26114)" mask="url(#path-1-inside-1_150_26114)"/>
<defs>
<filter id="filter0_i_150_26114" x="238.459" y="-5.18645" width="30.769" height="87.1616" filterUnits="userSpaceOnUse" color-interpolation-filters="sRGB">
<feFlood flood-opacity="0" result="BackgroundImageFix"/>
<feBlend mode="normal" in="SourceGraphic" in2="BackgroundImageFix" result="shape"/>
<feColorMatrix in="SourceAlpha" type="matrix" values="0 0 0 0 0 0 0 0 0 0 0 0 0 0 0 0 0 0 127 0" result="hardAlpha"/>
<feOffset dy="1.40755"/>
<feGaussianBlur stdDeviation="0.703773"/>
<feComposite in2="hardAlpha" operator="arithmetic" k2="-1" k3="1"/>
<feColorMatrix type="matrix" values="0 0 0 0 0 0 0 0 0 0 0 0 0 0 0 0 0 0 0.25 0"/>
<feBlend mode="normal" in2="shape" result="effect1_innerShadow_150_26114"/>
</filter>
<filter id="filter1_i_150_26114" x="315.603" y="11.3469" width="72.2734" height="61.3461" filterUnits="userSpaceOnUse" color-interpolation-filters="sRGB">
<feFlood flood-opacity="0" result="BackgroundImageFix"/>
<feBlend mode="normal" in="SourceGraphic" in2="BackgroundImageFix" result="shape"/>
<feColorMatrix in="SourceAlpha" type="matrix" values="0 0 0 0 0 0 0 0 0 0 0 0 0 0 0 0 0 0 127 0" result="hardAlpha"/>
<feOffset dy="1.40755"/>
<feGaussianBlur stdDeviation="0.703773"/>
<feComposite in2="hardAlpha" operator="arithmetic" k2="-1" k3="1"/>
<feColorMatrix type="matrix" values="0 0 0 0 0 0 0 0 0 0 0 0 0 0 0 0 0 0 0.25 0"/>
<feBlend mode="normal" in2="shape" result="effect1_innerShadow_150_26114"/>
</filter>
<filter id="filter2_i_150_26114" x="222.346" y="-15.5166" width="25.1079" height="40.2416" filterUnits="userSpaceOnUse" color-interpolation-filters="sRGB">
<feFlood flood-opacity="0" result="BackgroundImageFix"/>
<feBlend mode="normal" in="SourceGraphic" in2="BackgroundImageFix" result="shape"/>
<feColorMatrix in="SourceAlpha" type="matrix" values="0 0 0 0 0 0 0 0 0 0 0 0 0 0 0 0 0 0 127 0" result="hardAlpha"/>
<feOffset dy="1.40755"/>
<feGaussianBlur stdDeviation="0.703773"/>
<feComposite in2="hardAlpha" operator="arithmetic" k2="-1" k3="1"/>
<feColorMatrix type="matrix" values="0 0 0 0 0 0 0 0 0 0 0 0 0 0 0 0 0 0 0.25 0"/>
<feBlend mode="normal" in2="shape" result="effect1_innerShadow_150_26114"/>
</filter>
<linearGradient id="paint0_linear_150_26114" x1="187.5" y1="80" x2="187.5" y2="-26" gradientUnits="userSpaceOnUse">
<stop stop-color="#010B7B"/>
<stop offset="1" stop-color="#0060DE"/>
</linearGradient>
<linearGradient id="paint1_linear_150_26114" x1="273.875" y1="78.75" x2="275.75" y2="14.25" gradientUnits="userSpaceOnUse">
<stop stop-color="#001FE8"/>
<stop offset="1" stop-color="#011599"/>
</linearGradient>
<linearGradient id="paint2_linear_150_26114" x1="323.75" y1="46.5" x2="317.213" y2="30.1268" gradientUnits="userSpaceOnUse">
<stop stop-color="#001FE8"/>
<stop offset="1" stop-color="#011599"/>
</linearGradient>
<linearGradient id="paint3_linear_150_26114" x1="187.5" y1="0" x2="187.5" y2="103.5" gradientUnits="userSpaceOnUse">
<stop stop-color="#ABC3FF"/>
<stop offset="0.128319" stop-color="#566FE3"/>
<stop offset="0.247788" stop-color="#001FE8"/>
<stop offset="0.402655" stop-color="#020C7B"/>
<stop offset="1" stop-color="#010B7B"/>
</linearGradient>
<clipPath id="clip0_150_26114">
<path d="M0 9.66773C0 4.32839 4.32839 0 9.66773 0H365.332C370.672 0 375 4.32839 375 9.66773V103.332C375 108.672 370.672 113 365.332 113H9.66773C4.32839 113 0 108.672 0 103.332V9.66773Z" fill="white"/>
</clipPath>
<clipPath id="clip1_150_26114">
<rect width="16.9048" height="16.9048" fill="white" transform="translate(23.998 24.0058)"/>
</clipPath>
</defs>
</svg>
