<svg width="375" height="113" viewBox="0 0 375 113" fill="none" xmlns="http://www.w3.org/2000/svg">
<g clip-path="url(#clip0_150_26115)">
<mask id="path-1-inside-1_150_26115" fill="white">
<path d="M0 9.66773C0 4.32839 4.32839 0 9.66773 0H365.332C370.672 0 375 4.32839 375 9.66773V103.332C375 108.672 370.672 113 365.332 113H9.66773C4.32839 113 0 108.672 0 103.332V9.66773Z"/>
</mask>
<path d="M0 9.66773C0 4.32839 4.32839 0 9.66773 0H365.332C370.672 0 375 4.32839 375 9.66773V103.332C375 108.672 370.672 113 365.332 113H9.66773C4.32839 113 0 108.672 0 103.332V9.66773Z" fill="url(#paint0_linear_150_26115)"/>
<mask id="path-3-inside-2_150_26115" fill="white">
<path d="M277.25 1.00031H374.25C374.25 1.00031 336.832 19.6203 316.121 37.375C299.397 51.7121 277.25 79.472 277.25 79.472C277.25 79.472 282.923 53.9842 282.599 37.375C282.318 22.9731 277.25 1.00031 277.25 1.00031Z"/>
</mask>
<path d="M277.25 1.00031H374.25C374.25 1.00031 336.832 19.6203 316.121 37.375C299.397 51.7121 277.25 79.472 277.25 79.472C277.25 79.472 282.923 53.9842 282.599 37.375C282.318 22.9731 277.25 1.00031 277.25 1.00031Z" fill="#010B7B"/>
<path d="M277.25 0.698291C277.25 0.899636 277.25 1.10098 277.25 1.30233C282.29 1.55092 287.33 1.79131 292.37 2.0235C319.663 3.2809 346.957 4.29789 374.25 5.07447L372.435 -2.64719C351.559 7.44791 331.165 18.1675 312.528 33.1832C297.403 46.2067 284.932 60.741 272.598 75.7604L283.059 80.7651C283.521 78.6677 283.933 76.6219 284.331 74.5615C286.588 62.4178 288.164 50.1541 287.159 37.286C286.405 29.6184 284.621 22.4879 282.539 15.4244C281.069 10.5162 279.412 5.6894 277.544 0.932427C277.348 0.977682 277.152 1.02294 276.956 1.06819C277.298 6.14291 277.576 11.2019 277.813 16.2327C278.129 23.4359 278.428 30.6714 278.04 37.464C277.193 48.8445 274.818 60.6389 272.635 72.3084C272.256 74.2729 271.844 76.3213 271.441 78.1789L281.902 83.1836C293.755 68.642 306.159 53.8669 319.715 41.5668C336.377 27.3205 356.36 15.568 376.065 4.6478L374.25 -3.07385C346.957 -2.29728 319.663 -1.28029 292.37 -0.0228815C287.33 0.209311 282.29 0.449702 277.25 0.698291ZM277.25 1.30233V0.698291L276.817 0.719639L276.956 1.06819L277.544 0.932427L277.25 1.30233Z" fill="#020C7B" mask="url(#path-3-inside-2_150_26115)"/>
<path d="M270.717 0.0809183C270.072 0.318629 269.428 0.55634 268.783 0.794051C269.242 2.00298 269.699 3.26052 270.145 4.51882C273.159 13.1694 276.024 21.9921 277.383 31.0141V31.0141C279.062 45.5452 276.933 60.3803 274.395 74.8392C274.154 76.1352 273.89 77.4917 273.625 78.75C273.924 77.4991 274.221 76.1492 274.496 74.8594C277.404 60.4451 279.939 45.7252 278.617 30.8608V30.8608C277.465 21.6092 274.81 12.6888 271.999 3.88765C271.58 2.60493 271.157 1.33728 270.717 0.0809183Z" fill="url(#paint1_linear_150_26115)"/>
<path d="M374.466 6.16371C374.775 6.77754 375.084 7.39137 375.393 8.00521C373.721 8.83297 371.961 9.73113 370.256 10.6116C352.906 19.7216 335.657 29.2358 320.291 41.3517V41.3517C308.644 50.9994 298.238 62.1525 288.076 73.4111C286.791 74.8492 285.51 76.2957 284.25 77.75C285.484 76.2734 286.739 74.8042 287.998 73.3431C297.967 61.8993 308.156 50.572 319.71 40.6483V40.6483C334.977 28.1667 352.088 18.3353 369.342 8.87978C371.04 7.96399 372.782 7.03597 374.466 6.16371Z" fill="url(#paint2_linear_150_26115)"/>
<path d="M15.5454 24.0045C15.5454 19.3326 19.3328 15.5452 24.0047 15.5452H40.9122C45.5841 15.5452 49.3714 19.3326 49.3714 24.0045V40.912C49.3714 45.5839 45.5841 49.3713 40.9122 49.3713H24.0047C19.3327 49.3713 15.5454 45.5839 15.5454 40.912V24.0045Z" fill="#CECECE" fill-opacity="0.125"/>
<g clip-path="url(#clip1_150_26115)">
<g clip-path="url(#clip2_150_26115)">
<g clip-path="url(#clip3_150_26115)">
<path d="M28.2242 30.345H27.1677C26.7006 30.345 26.2527 30.1595 25.9225 29.8293C25.5923 29.499 25.4067 29.0511 25.4067 28.5841C25.4067 28.1171 25.5923 27.6692 25.9225 27.3389C26.2527 27.0087 26.7006 26.8232 27.1677 26.8232H28.2242" stroke="white" stroke-width="1.40874" stroke-linecap="round" stroke-linejoin="round"/>
<path d="M36.6768 30.345H37.7333C38.2003 30.345 38.6482 30.1595 38.9785 29.8293C39.3087 29.499 39.4942 29.0511 39.4942 28.5841C39.4942 28.1171 39.3087 27.6692 38.9785 27.3389C38.6482 27.0087 38.2003 26.8232 37.7333 26.8232H36.6768" stroke="white" stroke-width="1.40874" stroke-linecap="round" stroke-linejoin="round"/>
<path d="M26.8154 39.5015H38.0853" stroke="white" stroke-width="1.40874" stroke-linecap="round" stroke-linejoin="round"/>
<path d="M31.0418 34.3318V35.9801C31.0418 36.3675 30.7108 36.6703 30.3586 36.8324C29.5274 37.2127 28.9287 38.2622 28.9287 39.5019" stroke="white" stroke-width="1.40874" stroke-linecap="round" stroke-linejoin="round"/>
<path d="M33.8594 34.3318V35.9801C33.8594 36.3675 34.1904 36.6703 34.5426 36.8324C35.3738 37.2127 35.9725 38.2622 35.9725 39.5019" stroke="white" stroke-width="1.40874" stroke-linecap="round" stroke-linejoin="round"/>
<path d="M36.6765 25.4141H28.2241V30.3447C28.2241 31.4655 28.6694 32.5405 29.4619 33.333C30.2545 34.1256 31.3295 34.5709 32.4503 34.5709C33.5712 34.5709 34.6461 34.1256 35.4387 33.333C36.2313 32.5405 36.6765 31.4655 36.6765 30.3447V25.4141Z" stroke="white" stroke-width="1.40874" stroke-linecap="round" stroke-linejoin="round"/>
</g>
</g>
</g>
<path d="M16.6392 63.3944V61.1124H27.3906V63.3944H23.3828V74.2033H20.647V63.3944H16.6392ZM32.1223 74.3951C31.1294 74.3951 30.2708 74.1841 29.5463 73.7623C28.8262 73.3361 28.2701 72.7438 27.878 71.9853C27.486 71.2225 27.29 70.3383 27.29 69.3326C27.29 68.3184 27.486 67.432 27.878 66.6735C28.2701 65.9107 28.8262 65.3184 29.5463 64.8965C30.2708 64.4704 31.1294 64.2573 32.1223 64.2573C33.1152 64.2573 33.9718 64.4704 34.6919 64.8965C35.4164 65.3184 35.9746 65.9107 36.3667 66.6735C36.7587 67.432 36.9547 68.3184 36.9547 69.3326C36.9547 70.3383 36.7587 71.2225 36.3667 71.9853C35.9746 72.7438 35.4164 73.3361 34.6919 73.7623C33.9718 74.1841 33.1152 74.3951 32.1223 74.3951ZM32.1351 72.2857C32.5868 72.2857 32.964 72.1579 33.2665 71.9022C33.5691 71.6422 33.7971 71.2885 33.9505 70.8411C34.1081 70.3937 34.187 69.8844 34.187 69.3134C34.187 68.7424 34.1081 68.2331 33.9505 67.7857C33.7971 67.3383 33.5691 66.9846 33.2665 66.7246C32.964 66.4647 32.5868 66.3347 32.1351 66.3347C31.6792 66.3347 31.2956 66.4647 30.9846 66.7246C30.6777 66.9846 30.4455 67.3383 30.2878 67.7857C30.1344 68.2331 30.0577 68.7424 30.0577 69.3134C30.0577 69.8844 30.1344 70.3937 30.2878 70.8411C30.4455 71.2885 30.6777 71.6422 30.9846 71.9022C31.2956 72.1579 31.6792 72.2857 32.1351 72.2857ZM45.0215 70.0229V64.3851H47.7445V74.2033H45.1301V72.4199H45.0279C44.8063 72.9952 44.4377 73.4576 43.9221 73.807C43.4107 74.1564 42.7864 74.3312 42.0492 74.3312C41.3929 74.3312 40.8155 74.182 40.3169 73.8837C39.8184 73.5854 39.4284 73.1614 39.1472 72.6117C38.8702 72.062 38.7296 71.4036 38.7253 70.6366V64.3851H41.4483V70.1508C41.4526 70.7303 41.6081 71.1884 41.915 71.5251C42.2218 71.8617 42.633 72.03 43.1486 72.03C43.4767 72.03 43.7836 71.9555 44.0691 71.8063C44.3546 71.6529 44.5847 71.427 44.7594 71.1287C44.9384 70.8305 45.0257 70.4618 45.0215 70.0229ZM49.9226 74.2033V64.3851H52.5625V66.0982H52.6648C52.8438 65.4888 53.1442 65.0286 53.5661 64.7175C53.9879 64.4022 54.4737 64.2445 55.0234 64.2445C55.1598 64.2445 55.3068 64.253 55.4645 64.2701C55.6222 64.2871 55.7607 64.3106 55.88 64.3404V66.7566C55.7521 66.7182 55.5753 66.6841 55.3494 66.6543C55.1236 66.6245 54.9169 66.6096 54.7294 66.6096C54.3288 66.6096 53.9709 66.6969 53.6555 66.8716C53.3445 67.0421 53.0973 67.2807 52.9141 67.5876C52.7351 67.8944 52.6456 68.2481 52.6456 68.6486V74.2033H49.9226ZM60.0108 68.5272V74.2033H57.2878V64.3851H59.883V66.1174H59.998C60.2154 65.5464 60.5797 65.0947 61.0911 64.7623C61.6025 64.4256 62.2225 64.2573 62.9512 64.2573C63.633 64.2573 64.2275 64.4064 64.7346 64.7047C65.2417 65.003 65.6358 65.4292 65.9171 65.9831C66.1983 66.5329 66.339 67.1891 66.339 67.9519V74.2033H63.6159V68.4377C63.6202 67.8368 63.4668 67.3681 63.1557 67.0314C62.8446 66.6905 62.4164 66.5201 61.8709 66.5201C61.5044 66.5201 61.1806 66.5989 60.8993 66.7566C60.6223 66.9143 60.405 67.1444 60.2473 67.4469C60.0939 67.7452 60.0151 68.1053 60.0108 68.5272ZM71.2848 74.3887C70.6584 74.3887 70.1001 74.28 69.6101 74.0627C69.12 73.8411 68.7322 73.5151 68.4467 73.0847C68.1655 72.6501 68.0249 72.1089 68.0249 71.4611C68.0249 70.9157 68.125 70.4576 68.3253 70.0868C68.5256 69.7161 68.7983 69.4178 69.1435 69.192C69.4886 68.9661 69.8807 68.7956 70.3196 68.6806C70.7628 68.5655 71.2273 68.4846 71.7131 68.4377C72.2841 68.378 72.7443 68.3226 73.0938 68.2715C73.4432 68.2161 73.6967 68.1351 73.8544 68.0286C74.0121 67.9221 74.0909 67.7644 74.0909 67.5556V67.5172C74.0909 67.1124 73.9631 66.7992 73.7074 66.5776C73.456 66.356 73.098 66.2452 72.6335 66.2452C72.1435 66.2452 71.7536 66.3539 71.4638 66.5712C71.174 66.7843 70.9822 67.0528 70.8885 67.3766L68.37 67.1721C68.4979 66.5755 68.7493 66.0599 69.1243 65.6252C69.4993 65.1863 69.983 64.8496 70.5753 64.6153C71.1719 64.3766 71.8622 64.2573 72.6463 64.2573C73.1918 64.2573 73.7138 64.3212 74.2124 64.4491C74.7152 64.5769 75.1605 64.7751 75.5483 65.0435C75.9403 65.312 76.2493 65.6572 76.4751 66.079C76.701 66.4966 76.8139 66.9974 76.8139 67.5812V74.2033H74.2315V72.8418H74.1548C73.9972 73.1486 73.7862 73.4192 73.522 73.6536C73.2578 73.8837 72.9403 74.0648 72.5696 74.1969C72.1989 74.3248 71.7706 74.3887 71.2848 74.3887ZM72.0646 72.5094C72.4652 72.5094 72.8189 72.4306 73.1257 72.2729C73.4325 72.111 73.6733 71.8937 73.848 71.6209C74.0227 71.3482 74.1101 71.0393 74.1101 70.6941V69.6522C74.0249 69.7076 73.9077 69.7587 73.7585 69.8056C73.6136 69.8482 73.4496 69.8887 73.2663 69.927C73.0831 69.9611 72.8999 69.9931 72.7166 70.0229C72.5334 70.0485 72.3672 70.0719 72.218 70.0932C71.8984 70.1401 71.6193 70.2147 71.3807 70.317C71.142 70.4192 70.9567 70.5577 70.8246 70.7324C70.6925 70.9029 70.6264 71.116 70.6264 71.3716C70.6264 71.7424 70.7607 72.0258 71.0291 72.2218C71.3018 72.4135 71.647 72.5094 72.0646 72.5094ZM78.9265 74.2033V64.3851H81.5217V66.1174H81.6367C81.8413 65.5421 82.1822 65.0883 82.6594 64.7559C83.1367 64.4235 83.7077 64.2573 84.3725 64.2573C85.0458 64.2573 85.619 64.4256 86.092 64.7623C86.565 65.0947 86.8803 65.5464 87.038 66.1174H87.1403C87.3406 65.5549 87.7028 65.1053 88.2269 64.7687C88.7553 64.4278 89.3796 64.2573 90.0998 64.2573C91.016 64.2573 91.7596 64.5492 92.3306 65.133C92.9059 65.7126 93.1935 66.535 93.1935 67.6003V74.2033H90.4769V68.1373C90.4769 67.5918 90.332 67.1827 90.0423 66.91C89.7525 66.6373 89.3903 66.5009 88.9556 66.5009C88.4613 66.5009 88.0756 66.6586 87.7987 66.9739C87.5217 67.285 87.3832 67.6962 87.3832 68.2076V74.2033H84.7433V68.0797C84.7433 67.5982 84.6048 67.2147 84.3278 66.9292C84.055 66.6437 83.695 66.5009 83.2475 66.5009C82.945 66.5009 82.6722 66.5776 82.4293 66.731C82.1907 66.8802 82.0011 67.0911 81.8604 67.3638C81.7198 67.6323 81.6495 67.9476 81.6495 68.3099V74.2033H78.9265ZM99.8189 74.3951C98.8089 74.3951 97.9396 74.1905 97.2109 73.7814C96.4865 73.3681 95.9283 72.7843 95.5362 72.03C95.1442 71.2715 94.9482 70.3745 94.9482 69.339C94.9482 68.329 95.1442 67.4427 95.5362 66.6799C95.9283 65.9171 96.4801 65.3226 97.1918 64.8965C97.9077 64.4704 98.7472 64.2573 99.7102 64.2573C100.358 64.2573 100.961 64.3617 101.519 64.5705C102.082 64.7751 102.572 65.084 102.989 65.4974C103.411 65.9107 103.739 66.4306 103.974 67.057C104.208 67.6792 104.325 68.4079 104.325 69.2431V69.991H96.0348V68.3035H101.762C101.762 67.9114 101.677 67.5641 101.506 67.2616C101.336 66.959 101.099 66.7225 100.797 66.552C100.499 66.3773 100.151 66.29 99.755 66.29C99.3416 66.29 98.9751 66.3858 98.6555 66.5776C98.3402 66.7651 98.093 67.0187 97.9141 67.3383C97.7351 67.6536 97.6435 68.0052 97.6392 68.3929V69.9974C97.6392 70.4831 97.7287 70.9029 97.9077 71.2566C98.0909 71.6103 98.3487 71.883 98.6811 72.0748C99.0135 72.2665 99.4077 72.3624 99.8636 72.3624C100.166 72.3624 100.443 72.3198 100.695 72.2346C100.946 72.1493 101.161 72.0215 101.34 71.851C101.519 71.6806 101.656 71.4718 101.749 71.2246L104.268 71.3908C104.14 71.9959 103.878 72.5243 103.482 72.976C103.089 73.4235 102.582 73.7729 101.96 74.0243C101.342 74.2715 100.629 74.3951 99.8189 74.3951ZM108.825 68.5272V74.2033H106.102V64.3851H108.697V66.1174H108.812C109.03 65.5464 109.394 65.0947 109.906 64.7623C110.417 64.4256 111.037 64.2573 111.766 64.2573C112.447 64.2573 113.042 64.4064 113.549 64.7047C114.056 65.003 114.45 65.4292 114.732 65.9831C115.013 66.5329 115.153 67.1891 115.153 67.9519V74.2033H112.43V68.4377C112.435 67.8368 112.281 67.3681 111.97 67.0314C111.659 66.6905 111.231 66.5201 110.685 66.5201C110.319 66.5201 109.995 66.5989 109.714 66.7566C109.437 66.9143 109.219 67.1444 109.062 67.4469C108.908 67.7452 108.83 68.1053 108.825 68.5272ZM122.522 64.3851V66.4306H116.609V64.3851H122.522ZM117.952 62.0329H120.675V71.1863C120.675 71.4377 120.713 71.6337 120.79 71.7743C120.866 71.9107 120.973 72.0066 121.109 72.062C121.25 72.1174 121.412 72.1451 121.595 72.1451C121.723 72.1451 121.851 72.1344 121.979 72.1131C122.106 72.0876 122.204 72.0684 122.273 72.0556L122.701 74.0819C122.564 74.1245 122.373 74.1735 122.126 74.2289C121.878 74.2885 121.578 74.3248 121.224 74.3376C120.568 74.3631 119.993 74.2758 119.498 74.0755C119.008 73.8752 118.627 73.5641 118.354 73.1422C118.081 72.7204 117.947 72.1877 117.952 71.5442V62.0329ZM132.342 67.1849L129.849 67.3383C129.806 67.1252 129.714 66.9334 129.574 66.763C129.433 66.5883 129.248 66.4498 129.018 66.3475C128.792 66.241 128.521 66.1877 128.206 66.1877C127.784 66.1877 127.428 66.2772 127.138 66.4562C126.849 66.6309 126.704 66.8653 126.704 67.1593C126.704 67.3937 126.798 67.5918 126.985 67.7537C127.173 67.9157 127.494 68.0456 127.95 68.1437L129.727 68.5016C130.682 68.6976 131.393 69.013 131.862 69.4476C132.331 69.8823 132.565 70.4533 132.565 71.1607C132.565 71.8042 132.376 72.3688 131.996 72.8546C131.621 73.3404 131.106 73.7197 130.45 73.9924C129.798 74.2608 129.045 74.3951 128.193 74.3951C126.893 74.3951 125.858 74.1245 125.087 73.5833C124.32 73.0378 123.87 72.2964 123.738 71.3589L126.416 71.2182C126.497 71.6145 126.693 71.9171 127.004 72.1259C127.315 72.3305 127.714 72.4327 128.2 72.4327C128.677 72.4327 129.06 72.3411 129.35 72.1579C129.644 71.9704 129.793 71.7296 129.798 71.4356C129.793 71.1884 129.689 70.986 129.484 70.8283C129.28 70.6664 128.964 70.5428 128.538 70.4576L126.838 70.1188C125.879 69.927 125.165 69.5947 124.697 69.1216C124.232 68.6486 124 68.0456 124 67.3127C124 66.682 124.17 66.1387 124.511 65.6827C124.857 65.2268 125.34 64.8752 125.962 64.628C126.589 64.3809 127.322 64.2573 128.161 64.2573C129.401 64.2573 130.377 64.5194 131.089 65.0435C131.805 65.5677 132.222 66.2814 132.342 67.1849Z" fill="white"/>
<path d="M23.5397 88.1677H22.7386C22.6789 87.8694 22.571 87.5938 22.4147 87.341C22.2613 87.0853 22.0681 86.8623 21.8352 86.6719C21.6022 86.4816 21.338 86.3339 21.0426 86.2288C20.7471 86.1236 20.4275 86.0711 20.0838 86.0711C19.5326 86.0711 19.0298 86.2145 18.5752 86.5015C18.1235 86.7884 17.7613 87.2103 17.4886 87.7671C17.2187 88.3211 17.0838 89.0001 17.0838 89.804C17.0838 90.6137 17.2187 91.2955 17.4886 91.8495C17.7613 92.4035 18.1235 92.8239 18.5752 93.1109C19.0298 93.3949 19.5326 93.537 20.0838 93.537C20.4275 93.537 20.7471 93.4844 21.0426 93.3793C21.338 93.2742 21.6022 93.1279 21.8352 92.9404C22.0681 92.7501 22.2613 92.527 22.4147 92.2714C22.571 92.0157 22.6789 91.7387 22.7386 91.4404H23.5397C23.4687 91.841 23.3352 92.2146 23.1392 92.5611C22.946 92.9049 22.6988 93.206 22.3977 93.4646C22.0994 93.7231 21.7556 93.9248 21.3664 94.0697C20.9772 94.2146 20.5497 94.287 20.0838 94.287C19.3508 94.287 18.7002 94.1038 18.1321 93.7373C17.5639 93.368 17.1179 92.8481 16.794 92.1776C16.473 91.5072 16.3125 90.716 16.3125 89.804C16.3125 88.8921 16.473 88.1009 16.794 87.4305C17.1179 86.76 17.5639 86.2415 18.1321 85.8751C18.7002 85.5057 19.3508 85.3211 20.0838 85.3211C20.5497 85.3211 20.9772 85.3935 21.3664 85.5384C21.7556 85.6805 22.0994 85.8822 22.3977 86.1435C22.6988 86.4021 22.946 86.7032 23.1392 87.0469C23.3352 87.3907 23.4687 87.7643 23.5397 88.1677ZM27.7979 94.304C27.2326 94.304 26.7326 94.1606 26.2979 93.8736C25.8661 93.5867 25.528 93.1904 25.2837 92.6847C25.0394 92.1762 24.9172 91.5895 24.9172 90.9248C24.9172 90.2543 25.0394 89.6648 25.2837 89.1563C25.528 88.6449 25.8661 88.2472 26.2979 87.9631C26.7326 87.6762 27.2326 87.5327 27.7979 87.5327C28.3632 87.5327 28.8618 87.6762 29.2936 87.9631C29.7255 88.2501 30.0635 88.6478 30.3078 89.1563C30.555 89.6648 30.6786 90.2543 30.6786 90.9248C30.6786 91.5895 30.5564 92.1762 30.3121 92.6847C30.0678 93.1904 29.7283 93.5867 29.2936 93.8736C28.8618 94.1606 28.3632 94.304 27.7979 94.304ZM27.7979 93.6094C28.2524 93.6094 28.6374 93.4873 28.9527 93.243C29.2681 92.9986 29.5067 92.6734 29.6686 92.2671C29.8334 91.8609 29.9158 91.4134 29.9158 90.9248C29.9158 90.4361 29.8334 89.9873 29.6686 89.5782C29.5067 89.1691 29.2681 88.841 28.9527 88.5938C28.6374 88.3467 28.2524 88.2231 27.7979 88.2231C27.3462 88.2231 26.9612 88.3467 26.6431 88.5938C26.3277 88.841 26.0877 89.1691 25.9229 89.5782C25.761 89.9873 25.68 90.4361 25.68 90.9248C25.68 91.4134 25.761 91.8609 25.9229 92.2671C26.0877 92.6734 26.3277 92.9986 26.6431 93.243C26.9584 93.4873 27.3434 93.6094 27.7979 93.6094ZM32.3437 94.1677V87.6222H33.0809V88.6279H33.1491C33.2798 88.2898 33.4971 88.0242 33.8011 87.831C34.1079 87.635 34.4758 87.537 34.9048 87.537C35.3565 87.537 35.7272 87.6435 36.017 87.8566C36.3096 88.0668 36.5284 88.3566 36.6733 88.7259H36.7286C36.8764 88.3623 37.1164 88.0739 37.4488 87.8609C37.784 87.6449 38.1903 87.537 38.6676 87.537C39.2755 87.537 39.7556 87.7288 40.1079 88.1123C40.4602 88.493 40.6363 89.0498 40.6363 89.7827V94.1677H39.8778V89.7827C39.8778 89.2657 39.7457 88.8779 39.4815 88.6194C39.2173 88.3609 38.8693 88.2316 38.4375 88.2316C37.9375 88.2316 37.5525 88.385 37.2826 88.6918C37.0127 88.9986 36.8778 89.3878 36.8778 89.8594V94.1677H36.1022V89.7146C36.1022 89.2714 35.9786 88.9134 35.7315 88.6407C35.4843 88.368 35.1363 88.2316 34.6875 88.2316C34.3863 88.2316 34.115 88.3055 33.8735 88.4532C33.6349 88.6009 33.446 88.8069 33.3068 89.0711C33.1704 89.3324 33.1022 89.6336 33.1022 89.9745V94.1677H32.3437ZM42.6445 96.6222V87.6222H43.3817V88.8708H43.4712C43.5621 88.6748 43.6871 88.4745 43.8462 88.2699C44.0053 88.0626 44.2155 87.8878 44.4769 87.7458C44.7411 87.6038 45.0735 87.5327 45.474 87.5327C46.0138 87.5327 46.4854 87.6748 46.8888 87.9589C47.2951 88.2401 47.6104 88.635 47.8348 89.1435C48.0621 89.6492 48.1757 90.2387 48.1757 90.912C48.1757 91.5881 48.0621 92.1805 47.8348 92.689C47.6104 93.1975 47.2951 93.5938 46.8888 93.8779C46.4854 94.162 46.0166 94.304 45.4826 94.304C45.0877 94.304 44.7567 94.233 44.4897 94.091C44.2255 93.9489 44.011 93.7742 43.8462 93.5668C43.6843 93.3566 43.5593 93.152 43.4712 92.9532H43.403V96.6222H42.6445ZM43.3945 90.8992C43.3945 91.4276 43.4726 91.8964 43.6289 92.3055C43.788 92.7117 44.0152 93.0313 44.3107 93.2643C44.609 93.4944 44.9698 93.6094 45.3931 93.6094C45.8277 93.6094 46.1942 93.4901 46.4925 93.2515C46.7936 93.01 47.0223 92.6847 47.1786 92.2756C47.3377 91.8665 47.4172 91.4077 47.4172 90.8992C47.4172 90.3964 47.3391 89.9432 47.1828 89.5398C47.0294 89.1364 46.8022 88.8168 46.501 88.581C46.1999 88.3424 45.8306 88.2231 45.3931 88.2231C44.9669 88.2231 44.6047 88.3381 44.3064 88.5682C44.0081 88.7955 43.7809 89.1109 43.6246 89.5143C43.4712 89.9148 43.3945 90.3765 43.3945 90.8992ZM52.4861 94.304C51.8753 94.304 51.3469 94.162 50.9009 93.8779C50.4549 93.591 50.1097 93.1947 49.8654 92.689C49.6239 92.1805 49.5032 91.5952 49.5032 90.9333C49.5032 90.2742 49.6239 89.689 49.8654 89.1776C50.1097 88.6634 50.4463 88.2614 50.8753 87.9717C51.3071 87.679 51.8057 87.5327 52.371 87.5327C52.7262 87.5327 53.0685 87.5981 53.398 87.7288C53.7276 87.8566 54.023 88.054 54.2844 88.3211C54.5486 88.5853 54.7574 88.9191 54.9108 89.3225C55.0642 89.7231 55.1409 90.1975 55.1409 90.7458V91.1208H50.0273V90.4518H54.3654C54.3654 90.0313 54.2801 89.6535 54.1097 89.3182C53.9421 88.9802 53.7077 88.7131 53.4066 88.5171C53.1083 88.3211 52.7631 88.2231 52.371 88.2231C51.9563 88.2231 51.5912 88.3339 51.2759 88.5555C50.9605 88.777 50.7134 89.0697 50.5344 89.4333C50.3583 89.7969 50.2688 90.1947 50.2659 90.6265V91.0271C50.2659 91.5469 50.3554 92.0015 50.5344 92.3907C50.7162 92.777 50.9733 93.0768 51.3057 93.2898C51.6381 93.5029 52.0316 93.6094 52.4861 93.6094C52.7958 93.6094 53.0671 93.5611 53.3 93.4646C53.5358 93.368 53.7333 93.2387 53.8924 93.0768C54.0543 92.912 54.1764 92.7316 54.2588 92.5356L54.979 92.7699C54.8796 93.0455 54.7162 93.2998 54.4889 93.5327C54.2645 93.7657 53.9833 93.9532 53.6452 94.0952C53.31 94.2344 52.9236 94.304 52.4861 94.304ZM59.3906 87.6222V88.2827H56.267V87.6222H59.3906ZM57.2429 86.054H58.0056V92.4589C58.0056 92.7316 58.0525 92.9461 58.1463 93.1023C58.24 93.2557 58.3622 93.3651 58.5127 93.4305C58.6633 93.493 58.8238 93.5242 58.9943 93.5242C59.0937 93.5242 59.1789 93.5185 59.25 93.5072C59.321 93.493 59.3835 93.4788 59.4375 93.4646L59.5994 94.1506C59.5255 94.179 59.4346 94.2046 59.3267 94.2273C59.2187 94.2529 59.0852 94.2657 58.9261 94.2657C58.6477 94.2657 58.3792 94.2046 58.1207 94.0824C57.865 93.9603 57.6548 93.7785 57.49 93.537C57.3252 93.2955 57.2429 92.9958 57.2429 92.6378V86.054ZM63.6892 94.304C63.0784 94.304 62.55 94.162 62.104 93.8779C61.658 93.591 61.3128 93.1947 61.0685 92.689C60.827 92.1805 60.7063 91.5952 60.7063 90.9333C60.7063 90.2742 60.827 89.689 61.0685 89.1776C61.3128 88.6634 61.6495 88.2614 62.0784 87.9717C62.5103 87.679 63.0088 87.5327 63.5742 87.5327C63.9293 87.5327 64.2716 87.5981 64.6012 87.7288C64.9307 87.8566 65.2262 88.054 65.4875 88.3211C65.7517 88.5853 65.9605 88.9191 66.1139 89.3225C66.2674 89.7231 66.3441 90.1975 66.3441 90.7458V91.1208H61.2304V90.4518H65.5685C65.5685 90.0313 65.4833 89.6535 65.3128 89.3182C65.1452 88.9802 64.9108 88.7131 64.6097 88.5171C64.3114 88.3211 63.9662 88.2231 63.5742 88.2231C63.1594 88.2231 62.7943 88.3339 62.479 88.5555C62.1637 88.777 61.9165 89.0697 61.7375 89.4333C61.5614 89.7969 61.4719 90.1947 61.4691 90.6265V91.0271C61.4691 91.5469 61.5585 92.0015 61.7375 92.3907C61.9193 92.777 62.1764 93.0768 62.5088 93.2898C62.8412 93.5029 63.2347 93.6094 63.6892 93.6094C63.9989 93.6094 64.2702 93.5611 64.5032 93.4646C64.7389 93.368 64.9364 93.2387 65.0955 93.0768C65.2574 92.912 65.3796 92.7316 65.462 92.5356L66.1821 92.7699C66.0827 93.0455 65.9193 93.2998 65.6921 93.5327C65.4676 93.7657 65.1864 93.9532 64.8483 94.0952C64.5131 94.2344 64.1267 94.304 63.6892 94.304ZM73.2187 94.3168C72.8238 94.3168 72.463 94.2401 72.1363 94.0867C71.8096 93.9305 71.5497 93.706 71.3565 93.4134C71.1633 93.118 71.0667 92.76 71.0667 92.3396C71.0667 92.0157 71.1278 91.743 71.25 91.5214C71.3721 91.2998 71.5454 91.118 71.7698 90.9759C71.9943 90.8339 72.2599 90.7217 72.5667 90.6393C72.8735 90.5569 73.2116 90.493 73.5809 90.4475C73.9474 90.402 74.2571 90.3623 74.5099 90.3282C74.7656 90.2941 74.9602 90.2401 75.0937 90.1663C75.2272 90.0924 75.294 89.9731 75.294 89.8083V89.6549C75.294 89.2089 75.1605 88.858 74.8934 88.6023C74.6292 88.3438 74.2485 88.2146 73.7514 88.2146C73.2798 88.2146 72.8948 88.3182 72.5965 88.5256C72.3011 88.733 72.0937 88.9773 71.9744 89.2586L71.2542 88.9986C71.4019 88.6407 71.6065 88.3552 71.8679 88.1421C72.1292 87.9262 72.4218 87.7714 72.7457 87.6776C73.0696 87.581 73.3977 87.5327 73.7301 87.5327C73.9801 87.5327 74.24 87.5654 74.5099 87.6307C74.7826 87.6961 75.0355 87.8097 75.2684 87.9717C75.5014 88.1307 75.6903 88.3538 75.8352 88.6407C75.9801 88.9248 76.0525 89.2856 76.0525 89.7231V94.1677H75.294V93.1322H75.2471C75.1562 93.3253 75.0213 93.5128 74.8423 93.6947C74.6633 93.8765 74.4389 94.0256 74.169 94.1421C73.8991 94.2586 73.5823 94.3168 73.2187 94.3168ZM73.321 93.6222C73.7244 93.6222 74.0738 93.5327 74.3693 93.3538C74.6647 93.1748 74.892 92.9376 75.0511 92.6421C75.213 92.3438 75.294 92.0157 75.294 91.6577V90.7117C75.2372 90.7657 75.142 90.814 75.0085 90.8566C74.8778 90.8992 74.7258 90.9376 74.5525 90.9717C74.3821 91.0029 74.2116 91.0299 74.0411 91.0526C73.8707 91.0753 73.7173 91.0952 73.5809 91.1123C73.2116 91.1577 72.8963 91.2288 72.6349 91.3253C72.3735 91.4219 72.1733 91.5555 72.034 91.7259C71.8948 91.8935 71.8252 92.1094 71.8252 92.3736C71.8252 92.7714 71.9673 93.0796 72.2514 93.2984C72.5355 93.5143 72.892 93.6222 73.321 93.6222ZM80.5674 96.7586C80.1214 96.7586 79.7308 96.7003 79.3956 96.5839C79.0603 96.4702 78.7777 96.314 78.5475 96.1151C78.3174 95.9163 78.1384 95.6932 78.0106 95.4461L78.6328 95.037C78.7265 95.2018 78.8515 95.3637 79.0078 95.5228C79.1669 95.6819 79.3728 95.814 79.6257 95.9191C79.8813 96.0242 80.1953 96.0768 80.5674 96.0768C81.147 96.0768 81.6143 95.9319 81.9694 95.6421C82.3274 95.3523 82.5063 94.9021 82.5063 94.2913V92.8168H82.4382C82.3501 93.0157 82.2237 93.2145 82.0589 93.4134C81.8941 93.6094 81.6782 93.7728 81.4112 93.9035C81.147 94.0342 80.8188 94.0995 80.4268 94.0995C79.9041 94.0995 79.4396 93.9702 79.0333 93.7117C78.6299 93.4532 78.3117 93.0839 78.0788 92.6038C77.8487 92.1208 77.7336 91.5455 77.7336 90.8779C77.7336 90.216 77.8458 89.6336 78.0703 89.1307C78.2975 88.6279 78.6143 88.2359 79.0206 87.9546C79.4268 87.6734 79.8998 87.5327 80.4396 87.5327C80.8402 87.5327 81.1725 87.6038 81.4367 87.7458C81.701 87.885 81.9126 88.0583 82.0717 88.2657C82.2336 88.4731 82.36 88.6748 82.451 88.8708H82.5277V87.6222H83.2691V94.3381C83.2691 94.8921 83.1512 95.3481 82.9154 95.706C82.6796 96.064 82.3586 96.3282 81.9524 96.4986C81.5461 96.6719 81.0845 96.7586 80.5674 96.7586ZM80.5163 93.4049C80.9367 93.4049 81.2961 93.304 81.5944 93.1023C81.8927 92.8978 82.1214 92.6052 82.2805 92.2245C82.4396 91.8438 82.5191 91.3907 82.5191 90.8651C82.5191 90.3538 82.441 89.9006 82.2848 89.5057C82.1285 89.108 81.9012 88.7955 81.6029 88.5682C81.3075 88.3381 80.9453 88.2231 80.5163 88.2231C80.0788 88.2231 79.7095 88.341 79.4083 88.5768C79.1072 88.8126 78.8799 89.1307 78.7265 89.5313C78.5731 89.929 78.4964 90.3736 78.4964 90.8651C78.4964 91.3651 78.5745 91.8069 78.7308 92.1904C78.887 92.5711 79.1157 92.8694 79.4169 93.0853C79.718 93.2984 80.0845 93.4049 80.5163 93.4049ZM87.1054 94.3168C86.7105 94.3168 86.3497 94.2401 86.023 94.0867C85.6963 93.9305 85.4364 93.706 85.2432 93.4134C85.05 93.118 84.9534 92.76 84.9534 92.3396C84.9534 92.0157 85.0145 91.743 85.1367 91.5214C85.2588 91.2998 85.4321 91.118 85.6566 90.9759C85.881 90.8339 86.1466 90.7217 86.4534 90.6393C86.7603 90.5569 87.0983 90.493 87.4676 90.4475C87.8341 90.402 88.1438 90.3623 88.3966 90.3282C88.6523 90.2941 88.8469 90.2401 88.9804 90.1663C89.1139 90.0924 89.1807 89.9731 89.1807 89.8083V89.6549C89.1807 89.2089 89.0472 88.858 88.7801 88.6023C88.5159 88.3438 88.1353 88.2146 87.6381 88.2146C87.1665 88.2146 86.7816 88.3182 86.4833 88.5256C86.1878 88.733 85.9804 88.9773 85.8611 89.2586L85.1409 88.9986C85.2887 88.6407 85.4932 88.3552 85.7546 88.1421C86.0159 87.9262 86.3085 87.7714 86.6324 87.6776C86.9563 87.581 87.2844 87.5327 87.6168 87.5327C87.8668 87.5327 88.1267 87.5654 88.3966 87.6307C88.6693 87.6961 88.9222 87.8097 89.1551 87.9717C89.3881 88.1307 89.577 88.3538 89.7219 88.6407C89.8668 88.9248 89.9392 89.2856 89.9392 89.7231V94.1677H89.1807V93.1322H89.1338C89.0429 93.3253 88.908 93.5128 88.729 93.6947C88.55 93.8765 88.3256 94.0256 88.0557 94.1421C87.7858 94.2586 87.4691 94.3168 87.1054 94.3168ZM87.2077 93.6222C87.6111 93.6222 87.9605 93.5327 88.256 93.3538C88.5514 93.1748 88.7787 92.9376 88.9378 92.6421C89.0997 92.3438 89.1807 92.0157 89.1807 91.6577V90.7117C89.1239 90.7657 89.0287 90.814 88.8952 90.8566C88.7645 90.8992 88.6125 90.9376 88.4392 90.9717C88.2688 91.0029 88.0983 91.0299 87.9279 91.0526C87.7574 91.0753 87.604 91.0952 87.4676 91.1123C87.0983 91.1577 86.783 91.2288 86.5216 91.3253C86.2603 91.4219 86.06 91.5555 85.9208 91.7259C85.7816 91.8935 85.712 92.1094 85.712 92.3736C85.712 92.7714 85.854 93.0796 86.1381 93.2984C86.4222 93.5143 86.7787 93.6222 87.2077 93.6222ZM91.9655 94.1677V87.6222H92.7283V94.1677H91.9655ZM92.3533 86.4972C92.197 86.4972 92.0635 86.4447 91.9527 86.3396C91.8419 86.2316 91.7865 86.1023 91.7865 85.9518C91.7865 85.8012 91.8419 85.6734 91.9527 85.5682C92.0635 85.4603 92.197 85.4063 92.3533 85.4063C92.5095 85.4063 92.6431 85.4603 92.7539 85.5682C92.8647 85.6734 92.9201 85.8012 92.9201 85.9518C92.9201 86.1023 92.8647 86.2316 92.7539 86.3396C92.6431 86.4447 92.5095 86.4972 92.3533 86.4972ZM95.4929 90.0768V94.1677H94.7343V87.6222H95.4715V88.6492H95.5397C95.6931 88.314 95.9318 88.0455 96.2556 87.8438C96.5823 87.6393 96.9858 87.537 97.4659 87.537C97.9062 87.537 98.2926 87.6293 98.625 87.814C98.9602 87.9958 99.2201 88.2643 99.4048 88.6194C99.5923 88.9745 99.686 89.4106 99.686 89.9276V94.1677H98.9275V89.9745C98.9275 89.4376 98.7769 89.0128 98.4758 88.7003C98.1775 88.3878 97.7769 88.2316 97.2741 88.2316C96.9304 88.2316 96.625 88.3055 96.3579 88.4532C96.0909 88.6009 95.8792 88.814 95.723 89.0924C95.5696 89.368 95.4929 89.6961 95.4929 90.0768ZM106.081 89.0583L105.387 89.2543C105.318 89.0583 105.222 88.8807 105.097 88.7217C104.972 88.5626 104.809 88.4361 104.607 88.3424C104.408 88.2486 104.161 88.2018 103.865 88.2018C103.422 88.2018 103.059 88.3069 102.774 88.5171C102.49 88.7273 102.348 88.9986 102.348 89.331C102.348 89.6123 102.445 89.841 102.638 90.0171C102.834 90.1904 103.135 90.3282 103.542 90.4305L104.53 90.6734C105.078 90.8069 105.489 91.0185 105.762 91.3083C106.037 91.5981 106.175 91.9617 106.175 92.3992C106.175 92.7685 106.073 93.0967 105.868 93.3836C105.664 93.6705 105.378 93.8964 105.012 94.0611C104.648 94.2231 104.226 94.304 103.746 94.304C103.107 94.304 102.58 94.1606 102.165 93.8736C101.75 93.5839 101.485 93.1663 101.368 92.6208L102.097 92.4418C102.191 92.831 102.374 93.1251 102.647 93.3239C102.922 93.5228 103.284 93.6222 103.733 93.6222C104.236 93.6222 104.638 93.51 104.939 93.2856C105.24 93.0583 105.391 92.7742 105.391 92.4333C105.391 92.1691 105.303 91.9475 105.127 91.7685C104.951 91.5867 104.684 91.4532 104.326 91.368L103.256 91.1123C102.688 90.9759 102.267 90.76 101.995 90.4646C101.722 90.1691 101.586 89.8026 101.586 89.3651C101.586 89.0043 101.684 88.6876 101.88 88.4148C102.076 88.1393 102.345 87.9234 102.689 87.7671C103.033 87.6109 103.425 87.5327 103.865 87.5327C104.465 87.5327 104.943 87.6691 105.301 87.9418C105.662 88.2117 105.922 88.5839 106.081 89.0583ZM110.414 87.6222V88.2827H107.29V87.6222H110.414ZM108.266 86.054H109.029V92.4589C109.029 92.7316 109.076 92.9461 109.17 93.1023C109.263 93.2557 109.386 93.3651 109.536 93.4305C109.687 93.493 109.847 93.5242 110.018 93.5242C110.117 93.5242 110.202 93.5185 110.273 93.5072C110.344 93.493 110.407 93.4788 110.461 93.4646L110.623 94.1506C110.549 94.179 110.458 94.2046 110.35 94.2273C110.242 94.2529 110.109 94.2657 109.95 94.2657C109.671 94.2657 109.403 94.2046 109.144 94.0824C108.888 93.9603 108.678 93.7785 108.513 93.537C108.349 93.2955 108.266 92.9958 108.266 92.6378V86.054ZM115.512 94.1677V87.6222H116.249V88.6279H116.304C116.435 88.2984 116.662 88.0327 116.986 87.831C117.313 87.6265 117.682 87.5242 118.094 87.5242C118.157 87.5242 118.226 87.5256 118.303 87.5285C118.38 87.5313 118.443 87.5342 118.495 87.537V88.3083C118.461 88.3026 118.401 88.2941 118.316 88.2827C118.23 88.2714 118.138 88.2657 118.039 88.2657C117.698 88.2657 117.394 88.3381 117.127 88.483C116.863 88.6251 116.654 88.8225 116.5 89.0753C116.347 89.3282 116.27 89.6165 116.27 89.9404V94.1677H115.512ZM122.236 94.304C121.625 94.304 121.097 94.162 120.651 93.8779C120.205 93.591 119.86 93.1947 119.615 92.689C119.374 92.1805 119.253 91.5952 119.253 90.9333C119.253 90.2742 119.374 89.689 119.615 89.1776C119.86 88.6634 120.196 88.2614 120.625 87.9717C121.057 87.679 121.556 87.5327 122.121 87.5327C122.476 87.5327 122.818 87.5981 123.148 87.7288C123.478 87.8566 123.773 88.054 124.034 88.3211C124.299 88.5853 124.507 88.9191 124.661 89.3225C124.814 89.7231 124.891 90.1975 124.891 90.7458V91.1208H119.777V90.4518H124.115C124.115 90.0313 124.03 89.6535 123.86 89.3182C123.692 88.9802 123.458 88.7131 123.157 88.5171C122.858 88.3211 122.513 88.2231 122.121 88.2231C121.706 88.2231 121.341 88.3339 121.026 88.5555C120.711 88.777 120.463 89.0697 120.284 89.4333C120.108 89.7969 120.019 90.1947 120.016 90.6265V91.0271C120.016 91.5469 120.105 92.0015 120.284 92.3907C120.466 92.777 120.723 93.0768 121.056 93.2898C121.388 93.5029 121.782 93.6094 122.236 93.6094C122.546 93.6094 122.817 93.5611 123.05 93.4646C123.286 93.368 123.483 93.2387 123.642 93.0768C123.804 92.912 123.926 92.7316 124.009 92.5356L124.729 92.7699C124.63 93.0455 124.466 93.2998 124.239 93.5327C124.015 93.7657 123.733 93.9532 123.395 94.0952C123.06 94.2344 122.674 94.304 122.236 94.304ZM128.391 94.3168C127.996 94.3168 127.635 94.2401 127.308 94.0867C126.981 93.9305 126.722 93.706 126.528 93.4134C126.335 93.118 126.239 92.76 126.239 92.3396C126.239 92.0157 126.3 91.743 126.422 91.5214C126.544 91.2998 126.717 91.118 126.942 90.9759C127.166 90.8339 127.432 90.7217 127.739 90.6393C128.045 90.5569 128.383 90.493 128.753 90.4475C129.119 90.402 129.429 90.3623 129.682 90.3282C129.937 90.2941 130.132 90.2401 130.266 90.1663C130.399 90.0924 130.466 89.9731 130.466 89.8083V89.6549C130.466 89.2089 130.332 88.858 130.065 88.6023C129.801 88.3438 129.42 88.2146 128.923 88.2146C128.452 88.2146 128.067 88.3182 127.768 88.5256C127.473 88.733 127.266 88.9773 127.146 89.2586L126.426 88.9986C126.574 88.6407 126.778 88.3552 127.04 88.1421C127.301 87.9262 127.594 87.7714 127.918 87.6776C128.241 87.581 128.57 87.5327 128.902 87.5327C129.152 87.5327 129.412 87.5654 129.682 87.6307C129.955 87.6961 130.207 87.8097 130.44 87.9717C130.673 88.1307 130.862 88.3538 131.007 88.6407C131.152 88.9248 131.224 89.2856 131.224 89.7231V94.1677H130.466V93.1322H130.419C130.328 93.3253 130.193 93.5128 130.014 93.6947C129.835 93.8765 129.611 94.0256 129.341 94.1421C129.071 94.2586 128.754 94.3168 128.391 94.3168ZM128.493 93.6222C128.896 93.6222 129.246 93.5327 129.541 93.3538C129.837 93.1748 130.064 92.9376 130.223 92.6421C130.385 92.3438 130.466 92.0157 130.466 91.6577V90.7117C130.409 90.7657 130.314 90.814 130.18 90.8566C130.05 90.8992 129.898 90.9376 129.724 90.9717C129.554 91.0029 129.383 91.0299 129.213 91.0526C129.043 91.0753 128.889 91.0952 128.753 91.1123C128.383 91.1577 128.068 91.2288 127.807 91.3253C127.545 91.4219 127.345 91.5555 127.206 91.7259C127.067 91.8935 126.997 92.1094 126.997 92.3736C126.997 92.7714 127.139 93.0796 127.423 93.2984C127.707 93.5143 128.064 93.6222 128.493 93.6222ZM134.001 85.4404V94.1677H133.242V85.4404H134.001ZM139.383 96.6222V87.6222H140.12V88.8708H140.209C140.3 88.6748 140.425 88.4745 140.584 88.2699C140.744 88.0626 140.954 87.8878 141.215 87.7458C141.479 87.6038 141.812 87.5327 142.212 87.5327C142.752 87.5327 143.224 87.6748 143.627 87.9589C144.033 88.2401 144.349 88.635 144.573 89.1435C144.8 89.6492 144.914 90.2387 144.914 90.912C144.914 91.5881 144.8 92.1805 144.573 92.689C144.349 93.1975 144.033 93.5938 143.627 93.8779C143.224 94.162 142.755 94.304 142.221 94.304C141.826 94.304 141.495 94.233 141.228 94.091C140.964 93.9489 140.749 93.7742 140.584 93.5668C140.423 93.3566 140.298 93.152 140.209 92.9532H140.141V96.6222H139.383ZM140.133 90.8992C140.133 91.4276 140.211 91.8964 140.367 92.3055C140.526 92.7117 140.754 93.0313 141.049 93.2643C141.347 93.4944 141.708 93.6094 142.131 93.6094C142.566 93.6094 142.932 93.4901 143.231 93.2515C143.532 93.01 143.761 92.6847 143.917 92.2756C144.076 91.8665 144.155 91.4077 144.155 90.8992C144.155 90.3964 144.077 89.9432 143.921 89.5398C143.768 89.1364 143.54 88.8168 143.239 88.581C142.938 88.3424 142.569 88.2231 142.131 88.2231C141.705 88.2231 141.343 88.3381 141.045 88.5682C140.746 88.7955 140.519 89.1109 140.363 89.5143C140.209 89.9148 140.133 90.3765 140.133 90.8992ZM147.337 85.4404V94.1677H146.578V85.4404H147.337ZM151.172 94.3168C150.777 94.3168 150.416 94.2401 150.089 94.0867C149.763 93.9305 149.503 93.706 149.31 93.4134C149.116 93.118 149.02 92.76 149.02 92.3396C149.02 92.0157 149.081 91.743 149.203 91.5214C149.325 91.2998 149.499 91.118 149.723 90.9759C149.947 90.8339 150.213 90.7217 150.52 90.6393C150.827 90.5569 151.165 90.493 151.534 90.4475C151.901 90.402 152.21 90.3623 152.463 90.3282C152.719 90.2941 152.913 90.2401 153.047 90.1663C153.18 90.0924 153.247 89.9731 153.247 89.8083V89.6549C153.247 89.2089 153.114 88.858 152.847 88.6023C152.582 88.3438 152.202 88.2146 151.705 88.2146C151.233 88.2146 150.848 88.3182 150.55 88.5256C150.254 88.733 150.047 88.9773 149.928 89.2586L149.207 88.9986C149.355 88.6407 149.56 88.3552 149.821 88.1421C150.082 87.9262 150.375 87.7714 150.699 87.6776C151.023 87.581 151.351 87.5327 151.683 87.5327C151.933 87.5327 152.193 87.5654 152.463 87.6307C152.736 87.6961 152.989 87.8097 153.222 87.9717C153.455 88.1307 153.643 88.3538 153.788 88.6407C153.933 88.9248 154.006 89.2856 154.006 89.7231V94.1677H153.247V93.1322H153.2C153.109 93.3253 152.974 93.5128 152.795 93.6947C152.616 93.8765 152.392 94.0256 152.122 94.1421C151.852 94.2586 151.535 94.3168 151.172 94.3168ZM151.274 93.6222C151.678 93.6222 152.027 93.5327 152.322 93.3538C152.618 93.1748 152.845 92.9376 153.004 92.6421C153.166 92.3438 153.247 92.0157 153.247 91.6577V90.7117C153.19 90.7657 153.095 90.814 152.962 90.8566C152.831 90.8992 152.679 90.9376 152.506 90.9717C152.335 91.0029 152.165 91.0299 151.994 91.0526C151.824 91.0753 151.67 91.0952 151.534 91.1123C151.165 91.1577 150.849 91.2288 150.588 91.3253C150.327 91.4219 150.126 91.5555 149.987 91.7259C149.848 91.8935 149.778 92.1094 149.778 92.3736C149.778 92.7714 149.92 93.0796 150.205 93.2984C150.489 93.5143 150.845 93.6222 151.274 93.6222ZM156.317 96.6222C156.167 96.6222 156.026 96.608 155.896 96.5796C155.765 96.5512 155.661 96.5199 155.584 96.4859L155.789 95.8168C156.048 95.8964 156.278 95.9248 156.479 95.9021C156.681 95.8822 156.86 95.7913 157.016 95.6293C157.173 95.4702 157.312 95.2259 157.434 94.8964L157.673 94.2316L155.265 87.6222H156.087L158.03 93.1663H158.09L160.033 87.6222H160.856L158.086 95.2032C157.969 95.5185 157.826 95.7813 157.655 95.9915C157.485 96.2046 157.288 96.3623 157.063 96.4646C156.842 96.5697 156.593 96.6222 156.317 96.6222ZM164.752 94.304C164.141 94.304 163.613 94.162 163.167 93.8779C162.72 93.591 162.375 93.1947 162.131 92.689C161.89 92.1805 161.769 91.5952 161.769 90.9333C161.769 90.2742 161.89 89.689 162.131 89.1776C162.375 88.6634 162.712 88.2614 163.141 87.9717C163.573 87.679 164.071 87.5327 164.637 87.5327C164.992 87.5327 165.334 87.5981 165.664 87.7288C165.993 87.8566 166.289 88.054 166.55 88.3211C166.814 88.5853 167.023 88.9191 167.176 89.3225C167.33 89.7231 167.407 90.1975 167.407 90.7458V91.1208H162.293V90.4518H166.631C166.631 90.0313 166.546 89.6535 166.375 89.3182C166.208 88.9802 165.973 88.7131 165.672 88.5171C165.374 88.3211 165.029 88.2231 164.637 88.2231C164.222 88.2231 163.857 88.3339 163.542 88.5555C163.226 88.777 162.979 89.0697 162.8 89.4333C162.624 89.7969 162.534 90.1947 162.532 90.6265V91.0271C162.532 91.5469 162.621 92.0015 162.8 92.3907C162.982 92.777 163.239 93.0768 163.571 93.2898C163.904 93.5029 164.297 93.6094 164.752 93.6094C165.061 93.6094 165.333 93.5611 165.566 93.4646C165.801 93.368 165.999 93.2387 166.158 93.0768C166.32 92.912 166.442 92.7316 166.524 92.5356L167.245 92.7699C167.145 93.0455 166.982 93.2998 166.755 93.5327C166.53 93.7657 166.249 93.9532 165.911 94.0952C165.576 94.2344 165.189 94.304 164.752 94.304ZM169.078 94.1677V87.6222H169.815V88.6279H169.871C170.001 88.2984 170.229 88.0327 170.553 87.831C170.879 87.6265 171.249 87.5242 171.66 87.5242C171.723 87.5242 171.793 87.5256 171.869 87.5285C171.946 87.5313 172.01 87.5342 172.061 87.537V88.3083C172.027 88.3026 171.967 88.2941 171.882 88.2827C171.797 88.2714 171.705 88.2657 171.605 88.2657C171.264 88.2657 170.96 88.3381 170.693 88.483C170.429 88.6251 170.22 88.8225 170.067 89.0753C169.913 89.3282 169.837 89.6165 169.837 89.9404V94.1677H169.078ZM177.753 89.0583L177.059 89.2543C176.99 89.0583 176.894 88.8807 176.769 88.7217C176.644 88.5626 176.48 88.4361 176.279 88.3424C176.08 88.2486 175.833 88.2018 175.537 88.2018C175.094 88.2018 174.73 88.3069 174.446 88.5171C174.162 88.7273 174.02 88.9986 174.02 89.331C174.02 89.6123 174.117 89.841 174.31 90.0171C174.506 90.1904 174.807 90.3282 175.213 90.4305L176.202 90.6734C176.75 90.8069 177.161 91.0185 177.434 91.3083C177.709 91.5981 177.847 91.9617 177.847 92.3992C177.847 92.7685 177.745 93.0967 177.54 93.3836C177.336 93.6705 177.05 93.8964 176.684 94.0611C176.32 94.2231 175.898 94.304 175.418 94.304C174.779 94.304 174.252 94.1606 173.837 93.8736C173.422 93.5839 173.157 93.1663 173.04 92.6208L173.769 92.4418C173.863 92.831 174.046 93.1251 174.318 93.3239C174.594 93.5228 174.956 93.6222 175.405 93.6222C175.908 93.6222 176.31 93.51 176.611 93.2856C176.912 93.0583 177.063 92.7742 177.063 92.4333C177.063 92.1691 176.975 91.9475 176.799 91.7685C176.622 91.5867 176.355 91.4532 175.997 91.368L174.928 91.1123C174.36 90.9759 173.939 90.76 173.667 90.4646C173.394 90.1691 173.257 89.8026 173.257 89.3651C173.257 89.0043 173.355 88.6876 173.551 88.4148C173.747 88.1393 174.017 87.9234 174.361 87.7671C174.705 87.6109 175.097 87.5327 175.537 87.5327C176.137 87.5327 176.615 87.6691 176.973 87.9418C177.334 88.2117 177.594 88.5839 177.753 89.0583ZM185.576 87.6222V88.2827H182.359V87.6222H185.576ZM183.364 94.1677V86.6634C183.364 86.3111 183.445 86.0143 183.607 85.7728C183.772 85.5313 183.986 85.3481 184.251 85.2231C184.515 85.0981 184.795 85.0356 185.09 85.0356C185.289 85.0356 185.454 85.0526 185.584 85.0867C185.718 85.118 185.823 85.1492 185.9 85.1805L185.678 85.8452C185.621 85.8282 185.552 85.8083 185.469 85.7856C185.387 85.7628 185.283 85.7515 185.158 85.7515C184.829 85.7515 184.575 85.8438 184.396 86.0285C184.217 86.2131 184.127 86.4773 184.127 86.8211L184.123 94.1677H183.364ZM189.364 94.304C188.799 94.304 188.299 94.1606 187.864 93.8736C187.432 93.5867 187.094 93.1904 186.85 92.6847C186.606 92.1762 186.484 91.5895 186.484 90.9248C186.484 90.2543 186.606 89.6648 186.85 89.1563C187.094 88.6449 187.432 88.2472 187.864 87.9631C188.299 87.6762 188.799 87.5327 189.364 87.5327C189.93 87.5327 190.428 87.6762 190.86 87.9631C191.292 88.2501 191.63 88.6478 191.874 89.1563C192.121 89.6648 192.245 90.2543 192.245 90.9248C192.245 91.5895 192.123 92.1762 191.879 92.6847C191.634 93.1904 191.295 93.5867 190.86 93.8736C190.428 94.1606 189.93 94.304 189.364 94.304ZM189.364 93.6094C189.819 93.6094 190.204 93.4873 190.519 93.243C190.834 92.9986 191.073 92.6734 191.235 92.2671C191.4 91.8609 191.482 91.4134 191.482 90.9248C191.482 90.4361 191.4 89.9873 191.235 89.5782C191.073 89.1691 190.834 88.841 190.519 88.5938C190.204 88.3467 189.819 88.2231 189.364 88.2231C188.913 88.2231 188.528 88.3467 188.209 88.5938C187.894 88.841 187.654 89.1691 187.489 89.5782C187.327 89.9873 187.246 90.4361 187.246 90.9248C187.246 91.4134 187.327 91.8609 187.489 92.2671C187.654 92.6734 187.894 92.9986 188.209 93.243C188.525 93.4873 188.91 93.6094 189.364 93.6094ZM193.91 94.1677V87.6222H194.647V88.6279H194.703C194.833 88.2984 195.061 88.0327 195.385 87.831C195.711 87.6265 196.081 87.5242 196.492 87.5242C196.555 87.5242 196.625 87.5256 196.701 87.5285C196.778 87.5313 196.842 87.5342 196.893 87.537V88.3083C196.859 88.3026 196.799 88.2941 196.714 88.2827C196.629 88.2714 196.537 88.2657 196.437 88.2657C196.096 88.2657 195.792 88.3381 195.525 88.483C195.261 88.6251 195.052 88.8225 194.899 89.0753C194.745 89.3282 194.669 89.6165 194.669 89.9404V94.1677H193.91ZM202.321 85.4404V94.1677H201.562V85.4404H202.321ZM206.974 94.304C206.364 94.304 205.835 94.162 205.389 93.8779C204.943 93.591 204.598 93.1947 204.354 92.689C204.112 92.1805 203.991 91.5952 203.991 90.9333C203.991 90.2742 204.112 89.689 204.354 89.1776C204.598 88.6634 204.935 88.2614 205.364 87.9717C205.795 87.679 206.294 87.5327 206.859 87.5327C207.214 87.5327 207.557 87.5981 207.886 87.7288C208.216 87.8566 208.511 88.054 208.773 88.3211C209.037 88.5853 209.246 88.9191 209.399 89.3225C209.553 89.7231 209.629 90.1975 209.629 90.7458V91.1208H204.516V90.4518H208.854C208.854 90.0313 208.768 89.6535 208.598 89.3182C208.43 88.9802 208.196 88.7131 207.895 88.5171C207.597 88.3211 207.251 88.2231 206.859 88.2231C206.445 88.2231 206.08 88.3339 205.764 88.5555C205.449 88.777 205.202 89.0697 205.023 89.4333C204.847 89.7969 204.757 90.1947 204.754 90.6265V91.0271C204.754 91.5469 204.844 92.0015 205.023 92.3907C205.205 92.777 205.462 93.0768 205.794 93.2898C206.126 93.5029 206.52 93.6094 206.974 93.6094C207.284 93.6094 207.555 93.5611 207.788 93.4646C208.024 93.368 208.222 93.2387 208.381 93.0768C208.543 92.912 208.665 92.7316 208.747 92.5356L209.467 92.7699C209.368 93.0455 209.205 93.2998 208.977 93.5327C208.753 93.7657 208.472 93.9532 208.133 94.0952C207.798 94.2344 207.412 94.304 206.974 94.304ZM213.129 94.3168C212.734 94.3168 212.373 94.2401 212.046 94.0867C211.72 93.9305 211.46 93.706 211.267 93.4134C211.073 93.118 210.977 92.76 210.977 92.3396C210.977 92.0157 211.038 91.743 211.16 91.5214C211.282 91.2998 211.456 91.118 211.68 90.9759C211.904 90.8339 212.17 90.7217 212.477 90.6393C212.784 90.5569 213.122 90.493 213.491 90.4475C213.858 90.402 214.167 90.3623 214.42 90.3282C214.676 90.2941 214.87 90.2401 215.004 90.1663C215.137 90.0924 215.204 89.9731 215.204 89.8083V89.6549C215.204 89.2089 215.071 88.858 214.804 88.6023C214.539 88.3438 214.159 88.2146 213.662 88.2146C213.19 88.2146 212.805 88.3182 212.507 88.5256C212.211 88.733 212.004 88.9773 211.885 89.2586L211.164 88.9986C211.312 88.6407 211.517 88.3552 211.778 88.1421C212.039 87.9262 212.332 87.7714 212.656 87.6776C212.98 87.581 213.308 87.5327 213.64 87.5327C213.89 87.5327 214.15 87.5654 214.42 87.6307C214.693 87.6961 214.946 87.8097 215.179 87.9717C215.412 88.1307 215.6 88.3538 215.745 88.6407C215.89 88.9248 215.963 89.2856 215.963 89.7231V94.1677H215.204V93.1322H215.157C215.066 93.3253 214.931 93.5128 214.752 93.6947C214.573 93.8765 214.349 94.0256 214.079 94.1421C213.809 94.2586 213.492 94.3168 213.129 94.3168ZM213.231 93.6222C213.635 93.6222 213.984 93.5327 214.279 93.3538C214.575 93.1748 214.802 92.9376 214.961 92.6421C215.123 92.3438 215.204 92.0157 215.204 91.6577V90.7117C215.147 90.7657 215.052 90.814 214.919 90.8566C214.788 90.8992 214.636 90.9376 214.463 90.9717C214.292 91.0029 214.122 91.0299 213.951 91.0526C213.781 91.0753 213.627 91.0952 213.491 91.1123C213.122 91.1577 212.806 91.2288 212.545 91.3253C212.284 91.4219 212.083 91.5555 211.944 91.7259C211.805 91.8935 211.735 92.1094 211.735 92.3736C211.735 92.7714 211.877 93.0796 212.162 93.2984C212.446 93.5143 212.802 93.6222 213.231 93.6222ZM220.337 94.304C219.8 94.304 219.33 94.162 218.926 93.8779C218.523 93.5938 218.208 93.1975 217.98 92.689C217.756 92.1805 217.644 91.5881 217.644 90.912C217.644 90.2387 217.756 89.6492 217.98 89.1435C218.208 88.635 218.524 88.2401 218.931 87.9589C219.337 87.6748 219.81 87.5327 220.35 87.5327C220.747 87.5327 221.078 87.6038 221.343 87.7458C221.607 87.885 221.818 88.0583 221.978 88.2657C222.137 88.4731 222.26 88.6748 222.348 88.8708H222.417V85.4404H223.179V94.1677H222.438V92.9532H222.348C222.26 93.152 222.135 93.3566 221.973 93.5668C221.811 93.7742 221.597 93.9489 221.33 94.091C221.066 94.233 220.735 94.304 220.337 94.304ZM220.426 93.6094C220.85 93.6094 221.211 93.4944 221.509 93.2643C221.807 93.0313 222.034 92.7117 222.191 92.3055C222.35 91.8964 222.429 91.4276 222.429 90.8992C222.429 90.3765 222.351 89.9148 222.195 89.5143C222.039 89.1109 221.811 88.7955 221.513 88.5682C221.215 88.3381 220.853 88.2231 220.426 88.2231C219.989 88.2231 219.62 88.3424 219.318 88.581C219.02 88.8168 218.793 89.1364 218.637 89.5398C218.483 89.9432 218.407 90.3964 218.407 90.8992C218.407 91.4077 218.485 91.8665 218.641 92.2756C218.797 92.6847 219.024 93.01 219.323 93.2515C219.624 93.4901 219.992 93.6094 220.426 93.6094ZM227.986 94.304C227.375 94.304 226.847 94.162 226.401 93.8779C225.955 93.591 225.61 93.1947 225.365 92.689C225.124 92.1805 225.003 91.5952 225.003 90.9333C225.003 90.2742 225.124 89.689 225.365 89.1776C225.61 88.6634 225.946 88.2614 226.375 87.9717C226.807 87.679 227.306 87.5327 227.871 87.5327C228.226 87.5327 228.568 87.5981 228.898 87.7288C229.228 87.8566 229.523 88.054 229.784 88.3211C230.049 88.5853 230.257 88.9191 230.411 89.3225C230.564 89.7231 230.641 90.1975 230.641 90.7458V91.1208H225.527V90.4518H229.865C229.865 90.0313 229.78 89.6535 229.61 89.3182C229.442 88.9802 229.208 88.7131 228.907 88.5171C228.608 88.3211 228.263 88.2231 227.871 88.2231C227.456 88.2231 227.091 88.3339 226.776 88.5555C226.461 88.777 226.213 89.0697 226.034 89.4333C225.858 89.7969 225.769 90.1947 225.766 90.6265V91.0271C225.766 91.5469 225.855 92.0015 226.034 92.3907C226.216 92.777 226.473 93.0768 226.806 93.2898C227.138 93.5029 227.532 93.6094 227.986 93.6094C228.296 93.6094 228.567 93.5611 228.8 93.4646C229.036 93.368 229.233 93.2387 229.392 93.0768C229.554 92.912 229.676 92.7316 229.759 92.5356L230.479 92.7699C230.38 93.0455 230.216 93.2998 229.989 93.5327C229.765 93.7657 229.483 93.9532 229.145 94.0952C228.81 94.2344 228.424 94.304 227.986 94.304ZM232.312 94.1677V87.6222H233.05V88.6279H233.105C233.236 88.2984 233.463 88.0327 233.787 87.831C234.114 87.6265 234.483 87.5242 234.895 87.5242C234.957 87.5242 235.027 87.5256 235.104 87.5285C235.18 87.5313 235.244 87.5342 235.295 87.537V88.3083C235.261 88.3026 235.202 88.2941 235.116 88.2827C235.031 88.2714 234.939 88.2657 234.839 88.2657C234.499 88.2657 234.195 88.3381 233.928 88.483C233.663 88.6251 233.455 88.8225 233.301 89.0753C233.148 89.3282 233.071 89.6165 233.071 89.9404V94.1677H232.312ZM236.747 94.1677V85.4404H237.51V88.8708H237.578C237.664 88.6748 237.786 88.4731 237.945 88.2657C238.107 88.0583 238.318 87.885 238.58 87.7458C238.844 87.6038 239.176 87.5327 239.577 87.5327C240.114 87.5327 240.586 87.6748 240.992 87.9589C241.398 88.2401 241.715 88.635 241.942 89.1435C242.169 89.6492 242.283 90.2387 242.283 90.912C242.283 91.5881 242.169 92.1805 241.942 92.689C241.718 93.1975 241.402 93.5938 240.996 93.8779C240.593 94.162 240.124 94.304 239.59 94.304C239.192 94.304 238.86 94.233 238.593 94.091C238.328 93.9489 238.115 93.7742 237.953 93.5668C237.792 93.3566 237.667 93.152 237.578 92.9532H237.485V94.1677H236.747ZM237.497 90.8992C237.497 91.4276 237.576 91.8964 237.732 92.3055C237.891 92.7117 238.118 93.0313 238.414 93.2643C238.712 93.4944 239.073 93.6094 239.496 93.6094C239.931 93.6094 240.299 93.4901 240.6 93.2515C240.901 93.01 241.13 92.6847 241.286 92.2756C241.442 91.8665 241.52 91.4077 241.52 90.8992C241.52 90.3964 241.442 89.9432 241.286 89.5398C241.132 89.1364 240.905 88.8168 240.604 88.581C240.303 88.3424 239.934 88.2231 239.496 88.2231C239.07 88.2231 238.708 88.3381 238.409 88.5682C238.114 88.7955 237.888 89.1109 237.732 89.5143C237.576 89.9148 237.497 90.3765 237.497 90.8992ZM246.493 94.304C245.928 94.304 245.428 94.1606 244.993 93.8736C244.561 93.5867 244.223 93.1904 243.979 92.6847C243.735 92.1762 243.613 91.5895 243.613 90.9248C243.613 90.2543 243.735 89.6648 243.979 89.1563C244.223 88.6449 244.561 88.2472 244.993 87.9631C245.428 87.6762 245.928 87.5327 246.493 87.5327C247.059 87.5327 247.557 87.6762 247.989 87.9631C248.421 88.2501 248.759 88.6478 249.003 89.1563C249.25 89.6648 249.374 90.2543 249.374 90.9248C249.374 91.5895 249.252 92.1762 249.007 92.6847C248.763 93.1904 248.424 93.5867 247.989 93.8736C247.557 94.1606 247.059 94.304 246.493 94.304ZM246.493 93.6094C246.948 93.6094 247.333 93.4873 247.648 93.243C247.963 92.9986 248.202 92.6734 248.364 92.2671C248.529 91.8609 248.611 91.4134 248.611 90.9248C248.611 90.4361 248.529 89.9873 248.364 89.5782C248.202 89.1691 247.963 88.841 247.648 88.5938C247.333 88.3467 246.948 88.2231 246.493 88.2231C246.042 88.2231 245.657 88.3467 245.338 88.5938C245.023 88.841 244.783 89.1691 244.618 89.5782C244.456 89.9873 244.375 90.4361 244.375 90.9248C244.375 91.4134 244.456 91.8609 244.618 92.2671C244.783 92.6734 245.023 92.9986 245.338 93.243C245.654 93.4873 246.039 93.6094 246.493 93.6094ZM252.867 94.3168C252.472 94.3168 252.111 94.2401 251.785 94.0867C251.458 93.9305 251.198 93.706 251.005 93.4134C250.812 93.118 250.715 92.76 250.715 92.3396C250.715 92.0157 250.776 91.743 250.898 91.5214C251.021 91.2998 251.194 91.118 251.418 90.9759C251.643 90.8339 251.908 90.7217 252.215 90.6393C252.522 90.5569 252.86 90.493 253.229 90.4475C253.596 90.402 253.905 90.3623 254.158 90.3282C254.414 90.2941 254.609 90.2401 254.742 90.1663C254.876 90.0924 254.942 89.9731 254.942 89.8083V89.6549C254.942 89.2089 254.809 88.858 254.542 88.6023C254.278 88.3438 253.897 88.2146 253.4 88.2146C252.928 88.2146 252.543 88.3182 252.245 88.5256C251.95 88.733 251.742 88.9773 251.623 89.2586L250.903 88.9986C251.05 88.6407 251.255 88.3552 251.516 88.1421C251.778 87.9262 252.07 87.7714 252.394 87.6776C252.718 87.581 253.046 87.5327 253.379 87.5327C253.629 87.5327 253.888 87.5654 254.158 87.6307C254.431 87.6961 254.684 87.8097 254.917 87.9717C255.15 88.1307 255.339 88.3538 255.484 88.6407C255.629 88.9248 255.701 89.2856 255.701 89.7231V94.1677H254.942V93.1322H254.896C254.805 93.3253 254.67 93.5128 254.491 93.6947C254.312 93.8765 254.087 94.0256 253.817 94.1421C253.548 94.2586 253.231 94.3168 252.867 94.3168ZM252.969 93.6222C253.373 93.6222 253.722 93.5327 254.018 93.3538C254.313 93.1748 254.54 92.9376 254.7 92.6421C254.861 92.3438 254.942 92.0157 254.942 91.6577V90.7117C254.886 90.7657 254.79 90.814 254.657 90.8566C254.526 90.8992 254.374 90.9376 254.201 90.9717C254.03 91.0029 253.86 91.0299 253.69 91.0526C253.519 91.0753 253.366 91.0952 253.229 91.1123C252.86 91.1577 252.545 91.2288 252.283 91.3253C252.022 91.4219 251.822 91.5555 251.682 91.7259C251.543 91.8935 251.474 92.1094 251.474 92.3736C251.474 92.7714 251.616 93.0796 251.9 93.2984C252.184 93.5143 252.54 93.6222 252.969 93.6222ZM257.719 94.1677V87.6222H258.456V88.6279H258.511C258.642 88.2984 258.869 88.0327 259.193 87.831C259.52 87.6265 259.889 87.5242 260.301 87.5242C260.364 87.5242 260.433 87.5256 260.51 87.5285C260.587 87.5313 260.651 87.5342 260.702 87.537V88.3083C260.668 88.3026 260.608 88.2941 260.523 88.2827C260.437 88.2714 260.345 88.2657 260.246 88.2657C259.905 88.2657 259.601 88.3381 259.334 88.483C259.07 88.6251 258.861 88.8225 258.707 89.0753C258.554 89.3282 258.477 89.6165 258.477 89.9404V94.1677H257.719ZM264.153 94.304C263.616 94.304 263.146 94.162 262.743 93.8779C262.339 93.5938 262.024 93.1975 261.797 92.689C261.572 92.1805 261.46 91.5881 261.46 90.912C261.46 90.2387 261.572 89.6492 261.797 89.1435C262.024 88.635 262.341 88.2401 262.747 87.9589C263.153 87.6748 263.626 87.5327 264.166 87.5327C264.564 87.5327 264.895 87.6038 265.159 87.7458C265.423 87.885 265.635 88.0583 265.794 88.2657C265.953 88.4731 266.077 88.6748 266.165 88.8708H266.233V85.4404H266.996V94.1677H266.254V92.9532H266.165C266.077 93.152 265.952 93.3566 265.79 93.5668C265.628 93.7742 265.413 93.9489 265.146 94.091C264.882 94.233 264.551 94.304 264.153 94.304ZM264.243 93.6094C264.666 93.6094 265.027 93.4944 265.325 93.2643C265.624 93.0313 265.851 92.7117 266.007 92.3055C266.166 91.8964 266.246 91.4276 266.246 90.8992C266.246 90.3765 266.168 89.9148 266.011 89.5143C265.855 89.1109 265.628 88.7955 265.33 88.5682C265.031 88.3381 264.669 88.2231 264.243 88.2231C263.805 88.2231 263.436 88.3424 263.135 88.581C262.837 88.8168 262.609 89.1364 262.453 89.5398C262.3 89.9432 262.223 90.3964 262.223 90.8992C262.223 91.4077 262.301 91.8665 262.457 92.2756C262.614 92.6847 262.841 93.01 263.139 93.2515C263.44 93.4901 263.808 93.6094 264.243 93.6094ZM274.359 94.3168C273.964 94.3168 273.604 94.2401 273.277 94.0867C272.95 93.9305 272.69 93.706 272.497 93.4134C272.304 93.118 272.207 92.76 272.207 92.3396C272.207 92.0157 272.268 91.743 272.391 91.5214C272.513 91.2998 272.686 91.118 272.91 90.9759C273.135 90.8339 273.401 90.7217 273.707 90.6393C274.014 90.5569 274.352 90.493 274.722 90.4475C275.088 90.402 275.398 90.3623 275.651 90.3282C275.906 90.2941 276.101 90.2401 276.234 90.1663C276.368 90.0924 276.435 89.9731 276.435 89.8083V89.6549C276.435 89.2089 276.301 88.858 276.034 88.6023C275.77 88.3438 275.389 88.2146 274.892 88.2146C274.42 88.2146 274.035 88.3182 273.737 88.5256C273.442 88.733 273.234 88.9773 273.115 89.2586L272.395 88.9986C272.543 88.6407 272.747 88.3552 273.008 88.1421C273.27 87.9262 273.562 87.7714 273.886 87.6776C274.21 87.581 274.538 87.5327 274.871 87.5327C275.121 87.5327 275.381 87.5654 275.651 87.6307C275.923 87.6961 276.176 87.8097 276.409 87.9717C276.642 88.1307 276.831 88.3538 276.976 88.6407C277.121 88.9248 277.193 89.2856 277.193 89.7231V94.1677H276.435V93.1322H276.388C276.297 93.3253 276.162 93.5128 275.983 93.6947C275.804 93.8765 275.58 94.0256 275.31 94.1421C275.04 94.2586 274.723 94.3168 274.359 94.3168ZM274.462 93.6222C274.865 93.6222 275.214 93.5327 275.51 93.3538C275.805 93.1748 276.033 92.9376 276.192 92.6421C276.354 92.3438 276.435 92.0157 276.435 91.6577V90.7117C276.378 90.7657 276.283 90.814 276.149 90.8566C276.018 90.8992 275.866 90.9376 275.693 90.9717C275.523 91.0029 275.352 91.0299 275.182 91.0526C275.011 91.0753 274.858 91.0952 274.722 91.1123C274.352 91.1577 274.037 91.2288 273.776 91.3253C273.514 91.4219 273.314 91.5555 273.175 91.7259C273.035 91.8935 272.966 92.1094 272.966 92.3736C272.966 92.7714 273.108 93.0796 273.392 93.2984C273.676 93.5143 274.033 93.6222 274.462 93.6222ZM279.969 90.0768V94.1677H279.211V87.6222H279.948V88.6492H280.016C280.17 88.314 280.408 88.0455 280.732 87.8438C281.059 87.6393 281.462 87.537 281.942 87.537C282.383 87.537 282.769 87.6293 283.102 87.814C283.437 87.9958 283.697 88.2643 283.881 88.6194C284.069 88.9745 284.163 89.4106 284.163 89.9276V94.1677H283.404V89.9745C283.404 89.4376 283.254 89.0128 282.952 88.7003C282.654 88.3878 282.254 88.2316 281.751 88.2316C281.407 88.2316 281.102 88.3055 280.834 88.4532C280.567 88.6009 280.356 88.814 280.2 89.0924C280.046 89.368 279.969 89.6961 279.969 90.0768ZM288.517 94.304C287.98 94.304 287.51 94.162 287.106 93.8779C286.703 93.5938 286.387 93.1975 286.16 92.689C285.936 92.1805 285.823 91.5881 285.823 90.912C285.823 90.2387 285.936 89.6492 286.16 89.1435C286.387 88.635 286.704 88.2401 287.11 87.9589C287.517 87.6748 287.99 87.5327 288.529 87.5327C288.927 87.5327 289.258 87.6038 289.522 87.7458C289.787 87.885 289.998 88.0583 290.157 88.2657C290.316 88.4731 290.44 88.6748 290.528 88.8708H290.596V85.4404H291.359V94.1677H290.617V92.9532H290.528C290.44 93.152 290.315 93.3566 290.153 93.5668C289.991 93.7742 289.777 93.9489 289.51 94.091C289.245 94.233 288.914 94.304 288.517 94.304ZM288.606 93.6094C289.029 93.6094 289.39 93.4944 289.689 93.2643C289.987 93.0313 290.214 92.7117 290.37 92.3055C290.529 91.8964 290.609 91.4276 290.609 90.8992C290.609 90.3765 290.531 89.9148 290.375 89.5143C290.218 89.1109 289.991 88.7955 289.693 88.5682C289.394 88.3381 289.032 88.2231 288.606 88.2231C288.169 88.2231 287.799 88.3424 287.498 88.581C287.2 88.8168 286.973 89.1364 286.816 89.5398C286.663 89.9432 286.586 90.3964 286.586 90.8992C286.586 91.4077 286.664 91.8665 286.821 92.2756C286.977 92.6847 287.204 93.01 287.502 93.2515C287.804 93.4901 288.171 93.6094 288.606 93.6094ZM296.894 96.6222V87.6222H297.632V88.8708H297.721C297.812 88.6748 297.937 88.4745 298.096 88.2699C298.255 88.0626 298.466 87.8878 298.727 87.7458C298.991 87.6038 299.323 87.5327 299.724 87.5327C300.264 87.5327 300.735 87.6748 301.139 87.9589C301.545 88.2401 301.86 88.635 302.085 89.1435C302.312 89.6492 302.426 90.2387 302.426 90.912C302.426 91.5881 302.312 92.1805 302.085 92.689C301.86 93.1975 301.545 93.5938 301.139 93.8779C300.735 94.162 300.267 94.304 299.733 94.304C299.338 94.304 299.007 94.233 298.74 94.091C298.475 93.9489 298.261 93.7742 298.096 93.5668C297.934 93.3566 297.809 93.152 297.721 92.9532H297.653V96.6222H296.894ZM297.644 90.8992C297.644 91.4276 297.723 91.8964 297.879 92.3055C298.038 92.7117 298.265 93.0313 298.561 93.2643C298.859 93.4944 299.22 93.6094 299.643 93.6094C300.078 93.6094 300.444 93.4901 300.742 93.2515C301.044 93.01 301.272 92.6847 301.429 92.2756C301.588 91.8665 301.667 91.4077 301.667 90.8992C301.667 90.3964 301.589 89.9432 301.433 89.5398C301.279 89.1364 301.052 88.8168 300.751 88.581C300.45 88.3424 300.081 88.2231 299.643 88.2231C299.217 88.2231 298.855 88.3381 298.556 88.5682C298.258 88.7955 298.031 89.1109 297.875 89.5143C297.721 89.9148 297.644 90.3765 297.644 90.8992ZM304.09 94.1677V87.6222H304.827V88.6279H304.882C305.013 88.2984 305.24 88.0327 305.564 87.831C305.891 87.6265 306.26 87.5242 306.672 87.5242C306.735 87.5242 306.804 87.5256 306.881 87.5285C306.958 87.5313 307.022 87.5342 307.073 87.537V88.3083C307.039 88.3026 306.979 88.2941 306.894 88.2827C306.809 88.2714 306.716 88.2657 306.617 88.2657C306.276 88.2657 305.972 88.3381 305.705 88.483C305.441 88.6251 305.232 88.8225 305.078 89.0753C304.925 89.3282 304.848 89.6165 304.848 89.9404V94.1677H304.09ZM308.376 94.1677V87.6222H309.138V94.1677H308.376ZM308.763 86.4972C308.607 86.4972 308.474 86.4447 308.363 86.3396C308.252 86.2316 308.197 86.1023 308.197 85.9518C308.197 85.8012 308.252 85.6734 308.363 85.5682C308.474 85.4603 308.607 85.4063 308.763 85.4063C308.92 85.4063 309.053 85.4603 309.164 85.5682C309.275 85.6734 309.33 85.8012 309.33 85.9518C309.33 86.1023 309.275 86.2316 309.164 86.3396C309.053 86.4447 308.92 86.4972 308.763 86.4972ZM310.94 94.1677V93.5668L314.724 88.3935V88.3381H311.102V87.6222H315.7V88.2486L311.984 93.3964V93.4518H315.836V94.1677H310.94ZM319.967 94.304C319.356 94.304 318.827 94.162 318.381 93.8779C317.935 93.591 317.59 93.1947 317.346 92.689C317.104 92.1805 316.984 91.5952 316.984 90.9333C316.984 90.2742 317.104 89.689 317.346 89.1776C317.59 88.6634 317.927 88.2614 318.356 87.9717C318.788 87.679 319.286 87.5327 319.852 87.5327C320.207 87.5327 320.549 87.5981 320.879 87.7288C321.208 87.8566 321.504 88.054 321.765 88.3211C322.029 88.5853 322.238 88.9191 322.391 89.3225C322.545 89.7231 322.621 90.1975 322.621 90.7458V91.1208H317.508V90.4518H321.846C321.846 90.0313 321.761 89.6535 321.59 89.3182C321.423 88.9802 321.188 88.7131 320.887 88.5171C320.589 88.3211 320.244 88.2231 319.852 88.2231C319.437 88.2231 319.072 88.3339 318.756 88.5555C318.441 88.777 318.194 89.0697 318.015 89.4333C317.839 89.7969 317.749 90.1947 317.746 90.6265V91.0271C317.746 91.5469 317.836 92.0015 318.015 92.3907C318.197 92.777 318.454 93.0768 318.786 93.2898C319.119 93.5029 319.512 93.6094 319.967 93.6094C320.276 93.6094 320.548 93.5611 320.78 93.4646C321.016 93.368 321.214 93.2387 321.373 93.0768C321.535 92.912 321.657 92.7316 321.739 92.5356L322.459 92.7699C322.36 93.0455 322.197 93.2998 321.969 93.5327C321.745 93.7657 321.464 93.9532 321.126 94.0952C320.79 94.2344 320.404 94.304 319.967 94.304ZM328.691 89.0583L327.996 89.2543C327.928 89.0583 327.831 88.8807 327.706 88.7217C327.581 88.5626 327.418 88.4361 327.216 88.3424C327.017 88.2486 326.77 88.2018 326.475 88.2018C326.032 88.2018 325.668 88.3069 325.384 88.5171C325.1 88.7273 324.958 88.9986 324.958 89.331C324.958 89.6123 325.054 89.841 325.247 90.0171C325.443 90.1904 325.745 90.3282 326.151 90.4305L327.14 90.6734C327.688 90.8069 328.098 91.0185 328.371 91.3083C328.647 91.5981 328.784 91.9617 328.784 92.3992C328.784 92.7685 328.682 93.0967 328.478 93.3836C328.273 93.6705 327.988 93.8964 327.621 94.0611C327.257 94.2231 326.836 94.304 326.355 94.304C325.716 94.304 325.189 94.1606 324.774 93.8736C324.36 93.5839 324.094 93.1663 323.978 92.6208L324.706 92.4418C324.8 92.831 324.983 93.1251 325.256 93.3239C325.532 93.5228 325.894 93.6222 326.343 93.6222C326.845 93.6222 327.247 93.51 327.549 93.2856C327.85 93.0583 328 92.7742 328 92.4333C328 92.1691 327.912 91.9475 327.736 91.7685C327.56 91.5867 327.293 91.4532 326.935 91.368L325.865 91.1123C325.297 90.9759 324.877 90.76 324.604 90.4646C324.331 90.1691 324.195 89.8026 324.195 89.3651C324.195 89.0043 324.293 88.6876 324.489 88.4148C324.685 88.1393 324.955 87.9234 325.299 87.7671C325.642 87.6109 326.034 87.5327 326.475 87.5327C327.074 87.5327 327.553 87.6691 327.911 87.9418C328.272 88.2117 328.532 88.5839 328.691 89.0583Z" fill="#E8E8E8"/>
<g filter="url(#filter0_i_150_26115)">
<path d="M261.715 13.6821C261.791 10.1517 261.546 7.57401 260.978 5.45453C260.441 3.45333 259.519 1.49783 257.776 -0.664091C255.925 -2.96008 254.209 -4.10726 252.437 -4.68177C250.552 -5.29287 248.295 -5.353 245.348 -4.84024C244.567 -4.70428 243.095 -4.11447 241.032 -2.97717C240.201 -2.51934 239.336 -2.00544 238.459 -1.46164C240.762 -0.360671 243.159 1.02185 245.33 2.75237C248.181 5.02585 251.394 8.50343 252.838 13.5709L253.046 14.3362C255.067 22.209 253.437 29.0882 252.217 34.0718C250.8 39.8572 249.842 43.5408 250.413 47.53C251.785 57.1057 257.246 67.9647 263.682 74.7136C265.668 76.7962 267.342 78.6631 269.228 80.5676C266.184 76.6655 263.625 72.8322 261.58 68.5267C258.782 62.6381 257.161 56.3374 256.135 48.463C254.946 39.3406 256.755 34.1188 258.483 29.4427C260.023 25.2766 261.548 21.402 261.715 13.6821Z" fill="#020C7B" fill-opacity="0.25"/>
</g>
<g filter="url(#filter1_i_150_26115)">
<path d="M374.46 38.6369C377.748 37.3503 380.034 36.1331 381.772 34.7935C383.413 33.5286 384.864 31.9258 386.189 29.4856C387.597 26.8941 387.997 24.8695 387.846 23.0125C387.685 21.0371 386.873 18.9307 385.267 16.4077C384.841 15.7387 383.731 14.6062 381.888 13.1389C381.146 12.5483 380.339 11.9474 379.5 11.3469C379.369 13.8956 379.014 16.6401 378.251 19.3092C377.248 22.8158 375.273 27.1183 371.15 30.3996L370.523 30.8854C364.033 35.778 357.056 36.9177 351.986 37.7067C346.1 38.6227 342.331 39.1544 338.868 41.2155C330.556 46.1633 322.631 55.3791 318.874 63.9147C317.715 66.5487 316.635 68.8115 315.602 71.2855C318.035 66.9754 320.59 63.1393 323.778 59.5959C328.139 54.7497 333.332 50.8305 340.207 46.8562C348.171 42.2522 353.687 41.9142 358.668 41.7122C363.106 41.5322 367.269 41.4504 374.46 38.6369Z" fill="#020C7B" fill-opacity="0.25"/>
</g>
<g filter="url(#filter2_i_150_26115)">
<path d="M226.449 -2.92485C225.217 -4.16403 224.396 -5.16167 223.817 -6.09517C223.27 -6.97659 222.839 -7.96051 222.553 -9.27157C222.249 -10.664 222.303 -11.6035 222.57 -12.3559C222.853 -13.1561 223.422 -13.8739 224.369 -14.5996C224.62 -14.792 225.208 -15.0353 226.138 -15.265C226.512 -15.3575 226.915 -15.4405 227.331 -15.5166C227.107 -14.4124 226.955 -13.1783 226.982 -11.8896C227.016 -10.1966 227.37 -7.9615 228.733 -5.70333L228.941 -5.36557C231.116 -1.9259 233.905 0.0317775 235.936 1.43776C238.293 3.06994 239.809 4.09193 241.029 5.69515C243.959 9.54359 246.26 15.1126 246.894 19.5122C247.09 20.8699 247.293 22.054 247.454 23.3174C246.91 20.9826 246.263 18.8218 245.319 16.6507C244.029 13.6813 242.289 10.9273 239.853 7.79423C237.031 4.16456 234.765 2.85473 232.707 1.71541C230.874 0.700355 229.144 -0.21507 226.449 -2.92485Z" fill="#020C7B" fill-opacity="0.25"/>
</g>
</g>
<path d="M-2 9.66773C-2 3.22382 3.22382 -2 9.66773 -2H365.332C371.776 -2 377 3.22382 377 9.66773H373C373 5.43296 369.567 2 365.332 2H9.66773C5.43296 2 2 5.43296 2 9.66773H-2ZM2 9.66773M375 113H0H375M9.66773 113C3.22382 113 -2 107.776 -2 101.332V9.66773C-2 3.22382 3.22382 -2 9.66773 -2V2C5.43296 2 2 5.43296 2 9.66773V103.332C2 108.672 5.43296 113 9.66773 113ZM365.332 -2C371.776 -2 377 3.22382 377 9.66773V101.332C377 107.776 371.776 113 365.332 113C369.567 113 373 108.672 373 103.332V9.66773C373 5.43296 369.567 2 365.332 2V-2Z" fill="url(#paint3_linear_150_26115)" mask="url(#path-1-inside-1_150_26115)"/>
<defs>
<filter id="filter0_i_150_26115" x="238.459" y="-5.18644" width="30.769" height="87.1616" filterUnits="userSpaceOnUse" color-interpolation-filters="sRGB">
<feFlood flood-opacity="0" result="BackgroundImageFix"/>
<feBlend mode="normal" in="SourceGraphic" in2="BackgroundImageFix" result="shape"/>
<feColorMatrix in="SourceAlpha" type="matrix" values="0 0 0 0 0 0 0 0 0 0 0 0 0 0 0 0 0 0 127 0" result="hardAlpha"/>
<feOffset dy="1.40755"/>
<feGaussianBlur stdDeviation="0.703773"/>
<feComposite in2="hardAlpha" operator="arithmetic" k2="-1" k3="1"/>
<feColorMatrix type="matrix" values="0 0 0 0 0 0 0 0 0 0 0 0 0 0 0 0 0 0 0.25 0"/>
<feBlend mode="normal" in2="shape" result="effect1_innerShadow_150_26115"/>
</filter>
<filter id="filter1_i_150_26115" x="315.603" y="11.3469" width="72.2734" height="61.3461" filterUnits="userSpaceOnUse" color-interpolation-filters="sRGB">
<feFlood flood-opacity="0" result="BackgroundImageFix"/>
<feBlend mode="normal" in="SourceGraphic" in2="BackgroundImageFix" result="shape"/>
<feColorMatrix in="SourceAlpha" type="matrix" values="0 0 0 0 0 0 0 0 0 0 0 0 0 0 0 0 0 0 127 0" result="hardAlpha"/>
<feOffset dy="1.40755"/>
<feGaussianBlur stdDeviation="0.703773"/>
<feComposite in2="hardAlpha" operator="arithmetic" k2="-1" k3="1"/>
<feColorMatrix type="matrix" values="0 0 0 0 0 0 0 0 0 0 0 0 0 0 0 0 0 0 0.25 0"/>
<feBlend mode="normal" in2="shape" result="effect1_innerShadow_150_26115"/>
</filter>
<filter id="filter2_i_150_26115" x="222.346" y="-15.5166" width="25.1079" height="40.2416" filterUnits="userSpaceOnUse" color-interpolation-filters="sRGB">
<feFlood flood-opacity="0" result="BackgroundImageFix"/>
<feBlend mode="normal" in="SourceGraphic" in2="BackgroundImageFix" result="shape"/>
<feColorMatrix in="SourceAlpha" type="matrix" values="0 0 0 0 0 0 0 0 0 0 0 0 0 0 0 0 0 0 127 0" result="hardAlpha"/>
<feOffset dy="1.40755"/>
<feGaussianBlur stdDeviation="0.703773"/>
<feComposite in2="hardAlpha" operator="arithmetic" k2="-1" k3="1"/>
<feColorMatrix type="matrix" values="0 0 0 0 0 0 0 0 0 0 0 0 0 0 0 0 0 0 0.25 0"/>
<feBlend mode="normal" in2="shape" result="effect1_innerShadow_150_26115"/>
</filter>
<linearGradient id="paint0_linear_150_26115" x1="187.5" y1="80" x2="187.5" y2="-26" gradientUnits="userSpaceOnUse">
<stop stop-color="#010B7B"/>
<stop offset="1" stop-color="#0060DE"/>
</linearGradient>
<linearGradient id="paint1_linear_150_26115" x1="273.875" y1="78.75" x2="275.75" y2="14.25" gradientUnits="userSpaceOnUse">
<stop stop-color="#001FE8"/>
<stop offset="1" stop-color="#011599"/>
</linearGradient>
<linearGradient id="paint2_linear_150_26115" x1="323.75" y1="46.5" x2="317.213" y2="30.1268" gradientUnits="userSpaceOnUse">
<stop stop-color="#001FE8"/>
<stop offset="1" stop-color="#011599"/>
</linearGradient>
<linearGradient id="paint3_linear_150_26115" x1="187.5" y1="0" x2="187.5" y2="103.5" gradientUnits="userSpaceOnUse">
<stop stop-color="#ABC3FF"/>
<stop offset="0.128319" stop-color="#566FE3"/>
<stop offset="0.247788" stop-color="#001FE8"/>
<stop offset="0.402655" stop-color="#020C7B"/>
<stop offset="1" stop-color="#010B7B"/>
</linearGradient>
<clipPath id="clip0_150_26115">
<path d="M0 9.66773C0 4.32839 4.32839 0 9.66773 0H365.332C370.672 0 375 4.32839 375 9.66773V103.332C375 108.672 370.672 113 365.332 113H9.66773C4.32839 113 0 108.672 0 103.332V9.66773Z" fill="white"/>
</clipPath>
<clipPath id="clip1_150_26115">
<rect width="16.9048" height="16.9048" fill="white" transform="translate(23.998 24.0058)"/>
</clipPath>
<clipPath id="clip2_150_26115">
<rect width="16.9048" height="16.9048" fill="white" transform="translate(23.998 24.0058)"/>
</clipPath>
<clipPath id="clip3_150_26115">
<rect width="16.9048" height="16.9048" fill="white" transform="translate(23.998 24.0058)"/>
</clipPath>
</defs>
</svg>
