<svg preserveAspectRatio="none" width="100%" height="100%" overflow="visible" style="display: block;" viewBox="0 0 24.0198 37.705" fill="none" xmlns="http://www.w3.org/2000/svg">
<path id="A" d="M14.7269 1.78819L14.9505 4.01182L14.9651 3.93858L15.3401 2.02745L16.1097 3.81651L22.7142 19.1944L22.8294 19.462L22.6917 19.7179L18.8138 26.9073L22.7464 36.2345L23.1058 37.087L22.181 37.0704L16.0247 36.9601L15.4993 36.9513L15.4368 36.4298L13.8509 23.0538L11.1624 23.8321L9.93584 31.3263L9.84404 31.8849L9.28057 31.8272L2.07061 31.0939L1.06572 30.9913L1.63311 30.1564L4.97197 25.2462L5.36846 24.6612L5.35772 24.6026L5.37236 24.503L6.20537 18.8849L7.31279 4.72666L7.34014 4.37705L7.65654 4.22862L13.8714 1.30381L14.6419 0.941508L14.7269 1.78819ZM12.1956 10.0548L11.511 18.4991L15.2708 17.9259L14.4798 14.3917L12.3421 9.99424L12.1956 10.0548Z" fill="url(#paint0_linear_0_51)" stroke="var(--stroke-0, white)" stroke-width="1.20395"/>
<defs>
<linearGradient id="paint0_linear_0_51" x1="12.1615" y1="2.57776" x2="12.1615" y2="36.4683" gradientUnits="userSpaceOnUse">
<stop stop-color="#4001BD"/>
<stop offset="0.25" stop-color="#0C398E"/>
<stop offset="0.5" stop-color="#182D60"/>
<stop offset="1" stop-color="#10173B"/>
</linearGradient>
</defs>
</svg>
