<svg preserveAspectRatio="none" width="100%" height="100%" overflow="visible" style="display: block;" viewBox="0 0 72.9895 13.5863" fill="none" xmlns="http://www.w3.org/2000/svg">
<g id="Nexus">
<mask id="path-1-outside-1_0_40" maskUnits="userSpaceOnUse" x="-0.0229344" y="-0.796053" width="74" height="15" fill="black">
<rect fill="white" x="-0.0229344" y="-0.796053" width="74" height="15"/>
<path d="M16.2685 4.65991C16.3024 4.6871 16.3466 4.70069 16.401 4.70069C16.5913 4.70069 16.7136 4.60215 16.768 4.40505L17.6243 1.20395H20.5298L18.8171 7.60615C18.7288 7.93238 18.5419 8.20763 18.2564 8.43191C17.9778 8.6562 17.6719 8.76834 17.3389 8.76834H15.0145C14.3825 8.76834 13.8659 8.49988 13.4649 7.96296L10.6512 3.04917C10.5969 2.9812 10.5323 2.94722 10.4575 2.94722C10.2672 2.95402 10.1449 3.05257 10.0905 3.24287L8.61232 8.76834L2.97707 11.0699L8.73466 1.78504C8.77544 1.62872 8.86719 1.49279 9.00991 1.37726C9.15943 1.26172 9.31575 1.20395 9.47886 1.20395H11.2221C11.6775 1.20395 12.0479 1.31609 12.3333 1.54037L16.2685 4.65991Z"/>
<path d="M22.5485 5.28178C22.4534 5.28178 22.365 5.31916 22.2834 5.39393C22.2087 5.46869 22.1713 5.55364 22.1713 5.64879C22.1713 5.79151 22.2461 5.86288 22.3956 5.86288H32.0091L31.2241 8.77853H20.4484C20.2581 8.77853 20.0984 8.72076 19.9693 8.60522C19.8401 8.48289 19.7756 8.32657 19.7756 8.13627C19.7756 8.05471 19.7858 7.97656 19.8062 7.9018L20.8256 4.1196C20.8664 3.95649 20.9582 3.82056 21.1009 3.71182C21.2436 3.59628 21.3965 3.53851 21.5596 3.53851H23.3131L23.7821 1.78504C23.8228 1.62872 23.9146 1.49279 24.0573 1.37726C24.2 1.26172 24.3529 1.20395 24.5161 1.20395H33.2528L32.7839 2.95742H25.5049C25.4098 2.95742 25.3214 2.9948 25.2399 3.06956C25.1651 3.14432 25.1277 3.22927 25.1277 3.32442C25.1277 3.46715 25.2025 3.53851 25.352 3.53851H29.1342L28.6653 5.28178H22.5485Z"/>
<path d="M42.2852 4.1196C42.19 4.1196 42.1017 4.15698 42.0201 4.23174C41.9454 4.3065 41.908 4.39146 41.908 4.48661C41.908 4.62933 41.9827 4.70069 42.1323 4.70069H44.1712C44.3615 4.70069 44.5212 4.76186 44.6503 4.8842C44.7795 4.99973 44.844 5.15265 44.844 5.34295C44.844 5.42451 44.8338 5.50267 44.8134 5.57743L43.9469 8.77853H41.0414L41.8162 5.86288C41.8298 5.80851 41.8366 5.75753 41.8366 5.70996C41.8366 5.42451 41.6871 5.28178 41.3881 5.28178H35.5669C35.4038 5.28178 35.2509 5.33955 35.1082 5.45509C34.9655 5.56384 34.8737 5.69976 34.8329 5.86288L34.048 8.77853H32.3047L33.2324 5.28178C33.2732 5.11867 33.3649 4.98274 33.5076 4.874C33.6572 4.75846 33.8135 4.70069 33.9766 4.70069H35.1388C35.2339 4.70069 35.3189 4.66331 35.3936 4.58855C35.4752 4.51379 35.516 4.42884 35.516 4.33369C35.516 4.19096 35.4412 4.1196 35.2917 4.1196H34.1295C33.8305 4.1196 33.6809 3.97688 33.6809 3.69143C33.6809 3.63706 33.6877 3.58608 33.7013 3.53851H42.1527C42.343 3.53851 42.4653 3.43996 42.5197 3.24287L43.0702 1.20395H45.9756L45.4353 3.24287C45.3741 3.48754 45.2348 3.69483 45.0173 3.86474C44.7998 4.03465 44.5688 4.1196 44.3241 4.1196H42.2852ZM36.0767 1.20395L35.6077 2.95742H33.8644L34.3334 1.20395H36.0767Z"/>
<path d="M54.6206 5.57743L55.1609 3.53851H58.0766L56.9857 7.61635C56.9042 7.93578 56.7173 8.21103 56.425 8.44211C56.1396 8.66639 55.8338 8.77853 55.5075 8.77853H45.894C45.7037 8.77853 45.544 8.72076 45.4149 8.60522C45.2857 8.48289 45.2212 8.32657 45.2212 8.13627C45.2212 8.05471 45.2314 7.97656 45.2517 7.9018L47.0562 1.20395H48.7995L47.6271 5.57743C47.6203 5.60461 47.6169 5.6284 47.6169 5.64879C47.6169 5.79151 47.6917 5.86288 47.8412 5.86288H54.2536C54.4507 5.86288 54.573 5.76773 54.6206 5.57743ZM55.793 1.20395H58.6984L58.2295 2.95742H55.324L55.793 1.20395Z"/>
<path d="M69.9226 3.53851C70.1197 3.53851 70.2794 3.59628 70.4018 3.71182C70.5309 3.82736 70.5955 3.98367 70.5955 4.18077C70.5955 4.25553 70.5853 4.33029 70.5649 4.40505L69.7085 7.61635C69.627 7.93578 69.4401 8.21103 69.1478 8.44211C68.8624 8.66639 68.5566 8.77853 68.2303 8.77853H57.7401L58.5251 5.86288H66.9764C67.0715 5.86288 67.1565 5.8255 67.2313 5.75074C67.3128 5.67598 67.3536 5.59102 67.3536 5.49587C67.3536 5.35315 67.2788 5.28178 67.1293 5.28178H59.2591C58.9668 5.28178 58.8207 5.13906 58.8207 4.85361C58.8207 4.80604 58.8275 4.75506 58.8411 4.70069L59.6159 1.78504C59.6567 1.62872 59.7484 1.49279 59.8911 1.37726C60.0407 1.26172 60.197 1.20395 60.3601 1.20395H67.9347L67.4657 2.95742H61.349C61.2538 2.95742 61.1655 2.9948 61.0839 3.06956C61.0023 3.14432 60.9616 3.22927 60.9616 3.32442C60.9616 3.46715 61.0363 3.53851 61.1859 3.53851H69.9226ZM68.5158 1.20395H71.4212L70.9523 2.95742H68.0468L68.5158 1.20395Z"/>
</mask>
<path d="M16.2685 4.65991C16.3024 4.6871 16.3466 4.70069 16.401 4.70069C16.5913 4.70069 16.7136 4.60215 16.768 4.40505L17.6243 1.20395H20.5298L18.8171 7.60615C18.7288 7.93238 18.5419 8.20763 18.2564 8.43191C17.9778 8.6562 17.6719 8.76834 17.3389 8.76834H15.0145C14.3825 8.76834 13.8659 8.49988 13.4649 7.96296L10.6512 3.04917C10.5969 2.9812 10.5323 2.94722 10.4575 2.94722C10.2672 2.95402 10.1449 3.05257 10.0905 3.24287L8.61232 8.76834L2.97707 11.0699L8.73466 1.78504C8.77544 1.62872 8.86719 1.49279 9.00991 1.37726C9.15943 1.26172 9.31575 1.20395 9.47886 1.20395H11.2221C11.6775 1.20395 12.0479 1.31609 12.3333 1.54037L16.2685 4.65991Z" fill="url(#paint0_linear_0_40)"/>
<path d="M22.5485 5.28178C22.4534 5.28178 22.365 5.31916 22.2834 5.39393C22.2087 5.46869 22.1713 5.55364 22.1713 5.64879C22.1713 5.79151 22.2461 5.86288 22.3956 5.86288H32.0091L31.2241 8.77853H20.4484C20.2581 8.77853 20.0984 8.72076 19.9693 8.60522C19.8401 8.48289 19.7756 8.32657 19.7756 8.13627C19.7756 8.05471 19.7858 7.97656 19.8062 7.9018L20.8256 4.1196C20.8664 3.95649 20.9582 3.82056 21.1009 3.71182C21.2436 3.59628 21.3965 3.53851 21.5596 3.53851H23.3131L23.7821 1.78504C23.8228 1.62872 23.9146 1.49279 24.0573 1.37726C24.2 1.26172 24.3529 1.20395 24.5161 1.20395H33.2528L32.7839 2.95742H25.5049C25.4098 2.95742 25.3214 2.9948 25.2399 3.06956C25.1651 3.14432 25.1277 3.22927 25.1277 3.32442C25.1277 3.46715 25.2025 3.53851 25.352 3.53851H29.1342L28.6653 5.28178H22.5485Z" fill="url(#paint1_linear_0_40)"/>
<path d="M42.2852 4.1196C42.19 4.1196 42.1017 4.15698 42.0201 4.23174C41.9454 4.3065 41.908 4.39146 41.908 4.48661C41.908 4.62933 41.9827 4.70069 42.1323 4.70069H44.1712C44.3615 4.70069 44.5212 4.76186 44.6503 4.8842C44.7795 4.99973 44.844 5.15265 44.844 5.34295C44.844 5.42451 44.8338 5.50267 44.8134 5.57743L43.9469 8.77853H41.0414L41.8162 5.86288C41.8298 5.80851 41.8366 5.75753 41.8366 5.70996C41.8366 5.42451 41.6871 5.28178 41.3881 5.28178H35.5669C35.4038 5.28178 35.2509 5.33955 35.1082 5.45509C34.9655 5.56384 34.8737 5.69976 34.8329 5.86288L34.048 8.77853H32.3047L33.2324 5.28178C33.2732 5.11867 33.3649 4.98274 33.5076 4.874C33.6572 4.75846 33.8135 4.70069 33.9766 4.70069H35.1388C35.2339 4.70069 35.3189 4.66331 35.3936 4.58855C35.4752 4.51379 35.516 4.42884 35.516 4.33369C35.516 4.19096 35.4412 4.1196 35.2917 4.1196H34.1295C33.8305 4.1196 33.6809 3.97688 33.6809 3.69143C33.6809 3.63706 33.6877 3.58608 33.7013 3.53851H42.1527C42.343 3.53851 42.4653 3.43996 42.5197 3.24287L43.0702 1.20395H45.9756L45.4353 3.24287C45.3741 3.48754 45.2348 3.69483 45.0173 3.86474C44.7998 4.03465 44.5688 4.1196 44.3241 4.1196H42.2852ZM36.0767 1.20395L35.6077 2.95742H33.8644L34.3334 1.20395H36.0767Z" fill="url(#paint2_linear_0_40)"/>
<path d="M54.6206 5.57743L55.1609 3.53851H58.0766L56.9857 7.61635C56.9042 7.93578 56.7173 8.21103 56.425 8.44211C56.1396 8.66639 55.8338 8.77853 55.5075 8.77853H45.894C45.7037 8.77853 45.544 8.72076 45.4149 8.60522C45.2857 8.48289 45.2212 8.32657 45.2212 8.13627C45.2212 8.05471 45.2314 7.97656 45.2517 7.9018L47.0562 1.20395H48.7995L47.6271 5.57743C47.6203 5.60461 47.6169 5.6284 47.6169 5.64879C47.6169 5.79151 47.6917 5.86288 47.8412 5.86288H54.2536C54.4507 5.86288 54.573 5.76773 54.6206 5.57743ZM55.793 1.20395H58.6984L58.2295 2.95742H55.324L55.793 1.20395Z" fill="url(#paint3_linear_0_40)"/>
<path d="M69.9226 3.53851C70.1197 3.53851 70.2794 3.59628 70.4018 3.71182C70.5309 3.82736 70.5955 3.98367 70.5955 4.18077C70.5955 4.25553 70.5853 4.33029 70.5649 4.40505L69.7085 7.61635C69.627 7.93578 69.4401 8.21103 69.1478 8.44211C68.8624 8.66639 68.5566 8.77853 68.2303 8.77853H57.7401L58.5251 5.86288H66.9764C67.0715 5.86288 67.1565 5.8255 67.2313 5.75074C67.3128 5.67598 67.3536 5.59102 67.3536 5.49587C67.3536 5.35315 67.2788 5.28178 67.1293 5.28178H59.2591C58.9668 5.28178 58.8207 5.13906 58.8207 4.85361C58.8207 4.80604 58.8275 4.75506 58.8411 4.70069L59.6159 1.78504C59.6567 1.62872 59.7484 1.49279 59.8911 1.37726C60.0407 1.26172 60.197 1.20395 60.3601 1.20395H67.9347L67.4657 2.95742H61.349C61.2538 2.95742 61.1655 2.9948 61.0839 3.06956C61.0023 3.14432 60.9616 3.22927 60.9616 3.32442C60.9616 3.46715 61.0363 3.53851 61.1859 3.53851H69.9226ZM68.5158 1.20395H71.4212L70.9523 2.95742H68.0468L68.5158 1.20395Z" fill="url(#paint4_linear_0_40)"/>
<path d="M16.2685 4.65991C16.3024 4.6871 16.3466 4.70069 16.401 4.70069C16.5913 4.70069 16.7136 4.60215 16.768 4.40505L17.6243 1.20395H20.5298L18.8171 7.60615C18.7288 7.93238 18.5419 8.20763 18.2564 8.43191C17.9778 8.6562 17.6719 8.76834 17.3389 8.76834H15.0145C14.3825 8.76834 13.8659 8.49988 13.4649 7.96296L10.6512 3.04917C10.5969 2.9812 10.5323 2.94722 10.4575 2.94722C10.2672 2.95402 10.1449 3.05257 10.0905 3.24287L8.61232 8.76834L2.97707 11.0699L8.73466 1.78504C8.77544 1.62872 8.86719 1.49279 9.00991 1.37726C9.15943 1.26172 9.31575 1.20395 9.47886 1.20395H11.2221C11.6775 1.20395 12.0479 1.31609 12.3333 1.54037L16.2685 4.65991Z" stroke="var(--stroke-0, white)" stroke-width="2.40789" mask="url(#path-1-outside-1_0_40)"/>
<path d="M22.5485 5.28178C22.4534 5.28178 22.365 5.31916 22.2834 5.39393C22.2087 5.46869 22.1713 5.55364 22.1713 5.64879C22.1713 5.79151 22.2461 5.86288 22.3956 5.86288H32.0091L31.2241 8.77853H20.4484C20.2581 8.77853 20.0984 8.72076 19.9693 8.60522C19.8401 8.48289 19.7756 8.32657 19.7756 8.13627C19.7756 8.05471 19.7858 7.97656 19.8062 7.9018L20.8256 4.1196C20.8664 3.95649 20.9582 3.82056 21.1009 3.71182C21.2436 3.59628 21.3965 3.53851 21.5596 3.53851H23.3131L23.7821 1.78504C23.8228 1.62872 23.9146 1.49279 24.0573 1.37726C24.2 1.26172 24.3529 1.20395 24.5161 1.20395H33.2528L32.7839 2.95742H25.5049C25.4098 2.95742 25.3214 2.9948 25.2399 3.06956C25.1651 3.14432 25.1277 3.22927 25.1277 3.32442C25.1277 3.46715 25.2025 3.53851 25.352 3.53851H29.1342L28.6653 5.28178H22.5485Z" stroke="var(--stroke-0, white)" stroke-width="2.40789" mask="url(#path-1-outside-1_0_40)"/>
<path d="M42.2852 4.1196C42.19 4.1196 42.1017 4.15698 42.0201 4.23174C41.9454 4.3065 41.908 4.39146 41.908 4.48661C41.908 4.62933 41.9827 4.70069 42.1323 4.70069H44.1712C44.3615 4.70069 44.5212 4.76186 44.6503 4.8842C44.7795 4.99973 44.844 5.15265 44.844 5.34295C44.844 5.42451 44.8338 5.50267 44.8134 5.57743L43.9469 8.77853H41.0414L41.8162 5.86288C41.8298 5.80851 41.8366 5.75753 41.8366 5.70996C41.8366 5.42451 41.6871 5.28178 41.3881 5.28178H35.5669C35.4038 5.28178 35.2509 5.33955 35.1082 5.45509C34.9655 5.56384 34.8737 5.69976 34.8329 5.86288L34.048 8.77853H32.3047L33.2324 5.28178C33.2732 5.11867 33.3649 4.98274 33.5076 4.874C33.6572 4.75846 33.8135 4.70069 33.9766 4.70069H35.1388C35.2339 4.70069 35.3189 4.66331 35.3936 4.58855C35.4752 4.51379 35.516 4.42884 35.516 4.33369C35.516 4.19096 35.4412 4.1196 35.2917 4.1196H34.1295C33.8305 4.1196 33.6809 3.97688 33.6809 3.69143C33.6809 3.63706 33.6877 3.58608 33.7013 3.53851H42.1527C42.343 3.53851 42.4653 3.43996 42.5197 3.24287L43.0702 1.20395H45.9756L45.4353 3.24287C45.3741 3.48754 45.2348 3.69483 45.0173 3.86474C44.7998 4.03465 44.5688 4.1196 44.3241 4.1196H42.2852ZM36.0767 1.20395L35.6077 2.95742H33.8644L34.3334 1.20395H36.0767Z" stroke="var(--stroke-0, white)" stroke-width="2.40789" mask="url(#path-1-outside-1_0_40)"/>
<path d="M54.6206 5.57743L55.1609 3.53851H58.0766L56.9857 7.61635C56.9042 7.93578 56.7173 8.21103 56.425 8.44211C56.1396 8.66639 55.8338 8.77853 55.5075 8.77853H45.894C45.7037 8.77853 45.544 8.72076 45.4149 8.60522C45.2857 8.48289 45.2212 8.32657 45.2212 8.13627C45.2212 8.05471 45.2314 7.97656 45.2517 7.9018L47.0562 1.20395H48.7995L47.6271 5.57743C47.6203 5.60461 47.6169 5.6284 47.6169 5.64879C47.6169 5.79151 47.6917 5.86288 47.8412 5.86288H54.2536C54.4507 5.86288 54.573 5.76773 54.6206 5.57743ZM55.793 1.20395H58.6984L58.2295 2.95742H55.324L55.793 1.20395Z" stroke="var(--stroke-0, white)" stroke-width="2.40789" mask="url(#path-1-outside-1_0_40)"/>
<path d="M69.9226 3.53851C70.1197 3.53851 70.2794 3.59628 70.4018 3.71182C70.5309 3.82736 70.5955 3.98367 70.5955 4.18077C70.5955 4.25553 70.5853 4.33029 70.5649 4.40505L69.7085 7.61635C69.627 7.93578 69.4401 8.21103 69.1478 8.44211C68.8624 8.66639 68.5566 8.77853 68.2303 8.77853H57.7401L58.5251 5.86288H66.9764C67.0715 5.86288 67.1565 5.8255 67.2313 5.75074C67.3128 5.67598 67.3536 5.59102 67.3536 5.49587C67.3536 5.35315 67.2788 5.28178 67.1293 5.28178H59.2591C58.9668 5.28178 58.8207 5.13906 58.8207 4.85361C58.8207 4.80604 58.8275 4.75506 58.8411 4.70069L59.6159 1.78504C59.6567 1.62872 59.7484 1.49279 59.8911 1.37726C60.0407 1.26172 60.197 1.20395 60.3601 1.20395H67.9347L67.4657 2.95742H61.349C61.2538 2.95742 61.1655 2.9948 61.0839 3.06956C61.0023 3.14432 60.9616 3.22927 60.9616 3.32442C60.9616 3.46715 61.0363 3.53851 61.1859 3.53851H69.9226ZM68.5158 1.20395H71.4212L70.9523 2.95742H68.0468L68.5158 1.20395Z" stroke="var(--stroke-0, white)" stroke-width="2.40789" mask="url(#path-1-outside-1_0_40)"/>
</g>
<defs>
<linearGradient id="paint0_linear_0_40" x1="37.3052" y1="9.96781" x2="37.3052" y2="1.20395" gradientUnits="userSpaceOnUse">
<stop stop-color="#4001BD"/>
<stop offset="0.25" stop-color="#0C398E"/>
<stop offset="0.5" stop-color="#182D60"/>
<stop offset="1" stop-color="#10173B"/>
</linearGradient>
<linearGradient id="paint1_linear_0_40" x1="37.3052" y1="9.96781" x2="37.3052" y2="1.20395" gradientUnits="userSpaceOnUse">
<stop stop-color="#4001BD"/>
<stop offset="0.25" stop-color="#0C398E"/>
<stop offset="0.5" stop-color="#182D60"/>
<stop offset="1" stop-color="#10173B"/>
</linearGradient>
<linearGradient id="paint2_linear_0_40" x1="37.3052" y1="9.96781" x2="37.3052" y2="1.20395" gradientUnits="userSpaceOnUse">
<stop stop-color="#4001BD"/>
<stop offset="0.25" stop-color="#0C398E"/>
<stop offset="0.5" stop-color="#182D60"/>
<stop offset="1" stop-color="#10173B"/>
</linearGradient>
<linearGradient id="paint3_linear_0_40" x1="37.3052" y1="9.96781" x2="37.3052" y2="1.20395" gradientUnits="userSpaceOnUse">
<stop stop-color="#4001BD"/>
<stop offset="0.25" stop-color="#0C398E"/>
<stop offset="0.5" stop-color="#182D60"/>
<stop offset="1" stop-color="#10173B"/>
</linearGradient>
<linearGradient id="paint4_linear_0_40" x1="37.3052" y1="9.96781" x2="37.3052" y2="1.20395" gradientUnits="userSpaceOnUse">
<stop stop-color="#4001BD"/>
<stop offset="0.25" stop-color="#0C398E"/>
<stop offset="0.5" stop-color="#182D60"/>
<stop offset="1" stop-color="#10173B"/>
</linearGradient>
</defs>
</svg>
