<svg preserveAspectRatio="none" width="100%" height="100%" overflow="visible" style="display: block;" viewBox="0 0 28.2984 24.9828" fill="none" xmlns="http://www.w3.org/2000/svg">
<path id="r" d="M5.65518 0.956125L16.7714 3.56745L17.0009 3.62214L17.1327 3.81745L19.7362 7.68366L19.9228 7.96003L19.787 8.26472L17.5976 13.1895L17.496 13.4171L17.2636 13.5069L14.9628 14.3926L16.7421 16.0987L16.8827 16.2335L16.9179 16.4249L17.3759 18.9141L26.0839 19.1026L27.1845 19.126L26.5702 20.0401L24.372 23.3096L24.1972 23.5704L23.8837 23.5762L12.0419 23.7872L11.3183 23.7999L11.4374 23.086L12.0165 19.6075L11.9374 16.8448L9.30948 16.63L7.79483 23.8819L7.69522 24.3594L7.20694 24.3604L1.55362 24.376L0.776276 24.379L0.968659 23.6251L5.23917 6.9239L4.91592 1.5782L4.8671 0.770578L5.65518 0.956125ZM11.8378 6.02644L12.0995 6.4405L11.748 6.78132L9.76163 8.70124L10.744 8.23445L11.9286 7.66999L11.5829 8.93659L10.7401 12.0225L13.161 11.6221L14.7577 8.12898L13.3759 5.8907L11.7157 5.83405L11.8378 6.02644Z" fill="url(#paint0_linear_0_39)" stroke="var(--stroke-0, white)" stroke-width="1.20395"/>
<defs>
<linearGradient id="paint0_linear_0_39" x1="12.7122" y1="1.54206" x2="12.7122" y2="23.7745" gradientUnits="userSpaceOnUse">
<stop stop-color="#4001BD"/>
<stop offset="0.25" stop-color="#0C398E"/>
<stop offset="0.5" stop-color="#182D60"/>
<stop offset="1" stop-color="#10173B"/>
</linearGradient>
</defs>
</svg>
