<svg preserveAspectRatio="none" width="100%" height="100%" overflow="visible" style="display: block;" viewBox="0 0 15.2767 22.9312" fill="none" xmlns="http://www.w3.org/2000/svg">
<g id="Subtract">
<mask id="path-1-outside-1_0_42" maskUnits="userSpaceOnUse" x="-0.642145" y="-0.527112" width="16" height="24" fill="black">
<rect fill="white" x="-0.642145" y="-0.527112" width="16" height="24"/>
<path d="M8.06196 6.41722L10.894 13.3723L11.1284 14.0715C10.1583 14.893 8.45551 15.5012 8.45551 15.5012C8.45551 15.5012 10.4284 16.6876 11.3247 17.8235C12.0236 18.7095 12.5077 20.1288 12.8002 21.1985L7.79145 21.6213V18.2219L4.56489 16.9582L2.75239 11.9612L2.05512 7.43871L1.35786 2.88597L7.26899 1.47289L8.06196 6.41722ZM13.4985 21.1399H13.4956C13.496 21.1383 13.4961 21.1366 13.4965 21.135L13.4985 21.1399ZM8.12641 12.5832C8.12641 12.5832 8.03881 12.9837 7.86567 13.1565C7.73673 13.285 7.46334 13.3844 7.45356 13.3879C7.46561 13.3952 7.73968 13.5614 7.86567 13.7209C8.0421 13.9446 8.12467 14.4045 8.12641 14.4143C8.12828 14.4038 8.21086 13.9444 8.38715 13.7209C8.5136 13.5608 8.78897 13.3941 8.79926 13.3879C8.79201 13.3853 8.51671 13.2856 8.38715 13.1565C8.21397 12.9837 8.12641 12.5832 8.12641 12.5832Z"/>
</mask>
<path d="M8.06196 6.41722L10.894 13.3723L11.1284 14.0715C10.1583 14.893 8.45551 15.5012 8.45551 15.5012C8.45551 15.5012 10.4284 16.6876 11.3247 17.8235C12.0236 18.7095 12.5077 20.1288 12.8002 21.1985L7.79145 21.6213V18.2219L4.56489 16.9582L2.75239 11.9612L2.05512 7.43871L1.35786 2.88597L7.26899 1.47289L8.06196 6.41722ZM13.4985 21.1399H13.4956C13.496 21.1383 13.4961 21.1366 13.4965 21.135L13.4985 21.1399ZM8.12641 12.5832C8.12641 12.5832 8.03881 12.9837 7.86567 13.1565C7.73673 13.285 7.46334 13.3844 7.45356 13.3879C7.46561 13.3952 7.73968 13.5614 7.86567 13.7209C8.0421 13.9446 8.12467 14.4045 8.12641 14.4143C8.12828 14.4038 8.21086 13.9444 8.38715 13.7209C8.5136 13.5608 8.78897 13.3941 8.79926 13.3879C8.79201 13.3853 8.51671 13.2856 8.38715 13.1565C8.21397 12.9837 8.12641 12.5832 8.12641 12.5832Z" fill="url(#paint0_linear_0_42)"/>
<path d="M8.06196 6.41722L6.8732 6.60788L6.895 6.74378L6.94691 6.87126L8.06196 6.41722ZM10.894 13.3723L12.0355 12.9897L12.0234 12.9535L12.009 12.9183L10.894 13.3723ZM11.1284 14.0715L11.9064 14.9903L12.5293 14.4628L12.2699 13.6889L11.1284 14.0715ZM8.45551 15.5012L8.05053 14.3674L5.65613 15.2227L7.83507 16.533L8.45551 15.5012ZM11.3247 17.8235L12.2699 17.0778L12.2698 17.0777L11.3247 17.8235ZM12.8002 21.1985L12.9015 22.3982L14.3431 22.2764L13.9616 20.8809L12.8002 21.1985ZM7.79145 21.6213H6.5875V22.9312L7.89273 22.821L7.79145 21.6213ZM7.79145 18.2219H8.9954V17.4004L8.2305 17.1009L7.79145 18.2219ZM4.56489 16.9582L3.43309 17.3688L3.61877 17.8807L4.12584 18.0793L4.56489 16.9582ZM2.75239 11.9612L1.5625 12.1446L1.58044 12.261L1.62059 12.3717L2.75239 11.9612ZM2.05512 7.43871L0.865049 7.62097L0.865233 7.62216L2.05512 7.43871ZM1.35786 2.88597L1.07793 1.71502L0 1.97271L0.167784 3.06824L1.35786 2.88597ZM7.26899 1.47289L8.45774 1.28224L8.2521 0L6.98907 0.301935L7.26899 1.47289ZM13.4985 21.1399V22.3438H15.2767L14.6163 20.6927L13.4985 21.1399ZM13.4956 21.1399L12.3353 20.8186L11.913 22.3438H13.4956V21.1399ZM13.4965 21.135L14.6144 20.6879L13.2892 17.3751L12.3363 20.8135L13.4965 21.135ZM8.12641 12.5832L9.30258 12.3261L6.95027 12.326L8.12641 12.5832ZM7.86567 13.1565L8.71558 14.0092L8.71608 14.0087L7.86567 13.1565ZM7.45356 13.3879L7.0466 12.2548L4.66646 13.1097L6.83064 14.4182L7.45356 13.3879ZM7.86567 13.7209L8.81091 12.9753L8.8106 12.9749L7.86567 13.7209ZM8.12641 14.4143L6.94115 14.6256L9.31164 14.6258L8.12641 14.4143ZM8.38715 13.7209L7.44236 12.9747L7.44191 12.9753L8.38715 13.7209ZM8.79926 13.3879L9.42179 14.4184L11.5893 13.109L9.20549 12.2546L8.79926 13.3879ZM8.38715 13.1565L7.53693 14.0089L7.53724 14.0092L8.38715 13.1565ZM8.06196 6.41722L6.94691 6.87126L9.77894 13.8263L10.894 13.3723L12.009 12.9183L9.17701 5.96319L8.06196 6.41722ZM10.894 13.3723L9.75246 13.7549L9.98684 14.4542L11.1284 14.0715L12.2699 13.6889L12.0355 12.9897L10.894 13.3723ZM11.1284 14.0715L10.3503 13.1528C9.99056 13.4574 9.44013 13.7607 8.91988 14.003C8.67087 14.119 8.44882 14.2119 8.28994 14.2754C8.21079 14.307 8.14811 14.331 8.10652 14.3467C8.08574 14.3545 8.07029 14.3602 8.06075 14.3637C8.05598 14.3654 8.0527 14.3666 8.05097 14.3673C8.0501 14.3676 8.04963 14.3677 8.04955 14.3678C8.04951 14.3678 8.04957 14.3678 8.04974 14.3677C8.04982 14.3677 8.04992 14.3676 8.05005 14.3676C8.05012 14.3676 8.05024 14.3675 8.05027 14.3675C8.0504 14.3675 8.05053 14.3674 8.45551 15.5012C8.8605 16.635 8.86064 16.6349 8.86079 16.6349C8.86085 16.6349 8.86101 16.6348 8.86112 16.6348C8.86136 16.6347 8.86162 16.6346 8.86191 16.6345C8.86248 16.6343 8.86316 16.634 8.86395 16.6338C8.86552 16.6332 8.8675 16.6325 8.86988 16.6316C8.87466 16.6299 8.88105 16.6276 8.88899 16.6247C8.90487 16.6188 8.92695 16.6107 8.95463 16.6003C9.00996 16.5794 9.08788 16.5495 9.18354 16.5113C9.37424 16.4351 9.63853 16.3246 9.93648 16.1858C10.5102 15.9186 11.2962 15.5071 11.9064 14.9903L11.1284 14.0715ZM8.45551 15.5012C7.83507 16.533 7.83496 16.5329 7.83487 16.5329C7.83485 16.5328 7.83476 16.5328 7.83471 16.5328C7.83462 16.5327 7.83456 16.5327 7.83453 16.5326C7.83447 16.5326 7.83452 16.5326 7.83469 16.5327C7.83503 16.533 7.83584 16.5334 7.8371 16.5342C7.83961 16.5357 7.84393 16.5384 7.84996 16.542C7.86204 16.5494 7.88094 16.561 7.90595 16.5766C7.956 16.6077 8.03026 16.6545 8.1229 16.7146C8.30876 16.8351 8.56556 17.0069 8.84753 17.2113C9.43727 17.6386 10.04 18.1389 10.3795 18.5692L11.3247 17.8235L12.2698 17.0777C11.713 16.3721 10.8812 15.7113 10.2604 15.2615C9.93714 15.0272 9.6447 14.8315 9.43265 14.6941C9.32633 14.6251 9.23946 14.5704 9.17812 14.5322C9.14743 14.5131 9.12307 14.4981 9.10581 14.4876C9.09717 14.4823 9.09031 14.4781 9.0853 14.4751C9.0828 14.4736 9.08076 14.4723 9.0792 14.4714C9.07842 14.4709 9.07775 14.4705 9.07721 14.4702C9.07694 14.47 9.0767 14.4699 9.07649 14.4698C9.07639 14.4697 9.07625 14.4696 9.0762 14.4696C9.07607 14.4695 9.07595 14.4694 8.45551 15.5012ZM11.3247 17.8235L10.3794 18.5691C10.9137 19.2464 11.3481 20.4523 11.6389 21.516L12.8002 21.1985L13.9616 20.8809C13.6674 19.8053 13.1336 18.1727 12.2699 17.0778L11.3247 17.8235ZM12.8002 21.1985L12.699 19.9988L7.69017 20.4216L7.79145 21.6213L7.89273 22.821L12.9015 22.3982L12.8002 21.1985ZM7.79145 21.6213H8.9954V18.2219H7.79145H6.5875V21.6213H7.79145ZM7.79145 18.2219L8.2305 17.1009L5.00394 15.8372L4.56489 16.9582L4.12584 18.0793L7.3524 19.3429L7.79145 18.2219ZM4.56489 16.9582L5.69668 16.5477L3.88418 11.5507L2.75239 11.9612L1.62059 12.3717L3.43309 17.3688L4.56489 16.9582ZM2.75239 11.9612L3.94227 11.7777L3.24501 7.25525L2.05512 7.43871L0.865233 7.62216L1.5625 12.1446L2.75239 11.9612ZM2.05512 7.43871L3.24519 7.25645L2.54793 2.70371L1.35786 2.88597L0.167784 3.06824L0.86505 7.62097L2.05512 7.43871ZM1.35786 2.88597L1.63778 4.05693L7.54891 2.64384L7.26899 1.47289L6.98907 0.301935L1.07793 1.71502L1.35786 2.88597ZM7.26899 1.47289L6.08023 1.66354L6.8732 6.60788L8.06196 6.41722L9.25071 6.22657L8.45774 1.28224L7.26899 1.47289ZM13.4985 21.1399V19.9359H13.4956V21.1399V22.3438H13.4985V21.1399ZM13.4956 21.1399L14.6558 21.4611C14.6617 21.4399 14.6664 21.4208 14.67 21.4047C14.6737 21.3886 14.6765 21.3747 14.6785 21.364C14.6805 21.3533 14.682 21.3446 14.6829 21.3393C14.6834 21.3366 14.6838 21.3344 14.684 21.333C14.6841 21.3323 14.6842 21.3317 14.6843 21.3313C14.6843 21.331 14.6844 21.3307 14.6844 21.3307C14.6845 21.3298 14.6839 21.3337 14.6831 21.3382C14.6823 21.3431 14.6809 21.3514 14.6789 21.3617C14.6769 21.3721 14.6742 21.3856 14.6706 21.4013C14.6671 21.417 14.6625 21.4357 14.6567 21.4565L13.4965 21.135L12.3363 20.8135C12.3304 20.8347 12.3258 20.8538 12.3221 20.8699C12.3185 20.886 12.3157 20.8999 12.3136 20.9107C12.3116 20.9214 12.3101 20.9301 12.3091 20.9355C12.3087 20.9382 12.3083 20.9404 12.3081 20.9418C12.308 20.9426 12.3079 20.9431 12.3078 20.9435C12.3078 20.9439 12.3077 20.9442 12.3077 20.9442C12.3076 20.9451 12.3082 20.9413 12.3089 20.9368C12.3098 20.9319 12.3112 20.9236 12.3131 20.9134C12.3151 20.903 12.3178 20.8896 12.3214 20.8739C12.3249 20.8582 12.3295 20.8395 12.3353 20.8186L13.4956 21.1399ZM13.4965 21.135L12.3787 21.5821L12.3806 21.587L13.4985 21.1399L14.6163 20.6927L14.6144 20.6879L13.4965 21.135ZM8.12641 12.5832C6.95027 12.326 6.95031 12.3258 6.95035 12.3256C6.95037 12.3255 6.95041 12.3254 6.95043 12.3252C6.95048 12.325 6.95053 12.3248 6.95058 12.3245C6.95068 12.3241 6.95078 12.3237 6.95087 12.3233C6.95105 12.3224 6.95121 12.3217 6.95136 12.3211C6.95165 12.3197 6.95188 12.3188 6.95203 12.3181C6.95234 12.3167 6.95239 12.3166 6.95218 12.3174C6.95174 12.3192 6.95036 12.3249 6.94807 12.3333C6.94319 12.3513 6.93599 12.3755 6.92738 12.3995C6.91797 12.4258 6.91243 12.4364 6.91415 12.4331C6.91552 12.4305 6.92224 12.4179 6.93565 12.3985C6.94854 12.3798 6.97414 12.3453 7.01525 12.3043L7.86567 13.1565L8.71608 14.0087C9.00579 13.7196 9.14334 13.3538 9.19456 13.2106C9.22949 13.113 9.25501 13.0262 9.27196 12.9637C9.28059 12.9319 9.2874 12.9049 9.29243 12.8841C9.29496 12.8737 9.29706 12.8648 9.29873 12.8575C9.29957 12.8538 9.30031 12.8506 9.30095 12.8477C9.30126 12.8463 9.30156 12.845 9.30182 12.8438C9.30196 12.8432 9.30208 12.8426 9.3022 12.8421C9.30226 12.8418 9.30232 12.8415 9.30238 12.8413C9.30241 12.8411 9.30245 12.841 9.30246 12.8409C9.30251 12.8407 9.30255 12.8405 8.12641 12.5832ZM7.86567 13.1565L7.01575 12.3038C7.04617 12.2734 7.07093 12.2537 7.08438 12.2435C7.09843 12.2328 7.10767 12.227 7.11015 12.2254C7.11295 12.2237 7.11254 12.2241 7.10843 12.2263C7.10448 12.2284 7.09883 12.2313 7.0916 12.2348C7.07657 12.2421 7.06131 12.2487 7.04972 12.2534C7.03822 12.2581 7.03522 12.2589 7.0466 12.2548L7.45356 13.3879L7.86052 14.521C7.88775 14.5112 8.00111 14.4695 8.13826 14.4033C8.24515 14.3517 8.50052 14.2236 8.71558 14.0092L7.86567 13.1565ZM7.45356 13.3879L6.83064 14.4182C6.82228 14.4131 6.86166 14.4367 6.90865 14.4709C6.93185 14.4878 6.94828 14.501 6.95724 14.5089C6.96127 14.5124 6.96028 14.5118 6.95549 14.5069C6.95118 14.5026 6.93828 14.4892 6.92074 14.467L7.86567 13.7209L8.8106 12.9749C8.64027 12.7592 8.42754 12.5982 8.32512 12.5237C8.20056 12.4331 8.09688 12.37 8.07648 12.3577L7.45356 13.3879ZM7.86567 13.7209L6.92043 14.4666C6.89579 14.4354 6.8826 14.4127 6.87841 14.4053C6.87379 14.3971 6.87367 14.3958 6.87698 14.4034C6.88433 14.4203 6.89538 14.4501 6.90764 14.4913C6.91936 14.5307 6.92861 14.5683 6.93488 14.5963C6.941 14.6236 6.9431 14.6365 6.94115 14.6256L8.12641 14.4143L9.31167 14.203C9.30681 14.1758 9.27645 14.0092 9.21546 13.8043C9.16604 13.6383 9.04973 13.278 8.81091 12.9753L7.86567 13.7209ZM8.12641 14.4143L9.31164 14.6258C9.30972 14.6365 9.31185 14.6235 9.31799 14.5961C9.32427 14.5681 9.33352 14.5304 9.34523 14.4911C9.35749 14.45 9.36853 14.4202 9.37585 14.4034C9.37916 14.3958 9.37902 14.3971 9.3744 14.4053C9.3702 14.4128 9.35702 14.4354 9.33239 14.4666L8.38715 13.7209L7.44191 12.9753C7.20324 13.2778 7.08695 13.6378 7.03752 13.8038C6.97651 14.0087 6.9461 14.1752 6.94118 14.2028L8.12641 14.4143ZM8.38715 13.7209L9.33195 14.4672C9.31439 14.4894 9.30149 14.5027 9.29723 14.507C9.29248 14.5118 9.29156 14.5124 9.29566 14.5088C9.30476 14.5009 9.32134 14.4875 9.34463 14.4706C9.39182 14.4363 9.43111 14.4128 9.42179 14.4184L8.79926 13.3879L8.17674 12.3574C8.15712 12.3693 8.05358 12.4322 7.9289 12.5229C7.82645 12.5973 7.61307 12.7586 7.44236 12.9747L8.38715 13.7209ZM8.79926 13.3879L9.20549 12.2546C9.21753 12.2589 9.21486 12.2582 9.20348 12.2535C9.19203 12.2489 9.17675 12.2423 9.1616 12.235C9.15431 12.2315 9.14859 12.2286 9.14455 12.2264C9.14036 12.2241 9.13988 12.2237 9.1426 12.2254C9.14501 12.2269 9.15421 12.2327 9.16826 12.2434C9.18169 12.2535 9.20653 12.2733 9.23707 12.3038L8.38715 13.1565L7.53724 14.0092C7.75308 14.2243 8.0097 14.3528 8.11655 14.4043C8.25392 14.4705 8.36709 14.512 8.39303 14.5213L8.79926 13.3879ZM8.38715 13.1565L9.23737 12.3041C9.27853 12.3451 9.30417 12.3797 9.31708 12.3984C9.33051 12.4178 9.33725 12.4305 9.33863 12.4331C9.34038 12.4364 9.33485 12.4259 9.32545 12.3996C9.31684 12.3755 9.30965 12.3514 9.30477 12.3334C9.30249 12.325 9.3011 12.3194 9.30067 12.3175C9.30046 12.3167 9.30051 12.3169 9.30082 12.3182C9.30097 12.3189 9.3012 12.3199 9.30149 12.3212C9.30164 12.3218 9.3018 12.3226 9.30198 12.3234C9.30207 12.3238 9.30217 12.3242 9.30227 12.3247C9.30232 12.3249 9.30237 12.3251 9.30242 12.3254C9.30244 12.3255 9.30248 12.3257 9.3025 12.3257C9.30254 12.3259 9.30258 12.3261 8.12641 12.5832C6.95024 12.8404 6.95028 12.8406 6.95032 12.8407C6.95034 12.8408 6.95038 12.841 6.95041 12.8411C6.95047 12.8414 6.95052 12.8417 6.95059 12.8419C6.95071 12.8425 6.95083 12.8431 6.95097 12.8437C6.95123 12.8449 6.95152 12.8462 6.95184 12.8476C6.95248 12.8504 6.95321 12.8537 6.95405 12.8573C6.95573 12.8647 6.95783 12.8736 6.96035 12.884C6.96538 12.9048 6.97219 12.9318 6.98082 12.9636C6.99777 13.0261 7.02329 13.1129 7.05823 13.2106C7.10944 13.3537 7.24702 13.7197 7.53693 14.0089L8.38715 13.1565Z" fill="var(--stroke-0, white)" mask="url(#path-1-outside-1_0_42)"/>
</g>
<defs>
<linearGradient id="paint0_linear_0_42" x1="7.80944" y1="1.47714" x2="7.47022" y2="21.5194" gradientUnits="userSpaceOnUse">
<stop stop-color="#0144BD"/>
<stop offset="0.5" stop-color="#182D60"/>
<stop offset="1" stop-color="#10173B"/>
</linearGradient>
</defs>
</svg>
