<svg preserveAspectRatio="none" width="100%" height="100%" overflow="visible" style="display: block;" viewBox="0 0 7.30091 9.92977" fill="none" xmlns="http://www.w3.org/2000/svg">
<g id="Union" filter="url(#filter0_i_0_41)">
<path d="M3.65046 9.92977C3.65046 9.92977 3.20297 7.39721 2.2359 6.17131C1.5376 5.2861 0 4.36168 0 4.36168C0 4.36168 1.52392 3.81849 2.2359 3.10885C3.1754 2.17245 3.65046 0 3.65046 0V9.92977Z" fill="var(--fill-0, white)"/>
<path d="M3.65046 0C3.65046 0 4.12551 2.17254 5.06501 3.10894C5.77699 3.81858 7.30091 4.36177 7.30091 4.36177C7.30091 4.36177 5.76331 5.28619 5.06501 6.1714C4.09794 7.39731 3.65046 9.92977 3.65046 9.92977V0Z" fill="var(--fill-0, white)"/>
</g>
<defs>
<filter id="filter0_i_0_41" x="0" y="0" width="7.30091" height="10.4373" filterUnits="userSpaceOnUse" color-interpolation-filters="sRGB">
<feFlood flood-opacity="0" result="BackgroundImageFix"/>
<feBlend mode="normal" in="SourceGraphic" in2="BackgroundImageFix" result="shape"/>
<feColorMatrix in="SourceAlpha" type="matrix" values="0 0 0 0 0 0 0 0 0 0 0 0 0 0 0 0 0 0 127 0" result="hardAlpha"/>
<feOffset dy="0.5075"/>
<feGaussianBlur stdDeviation="0.693887"/>
<feComposite in2="hardAlpha" operator="arithmetic" k2="-1" k3="1"/>
<feColorMatrix type="matrix" values="0 0 0 0 0 0 0 0 0 0 0 0 0 0 0 0 0 0 0.5 0"/>
<feBlend mode="normal" in2="shape" result="effect1_innerShadow_0_41"/>
</filter>
</defs>
</svg>
