<svg width="369" height="515" viewBox="0 0 369 515" fill="none" xmlns="http://www.w3.org/2000/svg">
<g filter="url(#filter0_d_335_10207)">
<path d="M352 0C358.627 5.41176e-06 364 5.37259 364 12V495C364 501.627 358.627 507 352 507H16C9.37259 507 4 501.627 4 495V12C4 5.37259 9.37258 3.38235e-07 16 0H352Z" fill="url(#paint0_linear_335_10207)"/>
<g opacity="0.2">
<path d="M96.0417 10.7954C118.208 13.3397 151.396 37.0117 151.396 37.0117C151.396 37.0117 163.528 33.1564 168.457 25.0601C173.385 16.9639 177.177 0.000377655 177.177 0.000377655H24.0059C24.0059 0.000377655 31.5886 23.518 44.6688 28.3372C57.749 33.1564 72.2843 8.0684 96.0417 10.7954Z" fill="#010B7B"/>
<g filter="url(#filter1_i_335_10207)">
<path d="M43.7318 18.2136C44.3357 18.4361 45.4849 18.6001 48.2474 17.3386C51.1731 16.0026 54.3076 13.8527 58.7625 10.9713C61.8302 8.98707 65.3636 6.76238 69.3517 4.83735H32.0586C32.2174 5.14025 32.3792 5.44555 32.5458 5.75149C34.142 8.68176 35.9981 11.5397 38.0389 13.8462C40.1131 16.1906 42.05 17.5939 43.7318 18.2136ZM148.815 25.483C149.488 25.1727 150.227 24.8086 150.995 24.3927C154.245 22.6328 157.085 20.4354 158.49 18.1278C160.331 15.1043 162.218 9.91982 163.751 4.83735H110.589C118.288 7.79397 125.865 11.6778 132.186 15.2393C137.899 18.458 142.885 21.588 146.442 23.9123C147.322 24.4873 148.117 25.015 148.815 25.483ZM145.608 26.7797L145.602 26.7812L145.6 26.7827C145.6 26.7827 145.605 26.7809 145.608 26.7797Z" fill="#171717"/>
</g>
<path d="M273.855 10.7954C251.688 13.3397 218.501 37.0117 218.501 37.0117C218.501 37.0117 206.369 33.1564 201.44 25.0601C196.511 16.9639 192.72 0.000377655 192.72 0.000377655H345.891C345.891 0.000377655 338.308 23.518 325.228 28.3372C312.148 33.1564 297.612 8.0684 273.855 10.7954Z" fill="#010B7B"/>
<g filter="url(#filter2_i_335_10207)">
<path d="M326.165 18.2136C325.561 18.4361 324.412 18.6001 321.649 17.3386C318.723 16.0026 315.589 13.8527 311.134 10.9713C308.066 8.98707 304.533 6.76238 300.545 4.83735H337.838C337.679 5.14025 337.517 5.44555 337.351 5.75149C335.754 8.68176 333.898 11.5397 331.858 13.8462C329.783 16.1906 327.846 17.5939 326.165 18.2136ZM221.082 25.483C220.408 25.1727 219.67 24.8086 218.902 24.3927C215.651 22.6328 212.811 20.4354 211.406 18.1278C209.566 15.1043 207.678 9.91982 206.146 4.83735H259.308C251.609 7.79397 244.031 11.6778 237.71 15.2393C231.998 18.458 227.012 21.588 223.454 23.9123C222.574 24.4873 221.78 25.015 221.082 25.483ZM224.288 26.7797L224.294 26.7812L224.297 26.7827C224.297 26.7827 224.292 26.7809 224.288 26.7797Z" fill="#171717"/>
</g>
<path d="M200.682 69.5893V94.1743C208.778 81.0788 219.785 66.1428 231.771 58.0233C248.457 46.7197 258.724 42.7669 278.594 45.4934C298.176 48.1804 297.361 61.3003 321.247 69.5893C331.64 73.1958 340.022 73.6298 349.303 67.6616C359.377 61.1838 362.417 52.0108 362.952 39.9031C363.428 29.1187 353.308 0.0679779 353.284 0.000274658C353.284 0.000274658 342.008 34.899 326.555 35.855C310.219 36.8653 300.155 19.299 283.902 17.3493C268.103 15.4543 249.664 21.5263 237.079 31.4214C227.175 39.2078 216.984 45.4934 200.682 69.5893Z" fill="#010B7B"/>
<path d="M170.351 96.2937C178.714 109.821 183.973 121.384 183.999 121.443C183.999 121.437 186.614 105.37 183.999 95.612C181.302 85.5426 176.168 80.307 170.351 71.7089V96.2937Z" fill="#010B7B"/>
<path d="M197.648 71.7089C191.831 80.3069 186.697 85.5426 183.999 95.612C181.385 105.372 183.999 121.443 183.999 121.443C183.999 121.443 189.264 109.855 197.648 96.2939V71.7089Z" fill="#010B7B"/>
<g filter="url(#filter3_i_335_10207)">
<path d="M179.805 106.782C179.813 103.139 180.077 99.3005 180.86 95.9464C179.169 90.0746 176.625 86.1066 173.384 81.5581V95.7009C175.809 99.6571 177.97 103.428 179.805 106.782ZM188.192 106.788C190.028 103.435 192.187 99.661 194.615 95.7009V81.5581C191.374 86.1067 188.828 90.0744 187.138 95.9464C187.921 99.3025 188.186 103.143 188.192 106.788Z" fill="#171717"/>
</g>
<path d="M167.318 95.3301V70.7452C151.015 46.6495 140.826 40.3637 130.922 32.5773C118.336 22.682 99.8968 16.61 84.0974 18.5052C67.8445 20.4553 57.7803 38.0216 41.4446 37.0109C25.992 36.054 14.717 1.15618 14.717 1.15618C14.717 1.15618 4.57051 30.262 5.04756 41.059C5.58253 53.1666 8.62326 62.3398 18.6965 68.8175C27.9777 74.7859 36.3597 74.3516 46.7525 70.7452C70.6388 62.4563 69.824 49.3365 89.4053 46.6493C109.275 43.9227 119.542 47.8757 136.229 59.1792C148.215 67.2986 159.221 82.2345 167.318 95.3301Z" fill="#010B7B"/>
<g filter="url(#filter4_i_335_10207)">
<path d="M37.1739 63.9361C40.1621 64.0586 43.6567 63.4137 48.314 61.7976C58.4985 58.2635 63.1595 53.9267 68.2024 49.4409C73.8626 44.4061 80.2214 39.0001 92.6893 37.289C103.451 35.8123 112.313 36.0549 120.996 38.5616C127.344 40.3945 133.227 43.3392 139.353 47.1172C136.237 44.5597 133.239 42.3654 129.856 39.7062C118.896 31.0887 102.79 25.9285 89.6636 27.5031C84.1952 28.1592 79.6103 31.4076 72.3818 36.3538C66.155 40.6145 57.5428 46.3982 46.4717 46.1036L45.392 46.0554C38.2211 45.6114 32.6057 41.3554 28.6997 37.2363C25.7265 34.101 23.144 30.4168 20.9644 26.7832C20.5174 28.571 20.1063 30.3249 19.7589 31.994C18.8957 36.1403 18.5738 39.0065 18.6377 40.4531C18.8788 45.9091 19.664 49.8979 21.0636 52.9951C22.3794 55.9066 24.4368 58.4768 28.0599 60.8067C31.4714 63.0004 34.3526 63.8204 37.1739 63.9361ZM333.759 63.9361C336.58 63.8205 339.462 63.0002 342.873 60.8067C346.497 58.4767 348.555 55.9066 349.871 52.9951C351.271 49.8979 352.054 45.9092 352.295 40.4531C352.359 39.0086 352.038 36.1474 351.177 32.0075C350.829 30.3349 350.418 28.5768 349.97 26.7847C347.791 30.4181 345.208 34.1027 342.235 37.2378C338.329 41.3568 332.712 45.6118 325.541 46.0554C313.949 46.7722 304.979 40.7519 298.551 36.3538C291.549 31.5624 287.028 28.3639 281.78 27.5724L281.27 27.5031C268.144 25.929 252.039 31.0889 241.078 39.7062C237.697 42.3644 234.699 44.5566 231.585 47.1126C237.709 43.3361 243.591 40.394 249.937 38.5616C258.62 36.0547 267.483 35.8123 278.245 37.289C290.713 39 297.072 44.4059 302.732 49.4409C307.775 53.9267 312.436 58.2635 322.621 61.7976C327.277 63.4135 330.771 64.0585 333.759 63.9361Z" fill="#171717"/>
</g>
<path d="M184 0C184 0 180.282 20.2563 172.247 30.0616C166.445 37.1418 153.669 44.5356 153.669 44.5356C153.669 44.5356 166.331 48.8802 172.247 54.5562C180.053 62.0459 184 79.4219 184 79.4219V0Z" fill="#010B7B"/>
<path d="M184 79.4219C184 79.4219 187.947 62.0451 195.753 54.5554C201.669 48.8795 214.331 44.5349 214.331 44.5349C214.331 44.5349 201.555 37.141 195.753 30.0608C187.718 20.2556 184 0 184 0V79.4219Z" fill="#010B7B"/>
<g filter="url(#filter5_i_335_10207)">
<path d="M184 12.7737C184 12.7737 181.518 26.8218 176.154 33.6219C172.28 38.5321 163.751 43.6599 163.751 43.6599C163.751 43.6599 172.204 46.6729 176.154 50.6092C181.365 55.8035 184 67.854 184 67.854V12.7737Z" fill="#171717"/>
<path d="M184 67.854C184 67.854 186.635 55.803 191.846 50.6087C195.796 46.6724 204.249 43.6594 204.249 43.6594C204.249 43.6594 195.72 38.5316 191.846 33.6214C186.482 26.8213 184 12.7737 184 12.7737V67.854Z" fill="#171717"/>
</g>
<path d="M184 348.147C184 348.147 175.22 300.316 156.247 277.163C142.546 260.444 112.379 242.985 112.379 242.985C112.379 242.985 142.278 232.726 156.247 219.324C174.679 201.638 184 160.608 184 160.608V348.147Z" fill="#010B7B"/>
<path d="M184 160.608C184 160.608 193.32 201.64 211.753 219.325C225.721 232.728 255.62 242.987 255.62 242.987C255.62 242.987 225.453 260.446 211.753 277.165C192.779 300.318 184 348.147 184 348.147V160.608Z" fill="#010B7B"/>
<g filter="url(#filter6_i_335_10207)">
<path d="M184 317.898C184 317.898 178.139 284.726 165.472 268.669C156.325 257.074 136.186 244.966 136.186 244.966C136.186 244.966 156.146 237.852 165.472 228.557C177.777 216.291 184 187.836 184 187.836V317.898Z" fill="#171717"/>
<path d="M184 187.836C184 187.836 190.222 216.293 202.528 228.558C211.853 237.853 231.814 244.967 231.814 244.967C231.814 244.967 211.674 257.076 202.528 268.67C189.861 284.727 184 317.898 184 317.898V187.836Z" fill="#171717"/>
</g>
<path d="M149.879 89.4464L177.177 124.145C177.177 124.145 148.945 89.0981 129.785 85.5888C118.128 83.4536 102.487 101.012 102.487 101.012C102.487 101.012 111.475 72.0112 125.994 71.7118C137.541 71.4737 149.879 89.4464 149.879 89.4464Z" fill="#010B7B"/>
<path d="M220.018 89.4464L192.72 124.145C192.72 124.145 220.952 89.0981 240.112 85.5888C251.77 83.4536 267.41 101.012 267.41 101.012C267.41 101.012 258.423 72.0112 243.904 71.7118C232.356 71.4737 220.018 89.4464 220.018 89.4464Z" fill="#010B7B"/>
</g>
<g opacity="0.2">
<path d="M97.5085 496.205C119.675 493.661 152.862 469.989 152.862 469.989C152.862 469.989 164.995 473.844 169.924 481.94C174.852 490.037 178.644 507 178.644 507H25.4727C25.4727 507 33.0554 483.482 46.1356 478.663C59.2158 473.844 73.7511 498.932 97.5085 496.205Z" fill="#010B7B"/>
<g filter="url(#filter7_i_335_10207)">
<path d="M45.1986 488.786C45.8025 488.564 46.9517 488.4 49.7142 489.661C52.6399 490.997 55.7744 493.147 60.2293 496.029C63.297 498.013 66.8304 500.238 70.8185 502.163H33.5254C33.6842 501.86 33.846 501.554 34.0126 501.249C35.6088 498.318 37.4649 495.46 39.5057 493.154C41.5799 490.809 43.5168 489.406 45.1986 488.786ZM150.282 481.517C150.955 481.827 151.693 482.191 152.462 482.607C155.712 484.367 158.552 486.565 159.957 488.872C161.797 491.896 163.685 497.08 165.217 502.163H112.055C119.754 499.206 127.332 495.322 133.653 491.761C139.365 488.542 144.351 485.412 147.909 483.088C148.789 482.513 149.583 481.985 150.282 481.517ZM147.075 480.22L147.069 480.219L147.066 480.217C147.066 480.217 147.072 480.219 147.075 480.22Z" fill="#171717"/>
</g>
<path d="M275.322 496.205C253.155 493.661 219.968 469.989 219.968 469.989C219.968 469.989 207.835 473.844 202.907 481.94C197.978 490.037 194.186 507 194.186 507H347.357C347.357 507 339.775 483.482 326.695 478.663C313.614 473.844 299.079 498.932 275.322 496.205Z" fill="#010B7B"/>
<g filter="url(#filter8_i_335_10207)">
<path d="M327.631 488.786C327.028 488.564 325.878 488.4 323.116 489.661C320.19 490.997 317.056 493.147 312.601 496.029C309.533 498.013 306 500.238 302.012 502.163H339.305C339.146 501.86 338.984 501.554 338.817 501.249C337.221 498.318 335.365 495.46 333.324 493.154C331.25 490.809 329.313 489.406 327.631 488.786ZM222.549 481.517C221.875 481.827 221.137 482.191 220.368 482.607C217.118 484.367 214.278 486.565 212.873 488.872C211.033 491.896 209.145 497.08 207.613 502.163H260.775C253.076 499.206 245.498 495.322 239.177 491.761C233.465 488.542 228.479 485.412 224.921 483.088C224.041 482.513 223.247 481.985 222.549 481.517ZM225.755 480.22L225.761 480.219L225.764 480.217C225.764 480.217 225.758 480.219 225.755 480.22Z" fill="#171717"/>
</g>
<path d="M202.148 437.411V412.826C210.245 425.921 221.252 440.857 233.238 448.977C249.924 460.28 260.191 464.233 280.061 461.507C299.643 458.82 298.828 445.7 322.714 437.411C333.107 433.804 341.489 433.37 350.77 439.338C360.843 445.816 363.884 454.989 364.419 467.097C364.895 477.881 354.774 506.932 354.751 507C354.751 507 343.475 472.101 328.022 471.145C311.686 470.135 301.622 487.701 285.369 489.651C269.57 491.546 251.131 485.474 238.546 475.579C228.642 467.792 218.451 461.507 202.148 437.411Z" fill="#010B7B"/>
<path d="M171.817 410.706C180.181 397.179 185.44 385.616 185.466 385.557C185.466 385.563 188.081 401.63 185.466 411.388C182.768 421.457 177.635 426.693 171.817 435.291V410.706Z" fill="#010B7B"/>
<path d="M199.115 435.291C193.298 426.693 188.164 421.457 185.466 411.388C182.851 401.628 185.466 385.557 185.466 385.557C185.466 385.557 190.73 397.145 199.115 410.706V435.291Z" fill="#010B7B"/>
<g filter="url(#filter9_i_335_10207)">
<path d="M181.272 400.218C181.279 403.861 181.544 407.699 182.327 411.054C180.636 416.925 178.092 420.893 174.851 425.442V411.299C177.276 407.343 179.436 403.572 181.272 400.218ZM189.659 400.212C191.495 403.565 193.654 407.339 196.082 411.299V425.442C192.841 420.893 190.295 416.926 188.605 411.054C189.388 407.698 189.652 403.857 189.659 400.212Z" fill="#171717"/>
</g>
<path d="M168.785 411.67V436.255C152.482 460.351 142.293 466.637 132.389 474.423C119.803 484.318 101.364 490.39 85.5642 488.495C69.3112 486.545 59.247 468.979 42.9114 469.99C27.4588 470.946 16.1838 505.844 16.1838 505.844C16.1838 505.844 6.03731 476.738 6.51436 465.941C7.04932 453.834 10.0901 444.661 20.1633 438.183C29.4445 432.215 37.8265 432.649 48.2193 436.255C72.1056 444.544 71.2908 457.664 90.8721 460.351C110.742 463.078 121.009 459.125 137.695 447.821C149.681 439.702 160.688 424.766 168.785 411.67Z" fill="#010B7B"/>
<g filter="url(#filter10_i_335_10207)">
<path d="M38.6407 443.064C41.6289 442.941 45.1235 443.586 49.7808 445.202C59.9653 448.737 64.6263 453.073 69.6692 457.559C75.3294 462.594 81.6882 468 94.1561 469.711C104.918 471.188 113.78 470.945 122.462 468.438C128.811 466.605 134.694 463.661 140.819 459.883C137.704 462.44 134.706 464.635 131.323 467.294C120.363 475.911 104.257 481.071 91.1304 479.497C85.662 478.841 81.0771 475.592 73.8486 470.646C67.6218 466.385 59.0096 460.602 47.9385 460.896L46.8588 460.945C39.6879 461.389 34.0725 465.645 30.1665 469.764C27.1933 472.899 24.6107 476.583 22.4312 480.217C21.9842 478.429 21.5731 476.675 21.2257 475.006C20.3625 470.86 20.0406 467.993 20.1045 466.547C20.3456 461.091 21.1308 457.102 22.5304 454.005C23.8462 451.093 25.9036 448.523 29.5267 446.193C32.9382 444 35.8194 443.18 38.6407 443.064ZM335.226 443.064C338.047 443.18 340.929 444 344.34 446.193C347.963 448.523 350.022 451.093 351.338 454.005C352.737 457.102 353.521 461.091 353.762 466.547C353.826 467.991 353.505 470.853 352.644 474.992C352.296 476.665 351.885 478.423 351.437 480.215C349.257 476.582 346.675 472.897 343.702 469.762C339.796 465.643 334.179 461.388 327.008 460.945C315.416 460.228 306.446 466.248 300.018 470.646C293.016 475.438 288.495 478.636 283.247 479.428L282.736 479.497C269.61 481.071 253.505 475.911 242.545 467.294C239.164 464.636 236.166 462.443 233.052 459.887C239.176 463.664 245.057 466.606 251.404 468.438C260.087 470.945 268.95 471.188 279.712 469.711C292.18 468 298.539 462.594 304.199 457.559C309.242 453.073 313.903 448.737 324.087 445.202C328.744 443.586 332.238 442.941 335.226 443.064Z" fill="#171717"/>
</g>
<path d="M185.467 507C185.467 507 181.749 486.744 173.713 476.938C167.911 469.858 155.136 462.464 155.136 462.464C155.136 462.464 167.798 458.12 173.713 452.444C181.519 444.954 185.467 427.578 185.467 427.578V507Z" fill="#010B7B"/>
<path d="M185.467 427.578C185.467 427.578 189.414 444.955 197.22 452.445C203.136 458.121 215.798 462.465 215.798 462.465C215.798 462.465 203.022 469.859 197.22 476.939C189.185 486.744 185.467 507 185.467 507V427.578Z" fill="#010B7B"/>
<g filter="url(#filter11_i_335_10207)">
<path d="M185.467 494.227C185.467 494.227 182.985 480.179 177.62 473.379C173.747 468.468 165.218 463.341 165.218 463.341C165.218 463.341 173.671 460.328 177.62 456.391C182.832 451.197 185.467 439.146 185.467 439.146V494.227Z" fill="#171717"/>
<path d="M185.467 439.146C185.467 439.146 188.102 451.198 193.313 456.392C197.263 460.328 205.716 463.341 205.716 463.341C205.716 463.341 197.187 468.469 193.313 473.379C187.949 480.179 185.467 494.227 185.467 494.227V439.146Z" fill="#171717"/>
</g>
<path d="M151.346 417.554L178.644 382.855C178.644 382.855 150.412 417.902 131.252 421.411C119.595 423.546 103.954 405.988 103.954 405.988C103.954 405.988 112.941 434.989 127.461 435.288C139.008 435.526 151.346 417.554 151.346 417.554Z" fill="#010B7B"/>
<path d="M221.485 417.554L194.187 382.855C194.187 382.855 222.419 417.902 241.579 421.411C253.237 423.546 268.877 405.988 268.877 405.988C268.877 405.988 259.89 434.989 245.371 435.288C233.823 435.526 221.485 417.554 221.485 417.554Z" fill="#010B7B"/>
</g>
</g>
<defs>
<filter id="filter0_d_335_10207" x="0" y="0" width="368.435" height="515" filterUnits="userSpaceOnUse" color-interpolation-filters="sRGB">
<feFlood flood-opacity="0" result="BackgroundImageFix"/>
<feColorMatrix in="SourceAlpha" type="matrix" values="0 0 0 0 0 0 0 0 0 0 0 0 0 0 0 0 0 0 127 0" result="hardAlpha"/>
<feOffset dy="4"/>
<feGaussianBlur stdDeviation="2"/>
<feComposite in2="hardAlpha" operator="out"/>
<feColorMatrix type="matrix" values="0 0 0 0 0 0 0 0 0 0 0 0 0 0 0 0 0 0 0.25 0"/>
<feBlend mode="normal" in2="BackgroundImageFix" result="effect1_dropShadow_335_10207"/>
<feBlend mode="normal" in="SourceGraphic" in2="effect1_dropShadow_335_10207" result="shape"/>
</filter>
<filter id="filter1_i_335_10207" x="32.0586" y="4.8374" width="131.692" height="24.7604" filterUnits="userSpaceOnUse" color-interpolation-filters="sRGB">
<feFlood flood-opacity="0" result="BackgroundImageFix"/>
<feBlend mode="normal" in="SourceGraphic" in2="BackgroundImageFix" result="shape"/>
<feColorMatrix in="SourceAlpha" type="matrix" values="0 0 0 0 0 0 0 0 0 0 0 0 0 0 0 0 0 0 127 0" result="hardAlpha"/>
<feOffset dy="2.81509"/>
<feGaussianBlur stdDeviation="1.40755"/>
<feComposite in2="hardAlpha" operator="arithmetic" k2="-1" k3="1"/>
<feColorMatrix type="matrix" values="0 0 0 0 0 0 0 0 0 0 0 0 0 0 0 0 0 0 0.25 0"/>
<feBlend mode="normal" in2="shape" result="effect1_innerShadow_335_10207"/>
</filter>
<filter id="filter2_i_335_10207" x="206.146" y="4.8374" width="131.692" height="24.7604" filterUnits="userSpaceOnUse" color-interpolation-filters="sRGB">
<feFlood flood-opacity="0" result="BackgroundImageFix"/>
<feBlend mode="normal" in="SourceGraphic" in2="BackgroundImageFix" result="shape"/>
<feColorMatrix in="SourceAlpha" type="matrix" values="0 0 0 0 0 0 0 0 0 0 0 0 0 0 0 0 0 0 127 0" result="hardAlpha"/>
<feOffset dy="2.81509"/>
<feGaussianBlur stdDeviation="1.40755"/>
<feComposite in2="hardAlpha" operator="arithmetic" k2="-1" k3="1"/>
<feColorMatrix type="matrix" values="0 0 0 0 0 0 0 0 0 0 0 0 0 0 0 0 0 0 0.25 0"/>
<feBlend mode="normal" in2="shape" result="effect1_innerShadow_335_10207"/>
</filter>
<filter id="filter3_i_335_10207" x="173.384" y="81.5581" width="21.2314" height="28.0451" filterUnits="userSpaceOnUse" color-interpolation-filters="sRGB">
<feFlood flood-opacity="0" result="BackgroundImageFix"/>
<feBlend mode="normal" in="SourceGraphic" in2="BackgroundImageFix" result="shape"/>
<feColorMatrix in="SourceAlpha" type="matrix" values="0 0 0 0 0 0 0 0 0 0 0 0 0 0 0 0 0 0 127 0" result="hardAlpha"/>
<feOffset dy="2.81509"/>
<feGaussianBlur stdDeviation="1.40755"/>
<feComposite in2="hardAlpha" operator="arithmetic" k2="-1" k3="1"/>
<feColorMatrix type="matrix" values="0 0 0 0 0 0 0 0 0 0 0 0 0 0 0 0 0 0 0.25 0"/>
<feBlend mode="normal" in2="shape" result="effect1_innerShadow_335_10207"/>
</filter>
<filter id="filter4_i_335_10207" x="18.6299" y="26.7832" width="333.673" height="38.575" filterUnits="userSpaceOnUse" color-interpolation-filters="sRGB">
<feFlood flood-opacity="0" result="BackgroundImageFix"/>
<feBlend mode="normal" in="SourceGraphic" in2="BackgroundImageFix" result="shape"/>
<feColorMatrix in="SourceAlpha" type="matrix" values="0 0 0 0 0 0 0 0 0 0 0 0 0 0 0 0 0 0 127 0" result="hardAlpha"/>
<feOffset dy="1.40755"/>
<feGaussianBlur stdDeviation="0.703773"/>
<feComposite in2="hardAlpha" operator="arithmetic" k2="-1" k3="1"/>
<feColorMatrix type="matrix" values="0 0 0 0 0 0 0 0 0 0 0 0 0 0 0 0 0 0 0.25 0"/>
<feBlend mode="normal" in2="shape" result="effect1_innerShadow_335_10207"/>
</filter>
<filter id="filter5_i_335_10207" x="163.751" y="12.7739" width="40.498" height="57.8952" filterUnits="userSpaceOnUse" color-interpolation-filters="sRGB">
<feFlood flood-opacity="0" result="BackgroundImageFix"/>
<feBlend mode="normal" in="SourceGraphic" in2="BackgroundImageFix" result="shape"/>
<feColorMatrix in="SourceAlpha" type="matrix" values="0 0 0 0 0 0 0 0 0 0 0 0 0 0 0 0 0 0 127 0" result="hardAlpha"/>
<feOffset dy="2.81509"/>
<feGaussianBlur stdDeviation="1.40755"/>
<feComposite in2="hardAlpha" operator="arithmetic" k2="-1" k3="1"/>
<feColorMatrix type="matrix" values="0 0 0 0 0 0 0 0 0 0 0 0 0 0 0 0 0 0 0.25 0"/>
<feBlend mode="normal" in2="shape" result="effect1_innerShadow_335_10207"/>
</filter>
<filter id="filter6_i_335_10207" x="136.186" y="187.836" width="95.6279" height="136.709" filterUnits="userSpaceOnUse" color-interpolation-filters="sRGB">
<feFlood flood-opacity="0" result="BackgroundImageFix"/>
<feBlend mode="normal" in="SourceGraphic" in2="BackgroundImageFix" result="shape"/>
<feColorMatrix in="SourceAlpha" type="matrix" values="0 0 0 0 0 0 0 0 0 0 0 0 0 0 0 0 0 0 127 0" result="hardAlpha"/>
<feOffset dy="6.6473"/>
<feGaussianBlur stdDeviation="3.32365"/>
<feComposite in2="hardAlpha" operator="arithmetic" k2="-1" k3="1"/>
<feColorMatrix type="matrix" values="0 0 0 0 0 0 0 0 0 0 0 0 0 0 0 0 0 0 0.76 0"/>
<feBlend mode="normal" in2="shape" result="effect1_innerShadow_335_10207"/>
</filter>
<filter id="filter7_i_335_10207" x="33.5254" y="480.217" width="131.692" height="24.7604" filterUnits="userSpaceOnUse" color-interpolation-filters="sRGB">
<feFlood flood-opacity="0" result="BackgroundImageFix"/>
<feBlend mode="normal" in="SourceGraphic" in2="BackgroundImageFix" result="shape"/>
<feColorMatrix in="SourceAlpha" type="matrix" values="0 0 0 0 0 0 0 0 0 0 0 0 0 0 0 0 0 0 127 0" result="hardAlpha"/>
<feOffset dy="2.81509"/>
<feGaussianBlur stdDeviation="1.40755"/>
<feComposite in2="hardAlpha" operator="arithmetic" k2="-1" k3="1"/>
<feColorMatrix type="matrix" values="0 0 0 0 0 0 0 0 0 0 0 0 0 0 0 0 0 0 0.25 0"/>
<feBlend mode="normal" in2="shape" result="effect1_innerShadow_335_10207"/>
</filter>
<filter id="filter8_i_335_10207" x="207.612" y="480.217" width="131.692" height="24.7604" filterUnits="userSpaceOnUse" color-interpolation-filters="sRGB">
<feFlood flood-opacity="0" result="BackgroundImageFix"/>
<feBlend mode="normal" in="SourceGraphic" in2="BackgroundImageFix" result="shape"/>
<feColorMatrix in="SourceAlpha" type="matrix" values="0 0 0 0 0 0 0 0 0 0 0 0 0 0 0 0 0 0 127 0" result="hardAlpha"/>
<feOffset dy="2.81509"/>
<feGaussianBlur stdDeviation="1.40755"/>
<feComposite in2="hardAlpha" operator="arithmetic" k2="-1" k3="1"/>
<feColorMatrix type="matrix" values="0 0 0 0 0 0 0 0 0 0 0 0 0 0 0 0 0 0 0.25 0"/>
<feBlend mode="normal" in2="shape" result="effect1_innerShadow_335_10207"/>
</filter>
<filter id="filter9_i_335_10207" x="174.851" y="400.212" width="21.2314" height="28.0451" filterUnits="userSpaceOnUse" color-interpolation-filters="sRGB">
<feFlood flood-opacity="0" result="BackgroundImageFix"/>
<feBlend mode="normal" in="SourceGraphic" in2="BackgroundImageFix" result="shape"/>
<feColorMatrix in="SourceAlpha" type="matrix" values="0 0 0 0 0 0 0 0 0 0 0 0 0 0 0 0 0 0 127 0" result="hardAlpha"/>
<feOffset dy="2.81509"/>
<feGaussianBlur stdDeviation="1.40755"/>
<feComposite in2="hardAlpha" operator="arithmetic" k2="-1" k3="1"/>
<feColorMatrix type="matrix" values="0 0 0 0 0 0 0 0 0 0 0 0 0 0 0 0 0 0 0.25 0"/>
<feBlend mode="normal" in2="shape" result="effect1_innerShadow_335_10207"/>
</filter>
<filter id="filter10_i_335_10207" x="20.0967" y="443.049" width="333.673" height="38.575" filterUnits="userSpaceOnUse" color-interpolation-filters="sRGB">
<feFlood flood-opacity="0" result="BackgroundImageFix"/>
<feBlend mode="normal" in="SourceGraphic" in2="BackgroundImageFix" result="shape"/>
<feColorMatrix in="SourceAlpha" type="matrix" values="0 0 0 0 0 0 0 0 0 0 0 0 0 0 0 0 0 0 127 0" result="hardAlpha"/>
<feOffset dy="1.40755"/>
<feGaussianBlur stdDeviation="0.703773"/>
<feComposite in2="hardAlpha" operator="arithmetic" k2="-1" k3="1"/>
<feColorMatrix type="matrix" values="0 0 0 0 0 0 0 0 0 0 0 0 0 0 0 0 0 0 0.25 0"/>
<feBlend mode="normal" in2="shape" result="effect1_innerShadow_335_10207"/>
</filter>
<filter id="filter11_i_335_10207" x="165.218" y="439.146" width="40.498" height="57.8952" filterUnits="userSpaceOnUse" color-interpolation-filters="sRGB">
<feFlood flood-opacity="0" result="BackgroundImageFix"/>
<feBlend mode="normal" in="SourceGraphic" in2="BackgroundImageFix" result="shape"/>
<feColorMatrix in="SourceAlpha" type="matrix" values="0 0 0 0 0 0 0 0 0 0 0 0 0 0 0 0 0 0 127 0" result="hardAlpha"/>
<feOffset dy="2.81509"/>
<feGaussianBlur stdDeviation="1.40755"/>
<feComposite in2="hardAlpha" operator="arithmetic" k2="-1" k3="1"/>
<feColorMatrix type="matrix" values="0 0 0 0 0 0 0 0 0 0 0 0 0 0 0 0 0 0 0.25 0"/>
<feBlend mode="normal" in2="shape" result="effect1_innerShadow_335_10207"/>
</filter>
<linearGradient id="paint0_linear_335_10207" x1="175.337" y1="474.251" x2="283.97" y2="-99.2878" gradientUnits="userSpaceOnUse">
<stop stop-color="#120C35"/>
<stop offset="0.447115" stop-color="#143C87"/>
<stop offset="0.975962" stop-color="#13245E"/>
</linearGradient>
</defs>
</svg>
