<svg width="369" height="515" viewBox="0 0 369 515" fill="none" xmlns="http://www.w3.org/2000/svg">
<g filter="url(#filter0_d_607_7658)">
<path d="M352 0C358.627 5.41176e-06 364 5.37259 364 12V495C364 501.627 358.627 507 352 507H16C9.37259 507 4 501.627 4 495V12C4 5.37259 9.37258 3.38235e-07 16 0H352Z" fill="url(#paint0_linear_607_7658)"/>
<g opacity="0.2">
<path d="M96.0417 10.7954C118.208 13.3397 151.396 37.0117 151.396 37.0117C151.396 37.0117 163.528 33.1564 168.457 25.0601C173.385 16.9639 177.177 0.000377655 177.177 0.000377655H24.0059C24.0059 0.000377655 31.5886 23.518 44.6688 28.3372C57.749 33.1564 72.2843 8.0684 96.0417 10.7954Z" fill="#010B7B"/>
<g filter="url(#filter1_i_607_7658)">
<path d="M43.7318 18.2136C44.3357 18.4361 45.4849 18.6001 48.2474 17.3386C51.1731 16.0026 54.3076 13.8527 58.7625 10.9713C61.8302 8.98707 65.3636 6.76238 69.3517 4.83735H32.0586C32.2174 5.14025 32.3792 5.44555 32.5458 5.75149C34.142 8.68176 35.9981 11.5397 38.0389 13.8462C40.1131 16.1906 42.05 17.5939 43.7318 18.2136ZM148.815 25.483C149.488 25.1727 150.227 24.8086 150.995 24.3927C154.245 22.6328 157.085 20.4354 158.49 18.1278C160.331 15.1043 162.218 9.91982 163.751 4.83735H110.589C118.288 7.79397 125.865 11.6778 132.186 15.2393C137.899 18.458 142.885 21.588 146.442 23.9123C147.322 24.4873 148.117 25.015 148.815 25.483ZM145.608 26.7797L145.602 26.7812L145.6 26.7827C145.6 26.7827 145.605 26.7809 145.608 26.7797Z" fill="#171717"/>
</g>
<path d="M273.855 10.7954C251.689 13.3397 218.501 37.0117 218.501 37.0117C218.501 37.0117 206.369 33.1564 201.44 25.0601C196.511 16.9639 192.72 0.000377655 192.72 0.000377655H345.891C345.891 0.000377655 338.308 23.518 325.228 28.3372C312.148 33.1564 297.613 8.0684 273.855 10.7954Z" fill="#010B7B"/>
<g filter="url(#filter2_i_607_7658)">
<path d="M326.165 18.2136C325.561 18.4361 324.412 18.6001 321.649 17.3386C318.723 16.0026 315.589 13.8527 311.134 10.9713C308.066 8.98707 304.533 6.76238 300.545 4.83735H337.838C337.679 5.14025 337.517 5.44555 337.351 5.75149C335.754 8.68176 333.898 11.5397 331.858 13.8462C329.783 16.1906 327.846 17.5939 326.165 18.2136ZM221.082 25.483C220.408 25.1727 219.67 24.8086 218.902 24.3927C215.651 22.6328 212.811 20.4354 211.406 18.1278C209.566 15.1043 207.678 9.91982 206.146 4.83735H259.308C251.609 7.79397 244.031 11.6778 237.71 15.2393C231.998 18.458 227.012 21.588 223.454 23.9123C222.574 24.4873 221.78 25.015 221.082 25.483ZM224.288 26.7797L224.294 26.7812L224.297 26.7827C224.297 26.7827 224.292 26.7809 224.288 26.7797Z" fill="#171717"/>
</g>
<path d="M200.682 69.5893V94.1743C208.778 81.0788 219.785 66.1428 231.771 58.0233C248.457 46.7197 258.724 42.7669 278.594 45.4934C298.176 48.1804 297.361 61.3003 321.247 69.5893C331.64 73.1958 340.022 73.6298 349.303 67.6616C359.377 61.1838 362.417 52.0108 362.952 39.9031C363.428 29.1187 353.308 0.0679779 353.284 0.000274658C353.284 0.000274658 342.008 34.899 326.555 35.855C310.219 36.8653 300.155 19.299 283.902 17.3493C268.103 15.4543 249.664 21.5263 237.079 31.4214C227.175 39.2078 216.984 45.4934 200.682 69.5893Z" fill="#010B7B"/>
<path d="M170.351 113.87C178.714 137.068 183.973 156.908 184 157.009C183.999 156.999 186.614 129.436 183.999 112.701C181.302 95.433 176.168 86.4544 170.351 71.7093V113.87Z" fill="#010B7B"/>
<path d="M197.648 71.7093C191.831 86.4543 186.697 95.433 183.999 112.701C181.385 129.439 184 157.009 184 157.009C184 157.009 189.264 137.127 197.648 113.871V71.7093Z" fill="#010B7B"/>
<g filter="url(#filter3_i_607_7658)">
<path d="M179.806 106.782C179.813 103.139 180.077 99.3005 180.86 95.9464C179.17 90.0746 176.626 86.1066 173.384 81.5581V95.7009C175.81 99.6571 177.97 103.428 179.806 106.782ZM188.193 106.788C190.028 103.435 192.188 99.661 194.616 95.7009V81.5581C191.374 86.1067 188.829 90.0744 187.138 95.9464C187.921 99.3025 188.186 103.143 188.193 106.788Z" fill="#171717"/>
</g>
<path d="M167.318 95.3301V70.7452C151.015 46.6495 140.826 40.3637 130.922 32.5773C118.336 22.682 99.8968 16.61 84.0974 18.5052C67.8445 20.4553 57.7803 38.0216 41.4446 37.0109C25.992 36.054 14.717 1.15618 14.717 1.15618C14.717 1.15618 4.57051 30.262 5.04756 41.059C5.58253 53.1666 8.62326 62.3398 18.6965 68.8175C27.9777 74.7859 36.3597 74.3516 46.7525 70.7452C70.6388 62.4563 69.824 49.3365 89.4053 46.6493C109.275 43.9227 119.542 47.8757 136.229 59.1792C148.215 67.2986 159.221 82.2345 167.318 95.3301Z" fill="#010B7B"/>
<g filter="url(#filter4_i_607_7658)">
<path d="M37.1739 63.9361C40.1621 64.0586 43.6567 63.4137 48.314 61.7976C58.4985 58.2635 63.1595 53.9267 68.2024 49.4409C73.8626 44.4061 80.2214 39.0001 92.6893 37.289C103.451 35.8123 112.313 36.0549 120.996 38.5616C127.344 40.3945 133.227 43.3392 139.353 47.1172C136.237 44.5597 133.239 42.3654 129.856 39.7062C118.896 31.0887 102.79 25.9285 89.6636 27.5031C84.1952 28.1592 79.6103 31.4076 72.3818 36.3538C66.155 40.6145 57.5428 46.3982 46.4717 46.1036L45.392 46.0554C38.2211 45.6114 32.6057 41.3554 28.6997 37.2363C25.7265 34.101 23.144 30.4168 20.9644 26.7832C20.5174 28.571 20.1063 30.3249 19.7589 31.994C18.8957 36.1403 18.5738 39.0065 18.6377 40.4531C18.8788 45.9091 19.664 49.8979 21.0636 52.9951C22.3794 55.9066 24.4368 58.4768 28.0599 60.8067C31.4714 63.0004 34.3526 63.8204 37.1739 63.9361ZM333.759 63.9361C336.58 63.8205 339.462 63.0002 342.873 60.8067C346.497 58.4767 348.555 55.9066 349.871 52.9951C351.271 49.8979 352.054 45.9092 352.295 40.4531C352.359 39.0086 352.038 36.1474 351.177 32.0075C350.829 30.3349 350.418 28.5768 349.97 26.7847C347.791 30.4181 345.208 34.1027 342.235 37.2378C338.329 41.3568 332.712 45.6118 325.541 46.0554C313.949 46.7722 304.979 40.7519 298.551 36.3538C291.549 31.5624 287.028 28.3639 281.78 27.5724L281.27 27.5031C268.144 25.929 252.039 31.0889 241.078 39.7062C237.697 42.3644 234.699 44.5566 231.585 47.1126C237.709 43.3361 243.591 40.394 249.937 38.5616C258.62 36.0547 267.483 35.8123 278.245 37.289C290.713 39 297.072 44.4059 302.732 49.4409C307.775 53.9267 312.436 58.2635 322.621 61.7976C327.277 63.4135 330.771 64.0585 333.759 63.9361Z" fill="#171717"/>
</g>
<path d="M184 0C184 0 180.282 20.2563 172.247 30.0616C166.445 37.1418 153.669 44.5356 153.669 44.5356C153.669 44.5356 166.331 48.8802 172.247 54.5562C180.053 62.0459 184 79.4219 184 79.4219V0Z" fill="#010B7B"/>
<path d="M184 79.4219C184 79.4219 187.947 62.0451 195.753 54.5554C201.669 48.8795 214.331 44.5349 214.331 44.5349C214.331 44.5349 201.555 37.141 195.753 30.0608C187.718 20.2556 184 0 184 0V79.4219Z" fill="#010B7B"/>
<g filter="url(#filter5_i_607_7658)">
<path d="M184 12.7737C184 12.7737 181.518 26.8218 176.154 33.6219C172.28 38.5321 163.751 43.6599 163.751 43.6599C163.751 43.6599 172.204 46.6729 176.154 50.6092C181.365 55.8035 184 67.854 184 67.854V12.7737Z" fill="#171717"/>
<path d="M184 67.854C184 67.854 186.635 55.803 191.846 50.6087C195.796 46.6724 204.249 43.6594 204.249 43.6594C204.249 43.6594 195.72 38.5316 191.846 33.6214C186.482 26.8213 184 12.7737 184 12.7737V67.854Z" fill="#171717"/>
</g>
<path d="M149.879 89.4466L173.509 156.054C173.509 156.054 148.945 89.0983 129.785 85.589C118.128 83.4538 102.487 101.013 102.487 101.013C102.487 101.013 111.474 72.0114 125.994 71.712C137.541 71.4739 149.879 89.4466 149.879 89.4466Z" fill="#010B7B"/>
<path d="M220.018 89.4466L194.758 154.638C194.758 154.638 220.952 89.0983 240.112 85.589C251.769 83.4538 267.41 101.013 267.41 101.013C267.41 101.013 258.422 72.0114 243.903 71.712C232.356 71.4738 220.018 89.4466 220.018 89.4466Z" fill="#010B7B"/>
<g filter="url(#filter6_d_607_7658)">
<path d="M70.7581 205.946L71.22 210.548L71.2512 210.392L72.0266 206.44L73.6155 210.14L87.2708 241.931L87.5081 242.482L87.2229 243.012L79.2083 257.875L87.3372 277.156L88.0793 278.918L86.1682 278.885L73.4407 278.657L72.3547 278.638L72.2268 277.56L68.9465 249.908L63.3889 251.519L60.8528 267.01L60.6633 268.165L59.4993 268.047L44.593 266.529L42.5159 266.317L43.6897 264.592L50.5911 254.441L51.4124 253.232L51.3899 253.11L51.4202 252.905L53.1428 241.284L55.4319 212.02L55.4885 211.299L56.1428 210.991L68.9895 204.945L70.5813 204.196L70.7581 205.946ZM65.5266 223.037L64.1106 240.494L71.8831 239.309L70.2473 231.997L65.8284 222.911L65.5266 223.037Z" fill="url(#paint1_linear_607_7658)" stroke="#130E2F" stroke-width="2.48891"/>
<mask id="path-17-outside-1_607_7658" maskUnits="userSpaceOnUse" x="156.742" y="265.778" width="152" height="29" fill="black">
<rect fill="white" x="156.742" y="265.778" width="152" height="29"/>
<path d="M191.22 275.922C191.29 275.979 191.381 276.007 191.494 276.007C191.887 276.007 192.14 275.803 192.252 275.395L194.023 268.778H200.029L196.488 282.013C196.306 282.687 195.919 283.256 195.329 283.72C194.753 284.184 194.121 284.416 193.433 284.416H188.627C187.321 284.416 186.253 283.861 185.424 282.751L179.607 272.592C179.495 272.452 179.361 272.382 179.207 272.382C178.813 272.396 178.56 272.599 178.448 272.993L175.392 284.416L163.742 289.174L175.645 269.979C175.729 269.656 175.919 269.375 176.214 269.136C176.523 268.897 176.846 268.778 177.184 268.778H180.787C181.729 268.778 182.494 269.01 183.085 269.473L191.22 275.922Z"/>
<path d="M204.202 277.208C204.006 277.208 203.823 277.285 203.654 277.44C203.5 277.594 203.423 277.77 203.423 277.967C203.423 278.262 203.577 278.409 203.886 278.409H223.76L222.137 284.437H199.861C199.467 284.437 199.137 284.317 198.87 284.078C198.603 283.826 198.47 283.502 198.47 283.109C198.47 282.94 198.491 282.779 198.533 282.624L200.641 274.805C200.725 274.468 200.915 274.187 201.21 273.962C201.505 273.723 201.821 273.604 202.158 273.604H205.783L206.752 269.979C206.837 269.656 207.026 269.375 207.321 269.136C207.616 268.897 207.933 268.778 208.27 268.778H226.331L225.362 272.403H210.314C210.117 272.403 209.935 272.48 209.766 272.635C209.612 272.789 209.534 272.965 209.534 273.161C209.534 273.457 209.689 273.604 209.998 273.604H217.817L216.847 277.208H204.202Z"/>
<path d="M245.004 274.805C244.807 274.805 244.624 274.883 244.456 275.037C244.301 275.192 244.224 275.367 244.224 275.564C244.224 275.859 244.379 276.007 244.688 276.007H248.903C249.296 276.007 249.626 276.133 249.893 276.386C250.16 276.625 250.294 276.941 250.294 277.334C250.294 277.503 250.273 277.665 250.23 277.819L248.439 284.437H242.433L244.034 278.409C244.062 278.297 244.076 278.191 244.076 278.093C244.076 277.503 243.767 277.208 243.149 277.208H231.115C230.778 277.208 230.462 277.327 230.167 277.566C229.872 277.791 229.682 278.072 229.598 278.409L227.975 284.437H224.371L226.289 277.208C226.373 276.871 226.563 276.59 226.858 276.365C227.167 276.126 227.49 276.007 227.827 276.007H230.23C230.427 276.007 230.602 275.929 230.757 275.775C230.926 275.62 231.01 275.445 231.01 275.248C231.01 274.953 230.855 274.805 230.546 274.805H228.144C227.525 274.805 227.216 274.51 227.216 273.92C227.216 273.808 227.23 273.702 227.258 273.604H244.73C245.123 273.604 245.376 273.4 245.488 272.993L246.627 268.778H252.633L251.516 272.993C251.39 273.499 251.101 273.927 250.652 274.278C250.202 274.63 249.725 274.805 249.219 274.805H245.004ZM232.169 268.778L231.199 272.403H227.596L228.565 268.778H232.169Z"/>
<path d="M270.505 277.819L271.622 273.604H277.649L275.394 282.034C275.225 282.694 274.839 283.264 274.235 283.741C273.645 284.205 273.013 284.437 272.338 284.437H252.464C252.071 284.437 251.741 284.317 251.474 284.078C251.207 283.826 251.073 283.502 251.073 283.109C251.073 282.94 251.094 282.779 251.136 282.624L254.867 268.778H258.471L256.047 277.819C256.033 277.875 256.026 277.924 256.026 277.967C256.026 278.262 256.18 278.409 256.49 278.409H269.746C270.153 278.409 270.406 278.212 270.505 277.819ZM272.928 268.778H278.935L277.965 272.403H271.959L272.928 268.778Z"/>
<path d="M302.138 273.604C302.546 273.604 302.876 273.723 303.129 273.962C303.396 274.201 303.529 274.524 303.529 274.932C303.529 275.086 303.508 275.241 303.466 275.395L301.696 282.034C301.527 282.694 301.141 283.264 300.537 283.741C299.947 284.205 299.314 284.437 298.64 284.437H276.954L278.576 278.409H296.048C296.244 278.409 296.42 278.332 296.575 278.177C296.743 278.023 296.827 277.847 296.827 277.65C296.827 277.355 296.673 277.208 296.364 277.208H280.094C279.49 277.208 279.187 276.913 279.187 276.323C279.187 276.224 279.202 276.119 279.23 276.007L280.831 269.979C280.916 269.656 281.105 269.375 281.4 269.136C281.709 268.897 282.033 268.778 282.37 268.778H298.029L297.059 272.403H284.414C284.217 272.403 284.035 272.48 283.866 272.635C283.698 272.789 283.613 272.965 283.613 273.161C283.613 273.457 283.768 273.604 284.077 273.604H302.138ZM299.23 268.778H305.236L304.267 272.403H298.261L299.23 268.778Z"/>
</mask>
<path d="M191.22 275.922C191.29 275.979 191.381 276.007 191.494 276.007C191.887 276.007 192.14 275.803 192.252 275.395L194.023 268.778H200.029L196.488 282.013C196.306 282.687 195.919 283.256 195.329 283.72C194.753 284.184 194.121 284.416 193.433 284.416H188.627C187.321 284.416 186.253 283.861 185.424 282.751L179.607 272.592C179.495 272.452 179.361 272.382 179.207 272.382C178.813 272.396 178.56 272.599 178.448 272.993L175.392 284.416L163.742 289.174L175.645 269.979C175.729 269.656 175.919 269.375 176.214 269.136C176.523 268.897 176.846 268.778 177.184 268.778H180.787C181.729 268.778 182.494 269.01 183.085 269.473L191.22 275.922Z" fill="url(#paint2_linear_607_7658)"/>
<path d="M204.202 277.208C204.006 277.208 203.823 277.285 203.654 277.44C203.5 277.594 203.423 277.77 203.423 277.967C203.423 278.262 203.577 278.409 203.886 278.409H223.76L222.137 284.437H199.861C199.467 284.437 199.137 284.317 198.87 284.078C198.603 283.826 198.47 283.502 198.47 283.109C198.47 282.94 198.491 282.779 198.533 282.624L200.641 274.805C200.725 274.468 200.915 274.187 201.21 273.962C201.505 273.723 201.821 273.604 202.158 273.604H205.783L206.752 269.979C206.837 269.656 207.026 269.375 207.321 269.136C207.616 268.897 207.933 268.778 208.27 268.778H226.331L225.362 272.403H210.314C210.117 272.403 209.935 272.48 209.766 272.635C209.612 272.789 209.534 272.965 209.534 273.161C209.534 273.457 209.689 273.604 209.998 273.604H217.817L216.847 277.208H204.202Z" fill="url(#paint3_linear_607_7658)"/>
<path d="M245.004 274.805C244.807 274.805 244.624 274.883 244.456 275.037C244.301 275.192 244.224 275.367 244.224 275.564C244.224 275.859 244.379 276.007 244.688 276.007H248.903C249.296 276.007 249.626 276.133 249.893 276.386C250.16 276.625 250.294 276.941 250.294 277.334C250.294 277.503 250.273 277.665 250.23 277.819L248.439 284.437H242.433L244.034 278.409C244.062 278.297 244.076 278.191 244.076 278.093C244.076 277.503 243.767 277.208 243.149 277.208H231.115C230.778 277.208 230.462 277.327 230.167 277.566C229.872 277.791 229.682 278.072 229.598 278.409L227.975 284.437H224.371L226.289 277.208C226.373 276.871 226.563 276.59 226.858 276.365C227.167 276.126 227.49 276.007 227.827 276.007H230.23C230.427 276.007 230.602 275.929 230.757 275.775C230.926 275.62 231.01 275.445 231.01 275.248C231.01 274.953 230.855 274.805 230.546 274.805H228.144C227.525 274.805 227.216 274.51 227.216 273.92C227.216 273.808 227.23 273.702 227.258 273.604H244.73C245.123 273.604 245.376 273.4 245.488 272.993L246.627 268.778H252.633L251.516 272.993C251.39 273.499 251.101 273.927 250.652 274.278C250.202 274.63 249.725 274.805 249.219 274.805H245.004ZM232.169 268.778L231.199 272.403H227.596L228.565 268.778H232.169Z" fill="url(#paint4_linear_607_7658)"/>
<path d="M270.505 277.819L271.622 273.604H277.649L275.394 282.034C275.225 282.694 274.839 283.264 274.235 283.741C273.645 284.205 273.013 284.437 272.338 284.437H252.464C252.071 284.437 251.741 284.317 251.474 284.078C251.207 283.826 251.073 283.502 251.073 283.109C251.073 282.94 251.094 282.779 251.136 282.624L254.867 268.778H258.471L256.047 277.819C256.033 277.875 256.026 277.924 256.026 277.967C256.026 278.262 256.18 278.409 256.49 278.409H269.746C270.153 278.409 270.406 278.212 270.505 277.819ZM272.928 268.778H278.935L277.965 272.403H271.959L272.928 268.778Z" fill="url(#paint5_linear_607_7658)"/>
<path d="M302.138 273.604C302.546 273.604 302.876 273.723 303.129 273.962C303.396 274.201 303.529 274.524 303.529 274.932C303.529 275.086 303.508 275.241 303.466 275.395L301.696 282.034C301.527 282.694 301.141 283.264 300.537 283.741C299.947 284.205 299.314 284.437 298.64 284.437H276.954L278.576 278.409H296.048C296.244 278.409 296.42 278.332 296.575 278.177C296.743 278.023 296.827 277.847 296.827 277.65C296.827 277.355 296.673 277.208 296.364 277.208H280.094C279.49 277.208 279.187 276.913 279.187 276.323C279.187 276.224 279.202 276.119 279.23 276.007L280.831 269.979C280.916 269.656 281.105 269.375 281.4 269.136C281.709 268.897 282.033 268.778 282.37 268.778H298.029L297.059 272.403H284.414C284.217 272.403 284.035 272.48 283.866 272.635C283.698 272.789 283.613 272.965 283.613 273.161C283.613 273.457 283.768 273.604 284.077 273.604H302.138ZM299.23 268.778H305.236L304.267 272.403H298.261L299.23 268.778Z" fill="url(#paint6_linear_607_7658)"/>
<path d="M191.22 275.922C191.29 275.979 191.381 276.007 191.494 276.007C191.887 276.007 192.14 275.803 192.252 275.395L194.023 268.778H200.029L196.488 282.013C196.306 282.687 195.919 283.256 195.329 283.72C194.753 284.184 194.121 284.416 193.433 284.416H188.627C187.321 284.416 186.253 283.861 185.424 282.751L179.607 272.592C179.495 272.452 179.361 272.382 179.207 272.382C178.813 272.396 178.56 272.599 178.448 272.993L175.392 284.416L163.742 289.174L175.645 269.979C175.729 269.656 175.919 269.375 176.214 269.136C176.523 268.897 176.846 268.778 177.184 268.778H180.787C181.729 268.778 182.494 269.01 183.085 269.473L191.22 275.922Z" stroke="#130E2F" stroke-width="4.97782" mask="url(#path-17-outside-1_607_7658)"/>
<path d="M204.202 277.208C204.006 277.208 203.823 277.285 203.654 277.44C203.5 277.594 203.423 277.77 203.423 277.967C203.423 278.262 203.577 278.409 203.886 278.409H223.76L222.137 284.437H199.861C199.467 284.437 199.137 284.317 198.87 284.078C198.603 283.826 198.47 283.502 198.47 283.109C198.47 282.94 198.491 282.779 198.533 282.624L200.641 274.805C200.725 274.468 200.915 274.187 201.21 273.962C201.505 273.723 201.821 273.604 202.158 273.604H205.783L206.752 269.979C206.837 269.656 207.026 269.375 207.321 269.136C207.616 268.897 207.933 268.778 208.27 268.778H226.331L225.362 272.403H210.314C210.117 272.403 209.935 272.48 209.766 272.635C209.612 272.789 209.534 272.965 209.534 273.161C209.534 273.457 209.689 273.604 209.998 273.604H217.817L216.847 277.208H204.202Z" stroke="#130E2F" stroke-width="4.97782" mask="url(#path-17-outside-1_607_7658)"/>
<path d="M245.004 274.805C244.807 274.805 244.624 274.883 244.456 275.037C244.301 275.192 244.224 275.367 244.224 275.564C244.224 275.859 244.379 276.007 244.688 276.007H248.903C249.296 276.007 249.626 276.133 249.893 276.386C250.16 276.625 250.294 276.941 250.294 277.334C250.294 277.503 250.273 277.665 250.23 277.819L248.439 284.437H242.433L244.034 278.409C244.062 278.297 244.076 278.191 244.076 278.093C244.076 277.503 243.767 277.208 243.149 277.208H231.115C230.778 277.208 230.462 277.327 230.167 277.566C229.872 277.791 229.682 278.072 229.598 278.409L227.975 284.437H224.371L226.289 277.208C226.373 276.871 226.563 276.59 226.858 276.365C227.167 276.126 227.49 276.007 227.827 276.007H230.23C230.427 276.007 230.602 275.929 230.757 275.775C230.926 275.62 231.01 275.445 231.01 275.248C231.01 274.953 230.855 274.805 230.546 274.805H228.144C227.525 274.805 227.216 274.51 227.216 273.92C227.216 273.808 227.23 273.702 227.258 273.604H244.73C245.123 273.604 245.376 273.4 245.488 272.993L246.627 268.778H252.633L251.516 272.993C251.39 273.499 251.101 273.927 250.652 274.278C250.202 274.63 249.725 274.805 249.219 274.805H245.004ZM232.169 268.778L231.199 272.403H227.596L228.565 268.778H232.169Z" stroke="#130E2F" stroke-width="4.97782" mask="url(#path-17-outside-1_607_7658)"/>
<path d="M270.505 277.819L271.622 273.604H277.649L275.394 282.034C275.225 282.694 274.839 283.264 274.235 283.741C273.645 284.205 273.013 284.437 272.338 284.437H252.464C252.071 284.437 251.741 284.317 251.474 284.078C251.207 283.826 251.073 283.502 251.073 283.109C251.073 282.94 251.094 282.779 251.136 282.624L254.867 268.778H258.471L256.047 277.819C256.033 277.875 256.026 277.924 256.026 277.967C256.026 278.262 256.18 278.409 256.49 278.409H269.746C270.153 278.409 270.406 278.212 270.505 277.819ZM272.928 268.778H278.935L277.965 272.403H271.959L272.928 268.778Z" stroke="#130E2F" stroke-width="4.97782" mask="url(#path-17-outside-1_607_7658)"/>
<path d="M302.138 273.604C302.546 273.604 302.876 273.723 303.129 273.962C303.396 274.201 303.529 274.524 303.529 274.932C303.529 275.086 303.508 275.241 303.466 275.395L301.696 282.034C301.527 282.694 301.141 283.264 300.537 283.741C299.947 284.205 299.314 284.437 298.64 284.437H276.954L278.576 278.409H296.048C296.244 278.409 296.42 278.332 296.575 278.177C296.743 278.023 296.827 277.847 296.827 277.65C296.827 277.355 296.673 277.208 296.364 277.208H280.094C279.49 277.208 279.187 276.913 279.187 276.323C279.187 276.224 279.202 276.119 279.23 276.007L280.831 269.979C280.916 269.656 281.105 269.375 281.4 269.136C281.709 268.897 282.033 268.778 282.37 268.778H298.029L297.059 272.403H284.414C284.217 272.403 284.035 272.48 283.866 272.635C283.698 272.789 283.613 272.965 283.613 273.161C283.613 273.457 283.768 273.604 284.077 273.604H302.138ZM299.23 268.778H305.236L304.267 272.403H298.261L299.23 268.778Z" stroke="#130E2F" stroke-width="4.97782" mask="url(#path-17-outside-1_607_7658)"/>
<path d="M251.447 212.194C253.402 212.261 255.235 212.486 256.944 212.875L256.943 212.875C259.409 213.347 261.39 214.288 262.66 215.853C263.957 217.451 264.35 219.497 264.039 221.812L264.04 221.813L263.223 228.066L263.217 228.111L262.923 229.862L262.708 231.146L261.435 230.873L255.211 229.539L254.084 229.297L254.239 228.155C254.521 226.069 254.671 224.478 254.699 223.36C254.713 222.799 254.695 222.394 254.659 222.123C254.645 222.018 254.629 221.952 254.62 221.916C254.396 221.65 254.071 221.444 253.563 221.333C252.995 221.21 252.456 221.219 251.93 221.349C251.89 221.395 251.798 221.516 251.673 221.792C251.441 222.305 251.206 223.117 250.993 224.28C250.77 225.491 250.582 226.441 250.449 227.09C250.382 227.415 250.329 227.664 250.292 227.833C250.282 227.879 250.274 227.919 250.266 227.954C250.261 229.595 250.729 230.109 251.126 230.292C252.12 230.714 253.67 231.142 255.831 231.562C258.726 231.907 261.002 232.52 262.4 233.559C263.139 234.108 263.698 234.825 263.901 235.729C264.089 236.566 263.932 237.403 263.583 238.193C262.641 243.104 260.899 246.878 258.214 249.313C255.464 251.808 251.89 252.751 247.663 252.291L247.627 252.287L247.592 252.281L245.59 251.945C243.328 251.649 241.311 251.775 239.636 251.813C238.837 251.831 238.03 251.832 237.368 251.707C236.719 251.584 235.838 251.267 235.44 250.336L235.438 250.333C235.148 249.648 234.557 248.253 234.076 246.886C233.836 246.205 233.613 245.503 233.469 244.881C233.397 244.571 233.34 244.256 233.313 243.961C233.288 243.687 233.28 243.331 233.375 242.983L233.451 242.709L233.636 242.496L239.137 236.166L240.093 235.065L241.03 236.181L243.417 239.027L247.908 239.966L251.833 240.788L248.132 242.333L245.923 243.254C246.82 243.284 247.716 243.351 248.432 243.51C249.662 243.784 250.426 243.506 250.999 242.857C251.552 242.229 252.028 241.138 252.322 239.439C248.717 238.76 245.897 237.868 243.952 236.708C241.793 235.421 240.483 233.64 240.751 231.368C240.722 227.254 241.019 222.997 241.639 218.6L241.641 218.584L241.644 218.569L242.032 216.252C242.302 214.639 243.538 213.623 245.114 213.039C246.675 212.46 248.8 212.203 251.4 212.194H251.447Z" fill="url(#paint7_linear_607_7658)" stroke="#130E2F" stroke-width="2.48891"/>
<path d="M211.122 214.301L234.002 220.109L234.476 220.23L234.741 220.639L239.979 228.726L240.354 229.304L240.062 229.928L235.356 240.027L235.138 240.495L234.654 240.671L229.866 242.417L233.482 246.01L233.767 246.293L233.832 246.689L234.686 251.854L252.679 252.562L254.953 252.652L253.65 254.518L248.986 261.196L248.614 261.728L247.966 261.728L223.481 261.728L221.986 261.728L222.257 260.257L223.584 253.09L223.523 247.375L218.099 246.833L214.7 261.767L214.475 262.75L213.468 262.735L201.781 262.559L200.174 262.535L200.599 260.985L210.044 226.615L209.573 215.56L209.501 213.89L211.122 214.301ZM223.714 225.009L224.242 225.875L223.501 226.566L219.326 230.461L221.372 229.533L223.842 228.411L223.081 231.015L221.226 237.363L226.244 236.626L229.673 229.464L226.899 224.786L223.468 224.606L223.714 225.009Z" fill="url(#paint8_linear_607_7658)" stroke="#130E2F" stroke-width="2.48891"/>
<path d="M209.604 219.457L209.653 226.265L209.662 227.4L208.532 227.512L190.031 229.352L189.711 238.666L194.05 237.347L196.515 236.597L195.721 238.61L195.891 238.481L197.602 237.182L197.878 239.312L198.893 247.175L199.071 248.554L197.681 248.58L189.978 248.723L189.017 252.697L195.077 252.967L195.224 252.973L195.367 253.014L200.656 254.545L201.92 254.91L201.484 256.152L199.557 261.64L199.265 262.472L198.383 262.472L173.244 262.472L171.263 262.472L172.123 260.688L179.981 244.381L179.145 235.021L179.141 234.979L179.14 234.937L178.829 221.27L178.803 220.075L179.996 219.999L208.281 218.225L209.594 218.143L209.604 219.457Z" fill="url(#paint9_linear_607_7658)" stroke="#130E2F" stroke-width="2.48891"/>
<path d="M293.034 219.11L293.085 225.918L293.093 227.053L291.963 227.165L273.461 229.005L273.134 238.545L279.465 237.52L280.342 237.378L280.761 238.161L283.804 243.844L284.147 244.484L283.759 245.098L282.141 247.653L281.782 248.22L281.113 248.233L273.409 248.376L272.447 252.35L278.507 252.619L278.655 252.626L278.797 252.667L284.086 254.198L285.353 254.564L284.914 255.807L283.137 260.83L282.847 261.652L281.975 261.66L252.081 261.919L249.721 261.941L251.037 259.982L253.037 257.004L253.368 256.51L253.961 256.458L254.243 256.433L253.456 256.364L254.808 254.571L263.347 243.242L263.347 233.911L263.348 233.841L263.355 233.773L264.792 220.787L264.906 219.755L265.941 219.682L291.703 217.878L293.024 217.786L293.034 219.11Z" fill="url(#paint10_linear_607_7658)" stroke="#130E2F" stroke-width="2.48891"/>
<mask id="path-22-outside-2_607_7658" maskUnits="userSpaceOnUse" x="128.277" y="207.235" width="54" height="86" fill="black">
<rect fill="white" x="128.277" y="207.235" width="54" height="86"/>
<path d="M146.641 212.099L148.33 216.487L157.191 249.791L155.752 265.13L168.109 242.562L165.798 219.69L176.55 219.364L177.337 235.735L178.948 244.655L155.752 286.914L151.263 274.023L143.597 253.389C143.902 252.828 144.232 252.306 144.59 251.853C146.436 249.513 150.491 247.07 150.522 247.052C150.495 247.042 146.473 245.604 144.59 243.728C142.098 241.243 140.837 235.479 140.837 235.479C140.837 235.479 140.205 238.366 138.952 240.934L133.734 227.656L131.277 210.235L146.641 212.099ZM147.603 252.139C147.598 252.161 147.316 253.433 146.763 253.984C146.346 254.4 145.461 254.719 145.436 254.728C145.451 254.737 146.352 255.282 146.763 255.803C147.337 256.531 147.603 258.034 147.603 258.034C147.603 258.034 147.869 256.531 148.443 255.803C148.857 255.277 149.77 254.728 149.77 254.728C149.752 254.721 148.861 254.401 148.443 253.984C147.89 253.434 147.608 252.164 147.603 252.139Z"/>
</mask>
<path d="M146.641 212.099L148.33 216.487L157.191 249.791L155.752 265.13L168.109 242.562L165.798 219.69L176.55 219.364L177.337 235.735L178.948 244.655L155.752 286.914L151.263 274.023L143.597 253.389C143.902 252.828 144.232 252.306 144.59 251.853C146.436 249.513 150.491 247.07 150.522 247.052C150.495 247.042 146.473 245.604 144.59 243.728C142.098 241.243 140.837 235.479 140.837 235.479C140.837 235.479 140.205 238.366 138.952 240.934L133.734 227.656L131.277 210.235L146.641 212.099ZM147.603 252.139C147.598 252.161 147.316 253.433 146.763 253.984C146.346 254.4 145.461 254.719 145.436 254.728C145.451 254.737 146.352 255.282 146.763 255.803C147.337 256.531 147.603 258.034 147.603 258.034C147.603 258.034 147.869 256.531 148.443 255.803C148.857 255.277 149.77 254.728 149.77 254.728C149.752 254.721 148.861 254.401 148.443 253.984C147.89 253.434 147.608 252.164 147.603 252.139Z" fill="url(#paint11_linear_607_7658)"/>
<path d="M146.641 212.099L148.964 211.204L148.426 209.808L146.941 209.628L146.641 212.099ZM148.33 216.487L150.736 215.847L150.701 215.718L150.653 215.593L148.33 216.487ZM157.191 249.791L159.669 250.023L159.71 249.581L159.596 249.151L157.191 249.791ZM155.752 265.13L153.274 264.897L157.935 266.325L155.752 265.13ZM168.109 242.562L170.292 243.758L170.663 243.081L170.585 242.312L168.109 242.562ZM165.798 219.69L165.723 217.203L163.053 217.284L163.322 219.941L165.798 219.69ZM176.55 219.364L179.036 219.245L178.919 216.802L176.475 216.876L176.55 219.364ZM177.337 235.735L174.851 235.855L174.859 236.017L174.888 236.178L177.337 235.735ZM178.948 244.655L181.129 245.853L181.553 245.08L181.397 244.213L178.948 244.655ZM155.752 286.914L153.402 287.733L155.242 293.016L157.934 288.112L155.752 286.914ZM151.263 274.023L153.613 273.205L153.605 273.181L153.596 273.157L151.263 274.023ZM143.597 253.389L141.41 252.2L140.87 253.195L141.264 254.255L143.597 253.389ZM144.59 251.853L142.636 250.311L142.636 250.311L144.59 251.853ZM150.522 247.052L151.805 249.184L156.308 246.474L151.358 244.708L150.522 247.052ZM144.59 243.728L142.833 245.49L142.833 245.49L144.59 243.728ZM140.837 235.479L143.269 234.948L138.406 234.947L140.837 235.479ZM138.952 240.934L136.636 241.844L138.707 247.114L141.189 242.025L138.952 240.934ZM133.734 227.656L131.269 228.004L131.31 228.294L131.417 228.567L133.734 227.656ZM131.277 210.235L131.576 207.765L128.36 207.374L128.812 210.583L131.277 210.235ZM147.603 252.139L150.033 251.603L145.172 251.603L147.603 252.139ZM146.763 253.984L148.52 255.747L148.52 255.747L146.763 253.984ZM145.436 254.728L144.596 252.385L139.661 254.154L144.151 256.859L145.436 254.728ZM146.763 255.803L148.717 254.262L148.717 254.261L146.763 255.803ZM147.603 258.034L145.152 258.468L150.054 258.467L147.603 258.034ZM148.443 255.803L146.489 254.261L146.488 254.261L148.443 255.803ZM149.77 254.728L151.054 256.86L155.548 254.153L150.609 252.384L149.77 254.728ZM148.443 253.984L146.686 255.747L146.686 255.748L148.443 253.984ZM146.641 212.099L144.318 212.993L146.008 217.381L148.33 216.487L150.653 215.593L148.964 211.204L146.641 212.099ZM148.33 216.487L145.925 217.127L154.785 250.431L157.191 249.791L159.596 249.151L150.736 215.847L148.33 216.487ZM157.191 249.791L154.713 249.559L153.274 264.897L155.752 265.13L158.23 265.362L159.669 250.023L157.191 249.791ZM155.752 265.13L157.935 266.325L170.292 243.758L168.109 242.562L165.926 241.367L153.569 263.935L155.752 265.13ZM168.109 242.562L170.585 242.312L168.274 219.44L165.798 219.69L163.322 219.941L165.632 242.813L168.109 242.562ZM165.798 219.69L165.874 222.178L176.626 221.852L176.55 219.364L176.475 216.876L165.723 217.203L165.798 219.69ZM176.55 219.364L174.064 219.484L174.851 235.855L177.337 235.735L179.823 235.616L179.036 219.245L176.55 219.364ZM177.337 235.735L174.888 236.178L176.498 245.097L178.948 244.655L181.397 244.213L179.786 235.293L177.337 235.735ZM178.948 244.655L176.766 243.458L153.57 285.716L155.752 286.914L157.934 288.112L181.129 245.853L178.948 244.655ZM155.752 286.914L158.103 286.095L153.613 273.205L151.263 274.023L148.912 274.842L153.402 287.733L155.752 286.914ZM151.263 274.023L153.596 273.157L145.93 252.522L143.597 253.389L141.264 254.255L148.93 274.89L151.263 274.023ZM143.597 253.389L145.784 254.577C146.04 254.105 146.295 253.709 146.544 253.394L144.59 251.853L142.636 250.311C142.169 250.903 141.763 251.55 141.41 252.2L143.597 253.389ZM144.59 251.853L146.544 253.394C147.243 252.508 148.482 251.478 149.698 250.596C150.867 249.749 151.822 249.174 151.805 249.184L150.522 247.052L149.238 244.919C149.191 244.948 148.103 245.604 146.775 246.567C145.495 247.496 143.783 248.857 142.636 250.311L144.59 251.853ZM150.522 247.052L151.358 244.708C151.388 244.718 150.463 244.389 149.326 243.845C148.124 243.269 146.973 242.589 146.347 241.965L144.59 243.728L142.833 245.49C144.09 246.743 145.892 247.72 147.178 248.335C148.529 248.982 149.63 249.376 149.685 249.396L150.522 247.052ZM144.59 243.728L146.347 241.965C145.522 241.142 144.733 239.541 144.122 237.833C143.836 237.034 143.62 236.3 143.475 235.767C143.403 235.502 143.35 235.289 143.315 235.146C143.298 235.075 143.285 235.021 143.278 234.987C143.274 234.97 143.271 234.959 143.27 234.952C143.269 234.948 143.268 234.946 143.268 234.946C143.268 234.945 143.268 234.945 143.268 234.946C143.268 234.946 143.268 234.946 143.268 234.946C143.268 234.947 143.268 234.947 143.268 234.947C143.269 234.947 143.269 234.948 140.837 235.479C138.406 236.011 138.406 236.012 138.406 236.012C138.406 236.012 138.406 236.013 138.406 236.013C138.406 236.014 138.406 236.015 138.407 236.015C138.407 236.017 138.407 236.019 138.408 236.022C138.409 236.027 138.41 236.033 138.412 236.04C138.416 236.056 138.42 236.076 138.426 236.102C138.438 236.154 138.455 236.227 138.477 236.318C138.521 236.5 138.586 236.757 138.671 237.071C138.841 237.696 139.095 238.559 139.436 239.51C140.078 241.306 141.166 243.829 142.833 245.49L144.59 243.728ZM140.837 235.479C138.406 234.947 138.406 234.947 138.406 234.946C138.406 234.946 138.406 234.946 138.406 234.946C138.406 234.946 138.406 234.945 138.406 234.945C138.406 234.945 138.406 234.945 138.406 234.945C138.406 234.944 138.406 234.945 138.406 234.946C138.405 234.949 138.404 234.954 138.403 234.962C138.399 234.978 138.393 235.003 138.385 235.039C138.368 235.11 138.342 235.218 138.306 235.358C138.235 235.639 138.127 236.044 137.982 236.524C137.688 237.498 137.261 238.723 136.715 239.843L138.952 240.934L141.189 242.025C141.896 240.576 142.412 239.074 142.747 237.963C142.917 237.4 143.045 236.923 143.131 236.583C143.174 236.412 143.208 236.275 143.23 236.178C143.242 236.13 143.251 236.091 143.257 236.063C143.26 236.049 143.263 236.038 143.265 236.029C143.266 236.025 143.266 236.022 143.267 236.019C143.267 236.017 143.268 236.016 143.268 236.015C143.268 236.014 143.268 236.014 143.268 236.013C143.268 236.013 143.268 236.013 143.268 236.013C143.268 236.012 143.268 236.012 140.837 235.479ZM138.952 240.934L141.269 240.023L136.05 226.746L133.734 227.656L131.417 228.567L136.636 241.844L138.952 240.934ZM133.734 227.656L136.198 227.309L133.741 209.888L131.277 210.235L128.812 210.583L131.269 228.004L133.734 227.656ZM131.277 210.235L130.977 212.706L146.341 214.569L146.641 212.099L146.941 209.628L131.576 207.765L131.277 210.235ZM147.603 252.139L145.172 251.603C145.181 251.563 145.136 251.772 145.046 252.021C145.002 252.144 144.96 252.24 144.927 252.303C144.911 252.332 144.905 252.34 144.911 252.331C144.916 252.323 144.946 252.281 145.006 252.222L146.763 253.984L148.52 255.747C149.215 255.055 149.573 254.142 149.73 253.706C149.921 253.176 150.02 252.737 150.033 252.674L147.603 252.139ZM146.763 253.984L145.006 252.221C145.051 252.177 145.081 252.154 145.087 252.15C145.093 252.145 145.088 252.149 145.067 252.162C145.024 252.189 144.959 252.224 144.875 252.265C144.706 252.346 144.567 252.395 144.596 252.385L145.436 254.728L146.276 257.07C146.329 257.051 146.645 256.937 147.029 256.752C147.35 256.599 147.998 256.267 148.52 255.747L146.763 253.984ZM145.436 254.728L144.151 256.859C144.125 256.843 144.288 256.941 144.487 257.086C144.586 257.158 144.676 257.228 144.747 257.29C144.826 257.36 144.836 257.379 144.809 257.344L146.763 255.803L148.717 254.261C148.289 253.718 147.726 253.287 147.415 253.06C147.057 252.8 146.762 252.621 146.72 252.596L145.436 254.728ZM146.763 255.803L144.808 257.344C144.769 257.294 144.793 257.311 144.853 257.45C144.907 257.573 144.961 257.728 145.012 257.898C145.061 258.064 145.098 258.217 145.123 258.328C145.135 258.383 145.143 258.425 145.148 258.45C145.151 258.462 145.152 258.47 145.153 258.474C145.153 258.475 145.153 258.475 145.153 258.475C145.153 258.474 145.153 258.473 145.153 258.472C145.153 258.471 145.152 258.471 145.152 258.47C145.152 258.47 145.152 258.469 145.152 258.469C145.152 258.469 145.152 258.468 145.152 258.468C145.152 258.468 145.152 258.468 147.603 258.034C150.054 257.601 150.054 257.6 150.054 257.6C150.054 257.6 150.053 257.6 150.053 257.599C150.053 257.599 150.053 257.598 150.053 257.598C150.053 257.597 150.053 257.595 150.052 257.594C150.052 257.592 150.051 257.589 150.051 257.585C150.05 257.578 150.048 257.57 150.046 257.561C150.043 257.541 150.038 257.517 150.032 257.486C150.02 257.426 150.004 257.345 149.982 257.247C149.939 257.054 149.874 256.786 149.785 256.485C149.634 255.975 149.317 255.023 148.717 254.262L146.763 255.803ZM147.603 258.034C150.054 258.467 150.054 258.468 150.054 258.468C150.054 258.468 150.054 258.469 150.053 258.469C150.053 258.469 150.053 258.47 150.053 258.47C150.053 258.471 150.053 258.471 150.053 258.472C150.053 258.473 150.053 258.474 150.052 258.474C150.052 258.475 150.052 258.475 150.053 258.473C150.053 258.47 150.055 258.462 150.057 258.45C150.062 258.425 150.071 258.383 150.083 258.328C150.108 258.217 150.145 258.064 150.194 257.898C150.244 257.728 150.299 257.573 150.352 257.45C150.412 257.312 150.436 257.294 150.397 257.344L148.443 255.803L146.488 254.261C145.888 255.022 145.572 255.975 145.421 256.485C145.332 256.786 145.267 257.054 145.224 257.247C145.202 257.345 145.185 257.426 145.173 257.487C145.168 257.517 145.163 257.542 145.159 257.561C145.157 257.57 145.156 257.579 145.155 257.585C145.154 257.589 145.154 257.592 145.153 257.594C145.153 257.596 145.153 257.597 145.152 257.598C145.152 257.598 145.152 257.599 145.152 257.599C145.152 257.6 145.152 257.6 145.152 257.6C145.152 257.601 145.152 257.601 147.603 258.034ZM148.443 255.803L150.397 257.344C150.38 257.366 150.475 257.263 150.723 257.083C150.821 257.012 150.911 256.951 150.976 256.909C151.008 256.889 151.032 256.873 151.046 256.864C151.053 256.86 151.058 256.857 151.059 256.857C151.06 256.856 151.06 256.856 151.059 256.857C151.058 256.857 151.058 256.857 151.057 256.858C151.057 256.858 151.056 256.858 151.056 256.859C151.055 256.859 151.055 256.859 151.055 256.859C151.055 256.859 151.054 256.859 151.054 256.859C151.054 256.859 151.054 256.86 149.77 254.728C148.486 252.595 148.485 252.596 148.485 252.596C148.485 252.596 148.485 252.596 148.485 252.596C148.484 252.596 148.484 252.596 148.484 252.597C148.483 252.597 148.482 252.598 148.481 252.598C148.48 252.599 148.478 252.6 148.475 252.602C148.471 252.604 148.466 252.607 148.46 252.611C148.448 252.619 148.432 252.628 148.413 252.64C148.376 252.663 148.326 252.695 148.266 252.734C148.147 252.811 147.983 252.921 147.8 253.053C147.488 253.28 146.92 253.714 146.489 254.261L148.443 255.803ZM149.77 254.728L150.609 252.384C150.641 252.396 150.502 252.347 150.332 252.265C150.248 252.225 150.182 252.189 150.139 252.162C150.118 252.149 150.113 252.145 150.119 252.15C150.124 252.153 150.154 252.176 150.199 252.221L148.443 253.984L146.686 255.748C147.209 256.269 147.86 256.601 148.181 256.754C148.565 256.939 148.881 257.053 148.931 257.071L149.77 254.728ZM148.443 253.984L150.2 252.222C150.259 252.281 150.289 252.323 150.294 252.331C150.301 252.34 150.295 252.332 150.279 252.303C150.246 252.241 150.204 252.144 150.159 252.021C150.07 251.773 150.025 251.564 150.033 251.603L147.603 252.139L145.172 252.674C145.186 252.739 145.285 253.177 145.476 253.708C145.633 254.144 145.991 255.055 146.686 255.747L148.443 253.984Z" fill="#130E2F" mask="url(#path-22-outside-2_607_7658)"/>
<path d="M94.999 216.654L100.047 223.91L100.104 223.991L100.147 224.081L105.427 235.065L105.499 235.214L105.529 235.375L106.739 241.828L109.087 235.293L105.292 218.965L104.984 217.637L106.335 217.45L113.373 216.48L114.628 216.307L114.779 217.565L117.375 239.235L117.415 239.568L117.282 239.875L111.392 253.549L109.909 260.507L109.702 261.476L108.713 261.492L101.5 261.614L100.207 261.636L100.235 260.344L100.581 243.884L97.7208 237.384L93.0243 256.859L92.7902 257.829L80.4367 257.609L81.2923 255.854L87.4124 243.307L81.6506 225.452L80.4603 221.765L82.664 223.395L81.4008 221.772L80.3008 220.357L82.0099 219.82L93.604 216.177L94.4762 215.903L94.999 216.654Z" fill="url(#paint12_linear_607_7658)" stroke="#130E2F" stroke-width="2.48891"/>
<mask id="path-25-outside-3_607_7658" maskUnits="userSpaceOnUse" x="113.524" y="214.065" width="32" height="49" fill="black">
<rect fill="white" x="113.524" y="214.065" width="32" height="49"/>
<path d="M130.385 228.287L136.237 242.665L136.722 244.113C134.717 245.811 131.197 247.066 131.197 247.066C131.197 247.066 135.277 249.519 137.13 251.867C138.575 253.699 139.582 256.632 140.186 258.844L129.824 259.718V252.69L123.154 250.078L119.406 239.749L117.966 230.399L116.524 220.986L128.745 218.065L130.385 228.287ZM141.623 258.724L141.61 258.725C141.612 258.718 141.614 258.711 141.616 258.704L141.623 258.724ZM130.516 241.034C130.513 241.051 130.332 241.865 129.977 242.219C129.706 242.489 129.125 242.696 129.125 242.696C129.125 242.696 129.711 243.049 129.977 243.387C130.343 243.851 130.514 244.806 130.516 244.819C130.518 244.81 130.689 243.852 131.055 243.387C131.321 243.05 131.907 242.697 131.908 242.696C131.891 242.69 131.323 242.485 131.055 242.219C130.701 241.865 130.519 241.048 130.516 241.034Z"/>
</mask>
<path d="M130.385 228.287L136.237 242.665L136.722 244.113C134.717 245.811 131.197 247.066 131.197 247.066C131.197 247.066 135.277 249.519 137.13 251.867C138.575 253.699 139.582 256.632 140.186 258.844L129.824 259.718V252.69L123.154 250.078L119.406 239.749L117.966 230.399L116.524 220.986L128.745 218.065L130.385 228.287ZM141.623 258.724L141.61 258.725C141.612 258.718 141.614 258.711 141.616 258.704L141.623 258.724ZM130.516 241.034C130.513 241.051 130.332 241.865 129.977 242.219C129.706 242.489 129.125 242.696 129.125 242.696C129.125 242.696 129.711 243.049 129.977 243.387C130.343 243.851 130.514 244.806 130.516 244.819C130.518 244.81 130.689 243.852 131.055 243.387C131.321 243.05 131.907 242.697 131.908 242.696C131.891 242.69 131.323 242.485 131.055 242.219C130.701 241.865 130.519 241.048 130.516 241.034Z" fill="url(#paint13_linear_607_7658)"/>
<path d="M130.385 228.287L127.927 228.681L127.972 228.962L128.079 229.225L130.385 228.287ZM136.237 242.665L138.597 241.874L138.572 241.8L138.542 241.727L136.237 242.665ZM136.722 244.113L138.33 246.013L139.619 244.923L139.082 243.322L136.722 244.113ZM131.197 247.066L130.361 244.722L125.406 246.49L129.915 249.2L131.197 247.066ZM137.13 251.867L139.084 250.326L139.084 250.326L137.13 251.867ZM140.186 258.844L140.395 261.324L143.376 261.072L142.587 258.187L140.186 258.844ZM129.824 259.718H127.335V262.425L130.033 262.198L129.824 259.718ZM129.824 252.69H132.313V250.992L130.732 250.373L129.824 252.69ZM123.154 250.078L120.814 250.927L121.198 251.985L122.246 252.396L123.154 250.078ZM119.406 239.749L116.946 240.128L116.983 240.369L117.066 240.598L119.406 239.749ZM117.966 230.399L115.505 230.776L115.506 230.778L117.966 230.399ZM116.524 220.986L115.946 218.566L113.717 219.098L114.064 221.363L116.524 220.986ZM128.745 218.065L131.202 217.671L130.777 215.021L128.166 215.645L128.745 218.065ZM141.623 258.724L141.814 261.205L145.041 260.957L143.972 257.901L141.623 258.724ZM141.61 258.725L139.211 258.061L138.266 261.478L141.801 261.206L141.61 258.725ZM141.616 258.704L143.965 257.882L141.341 250.384L139.218 258.039L141.616 258.704ZM130.516 241.034L132.947 240.499L128.086 240.498L130.516 241.034ZM129.977 242.219L131.734 243.982L131.735 243.981L129.977 242.219ZM129.125 242.696L128.29 240.352L123.336 242.116L127.841 244.829L129.125 242.696ZM129.977 243.387L131.931 241.845L131.931 241.845L129.977 243.387ZM130.516 244.819L128.066 245.255L132.967 245.254L130.516 244.819ZM131.055 243.387L129.101 241.845L129.101 241.846L131.055 243.387ZM131.908 242.696L133.191 244.829L137.687 242.125L132.748 240.354L131.908 242.696ZM131.055 242.219L129.297 243.98L129.298 243.982L131.055 242.219ZM130.385 228.287L128.079 229.225L133.932 243.603L136.237 242.665L138.542 241.727L132.69 227.349L130.385 228.287ZM136.237 242.665L133.877 243.456L134.363 244.904L136.722 244.113L139.082 243.322L138.597 241.874L136.237 242.665ZM136.722 244.113L135.114 242.214C134.371 242.843 133.233 243.469 132.158 243.97C131.643 244.209 131.184 244.401 130.856 244.532C130.692 244.597 130.562 244.647 130.476 244.679C130.434 244.696 130.402 244.707 130.382 244.715C130.372 244.718 130.365 244.721 130.362 244.722C130.36 244.723 130.359 244.723 130.359 244.723C130.359 244.723 130.359 244.723 130.359 244.723C130.359 244.723 130.36 244.723 130.36 244.723C130.36 244.722 130.36 244.722 130.36 244.722C130.361 244.722 130.361 244.722 131.197 247.066C132.033 249.411 132.034 249.411 132.034 249.41C132.034 249.41 132.034 249.41 132.035 249.41C132.035 249.41 132.036 249.41 132.036 249.41C132.037 249.409 132.039 249.409 132.04 249.408C132.044 249.407 132.048 249.405 132.053 249.404C132.063 249.4 132.076 249.395 132.092 249.389C132.125 249.377 132.171 249.36 132.228 249.339C132.342 249.296 132.503 249.234 132.701 249.155C133.095 248.998 133.642 248.77 134.258 248.483C135.444 247.931 137.069 247.081 138.33 246.013L136.722 244.113ZM131.197 247.066C129.915 249.2 129.915 249.2 129.914 249.199C129.914 249.199 129.914 249.199 129.914 249.199C129.914 249.199 129.914 249.199 129.914 249.199C129.914 249.199 129.914 249.199 129.914 249.199C129.915 249.2 129.916 249.201 129.919 249.202C129.924 249.205 129.933 249.211 129.946 249.218C129.971 249.234 130.01 249.258 130.061 249.29C130.165 249.354 130.318 249.451 130.51 249.575C130.894 249.824 131.425 250.179 132.008 250.602C133.228 251.485 134.474 252.519 135.176 253.409L137.13 251.867L139.084 250.326C137.933 248.867 136.212 247.5 134.929 246.57C134.26 246.086 133.655 245.682 133.217 245.398C132.997 245.255 132.817 245.142 132.691 245.063C132.627 245.023 132.577 244.992 132.541 244.971C132.523 244.96 132.509 244.951 132.499 244.945C132.493 244.942 132.489 244.939 132.486 244.937C132.484 244.936 132.483 244.935 132.482 244.935C132.481 244.934 132.481 244.934 132.48 244.934C132.48 244.934 132.48 244.934 132.48 244.933C132.479 244.933 132.479 244.933 131.197 247.066ZM137.13 251.867L135.176 253.409C136.282 254.811 137.186 257.306 137.785 259.5L140.186 258.844L142.587 258.187C141.978 255.958 140.868 252.588 139.084 250.326L137.13 251.867ZM140.186 258.844L139.977 256.364L129.615 257.238L129.824 259.718L130.033 262.198L140.395 261.324L140.186 258.844ZM129.824 259.718H132.313V252.69H129.824H127.335V259.718H129.824ZM129.824 252.69L130.732 250.373L124.062 247.761L123.154 250.078L122.246 252.396L128.916 255.008L129.824 252.69ZM123.154 250.078L125.494 249.229L121.746 238.9L119.406 239.749L117.066 240.598L120.814 250.927L123.154 250.078ZM119.406 239.749L121.866 239.37L120.425 230.02L117.966 230.399L115.506 230.778L116.946 240.128L119.406 239.749ZM117.966 230.399L120.426 230.023L118.984 220.61L116.524 220.986L114.064 221.363L115.505 230.776L117.966 230.399ZM116.524 220.986L117.103 223.407L129.323 220.486L128.745 218.065L128.166 215.645L115.946 218.566L116.524 220.986ZM128.745 218.065L126.287 218.46L127.927 228.681L130.385 228.287L132.842 227.893L131.202 217.671L128.745 218.065ZM141.623 258.724L141.432 256.242L141.419 256.243L141.61 258.725L141.801 261.206L141.814 261.205L141.623 258.724ZM141.61 258.725L144.009 259.389C144.007 259.396 144.005 259.402 144.004 259.405C144.003 259.408 144.003 259.41 144.003 259.408C144.004 259.407 144.005 259.401 144.007 259.396C144.009 259.39 144.011 259.38 144.014 259.369L141.616 258.704L139.218 258.039C139.22 258.031 139.221 258.026 139.222 258.023C139.223 258.02 139.223 258.019 139.223 258.021C139.222 258.022 139.221 258.028 139.219 258.034C139.217 258.04 139.214 258.049 139.211 258.061L141.61 258.725ZM141.616 258.704L139.267 259.526L139.274 259.546L141.623 258.724L143.972 257.901L143.965 257.882L141.616 258.704ZM130.516 241.034L128.086 240.498C128.092 240.471 128.09 240.484 128.08 240.52C128.069 240.558 128.054 240.608 128.037 240.657C128.028 240.68 128.021 240.699 128.015 240.713C128.009 240.727 128.007 240.729 128.011 240.723C128.014 240.717 128.028 240.69 128.056 240.65C128.083 240.611 128.136 240.54 128.22 240.456L129.977 242.219L131.735 243.981C132.329 243.388 132.613 242.641 132.72 242.344C132.861 241.953 132.934 241.631 132.947 241.57L130.516 241.034ZM129.977 242.219L128.22 240.456C128.285 240.392 128.337 240.35 128.365 240.329C128.394 240.307 128.413 240.295 128.418 240.292C128.425 240.288 128.412 240.296 128.377 240.313C128.345 240.328 128.313 240.342 128.291 240.351C128.28 240.355 128.273 240.358 128.272 240.358C128.272 240.358 128.273 240.358 128.276 240.357C128.277 240.356 128.279 240.355 128.281 240.355C128.282 240.354 128.284 240.354 128.285 240.353C128.286 240.353 128.286 240.353 128.287 240.353C128.288 240.352 128.288 240.352 128.288 240.352C128.289 240.352 128.289 240.352 128.289 240.352C128.289 240.352 128.29 240.352 129.125 242.696C129.96 245.041 129.96 245.041 129.961 245.041C129.961 245.041 129.961 245.041 129.961 245.04C129.962 245.04 129.962 245.04 129.963 245.04C129.963 245.04 129.964 245.039 129.965 245.039C129.967 245.038 129.969 245.038 129.972 245.037C129.976 245.035 129.981 245.033 129.987 245.031C129.998 245.027 130.012 245.022 130.028 245.016C130.06 245.004 130.101 244.988 130.149 244.969C130.244 244.931 130.374 244.875 130.522 244.805C130.742 244.7 131.282 244.432 131.734 243.982L129.977 242.219ZM129.125 242.696C127.841 244.829 127.841 244.828 127.841 244.828C127.841 244.828 127.84 244.828 127.84 244.828C127.84 244.828 127.84 244.828 127.839 244.828C127.839 244.827 127.838 244.827 127.838 244.827C127.837 244.826 127.836 244.826 127.835 244.825C127.834 244.824 127.833 244.824 127.832 244.823C127.831 244.823 127.832 244.823 127.835 244.825C127.839 244.828 127.85 244.835 127.866 244.845C127.898 244.865 127.943 244.896 127.99 244.93C128.138 245.037 128.114 245.044 128.023 244.928L129.977 243.387L131.931 241.845C131.574 241.392 131.124 241.054 130.912 240.9C130.78 240.804 130.661 240.725 130.575 240.669C130.532 240.64 130.495 240.617 130.466 240.6C130.452 240.591 130.44 240.583 130.43 240.577C130.426 240.574 130.421 240.572 130.418 240.57C130.416 240.568 130.414 240.567 130.413 240.566C130.412 240.566 130.411 240.566 130.41 240.565C130.41 240.565 130.41 240.565 130.409 240.565C130.409 240.564 130.409 240.564 130.409 240.564C130.409 240.564 130.408 240.564 129.125 242.696ZM129.977 243.387L128.023 244.928C127.972 244.863 127.945 244.817 127.936 244.802C127.927 244.785 127.927 244.782 127.934 244.798C127.949 244.834 127.972 244.896 127.997 244.981C128.022 245.063 128.041 245.14 128.054 245.198C128.066 245.254 128.07 245.28 128.066 245.255L130.516 244.819L132.967 244.384C132.957 244.33 132.895 243.987 132.769 243.563C132.667 243.22 132.426 242.473 131.931 241.845L129.977 243.387ZM130.516 244.819L132.967 245.254C132.962 245.28 132.966 245.255 132.979 245.199C132.992 245.142 133.011 245.064 133.035 244.982C133.06 244.897 133.083 244.834 133.099 244.798C133.106 244.782 133.106 244.785 133.097 244.801C133.088 244.816 133.061 244.863 133.01 244.928L131.055 243.387L129.101 241.846C128.606 242.474 128.365 243.223 128.263 243.566C128.137 243.99 128.075 244.333 128.066 244.385L130.516 244.819ZM131.055 243.387L133.01 244.928C132.973 244.975 132.946 245.002 132.938 245.011C132.928 245.02 132.927 245.021 132.936 245.013C132.957 244.995 132.993 244.966 133.042 244.93C133.09 244.896 133.135 244.866 133.167 244.845C133.198 244.824 133.211 244.817 133.191 244.829L131.908 242.696L130.625 240.563C130.591 240.584 130.379 240.713 130.12 240.901C129.908 241.054 129.459 241.392 129.101 241.845L131.055 243.387ZM131.908 242.696L132.748 240.354C132.769 240.361 132.762 240.359 132.74 240.35C132.716 240.34 132.684 240.327 132.653 240.312C132.638 240.304 132.627 240.299 132.619 240.294C132.61 240.29 132.609 240.289 132.615 240.293C132.621 240.296 132.64 240.308 132.669 240.33C132.697 240.352 132.749 240.393 132.812 240.456L131.055 242.219L129.298 243.982C129.745 244.427 130.276 244.692 130.498 244.798C130.783 244.935 131.017 245.021 131.067 245.039L131.908 242.696ZM131.055 242.219L132.814 240.457C132.898 240.541 132.951 240.612 132.977 240.651C133.005 240.691 133.019 240.717 133.022 240.723C133.026 240.729 133.024 240.727 133.018 240.712C133.012 240.699 133.004 240.68 132.996 240.656C132.978 240.607 132.963 240.557 132.953 240.519C132.943 240.483 132.941 240.47 132.947 240.499L130.516 241.034L128.086 241.569C128.099 241.629 128.172 241.951 128.312 242.342C128.419 242.638 128.703 243.387 129.297 243.98L131.055 242.219Z" fill="#130E2F" mask="url(#path-25-outside-3_607_7658)"/>
<g filter="url(#filter7_i_607_7658)">
<path d="M140.906 258.558C140.906 258.558 139.981 253.322 137.982 250.788C136.538 248.958 133.359 247.047 133.359 247.047C133.359 247.047 136.51 245.924 137.982 244.457C139.924 242.521 140.906 238.03 140.906 238.03V258.558Z" fill="white"/>
<path d="M140.906 238.03C140.906 238.03 141.888 242.522 143.83 244.457C145.302 245.924 148.452 247.047 148.452 247.047C148.452 247.047 145.274 248.958 143.83 250.788C141.831 253.323 140.906 258.558 140.906 258.558V238.03Z" fill="white"/>
</g>
<path d="M139.69 237.765L140.905 237.896L142.113 237.766L142.122 237.765C142.122 237.766 142.122 237.768 142.123 237.771C142.124 237.778 142.127 237.789 142.13 237.803C142.137 237.832 142.147 237.876 142.161 237.935C142.189 238.051 142.233 238.223 142.291 238.437C142.407 238.865 142.581 239.454 142.812 240.099C143.292 241.441 143.948 242.818 144.709 243.576C145.287 244.152 146.279 244.726 147.229 245.18C147.686 245.398 148.102 245.573 148.402 245.694C148.552 245.755 148.672 245.801 148.753 245.832C148.794 245.847 148.825 245.859 148.845 245.866C148.855 245.87 148.862 245.872 148.866 245.874C148.868 245.875 148.869 245.875 148.87 245.875L151.349 246.759L149.094 248.114H149.093C149.092 248.115 149.09 248.116 149.088 248.117C149.083 248.12 149.076 248.125 149.065 248.131C149.045 248.144 149.013 248.163 148.971 248.189C148.887 248.242 148.763 248.32 148.61 248.419C148.303 248.618 147.879 248.902 147.413 249.239C146.454 249.934 145.417 250.787 144.808 251.56C143.965 252.628 143.286 254.373 142.812 255.977C142.581 256.756 142.41 257.461 142.297 257.971C142.24 258.225 142.198 258.429 142.171 258.568C142.157 258.638 142.147 258.692 142.141 258.727C142.137 258.744 142.134 258.757 142.133 258.765C142.132 258.769 142.132 258.772 142.132 258.773H142.131L140.905 258.666L139.681 258.774V258.773C139.68 258.772 139.679 258.769 139.679 258.765C139.677 258.757 139.675 258.744 139.672 258.727C139.665 258.692 139.655 258.638 139.642 258.568C139.614 258.429 139.572 258.225 139.516 257.971C139.402 257.461 139.231 256.756 139 255.977C138.525 254.373 137.848 252.627 137.005 251.559C136.395 250.786 135.358 249.934 134.399 249.239C133.933 248.902 133.509 248.618 133.202 248.419C133.049 248.32 132.926 248.242 132.842 248.189C132.8 248.163 132.767 248.144 132.746 248.131C132.736 248.125 132.728 248.12 132.724 248.117C132.721 248.116 132.72 248.115 132.719 248.114L130.464 246.758L132.941 245.875L132.945 245.873C132.95 245.871 132.957 245.869 132.967 245.865C132.987 245.858 133.018 245.847 133.059 245.832C133.14 245.801 133.26 245.755 133.41 245.694C133.71 245.573 134.125 245.398 134.582 245.18C135.533 244.726 136.526 244.152 137.104 243.576C137.864 242.818 138.52 241.441 139 240.099C139.231 239.454 139.405 238.865 139.521 238.437C139.579 238.223 139.622 238.051 139.65 237.935C139.664 237.876 139.675 237.832 139.682 237.803C139.685 237.789 139.687 237.778 139.688 237.771C139.689 237.768 139.69 237.766 139.69 237.765Z" stroke="#130E2F" stroke-width="2.48891"/>
</g>
</g>
<g opacity="0.2">
<path d="M97.5085 496.205C119.675 493.661 152.862 469.989 152.862 469.989C152.862 469.989 164.995 473.844 169.924 481.94C174.852 490.037 178.644 507 178.644 507H25.4727C25.4727 507 33.0554 483.482 46.1356 478.663C59.2158 473.844 73.7511 498.932 97.5085 496.205Z" fill="#010B7B"/>
<g filter="url(#filter8_i_607_7658)">
<path d="M45.1986 488.786C45.8025 488.564 46.9517 488.4 49.7142 489.661C52.6399 490.997 55.7744 493.147 60.2293 496.029C63.297 498.013 66.8304 500.238 70.8185 502.163H33.5254C33.6842 501.86 33.846 501.554 34.0126 501.249C35.6088 498.318 37.4649 495.46 39.5057 493.154C41.5799 490.809 43.5168 489.406 45.1986 488.786ZM150.282 481.517C150.955 481.827 151.693 482.191 152.462 482.607C155.712 484.367 158.552 486.565 159.957 488.872C161.797 491.896 163.685 497.08 165.217 502.163H112.055C119.754 499.206 127.332 495.322 133.653 491.761C139.365 488.542 144.351 485.412 147.909 483.088C148.789 482.513 149.583 481.985 150.282 481.517ZM147.075 480.22L147.069 480.219L147.066 480.217C147.066 480.217 147.072 480.219 147.075 480.22Z" fill="#171717"/>
</g>
<path d="M275.322 496.205C253.155 493.661 219.968 469.989 219.968 469.989C219.968 469.989 207.836 473.844 202.907 481.94C197.978 490.037 194.187 507 194.187 507H347.358C347.358 507 339.775 483.482 326.695 478.663C313.615 473.844 299.079 498.932 275.322 496.205Z" fill="#010B7B"/>
<g filter="url(#filter9_i_607_7658)">
<path d="M327.631 488.786C327.028 488.564 325.878 488.4 323.116 489.661C320.19 490.997 317.056 493.147 312.601 496.029C309.533 498.013 306 500.238 302.012 502.163H339.305C339.146 501.86 338.984 501.554 338.817 501.249C337.221 498.318 335.365 495.46 333.324 493.154C331.25 490.809 329.313 489.406 327.631 488.786ZM222.549 481.517C221.875 481.827 221.137 482.191 220.368 482.607C217.118 484.367 214.278 486.565 212.873 488.872C211.033 491.896 209.145 497.08 207.613 502.163H260.775C253.076 499.206 245.498 495.322 239.177 491.761C233.465 488.542 228.479 485.412 224.921 483.088C224.041 482.513 223.247 481.985 222.549 481.517ZM225.755 480.22L225.761 480.219L225.764 480.217C225.764 480.217 225.758 480.219 225.755 480.22Z" fill="#171717"/>
</g>
<path d="M202.149 437.411V412.826C210.245 425.921 221.252 440.857 233.238 448.977C249.924 460.28 260.191 464.233 280.061 461.507C299.643 458.82 298.828 445.7 322.714 437.411C333.107 433.804 341.489 433.37 350.77 439.338C360.844 445.816 363.884 454.989 364.419 467.097C364.895 477.881 354.775 506.932 354.751 507C354.751 507 343.475 472.101 328.022 471.145C311.686 470.135 301.622 487.701 285.369 489.651C269.57 491.546 251.131 485.474 238.546 475.579C228.642 467.792 218.452 461.507 202.149 437.411Z" fill="#010B7B"/>
<path d="M171.817 391.326C180.181 367.135 185.44 346.456 185.466 346.352C185.466 346.362 188.081 375.095 185.466 392.545C182.768 410.552 177.635 419.915 171.817 435.291V391.326Z" fill="#010B7B"/>
<path d="M199.115 435.291C193.298 419.915 188.164 410.552 185.466 392.545C182.851 375.091 185.466 346.352 185.466 346.352C185.466 346.352 190.73 367.074 199.115 391.326V435.291Z" fill="#010B7B"/>
<g filter="url(#filter10_i_607_7658)">
<path d="M181.272 400.218C181.28 403.861 181.544 407.699 182.327 411.054C180.636 416.925 178.092 420.893 174.851 425.442V411.299C177.277 407.343 179.437 403.572 181.272 400.218ZM189.659 400.212C191.495 403.565 193.654 407.339 196.082 411.299V425.442C192.841 420.893 190.295 416.926 188.605 411.054C189.388 407.698 189.653 403.857 189.659 400.212Z" fill="#171717"/>
</g>
<path d="M168.785 411.67V436.255C152.482 460.351 142.293 466.637 132.389 474.423C119.803 484.318 101.364 490.39 85.5642 488.495C69.3112 486.545 59.247 468.979 42.9114 469.99C27.4588 470.946 16.1838 505.844 16.1838 505.844C16.1838 505.844 6.03731 476.738 6.51436 465.941C7.04932 453.834 10.0901 444.661 20.1633 438.183C29.4445 432.215 37.8265 432.649 48.2193 436.255C72.1056 444.544 71.2908 457.664 90.8721 460.351C110.742 463.078 121.009 459.125 137.695 447.821C149.681 439.702 160.688 424.766 168.785 411.67Z" fill="#010B7B"/>
<g filter="url(#filter11_i_607_7658)">
<path d="M38.6407 443.064C41.6289 442.941 45.1235 443.586 49.7808 445.202C59.9653 448.737 64.6263 453.073 69.6692 457.559C75.3294 462.594 81.6882 468 94.1561 469.711C104.918 471.188 113.78 470.945 122.462 468.438C128.811 466.605 134.694 463.661 140.819 459.883C137.704 462.44 134.706 464.635 131.323 467.294C120.363 475.911 104.257 481.071 91.1304 479.497C85.662 478.841 81.0771 475.592 73.8486 470.646C67.6218 466.385 59.0096 460.602 47.9385 460.896L46.8588 460.945C39.6879 461.389 34.0725 465.645 30.1665 469.764C27.1933 472.899 24.6107 476.583 22.4312 480.217C21.9842 478.429 21.5731 476.675 21.2257 475.006C20.3625 470.86 20.0406 467.993 20.1045 466.547C20.3456 461.091 21.1308 457.102 22.5304 454.005C23.8462 451.093 25.9036 448.523 29.5267 446.193C32.9382 444 35.8194 443.18 38.6407 443.064ZM335.226 443.064C338.047 443.18 340.929 444 344.34 446.193C347.963 448.523 350.022 451.093 351.338 454.005C352.737 457.102 353.521 461.091 353.762 466.547C353.826 467.991 353.505 470.853 352.644 474.992C352.296 476.665 351.885 478.423 351.437 480.215C349.257 476.582 346.675 472.897 343.702 469.762C339.796 465.643 334.179 461.388 327.008 460.945C315.416 460.228 306.446 466.248 300.018 470.646C293.016 475.438 288.495 478.636 283.247 479.428L282.736 479.497C269.61 481.071 253.505 475.911 242.545 467.294C239.164 464.636 236.166 462.443 233.052 459.887C239.176 463.664 245.057 466.606 251.404 468.438C260.087 470.945 268.95 471.188 279.712 469.711C292.18 468 298.539 462.594 304.199 457.559C309.242 453.073 313.903 448.737 324.087 445.202C328.744 443.586 332.238 442.941 335.226 443.064Z" fill="#171717"/>
</g>
<path d="M185.467 507C185.467 507 181.749 486.744 173.713 476.938C167.911 469.858 155.136 462.464 155.136 462.464C155.136 462.464 167.798 458.12 173.713 452.444C181.519 444.954 185.467 427.578 185.467 427.578V507Z" fill="#010B7B"/>
<path d="M185.467 427.578C185.467 427.578 189.414 444.955 197.22 452.445C203.136 458.121 215.798 462.465 215.798 462.465C215.798 462.465 203.022 469.859 197.22 476.939C189.185 486.744 185.467 507 185.467 507V427.578Z" fill="#010B7B"/>
<g filter="url(#filter12_i_607_7658)">
<path d="M185.467 494.227C185.467 494.227 182.984 480.179 177.62 473.379C173.747 468.468 165.218 463.341 165.218 463.341C165.218 463.341 173.671 460.328 177.62 456.391C182.831 451.197 185.467 439.146 185.467 439.146V494.227Z" fill="#171717"/>
<path d="M185.467 439.146C185.467 439.146 188.102 451.198 193.313 456.392C197.262 460.328 205.716 463.341 205.716 463.341C205.716 463.341 197.187 468.469 193.313 473.379C187.949 480.179 185.467 494.227 185.467 494.227V439.146Z" fill="#171717"/>
</g>
<path d="M151.346 417.554L176.342 343.046C176.342 343.046 150.412 417.902 131.252 421.411C119.594 423.546 103.954 405.988 103.954 405.988C103.954 405.988 112.941 434.989 127.46 435.288C139.008 435.526 151.346 417.554 151.346 417.554Z" fill="#010B7B"/>
<path d="M221.484 417.553L198.535 350.601C198.535 350.601 222.419 417.902 241.579 421.411C253.236 423.546 268.876 405.987 268.876 405.987C268.876 405.987 259.889 434.989 245.37 435.288C233.823 435.526 221.484 417.553 221.484 417.553Z" fill="#010B7B"/>
</g>
</g>
<defs>
<filter id="filter0_d_607_7658" x="0" y="0" width="368.435" height="515" filterUnits="userSpaceOnUse" color-interpolation-filters="sRGB">
<feFlood flood-opacity="0" result="BackgroundImageFix"/>
<feColorMatrix in="SourceAlpha" type="matrix" values="0 0 0 0 0 0 0 0 0 0 0 0 0 0 0 0 0 0 127 0" result="hardAlpha"/>
<feOffset dy="4"/>
<feGaussianBlur stdDeviation="2"/>
<feComposite in2="hardAlpha" operator="out"/>
<feColorMatrix type="matrix" values="0 0 0 0 0 0 0 0 0 0 0 0 0 0 0 0 0 0 0.25 0"/>
<feBlend mode="normal" in2="BackgroundImageFix" result="effect1_dropShadow_607_7658"/>
<feBlend mode="normal" in="SourceGraphic" in2="effect1_dropShadow_607_7658" result="shape"/>
</filter>
<filter id="filter1_i_607_7658" x="32.0586" y="4.8374" width="131.692" height="24.7604" filterUnits="userSpaceOnUse" color-interpolation-filters="sRGB">
<feFlood flood-opacity="0" result="BackgroundImageFix"/>
<feBlend mode="normal" in="SourceGraphic" in2="BackgroundImageFix" result="shape"/>
<feColorMatrix in="SourceAlpha" type="matrix" values="0 0 0 0 0 0 0 0 0 0 0 0 0 0 0 0 0 0 127 0" result="hardAlpha"/>
<feOffset dy="2.81509"/>
<feGaussianBlur stdDeviation="1.40755"/>
<feComposite in2="hardAlpha" operator="arithmetic" k2="-1" k3="1"/>
<feColorMatrix type="matrix" values="0 0 0 0 0 0 0 0 0 0 0 0 0 0 0 0 0 0 0.25 0"/>
<feBlend mode="normal" in2="shape" result="effect1_innerShadow_607_7658"/>
</filter>
<filter id="filter2_i_607_7658" x="206.146" y="4.8374" width="131.692" height="24.7604" filterUnits="userSpaceOnUse" color-interpolation-filters="sRGB">
<feFlood flood-opacity="0" result="BackgroundImageFix"/>
<feBlend mode="normal" in="SourceGraphic" in2="BackgroundImageFix" result="shape"/>
<feColorMatrix in="SourceAlpha" type="matrix" values="0 0 0 0 0 0 0 0 0 0 0 0 0 0 0 0 0 0 127 0" result="hardAlpha"/>
<feOffset dy="2.81509"/>
<feGaussianBlur stdDeviation="1.40755"/>
<feComposite in2="hardAlpha" operator="arithmetic" k2="-1" k3="1"/>
<feColorMatrix type="matrix" values="0 0 0 0 0 0 0 0 0 0 0 0 0 0 0 0 0 0 0.25 0"/>
<feBlend mode="normal" in2="shape" result="effect1_innerShadow_607_7658"/>
</filter>
<filter id="filter3_i_607_7658" x="173.384" y="81.5581" width="21.2317" height="28.0451" filterUnits="userSpaceOnUse" color-interpolation-filters="sRGB">
<feFlood flood-opacity="0" result="BackgroundImageFix"/>
<feBlend mode="normal" in="SourceGraphic" in2="BackgroundImageFix" result="shape"/>
<feColorMatrix in="SourceAlpha" type="matrix" values="0 0 0 0 0 0 0 0 0 0 0 0 0 0 0 0 0 0 127 0" result="hardAlpha"/>
<feOffset dy="2.81509"/>
<feGaussianBlur stdDeviation="1.40755"/>
<feComposite in2="hardAlpha" operator="arithmetic" k2="-1" k3="1"/>
<feColorMatrix type="matrix" values="0 0 0 0 0 0 0 0 0 0 0 0 0 0 0 0 0 0 0.25 0"/>
<feBlend mode="normal" in2="shape" result="effect1_innerShadow_607_7658"/>
</filter>
<filter id="filter4_i_607_7658" x="18.6299" y="26.7832" width="333.673" height="38.575" filterUnits="userSpaceOnUse" color-interpolation-filters="sRGB">
<feFlood flood-opacity="0" result="BackgroundImageFix"/>
<feBlend mode="normal" in="SourceGraphic" in2="BackgroundImageFix" result="shape"/>
<feColorMatrix in="SourceAlpha" type="matrix" values="0 0 0 0 0 0 0 0 0 0 0 0 0 0 0 0 0 0 127 0" result="hardAlpha"/>
<feOffset dy="1.40755"/>
<feGaussianBlur stdDeviation="0.703773"/>
<feComposite in2="hardAlpha" operator="arithmetic" k2="-1" k3="1"/>
<feColorMatrix type="matrix" values="0 0 0 0 0 0 0 0 0 0 0 0 0 0 0 0 0 0 0.25 0"/>
<feBlend mode="normal" in2="shape" result="effect1_innerShadow_607_7658"/>
</filter>
<filter id="filter5_i_607_7658" x="163.751" y="12.7739" width="40.498" height="57.8952" filterUnits="userSpaceOnUse" color-interpolation-filters="sRGB">
<feFlood flood-opacity="0" result="BackgroundImageFix"/>
<feBlend mode="normal" in="SourceGraphic" in2="BackgroundImageFix" result="shape"/>
<feColorMatrix in="SourceAlpha" type="matrix" values="0 0 0 0 0 0 0 0 0 0 0 0 0 0 0 0 0 0 127 0" result="hardAlpha"/>
<feOffset dy="2.81509"/>
<feGaussianBlur stdDeviation="1.40755"/>
<feComposite in2="hardAlpha" operator="arithmetic" k2="-1" k3="1"/>
<feColorMatrix type="matrix" values="0 0 0 0 0 0 0 0 0 0 0 0 0 0 0 0 0 0 0.25 0"/>
<feBlend mode="normal" in2="shape" result="effect1_innerShadow_607_7658"/>
</filter>
<filter id="filter6_d_607_7658" x="38.2433" y="197.689" width="273.469" height="102.356" filterUnits="userSpaceOnUse" color-interpolation-filters="sRGB">
<feFlood flood-opacity="0" result="BackgroundImageFix"/>
<feColorMatrix in="SourceAlpha" type="matrix" values="0 0 0 0 0 0 0 0 0 0 0 0 0 0 0 0 0 0 127 0" result="hardAlpha"/>
<feOffset dy="1.24445"/>
<feGaussianBlur stdDeviation="0.777784"/>
<feComposite in2="hardAlpha" operator="out"/>
<feColorMatrix type="matrix" values="0 0 0 0 0 0 0 0 0 0 0 0 0 0 0 0 0 0 0.5 0"/>
<feBlend mode="normal" in2="BackgroundImageFix" result="effect1_dropShadow_607_7658"/>
<feBlend mode="normal" in="SourceGraphic" in2="effect1_dropShadow_607_7658" result="shape"/>
</filter>
<filter id="filter7_i_607_7658" x="127.568" y="237.496" width="26.6765" height="22.5467" filterUnits="userSpaceOnUse" color-interpolation-filters="sRGB">
<feFlood flood-opacity="0" result="BackgroundImageFix"/>
<feBlend mode="normal" in="SourceGraphic" in2="BackgroundImageFix" result="shape"/>
<feColorMatrix in="SourceAlpha" type="matrix" values="0 0 0 0 0 0 0 0 0 0 0 0 0 0 0 0 0 0 127 0" result="hardAlpha"/>
<feOffset dy="1.04915"/>
<feGaussianBlur stdDeviation="1.43447"/>
<feComposite in2="hardAlpha" operator="arithmetic" k2="-1" k3="1"/>
<feColorMatrix type="matrix" values="0 0 0 0 0 0 0 0 0 0 0 0 0 0 0 0 0 0 0.5 0"/>
<feBlend mode="normal" in2="shape" result="effect1_innerShadow_607_7658"/>
</filter>
<filter id="filter8_i_607_7658" x="33.5254" y="480.217" width="131.692" height="24.7604" filterUnits="userSpaceOnUse" color-interpolation-filters="sRGB">
<feFlood flood-opacity="0" result="BackgroundImageFix"/>
<feBlend mode="normal" in="SourceGraphic" in2="BackgroundImageFix" result="shape"/>
<feColorMatrix in="SourceAlpha" type="matrix" values="0 0 0 0 0 0 0 0 0 0 0 0 0 0 0 0 0 0 127 0" result="hardAlpha"/>
<feOffset dy="2.81509"/>
<feGaussianBlur stdDeviation="1.40755"/>
<feComposite in2="hardAlpha" operator="arithmetic" k2="-1" k3="1"/>
<feColorMatrix type="matrix" values="0 0 0 0 0 0 0 0 0 0 0 0 0 0 0 0 0 0 0.25 0"/>
<feBlend mode="normal" in2="shape" result="effect1_innerShadow_607_7658"/>
</filter>
<filter id="filter9_i_607_7658" x="207.613" y="480.217" width="131.692" height="24.7604" filterUnits="userSpaceOnUse" color-interpolation-filters="sRGB">
<feFlood flood-opacity="0" result="BackgroundImageFix"/>
<feBlend mode="normal" in="SourceGraphic" in2="BackgroundImageFix" result="shape"/>
<feColorMatrix in="SourceAlpha" type="matrix" values="0 0 0 0 0 0 0 0 0 0 0 0 0 0 0 0 0 0 127 0" result="hardAlpha"/>
<feOffset dy="2.81509"/>
<feGaussianBlur stdDeviation="1.40755"/>
<feComposite in2="hardAlpha" operator="arithmetic" k2="-1" k3="1"/>
<feColorMatrix type="matrix" values="0 0 0 0 0 0 0 0 0 0 0 0 0 0 0 0 0 0 0.25 0"/>
<feBlend mode="normal" in2="shape" result="effect1_innerShadow_607_7658"/>
</filter>
<filter id="filter10_i_607_7658" x="174.851" y="400.212" width="21.2317" height="28.0451" filterUnits="userSpaceOnUse" color-interpolation-filters="sRGB">
<feFlood flood-opacity="0" result="BackgroundImageFix"/>
<feBlend mode="normal" in="SourceGraphic" in2="BackgroundImageFix" result="shape"/>
<feColorMatrix in="SourceAlpha" type="matrix" values="0 0 0 0 0 0 0 0 0 0 0 0 0 0 0 0 0 0 127 0" result="hardAlpha"/>
<feOffset dy="2.81509"/>
<feGaussianBlur stdDeviation="1.40755"/>
<feComposite in2="hardAlpha" operator="arithmetic" k2="-1" k3="1"/>
<feColorMatrix type="matrix" values="0 0 0 0 0 0 0 0 0 0 0 0 0 0 0 0 0 0 0.25 0"/>
<feBlend mode="normal" in2="shape" result="effect1_innerShadow_607_7658"/>
</filter>
<filter id="filter11_i_607_7658" x="20.0967" y="443.049" width="333.673" height="38.575" filterUnits="userSpaceOnUse" color-interpolation-filters="sRGB">
<feFlood flood-opacity="0" result="BackgroundImageFix"/>
<feBlend mode="normal" in="SourceGraphic" in2="BackgroundImageFix" result="shape"/>
<feColorMatrix in="SourceAlpha" type="matrix" values="0 0 0 0 0 0 0 0 0 0 0 0 0 0 0 0 0 0 127 0" result="hardAlpha"/>
<feOffset dy="1.40755"/>
<feGaussianBlur stdDeviation="0.703773"/>
<feComposite in2="hardAlpha" operator="arithmetic" k2="-1" k3="1"/>
<feColorMatrix type="matrix" values="0 0 0 0 0 0 0 0 0 0 0 0 0 0 0 0 0 0 0.25 0"/>
<feBlend mode="normal" in2="shape" result="effect1_innerShadow_607_7658"/>
</filter>
<filter id="filter12_i_607_7658" x="165.218" y="439.146" width="40.498" height="57.8952" filterUnits="userSpaceOnUse" color-interpolation-filters="sRGB">
<feFlood flood-opacity="0" result="BackgroundImageFix"/>
<feBlend mode="normal" in="SourceGraphic" in2="BackgroundImageFix" result="shape"/>
<feColorMatrix in="SourceAlpha" type="matrix" values="0 0 0 0 0 0 0 0 0 0 0 0 0 0 0 0 0 0 127 0" result="hardAlpha"/>
<feOffset dy="2.81509"/>
<feGaussianBlur stdDeviation="1.40755"/>
<feComposite in2="hardAlpha" operator="arithmetic" k2="-1" k3="1"/>
<feColorMatrix type="matrix" values="0 0 0 0 0 0 0 0 0 0 0 0 0 0 0 0 0 0 0.25 0"/>
<feBlend mode="normal" in2="shape" result="effect1_innerShadow_607_7658"/>
</filter>
<linearGradient id="paint0_linear_607_7658" x1="175.337" y1="474.251" x2="283.97" y2="-99.2878" gradientUnits="userSpaceOnUse">
<stop stop-color="#120C35"/>
<stop offset="0.447115" stop-color="#143C87"/>
<stop offset="0.975962" stop-color="#13245E"/>
</linearGradient>
<linearGradient id="paint1_linear_607_7658" x1="65.4546" y1="207.578" x2="65.4546" y2="277.64" gradientUnits="userSpaceOnUse">
<stop stop-color="#4001BD"/>
<stop offset="0.25" stop-color="#0C398E"/>
<stop offset="0.5" stop-color="#182D60"/>
<stop offset="1" stop-color="#10173B"/>
</linearGradient>
<linearGradient id="paint2_linear_607_7658" x1="234.709" y1="286.895" x2="234.709" y2="268.778" gradientUnits="userSpaceOnUse">
<stop stop-color="#4001BD"/>
<stop offset="0.25" stop-color="#0C398E"/>
<stop offset="0.5" stop-color="#182D60"/>
<stop offset="1" stop-color="#10173B"/>
</linearGradient>
<linearGradient id="paint3_linear_607_7658" x1="234.709" y1="286.895" x2="234.709" y2="268.778" gradientUnits="userSpaceOnUse">
<stop stop-color="#4001BD"/>
<stop offset="0.25" stop-color="#0C398E"/>
<stop offset="0.5" stop-color="#182D60"/>
<stop offset="1" stop-color="#10173B"/>
</linearGradient>
<linearGradient id="paint4_linear_607_7658" x1="234.709" y1="286.895" x2="234.709" y2="268.778" gradientUnits="userSpaceOnUse">
<stop stop-color="#4001BD"/>
<stop offset="0.25" stop-color="#0C398E"/>
<stop offset="0.5" stop-color="#182D60"/>
<stop offset="1" stop-color="#10173B"/>
</linearGradient>
<linearGradient id="paint5_linear_607_7658" x1="234.709" y1="286.895" x2="234.709" y2="268.778" gradientUnits="userSpaceOnUse">
<stop stop-color="#4001BD"/>
<stop offset="0.25" stop-color="#0C398E"/>
<stop offset="0.5" stop-color="#182D60"/>
<stop offset="1" stop-color="#10173B"/>
</linearGradient>
<linearGradient id="paint6_linear_607_7658" x1="234.709" y1="286.895" x2="234.709" y2="268.778" gradientUnits="userSpaceOnUse">
<stop stop-color="#4001BD"/>
<stop offset="0.25" stop-color="#0C398E"/>
<stop offset="0.5" stop-color="#182D60"/>
<stop offset="1" stop-color="#10173B"/>
</linearGradient>
<linearGradient id="paint7_linear_607_7658" x1="250.013" y1="213.438" x2="250.013" y2="251.159" gradientUnits="userSpaceOnUse">
<stop stop-color="#4001BD"/>
<stop offset="0.25" stop-color="#0C398E"/>
<stop offset="0.5" stop-color="#182D60"/>
<stop offset="1" stop-color="#10173B"/>
</linearGradient>
<linearGradient id="paint8_linear_607_7658" x1="225.687" y1="215.773" x2="224.868" y2="261.726" gradientUnits="userSpaceOnUse">
<stop stop-color="#4001BD"/>
<stop offset="0.25" stop-color="#0C398E"/>
<stop offset="0.5" stop-color="#182D60"/>
<stop offset="1" stop-color="#10173B"/>
</linearGradient>
<linearGradient id="paint9_linear_607_7658" x1="191.674" y1="219.169" x2="190.935" y2="260.627" gradientUnits="userSpaceOnUse">
<stop stop-color="#4001BD"/>
<stop offset="0.25" stop-color="#0C398E"/>
<stop offset="0.5" stop-color="#182D60"/>
<stop offset="1" stop-color="#10173B"/>
</linearGradient>
<linearGradient id="paint10_linear_607_7658" x1="272.392" y1="218.774" x2="271.639" y2="261.024" gradientUnits="userSpaceOnUse">
<stop stop-color="#4001BD"/>
<stop offset="0.25" stop-color="#0C398E"/>
<stop offset="0.5" stop-color="#182D60"/>
<stop offset="1" stop-color="#10173B"/>
</linearGradient>
<linearGradient id="paint11_linear_607_7658" x1="155.411" y1="210.683" x2="153.999" y2="286.855" gradientUnits="userSpaceOnUse">
<stop stop-color="#0144BD"/>
<stop offset="0.5" stop-color="#182D60"/>
<stop offset="1" stop-color="#10173B"/>
</linearGradient>
<linearGradient id="paint12_linear_607_7658" x1="99.7502" y1="217.467" x2="98.9862" y2="260.325" gradientUnits="userSpaceOnUse">
<stop stop-color="#4001BD"/>
<stop offset="0.25" stop-color="#0C398E"/>
<stop offset="0.5" stop-color="#182D60"/>
<stop offset="1" stop-color="#10173B"/>
</linearGradient>
<linearGradient id="paint13_linear_607_7658" x1="129.862" y1="218.074" x2="129.161" y2="259.507" gradientUnits="userSpaceOnUse">
<stop stop-color="#0144BD"/>
<stop offset="0.5" stop-color="#182D60"/>
<stop offset="1" stop-color="#10173B"/>
</linearGradient>
</defs>
</svg>
