<svg width="368" height="515" viewBox="0 0 368 515" fill="none" xmlns="http://www.w3.org/2000/svg">
<g filter="url(#filter0_d_207_3102)">
<path d="M352 0C358.627 0 364 5.37258 364 12V495C364 501.627 358.627 507 352 507H16C9.37259 507 4 501.627 4 495V12C4 5.37259 9.37258 5.15422e-07 16 0H352ZM64.1631 8.5C36.5489 8.5 14.1631 30.8858 14.1631 58.5V489.5C14.1631 496.127 19.5349 501.5 26.1621 501.5H342.162C348.79 501.5 354.163 496.127 354.163 489.5V20.5C354.163 13.8727 348.79 8.50026 342.163 8.5H64.1631Z" fill="#DFB400"/>
<path d="M243.29 34H360.145V5.50015H227L243.29 34Z" fill="#DFB400"/>
<circle cx="343.75" cy="17.75" r="11.75" fill="white"/>
<g clip-path="url(#clip0_207_3102)">
<path d="M8.25 424.5H359.75V490C359.75 496.627 354.377 502 347.75 502H20.25C13.6226 502 8.25 496.627 8.25 490V424.5Z" fill="#DFB400"/>
<g opacity="0.2">
<path d="M200.579 476.099V453.468C208.274 465.523 218.734 479.272 230.126 486.747C245.984 497.152 255.742 500.791 274.626 498.281C293.236 495.807 292.462 483.73 315.163 476.099C325.04 472.779 333.006 472.38 341.827 477.874C351.4 483.837 354.29 492.281 354.798 503.427C355.251 513.355 345.633 540.097 345.61 540.159C345.61 540.159 334.893 508.034 320.207 507.153C304.682 506.223 295.117 522.394 279.671 524.189C264.655 525.933 247.132 520.344 235.17 511.235C225.758 504.067 216.073 498.281 200.579 476.099Z" fill="white"/>
<path d="M171.753 451.517C179.701 439.064 184.699 428.42 184.725 428.366C184.725 428.371 187.209 443.161 184.725 452.144C182.161 461.414 177.282 466.233 171.753 474.148V451.517Z" fill="white"/>
<path d="M197.696 474.148C192.168 466.233 187.289 461.414 184.725 452.144C182.24 443.16 184.725 428.366 184.725 428.366C184.725 428.366 189.728 439.033 197.696 451.517V474.148Z" fill="white"/>
<g filter="url(#filter1_i_207_3102)">
<path d="M180.74 441.861C180.746 445.214 180.998 448.748 181.742 451.836C180.135 457.241 177.717 460.894 174.637 465.081V452.062C176.942 448.42 178.995 444.949 180.74 441.861ZM188.711 441.855C190.455 444.942 192.507 448.416 194.815 452.062V465.081C191.734 460.894 189.315 457.241 187.708 451.836C188.453 448.746 188.704 445.21 188.711 441.855Z" fill="#D00416"/>
</g>
<path d="M168.87 452.404V475.036C153.376 497.217 143.692 503.003 134.28 510.171C122.318 519.28 104.794 524.87 89.7781 523.125C74.3315 521.33 64.7667 505.159 49.2415 506.09C34.5556 506.971 23.84 539.096 23.84 539.096C23.84 539.096 14.1969 512.303 14.6503 502.363C15.1587 491.218 18.0486 482.773 27.622 476.81C36.4428 471.316 44.4089 471.716 54.2861 475.036C76.9872 482.666 76.2128 494.744 94.8227 497.217C113.707 499.727 123.464 496.088 139.323 485.683C150.714 478.209 161.175 464.459 168.87 452.404Z" fill="white"/>
<g filter="url(#filter2_i_207_3102)">
<path d="M45.1826 483.442C48.0225 483.337 51.3437 483.893 55.77 485.288C65.4491 488.338 69.8789 492.08 74.6716 495.952C80.051 500.297 86.0943 504.962 97.9435 506.439C108.172 507.713 116.594 507.504 124.846 505.34C130.879 503.759 136.47 501.217 142.292 497.957C139.331 500.164 136.481 502.058 133.267 504.353C122.85 511.789 107.543 516.243 95.068 514.884C89.8709 514.318 85.5135 511.514 78.6436 507.246C72.7258 503.569 64.5409 498.577 54.019 498.832L52.9929 498.873C46.1778 499.256 40.841 502.929 37.1288 506.484C34.3031 509.19 31.8487 512.369 29.7773 515.505C29.3525 513.962 28.9618 512.449 28.6316 511.008C27.8112 507.43 27.5053 504.956 27.5661 503.708C27.7952 499 28.5414 495.557 29.8716 492.884C31.1221 490.372 33.0774 488.154 36.5207 486.143C39.763 484.25 42.5012 483.542 45.1826 483.442ZM327.053 483.442C329.734 483.542 332.473 484.25 335.715 486.143C339.158 488.154 341.115 490.372 342.365 492.884C343.695 495.557 344.44 498.999 344.669 503.708C344.73 504.955 344.425 507.424 343.607 510.996C343.276 512.44 342.885 513.957 342.46 515.504C340.388 512.368 337.934 509.188 335.108 506.483C331.396 502.928 326.058 499.256 319.243 498.873C308.226 498.255 299.7 503.45 293.592 507.246C286.937 511.381 282.64 514.141 277.653 514.824L277.167 514.884C264.693 516.242 249.387 511.789 238.97 504.353C235.757 502.059 232.907 500.167 229.948 497.961C235.768 501.22 241.358 503.759 247.39 505.34C255.642 507.504 264.065 507.713 274.293 506.439C286.143 504.962 292.186 500.297 297.565 495.952C302.358 492.08 306.788 488.338 316.467 485.288C320.893 483.893 324.213 483.337 327.053 483.442Z" fill="#D00416"/>
</g>
<path d="M184.725 542.998C184.725 542.998 181.192 523.627 173.555 514.25C168.041 507.48 155.899 500.409 155.899 500.409C155.899 500.409 167.933 496.255 173.555 490.827C180.974 483.665 184.725 467.048 184.725 467.048V542.998Z" fill="white"/>
<path d="M184.725 467.048C184.725 467.048 188.477 483.665 195.896 490.828C201.518 496.255 213.551 500.41 213.551 500.41C213.551 500.41 201.41 507.48 195.896 514.251C188.259 523.628 184.725 542.998 184.725 542.998V467.048Z" fill="white"/>
<g filter="url(#filter3_i_207_3102)">
<path d="M184.726 528.401C184.726 528.401 182.367 515.469 177.269 509.21C173.587 504.689 165.481 499.969 165.481 499.969C165.481 499.969 173.515 497.195 177.269 493.572C182.221 488.79 184.726 477.697 184.726 477.697V528.401Z" fill="#D00416"/>
<path d="M184.726 477.697C184.726 477.697 187.23 488.791 192.183 493.572C195.936 497.196 203.97 499.97 203.97 499.97C203.97 499.97 195.864 504.69 192.183 509.21C187.085 515.47 184.726 528.401 184.726 528.401V477.697Z" fill="#D00416"/>
</g>
<path d="M152.298 457.819L178.241 425.878C178.241 425.878 151.41 458.14 133.2 461.37C122.121 463.336 107.257 447.172 107.257 447.172C107.257 447.172 115.798 473.869 129.597 474.145C140.571 474.364 152.298 457.819 152.298 457.819Z" fill="white"/>
<path d="M54.4041 455.821L108.026 491.774C108.026 491.774 53.4776 458.557 34.9886 458.143C23.7394 457.891 11.5156 473.217 11.5156 473.217C11.5156 473.217 15.883 449.512 29.4782 447.134C40.2907 445.243 54.4041 455.821 54.4041 455.821Z" fill="white"/>
<path d="M312.597 459.276L263.719 489.475C263.719 489.475 313.524 459.095 332.013 458.681C343.262 458.429 355.486 476.671 355.486 476.671C355.486 476.671 351.713 449.754 338.118 447.376C327.306 445.485 312.597 459.276 312.597 459.276Z" fill="white"/>
<path d="M218.956 457.819L193.013 425.878C193.013 425.878 219.844 458.14 238.054 461.37C249.133 463.336 263.997 447.172 263.997 447.172C263.997 447.172 255.456 473.869 241.657 474.145C230.682 474.364 218.956 457.819 218.956 457.819Z" fill="white"/>
<g filter="url(#filter4_i_207_3102)">
<path d="M123.573 484.55C123.573 484.55 110.732 476.068 106.165 468.366C102.867 462.805 101.199 453.123 101.199 453.123C101.199 453.123 94.8862 459.067 89.4486 460.703C82.2733 462.863 69.3714 459.703 69.3714 459.703L123.573 484.55Z" fill="#D00416"/>
</g>
<g filter="url(#filter5_i_207_3102)">
<path d="M245.261 484.55C245.261 484.55 258.102 476.068 262.669 468.366C265.967 462.805 267.635 453.123 267.635 453.123C267.635 453.123 273.948 459.067 279.385 460.703C286.561 462.863 299.463 459.703 299.463 459.703L245.261 484.55Z" fill="#D00416"/>
</g>
<path d="M66.6533 453.348C67.1237 453.607 67.6365 453.858 68.1334 454.094C72.6572 456.173 77.5561 457.662 82.8291 457.311C83.6322 457.243 84.4407 457.12 85.246 456.912C89.6674 455.638 93.0381 452.963 96.1024 450.059C96.4983 449.672 96.887 449.278 97.2597 448.872C96.7702 449.123 96.2765 449.367 95.7842 449.608C92.0297 451.402 88.2462 453.303 84.5947 454.139C83.9492 454.272 83.2758 454.36 82.5876 454.417C78.039 454.735 73.1847 454.133 68.2875 453.564C67.7467 453.497 67.1842 453.423 66.6533 453.348Z" fill="white"/>
<path d="M303.464 449.816C302.993 450.075 302.481 450.327 301.984 450.562C297.46 452.641 292.561 454.13 287.288 453.779C286.485 453.711 285.676 453.588 284.871 453.381C280.45 452.106 277.079 449.432 274.015 446.527C273.619 446.14 273.23 445.746 272.857 445.34C273.347 445.592 273.841 445.835 274.333 446.076C278.088 447.871 281.871 449.771 285.522 450.607C286.168 450.74 286.841 450.828 287.53 450.885C292.078 451.203 296.932 450.601 301.83 450.032C302.37 449.965 302.933 449.891 303.464 449.816Z" fill="white"/>
</g>
<g filter="url(#filter6_i_207_3102)">
<rect x="73.8652" y="468.438" width="220.271" height="16" fill="#C59F00"/>
</g>
<path d="M120.419 407.5H264.709L284.823 424.5H100.305L120.419 407.5Z" fill="#DFB400"/>
</g>
<circle cx="36.75" cy="31.75" r="24.75" fill="#FFFFB8" stroke="#DFB400" stroke-width="2"/>
<rect x="23.5" y="263.5" width="322.5" height="136.5" rx="4" fill="white" fill-opacity="0.5"/>
</g>
<defs>
<filter id="filter0_d_207_3102" x="0" y="0" width="368" height="515" filterUnits="userSpaceOnUse" color-interpolation-filters="sRGB">
<feFlood flood-opacity="0" result="BackgroundImageFix"/>
<feColorMatrix in="SourceAlpha" type="matrix" values="0 0 0 0 0 0 0 0 0 0 0 0 0 0 0 0 0 0 127 0" result="hardAlpha"/>
<feOffset dy="4"/>
<feGaussianBlur stdDeviation="2"/>
<feComposite in2="hardAlpha" operator="out"/>
<feColorMatrix type="matrix" values="0 0 0 0 0 0 0 0 0 0 0 0 0 0 0 0 0 0 0.25 0"/>
<feBlend mode="normal" in2="BackgroundImageFix" result="effect1_dropShadow_207_3102"/>
<feBlend mode="normal" in="SourceGraphic" in2="effect1_dropShadow_207_3102" result="shape"/>
</filter>
<filter id="filter1_i_207_3102" x="174.637" y="441.855" width="20.1787" height="25.95" filterUnits="userSpaceOnUse" color-interpolation-filters="sRGB">
<feFlood flood-opacity="0" result="BackgroundImageFix"/>
<feBlend mode="normal" in="SourceGraphic" in2="BackgroundImageFix" result="shape"/>
<feColorMatrix in="SourceAlpha" type="matrix" values="0 0 0 0 0 0 0 0 0 0 0 0 0 0 0 0 0 0 127 0" result="hardAlpha"/>
<feOffset dy="2.72442"/>
<feGaussianBlur stdDeviation="1.36221"/>
<feComposite in2="hardAlpha" operator="arithmetic" k2="-1" k3="1"/>
<feColorMatrix type="matrix" values="0 0 0 0 0 0 0 0 0 0 0 0 0 0 0 0 0 0 0.25 0"/>
<feBlend mode="normal" in2="shape" result="effect1_innerShadow_207_3102"/>
</filter>
<filter id="filter2_i_207_3102" x="27.5586" y="483.43" width="317.118" height="33.4374" filterUnits="userSpaceOnUse" color-interpolation-filters="sRGB">
<feFlood flood-opacity="0" result="BackgroundImageFix"/>
<feBlend mode="normal" in="SourceGraphic" in2="BackgroundImageFix" result="shape"/>
<feColorMatrix in="SourceAlpha" type="matrix" values="0 0 0 0 0 0 0 0 0 0 0 0 0 0 0 0 0 0 127 0" result="hardAlpha"/>
<feOffset dy="1.36221"/>
<feGaussianBlur stdDeviation="0.681105"/>
<feComposite in2="hardAlpha" operator="arithmetic" k2="-1" k3="1"/>
<feColorMatrix type="matrix" values="0 0 0 0 0 0 0 0 0 0 0 0 0 0 0 0 0 0 0.25 0"/>
<feBlend mode="normal" in2="shape" result="effect1_innerShadow_207_3102"/>
</filter>
<filter id="filter3_i_207_3102" x="165.481" y="477.697" width="38.4883" height="53.4285" filterUnits="userSpaceOnUse" color-interpolation-filters="sRGB">
<feFlood flood-opacity="0" result="BackgroundImageFix"/>
<feBlend mode="normal" in="SourceGraphic" in2="BackgroundImageFix" result="shape"/>
<feColorMatrix in="SourceAlpha" type="matrix" values="0 0 0 0 0 0 0 0 0 0 0 0 0 0 0 0 0 0 127 0" result="hardAlpha"/>
<feOffset dy="2.72442"/>
<feGaussianBlur stdDeviation="1.36221"/>
<feComposite in2="hardAlpha" operator="arithmetic" k2="-1" k3="1"/>
<feColorMatrix type="matrix" values="0 0 0 0 0 0 0 0 0 0 0 0 0 0 0 0 0 0 0.25 0"/>
<feBlend mode="normal" in2="shape" result="effect1_innerShadow_207_3102"/>
</filter>
<filter id="filter4_i_207_3102" x="69.3711" y="453.123" width="54.2021" height="34.1512" filterUnits="userSpaceOnUse" color-interpolation-filters="sRGB">
<feFlood flood-opacity="0" result="BackgroundImageFix"/>
<feBlend mode="normal" in="SourceGraphic" in2="BackgroundImageFix" result="shape"/>
<feColorMatrix in="SourceAlpha" type="matrix" values="0 0 0 0 0 0 0 0 0 0 0 0 0 0 0 0 0 0 127 0" result="hardAlpha"/>
<feOffset dy="2.72442"/>
<feGaussianBlur stdDeviation="1.36221"/>
<feComposite in2="hardAlpha" operator="arithmetic" k2="-1" k3="1"/>
<feColorMatrix type="matrix" values="0 0 0 0 0 0 0 0 0 0 0 0 0 0 0 0 0 0 0.25 0"/>
<feBlend mode="normal" in2="shape" result="effect1_innerShadow_207_3102"/>
</filter>
<filter id="filter5_i_207_3102" x="245.261" y="453.123" width="54.2021" height="34.1512" filterUnits="userSpaceOnUse" color-interpolation-filters="sRGB">
<feFlood flood-opacity="0" result="BackgroundImageFix"/>
<feBlend mode="normal" in="SourceGraphic" in2="BackgroundImageFix" result="shape"/>
<feColorMatrix in="SourceAlpha" type="matrix" values="0 0 0 0 0 0 0 0 0 0 0 0 0 0 0 0 0 0 127 0" result="hardAlpha"/>
<feOffset dy="2.72442"/>
<feGaussianBlur stdDeviation="1.36221"/>
<feComposite in2="hardAlpha" operator="arithmetic" k2="-1" k3="1"/>
<feColorMatrix type="matrix" values="0 0 0 0 0 0 0 0 0 0 0 0 0 0 0 0 0 0 0.25 0"/>
<feBlend mode="normal" in2="shape" result="effect1_innerShadow_207_3102"/>
</filter>
<filter id="filter6_i_207_3102" x="73.8652" y="468.438" width="222.271" height="18" filterUnits="userSpaceOnUse" color-interpolation-filters="sRGB">
<feFlood flood-opacity="0" result="BackgroundImageFix"/>
<feBlend mode="normal" in="SourceGraphic" in2="BackgroundImageFix" result="shape"/>
<feColorMatrix in="SourceAlpha" type="matrix" values="0 0 0 0 0 0 0 0 0 0 0 0 0 0 0 0 0 0 127 0" result="hardAlpha"/>
<feOffset dx="2" dy="2"/>
<feGaussianBlur stdDeviation="1"/>
<feComposite in2="hardAlpha" operator="arithmetic" k2="-1" k3="1"/>
<feColorMatrix type="matrix" values="0 0 0 0 0 0 0 0 0 0 0 0 0 0 0 0 0 0 0.25 0"/>
<feBlend mode="normal" in2="shape" result="effect1_innerShadow_207_3102"/>
</filter>
<clipPath id="clip0_207_3102">
<rect x="8.25" y="404.589" width="351.5" height="97.4111" rx="12" fill="white"/>
</clipPath>
</defs>
</svg>
