<svg width="378" height="96" viewBox="0 0 378 96" fill="none" xmlns="http://www.w3.org/2000/svg">
<g filter="url(#filter0_d_585_8779)">
<g filter="url(#filter1_i_585_8779)">
<path d="M334.046 7.77718C339.034 7.77733 343.733 10.0647 346.728 13.952L361.788 33.5026C366.021 38.998 366.019 46.5585 361.786 52.0536L346.728 71.6023L346.147 72.3115C343.345 75.5357 339.307 77.5027 334.979 77.7508L334.048 77.7772H43.8771C39.2006 77.777 34.7798 75.7657 31.7779 72.3115L31.1973 71.6023L16.1367 52.0536C11.9035 46.5584 11.9038 38.9981 16.1367 33.5026L22.6494 26.0897C23.6943 24.4149 25.2386 23.0264 26.5869 21.5897L31.1973 13.952C34.1919 10.0651 38.889 7.7774 43.8771 7.77718H334.046Z" fill="#0144BD"/>
</g>
<path fill-rule="evenodd" clip-rule="evenodd" d="M334.046 7.77718C339.034 7.77721 343.733 10.0646 346.728 13.952L361.788 33.5026C366.021 38.998 366.019 46.5584 361.786 52.0536L346.728 71.6023L346.147 72.3115C343.345 75.5358 339.307 77.5028 334.979 77.7508L334.048 77.7772H43.8771C39.2005 77.777 34.7798 75.7658 31.7779 72.3115L31.1973 71.6023L16.1367 52.0536C11.9035 46.5584 11.9038 38.9981 16.1367 33.5026L31.1973 13.952C34.1919 10.0649 38.8889 7.7774 43.8771 7.77718H334.046ZM53.7271 11.6549C53.6816 11.6764 49.0164 13.8834 47.7695 16.0946C46.0276 19.1838 46.5051 24.5736 46.5694 24.8759L46.5752 24.8872L46.5714 24.8816V24.8872L46.5675 24.8778C46.3776 24.6316 43.7444 20.7225 40.2131 19.9572C37.9579 19.4685 31.9394 20.8256 30.6185 21.1359L19.3071 35.8224C16.133 39.9438 16.1328 45.6126 19.3071 49.7338L32.8154 67.2682C34.7926 67.6178 40.7004 68.5858 42.7757 68.0264C46.2584 67.0871 49.7069 62.1624 49.8908 61.8968L49.8967 61.8855V61.8911L49.8947 61.8968C49.8464 62.2008 48.937 68.1077 50.8393 71.1063C51.6635 72.4055 53.8719 73.359 55.4962 73.9146H322.065C323.503 73.5875 327.448 72.566 328.688 70.8988C330.81 68.0453 330.348 62.093 330.322 61.7818V61.7686L330.326 61.7799C330.483 62.0471 333.554 67.2167 336.961 68.4036C338.768 69.0327 342.79 68.1828 344.779 67.6945L358.618 49.7338C361.792 45.6127 361.792 39.9437 358.618 35.8224L344.42 17.394C342.292 16.9204 339.126 16.3769 337.58 16.915C334.174 18.1019 331.102 23.2715 330.945 23.5387L330.941 23.55C330.941 23.55 330.941 23.5467 330.941 23.5425L330.939 23.5482L330.941 23.5368C330.967 23.2256 331.429 17.2733 329.308 14.4198C328.285 13.0451 325.423 12.1104 323.644 11.6398H53.4736C53.6312 11.6477 53.7203 11.6547 53.7271 11.6549Z" fill="#00053D"/>
<path d="M57.8506 14.8994L321.458 14.8994" stroke="url(#paint0_linear_585_8779)" stroke-width="1.09562" stroke-linejoin="bevel"/>
<path d="M318.587 70.3204L61.0083 70.3204" stroke="url(#paint1_linear_585_8779)" stroke-width="1.09562" stroke-linejoin="bevel"/>
<path d="M343.569 62.0501L355.118 48.2504C357.847 44.9886 357.841 40.2379 355.104 36.9831L344.003 23.7863" stroke="url(#paint2_linear_585_8779)" stroke-width="1.09562" stroke-linejoin="bevel"/>
<path d="M34.1902 61.1448L23.0938 48.3732C20.2236 45.0698 20.2298 40.1554 23.1083 36.8592L31.8366 26.8643" stroke="url(#paint3_linear_585_8779)" stroke-width="1.09562" stroke-linejoin="bevel"/>
<path d="M35.2247 62.0897C34.9479 62.9083 34.6712 63.727 34.3945 64.5456C34.6262 64.6011 34.8579 64.6567 35.0897 64.7122C36.9435 65.1565 38.7973 65.6008 40.6512 66.045L40.8827 66.1475L41.2311 65.9899C43.1891 64.6314 45.1472 63.273 47.1052 61.9146C47.301 61.7787 47.4968 61.6429 47.6926 61.5071C47.4755 61.6053 47.2584 61.7036 47.0413 61.8018C44.8702 62.7844 42.699 63.7669 40.5279 64.7495L41.1078 64.6943C39.3647 63.9226 37.6215 63.1508 35.8784 62.3791C35.6605 62.2827 35.4426 62.1862 35.2247 62.0897Z" fill="url(#paint4_linear_585_8779)"/>
<path d="M59.2218 70.0169C58.8103 70.7688 58.3988 71.5208 57.9873 72.2727C57.8207 72.1617 57.654 72.0507 57.4874 71.9397C56.1575 71.0538 54.8277 70.1679 53.4979 69.282L53.2635 69.1901L53.1318 68.812C52.9101 66.854 52.6883 64.896 52.4665 62.9379C52.4444 62.7425 52.4222 62.5471 52.4001 62.3517C52.465 62.538 52.5298 62.7242 52.5947 62.9104C53.2445 64.7766 53.8943 66.6428 54.5441 68.509L54.1781 68.039C55.6721 68.6249 57.1661 69.2107 58.6601 69.7966C58.8473 69.87 59.0346 69.9435 59.2218 70.0169Z" fill="url(#paint5_linear_585_8779)"/>
<path d="M33.1323 26.1081C32.7511 25.3307 32.3698 24.5533 31.9886 23.7759C32.2113 23.6922 32.434 23.6085 32.6566 23.5248C34.4378 22.8551 36.2189 22.1854 38 21.5157L38.2166 21.3853L38.5831 21.4988C40.7019 22.6044 42.8207 23.7101 44.9395 24.8157C45.1514 24.9263 45.3633 25.0368 45.5751 25.1474C45.347 25.0767 45.1188 25.006 44.8907 24.9354C42.6092 24.2287 40.3276 23.5221 38.046 22.8154L38.6291 22.7985C37.0005 23.7791 35.3718 24.7597 33.7431 25.7403C33.5395 25.8629 33.3359 25.9855 33.1323 26.1081Z" fill="url(#paint6_linear_585_8779)"/>
<path d="M55.8982 15.2834C55.3963 14.588 54.8945 13.8927 54.3927 13.1974C54.2416 13.3282 54.0905 13.4589 53.9395 13.5897C52.7348 14.6325 51.5301 15.6754 50.3254 16.7182L50.1026 16.8396L50.0206 17.2341C50.0551 19.2026 50.0896 21.1711 50.1241 23.1396C50.1275 23.3359 50.131 23.5323 50.1344 23.7286C50.1745 23.5359 50.2146 23.3431 50.2547 23.1503C50.6564 21.2176 51.0582 19.2849 51.46 17.3523L51.1553 17.8681C52.5601 17.1025 53.9649 16.3369 55.3697 15.5714C55.5459 15.4754 55.722 15.3794 55.8982 15.2834Z" fill="url(#paint7_linear_585_8779)"/>
<path d="M343.294 22.7222C343.56 21.9028 343.826 21.0835 344.093 20.2641C343.883 20.2178 343.674 20.1715 343.465 20.1251C342.058 19.8134 340.65 19.5017 339.243 19.19L338.929 19.0501L338.504 19.3173C336.772 20.9802 335.04 22.6432 333.309 24.3062C333.155 24.4537 333.001 24.6012 332.848 24.7487C333.028 24.6352 333.209 24.5218 333.389 24.4083C335.423 23.1293 337.457 21.8502 339.491 20.5711L338.753 20.6984C340.071 21.2857 341.388 21.873 342.706 22.4603C342.902 22.5476 343.098 22.6349 343.294 22.7222Z" fill="url(#paint8_linear_585_8779)"/>
<path d="M323.042 15.7841C323.472 15.044 323.903 14.3039 324.333 13.5639C324.486 13.6745 324.64 13.7851 324.793 13.8957C325.996 14.7622 327.199 15.6287 328.401 16.4952L328.584 16.5719L328.737 16.8983C329.122 18.7509 329.507 20.6035 329.892 22.4561C329.929 22.6384 329.967 22.8206 330.005 23.0029C329.926 22.8336 329.846 22.6643 329.767 22.4949C328.96 20.7738 328.153 19.0527 327.345 17.3315L327.681 17.7347C326.31 17.1581 324.939 16.5815 323.567 16.0049C323.392 15.9313 323.217 15.8577 323.042 15.7841Z" fill="url(#paint9_linear_585_8779)"/>
<path d="M342.604 62.7804C342.793 63.6215 342.983 64.4625 343.173 65.3036C342.964 65.3298 342.755 65.356 342.546 65.3822C341.183 65.553 339.82 65.7238 338.457 65.8946L338.18 65.9892L337.789 65.7537C336.027 64.1154 334.265 62.477 332.503 60.8387C332.349 60.696 332.196 60.5532 332.042 60.4105C332.042 60.4105 332.042 60.4105 332.042 60.4105C332.222 60.5187 332.402 60.6269 332.581 60.7352C334.644 61.9772 336.707 63.2193 338.769 64.4614L338.101 64.3204C339.403 63.8753 340.704 63.4302 342.005 62.9851C342.205 62.9169 342.404 62.8487 342.604 62.7804Z" fill="url(#paint10_linear_585_8779)"/>
<path d="M321.354 69.1654C321.574 69.9904 321.794 70.8153 322.014 71.6402C322.214 71.5656 322.413 71.491 322.613 71.4163C323.9 70.935 325.187 70.4537 326.475 69.9723L326.757 69.9276L327.002 69.5513C327.879 67.2945 328.755 65.0377 329.632 62.7809C329.708 62.5856 329.784 62.3902 329.86 62.1948C329.86 62.1948 329.86 62.1948 329.86 62.1948C329.745 62.3713 329.63 62.5478 329.515 62.7243C328.188 64.7629 326.86 66.8016 325.533 68.8402L326.06 68.4192C324.702 68.6346 323.344 68.8499 321.986 69.0652C321.775 69.0986 321.565 69.132 321.354 69.1654Z" fill="url(#paint11_linear_585_8779)"/>
<g clip-path="url(#clip0_585_8779)">
<path d="M110.073 37.545V34.1118C110.073 33.8083 109.953 33.5172 109.738 33.3026C109.523 33.088 109.232 32.9674 108.929 32.9674H94.0515C93.4445 32.9674 92.8623 33.2086 92.4331 33.6378C92.0038 34.067 91.7627 34.6492 91.7627 35.2562C91.7627 35.8633 92.0038 36.4454 92.4331 36.8746C92.8623 37.3039 93.4445 37.545 94.0515 37.545H111.217C111.521 37.545 111.812 37.6656 112.027 37.8802C112.241 38.0948 112.362 38.3859 112.362 38.6894V43.267M112.362 43.267H108.929C108.322 43.267 107.739 43.5082 107.31 43.9374C106.881 44.3666 106.64 44.9488 106.64 45.5558C106.64 46.1628 106.881 46.745 107.31 47.1742C107.739 47.6035 108.322 47.8446 108.929 47.8446H112.362C112.665 47.8446 112.956 47.724 113.171 47.5094C113.386 47.2948 113.506 47.0037 113.506 46.7002V44.4114C113.506 44.1079 113.386 43.8168 113.171 43.6022C112.956 43.3876 112.665 43.267 112.362 43.267Z" stroke="white" stroke-width="2.2888" stroke-linecap="round" stroke-linejoin="round"/>
<path d="M91.7627 35.2549V51.2764C91.7627 51.8835 92.0038 52.4656 92.4331 52.8949C92.8623 53.3241 93.4445 53.5652 94.0515 53.5652H111.217C111.521 53.5652 111.812 53.4447 112.027 53.23C112.241 53.0154 112.362 52.7243 112.362 52.4208V47.8432" stroke="white" stroke-width="2.2888" stroke-linecap="round" stroke-linejoin="round"/>
</g>
<path d="M138.389 41.3692H134.967C134.904 40.9265 134.777 40.5332 134.584 40.1895C134.391 39.8405 134.144 39.5436 133.842 39.2989C133.54 39.0541 133.191 38.8666 132.795 38.7364C132.404 38.6062 131.98 38.541 131.521 38.541C130.693 38.541 129.972 38.7468 129.357 39.1582C128.743 39.5645 128.266 40.1582 127.928 40.9395C127.589 41.7155 127.42 42.6582 127.42 43.7676C127.42 44.9082 127.589 45.8666 127.928 46.6426C128.271 47.4187 128.751 48.0046 129.365 48.4004C129.98 48.7963 130.691 48.9942 131.498 48.9942C131.951 48.9942 132.37 48.9343 132.756 48.8145C133.146 48.6947 133.493 48.5202 133.795 48.291C134.097 48.0567 134.347 47.7728 134.545 47.4395C134.748 47.1062 134.889 46.7259 134.967 46.2989L138.389 46.3145C138.3 47.0489 138.079 47.7572 137.725 48.4395C137.376 49.1166 136.904 49.7233 136.311 50.2598C135.722 50.791 135.019 51.2129 134.201 51.5254C133.389 51.8327 132.469 51.9864 131.443 51.9864C130.016 51.9864 128.74 51.6634 127.615 51.0176C126.495 50.3718 125.61 49.4369 124.959 48.2129C124.313 46.989 123.99 45.5072 123.99 43.7676C123.99 42.0228 124.318 40.5384 124.975 39.3145C125.631 38.0905 126.521 37.1582 127.646 36.5176C128.771 35.8718 130.037 35.5489 131.443 35.5489C132.37 35.5489 133.23 35.6791 134.021 35.9395C134.818 36.1999 135.524 36.5801 136.139 37.0801C136.753 37.5749 137.253 38.1817 137.639 38.9004C138.029 39.6192 138.279 40.4421 138.389 41.3692ZM146.174 52.002C144.96 52.002 143.911 51.7442 143.025 51.2285C142.145 50.7077 141.465 49.9838 140.986 49.0567C140.507 48.1244 140.268 47.0437 140.268 45.8145C140.268 44.5749 140.507 43.4916 140.986 42.5645C141.465 41.6322 142.145 40.9082 143.025 40.3926C143.911 39.8718 144.96 39.6114 146.174 39.6114C147.387 39.6114 148.434 39.8718 149.314 40.3926C150.2 40.9082 150.882 41.6322 151.361 42.5645C151.84 43.4916 152.08 44.5749 152.08 45.8145C152.08 47.0437 151.84 48.1244 151.361 49.0567C150.882 49.9838 150.2 50.7077 149.314 51.2285C148.434 51.7442 147.387 52.002 146.174 52.002ZM146.189 49.4239C146.742 49.4239 147.202 49.2676 147.572 48.9551C147.942 48.6374 148.221 48.2051 148.408 47.6582C148.601 47.1114 148.697 46.489 148.697 45.791C148.697 45.0931 148.601 44.4707 148.408 43.9239C148.221 43.377 147.942 42.9447 147.572 42.627C147.202 42.3093 146.742 42.1504 146.189 42.1504C145.632 42.1504 145.163 42.3093 144.783 42.627C144.408 42.9447 144.124 43.377 143.932 43.9239C143.744 44.4707 143.65 45.0931 143.65 45.791C143.65 46.489 143.744 47.1114 143.932 47.6582C144.124 48.2051 144.408 48.6374 144.783 48.9551C145.163 49.2676 145.632 49.4239 146.189 49.4239ZM157.572 44.8301V51.7676H154.244V39.7676H157.416V41.8848H157.557C157.822 41.1869 158.268 40.6348 158.893 40.2285C159.518 39.8171 160.275 39.6114 161.166 39.6114C161.999 39.6114 162.726 39.7937 163.346 40.1582C163.965 40.5228 164.447 41.0436 164.791 41.7207C165.135 42.3926 165.307 43.1947 165.307 44.127V51.7676H161.979V44.7207C161.984 43.9864 161.796 43.4134 161.416 43.002C161.036 42.5853 160.512 42.377 159.846 42.377C159.398 42.377 159.002 42.4733 158.658 42.666C158.32 42.8588 158.054 43.14 157.861 43.5098C157.674 43.8744 157.577 44.3145 157.572 44.8301ZM171.258 44.8301V51.7676H167.93V39.7676H171.102V41.8848H171.242C171.508 41.1869 171.953 40.6348 172.578 40.2285C173.203 39.8171 173.961 39.6114 174.852 39.6114C175.685 39.6114 176.411 39.7937 177.031 40.1582C177.651 40.5228 178.133 41.0436 178.477 41.7207C178.82 42.3926 178.992 43.1947 178.992 44.127V51.7676H175.664V44.7207C175.669 43.9864 175.482 43.4134 175.102 43.002C174.721 42.5853 174.198 42.377 173.531 42.377C173.083 42.377 172.688 42.4733 172.344 42.666C172.005 42.8588 171.74 43.14 171.547 43.5098C171.359 43.8744 171.263 44.3145 171.258 44.8301ZM187.084 52.002C185.85 52.002 184.787 51.752 183.896 51.252C183.011 50.7468 182.329 50.0332 181.85 49.1114C181.37 48.1843 181.131 47.0879 181.131 45.8223C181.131 44.5879 181.37 43.5046 181.85 42.5723C182.329 41.64 183.003 40.9134 183.873 40.3926C184.748 39.8718 185.774 39.6114 186.951 39.6114C187.743 39.6114 188.48 39.739 189.162 39.9942C189.85 40.2442 190.449 40.6218 190.959 41.127C191.475 41.6322 191.876 42.2676 192.162 43.0332C192.449 43.7936 192.592 44.6843 192.592 45.7051V46.6192H182.459V44.5567H189.459C189.459 44.0775 189.355 43.653 189.146 43.2832C188.938 42.9134 188.649 42.6244 188.279 42.416C187.915 42.2025 187.49 42.0957 187.006 42.0957C186.501 42.0957 186.053 42.2129 185.662 42.4473C185.277 42.6765 184.975 42.9864 184.756 43.377C184.537 43.7624 184.425 44.1921 184.42 44.666V46.627C184.42 47.2207 184.529 47.7338 184.748 48.166C184.972 48.5983 185.287 48.9317 185.693 49.166C186.1 49.4004 186.581 49.5176 187.139 49.5176C187.508 49.5176 187.847 49.4655 188.154 49.3614C188.462 49.2572 188.725 49.1009 188.943 48.8926C189.162 48.6843 189.329 48.4291 189.443 48.127L192.521 48.3301C192.365 49.0697 192.045 49.7155 191.561 50.2676C191.081 50.8145 190.462 51.2416 189.701 51.5489C188.946 51.8509 188.074 52.002 187.084 52.002ZM200.186 52.002C198.956 52.002 197.899 51.7416 197.014 51.2207C196.133 50.6947 195.456 49.9655 194.982 49.0332C194.514 48.1009 194.279 47.028 194.279 45.8145C194.279 44.5853 194.516 43.5072 194.99 42.5801C195.469 41.6478 196.149 40.9213 197.029 40.4004C197.91 39.8744 198.956 39.6114 200.17 39.6114C201.217 39.6114 202.133 39.8015 202.92 40.1817C203.706 40.5619 204.329 41.0957 204.787 41.7832C205.245 42.4707 205.498 43.278 205.545 44.2051H202.404C202.316 43.6061 202.081 43.1244 201.701 42.7598C201.326 42.39 200.834 42.2051 200.225 42.2051C199.709 42.2051 199.258 42.3457 198.873 42.627C198.493 42.903 198.196 43.3067 197.982 43.8379C197.769 44.3692 197.662 45.0124 197.662 45.7676C197.662 46.5332 197.766 47.1843 197.975 47.7207C198.188 48.2572 198.488 48.666 198.873 48.9473C199.258 49.2285 199.709 49.3692 200.225 49.3692C200.605 49.3692 200.946 49.291 201.248 49.1348C201.555 48.9785 201.808 48.752 202.006 48.4551C202.209 48.153 202.342 47.791 202.404 47.3692H205.545C205.493 48.2858 205.243 49.0931 204.795 49.791C204.352 50.4838 203.74 51.0254 202.959 51.416C202.178 51.8067 201.253 52.002 200.186 52.002ZM214.059 39.7676V42.2676H206.832V39.7676H214.059ZM208.473 36.8926H211.801V48.0801C211.801 48.3874 211.848 48.627 211.941 48.7989C212.035 48.9655 212.165 49.0827 212.332 49.1504C212.504 49.2181 212.702 49.252 212.926 49.252C213.082 49.252 213.238 49.239 213.395 49.2129C213.551 49.1817 213.671 49.1582 213.754 49.1426L214.277 51.6192C214.111 51.6713 213.876 51.7312 213.574 51.7989C213.272 51.8718 212.905 51.916 212.473 51.9317C211.671 51.9629 210.967 51.8562 210.363 51.6114C209.764 51.3666 209.298 50.9864 208.965 50.4707C208.632 49.9551 208.467 49.3041 208.473 48.5176V36.8926ZM224.982 51.7676L220.404 35.7676H224.1L226.748 46.8848H226.881L229.803 35.7676H232.967L235.881 46.9082H236.021L238.67 35.7676H242.365L237.787 51.7676H234.49L231.443 41.3067H231.318L228.279 51.7676H224.982ZM246.246 51.9942C245.48 51.9942 244.798 51.8614 244.199 51.5957C243.6 51.3249 243.126 50.9265 242.777 50.4004C242.434 49.8692 242.262 49.2077 242.262 48.416C242.262 47.7494 242.384 47.1895 242.629 46.7364C242.874 46.2832 243.207 45.9187 243.629 45.6426C244.051 45.3666 244.53 45.1582 245.066 45.0176C245.608 44.877 246.176 44.778 246.77 44.7207C247.467 44.6478 248.03 44.5801 248.457 44.5176C248.884 44.4499 249.194 44.3509 249.387 44.2207C249.579 44.0905 249.676 43.8978 249.676 43.6426V43.5957C249.676 43.1009 249.52 42.7181 249.207 42.4473C248.9 42.1765 248.462 42.041 247.895 42.041C247.296 42.041 246.819 42.1739 246.465 42.4395C246.111 42.6999 245.876 43.028 245.762 43.4239L242.684 43.1739C242.84 42.4447 243.147 41.8145 243.605 41.2832C244.064 40.7468 244.655 40.3353 245.379 40.0489C246.108 39.7572 246.952 39.6114 247.91 39.6114C248.577 39.6114 249.215 39.6895 249.824 39.8457C250.439 40.002 250.983 40.2442 251.457 40.5723C251.936 40.9004 252.314 41.3223 252.59 41.8379C252.866 42.3483 253.004 42.9603 253.004 43.6739V51.7676H249.848V50.1035H249.754C249.561 50.4785 249.303 50.8093 248.98 51.0957C248.658 51.377 248.27 51.5983 247.816 51.7598C247.363 51.916 246.84 51.9942 246.246 51.9942ZM247.199 49.6973C247.689 49.6973 248.121 49.6009 248.496 49.4082C248.871 49.2103 249.165 48.9447 249.379 48.6114C249.592 48.278 249.699 47.9004 249.699 47.4785V46.2051C249.595 46.2728 249.452 46.3353 249.27 46.3926C249.092 46.4447 248.892 46.4942 248.668 46.541C248.444 46.5827 248.22 46.6218 247.996 46.6582C247.772 46.6895 247.569 46.7181 247.387 46.7442C246.996 46.8015 246.655 46.8926 246.363 47.0176C246.072 47.1426 245.845 47.3119 245.684 47.5254C245.522 47.7338 245.441 47.9942 245.441 48.3067C245.441 48.7598 245.605 49.1062 245.934 49.3457C246.267 49.5801 246.689 49.6973 247.199 49.6973ZM258.914 35.7676V51.7676H255.586V35.7676H258.914ZM264.908 35.7676V51.7676H261.58V35.7676H264.908ZM273.043 52.002C271.809 52.002 270.746 51.752 269.855 51.252C268.97 50.7468 268.288 50.0332 267.809 49.1114C267.329 48.1843 267.09 47.0879 267.09 45.8223C267.09 44.5879 267.329 43.5046 267.809 42.5723C268.288 41.64 268.962 40.9134 269.832 40.3926C270.707 39.8718 271.733 39.6114 272.91 39.6114C273.702 39.6114 274.439 39.739 275.121 39.9942C275.809 40.2442 276.408 40.6218 276.918 41.127C277.434 41.6322 277.835 42.2676 278.121 43.0332C278.408 43.7936 278.551 44.6843 278.551 45.7051V46.6192H268.418V44.5567H275.418C275.418 44.0775 275.314 43.653 275.105 43.2832C274.897 42.9134 274.608 42.6244 274.238 42.416C273.874 42.2025 273.449 42.0957 272.965 42.0957C272.46 42.0957 272.012 42.2129 271.621 42.4473C271.236 42.6765 270.934 42.9864 270.715 43.377C270.496 43.7624 270.384 44.1921 270.379 44.666V46.627C270.379 47.2207 270.488 47.7338 270.707 48.166C270.931 48.5983 271.246 48.9317 271.652 49.166C272.059 49.4004 272.54 49.5176 273.098 49.5176C273.467 49.5176 273.806 49.4655 274.113 49.3614C274.421 49.2572 274.684 49.1009 274.902 48.8926C275.121 48.6843 275.288 48.4291 275.402 48.127L278.48 48.3301C278.324 49.0697 278.004 49.7155 277.52 50.2676C277.04 50.8145 276.421 51.2416 275.66 51.5489C274.905 51.8509 274.033 52.002 273.043 52.002ZM287.105 39.7676V42.2676H279.879V39.7676H287.105ZM281.52 36.8926H284.848V48.0801C284.848 48.3874 284.895 48.627 284.988 48.7989C285.082 48.9655 285.212 49.0827 285.379 49.1504C285.551 49.2181 285.749 49.252 285.973 49.252C286.129 49.252 286.285 49.239 286.441 49.2129C286.598 49.1817 286.717 49.1582 286.801 49.1426L287.324 51.6192C287.158 51.6713 286.923 51.7312 286.621 51.7989C286.319 51.8718 285.952 51.916 285.52 51.9317C284.717 51.9629 284.014 51.8562 283.41 51.6114C282.811 51.3666 282.345 50.9864 282.012 50.4707C281.678 49.9551 281.514 49.3041 281.52 48.5176V36.8926Z" fill="white"/>
</g>
<defs>
<filter id="filter0_d_585_8779" x="-4.1008e-05" y="2.86102e-06" width="377.924" height="95.9239" filterUnits="userSpaceOnUse" color-interpolation-filters="sRGB">
<feFlood flood-opacity="0" result="BackgroundImageFix"/>
<feColorMatrix in="SourceAlpha" type="matrix" values="0 0 0 0 0 0 0 0 0 0 0 0 0 0 0 0 0 0 127 0" result="hardAlpha"/>
<feOffset dy="5.18478"/>
<feGaussianBlur stdDeviation="6.48098"/>
<feComposite in2="hardAlpha" operator="out"/>
<feColorMatrix type="matrix" values="0 0 0 0 0 0 0 0 0 0 0 0 0 0 0 0 0 0 0.25 0"/>
<feBlend mode="normal" in2="BackgroundImageFix" result="effect1_dropShadow_585_8779"/>
<feBlend mode="normal" in="SourceGraphic" in2="effect1_dropShadow_585_8779" result="shape"/>
</filter>
<filter id="filter1_i_585_8779" x="12.9619" y="-2.59239" width="352" height="80.3696" filterUnits="userSpaceOnUse" color-interpolation-filters="sRGB">
<feFlood flood-opacity="0" result="BackgroundImageFix"/>
<feBlend mode="normal" in="SourceGraphic" in2="BackgroundImageFix" result="shape"/>
<feColorMatrix in="SourceAlpha" type="matrix" values="0 0 0 0 0 0 0 0 0 0 0 0 0 0 0 0 0 0 127 0" result="hardAlpha"/>
<feOffset dy="-10.3696"/>
<feGaussianBlur stdDeviation="6.48098"/>
<feComposite in2="hardAlpha" operator="arithmetic" k2="-1" k3="1"/>
<feColorMatrix type="matrix" values="0 0 0 0 0 0 0 0 0 0 0 0 0 0 0 0 0 0 0.25 0"/>
<feBlend mode="normal" in2="shape" result="effect1_innerShadow_585_8779"/>
</filter>
<linearGradient id="paint0_linear_585_8779" x1="321.458" y1="15.3994" x2="57.8506" y2="15.3994" gradientUnits="userSpaceOnUse">
<stop stop-color="#020C7B"/>
<stop offset="0.5" stop-color="#040825"/>
<stop offset="1" stop-color="#000D61"/>
</linearGradient>
<linearGradient id="paint1_linear_585_8779" x1="318.587" y1="70.8204" x2="61.0083" y2="70.8204" gradientUnits="userSpaceOnUse">
<stop stop-color="#020C7B"/>
<stop offset="0.5" stop-color="#040825"/>
<stop offset="1" stop-color="#000D61"/>
</linearGradient>
<linearGradient id="paint2_linear_585_8779" x1="359.837" y1="42.9182" x2="343.569" y2="42.9182" gradientUnits="userSpaceOnUse">
<stop stop-color="#020C7B"/>
<stop offset="0.5" stop-color="#040825"/>
<stop offset="1" stop-color="#000D61"/>
</linearGradient>
<linearGradient id="paint3_linear_585_8779" x1="34.1902" y1="44.0046" x2="18.0864" y2="44.0046" gradientUnits="userSpaceOnUse">
<stop stop-color="#020C7B"/>
<stop offset="0.5" stop-color="#040825"/>
<stop offset="1" stop-color="#000D61"/>
</linearGradient>
<linearGradient id="paint4_linear_585_8779" x1="47.6926" y1="63.4384" x2="34.8096" y2="63.4384" gradientUnits="userSpaceOnUse">
<stop stop-color="#020C7B"/>
<stop offset="0.5" stop-color="#040825"/>
<stop offset="1" stop-color="#000D61"/>
</linearGradient>
<linearGradient id="paint5_linear_585_8779" x1="51.1747" y1="63.4544" x2="58.3227" y2="71.3984" gradientUnits="userSpaceOnUse">
<stop stop-color="#020C7B"/>
<stop offset="0.5" stop-color="#040825"/>
<stop offset="1" stop-color="#000D61"/>
</linearGradient>
<linearGradient id="paint6_linear_585_8779" x1="45.324" y1="23.2316" x2="32.5557" y2="24.9055" gradientUnits="userSpaceOnUse">
<stop stop-color="#020C7B"/>
<stop offset="0.5" stop-color="#040825"/>
<stop offset="1" stop-color="#000D61"/>
</linearGradient>
<linearGradient id="paint7_linear_585_8779" x1="48.7755" y1="22.7862" x2="54.8461" y2="14.0328" gradientUnits="userSpaceOnUse">
<stop stop-color="#020C7B"/>
<stop offset="0.5" stop-color="#040825"/>
<stop offset="1" stop-color="#000D61"/>
</linearGradient>
<linearGradient id="paint8_linear_585_8779" x1="332.554" y1="22.8388" x2="343.638" y2="21.1328" gradientUnits="userSpaceOnUse">
<stop stop-color="#020C7B"/>
<stop offset="0.5" stop-color="#040825"/>
<stop offset="1" stop-color="#000D61"/>
</linearGradient>
<linearGradient id="paint9_linear_585_8779" x1="330.651" y1="22.563" x2="324.771" y2="13.9355" gradientUnits="userSpaceOnUse">
<stop stop-color="#020C7B"/>
<stop offset="0.5" stop-color="#040825"/>
<stop offset="1" stop-color="#000D61"/>
</linearGradient>
<linearGradient id="paint10_linear_585_8779" x1="331.783" y1="62.3252" x2="342.917" y2="63.8313" gradientUnits="userSpaceOnUse">
<stop stop-color="#020C7B"/>
<stop offset="0.5" stop-color="#040825"/>
<stop offset="1" stop-color="#000D61"/>
</linearGradient>
<linearGradient id="paint11_linear_585_8779" x1="330.644" y1="62.708" x2="324.831" y2="71.5697" gradientUnits="userSpaceOnUse">
<stop stop-color="#020C7B"/>
<stop offset="0.5" stop-color="#040825"/>
<stop offset="1" stop-color="#000D61"/>
</linearGradient>
<clipPath id="clip0_585_8779">
<rect width="24.7012" height="24.7012" fill="white" transform="translate(89.7119 30.917)"/>
</clipPath>
</defs>
</svg>
