<svg width="207" height="72" viewBox="0 0 207 72" fill="none" xmlns="http://www.w3.org/2000/svg">
<g filter="url(#filter0_d_431_5468)">
<g filter="url(#filter1_i_431_5468)">
<path d="M178.065 7.77716C180.63 7.77726 183.046 9.28041 184.586 11.8349L192.33 24.6825C194.506 28.2937 194.506 33.262 192.329 36.8731L184.586 49.7194L184.287 50.1854C182.847 52.3042 180.77 53.5968 178.544 53.7598L178.066 53.7772H28.8586C26.454 53.7771 24.1808 52.4554 22.6372 50.1854L22.3386 49.7194L14.5944 36.8731C12.4177 33.2619 12.4178 28.2937 14.5944 24.6825L17.6559 19.6022C18.1931 18.5017 18.8148 17.4739 19.5081 16.5297L22.3386 11.8349C23.8785 9.28063 26.2938 7.77731 28.8586 7.77716H178.065Z" fill="url(#paint0_linear_431_5468)"/>
</g>
<g filter="url(#filter2_i_431_5468)">
<path fill-rule="evenodd" clip-rule="evenodd" d="M178.065 7.77716C180.63 7.77718 183.046 9.28034 184.586 11.8349L192.33 24.6825C194.506 28.2937 194.506 33.262 192.329 36.8731L184.586 49.7194L184.287 50.1854C182.847 52.3042 180.77 53.5969 178.544 53.7598L178.066 53.7772H28.8586C26.4539 53.7771 24.1808 52.4554 22.6372 50.1854L22.3386 49.7194L14.5944 36.8731C12.4177 33.2619 12.4178 28.2937 14.5944 24.6825L22.3386 11.8349C23.8784 9.28053 26.2937 7.77731 28.8586 7.77716H178.065ZM33.9236 10.3253C33.9001 10.3395 31.5013 11.7899 30.8601 13.2429C29.9645 15.2729 30.21 18.8148 30.2431 19.0135L30.246 19.0209L30.244 19.0172V19.0209L30.2421 19.0147C30.1444 18.853 28.7904 16.2841 26.9746 15.7811C25.815 15.46 22.7202 16.3518 22.041 16.5558L16.2247 26.2069C14.5925 28.9152 14.5924 32.6404 16.2247 35.3487L23.1707 46.8713C24.1874 47.101 27.2252 47.7371 28.2923 47.3695C30.0831 46.7522 31.8564 43.516 31.9509 43.3415L31.9539 43.334V43.3378L31.9529 43.3415C31.9281 43.5413 31.4605 47.4229 32.4386 49.3934C32.8625 50.2472 33.998 50.8738 34.8332 51.2389H171.904C172.644 51.0239 174.672 50.3527 175.31 49.2571C176.401 47.382 176.163 43.4704 176.15 43.2659V43.2572L176.152 43.2646C176.233 43.4403 177.812 46.8374 179.564 47.6174C180.493 48.0308 182.561 47.4723 183.584 47.1514L190.7 35.3487C192.332 32.6405 192.332 28.9152 190.7 26.2069L183.399 14.0968C182.305 13.7856 180.677 13.4284 179.882 13.782C178.13 14.562 176.551 17.9591 176.47 18.1348L176.468 18.1422C176.468 18.1422 176.468 18.14 176.468 18.1372L176.467 18.1409L176.468 18.1335C176.482 17.929 176.719 14.0174 175.628 12.1423C175.103 11.2389 173.631 10.6247 172.716 10.3154H33.7932C33.8743 10.3207 33.92 10.3252 33.9236 10.3253Z" fill="#00053D"/>
</g>
<path d="M36.0435 12.4575L171.591 12.4575" stroke="url(#paint1_linear_431_5468)" stroke-width="1.09562" stroke-linejoin="bevel"/>
<path d="M170.116 48.877L37.6675 48.877" stroke="url(#paint2_linear_431_5468)" stroke-width="1.09562" stroke-linejoin="bevel"/>
<path d="M182.961 43.4423L188.174 35.4819C190.088 32.5593 190.084 28.7793 188.163 25.8612L183.184 18.2975" stroke="url(#paint3_linear_431_5468)" stroke-width="1.09562" stroke-linejoin="bevel"/>
<path d="M23.8773 42.8473L18.9555 35.6077C16.9292 32.6273 16.9339 28.7103 18.9672 25.7347L22.6671 20.3201" stroke="url(#paint4_linear_431_5468)" stroke-width="1.09562" stroke-linejoin="bevel"/>
<path d="M24.7099 43.0853C24.3672 43.8786 24.0244 44.6718 23.6817 45.4651C23.8085 45.4963 23.9353 45.5276 24.0621 45.5588C25.0511 45.8025 26.0401 46.0462 27.0291 46.2899L27.2704 46.4459L27.7428 46.2114C28.677 45.2624 29.6113 44.3135 30.5455 43.3645C30.6371 43.2715 30.7287 43.1784 30.8203 43.0854C30.7034 43.1434 30.5864 43.2015 30.4695 43.2596C29.2767 43.8517 28.0839 44.4438 26.8911 45.0359L27.6048 44.9574C26.7495 44.4043 25.8941 43.8511 25.0388 43.298C24.9292 43.2271 24.8195 43.1562 24.7099 43.0853Z" fill="url(#paint5_linear_431_5468)"/>
<path d="M36.987 48.1569C36.6165 48.9981 36.246 49.8394 35.8755 50.6806C35.7939 50.5991 35.7123 50.5175 35.6307 50.436C34.9786 49.7842 34.3265 49.1324 33.6744 48.4807L33.5169 48.4185L33.3629 47.9689C33.3259 46.6572 33.289 45.3454 33.252 44.0337C33.2483 43.9026 33.2446 43.7715 33.2409 43.6404C33.282 43.7605 33.323 43.8805 33.3641 44.0005C33.7753 45.2015 34.1864 46.4025 34.5975 47.6035L34.2861 47.0918C35.0863 47.4073 35.8865 47.7229 36.6866 48.0385C36.7868 48.0779 36.8869 48.1174 36.987 48.1569Z" fill="url(#paint6_linear_431_5468)"/>
<path d="M23.6652 20.1617C23.2478 19.4251 22.8304 18.6886 22.4129 17.9521C22.5353 17.9013 22.6578 17.8504 22.7802 17.7996C23.7359 17.4026 24.6917 17.0056 25.6475 16.6086L25.8682 16.418L26.3561 16.5745C27.3806 17.369 28.4052 18.1635 29.4297 18.958C29.5302 19.0359 29.6308 19.1139 29.7313 19.1918C29.6094 19.1527 29.4876 19.1136 29.3657 19.0745C28.1237 18.6761 26.8817 18.2776 25.6397 17.8791L26.3483 17.845C25.5555 18.5296 24.7627 19.2141 23.9699 19.8986C23.8683 19.9863 23.7668 20.074 23.6652 20.1617Z" fill="url(#paint7_linear_431_5468)"/>
<path d="M35.3776 13.1887C34.8942 12.4125 34.4108 11.6363 33.9274 10.8602C33.8558 10.9536 33.7843 11.0471 33.7128 11.1406C33.1384 11.891 32.564 12.6415 31.9896 13.3919L31.853 13.47L31.7515 13.9102C31.8497 15.2278 31.948 16.5455 32.0463 17.8631C32.0561 17.9953 32.066 18.1274 32.0758 18.2596C32.1046 18.1347 32.1334 18.0099 32.1622 17.885C32.4492 16.6403 32.7363 15.3956 33.0233 14.1509L32.7851 14.6691C33.5536 14.2303 34.3221 13.7915 35.0905 13.3526C35.1862 13.298 35.2819 13.2433 35.3776 13.1887Z" fill="url(#paint8_linear_431_5468)"/>
<path d="M182.473 18.0046C182.841 17.1952 183.209 16.3858 183.577 15.5764C183.463 15.5524 183.349 15.5284 183.235 15.5045C182.473 15.3444 181.712 15.1844 180.951 15.0244L180.641 14.816L180.075 15.2137C179.271 16.3519 178.466 17.4901 177.661 18.6284C177.59 18.7289 177.519 18.8294 177.448 18.9299C177.548 18.8596 177.648 18.7893 177.748 18.7191C178.881 17.9232 180.013 17.1274 181.146 16.3316L180.27 16.5209C180.909 16.951 181.548 17.3811 182.186 17.8113C182.282 17.8757 182.378 17.9401 182.473 18.0046Z" fill="url(#paint9_linear_431_5468)"/>
<path d="M172.095 13.5409C172.523 12.7199 172.952 11.8988 173.381 11.0777C173.455 11.1591 173.529 11.2404 173.603 11.3217C174.181 11.9556 174.759 12.5896 175.337 13.2235L175.435 13.265L175.6 13.6271C175.717 14.8886 175.835 16.1501 175.952 17.4117C175.963 17.5353 175.975 17.659 175.986 17.7826C175.986 17.7826 175.986 17.7826 175.986 17.7826C175.938 17.676 175.889 17.5694 175.841 17.4628C175.345 16.3751 174.849 15.2874 174.353 14.1997L174.616 14.6033C173.871 14.2894 173.126 13.9755 172.381 13.6617C172.286 13.6214 172.19 13.5812 172.095 13.5409Z" fill="url(#paint10_linear_431_5468)"/>
<path d="M182.19 43.4955C182.471 44.3326 182.752 45.1697 183.032 46.0068C182.918 46.0176 182.804 46.0283 182.69 46.0391C181.962 46.1076 181.235 46.1761 180.507 46.2445L180.231 46.3897L179.699 46.0351C178.881 44.9085 178.063 43.7819 177.245 42.6553C177.175 42.5584 177.104 42.4616 177.034 42.3648C177.133 42.4308 177.232 42.4968 177.331 42.5629C178.481 43.3311 179.632 44.0994 180.783 44.8677L179.975 44.6582C180.613 44.3233 181.251 43.9883 181.889 43.6533C181.989 43.6007 182.09 43.5481 182.19 43.4955Z" fill="url(#paint11_linear_431_5468)"/>
<path d="M171.317 47.5688C171.578 48.477 171.838 49.3853 172.099 50.2935C172.2 50.2345 172.302 50.1755 172.403 50.1165C173.04 49.7458 173.677 49.3751 174.314 49.0044L174.493 48.983L174.739 48.5778C175.099 47.0297 175.459 45.4817 175.82 43.9336C175.851 43.8015 175.881 43.6694 175.912 43.5373C175.912 43.5373 175.912 43.5373 175.912 43.5373C175.846 43.6464 175.78 43.7554 175.714 43.8644C174.94 45.1423 174.165 46.4202 173.391 47.6981L173.816 47.2715C173.097 47.357 172.379 47.4425 171.66 47.5279C171.546 47.5415 171.431 47.5552 171.317 47.5688Z" fill="url(#paint12_linear_431_5468)"/>
<g clip-path="url(#clip0_431_5468)">
<g clip-path="url(#clip1_431_5468)">
<path d="M54.0453 27.3512V25.0016C54.0453 24.7939 53.9628 24.5947 53.8159 24.4478C53.669 24.301 53.4698 24.2184 53.2621 24.2184H43.0805C42.6651 24.2184 42.2667 24.3835 41.9729 24.6772C41.6792 24.971 41.5142 25.3694 41.5142 25.7848C41.5142 26.2003 41.6792 26.5987 41.9729 26.8924C42.2667 27.1862 42.6651 27.3512 43.0805 27.3512H54.8285C55.0362 27.3512 55.2354 27.4337 55.3823 27.5806C55.5292 27.7275 55.6117 27.9267 55.6117 28.1344V31.2672M55.6117 31.2672H53.2621C52.8467 31.2672 52.4482 31.4322 52.1545 31.726C51.8607 32.0197 51.6957 32.4182 51.6957 32.8336C51.6957 33.249 51.8607 33.6474 52.1545 33.9412C52.4482 34.2349 52.8467 34.4 53.2621 34.4H55.6117C55.8194 34.4 56.0186 34.3175 56.1655 34.1706C56.3123 34.0237 56.3949 33.8245 56.3949 33.6168V32.0504C56.3949 31.8427 56.3123 31.6435 56.1655 31.4966C56.0186 31.3497 55.8194 31.2672 55.6117 31.2672Z" stroke="white" stroke-width="1.56639" stroke-linecap="round" stroke-linejoin="round"/>
<path d="M41.5142 25.7839V36.7487C41.5142 37.1641 41.6792 37.5625 41.9729 37.8563C42.2667 38.15 42.6651 38.3151 43.0805 38.3151H54.8285C55.0362 38.3151 55.2354 38.2325 55.3823 38.0857C55.5292 37.9388 55.6117 37.7396 55.6117 37.5319V34.3991" stroke="white" stroke-width="1.56639" stroke-linecap="round" stroke-linejoin="round"/>
</g>
</g>
<path d="M72.0522 29.6021H69.8587C69.8187 29.3184 69.7369 29.0663 69.6133 28.8459C69.4898 28.6223 69.3312 28.432 69.1376 28.2751C68.944 28.1181 68.7203 27.9979 68.4666 27.9145C68.2162 27.831 67.9441 27.7893 67.6503 27.7893C67.1194 27.7893 66.657 27.9212 66.2631 28.1849C65.8691 28.4453 65.5637 28.8259 65.3467 29.3267C65.1297 29.8241 65.0212 30.4284 65.0212 31.1395C65.0212 31.8707 65.1297 32.485 65.3467 32.9824C65.567 33.4799 65.8742 33.8555 66.2681 34.1092C66.6621 34.3629 67.1178 34.4898 67.6352 34.4898C67.9257 34.4898 68.1945 34.4514 68.4415 34.3746C68.6919 34.2978 68.9139 34.186 69.1076 34.0391C69.3012 33.8888 69.4614 33.7069 69.5883 33.4932C69.7185 33.2796 69.8087 33.0358 69.8587 32.7621L72.0522 32.7721C71.9954 33.2428 71.8535 33.6969 71.6265 34.1342C71.4028 34.5682 71.1007 34.9572 70.7201 35.3011C70.3428 35.6416 69.8921 35.912 69.368 36.1123C68.8471 36.3093 68.2579 36.4078 67.6002 36.4078C66.6854 36.4078 65.8675 36.2008 65.1463 35.7868C64.4286 35.3728 63.861 34.7736 63.4437 33.989C63.0297 33.2044 62.8227 32.2546 62.8227 31.1395C62.8227 30.0211 63.033 29.0696 63.4537 28.2851C63.8744 27.5005 64.4452 26.9029 65.1664 26.4923C65.8875 26.0783 66.6988 25.8713 67.6002 25.8713C68.1945 25.8713 68.7453 25.9547 69.2528 26.1217C69.7636 26.2886 70.216 26.5323 70.6099 26.8528C71.0039 27.17 71.3244 27.5589 71.5714 28.0197C71.8218 28.4804 71.9821 29.0079 72.0522 29.6021ZM77.0425 36.4178C76.2646 36.4178 75.5919 36.2526 75.0243 35.922C74.4601 35.5882 74.0244 35.1241 73.7173 34.5299C73.4101 33.9323 73.2566 33.2395 73.2566 32.4516C73.2566 31.657 73.4101 30.9626 73.7173 30.3683C74.0244 29.7707 74.4601 29.3067 75.0243 28.9761C75.5919 28.6423 76.2646 28.4754 77.0425 28.4754C77.8204 28.4754 78.4914 28.6423 79.0556 28.9761C79.6232 29.3067 80.0606 29.7707 80.3677 30.3683C80.6749 30.9626 80.8284 31.657 80.8284 32.4516C80.8284 33.2395 80.6749 33.9323 80.3677 34.5299C80.0606 35.1241 79.6232 35.5882 79.0556 35.922C78.4914 36.2526 77.8204 36.4178 77.0425 36.4178ZM77.0525 34.7652C77.4064 34.7652 77.7019 34.6651 77.9389 34.4648C78.1759 34.2611 78.3545 33.984 78.4747 33.6334C78.5983 33.2829 78.66 32.8839 78.66 32.4366C78.66 31.9892 78.5983 31.5902 78.4747 31.2397C78.3545 30.8891 78.1759 30.612 77.9389 30.4084C77.7019 30.2047 77.4064 30.1029 77.0525 30.1029C76.6953 30.1029 76.3948 30.2047 76.1511 30.4084C75.9107 30.612 75.7288 30.8891 75.6052 31.2397C75.4851 31.5902 75.425 31.9892 75.425 32.4366C75.425 32.8839 75.4851 33.2829 75.6052 33.6334C75.7288 33.984 75.9107 34.2611 76.1511 34.4648C76.3948 34.6651 76.6953 34.7652 77.0525 34.7652ZM84.3489 31.8206V36.2676H82.2156V28.5755H84.2488V29.9326H84.3389C84.5092 29.4853 84.7946 29.1314 85.1953 28.871C85.5959 28.6072 86.0817 28.4754 86.6526 28.4754C87.1867 28.4754 87.6525 28.5922 88.0497 28.8259C88.447 29.0596 88.7559 29.3935 88.9762 29.8275C89.1965 30.2582 89.3067 30.7723 89.3067 31.3699V36.2676H87.1734V31.7505C87.1767 31.2798 87.0565 30.9125 86.8128 30.6488C86.5691 30.3817 86.2336 30.2481 85.8062 30.2481C85.5191 30.2481 85.2654 30.3099 85.045 30.4334C84.828 30.557 84.6578 30.7372 84.5342 30.9743C84.414 31.208 84.3523 31.4901 84.3489 31.8206ZM93.1214 31.8206V36.2676H90.9881V28.5755H93.0213V29.9326H93.1114C93.2817 29.4853 93.5671 29.1314 93.9678 28.871C94.3684 28.6072 94.8542 28.4754 95.4251 28.4754C95.9592 28.4754 96.425 28.5922 96.8222 28.8259C97.2195 29.0596 97.5284 29.3935 97.7487 29.8275C97.969 30.2582 98.0792 30.7723 98.0792 31.3699V36.2676H95.9459V31.7505C95.9492 31.2798 95.829 30.9125 95.5853 30.6488C95.3416 30.3817 95.0061 30.2481 94.5787 30.2481C94.2916 30.2481 94.0379 30.3099 93.8175 30.4334C93.6005 30.557 93.4303 30.7372 93.3067 30.9743C93.1865 31.208 93.1248 31.4901 93.1214 31.8206ZM103.266 36.4178C102.475 36.4178 101.794 36.2576 101.223 35.9371C100.655 35.6132 100.218 35.1558 99.9108 34.5649C99.6037 33.9706 99.4501 33.2679 99.4501 32.4566C99.4501 31.6654 99.6037 30.9709 99.9108 30.3733C100.218 29.7757 100.65 29.31 101.208 28.9761C101.769 28.6423 102.426 28.4754 103.181 28.4754C103.688 28.4754 104.161 28.5572 104.598 28.7207C105.039 28.881 105.423 29.123 105.75 29.4469C106.081 29.7707 106.338 30.178 106.521 30.6688C106.705 31.1562 106.797 31.7271 106.797 32.3815V32.9674H100.301V31.6453H104.788C104.788 31.3382 104.722 31.0661 104.588 30.8291C104.455 30.592 104.269 30.4067 104.032 30.2732C103.799 30.1363 103.527 30.0679 103.216 30.0679C102.892 30.0679 102.605 30.143 102.355 30.2932C102.108 30.4401 101.914 30.6388 101.774 30.8891C101.634 31.1362 101.562 31.4116 101.558 31.7154V32.9724C101.558 33.353 101.629 33.6819 101.769 33.959C101.912 34.2361 102.114 34.4497 102.375 34.6C102.635 34.7502 102.944 34.8253 103.301 34.8253C103.538 34.8253 103.755 34.7919 103.952 34.7252C104.149 34.6584 104.318 34.5582 104.458 34.4247C104.598 34.2911 104.705 34.1276 104.778 33.9339L106.752 34.0641C106.651 34.5382 106.446 34.9522 106.136 35.3061C105.828 35.6566 105.431 35.9304 104.944 36.1274C104.46 36.321 103.9 36.4178 103.266 36.4178ZM111.664 36.4178C110.876 36.4178 110.199 36.2509 109.631 35.917C109.067 35.5798 108.633 35.1124 108.329 34.5148C108.029 33.9172 107.878 33.2295 107.878 32.4516C107.878 31.6637 108.03 30.9726 108.334 30.3783C108.641 29.7807 109.077 29.315 109.641 28.9812C110.205 28.644 110.876 28.4754 111.654 28.4754C112.325 28.4754 112.913 28.5972 113.417 28.8409C113.921 29.0847 114.32 29.4269 114.614 29.8675C114.908 30.3082 115.07 30.8257 115.1 31.42H113.086C113.03 31.036 112.879 30.7272 112.636 30.4935C112.395 30.2565 112.08 30.138 111.689 30.138C111.359 30.138 111.07 30.2281 110.823 30.4084C110.579 30.5853 110.389 30.8441 110.252 31.1846C110.115 31.5251 110.047 31.9375 110.047 32.4215C110.047 32.9123 110.113 33.3296 110.247 33.6735C110.384 34.0174 110.576 34.2795 110.823 34.4597C111.07 34.64 111.359 34.7302 111.689 34.7302C111.933 34.7302 112.152 34.6801 112.345 34.5799C112.542 34.4798 112.704 34.3345 112.831 34.1443C112.961 33.9506 113.046 33.7186 113.086 33.4482H115.1C115.066 34.0357 114.906 34.5532 114.619 35.0006C114.335 35.4446 113.943 35.7918 113.442 36.0422C112.941 36.2926 112.349 36.4178 111.664 36.4178ZM120.557 28.5755V30.178H115.925V28.5755H120.557ZM116.976 26.7326H119.11V33.9039C119.11 34.1008 119.14 34.2544 119.2 34.3646C119.26 34.4714 119.343 34.5465 119.45 34.5899C119.56 34.6333 119.687 34.6551 119.831 34.6551C119.931 34.6551 120.031 34.6467 120.131 34.63C120.231 34.61 120.308 34.595 120.362 34.5849L120.697 36.1724C120.59 36.2058 120.44 36.2442 120.246 36.2876C120.053 36.3343 119.817 36.3627 119.54 36.3727C119.026 36.3928 118.576 36.3243 118.188 36.1674C117.804 36.0105 117.505 35.7668 117.292 35.4363C117.078 35.1058 116.973 34.6884 116.976 34.1843V26.7326ZM127.559 36.2676L124.625 26.0115H126.993L128.691 33.1377H128.776L130.649 26.0115H132.677L134.545 33.1527H134.635L136.333 26.0115H138.702L135.767 36.2676H133.654L131.701 29.5621H131.621L129.672 36.2676H127.559ZM141.189 36.4128C140.699 36.4128 140.261 36.3277 139.877 36.1574C139.493 35.9838 139.189 35.7284 138.966 35.3912C138.745 35.0507 138.635 34.6267 138.635 34.1192C138.635 33.6919 138.714 33.333 138.871 33.0425C139.028 32.7521 139.241 32.5184 139.512 32.3414C139.782 32.1645 140.089 32.0309 140.433 31.9408C140.78 31.8507 141.144 31.7872 141.525 31.7505C141.972 31.7038 142.333 31.6604 142.607 31.6203C142.88 31.5769 143.079 31.5135 143.202 31.43C143.326 31.3465 143.388 31.223 143.388 31.0594V31.0294C143.388 30.7122 143.288 30.4668 143.087 30.2932C142.89 30.1196 142.61 30.0328 142.246 30.0328C141.862 30.0328 141.557 30.1179 141.33 30.2882C141.102 30.4551 140.952 30.6655 140.879 30.9192L138.906 30.7589C139.006 30.2915 139.203 29.8876 139.497 29.547C139.79 29.2032 140.169 28.9394 140.633 28.7558C141.101 28.5688 141.642 28.4754 142.256 28.4754C142.683 28.4754 143.092 28.5254 143.483 28.6256C143.877 28.7258 144.226 28.881 144.53 29.0913C144.837 29.3017 145.079 29.5721 145.256 29.9026C145.433 30.2298 145.521 30.6221 145.521 31.0794V36.2676H143.498V35.2009H143.438C143.314 35.4413 143.149 35.6533 142.942 35.8369C142.735 36.0172 142.486 36.1591 142.196 36.2626C141.905 36.3627 141.57 36.4128 141.189 36.4128ZM141.8 34.9405C142.114 34.9405 142.391 34.8787 142.632 34.7552C142.872 34.6283 143.061 34.4581 143.197 34.2444C143.334 34.0307 143.403 33.7887 143.403 33.5183V32.702C143.336 32.7454 143.244 32.7855 143.127 32.8222C143.014 32.8556 142.885 32.8873 142.742 32.9173C142.598 32.944 142.455 32.9691 142.311 32.9924C142.167 33.0125 142.037 33.0308 141.92 33.0475C141.67 33.0843 141.451 33.1427 141.264 33.2228C141.077 33.3029 140.932 33.4114 140.829 33.5483C140.725 33.6819 140.673 33.8488 140.673 34.0491C140.673 34.3396 140.779 34.5616 140.989 34.7151C141.203 34.8654 141.473 34.9405 141.8 34.9405ZM149.31 26.0115V36.2676H147.176V26.0115H149.31ZM153.152 26.0115V36.2676H151.018V26.0115H153.152ZM158.366 36.4178C157.575 36.4178 156.894 36.2576 156.323 35.9371C155.755 35.6132 155.318 35.1558 155.011 34.5649C154.704 33.9706 154.55 33.2679 154.55 32.4566C154.55 31.6654 154.704 30.9709 155.011 30.3733C155.318 29.7757 155.75 29.31 156.308 28.9761C156.869 28.6423 157.527 28.4754 158.281 28.4754C158.789 28.4754 159.261 28.5572 159.698 28.7207C160.139 28.881 160.523 29.123 160.85 29.4469C161.181 29.7707 161.438 30.178 161.621 30.6688C161.805 31.1562 161.897 31.7271 161.897 32.3815V32.9674H155.402V31.6453H159.889C159.889 31.3382 159.822 31.0661 159.688 30.8291C159.555 30.592 159.369 30.4067 159.132 30.2732C158.899 30.1363 158.627 30.0679 158.316 30.0679C157.992 30.0679 157.705 30.143 157.455 30.2932C157.208 30.4401 157.014 30.6388 156.874 30.8891C156.734 31.1362 156.662 31.4116 156.659 31.7154V32.9724C156.659 33.353 156.729 33.6819 156.869 33.959C157.012 34.2361 157.214 34.4497 157.475 34.6C157.735 34.7502 158.044 34.8253 158.401 34.8253C158.638 34.8253 158.855 34.7919 159.052 34.7252C159.249 34.6584 159.418 34.5582 159.558 34.4247C159.698 34.2911 159.805 34.1276 159.879 33.9339L161.852 34.0641C161.752 34.5382 161.546 34.9522 161.236 35.3061C160.929 35.6566 160.531 35.9304 160.044 36.1274C159.56 36.321 159.001 36.4178 158.366 36.4178ZM167.38 28.5755V30.178H162.748V28.5755H167.38ZM163.8 26.7326H165.933V33.9039C165.933 34.1008 165.963 34.2544 166.023 34.3646C166.083 34.4714 166.167 34.5465 166.274 34.5899C166.384 34.6333 166.511 34.6551 166.654 34.6551C166.754 34.6551 166.855 34.6467 166.955 34.63C167.055 34.61 167.132 34.595 167.185 34.5849L167.521 36.1724C167.414 36.2058 167.263 36.2442 167.07 36.2876C166.876 36.3343 166.641 36.3627 166.364 36.3727C165.85 36.3928 165.399 36.3243 165.012 36.1674C164.628 36.0105 164.329 35.7668 164.115 35.4363C163.902 35.1058 163.796 34.6884 163.8 34.1843V26.7326Z" fill="white"/>
</g>
<defs>
<filter id="filter0_d_431_5468" x="-4.1008e-05" y="-1.23978e-05" width="206.924" height="71.9239" filterUnits="userSpaceOnUse" color-interpolation-filters="sRGB">
<feFlood flood-opacity="0" result="BackgroundImageFix"/>
<feColorMatrix in="SourceAlpha" type="matrix" values="0 0 0 0 0 0 0 0 0 0 0 0 0 0 0 0 0 0 127 0" result="hardAlpha"/>
<feOffset dy="5.18478"/>
<feGaussianBlur stdDeviation="6.48098"/>
<feComposite in2="hardAlpha" operator="out"/>
<feColorMatrix type="matrix" values="0 0 0 0 0 0 0 0 0 0 0 0 0 0 0 0 0 0 0.25 0"/>
<feBlend mode="normal" in2="BackgroundImageFix" result="effect1_dropShadow_431_5468"/>
<feBlend mode="normal" in="SourceGraphic" in2="effect1_dropShadow_431_5468" result="shape"/>
</filter>
<filter id="filter1_i_431_5468" x="12.9619" y="-2.5924" width="181" height="56.3696" filterUnits="userSpaceOnUse" color-interpolation-filters="sRGB">
<feFlood flood-opacity="0" result="BackgroundImageFix"/>
<feBlend mode="normal" in="SourceGraphic" in2="BackgroundImageFix" result="shape"/>
<feColorMatrix in="SourceAlpha" type="matrix" values="0 0 0 0 0 0 0 0 0 0 0 0 0 0 0 0 0 0 127 0" result="hardAlpha"/>
<feOffset dy="-10.3696"/>
<feGaussianBlur stdDeviation="6.48098"/>
<feComposite in2="hardAlpha" operator="arithmetic" k2="-1" k3="1"/>
<feColorMatrix type="matrix" values="0 0 0 0 0 0 0 0 0 0 0 0 0 0 0 0 0 0 0.25 0"/>
<feBlend mode="normal" in2="shape" result="effect1_innerShadow_431_5468"/>
</filter>
<filter id="filter2_i_431_5468" x="12.9619" y="7.77716" width="186.185" height="51.1848" filterUnits="userSpaceOnUse" color-interpolation-filters="sRGB">
<feFlood flood-opacity="0" result="BackgroundImageFix"/>
<feBlend mode="normal" in="SourceGraphic" in2="BackgroundImageFix" result="shape"/>
<feColorMatrix in="SourceAlpha" type="matrix" values="0 0 0 0 0 0 0 0 0 0 0 0 0 0 0 0 0 0 127 0" result="hardAlpha"/>
<feOffset dx="5.18478" dy="5.18478"/>
<feGaussianBlur stdDeviation="2.59239"/>
<feComposite in2="hardAlpha" operator="arithmetic" k2="-1" k3="1"/>
<feColorMatrix type="matrix" values="0 0 0 0 0 0 0 0 0 0 0 0 0 0 0 0 0 0 0.25 0"/>
<feBlend mode="normal" in2="shape" result="effect1_innerShadow_431_5468"/>
</filter>
<linearGradient id="paint0_linear_431_5468" x1="103.462" y1="7.77716" x2="103.462" y2="53.7772" gradientUnits="userSpaceOnUse">
<stop stop-color="#0144BD"/>
<stop offset="1" stop-color="#192871"/>
</linearGradient>
<linearGradient id="paint1_linear_431_5468" x1="171.591" y1="12.9575" x2="36.0435" y2="12.9575" gradientUnits="userSpaceOnUse">
<stop stop-color="#020C7B"/>
<stop offset="0.5" stop-color="#040825"/>
<stop offset="1" stop-color="#000D61"/>
</linearGradient>
<linearGradient id="paint2_linear_431_5468" x1="170.116" y1="49.377" x2="37.6675" y2="49.377" gradientUnits="userSpaceOnUse">
<stop stop-color="#020C7B"/>
<stop offset="0.5" stop-color="#040825"/>
<stop offset="1" stop-color="#000D61"/>
</linearGradient>
<linearGradient id="paint3_linear_431_5468" x1="191.327" y1="30.8699" x2="182.961" y2="30.8699" gradientUnits="userSpaceOnUse">
<stop stop-color="#020C7B"/>
<stop offset="0.5" stop-color="#040825"/>
<stop offset="1" stop-color="#000D61"/>
</linearGradient>
<linearGradient id="paint4_linear_431_5468" x1="23.8773" y1="31.5837" x2="15.5967" y2="31.5837" gradientUnits="userSpaceOnUse">
<stop stop-color="#020C7B"/>
<stop offset="0.5" stop-color="#040825"/>
<stop offset="1" stop-color="#000D61"/>
</linearGradient>
<linearGradient id="paint5_linear_431_5468" x1="30.8203" y1="44.3545" x2="24.1958" y2="44.3545" gradientUnits="userSpaceOnUse">
<stop stop-color="#020C7B"/>
<stop offset="0.5" stop-color="#040825"/>
<stop offset="1" stop-color="#000D61"/>
</linearGradient>
<linearGradient id="paint6_linear_431_5468" x1="32.6107" y1="44.365" x2="37.2885" y2="48.4329" gradientUnits="userSpaceOnUse">
<stop stop-color="#020C7B"/>
<stop offset="0.5" stop-color="#040825"/>
<stop offset="1" stop-color="#000D61"/>
</linearGradient>
<linearGradient id="paint7_linear_431_5468" x1="29.6021" y1="17.9329" x2="22.9933" y2="18.6109" gradientUnits="userSpaceOnUse">
<stop stop-color="#020C7B"/>
<stop offset="0.5" stop-color="#040825"/>
<stop offset="1" stop-color="#000D61"/>
</linearGradient>
<linearGradient id="paint8_linear_431_5468" x1="31.3771" y1="17.6402" x2="35.6056" y2="12.8692" gradientUnits="userSpaceOnUse">
<stop stop-color="#020C7B"/>
<stop offset="0.5" stop-color="#040825"/>
<stop offset="1" stop-color="#000D61"/>
</linearGradient>
<linearGradient id="paint9_linear_431_5468" x1="177.297" y1="17.6748" x2="183.048" y2="16.9821" gradientUnits="userSpaceOnUse">
<stop stop-color="#020C7B"/>
<stop offset="0.5" stop-color="#040825"/>
<stop offset="1" stop-color="#000D61"/>
</linearGradient>
<linearGradient id="paint10_linear_431_5468" x1="176.318" y1="17.4935" x2="172.206" y2="12.7722" gradientUnits="userSpaceOnUse">
<stop stop-color="#020C7B"/>
<stop offset="0.5" stop-color="#040825"/>
<stop offset="1" stop-color="#000D61"/>
</linearGradient>
<linearGradient id="paint11_linear_431_5468" x1="176.901" y1="43.623" x2="182.666" y2="44.2332" gradientUnits="userSpaceOnUse">
<stop stop-color="#020C7B"/>
<stop offset="0.5" stop-color="#040825"/>
<stop offset="1" stop-color="#000D61"/>
</linearGradient>
<linearGradient id="paint12_linear_431_5468" x1="176.315" y1="43.8746" x2="172.215" y2="48.7661" gradientUnits="userSpaceOnUse">
<stop stop-color="#020C7B"/>
<stop offset="0.5" stop-color="#040825"/>
<stop offset="1" stop-color="#000D61"/>
</linearGradient>
<clipPath id="clip0_431_5468">
<rect width="16.9048" height="16.9048" fill="white" transform="translate(40.1104 22.8152)"/>
</clipPath>
<clipPath id="clip1_431_5468">
<rect width="18.7967" height="18.7967" fill="white" transform="translate(39.1646 21.8685)"/>
</clipPath>
</defs>
</svg>
