<svg width="962" height="84" viewBox="0 0 962 84" fill="none" xmlns="http://www.w3.org/2000/svg">
<rect x="14.5581" y="7.77734" width="933.813" height="58" rx="16" fill="#000431"/>
<g filter="url(#filter0_d_524_17373)">
<g filter="url(#filter1_i_524_17373)">
<path d="M915.561 7.77734C920.121 7.77747 924.416 9.67274 927.154 12.8937L940.922 29.0927C944.791 33.646 944.789 39.9104 940.92 44.4635L927.154 60.661L926.623 61.2486C924.062 63.9201 920.37 65.5499 916.414 65.7555L915.563 65.7773H44.7524C40.185 65.7772 35.8673 64.1107 32.9354 61.2486L32.3683 60.661L17.6589 44.4635C13.5244 39.9103 13.5247 33.6461 17.6589 29.0927L24.0197 22.9506C25.0402 21.5629 26.5486 20.4124 27.8654 19.222L32.3683 12.8937C35.2931 9.67302 39.8807 7.77753 44.7524 7.77734L915.561 7.77734Z" fill="#0144BD"/>
</g>
<path fill-rule="evenodd" clip-rule="evenodd" d="M918.246 7.77734C923.072 7.77737 927.617 9.67266 930.514 12.8937L945.084 29.0927C949.179 33.6461 949.177 39.9104 945.082 44.4635L930.514 60.661L929.953 61.2486C927.242 63.9202 923.336 65.55 919.149 65.7555L918.248 65.7773H42.8613C38.3384 65.7772 34.0629 64.1108 31.1597 61.2486L30.5981 60.661L16.0324 44.4635C11.9383 39.9103 11.9386 33.6461 16.0324 29.0927L30.5981 12.8937C33.4943 9.6729 38.037 7.77753 42.8613 7.77734H918.246ZM52.3877 10.9903C52.3436 11.0081 47.8317 12.8368 46.6258 14.6689C44.9412 17.2286 45.4029 21.6944 45.4652 21.9449L45.4708 21.9543L45.467 21.9496V21.9543L45.4633 21.9464C45.2796 21.7425 42.733 18.5035 39.3177 17.8693C37.1366 17.4645 31.3159 18.5889 30.0384 18.846L19.0986 31.0148C16.0288 34.4297 16.0286 39.1267 19.0986 42.5414L32.163 57.0699C34.0753 57.3596 39.789 58.1616 41.7961 57.6981C45.1644 56.9198 48.4996 52.8394 48.6774 52.6193L48.6831 52.6099V52.6146L48.6812 52.6193C48.6344 52.8712 47.7549 57.7655 49.5947 60.25C50.3919 61.3265 52.5276 62.1166 54.0986 62.5769H897.868C899.554 62.3059 911.864 61.4595 913.063 60.0781C915.116 57.7138 914.668 52.7818 914.644 52.524V52.5131L914.647 52.5224C914.799 52.7439 917.771 57.0273 921.066 58.0107C922.814 58.5319 926.705 57.8277 928.629 57.4231L942.017 42.5414C945.088 39.1268 945.087 34.4296 942.017 31.0148L928.282 15.7456C926.224 15.3532 923.16 14.9029 921.665 15.3487C918.37 16.3321 915.398 20.6155 915.246 20.8369L915.243 20.8463C915.243 20.8463 915.242 20.8435 915.243 20.84L915.241 20.8447L915.243 20.8354C915.268 20.5775 915.715 15.6455 913.662 13.2812C912.673 12.1422 909.904 11.3678 908.184 10.9778H52.1424C52.2949 10.9844 52.381 10.9901 52.3877 10.9903Z" fill="#00053D"/>
<path d="M56.3325 15.2492L904.987 15.2451" stroke="url(#paint0_linear_524_17373)" stroke-width="1.09562" stroke-linejoin="bevel"/>
<path d="M899.9 60.1436L59.4331 60.1444" stroke="url(#paint1_linear_524_17373)" stroke-width="1.09562" stroke-linejoin="bevel"/>
<path d="M927.588 52.6301L938.251 43.0642C942.14 39.5751 942.132 33.4799 938.234 30.0008L928.067 20.9258" stroke="url(#paint2_linear_524_17373)" stroke-width="1.09562" stroke-linejoin="bevel"/>
<path d="M33.0967 52.5396L23.7738 43.4861C20.2225 40.0374 20.2298 34.3342 23.7898 30.8946L30.7853 24.1357" stroke="url(#paint3_linear_524_17373)" stroke-width="1.09562" stroke-linejoin="bevel"/>
<path d="M34.0616 53.0936C33.8246 53.9246 33.5875 54.7555 33.3505 55.5865C33.5747 55.628 33.7988 55.6695 34.023 55.7109C35.8397 56.047 37.6565 56.3832 39.4732 56.7193L39.6588 56.7919L39.9716 56.6772C41.9049 55.5155 43.8382 54.3538 45.7715 53.1921C45.9668 53.0747 46.1622 52.9573 46.3576 52.8398C46.1436 52.9183 45.9296 52.9967 45.7155 53.0751C43.5978 53.8512 41.48 54.6273 39.3622 55.4033L39.8606 55.3613C38.1399 54.6884 36.4192 54.0155 34.6985 53.3426C34.4862 53.2596 34.2739 53.1766 34.0616 53.0936Z" fill="url(#paint4_linear_524_17373)"/>
<path d="M58.4886 60.5384C57.5444 60.7299 56.6003 60.9214 55.6561 61.1129C55.4342 61.0002 55.2124 60.8874 54.9905 60.7747C53.8021 60.1709 52.6137 59.567 51.4253 58.9632L51.2636 58.9012L51.2 58.7735C51.1318 57.1569 51.0637 55.5402 50.9956 53.9236C50.9902 53.7957 50.9848 53.6678 50.9794 53.54C51.043 53.6675 51.1066 53.7951 51.1702 53.9226C51.9744 55.5354 52.7787 57.1482 53.5829 58.761L53.3576 58.5713C54.7988 59.1239 56.2401 59.6764 57.6814 60.229C57.9505 60.3321 58.2195 60.4353 58.4886 60.5384Z" fill="url(#paint5_linear_524_17373)"/>
<path d="M32.3889 23.6579C31.7937 22.9146 31.1986 22.1713 30.6034 21.428C30.8038 21.3708 31.0042 21.3136 31.2047 21.2564C33.0389 20.7331 34.8731 20.2098 36.7073 19.6864L36.8593 19.6024L37.2061 19.6959C39.3237 20.5995 41.4413 21.5031 43.559 22.4067C43.7983 22.5088 44.0376 22.611 44.277 22.7131C44.0336 22.6475 43.7903 22.5819 43.547 22.5163C41.3939 21.9359 39.2408 21.3555 37.0877 20.775L37.5865 20.7845C36.0246 21.648 34.4628 22.5114 32.9009 23.3749C32.7302 23.4692 32.5596 23.5636 32.3889 23.6579Z" fill="url(#paint6_linear_524_17373)"/>
<path d="M55.1366 13.8542C54.1627 13.7353 53.1888 13.6164 52.215 13.4975C52.0189 13.6294 51.8228 13.7613 51.6267 13.8931C50.5401 14.6239 49.4534 15.3546 48.3668 16.0853L48.2238 16.1589L48.1804 16.2922C48.3576 17.9107 48.5349 19.5293 48.7121 21.1478C48.7264 21.2778 48.7406 21.4077 48.7548 21.5376C48.7985 21.4034 48.8422 21.2691 48.8859 21.1349C49.4304 19.4628 49.9748 17.7906 50.5193 16.1185L50.3329 16.3253C51.6893 15.6276 53.0458 14.9298 54.4022 14.232C54.647 14.1061 54.8918 13.9801 55.1366 13.8542Z" fill="url(#paint7_linear_524_17373)"/>
<path d="M926.846 21.188C927.122 20.5758 927.399 19.9637 927.675 19.3515C927.458 19.2554 927.241 19.1594 927.023 19.0633C925.612 18.4392 924.2 17.8152 922.788 17.1912L922.353 16.92L921.864 17.1207C920.396 18.2877 918.927 19.4547 917.458 20.6217C917.33 20.7232 917.202 20.8246 917.075 20.9261C917.238 20.859 917.401 20.7919 917.564 20.7248C919.44 19.9532 921.317 19.1815 923.193 18.4098L922.27 18.3394C923.591 19.1622 924.913 19.9851 926.235 20.8079C926.439 20.9346 926.642 21.0613 926.846 21.188Z" fill="url(#paint8_linear_524_17373)"/>
<path d="M907.379 15.4125C907.067 15.0229 906.756 14.6334 906.444 14.2438C906.718 14.2535 906.992 14.2632 907.266 14.2729C908.407 14.3134 909.549 14.3539 910.691 14.3943L911.765 14.3537L912.281 14.8304C912.898 16.1149 913.516 17.3995 914.133 18.6841C914.178 18.777 914.223 18.8698 914.267 18.9627C914.167 18.8697 914.066 18.7767 913.966 18.6837C912.575 17.3975 911.185 16.1112 909.794 14.825L911.384 15.261C910.307 15.3017 909.231 15.3425 908.154 15.3832C907.896 15.393 907.637 15.4027 907.379 15.4125Z" fill="url(#paint9_linear_524_17373)"/>
<path d="M901.848 59.0465C902.428 59.3188 903.008 59.5911 903.589 59.8634C903.89 59.7689 904.191 59.6743 904.493 59.5798C906.552 58.9332 908.612 58.2867 910.672 57.6402L910.999 57.5602L911.168 57.3826C911.847 56.016 912.526 54.6493 913.206 53.2827C913.266 53.1603 913.327 53.0379 913.388 52.9154C913.271 53.0384 913.154 53.1613 913.037 53.2842C911.731 54.6565 910.424 56.0287 909.118 57.401L909.614 57.1434C907.355 57.6968 905.097 58.2502 902.839 58.8037C902.508 58.8846 902.178 58.9656 901.848 59.0465Z" fill="url(#paint10_linear_524_17373)"/>
<path d="M927.051 52.3678C927.026 53.1245 927.001 53.8813 926.976 54.638C926.752 54.677 926.529 54.716 926.306 54.755C924.763 55.0244 923.221 55.2938 921.679 55.5632L921.422 55.6511L921.093 55.5179C919.56 54.3542 918.028 53.1906 916.495 52.027C916.357 51.9221 916.219 51.8172 916.081 51.7123C916.252 51.7819 916.424 51.8514 916.596 51.921C918.501 52.6925 920.405 53.4641 922.31 54.2357L921.724 54.1904C923.275 53.6597 924.826 53.129 926.377 52.5983C926.602 52.5214 926.826 52.4446 927.051 52.3678Z" fill="url(#paint11_linear_524_17373)"/>
</g>
<path d="M426.924 36.7319C426.924 38.1594 426.653 39.3739 426.112 40.3754C425.575 41.3768 424.842 42.1417 423.913 42.6701C422.989 43.1942 421.949 43.4563 420.794 43.4563C419.631 43.4563 418.587 43.1921 417.662 42.6637C416.737 42.1353 416.006 41.3704 415.469 40.369C414.932 39.3675 414.664 38.1552 414.664 36.7319C414.664 35.3043 414.932 34.0898 415.469 33.0884C416.006 32.087 416.737 31.3242 417.662 30.8001C418.587 30.2717 419.631 30.0075 420.794 30.0075C421.949 30.0075 422.989 30.2717 423.913 30.8001C424.842 31.3242 425.575 32.087 426.112 33.0884C426.653 34.0898 426.924 35.3043 426.924 36.7319ZM424.118 36.7319C424.118 35.8072 423.979 35.0273 423.702 34.3924C423.43 33.7575 423.044 33.2759 422.545 32.9478C422.047 32.6197 421.463 32.4556 420.794 32.4556C420.125 32.4556 419.541 32.6197 419.043 32.9478C418.544 33.2759 418.156 33.7575 417.879 34.3924C417.606 35.0273 417.47 35.8072 417.47 36.7319C417.47 37.6566 417.606 38.4364 417.879 39.0714C418.156 39.7063 418.544 40.1879 419.043 40.516C419.541 40.8441 420.125 41.0082 420.794 41.0082C421.463 41.0082 422.047 40.8441 422.545 40.516C423.044 40.1879 423.43 39.7063 423.702 39.0714C423.979 38.4364 424.118 37.6566 424.118 36.7319ZM428.923 46.9592V33.4592H431.608V35.1083H431.729C431.848 34.8441 432.021 34.5756 432.247 34.3029C432.477 34.0259 432.775 33.7958 433.142 33.6126C433.513 33.4251 433.973 33.3313 434.523 33.3313C435.238 33.3313 435.899 33.5188 436.504 33.8938C437.109 34.2646 437.593 34.8249 437.955 35.5749C438.317 36.3207 438.498 37.256 438.498 38.381C438.498 39.4762 438.322 40.4009 437.968 41.1552C437.618 41.9052 437.141 42.4741 436.536 42.8619C435.935 43.2454 435.262 43.4371 434.516 43.4371C433.988 43.4371 433.538 43.3498 433.167 43.1751C432.801 43.0004 432.5 42.7809 432.266 42.5167C432.032 42.2482 431.853 41.9776 431.729 41.7049H431.646V46.9592H428.923ZM431.589 38.3683C431.589 38.9521 431.67 39.4613 431.831 39.896C431.993 40.3306 432.228 40.6694 432.535 40.9123C432.841 41.1509 433.214 41.2702 433.653 41.2702C434.096 41.2702 434.471 41.1488 434.778 40.9059C435.085 40.6587 435.317 40.3178 435.475 39.8832C435.637 39.4442 435.718 38.9393 435.718 38.3683C435.718 37.8015 435.639 37.3029 435.481 36.8725C435.324 36.4421 435.091 36.1055 434.785 35.8626C434.478 35.6197 434.101 35.4982 433.653 35.4982C433.21 35.4982 432.835 35.6154 432.528 35.8498C432.226 36.0842 431.993 36.4165 431.831 36.8469C431.67 37.2773 431.589 37.7844 431.589 38.3683ZM444.788 43.4691C443.778 43.4691 442.909 43.2646 442.18 42.8555C441.456 42.4421 440.898 41.8583 440.505 41.104C440.113 40.3455 439.917 39.4485 439.917 38.413C439.917 37.4031 440.113 36.5167 440.505 35.7539C440.898 34.9911 441.449 34.3967 442.161 33.9705C442.877 33.5444 443.716 33.3313 444.679 33.3313C445.327 33.3313 445.93 33.4357 446.488 33.6445C447.051 33.8491 447.541 34.158 447.959 34.5714C448.38 34.9847 448.709 35.5046 448.943 36.131C449.177 36.7532 449.295 37.4819 449.295 38.3171V39.065H441.004V37.3775H446.731C446.731 36.9854 446.646 36.6381 446.476 36.3356C446.305 36.033 446.069 35.7965 445.766 35.6261C445.468 35.4513 445.121 35.364 444.724 35.364C444.311 35.364 443.944 35.4599 443.625 35.6516C443.309 35.8391 443.062 36.0927 442.883 36.4123C442.704 36.7276 442.613 37.0792 442.608 37.467V39.0714C442.608 39.5572 442.698 39.9769 442.877 40.3306C443.06 40.6843 443.318 40.957 443.65 41.1488C443.983 41.3406 444.377 41.4364 444.833 41.4364C445.135 41.4364 445.412 41.3938 445.664 41.3086C445.915 41.2234 446.13 41.0955 446.309 40.9251C446.488 40.7546 446.625 40.5458 446.719 40.2987L449.237 40.4648C449.109 41.07 448.847 41.5984 448.451 42.0501C448.059 42.4975 447.552 42.8469 446.929 43.0984C446.312 43.3455 445.598 43.4691 444.788 43.4691ZM453.795 37.6012V43.2773H451.072V33.4592H453.667V35.1914H453.782C453.999 34.6204 454.363 34.1687 454.875 33.8363C455.386 33.4996 456.006 33.3313 456.735 33.3313C457.417 33.3313 458.011 33.4805 458.518 33.7788C459.025 34.0771 459.42 34.5032 459.701 35.0572C459.982 35.6069 460.123 36.2631 460.123 37.0259V43.2773H457.4V37.5117C457.404 36.9109 457.25 36.4421 456.939 36.1055C456.628 35.7646 456.2 35.5941 455.655 35.5941C455.288 35.5941 454.964 35.6729 454.683 35.8306C454.406 35.9883 454.189 36.2184 454.031 36.521C453.878 36.8192 453.799 37.1793 453.795 37.6012ZM468.71 33.4592L470.513 36.8917L472.36 33.4592H475.154L472.309 38.3683L475.23 43.2773H472.45L470.513 39.8832L468.608 43.2773H465.796L468.71 38.3683L465.898 33.4592H468.71ZM482.44 30.1864V43.2773H479.673V32.8136H479.596L476.598 34.6928V32.2383L479.839 30.1864H482.44ZM490.685 43.565C489.585 43.5607 488.639 43.2901 487.847 42.7532C487.058 42.2163 486.451 41.4386 486.025 40.4201C485.603 39.4016 485.394 38.1765 485.398 36.7447C485.398 35.3171 485.609 34.1005 486.031 33.0948C486.457 32.0891 487.065 31.3242 487.853 30.8001C488.646 30.2717 489.589 30.0075 490.685 30.0075C491.78 30.0075 492.722 30.2717 493.51 30.8001C494.303 31.3285 494.912 32.0955 495.338 33.1012C495.764 34.1026 495.975 35.3171 495.971 36.7447C495.971 38.1808 495.758 39.408 495.332 40.4265C494.91 41.445 494.305 42.2227 493.516 42.7596C492.728 43.2965 491.784 43.565 490.685 43.565ZM490.685 41.2702C491.435 41.2702 492.033 40.8931 492.481 40.1388C492.928 39.3846 493.15 38.2532 493.146 36.7447C493.146 35.7518 493.043 34.9251 492.839 34.2646C492.638 33.604 492.353 33.1076 491.982 32.7752C491.616 32.4428 491.183 32.2766 490.685 32.2766C489.939 32.2766 489.342 32.6495 488.895 33.3952C488.447 34.141 488.222 35.2575 488.217 36.7447C488.217 37.7504 488.317 38.5898 488.518 39.2631C488.722 39.9322 489.01 40.435 489.381 40.7717C489.751 41.104 490.186 41.2702 490.685 41.2702ZM508.253 35.6516V37.8121H502.283V35.6516H508.253ZM519.112 44.9137V28.5501H520.16V44.9137H519.112ZM521.892 33.9513C521.841 33.4357 521.622 33.0352 521.234 32.7496C520.846 32.4641 520.32 32.3214 519.655 32.3214C519.203 32.3214 518.822 32.3853 518.511 32.5131C518.2 32.6367 517.961 32.8093 517.795 33.0309C517.633 33.2525 517.552 33.5039 517.552 33.7852C517.543 34.0195 517.592 34.2241 517.699 34.3988C517.81 34.5735 517.961 34.7248 518.153 34.8526C518.345 34.9762 518.566 35.0849 518.818 35.1786C519.069 35.2681 519.337 35.3448 519.623 35.4087L520.799 35.69C521.37 35.8178 521.894 35.9883 522.372 36.2013C522.849 36.4144 523.262 36.6765 523.612 36.9876C523.961 37.2987 524.232 37.6651 524.423 38.087C524.619 38.5089 524.72 38.9925 524.724 39.538C524.72 40.3391 524.515 41.0337 524.11 41.6218C523.71 42.2056 523.13 42.6594 522.372 42.9833C521.617 43.3029 520.708 43.4627 519.642 43.4627C518.585 43.4627 517.665 43.3008 516.881 42.9769C516.101 42.6531 515.492 42.1737 515.053 41.5387C514.618 40.8995 514.39 40.109 514.369 39.1673H517.047C517.077 39.6062 517.203 39.9727 517.424 40.2667C517.65 40.5565 517.95 40.7759 518.325 40.9251C518.705 41.07 519.133 41.1424 519.61 41.1424C520.079 41.1424 520.486 41.0742 520.831 40.9379C521.181 40.8015 521.451 40.6119 521.643 40.369C521.835 40.1261 521.931 39.8469 521.931 39.5316C521.931 39.2376 521.843 38.9904 521.668 38.7901C521.498 38.5898 521.247 38.4194 520.914 38.2788C520.586 38.1381 520.183 38.0103 519.706 37.8952L518.281 37.5373C517.177 37.2688 516.306 36.8491 515.666 36.2781C515.027 35.707 514.71 34.9379 514.714 33.9705C514.71 33.1779 514.921 32.4854 515.347 31.8931C515.777 31.3008 516.367 30.8384 517.117 30.506C517.867 30.1737 518.72 30.0075 519.674 30.0075C520.646 30.0075 521.494 30.1737 522.218 30.506C522.947 30.8384 523.514 31.3008 523.918 31.8931C524.323 32.4854 524.532 33.1715 524.545 33.9513H521.892ZM533.698 43.2773L529.953 30.1864H532.976L535.143 39.2823H535.252L537.642 30.1864H540.231L542.615 39.3015H542.73L544.897 30.1864H547.921L544.175 43.2773H541.477L538.985 34.7184H538.882L536.396 43.2773H533.698ZM554.043 43.2773H549.402V30.1864H554.081C555.398 30.1864 556.531 30.4485 557.481 30.9727C558.432 31.4925 559.163 32.2404 559.674 33.2163C560.19 34.1921 560.447 35.3597 560.447 36.7191C560.447 38.0827 560.19 39.2546 559.674 40.2347C559.163 41.2148 558.428 41.967 557.469 42.4911C556.514 43.0153 555.372 43.2773 554.043 43.2773ZM552.17 40.9059H553.928C554.746 40.9059 555.434 40.761 555.992 40.4712C556.555 40.1772 556.977 39.7234 557.258 39.1097C557.543 38.4918 557.686 37.695 557.686 36.7191C557.686 35.7518 557.543 34.9613 557.258 34.3477C556.977 33.734 556.557 33.2823 555.999 32.9925C555.44 32.7028 554.752 32.5579 553.934 32.5579H552.17V40.9059Z" fill="white"/>
<defs>
<filter id="filter0_d_524_17373" x="-4.1008e-05" y="0.000170708" width="961.116" height="95.9239" filterUnits="userSpaceOnUse" color-interpolation-filters="sRGB">
<feFlood flood-opacity="0" result="BackgroundImageFix"/>
<feColorMatrix in="SourceAlpha" type="matrix" values="0 0 0 0 0 0 0 0 0 0 0 0 0 0 0 0 0 0 127 0" result="hardAlpha"/>
<feOffset dy="5.18478"/>
<feGaussianBlur stdDeviation="6.48098"/>
<feComposite in2="hardAlpha" operator="out"/>
<feColorMatrix type="matrix" values="0 0 0 0 0 0 0 0 0 0 0 0 0 0 0 0 0 0 0.25 0"/>
<feBlend mode="normal" in2="BackgroundImageFix" result="effect1_dropShadow_524_17373"/>
<feBlend mode="normal" in="SourceGraphic" in2="effect1_dropShadow_524_17373" result="shape"/>
</filter>
<filter id="filter1_i_524_17373" x="14.5581" y="-2.59222" width="929.265" height="68.3696" filterUnits="userSpaceOnUse" color-interpolation-filters="sRGB">
<feFlood flood-opacity="0" result="BackgroundImageFix"/>
<feBlend mode="normal" in="SourceGraphic" in2="BackgroundImageFix" result="shape"/>
<feColorMatrix in="SourceAlpha" type="matrix" values="0 0 0 0 0 0 0 0 0 0 0 0 0 0 0 0 0 0 127 0" result="hardAlpha"/>
<feOffset dy="-10.3696"/>
<feGaussianBlur stdDeviation="6.48098"/>
<feComposite in2="hardAlpha" operator="arithmetic" k2="-1" k3="1"/>
<feColorMatrix type="matrix" values="0 0 0 0 0 0 0 0 0 0 0 0 0 0 0 0 0 0 0.25 0"/>
<feBlend mode="normal" in2="shape" result="effect1_innerShadow_524_17373"/>
</filter>
<linearGradient id="paint0_linear_524_17373" x1="811.55" y1="14.8666" x2="113.59" y2="14.8666" gradientUnits="userSpaceOnUse">
<stop stop-color="#020C7B"/>
<stop offset="0.5" stop-color="#040825"/>
<stop offset="1" stop-color="#000D61"/>
</linearGradient>
<linearGradient id="paint1_linear_524_17373" x1="803.951" y1="59.9844" x2="121.952" y2="59.9844" gradientUnits="userSpaceOnUse">
<stop stop-color="#020C7B"/>
<stop offset="0.5" stop-color="#040825"/>
<stop offset="1" stop-color="#000D61"/>
</linearGradient>
<linearGradient id="paint2_linear_524_17373" x1="931.714" y1="36.7779" x2="919.214" y2="36.7779" gradientUnits="userSpaceOnUse">
<stop stop-color="#020C7B"/>
<stop offset="0.5" stop-color="#040825"/>
<stop offset="1" stop-color="#000D61"/>
</linearGradient>
<linearGradient id="paint3_linear_524_17373" x1="50.9452" y1="37.7931" x2="8.30664" y2="37.7931" gradientUnits="userSpaceOnUse">
<stop stop-color="#020C7B"/>
<stop offset="0.5" stop-color="#040825"/>
<stop offset="1" stop-color="#000D61"/>
</linearGradient>
<linearGradient id="paint4_linear_524_17373" x1="86.6958" y1="53.8931" x2="52.585" y2="53.8931" gradientUnits="userSpaceOnUse">
<stop stop-color="#020C7B"/>
<stop offset="0.5" stop-color="#040825"/>
<stop offset="1" stop-color="#000D61"/>
</linearGradient>
<linearGradient id="paint5_linear_524_17373" x1="95.9147" y1="53.9073" x2="99.0223" y2="64.9436" gradientUnits="userSpaceOnUse">
<stop stop-color="#020C7B"/>
<stop offset="0.5" stop-color="#040825"/>
<stop offset="1" stop-color="#000D61"/>
</linearGradient>
<linearGradient id="paint6_linear_524_17373" x1="80.4238" y1="20.5794" x2="51.1698" y2="32.8346" gradientUnits="userSpaceOnUse">
<stop stop-color="#020C7B"/>
<stop offset="0.5" stop-color="#040825"/>
<stop offset="1" stop-color="#000D61"/>
</linearGradient>
<linearGradient id="paint7_linear_524_17373" x1="89.5641" y1="20.2114" x2="91.7903" y2="9.95337" gradientUnits="userSpaceOnUse">
<stop stop-color="#020C7B"/>
<stop offset="0.5" stop-color="#040825"/>
<stop offset="1" stop-color="#000D61"/>
</linearGradient>
<linearGradient id="paint8_linear_524_17373" x1="911.478" y1="18.8108" x2="918.168" y2="15.5206" gradientUnits="userSpaceOnUse">
<stop stop-color="#020C7B"/>
<stop offset="0.5" stop-color="#040825"/>
<stop offset="1" stop-color="#000D61"/>
</linearGradient>
<linearGradient id="paint9_linear_524_17373" x1="904.862" y1="18.3963" x2="903.547" y2="12.2302" gradientUnits="userSpaceOnUse">
<stop stop-color="#020C7B"/>
<stop offset="0.5" stop-color="#040825"/>
<stop offset="1" stop-color="#000D61"/>
</linearGradient>
<linearGradient id="paint10_linear_524_17373" x1="904.041" y1="52.35" x2="902.956" y2="57.4344" gradientUnits="userSpaceOnUse">
<stop stop-color="#020C7B"/>
<stop offset="0.5" stop-color="#040825"/>
<stop offset="1" stop-color="#000D61"/>
</linearGradient>
<linearGradient id="paint11_linear_524_17373" x1="910.926" y1="53.7445" x2="917.885" y2="56.7526" gradientUnits="userSpaceOnUse">
<stop stop-color="#020C7B"/>
<stop offset="0.5" stop-color="#040825"/>
<stop offset="1" stop-color="#000D61"/>
</linearGradient>
</defs>
</svg>
