<svg width="962" height="84" viewBox="0 0 962 84" fill="none" xmlns="http://www.w3.org/2000/svg">
<rect x="14.5581" y="7.77734" width="933.813" height="58" rx="16" fill="#000431"/>
<g filter="url(#filter0_d_524_17374)">
<g filter="url(#filter1_i_524_17374)">
<path d="M915.561 7.77734C920.121 7.77747 924.416 9.67274 927.154 12.8937L940.922 29.0927C944.791 33.646 944.789 39.9104 940.92 44.4635L927.154 60.661L926.623 61.2486C924.062 63.9201 920.37 65.5499 916.414 65.7555L915.563 65.7773H44.7524C40.185 65.7772 35.8673 64.1107 32.9354 61.2486L32.3683 60.661L17.6589 44.4635C13.5244 39.9103 13.5247 33.6461 17.6589 29.0927L24.0197 22.9506C25.0402 21.5629 26.5486 20.4124 27.8654 19.222L32.3683 12.8937C35.2931 9.67302 39.8807 7.77753 44.7524 7.77734L915.561 7.77734Z" fill="#0144BD"/>
</g>
<path fill-rule="evenodd" clip-rule="evenodd" d="M918.246 7.77734C923.072 7.77737 927.617 9.67266 930.514 12.8937L945.084 29.0927C949.179 33.6461 949.177 39.9104 945.082 44.4635L930.514 60.661L929.953 61.2486C927.242 63.9202 923.336 65.55 919.149 65.7555L918.248 65.7773H42.8613C38.3384 65.7772 34.0629 64.1108 31.1597 61.2486L30.5981 60.661L16.0324 44.4635C11.9383 39.9103 11.9386 33.6461 16.0324 29.0927L30.5981 12.8937C33.4943 9.6729 38.037 7.77753 42.8613 7.77734H918.246ZM52.3877 10.9903C52.3436 11.0081 47.8317 12.8368 46.6258 14.6689C44.9412 17.2286 45.4029 21.6944 45.4652 21.9449L45.4708 21.9543L45.467 21.9496V21.9543L45.4633 21.9464C45.2796 21.7425 42.733 18.5035 39.3177 17.8693C37.1366 17.4645 31.3159 18.5889 30.0384 18.846L19.0986 31.0148C16.0288 34.4297 16.0286 39.1267 19.0986 42.5414L32.163 57.0699C34.0753 57.3596 39.789 58.1616 41.7961 57.6981C45.1644 56.9198 48.4996 52.8394 48.6774 52.6193L48.6831 52.6099V52.6146L48.6812 52.6193C48.6344 52.8712 47.7549 57.7655 49.5947 60.25C50.3919 61.3265 52.5276 62.1166 54.0986 62.5769H897.868C899.554 62.3059 911.864 61.4595 913.063 60.0781C915.116 57.7138 914.668 52.7818 914.644 52.524V52.5131L914.647 52.5224C914.799 52.7439 917.771 57.0273 921.066 58.0107C922.814 58.5319 926.705 57.8277 928.629 57.4231L942.017 42.5414C945.088 39.1268 945.087 34.4296 942.017 31.0148L928.282 15.7456C926.224 15.3532 923.16 14.9029 921.665 15.3487C918.37 16.3321 915.398 20.6155 915.246 20.8369L915.243 20.8463C915.243 20.8463 915.242 20.8435 915.243 20.84L915.241 20.8447L915.243 20.8354C915.268 20.5775 915.715 15.6455 913.662 13.2812C912.673 12.1422 909.904 11.3678 908.184 10.9778H52.1424C52.2949 10.9844 52.381 10.9901 52.3877 10.9903Z" fill="#00053D"/>
<path d="M56.3325 15.2492L904.987 15.2451" stroke="url(#paint0_linear_524_17374)" stroke-width="1.09562" stroke-linejoin="bevel"/>
<path d="M899.9 60.1436L59.4331 60.1444" stroke="url(#paint1_linear_524_17374)" stroke-width="1.09562" stroke-linejoin="bevel"/>
<path d="M927.588 52.6301L938.251 43.0642C942.14 39.5751 942.132 33.4799 938.234 30.0008L928.067 20.9258" stroke="url(#paint2_linear_524_17374)" stroke-width="1.09562" stroke-linejoin="bevel"/>
<path d="M33.0967 52.5396L23.7738 43.4861C20.2225 40.0374 20.2298 34.3342 23.7898 30.8946L30.7853 24.1357" stroke="url(#paint3_linear_524_17374)" stroke-width="1.09562" stroke-linejoin="bevel"/>
<path d="M34.0616 53.0936C33.8246 53.9246 33.5875 54.7555 33.3505 55.5865C33.5747 55.628 33.7988 55.6695 34.023 55.7109C35.8397 56.047 37.6565 56.3832 39.4732 56.7193L39.6588 56.7919L39.9716 56.6772C41.9049 55.5155 43.8382 54.3538 45.7715 53.1921C45.9668 53.0747 46.1622 52.9573 46.3576 52.8398C46.1436 52.9183 45.9296 52.9967 45.7155 53.0751C43.5978 53.8512 41.48 54.6273 39.3622 55.4033L39.8606 55.3613C38.1399 54.6884 36.4192 54.0155 34.6985 53.3426C34.4862 53.2596 34.2739 53.1766 34.0616 53.0936Z" fill="url(#paint4_linear_524_17374)"/>
<path d="M58.4886 60.5384C57.5444 60.7299 56.6003 60.9214 55.6561 61.1129C55.4342 61.0002 55.2124 60.8874 54.9905 60.7747C53.8021 60.1709 52.6137 59.567 51.4253 58.9632L51.2636 58.9012L51.2 58.7735C51.1318 57.1569 51.0637 55.5402 50.9956 53.9236C50.9902 53.7957 50.9848 53.6678 50.9794 53.54C51.043 53.6675 51.1066 53.7951 51.1702 53.9226C51.9744 55.5354 52.7787 57.1482 53.5829 58.761L53.3576 58.5713C54.7988 59.1239 56.2401 59.6764 57.6814 60.229C57.9505 60.3321 58.2195 60.4353 58.4886 60.5384Z" fill="url(#paint5_linear_524_17374)"/>
<path d="M32.3889 23.6579C31.7937 22.9146 31.1986 22.1713 30.6034 21.428C30.8038 21.3708 31.0042 21.3136 31.2047 21.2564C33.0389 20.7331 34.8731 20.2098 36.7073 19.6864L36.8593 19.6024L37.2061 19.6959C39.3237 20.5995 41.4413 21.5031 43.559 22.4067C43.7983 22.5088 44.0376 22.611 44.277 22.7131C44.0336 22.6475 43.7903 22.5819 43.547 22.5163C41.3939 21.9359 39.2408 21.3555 37.0877 20.775L37.5865 20.7845C36.0246 21.648 34.4628 22.5114 32.9009 23.3749C32.7302 23.4692 32.5596 23.5636 32.3889 23.6579Z" fill="url(#paint6_linear_524_17374)"/>
<path d="M55.1366 13.8542C54.1627 13.7353 53.1888 13.6164 52.215 13.4975C52.0189 13.6294 51.8228 13.7613 51.6267 13.8931C50.5401 14.6239 49.4534 15.3546 48.3668 16.0853L48.2238 16.1589L48.1804 16.2922C48.3576 17.9107 48.5349 19.5293 48.7121 21.1478C48.7264 21.2778 48.7406 21.4077 48.7548 21.5376C48.7985 21.4034 48.8422 21.2691 48.8859 21.1349C49.4304 19.4628 49.9748 17.7906 50.5193 16.1185L50.3329 16.3253C51.6893 15.6276 53.0458 14.9298 54.4022 14.232C54.647 14.1061 54.8918 13.9801 55.1366 13.8542Z" fill="url(#paint7_linear_524_17374)"/>
<path d="M926.846 21.188C927.122 20.5758 927.399 19.9637 927.675 19.3515C927.458 19.2554 927.241 19.1594 927.023 19.0633C925.612 18.4392 924.2 17.8152 922.788 17.1912L922.353 16.92L921.864 17.1207C920.396 18.2877 918.927 19.4547 917.458 20.6217C917.33 20.7232 917.202 20.8246 917.075 20.9261C917.238 20.859 917.401 20.7919 917.564 20.7248C919.44 19.9532 921.317 19.1815 923.193 18.4098L922.27 18.3394C923.591 19.1622 924.913 19.9851 926.235 20.8079C926.439 20.9346 926.642 21.0613 926.846 21.188Z" fill="url(#paint8_linear_524_17374)"/>
<path d="M907.379 15.4125C907.067 15.0229 906.756 14.6334 906.444 14.2438C906.718 14.2535 906.992 14.2632 907.266 14.2729C908.407 14.3134 909.549 14.3539 910.691 14.3943L911.765 14.3537L912.281 14.8304C912.898 16.1149 913.516 17.3995 914.133 18.6841C914.178 18.777 914.223 18.8698 914.267 18.9627C914.167 18.8697 914.066 18.7767 913.966 18.6837C912.575 17.3975 911.185 16.1112 909.794 14.825L911.384 15.261C910.307 15.3017 909.231 15.3425 908.154 15.3832C907.896 15.393 907.637 15.4027 907.379 15.4125Z" fill="url(#paint9_linear_524_17374)"/>
<path d="M901.848 59.0465C902.428 59.3188 903.008 59.5911 903.589 59.8634C903.89 59.7689 904.191 59.6743 904.493 59.5798C906.552 58.9332 908.612 58.2867 910.672 57.6402L910.999 57.5602L911.168 57.3826C911.847 56.016 912.526 54.6493 913.206 53.2827C913.266 53.1603 913.327 53.0379 913.388 52.9154C913.271 53.0384 913.154 53.1613 913.037 53.2842C911.731 54.6565 910.424 56.0287 909.118 57.401L909.614 57.1434C907.355 57.6968 905.097 58.2502 902.839 58.8037C902.508 58.8846 902.178 58.9656 901.848 59.0465Z" fill="url(#paint10_linear_524_17374)"/>
<path d="M927.051 52.3678C927.026 53.1245 927.001 53.8813 926.976 54.638C926.752 54.677 926.529 54.716 926.306 54.755C924.763 55.0244 923.221 55.2938 921.679 55.5632L921.422 55.6511L921.093 55.5179C919.56 54.3542 918.028 53.1906 916.495 52.027C916.357 51.9221 916.219 51.8172 916.081 51.7123C916.252 51.7819 916.424 51.8514 916.596 51.921C918.501 52.6925 920.405 53.4641 922.31 54.2357L921.724 54.1904C923.275 53.6597 924.826 53.129 926.377 52.5983C926.602 52.5214 926.826 52.4446 927.051 52.3678Z" fill="url(#paint11_linear_524_17374)"/>
</g>
<path d="M427.158 36.7319C427.158 38.1594 426.888 39.3739 426.347 40.3754C425.81 41.3768 425.077 42.1417 424.148 42.6701C423.223 43.1942 422.183 43.4563 421.028 43.4563C419.865 43.4563 418.821 43.1921 417.896 42.6637C416.972 42.1353 416.241 41.3704 415.704 40.369C415.167 39.3675 414.898 38.1552 414.898 36.7319C414.898 35.3043 415.167 34.0898 415.704 33.0884C416.241 32.087 416.972 31.3242 417.896 30.8001C418.821 30.2717 419.865 30.0075 421.028 30.0075C422.183 30.0075 423.223 30.2717 424.148 30.8001C425.077 31.3242 425.81 32.087 426.347 33.0884C426.888 34.0898 427.158 35.3043 427.158 36.7319ZM424.352 36.7319C424.352 35.8072 424.214 35.0273 423.937 34.3924C423.664 33.7575 423.278 33.2759 422.78 32.9478C422.281 32.6197 421.697 32.4556 421.028 32.4556C420.359 32.4556 419.776 32.6197 419.277 32.9478C418.778 33.2759 418.391 33.7575 418.114 34.3924C417.841 35.0273 417.705 35.8072 417.705 36.7319C417.705 37.6566 417.841 38.4364 418.114 39.0714C418.391 39.7063 418.778 40.1879 419.277 40.516C419.776 40.8441 420.359 41.0082 421.028 41.0082C421.697 41.0082 422.281 40.8441 422.78 40.516C423.278 40.1879 423.664 39.7063 423.937 39.0714C424.214 38.4364 424.352 37.6566 424.352 36.7319ZM429.157 46.9592V33.4592H431.842V35.1083H431.964C432.083 34.8441 432.255 34.5756 432.481 34.3029C432.711 34.0259 433.01 33.7958 433.376 33.6126C433.747 33.4251 434.207 33.3313 434.757 33.3313C435.473 33.3313 436.133 33.5188 436.738 33.8938C437.344 34.2646 437.827 34.8249 438.189 35.5749C438.552 36.3207 438.733 37.256 438.733 38.381C438.733 39.4762 438.556 40.4009 438.202 41.1552C437.853 41.9052 437.375 42.4741 436.77 42.8619C436.17 43.2454 435.496 43.4371 434.75 43.4371C434.222 43.4371 433.773 43.3498 433.402 43.1751C433.035 43.0004 432.735 42.7809 432.5 42.5167C432.266 42.2482 432.087 41.9776 431.964 41.7049H431.88V46.9592H429.157ZM431.823 38.3683C431.823 38.9521 431.904 39.4613 432.066 39.896C432.228 40.3306 432.462 40.6694 432.769 40.9123C433.076 41.1509 433.449 41.2702 433.888 41.2702C434.331 41.2702 434.706 41.1488 435.013 40.9059C435.319 40.6587 435.552 40.3178 435.709 39.8832C435.871 39.4442 435.952 38.9393 435.952 38.3683C435.952 37.8015 435.873 37.3029 435.716 36.8725C435.558 36.4421 435.326 36.1055 435.019 35.8626C434.712 35.6197 434.335 35.4982 433.888 35.4982C433.444 35.4982 433.069 35.6154 432.763 35.8498C432.46 36.0842 432.228 36.4165 432.066 36.8469C431.904 37.2773 431.823 37.7844 431.823 38.3683ZM445.023 43.4691C444.013 43.4691 443.143 43.2646 442.415 42.8555C441.69 42.4421 441.132 41.8583 440.74 41.104C440.348 40.3455 440.152 39.4485 440.152 38.413C440.152 37.4031 440.348 36.5167 440.74 35.7539C441.132 34.9911 441.684 34.3967 442.395 33.9705C443.111 33.5444 443.951 33.3313 444.914 33.3313C445.562 33.3313 446.165 33.4357 446.723 33.6445C447.285 33.8491 447.775 34.158 448.193 34.5714C448.615 34.9847 448.943 35.5046 449.177 36.131C449.412 36.7532 449.529 37.4819 449.529 38.3171V39.065H441.238V37.3775H446.966C446.966 36.9854 446.88 36.6381 446.71 36.3356C446.54 36.033 446.303 35.7965 446 35.6261C445.702 35.4513 445.355 35.364 444.959 35.364C444.545 35.364 444.179 35.4599 443.859 35.6516C443.544 35.8391 443.297 36.0927 443.118 36.4123C442.939 36.7276 442.847 37.0792 442.843 37.467V39.0714C442.843 39.5572 442.932 39.9769 443.111 40.3306C443.295 40.6843 443.552 40.957 443.885 41.1488C444.217 41.3406 444.611 41.4364 445.067 41.4364C445.37 41.4364 445.647 41.3938 445.898 41.3086C446.15 41.2234 446.365 41.0955 446.544 40.9251C446.723 40.7546 446.859 40.5458 446.953 40.2987L449.471 40.4648C449.344 41.07 449.081 41.5984 448.685 42.0501C448.293 42.4975 447.786 42.8469 447.164 43.0984C446.546 43.3455 445.832 43.4691 445.023 43.4691ZM454.029 37.6012V43.2773H451.306V33.4592H453.901V35.1914H454.016C454.233 34.6204 454.598 34.1687 455.109 33.8363C455.621 33.4996 456.241 33.3313 456.969 33.3313C457.651 33.3313 458.246 33.4805 458.753 33.7788C459.26 34.0771 459.654 34.5032 459.935 35.0572C460.216 35.6069 460.357 36.2631 460.357 37.0259V43.2773H457.634V37.5117C457.638 36.9109 457.485 36.4421 457.174 36.1055C456.863 35.7646 456.434 35.5941 455.889 35.5941C455.523 35.5941 455.199 35.6729 454.917 35.8306C454.64 35.9883 454.423 36.2184 454.265 36.521C454.112 36.8192 454.033 37.1793 454.029 37.6012ZM468.945 33.4592L470.747 36.8917L472.595 33.4592H475.388L472.543 38.3683L475.465 43.2773H472.684L470.747 39.8832L468.842 43.2773H466.03L468.945 38.3683L466.132 33.4592H468.945ZM476.98 43.2773V41.283L481.639 36.9684C482.036 36.5849 482.368 36.2397 482.636 35.9329C482.909 35.6261 483.116 35.3256 483.257 35.0316C483.397 34.7333 483.467 34.4116 483.467 34.0664C483.467 33.6829 483.38 33.3526 483.205 33.0756C483.031 32.7944 482.792 32.5792 482.489 32.43C482.187 32.2766 481.844 32.1999 481.46 32.1999C481.06 32.1999 480.71 32.2809 480.412 32.4428C480.114 32.6048 479.884 32.837 479.722 33.1396C479.56 33.4421 479.479 33.8022 479.479 34.2198H476.852C476.852 33.3633 477.046 32.6197 477.433 31.989C477.821 31.3583 478.364 30.8704 479.063 30.5252C479.762 30.18 480.568 30.0075 481.48 30.0075C482.417 30.0075 483.233 30.1737 483.928 30.506C484.627 30.8342 485.17 31.2901 485.558 31.8739C485.945 32.4577 486.139 33.1268 486.139 33.881C486.139 34.3754 486.041 34.8633 485.845 35.3448C485.654 35.8263 485.311 36.3612 484.816 36.9492C484.322 37.533 483.625 38.234 482.726 39.0522L480.815 40.9251V41.0146H486.312V43.2773H476.98ZM493.45 43.565C492.351 43.5607 491.405 43.2901 490.612 42.7532C489.824 42.2163 489.217 41.4386 488.79 40.4201C488.369 39.4016 488.16 38.1765 488.164 36.7447C488.164 35.3171 488.375 34.1005 488.797 33.0948C489.223 32.0891 489.83 31.3242 490.619 30.8001C491.411 30.2717 492.355 30.0075 493.45 30.0075C494.545 30.0075 495.487 30.2717 496.276 30.8001C497.068 31.3285 497.678 32.0955 498.104 33.1012C498.53 34.1026 498.741 35.3171 498.736 36.7447C498.736 38.1808 498.523 39.408 498.097 40.4265C497.675 41.445 497.07 42.2227 496.282 42.7596C495.494 43.2965 494.55 43.565 493.45 43.565ZM493.45 41.2702C494.2 41.2702 494.799 40.8931 495.246 40.1388C495.694 39.3846 495.915 38.2532 495.911 36.7447C495.911 35.7518 495.809 34.9251 495.604 34.2646C495.404 33.604 495.119 33.1076 494.748 32.7752C494.381 32.4428 493.949 32.2766 493.45 32.2766C492.705 32.2766 492.108 32.6495 491.66 33.3952C491.213 34.141 490.987 35.2575 490.983 36.7447C490.983 37.7504 491.083 38.5898 491.283 39.2631C491.488 39.9322 491.776 40.435 492.146 40.7717C492.517 41.104 492.952 41.2702 493.45 41.2702ZM511.019 35.6516V37.8121H505.049V35.6516H511.019ZM521.877 44.9137V28.5501H522.926V44.9137H521.877ZM524.658 33.9513C524.607 33.4357 524.387 33.0352 523.999 32.7496C523.612 32.4641 523.085 32.3214 522.421 32.3214C521.969 32.3214 521.587 32.3853 521.276 32.5131C520.965 32.6367 520.727 32.8093 520.561 33.0309C520.399 33.2525 520.318 33.5039 520.318 33.7852C520.309 34.0195 520.358 34.2241 520.465 34.3988C520.575 34.5735 520.727 34.7248 520.918 34.8526C521.11 34.9762 521.332 35.0849 521.583 35.1786C521.835 35.2681 522.103 35.3448 522.389 35.4087L523.565 35.69C524.136 35.8178 524.66 35.9883 525.137 36.2013C525.614 36.4144 526.028 36.6765 526.377 36.9876C526.727 37.2987 526.997 37.6651 527.189 38.087C527.385 38.5089 527.485 38.9925 527.489 39.538C527.485 40.3391 527.281 41.0337 526.876 41.6218C526.475 42.2056 525.896 42.6594 525.137 42.9833C524.383 43.3029 523.473 43.4627 522.408 43.4627C521.351 43.4627 520.431 43.3008 519.646 42.9769C518.867 42.6531 518.257 42.1737 517.818 41.5387C517.384 40.8995 517.156 40.109 517.134 39.1673H519.813C519.842 39.6062 519.968 39.9727 520.19 40.2667C520.416 40.5565 520.716 40.7759 521.091 40.9251C521.47 41.07 521.899 41.1424 522.376 41.1424C522.845 41.1424 523.252 41.0742 523.597 40.9379C523.946 40.8015 524.217 40.6119 524.409 40.369C524.6 40.1261 524.696 39.8469 524.696 39.5316C524.696 39.2376 524.609 38.9904 524.434 38.7901C524.264 38.5898 524.012 38.4194 523.68 38.2788C523.352 38.1381 522.949 38.0103 522.472 37.8952L521.046 37.5373C519.943 37.2688 519.071 36.8491 518.432 36.2781C517.793 35.707 517.475 34.9379 517.48 33.9705C517.475 33.1779 517.686 32.4854 518.112 31.8931C518.543 31.3008 519.133 30.8384 519.883 30.506C520.633 30.1737 521.485 30.0075 522.44 30.0075C523.411 30.0075 524.259 30.1737 524.984 30.506C525.712 30.8384 526.279 31.3008 526.684 31.8931C527.089 32.4854 527.298 33.1715 527.311 33.9513H524.658ZM536.464 43.2773L532.718 30.1864H535.742L537.909 39.2823H538.017L540.408 30.1864H542.997L545.381 39.3015H545.496L547.663 30.1864H550.686L546.94 43.2773H544.243L541.75 34.7184H541.648L539.161 43.2773H536.464ZM556.808 43.2773H552.168V30.1864H556.847C558.163 30.1864 559.297 30.4485 560.247 30.9727C561.197 31.4925 561.928 32.2404 562.44 33.2163C562.955 34.1921 563.213 35.3597 563.213 36.7191C563.213 38.0827 562.955 39.2546 562.44 40.2347C561.928 41.2148 561.193 41.967 560.234 42.4911C559.28 43.0153 558.138 43.2773 556.808 43.2773ZM554.935 40.9059H556.693C557.511 40.9059 558.2 40.761 558.758 40.4712C559.32 40.1772 559.742 39.7234 560.023 39.1097C560.309 38.4918 560.452 37.695 560.452 36.7191C560.452 35.7518 560.309 34.9613 560.023 34.3477C559.742 33.734 559.322 33.2823 558.764 32.9925C558.206 32.7028 557.518 32.5579 556.7 32.5579H554.935V40.9059Z" fill="white"/>
<defs>
<filter id="filter0_d_524_17374" x="-4.1008e-05" y="0.000170708" width="961.116" height="95.9239" filterUnits="userSpaceOnUse" color-interpolation-filters="sRGB">
<feFlood flood-opacity="0" result="BackgroundImageFix"/>
<feColorMatrix in="SourceAlpha" type="matrix" values="0 0 0 0 0 0 0 0 0 0 0 0 0 0 0 0 0 0 127 0" result="hardAlpha"/>
<feOffset dy="5.18478"/>
<feGaussianBlur stdDeviation="6.48098"/>
<feComposite in2="hardAlpha" operator="out"/>
<feColorMatrix type="matrix" values="0 0 0 0 0 0 0 0 0 0 0 0 0 0 0 0 0 0 0.25 0"/>
<feBlend mode="normal" in2="BackgroundImageFix" result="effect1_dropShadow_524_17374"/>
<feBlend mode="normal" in="SourceGraphic" in2="effect1_dropShadow_524_17374" result="shape"/>
</filter>
<filter id="filter1_i_524_17374" x="14.5581" y="-2.59222" width="929.265" height="68.3696" filterUnits="userSpaceOnUse" color-interpolation-filters="sRGB">
<feFlood flood-opacity="0" result="BackgroundImageFix"/>
<feBlend mode="normal" in="SourceGraphic" in2="BackgroundImageFix" result="shape"/>
<feColorMatrix in="SourceAlpha" type="matrix" values="0 0 0 0 0 0 0 0 0 0 0 0 0 0 0 0 0 0 127 0" result="hardAlpha"/>
<feOffset dy="-10.3696"/>
<feGaussianBlur stdDeviation="6.48098"/>
<feComposite in2="hardAlpha" operator="arithmetic" k2="-1" k3="1"/>
<feColorMatrix type="matrix" values="0 0 0 0 0 0 0 0 0 0 0 0 0 0 0 0 0 0 0.25 0"/>
<feBlend mode="normal" in2="shape" result="effect1_innerShadow_524_17374"/>
</filter>
<linearGradient id="paint0_linear_524_17374" x1="811.55" y1="14.8666" x2="113.59" y2="14.8666" gradientUnits="userSpaceOnUse">
<stop stop-color="#020C7B"/>
<stop offset="0.5" stop-color="#040825"/>
<stop offset="1" stop-color="#000D61"/>
</linearGradient>
<linearGradient id="paint1_linear_524_17374" x1="803.951" y1="59.9844" x2="121.952" y2="59.9844" gradientUnits="userSpaceOnUse">
<stop stop-color="#020C7B"/>
<stop offset="0.5" stop-color="#040825"/>
<stop offset="1" stop-color="#000D61"/>
</linearGradient>
<linearGradient id="paint2_linear_524_17374" x1="931.714" y1="36.7779" x2="919.214" y2="36.7779" gradientUnits="userSpaceOnUse">
<stop stop-color="#020C7B"/>
<stop offset="0.5" stop-color="#040825"/>
<stop offset="1" stop-color="#000D61"/>
</linearGradient>
<linearGradient id="paint3_linear_524_17374" x1="50.9452" y1="37.7931" x2="8.30664" y2="37.7931" gradientUnits="userSpaceOnUse">
<stop stop-color="#020C7B"/>
<stop offset="0.5" stop-color="#040825"/>
<stop offset="1" stop-color="#000D61"/>
</linearGradient>
<linearGradient id="paint4_linear_524_17374" x1="86.6958" y1="53.8931" x2="52.585" y2="53.8931" gradientUnits="userSpaceOnUse">
<stop stop-color="#020C7B"/>
<stop offset="0.5" stop-color="#040825"/>
<stop offset="1" stop-color="#000D61"/>
</linearGradient>
<linearGradient id="paint5_linear_524_17374" x1="95.9147" y1="53.9073" x2="99.0223" y2="64.9436" gradientUnits="userSpaceOnUse">
<stop stop-color="#020C7B"/>
<stop offset="0.5" stop-color="#040825"/>
<stop offset="1" stop-color="#000D61"/>
</linearGradient>
<linearGradient id="paint6_linear_524_17374" x1="80.4238" y1="20.5794" x2="51.1698" y2="32.8346" gradientUnits="userSpaceOnUse">
<stop stop-color="#020C7B"/>
<stop offset="0.5" stop-color="#040825"/>
<stop offset="1" stop-color="#000D61"/>
</linearGradient>
<linearGradient id="paint7_linear_524_17374" x1="89.5641" y1="20.2114" x2="91.7903" y2="9.95337" gradientUnits="userSpaceOnUse">
<stop stop-color="#020C7B"/>
<stop offset="0.5" stop-color="#040825"/>
<stop offset="1" stop-color="#000D61"/>
</linearGradient>
<linearGradient id="paint8_linear_524_17374" x1="911.478" y1="18.8108" x2="918.168" y2="15.5206" gradientUnits="userSpaceOnUse">
<stop stop-color="#020C7B"/>
<stop offset="0.5" stop-color="#040825"/>
<stop offset="1" stop-color="#000D61"/>
</linearGradient>
<linearGradient id="paint9_linear_524_17374" x1="904.862" y1="18.3963" x2="903.547" y2="12.2302" gradientUnits="userSpaceOnUse">
<stop stop-color="#020C7B"/>
<stop offset="0.5" stop-color="#040825"/>
<stop offset="1" stop-color="#000D61"/>
</linearGradient>
<linearGradient id="paint10_linear_524_17374" x1="904.041" y1="52.35" x2="902.956" y2="57.4344" gradientUnits="userSpaceOnUse">
<stop stop-color="#020C7B"/>
<stop offset="0.5" stop-color="#040825"/>
<stop offset="1" stop-color="#000D61"/>
</linearGradient>
<linearGradient id="paint11_linear_524_17374" x1="910.926" y1="53.7445" x2="917.885" y2="56.7526" gradientUnits="userSpaceOnUse">
<stop stop-color="#020C7B"/>
<stop offset="0.5" stop-color="#040825"/>
<stop offset="1" stop-color="#000D61"/>
</linearGradient>
</defs>
</svg>
