<svg width="278" height="44" viewBox="10.8 6.48 278 44" fill="none" xmlns="http://www.w3.org/2000/svg">
<g filter="url(#filter0_d_817_15152)">
<g filter="url(#filter1_i_817_15152)">
<path d="M264.385 6.48145C268.325 6.48154 272.036 7.91933 274.401 10.3628L286.295 22.6517C289.638 26.1059 289.637 30.8583 286.294 34.3124L274.401 46.6001L273.942 47.0459C271.73 49.0725 268.54 50.3089 265.122 50.4648L264.387 50.4814H35.2177C31.5244 50.4814 28.0329 49.2171 25.6621 47.0459L25.2035 46.6001L13.3091 34.3124C9.96587 30.8582 9.96608 26.106 13.3091 22.6517L18.0112 17.7923C18.8364 16.7397 19.7912 15.7566 20.8561 14.8535L25.2035 10.3628C27.5686 7.91954 31.2783 6.48159 35.2177 6.48145H264.385Z" fill="url(#paint0_linear_817_15152)"/>
</g>
<g filter="url(#filter2_i_817_15152)">
<path fill-rule="evenodd" clip-rule="evenodd" d="M264.385 6.48145C268.325 6.48147 272.036 7.91927 274.401 10.3628L286.295 22.6517C289.638 26.106 289.637 30.8582 286.294 34.3123L274.401 46.6001L273.942 47.0459C271.729 49.0725 268.54 50.309 265.122 50.4648L264.387 50.4814H35.2177C31.5243 50.4814 28.0329 49.2172 25.6621 47.0459L25.2035 46.6001L13.3091 34.3123C9.96587 30.8582 9.96608 26.106 13.3091 22.6517L25.2035 10.3628C27.5686 7.91945 31.2782 6.48159 35.2177 6.48145H264.385ZM42.997 8.91884C42.961 8.93236 39.2766 10.3197 38.2918 11.7095C36.9162 13.6513 37.2932 17.0392 37.3441 17.2292L37.3486 17.2363L37.3456 17.2328V17.2363L37.3425 17.2304C37.1926 17.0757 35.1129 14.6185 32.324 14.1374C30.5429 13.8303 25.7897 14.6833 24.7465 14.8784L15.813 24.1099C13.3062 26.7005 13.306 30.2637 15.813 32.8542L26.4815 43.8758C28.0431 44.0956 32.7089 44.704 34.3479 44.3524C37.0984 43.7619 39.822 40.6664 39.9672 40.4995L39.9718 40.4924V40.4959L39.9703 40.4995C39.9321 40.6906 39.2139 44.4035 40.7163 46.2883C41.3672 47.105 43.1113 47.7043 44.3942 48.0535H254.923C256.059 47.8479 259.175 47.2058 260.154 46.1579C261.83 44.3643 261.464 40.6228 261.444 40.4272V40.4189L261.447 40.426C261.571 40.594 263.997 43.8434 266.687 44.5895C268.114 44.9849 271.291 44.4507 272.861 44.1437L283.791 32.8542C286.298 30.2638 286.298 26.7004 283.791 24.1099L272.579 12.5263C270.898 12.2286 268.397 11.887 267.176 12.2252C264.486 12.9713 262.06 16.2207 261.936 16.3887L261.933 16.3958C261.933 16.3958 261.933 16.3937 261.933 16.3911L261.932 16.3946L261.933 16.3875C261.953 16.1919 262.319 12.4504 260.643 10.6568C259.836 9.79269 257.575 9.20521 256.17 8.90936H42.7968C42.9213 8.91435 42.9916 8.91873 42.997 8.91884Z" fill="#00053D"/>
</g>
<path d="M46.2534 10.958L254.443 10.958" stroke="url(#paint1_linear_817_15152)" stroke-width="0.913018" stroke-linejoin="bevel"/>
<path d="M252.176 45.7939L48.7471 45.7939" stroke="url(#paint2_linear_817_15152)" stroke-width="0.913018" stroke-linejoin="bevel"/>
<path d="M271.906 40.5955L279.175 33.6828C282.208 30.7986 282.201 25.9609 279.161 23.0844L272.249 16.5439" stroke="url(#paint3_linear_817_15152)" stroke-width="0.913018" stroke-linejoin="bevel"/>
<path d="M27.567 40.0262L20.7432 33.7754C17.5773 30.8753 17.5836 25.8831 20.7569 22.991L25.7082 18.4785" stroke="url(#paint4_linear_817_15152)" stroke-width="0.913018" stroke-linejoin="bevel"/>
<path d="M28.3368 40.3489C28.1497 41.0443 27.9626 41.7397 27.7755 42.4351C27.9551 42.4647 28.1347 42.4944 28.3143 42.5241C29.7754 42.7655 31.2365 43.007 32.6975 43.2484L32.8385 43.3018L33.0913 43.2166C34.6468 42.32 36.2023 41.4233 37.7578 40.5266C37.9155 40.4357 38.0731 40.3448 38.2308 40.2539C38.0583 40.312 37.8858 40.3701 37.7133 40.4282C36.0118 41.0011 34.3102 41.5741 32.6087 42.147L33.0024 42.1152C31.6175 41.5909 30.2325 41.0666 28.8475 40.5423C28.6773 40.4778 28.507 40.4134 28.3368 40.3489Z" fill="url(#paint5_linear_817_15152)"/>
<path d="M47.4004 45.4872C47.0325 46.037 46.6646 46.5868 46.2967 47.1365C46.1659 47.0648 46.0352 46.993 45.9044 46.9212C44.8628 46.3492 43.8212 45.7772 42.7796 45.2053L42.5682 45.1425L42.4345 44.8531C42.2872 43.6199 42.1398 42.3867 41.9925 41.1535C41.9778 41.0306 41.9631 40.9077 41.9484 40.7848C42.0024 40.9015 42.0563 41.0182 42.1102 41.1349C42.6513 42.3058 43.1924 43.4767 43.7335 44.6476L43.3885 44.2954C44.5766 44.6484 45.7648 45.0013 46.9529 45.3543C47.1021 45.3986 47.2512 45.4429 47.4004 45.4872Z" fill="url(#paint6_linear_817_15152)"/>
<path d="M26.7308 18.2712C26.4302 17.6041 26.1296 16.9369 25.8289 16.2698C26.0023 16.2226 26.1757 16.1753 26.3491 16.1281C27.7592 15.7441 29.1692 15.3602 30.5793 14.9762L30.7122 14.9086L30.9794 14.9689C32.668 15.7045 34.3566 16.4402 36.0452 17.1759C36.2163 17.2505 36.3874 17.325 36.5585 17.3996C36.3779 17.3588 36.1972 17.3181 36.0166 17.2773C34.2342 16.8753 32.4517 16.4732 30.6692 16.0711L31.0694 16.0638C29.7816 16.719 28.4937 17.3743 27.2059 18.0295C27.0475 18.1101 26.8892 18.1906 26.7308 18.2712Z" fill="url(#paint7_linear_817_15152)"/>
<path d="M44.7445 11.3122C44.3261 10.7996 43.9077 10.2869 43.4893 9.77431C43.3697 9.85884 43.2501 9.94337 43.1306 10.0279C42.1838 10.6973 41.2369 11.3667 40.2901 12.0361L40.0703 12.1283L39.9788 12.4531C40.0335 13.6825 40.0883 14.912 40.143 16.1414C40.1485 16.2634 40.1539 16.3854 40.1593 16.5073C40.1935 16.3859 40.2278 16.2645 40.262 16.1431C40.607 14.9191 40.9519 13.6952 41.2969 12.4712L40.9856 12.8882C42.098 12.4218 43.2105 11.9553 44.323 11.4889C44.4635 11.43 44.604 11.3711 44.7445 11.3122Z" fill="url(#paint8_linear_817_15152)"/>
<path d="M271.792 16.133C271.934 15.4462 272.075 14.7595 272.216 14.0728C272.053 14.0481 271.89 14.0235 271.727 13.9989C270.627 13.8323 269.526 13.6657 268.425 13.4991L268.224 13.4229L267.909 13.5708C266.541 14.6661 265.172 15.7614 263.804 16.8567C263.682 16.9542 263.56 17.0517 263.439 17.1492C263.439 17.1492 263.439 17.1492 263.439 17.1492C263.581 17.0821 263.724 17.0151 263.867 16.948C265.472 16.1946 267.077 15.4411 268.682 14.6877L268.166 14.7594C269.219 15.1583 270.272 15.5572 271.325 15.9561C271.481 16.015 271.637 16.074 271.792 16.133Z" fill="url(#paint9_linear_817_15152)"/>
<path d="M255.687 11.6399C256.031 11.0909 256.376 10.5419 256.72 9.99295C256.841 10.0643 256.961 10.1357 257.082 10.207C258.031 10.7689 258.98 11.3307 259.929 11.8926L260.105 11.9485L260.27 12.2195C260.55 13.3821 260.83 14.5447 261.11 15.7073C261.138 15.8221 261.165 15.9369 261.193 16.0517C261.128 15.9448 261.063 15.8378 260.997 15.7309C260.336 14.6479 259.675 13.5649 259.014 12.4819L259.354 12.8089C258.27 12.4631 257.185 12.1174 256.1 11.7716C255.963 11.7277 255.825 11.6838 255.687 11.6399Z" fill="url(#paint10_linear_817_15152)"/>
<path d="M271.235 40.796C271.324 41.4972 271.413 42.1985 271.502 42.8997C271.341 42.9115 271.18 42.9232 271.018 42.9349C269.949 43.0126 268.88 43.0904 267.811 43.1681L267.641 43.2189L267.351 43.0888C265.957 42.0092 264.564 40.9297 263.17 39.8501C263.048 39.7551 262.925 39.6602 262.803 39.5652C262.803 39.5652 262.803 39.5652 262.803 39.5652C262.945 39.6294 263.088 39.6935 263.231 39.7577C264.856 40.4873 266.481 41.2169 268.105 41.9464L267.646 41.8671C268.685 41.5568 269.725 41.2466 270.765 40.9363C270.921 40.8895 271.078 40.8427 271.235 40.796Z" fill="url(#paint11_linear_817_15152)"/>
<path d="M254.417 44.9211C254.553 45.5375 254.69 46.1539 254.827 46.7703C254.981 46.7217 255.136 46.6731 255.291 46.6245C256.317 46.3027 257.343 45.981 258.368 45.6592L258.632 45.6302L258.89 45.3222C259.561 43.9017 260.231 42.4813 260.902 41.0609C260.961 40.936 261.02 40.8112 261.079 40.6864C261.079 40.6864 261.079 40.6864 261.079 40.6864C260.985 40.7986 260.891 40.9107 260.797 41.0229C259.729 42.2992 258.661 43.5755 257.593 44.8518L258.115 44.5147C257.044 44.6324 255.973 44.7501 254.902 44.8678C254.74 44.8856 254.578 44.9034 254.417 44.9211Z" fill="url(#paint12_linear_817_15152)"/>
<path d="M121.498 28.9351C121.498 30.1247 121.273 31.1368 120.822 31.9713C120.374 32.8058 119.764 33.4433 118.99 33.8836C118.219 34.3204 117.352 34.5388 116.39 34.5388C115.421 34.5388 114.551 34.3186 113.78 33.8783C113.009 33.4379 112.4 32.8005 111.953 31.966C111.506 31.1315 111.282 30.1212 111.282 28.9351C111.282 27.7455 111.506 26.7334 111.953 25.8989C112.4 25.0644 113.009 24.4287 113.78 23.9919C114.551 23.5516 115.421 23.3314 116.39 23.3314C117.352 23.3314 118.219 23.5516 118.99 23.9919C119.764 24.4287 120.374 25.0644 120.822 25.8989C121.273 26.7334 121.498 27.7455 121.498 28.9351ZM119.16 28.9351C119.16 28.1645 119.045 27.5146 118.814 26.9855C118.586 26.4564 118.265 26.0551 117.85 25.7817C117.434 25.5083 116.948 25.3715 116.39 25.3715C115.833 25.3715 115.346 25.5083 114.931 25.7817C114.515 26.0551 114.192 26.4564 113.961 26.9855C113.734 27.5146 113.62 28.1645 113.62 28.9351C113.62 29.7057 113.734 30.3556 113.961 30.8847C114.192 31.4138 114.515 31.8151 114.931 32.0885C115.346 32.3619 115.833 32.4987 116.39 32.4987C116.948 32.4987 117.434 32.3619 117.85 32.0885C118.265 31.8151 118.586 31.4138 118.814 30.8847C119.045 30.3556 119.16 29.7057 119.16 28.9351ZM123.164 37.4578V26.2078H125.402V27.5821H125.503C125.602 27.3619 125.746 27.1382 125.934 26.911C126.126 26.6801 126.375 26.4884 126.68 26.3357C126.989 26.1794 127.372 26.1013 127.831 26.1013C128.427 26.1013 128.978 26.2575 129.482 26.57C129.986 26.879 130.389 27.346 130.691 27.971C130.993 28.5924 131.144 29.3719 131.144 30.3094C131.144 31.222 130.996 31.9926 130.702 32.6212C130.41 33.2462 130.013 33.7203 129.508 34.0434C129.008 34.363 128.447 34.5228 127.825 34.5228C127.385 34.5228 127.01 34.45 126.701 34.3044C126.396 34.1588 126.146 33.9759 125.95 33.7558C125.755 33.532 125.606 33.3066 125.503 33.0793H125.434V37.4578H123.164ZM125.386 30.2987C125.386 30.7852 125.453 31.2096 125.588 31.5718C125.723 31.934 125.918 32.2164 126.174 32.4188C126.43 32.6176 126.74 32.7171 127.106 32.7171C127.475 32.7171 127.788 32.6159 128.044 32.4134C128.299 32.2075 128.493 31.9234 128.624 31.5612C128.759 31.1954 128.827 30.7746 128.827 30.2987C128.827 29.8264 128.761 29.411 128.63 29.0523C128.498 28.6936 128.305 28.4131 128.049 28.2107C127.793 28.0083 127.479 27.907 127.106 27.907C126.737 27.907 126.424 28.0047 126.169 28.2C125.916 28.3953 125.723 28.6723 125.588 29.031C125.453 29.3896 125.386 29.8122 125.386 30.2987ZM136.385 34.5494C135.544 34.5494 134.819 34.379 134.212 34.0381C133.608 33.6936 133.143 33.2071 132.816 32.5786C132.49 31.9465 132.326 31.199 132.326 30.336C132.326 29.4944 132.49 28.7558 132.816 28.1201C133.143 27.4845 133.603 26.9891 134.196 26.634C134.793 26.2789 135.492 26.1013 136.295 26.1013C136.834 26.1013 137.337 26.1883 137.802 26.3623C138.271 26.5328 138.679 26.7902 139.027 27.1347C139.379 27.4791 139.652 27.9124 139.848 28.4344C140.043 28.9529 140.141 29.5601 140.141 30.2561V30.8794H133.232V29.4731H138.005C138.005 29.1464 137.934 28.857 137.791 28.6048C137.649 28.3527 137.452 28.1556 137.2 28.0136C136.952 27.868 136.662 27.7952 136.332 27.7952C135.987 27.7952 135.682 27.8751 135.416 28.0349C135.153 28.1911 134.947 28.4024 134.798 28.6688C134.649 28.9316 134.572 29.2245 134.569 29.5477V30.8847C134.569 31.2895 134.643 31.6393 134.793 31.934C134.945 32.2288 135.16 32.4561 135.437 32.6159C135.714 32.7757 136.043 32.8556 136.422 32.8556C136.675 32.8556 136.905 32.82 137.115 32.749C137.324 32.678 137.504 32.5715 137.653 32.4294C137.802 32.2874 137.916 32.1134 137.994 31.9074L140.093 32.0459C139.986 32.5502 139.768 32.9905 139.437 33.3669C139.111 33.7398 138.688 34.031 138.17 34.2405C137.655 34.4465 137.06 34.5494 136.385 34.5494ZM143.891 29.6595V34.3896H141.621V26.2078H143.784V27.6514H143.88C144.061 27.1755 144.365 26.7991 144.791 26.5221C145.217 26.2416 145.734 26.1013 146.341 26.1013C146.909 26.1013 147.404 26.2256 147.827 26.4742C148.25 26.7227 148.578 27.0779 148.812 27.5395C149.047 27.9976 149.164 28.5445 149.164 29.1801V34.3896H146.895V29.585C146.898 29.0843 146.771 28.6936 146.511 28.4131C146.252 28.129 145.895 27.9869 145.441 27.9869C145.135 27.9869 144.865 28.0526 144.631 28.184C144.4 28.3154 144.219 28.5072 144.088 28.7593C143.96 29.0079 143.894 29.308 143.891 29.6595ZM154.467 34.3896V23.4806H158.771C159.598 23.4806 160.303 23.6386 160.885 23.9546C161.468 24.2671 161.912 24.7021 162.217 25.2597C162.526 25.8137 162.68 26.4529 162.68 27.1773C162.68 27.9017 162.524 28.5409 162.212 29.0949C161.899 29.6489 161.446 30.0803 160.853 30.3893C160.264 30.6982 159.55 30.8527 158.712 30.8527H155.969V29.0043H158.339C158.783 29.0043 159.149 28.928 159.437 28.7753C159.728 28.6191 159.944 28.4042 160.086 28.1308C160.232 27.8538 160.305 27.536 160.305 27.1773C160.305 26.8151 160.232 26.499 160.086 26.2291C159.944 25.9557 159.728 25.7444 159.437 25.5953C159.145 25.4426 158.776 25.3662 158.329 25.3662H156.773V34.3896H154.467ZM166.249 34.5441C165.727 34.5441 165.262 34.4536 164.854 34.2725C164.445 34.0878 164.122 33.8161 163.884 33.4575C163.65 33.0953 163.533 32.6443 163.533 32.1045C163.533 31.6499 163.616 31.2682 163.783 30.9593C163.95 30.6503 164.177 30.4017 164.465 30.2135C164.753 30.0253 165.079 29.8833 165.445 29.7874C165.814 29.6915 166.201 29.624 166.606 29.585C167.082 29.5352 167.466 29.4891 167.757 29.4465C168.048 29.4003 168.259 29.3328 168.391 29.2441C168.522 29.1553 168.588 29.0239 168.588 28.8499V28.8179C168.588 28.4806 168.481 28.2195 168.268 28.0349C168.059 27.8502 167.76 27.7579 167.373 27.7579C166.965 27.7579 166.64 27.8485 166.399 28.0296C166.157 28.2071 165.997 28.4308 165.919 28.7007L163.82 28.5303C163.927 28.0331 164.136 27.6034 164.449 27.2412C164.761 26.8754 165.165 26.5949 165.658 26.3996C166.155 26.2007 166.731 26.1013 167.384 26.1013C167.839 26.1013 168.274 26.1546 168.689 26.2611C169.108 26.3676 169.479 26.5328 169.802 26.7565C170.129 26.9802 170.386 27.2678 170.575 27.6194C170.763 27.9674 170.857 28.3847 170.857 28.8712V34.3896H168.705V33.2551H168.641C168.51 33.5107 168.334 33.7362 168.114 33.9316C167.894 34.1233 167.629 34.2742 167.32 34.3843C167.011 34.4909 166.654 34.5441 166.249 34.5441ZM166.899 32.9781C167.233 32.9781 167.528 32.9124 167.783 32.781C168.039 32.646 168.24 32.4649 168.385 32.2377C168.531 32.0104 168.604 31.7529 168.604 31.4653V30.597C168.533 30.6432 168.435 30.6858 168.311 30.7249C168.19 30.7604 168.053 30.7941 167.901 30.8261C167.748 30.8545 167.595 30.8811 167.443 30.906C167.29 30.9273 167.151 30.9468 167.027 30.9646C166.761 31.0036 166.528 31.0658 166.329 31.151C166.13 31.2362 165.976 31.3517 165.866 31.4972C165.756 31.6393 165.701 31.8169 165.701 32.0299C165.701 32.3389 165.813 32.575 166.036 32.7384C166.264 32.8982 166.551 32.9781 166.899 32.9781ZM176.314 34.5494C175.476 34.5494 174.755 34.3719 174.152 34.0168C173.551 33.6581 173.09 33.161 172.767 32.5253C172.447 31.8896 172.287 31.1581 172.287 30.3307C172.287 29.4926 172.449 28.7575 172.772 28.1254C173.099 27.4898 173.562 26.9944 174.162 26.6393C174.762 26.2806 175.476 26.1013 176.304 26.1013C177.017 26.1013 177.642 26.2309 178.179 26.4901C178.715 26.7494 179.139 27.1134 179.452 27.5821C179.764 28.0509 179.936 28.6013 179.968 29.2334H177.827C177.767 28.825 177.607 28.4965 177.348 28.248C177.092 27.9958 176.756 27.8698 176.341 27.8698C175.989 27.8698 175.682 27.9656 175.419 28.1574C175.16 28.3456 174.958 28.6208 174.812 28.983C174.666 29.3453 174.594 29.7838 174.594 30.2987C174.594 30.8208 174.665 31.2646 174.807 31.6304C174.952 31.9962 175.157 32.2749 175.419 32.4667C175.682 32.6585 175.989 32.7544 176.341 32.7544C176.6 32.7544 176.833 32.7011 177.039 32.5945C177.248 32.488 177.42 32.3335 177.555 32.1311C177.694 31.9252 177.784 31.6784 177.827 31.3907H179.968C179.933 32.0157 179.762 32.5661 179.457 33.042C179.155 33.5143 178.738 33.8836 178.205 34.1499C177.672 34.4163 177.042 34.5494 176.314 34.5494ZM183.477 32.0352L183.483 29.3133H183.813L186.434 26.2078H189.038L185.517 30.32H184.979L183.477 32.0352ZM181.421 34.3896V23.4806H183.69V34.3896H181.421ZM186.535 34.3896L184.127 30.8261L185.64 29.2227L189.193 34.3896H186.535Z" fill="white"/>
</g>
<defs>
<filter id="filter0_d_817_15152" x="0.000128746" y="0.000467777" width="299.603" height="65.6033" filterUnits="userSpaceOnUse" color-interpolation-filters="sRGB">
<feFlood flood-opacity="0" result="BackgroundImageFix"/>
<feColorMatrix in="SourceAlpha" type="matrix" values="0 0 0 0 0 0 0 0 0 0 0 0 0 0 0 0 0 0 127 0" result="hardAlpha"/>
<feOffset dy="4.32065"/>
<feGaussianBlur stdDeviation="5.40081"/>
<feComposite in2="hardAlpha" operator="out"/>
<feColorMatrix type="matrix" values="0 0 0 0 0 0 0 0 0 0 0 0 0 0 0 0 0 0 0.25 0"/>
<feBlend mode="normal" in2="BackgroundImageFix" result="effect1_dropShadow_817_15152"/>
<feBlend mode="normal" in="SourceGraphic" in2="effect1_dropShadow_817_15152" result="shape"/>
</filter>
<filter id="filter1_i_817_15152" x="10.8018" y="-2.15986" width="278" height="52.6413" filterUnits="userSpaceOnUse" color-interpolation-filters="sRGB">
<feFlood flood-opacity="0" result="BackgroundImageFix"/>
<feBlend mode="normal" in="SourceGraphic" in2="BackgroundImageFix" result="shape"/>
<feColorMatrix in="SourceAlpha" type="matrix" values="0 0 0 0 0 0 0 0 0 0 0 0 0 0 0 0 0 0 127 0" result="hardAlpha"/>
<feOffset dy="-8.6413"/>
<feGaussianBlur stdDeviation="5.40081"/>
<feComposite in2="hardAlpha" operator="arithmetic" k2="-1" k3="1"/>
<feColorMatrix type="matrix" values="0 0 0 0 0 0 0 0 0 0 0 0 0 0 0 0 0 0 0.25 0"/>
<feBlend mode="normal" in2="shape" result="effect1_innerShadow_817_15152"/>
</filter>
<filter id="filter2_i_817_15152" x="10.8018" y="6.48145" width="282.321" height="48.3207" filterUnits="userSpaceOnUse" color-interpolation-filters="sRGB">
<feFlood flood-opacity="0" result="BackgroundImageFix"/>
<feBlend mode="normal" in="SourceGraphic" in2="BackgroundImageFix" result="shape"/>
<feColorMatrix in="SourceAlpha" type="matrix" values="0 0 0 0 0 0 0 0 0 0 0 0 0 0 0 0 0 0 127 0" result="hardAlpha"/>
<feOffset dx="4.32065" dy="4.32065"/>
<feGaussianBlur stdDeviation="2.16033"/>
<feComposite in2="hardAlpha" operator="arithmetic" k2="-1" k3="1"/>
<feColorMatrix type="matrix" values="0 0 0 0 0 0 0 0 0 0 0 0 0 0 0 0 0 0 0.25 0"/>
<feBlend mode="normal" in2="shape" result="effect1_innerShadow_817_15152"/>
</filter>
<linearGradient id="paint0_linear_817_15152" x1="149.802" y1="6.48145" x2="149.802" y2="50.4814" gradientUnits="userSpaceOnUse">
<stop stop-color="#0144BD"/>
<stop offset="1" stop-color="#192871"/>
</linearGradient>
<linearGradient id="paint1_linear_817_15152" x1="254.443" y1="11.458" x2="46.2534" y2="11.458" gradientUnits="userSpaceOnUse">
<stop stop-color="#020C7B"/>
<stop offset="0.5" stop-color="#040825"/>
<stop offset="1" stop-color="#000D61"/>
</linearGradient>
<linearGradient id="paint2_linear_817_15152" x1="252.176" y1="46.2939" x2="48.7471" y2="46.2939" gradientUnits="userSpaceOnUse">
<stop stop-color="#020C7B"/>
<stop offset="0.5" stop-color="#040825"/>
<stop offset="1" stop-color="#000D61"/>
</linearGradient>
<linearGradient id="paint3_linear_817_15152" x1="284.754" y1="28.5697" x2="271.906" y2="28.5697" gradientUnits="userSpaceOnUse">
<stop stop-color="#020C7B"/>
<stop offset="0.5" stop-color="#040825"/>
<stop offset="1" stop-color="#000D61"/>
</linearGradient>
<linearGradient id="paint4_linear_817_15152" x1="27.567" y1="29.2524" x2="14.8486" y2="29.2524" gradientUnits="userSpaceOnUse">
<stop stop-color="#020C7B"/>
<stop offset="0.5" stop-color="#040825"/>
<stop offset="1" stop-color="#000D61"/>
</linearGradient>
<linearGradient id="paint5_linear_817_15152" x1="38.2308" y1="41.4679" x2="28.0562" y2="41.4679" gradientUnits="userSpaceOnUse">
<stop stop-color="#020C7B"/>
<stop offset="0.5" stop-color="#040825"/>
<stop offset="1" stop-color="#000D61"/>
</linearGradient>
<linearGradient id="paint6_linear_817_15152" x1="40.9806" y1="41.4779" x2="45.2581" y2="47.4509" gradientUnits="userSpaceOnUse">
<stop stop-color="#020C7B"/>
<stop offset="0.5" stop-color="#040825"/>
<stop offset="1" stop-color="#000D61"/>
</linearGradient>
<linearGradient id="paint7_linear_817_15152" x1="36.3601" y1="16.1954" x2="26.3737" y2="17.8403" gradientUnits="userSpaceOnUse">
<stop stop-color="#020C7B"/>
<stop offset="0.5" stop-color="#040825"/>
<stop offset="1" stop-color="#000D61"/>
</linearGradient>
<linearGradient id="paint8_linear_817_15152" x1="39.0861" y1="15.9149" x2="42.5334" y2="9.66925" gradientUnits="userSpaceOnUse">
<stop stop-color="#020C7B"/>
<stop offset="0.5" stop-color="#040825"/>
<stop offset="1" stop-color="#000D61"/>
</linearGradient>
<linearGradient id="paint9_linear_817_15152" x1="263.206" y1="15.9487" x2="271.845" y2="14.2782" gradientUnits="userSpaceOnUse">
<stop stop-color="#020C7B"/>
<stop offset="0.5" stop-color="#040825"/>
<stop offset="1" stop-color="#000D61"/>
</linearGradient>
<linearGradient id="paint10_linear_817_15152" x1="261.703" y1="15.7752" x2="258.375" y2="9.63888" gradientUnits="userSpaceOnUse">
<stop stop-color="#020C7B"/>
<stop offset="0.5" stop-color="#040825"/>
<stop offset="1" stop-color="#000D61"/>
</linearGradient>
<linearGradient id="paint11_linear_817_15152" x1="262.598" y1="40.7687" x2="271.3" y2="42.2478" gradientUnits="userSpaceOnUse">
<stop stop-color="#020C7B"/>
<stop offset="0.5" stop-color="#040825"/>
<stop offset="1" stop-color="#000D61"/>
</linearGradient>
<linearGradient id="paint12_linear_817_15152" x1="261.698" y1="41.009" x2="258.429" y2="47.2695" gradientUnits="userSpaceOnUse">
<stop stop-color="#020C7B"/>
<stop offset="0.5" stop-color="#040825"/>
<stop offset="1" stop-color="#000D61"/>
</linearGradient>
</defs>
</svg>
