<svg width="962" height="74" viewBox="0 0 962 74" fill="none" xmlns="http://www.w3.org/2000/svg">
<rect x="14.5576" y="7.77734" width="933.813" height="58" rx="16" fill="#000431"/>
<g filter="url(#filter0_d_580_15643)">
<g filter="url(#filter1_i_580_15643)">
<path d="M915.561 7.77734C920.121 7.77747 924.416 9.67274 927.154 12.8937L940.921 29.0927C944.79 33.646 944.789 39.9104 940.919 44.4635L927.154 60.661L926.623 61.2486C924.062 63.9201 920.37 65.5499 916.413 65.7555L915.562 65.7773H44.752C40.1845 65.7772 35.8668 64.1107 32.9349 61.2486L32.3678 60.661L17.6584 44.4635C13.5239 39.9103 13.5242 33.6461 17.6584 29.0927L24.0192 22.9506C25.0397 21.5629 26.5481 20.4124 27.8649 19.222L32.3678 12.8937C35.2926 9.67302 39.8802 7.77753 44.752 7.77734L915.561 7.77734Z" fill="#0144BD"/>
</g>
<path fill-rule="evenodd" clip-rule="evenodd" d="M918.246 7.77734C923.072 7.77737 927.617 9.67266 930.514 12.8937L945.084 29.0927C949.179 33.6461 949.177 39.9104 945.082 44.4635L930.514 60.661L929.953 61.2486C927.242 63.9202 923.336 65.55 919.149 65.7555L918.248 65.7773H42.8613C38.3384 65.7772 34.0629 64.1108 31.1597 61.2486L30.5981 60.661L16.0324 44.4635C11.9383 39.9103 11.9386 33.6461 16.0324 29.0927L30.5981 12.8937C33.4943 9.6729 38.037 7.77753 42.8613 7.77734H918.246ZM52.3877 10.9903C52.3436 11.0081 47.8317 12.8368 46.6258 14.6689C44.9412 17.2286 45.4029 21.6944 45.4652 21.9449L45.4708 21.9543L45.467 21.9496V21.9543L45.4633 21.9464C45.2796 21.7425 42.733 18.5035 39.3177 17.8693C37.1366 17.4645 31.3159 18.5889 30.0384 18.846L19.0986 31.0148C16.0288 34.4297 16.0286 39.1267 19.0986 42.5414L32.163 57.0699C34.0753 57.3596 39.789 58.1616 41.7961 57.6981C45.1644 56.9198 48.4996 52.8394 48.6774 52.6193L48.6831 52.6099V52.6146L48.6812 52.6193C48.6344 52.8712 47.7549 57.7655 49.5947 60.25C50.3919 61.3265 52.5276 62.1166 54.0986 62.5769H897.868C899.554 62.3059 911.864 61.4595 913.063 60.0781C915.116 57.7138 914.668 52.7818 914.644 52.524V52.5131L914.647 52.5224C914.799 52.7439 917.771 57.0273 921.066 58.0107C922.814 58.5319 926.705 57.8277 928.629 57.4231L942.017 42.5414C945.088 39.1268 945.087 34.4296 942.017 31.0148L928.282 15.7456C926.224 15.3532 923.16 14.9029 921.665 15.3487C918.37 16.3321 915.398 20.6155 915.246 20.8369L915.243 20.8463C915.243 20.8463 915.242 20.8435 915.243 20.84L915.241 20.8447L915.243 20.8354C915.268 20.5775 915.715 15.6455 913.662 13.2812C912.673 12.1422 909.904 11.3678 908.184 10.9778H52.1424C52.2949 10.9844 52.381 10.9901 52.3877 10.9903Z" fill="#00053D"/>
<path d="M56.333 15.2492L904.987 15.2451" stroke="url(#paint0_linear_580_15643)" stroke-width="1.09562" stroke-linejoin="bevel"/>
<path d="M899.899 60.1436L59.4326 60.1444" stroke="url(#paint1_linear_580_15643)" stroke-width="1.09562" stroke-linejoin="bevel"/>
<path d="M927.588 52.6301L938.251 43.0642C942.14 39.5751 942.132 33.4799 938.234 30.0008L928.066 20.9258" stroke="url(#paint2_linear_580_15643)" stroke-width="1.09562" stroke-linejoin="bevel"/>
<path d="M33.0967 52.5396L23.7738 43.4861C20.2225 40.0374 20.2298 34.3342 23.7898 30.8946L30.7853 24.1357" stroke="url(#paint3_linear_580_15643)" stroke-width="1.09562" stroke-linejoin="bevel"/>
<path d="M34.0616 53.0936C33.8246 53.9246 33.5875 54.7555 33.3505 55.5865C33.5747 55.628 33.7988 55.6695 34.023 55.7109C35.8397 56.047 37.6565 56.3832 39.4732 56.7193L39.6588 56.7919L39.9716 56.6772C41.9049 55.5155 43.8382 54.3538 45.7715 53.1921C45.9668 53.0747 46.1622 52.9573 46.3576 52.8398C46.1436 52.9183 45.9296 52.9967 45.7155 53.0751C43.5978 53.8512 41.48 54.6273 39.3622 55.4033L39.8606 55.3613C38.1399 54.6884 36.4192 54.0155 34.6985 53.3426C34.4862 53.2596 34.2739 53.1766 34.0616 53.0936Z" fill="url(#paint4_linear_580_15643)"/>
<path d="M58.4886 60.5384C57.5444 60.7299 56.6003 60.9214 55.6561 61.1129C55.4342 61.0002 55.2124 60.8874 54.9905 60.7747C53.8021 60.1709 52.6137 59.567 51.4253 58.9632L51.2636 58.9012L51.2 58.7735C51.1318 57.1569 51.0637 55.5402 50.9956 53.9236C50.9902 53.7957 50.9848 53.6678 50.9794 53.54C51.043 53.6675 51.1066 53.7951 51.1702 53.9226C51.9744 55.5354 52.7787 57.1482 53.5829 58.761L53.3576 58.5713C54.7988 59.1239 56.2401 59.6764 57.6814 60.229C57.9505 60.3321 58.2195 60.4353 58.4886 60.5384Z" fill="url(#paint5_linear_580_15643)"/>
<path d="M32.3889 23.6579C31.7937 22.9146 31.1986 22.1713 30.6034 21.428C30.8038 21.3708 31.0042 21.3136 31.2047 21.2564C33.0389 20.7331 34.8731 20.2098 36.7073 19.6864L36.8593 19.6024L37.2061 19.6959C39.3237 20.5995 41.4413 21.5031 43.559 22.4067C43.7983 22.5088 44.0376 22.611 44.277 22.7131C44.0336 22.6475 43.7903 22.5819 43.547 22.5163C41.3939 21.9359 39.2408 21.3555 37.0877 20.775L37.5865 20.7845C36.0246 21.648 34.4628 22.5114 32.9009 23.3749C32.7302 23.4692 32.5596 23.5636 32.3889 23.6579Z" fill="url(#paint6_linear_580_15643)"/>
<path d="M55.1361 13.8542C54.1622 13.7353 53.1884 13.6164 52.2145 13.4975C52.0184 13.6294 51.8223 13.7613 51.6262 13.8931C50.5396 14.6239 49.4529 15.3546 48.3663 16.0853L48.2233 16.1589L48.1799 16.2922C48.3571 17.9107 48.5344 19.5293 48.7117 21.1478C48.7259 21.2778 48.7401 21.4077 48.7543 21.5376C48.798 21.4034 48.8417 21.2691 48.8854 21.1349C49.4299 19.4628 49.9744 17.7906 50.5188 16.1185L50.3324 16.3253C51.6888 15.6276 53.0453 14.9298 54.4017 14.232C54.6465 14.1061 54.8913 13.9801 55.1361 13.8542Z" fill="url(#paint7_linear_580_15643)"/>
<path d="M926.846 21.188C927.123 20.5758 927.399 19.9637 927.676 19.3515C927.458 19.2554 927.241 19.1594 927.024 19.0633C925.612 18.4392 924.2 17.8152 922.789 17.1912L922.353 16.92L921.865 17.1207C920.396 18.2877 918.927 19.4547 917.458 20.6217C917.33 20.7232 917.203 20.8246 917.075 20.9261C917.238 20.859 917.401 20.7919 917.564 20.7248C919.441 19.9532 921.317 19.1815 923.194 18.4098L922.27 18.3394C923.592 19.1622 924.914 19.9851 926.236 20.8079C926.439 20.9346 926.643 21.0613 926.846 21.188Z" fill="url(#paint8_linear_580_15643)"/>
<path d="M907.378 15.4125C907.067 15.0229 906.755 14.6334 906.443 14.2438C906.717 14.2535 906.991 14.2632 907.265 14.2729C908.407 14.3134 909.549 14.3539 910.69 14.3943L911.765 14.3537L912.28 14.8304C912.898 16.1149 913.515 17.3995 914.133 18.6841C914.177 18.777 914.222 18.8698 914.267 18.9627C914.166 18.8697 914.066 18.7767 913.965 18.6837C912.575 17.3975 911.184 16.1112 909.794 14.825L911.384 15.261C910.307 15.3017 909.23 15.3425 908.153 15.3832C907.895 15.393 907.637 15.4027 907.378 15.4125Z" fill="url(#paint9_linear_580_15643)"/>
<path d="M901.847 59.0465C902.428 59.3188 903.008 59.5911 903.588 59.8634C903.89 59.7689 904.191 59.6743 904.492 59.5798C906.552 58.9332 908.612 58.2867 910.672 57.6402L910.998 57.5602L911.167 57.3826C911.847 56.016 912.526 54.6493 913.205 53.2827C913.266 53.1603 913.327 53.0379 913.388 52.9154C913.271 53.0384 913.154 53.1613 913.037 53.2842C911.73 54.6565 910.424 56.0287 909.118 57.401L909.613 57.1434C907.355 57.6968 905.097 58.2502 902.838 58.8037C902.508 58.8846 902.178 58.9656 901.847 59.0465Z" fill="url(#paint10_linear_580_15643)"/>
<path d="M927.051 52.3678C927.026 53.1245 927.001 53.8813 926.976 54.638C926.753 54.677 926.53 54.716 926.306 54.755C924.764 55.0244 923.222 55.2938 921.679 55.5632L921.422 55.6511L921.093 55.5179C919.561 54.3542 918.028 53.1906 916.496 52.027C916.357 51.9221 916.219 51.8172 916.081 51.7123C916.253 51.7819 916.424 51.8514 916.596 51.921C918.501 52.6925 920.406 53.4641 922.311 54.2357L921.725 54.1904C923.276 53.6597 924.827 53.129 926.378 52.5983C926.602 52.5214 926.827 52.4446 927.051 52.3678Z" fill="url(#paint11_linear_580_15643)"/>
</g>
<path d="M473.07 30.1864V43.2773H470.679L464.984 35.038H464.888V43.2773H462.12V30.1864H464.549L470.2 38.4194H470.315V30.1864H473.07ZM479.78 43.4691C478.77 43.4691 477.901 43.2646 477.172 42.8555C476.447 42.4421 475.889 41.8583 475.497 41.104C475.105 40.3455 474.909 39.4485 474.909 38.413C474.909 37.4031 475.105 36.5167 475.497 35.7539C475.889 34.9911 476.441 34.3967 477.153 33.9705C477.869 33.5444 478.708 33.3313 479.671 33.3313C480.319 33.3313 480.922 33.4357 481.48 33.6445C482.043 33.8491 482.533 34.158 482.95 34.5714C483.372 34.9847 483.7 35.5046 483.935 36.131C484.169 36.7532 484.286 37.4819 484.286 38.3171V39.065H475.996V37.3775H481.723C481.723 36.9854 481.638 36.6381 481.467 36.3356C481.297 36.033 481.06 35.7965 480.758 35.6261C480.46 35.4513 480.112 35.364 479.716 35.364C479.303 35.364 478.936 35.4599 478.616 35.6516C478.301 35.8391 478.054 36.0927 477.875 36.4123C477.696 36.7276 477.604 37.0792 477.6 37.467V39.0714C477.6 39.5572 477.69 39.9769 477.869 40.3306C478.052 40.6843 478.31 40.957 478.642 41.1488C478.974 41.3406 479.369 41.4364 479.825 41.4364C480.127 41.4364 480.404 41.3938 480.656 41.3086C480.907 41.2234 481.122 41.0955 481.301 40.9251C481.48 40.7546 481.616 40.5458 481.71 40.2987L484.229 40.4648C484.101 41.07 483.839 41.5984 483.442 42.0501C483.05 42.4975 482.543 42.8469 481.921 43.0984C481.303 43.3455 480.589 43.4691 479.78 43.4691ZM488.163 33.4592L489.966 36.8917L491.813 33.4592H494.606L491.762 38.3683L494.683 43.2773H491.902L489.966 39.8832L488.061 43.2773H485.248L488.163 38.3683L485.35 33.4592H488.163ZM501.446 33.4592V35.5046H495.533V33.4592H501.446ZM496.875 31.1069H499.598V40.2603C499.598 40.5117 499.637 40.7077 499.713 40.8484C499.79 40.9847 499.897 41.0806 500.033 41.136C500.174 41.1914 500.336 41.2191 500.519 41.2191C500.647 41.2191 500.775 41.2085 500.902 41.1871C501.03 41.1616 501.128 41.1424 501.196 41.1296L501.625 43.1559C501.488 43.1985 501.297 43.2475 501.049 43.3029C500.802 43.3626 500.502 43.3988 500.148 43.4116C499.492 43.4371 498.917 43.3498 498.422 43.1495C497.932 42.9492 497.551 42.6381 497.278 42.2163C497.005 41.7944 496.871 41.2617 496.875 40.6183V31.1069Z" fill="white"/>
<defs>
<filter id="filter0_d_580_15643" x="-4.1008e-05" y="0.000170708" width="961.116" height="95.9239" filterUnits="userSpaceOnUse" color-interpolation-filters="sRGB">
<feFlood flood-opacity="0" result="BackgroundImageFix"/>
<feColorMatrix in="SourceAlpha" type="matrix" values="0 0 0 0 0 0 0 0 0 0 0 0 0 0 0 0 0 0 127 0" result="hardAlpha"/>
<feOffset dy="5.18478"/>
<feGaussianBlur stdDeviation="6.48098"/>
<feComposite in2="hardAlpha" operator="out"/>
<feColorMatrix type="matrix" values="0 0 0 0 0 0 0 0 0 0 0 0 0 0 0 0 0 0 0.25 0"/>
<feBlend mode="normal" in2="BackgroundImageFix" result="effect1_dropShadow_580_15643"/>
<feBlend mode="normal" in="SourceGraphic" in2="effect1_dropShadow_580_15643" result="shape"/>
</filter>
<filter id="filter1_i_580_15643" x="14.5576" y="-2.59222" width="929.265" height="68.3696" filterUnits="userSpaceOnUse" color-interpolation-filters="sRGB">
<feFlood flood-opacity="0" result="BackgroundImageFix"/>
<feBlend mode="normal" in="SourceGraphic" in2="BackgroundImageFix" result="shape"/>
<feColorMatrix in="SourceAlpha" type="matrix" values="0 0 0 0 0 0 0 0 0 0 0 0 0 0 0 0 0 0 127 0" result="hardAlpha"/>
<feOffset dy="-10.3696"/>
<feGaussianBlur stdDeviation="6.48098"/>
<feComposite in2="hardAlpha" operator="arithmetic" k2="-1" k3="1"/>
<feColorMatrix type="matrix" values="0 0 0 0 0 0 0 0 0 0 0 0 0 0 0 0 0 0 0.25 0"/>
<feBlend mode="normal" in2="shape" result="effect1_innerShadow_580_15643"/>
</filter>
<linearGradient id="paint0_linear_580_15643" x1="811.55" y1="14.8666" x2="113.591" y2="14.8666" gradientUnits="userSpaceOnUse">
<stop stop-color="#020C7B"/>
<stop offset="0.5" stop-color="#040825"/>
<stop offset="1" stop-color="#000D61"/>
</linearGradient>
<linearGradient id="paint1_linear_580_15643" x1="803.95" y1="59.9844" x2="121.952" y2="59.9844" gradientUnits="userSpaceOnUse">
<stop stop-color="#020C7B"/>
<stop offset="0.5" stop-color="#040825"/>
<stop offset="1" stop-color="#000D61"/>
</linearGradient>
<linearGradient id="paint2_linear_580_15643" x1="931.713" y1="36.7779" x2="919.213" y2="36.7779" gradientUnits="userSpaceOnUse">
<stop stop-color="#020C7B"/>
<stop offset="0.5" stop-color="#040825"/>
<stop offset="1" stop-color="#000D61"/>
</linearGradient>
<linearGradient id="paint3_linear_580_15643" x1="50.9452" y1="37.7931" x2="8.30664" y2="37.7931" gradientUnits="userSpaceOnUse">
<stop stop-color="#020C7B"/>
<stop offset="0.5" stop-color="#040825"/>
<stop offset="1" stop-color="#000D61"/>
</linearGradient>
<linearGradient id="paint4_linear_580_15643" x1="86.6958" y1="53.8931" x2="52.585" y2="53.8931" gradientUnits="userSpaceOnUse">
<stop stop-color="#020C7B"/>
<stop offset="0.5" stop-color="#040825"/>
<stop offset="1" stop-color="#000D61"/>
</linearGradient>
<linearGradient id="paint5_linear_580_15643" x1="95.9147" y1="53.9073" x2="99.0223" y2="64.9436" gradientUnits="userSpaceOnUse">
<stop stop-color="#020C7B"/>
<stop offset="0.5" stop-color="#040825"/>
<stop offset="1" stop-color="#000D61"/>
</linearGradient>
<linearGradient id="paint6_linear_580_15643" x1="80.4238" y1="20.5794" x2="51.1698" y2="32.8346" gradientUnits="userSpaceOnUse">
<stop stop-color="#020C7B"/>
<stop offset="0.5" stop-color="#040825"/>
<stop offset="1" stop-color="#000D61"/>
</linearGradient>
<linearGradient id="paint7_linear_580_15643" x1="89.5636" y1="20.2114" x2="91.7899" y2="9.95337" gradientUnits="userSpaceOnUse">
<stop stop-color="#020C7B"/>
<stop offset="0.5" stop-color="#040825"/>
<stop offset="1" stop-color="#000D61"/>
</linearGradient>
<linearGradient id="paint8_linear_580_15643" x1="911.478" y1="18.8108" x2="918.168" y2="15.5206" gradientUnits="userSpaceOnUse">
<stop stop-color="#020C7B"/>
<stop offset="0.5" stop-color="#040825"/>
<stop offset="1" stop-color="#000D61"/>
</linearGradient>
<linearGradient id="paint9_linear_580_15643" x1="904.861" y1="18.3963" x2="903.546" y2="12.2302" gradientUnits="userSpaceOnUse">
<stop stop-color="#020C7B"/>
<stop offset="0.5" stop-color="#040825"/>
<stop offset="1" stop-color="#000D61"/>
</linearGradient>
<linearGradient id="paint10_linear_580_15643" x1="904.04" y1="52.35" x2="902.956" y2="57.4344" gradientUnits="userSpaceOnUse">
<stop stop-color="#020C7B"/>
<stop offset="0.5" stop-color="#040825"/>
<stop offset="1" stop-color="#000D61"/>
</linearGradient>
<linearGradient id="paint11_linear_580_15643" x1="910.926" y1="53.7445" x2="917.885" y2="56.7526" gradientUnits="userSpaceOnUse">
<stop stop-color="#020C7B"/>
<stop offset="0.5" stop-color="#040825"/>
<stop offset="1" stop-color="#000D61"/>
</linearGradient>
</defs>
</svg>
