<svg width="962" height="74" viewBox="0 0 962 74" fill="none" xmlns="http://www.w3.org/2000/svg">
<rect x="14.5581" y="7.77734" width="933.813" height="58" rx="16" fill="#000431"/>
<g filter="url(#filter0_d_524_17375)">
<g filter="url(#filter1_i_524_17375)">
<path d="M915.561 7.77734C920.121 7.77747 924.416 9.67274 927.154 12.8937L940.922 29.0927C944.791 33.646 944.789 39.9104 940.92 44.4635L927.154 60.661L926.623 61.2486C924.062 63.9201 920.37 65.5499 916.414 65.7555L915.563 65.7773H44.7524C40.185 65.7772 35.8673 64.1107 32.9354 61.2486L32.3683 60.661L17.6589 44.4635C13.5244 39.9103 13.5247 33.6461 17.6589 29.0927L24.0197 22.9506C25.0402 21.5629 26.5486 20.4124 27.8654 19.222L32.3683 12.8937C35.2931 9.67302 39.8807 7.77753 44.7524 7.77734L915.561 7.77734Z" fill="#0144BD"/>
</g>
<path fill-rule="evenodd" clip-rule="evenodd" d="M918.246 7.77734C923.072 7.77737 927.617 9.67266 930.514 12.8937L945.084 29.0927C949.179 33.6461 949.177 39.9104 945.082 44.4635L930.514 60.661L929.953 61.2486C927.242 63.9202 923.336 65.55 919.149 65.7555L918.248 65.7773H42.8613C38.3384 65.7772 34.0629 64.1108 31.1597 61.2486L30.5981 60.661L16.0324 44.4635C11.9383 39.9103 11.9386 33.6461 16.0324 29.0927L30.5981 12.8937C33.4943 9.6729 38.037 7.77753 42.8613 7.77734H918.246ZM52.3877 10.9903C52.3436 11.0081 47.8317 12.8368 46.6258 14.6689C44.9412 17.2286 45.4029 21.6944 45.4652 21.9449L45.4708 21.9543L45.467 21.9496V21.9543L45.4633 21.9464C45.2796 21.7425 42.733 18.5035 39.3177 17.8693C37.1366 17.4645 31.3159 18.5889 30.0384 18.846L19.0986 31.0148C16.0288 34.4297 16.0286 39.1267 19.0986 42.5414L32.163 57.0699C34.0753 57.3596 39.789 58.1616 41.7961 57.6981C45.1644 56.9198 48.4996 52.8394 48.6774 52.6193L48.6831 52.6099V52.6146L48.6812 52.6193C48.6344 52.8712 47.7549 57.7655 49.5947 60.25C50.3919 61.3265 52.5276 62.1166 54.0986 62.5769H897.868C899.554 62.3059 911.864 61.4595 913.063 60.0781C915.116 57.7138 914.668 52.7818 914.644 52.524V52.5131L914.647 52.5224C914.799 52.7439 917.771 57.0273 921.066 58.0107C922.814 58.5319 926.705 57.8277 928.629 57.4231L942.017 42.5414C945.088 39.1268 945.087 34.4296 942.017 31.0148L928.282 15.7456C926.224 15.3532 923.16 14.9029 921.665 15.3487C918.37 16.3321 915.398 20.6155 915.246 20.8369L915.243 20.8463C915.243 20.8463 915.242 20.8435 915.243 20.84L915.241 20.8447L915.243 20.8354C915.268 20.5775 915.715 15.6455 913.662 13.2812C912.673 12.1422 909.904 11.3678 908.184 10.9778H52.1424C52.2949 10.9844 52.381 10.9901 52.3877 10.9903Z" fill="#00053D"/>
<path d="M56.3325 15.2492L904.987 15.2451" stroke="url(#paint0_linear_524_17375)" stroke-width="1.09562" stroke-linejoin="bevel"/>
<path d="M899.9 60.1436L59.4331 60.1444" stroke="url(#paint1_linear_524_17375)" stroke-width="1.09562" stroke-linejoin="bevel"/>
<path d="M927.588 52.6301L938.251 43.0642C942.14 39.5751 942.132 33.4799 938.234 30.0008L928.067 20.9258" stroke="url(#paint2_linear_524_17375)" stroke-width="1.09562" stroke-linejoin="bevel"/>
<path d="M33.0967 52.5396L23.7738 43.4861C20.2225 40.0374 20.2298 34.3342 23.7898 30.8946L30.7853 24.1357" stroke="url(#paint3_linear_524_17375)" stroke-width="1.09562" stroke-linejoin="bevel"/>
<path d="M34.0616 53.0926C33.8246 53.9236 33.5875 54.7546 33.3505 55.5856C33.5747 55.627 33.7988 55.6685 34.023 55.71C35.8397 56.0461 37.6565 56.3822 39.4732 56.7183L39.6588 56.7909L39.9716 56.6763C41.9049 55.5145 43.8382 54.3528 45.7715 53.1911C45.9668 53.0737 46.1622 52.9563 46.3576 52.8389C46.1436 52.9173 45.9296 52.9957 45.7155 53.0742C43.5978 53.8502 41.48 54.6263 39.3622 55.4023L39.8606 55.3603C38.1399 54.6874 36.4192 54.0145 34.6985 53.3416C34.4862 53.2586 34.2739 53.1756 34.0616 53.0926Z" fill="url(#paint4_linear_524_17375)"/>
<path d="M58.4886 60.5394C57.5444 60.7309 56.6003 60.9224 55.6561 61.1139C55.4342 61.0011 55.2124 60.8884 54.9905 60.7757C53.8021 60.1718 52.6137 59.568 51.4253 58.9642L51.2636 58.9022L51.2 58.7745C51.1318 57.1578 51.0637 55.5412 50.9956 53.9245C50.9902 53.7967 50.9848 53.6688 50.9794 53.5409C51.043 53.6685 51.1066 53.7961 51.1702 53.9236C51.9744 55.5364 52.7787 57.1492 53.5829 58.762L53.3576 58.5723C54.7988 59.1248 56.2401 59.6774 57.6814 60.2299C57.9505 60.3331 58.2195 60.4362 58.4886 60.5394Z" fill="url(#paint5_linear_524_17375)"/>
<path d="M32.3889 23.6579C31.7937 22.9146 31.1986 22.1713 30.6034 21.428C30.8038 21.3708 31.0042 21.3136 31.2047 21.2564C33.0389 20.7331 34.8731 20.2098 36.7073 19.6864L36.8593 19.6024L37.2061 19.6959C39.3237 20.5995 41.4413 21.5031 43.559 22.4067C43.7983 22.5088 44.0376 22.611 44.277 22.7131C44.0336 22.6475 43.7903 22.5819 43.547 22.5163C41.3939 21.9359 39.2408 21.3555 37.0877 20.775L37.5865 20.7845C36.0246 21.648 34.4628 22.5114 32.9009 23.3749C32.7302 23.4692 32.5596 23.5636 32.3889 23.6579Z" fill="url(#paint6_linear_524_17375)"/>
<path d="M55.1366 13.8542C54.1627 13.7353 53.1888 13.6164 52.215 13.4975C52.0189 13.6294 51.8228 13.7613 51.6267 13.8931C50.5401 14.6239 49.4534 15.3546 48.3668 16.0853L48.2238 16.1589L48.1804 16.2922C48.3576 17.9107 48.5349 19.5293 48.7121 21.1478C48.7264 21.2778 48.7406 21.4077 48.7548 21.5376C48.7985 21.4034 48.8422 21.2691 48.8859 21.1349C49.4304 19.4628 49.9748 17.7906 50.5193 16.1185L50.3329 16.3253C51.6893 15.6276 53.0458 14.9298 54.4022 14.232C54.647 14.1061 54.8918 13.9801 55.1366 13.8542Z" fill="url(#paint7_linear_524_17375)"/>
<path d="M926.846 21.188C927.122 20.5758 927.399 19.9637 927.675 19.3515C927.458 19.2554 927.241 19.1594 927.023 19.0633C925.612 18.4392 924.2 17.8152 922.788 17.1912L922.353 16.92L921.864 17.1207C920.396 18.2877 918.927 19.4547 917.458 20.6217C917.33 20.7232 917.202 20.8246 917.075 20.9261C917.238 20.859 917.401 20.7919 917.564 20.7248C919.44 19.9532 921.317 19.1815 923.193 18.4098L922.27 18.3394C923.591 19.1622 924.913 19.9851 926.235 20.8079C926.439 20.9346 926.642 21.0613 926.846 21.188Z" fill="url(#paint8_linear_524_17375)"/>
<path d="M907.379 15.4125C907.067 15.0229 906.756 14.6334 906.444 14.2438C906.718 14.2535 906.992 14.2632 907.266 14.2729C908.407 14.3134 909.549 14.3539 910.691 14.3943L911.765 14.3537L912.281 14.8304C912.898 16.1149 913.516 17.3995 914.133 18.6841C914.178 18.777 914.223 18.8698 914.267 18.9627C914.167 18.8697 914.066 18.7767 913.966 18.6837C912.575 17.3975 911.185 16.1112 909.794 14.825L911.384 15.261C910.307 15.3017 909.231 15.3425 908.154 15.3832C907.896 15.393 907.637 15.4027 907.379 15.4125Z" fill="url(#paint9_linear_524_17375)"/>
<path d="M901.848 59.0465C902.428 59.3188 903.008 59.5911 903.589 59.8634C903.89 59.7689 904.191 59.6743 904.493 59.5798C906.552 58.9332 908.612 58.2867 910.672 57.6402L910.999 57.5602L911.168 57.3826C911.847 56.016 912.526 54.6493 913.206 53.2827C913.266 53.1603 913.327 53.0379 913.388 52.9154C913.271 53.0384 913.154 53.1613 913.037 53.2842C911.731 54.6565 910.424 56.0287 909.118 57.401L909.614 57.1434C907.355 57.6968 905.097 58.2502 902.839 58.8037C902.508 58.8846 902.178 58.9656 901.848 59.0465Z" fill="url(#paint10_linear_524_17375)"/>
<path d="M927.051 52.3678C927.026 53.1245 927.001 53.8813 926.976 54.638C926.752 54.677 926.529 54.716 926.306 54.755C924.763 55.0244 923.221 55.2938 921.679 55.5632L921.422 55.6511L921.093 55.5179C919.56 54.3542 918.028 53.1906 916.495 52.027C916.357 51.9221 916.219 51.8172 916.081 51.7123C916.252 51.7819 916.424 51.8514 916.596 51.921C918.501 52.6925 920.405 53.4641 922.31 54.2357L921.724 54.1904C923.275 53.6597 924.826 53.129 926.377 52.5983C926.602 52.5214 926.826 52.4446 927.051 52.3678Z" fill="url(#paint11_linear_524_17375)"/>
</g>
<path d="M426.895 36.7319C426.895 38.1594 426.624 39.3739 426.083 40.3754C425.546 41.3768 424.813 42.1417 423.884 42.6701C422.959 43.1942 421.92 43.4563 420.765 43.4563C419.601 43.4563 418.557 43.1921 417.633 42.6637C416.708 42.1353 415.977 41.3704 415.44 40.369C414.903 39.3675 414.635 38.1552 414.635 36.7319C414.635 35.3043 414.903 34.0898 415.44 33.0884C415.977 32.087 416.708 31.3242 417.633 30.8001C418.557 30.2717 419.601 30.0075 420.765 30.0075C421.92 30.0075 422.959 30.2717 423.884 30.8001C424.813 31.3242 425.546 32.087 426.083 33.0884C426.624 34.0898 426.895 35.3043 426.895 36.7319ZM424.089 36.7319C424.089 35.8072 423.95 35.0273 423.673 34.3924C423.4 33.7575 423.015 33.2759 422.516 32.9478C422.018 32.6197 421.434 32.4556 420.765 32.4556C420.096 32.4556 419.512 32.6197 419.013 32.9478C418.515 33.2759 418.127 33.7575 417.85 34.3924C417.577 35.0273 417.441 35.8072 417.441 36.7319C417.441 37.6566 417.577 38.4364 417.85 39.0714C418.127 39.7063 418.515 40.1879 419.013 40.516C419.512 40.8441 420.096 41.0082 420.765 41.0082C421.434 41.0082 422.018 40.8441 422.516 40.516C423.015 40.1879 423.4 39.7063 423.673 39.0714C423.95 38.4364 424.089 37.6566 424.089 36.7319ZM428.894 46.9592V33.4592H431.578V35.1083H431.7C431.819 34.8441 431.992 34.5756 432.218 34.3029C432.448 34.0259 432.746 33.7958 433.113 33.6126C433.483 33.4251 433.943 33.3313 434.493 33.3313C435.209 33.3313 435.87 33.5188 436.475 33.8938C437.08 34.2646 437.564 34.8249 437.926 35.5749C438.288 36.3207 438.469 37.256 438.469 38.381C438.469 39.4762 438.292 40.4009 437.939 41.1552C437.589 41.9052 437.112 42.4741 436.507 42.8619C435.906 43.2454 435.233 43.4371 434.487 43.4371C433.958 43.4371 433.509 43.3498 433.138 43.1751C432.772 43.0004 432.471 42.7809 432.237 42.5167C432.002 42.2482 431.823 41.9776 431.7 41.7049H431.617V46.9592H428.894ZM431.559 38.3683C431.559 38.9521 431.64 39.4613 431.802 39.896C431.964 40.3306 432.198 40.6694 432.505 40.9123C432.812 41.1509 433.185 41.2702 433.624 41.2702C434.067 41.2702 434.442 41.1488 434.749 40.9059C435.056 40.6587 435.288 40.3178 435.446 39.8832C435.608 39.4442 435.689 38.9393 435.689 38.3683C435.689 37.8015 435.61 37.3029 435.452 36.8725C435.294 36.4421 435.062 36.1055 434.755 35.8626C434.448 35.6197 434.071 35.4982 433.624 35.4982C433.181 35.4982 432.806 35.6154 432.499 35.8498C432.196 36.0842 431.964 36.4165 431.802 36.8469C431.64 37.2773 431.559 37.7844 431.559 38.3683ZM444.759 43.4691C443.749 43.4691 442.88 43.2646 442.151 42.8555C441.426 42.4421 440.868 41.8583 440.476 41.104C440.084 40.3455 439.888 39.4485 439.888 38.413C439.888 37.4031 440.084 36.5167 440.476 35.7539C440.868 34.9911 441.42 34.3967 442.132 33.9705C442.848 33.5444 443.687 33.3313 444.65 33.3313C445.298 33.3313 445.901 33.4357 446.459 33.6445C447.022 33.8491 447.512 34.158 447.929 34.5714C448.351 34.9847 448.679 35.5046 448.914 36.131C449.148 36.7532 449.265 37.4819 449.265 38.3171V39.065H440.975V37.3775H446.702C446.702 36.9854 446.617 36.6381 446.446 36.3356C446.276 36.033 446.039 35.7965 445.737 35.6261C445.439 35.4513 445.091 35.364 444.695 35.364C444.282 35.364 443.915 35.4599 443.595 35.6516C443.28 35.8391 443.033 36.0927 442.854 36.4123C442.675 36.7276 442.583 37.0792 442.579 37.467V39.0714C442.579 39.5572 442.669 39.9769 442.848 40.3306C443.031 40.6843 443.289 40.957 443.621 41.1488C443.953 41.3406 444.348 41.4364 444.804 41.4364C445.106 41.4364 445.383 41.3938 445.635 41.3086C445.886 41.2234 446.101 41.0955 446.28 40.9251C446.459 40.7546 446.595 40.5458 446.689 40.2987L449.208 40.4648C449.08 41.07 448.818 41.5984 448.421 42.0501C448.029 42.4975 447.522 42.8469 446.9 43.0984C446.282 43.3455 445.568 43.4691 444.759 43.4691ZM453.765 37.6012V43.2773H451.042V33.4592H453.637V35.1914H453.752C453.97 34.6204 454.334 34.1687 454.845 33.8363C455.357 33.4996 455.977 33.3313 456.706 33.3313C457.387 33.3313 457.982 33.4805 458.489 33.7788C458.996 34.0771 459.39 34.5032 459.671 35.0572C459.953 35.6069 460.093 36.2631 460.093 37.0259V43.2773H457.37V37.5117C457.375 36.9109 457.221 36.4421 456.91 36.1055C456.599 35.7646 456.171 35.5941 455.625 35.5941C455.259 35.5941 454.935 35.6729 454.654 35.8306C454.377 35.9883 454.159 36.2184 454.002 36.521C453.848 36.8192 453.769 37.1793 453.765 37.6012ZM468.681 33.4592L470.484 36.8917L472.331 33.4592H475.124L472.28 38.3683L475.201 43.2773H472.42L470.484 39.8832L468.579 43.2773H465.766L468.681 38.3683L465.869 33.4592H468.681ZM481.555 43.4563C480.6 43.4563 479.75 43.2923 479.004 42.9641C478.263 42.6317 477.677 42.1758 477.246 41.5962C476.82 41.0124 476.601 40.3391 476.588 39.5763H479.375C479.392 39.896 479.496 40.1772 479.688 40.4201C479.884 40.6587 480.144 40.8441 480.468 40.9762C480.792 41.1083 481.156 41.1744 481.561 41.1744C481.983 41.1744 482.356 41.0998 482.68 40.9506C483.004 40.8015 483.257 40.5948 483.44 40.3306C483.624 40.0664 483.715 39.7617 483.715 39.4165C483.715 39.0671 483.617 38.7582 483.421 38.4897C483.229 38.217 482.952 38.0039 482.59 37.8505C482.232 37.6971 481.806 37.6204 481.312 37.6204H480.091V35.5877H481.312C481.729 35.5877 482.098 35.5153 482.418 35.3704C482.741 35.2255 482.993 35.0252 483.172 34.7695C483.351 34.5096 483.44 34.207 483.44 33.8619C483.44 33.5337 483.361 33.2461 483.204 32.9989C483.05 32.7475 482.833 32.5515 482.552 32.4109C482.275 32.2702 481.951 32.1999 481.58 32.1999C481.205 32.1999 480.862 32.2681 480.551 32.4045C480.24 32.5366 479.991 32.7262 479.803 32.9734C479.616 33.2205 479.516 33.5103 479.503 33.8427H476.85C476.863 33.0884 477.078 32.4237 477.496 31.8484C477.913 31.2731 478.476 30.8235 479.183 30.4996C479.895 30.1715 480.698 30.0075 481.593 30.0075C482.496 30.0075 483.287 30.1715 483.964 30.4996C484.642 30.8278 485.168 31.271 485.543 31.8292C485.923 32.3832 486.11 33.0053 486.106 33.6957C486.11 34.4286 485.882 35.0401 485.422 35.5302C484.966 36.0202 484.371 36.3313 483.638 36.4634V36.5657C484.602 36.6893 485.334 37.0238 485.837 37.5692C486.344 38.1104 486.596 38.788 486.592 39.6019C486.596 40.3477 486.381 41.0103 485.946 41.5898C485.516 42.1694 484.921 42.6254 484.163 42.9577C483.404 43.2901 482.535 43.4563 481.555 43.4563ZM493.714 43.565C492.614 43.5607 491.668 43.2901 490.876 42.7532C490.087 42.2163 489.48 41.4386 489.054 40.4201C488.632 39.4016 488.423 38.1765 488.428 36.7447C488.428 35.3171 488.639 34.1005 489.061 33.0948C489.487 32.0891 490.094 31.3242 490.882 30.8001C491.675 30.2717 492.619 30.0075 493.714 30.0075C494.809 30.0075 495.751 30.2717 496.539 30.8001C497.332 31.3285 497.941 32.0955 498.367 33.1012C498.793 34.1026 499.004 35.3171 499 36.7447C499 38.1808 498.787 39.408 498.361 40.4265C497.939 41.445 497.334 42.2227 496.546 42.7596C495.757 43.2965 494.813 43.565 493.714 43.565ZM493.714 41.2702C494.464 41.2702 495.063 40.8931 495.51 40.1388C495.958 39.3846 496.179 38.2532 496.175 36.7447C496.175 35.7518 496.073 34.9251 495.868 34.2646C495.668 33.604 495.382 33.1076 495.011 32.7752C494.645 32.4428 494.212 32.2766 493.714 32.2766C492.968 32.2766 492.372 32.6495 491.924 33.3952C491.477 34.141 491.251 35.2575 491.247 36.7447C491.247 37.7504 491.347 38.5898 491.547 39.2631C491.752 39.9322 492.039 40.435 492.41 40.7717C492.781 41.104 493.215 41.2702 493.714 41.2702ZM511.282 35.6516V37.8121H505.312V35.6516H511.282ZM522.141 44.9137V28.5501H523.189V44.9137H522.141ZM524.921 33.9513C524.87 33.4357 524.651 33.0352 524.263 32.7496C523.875 32.4641 523.349 32.3214 522.684 32.3214C522.233 32.3214 521.851 32.3853 521.54 32.5131C521.229 32.6367 520.99 32.8093 520.824 33.0309C520.662 33.2525 520.581 33.5039 520.581 33.7852C520.573 34.0195 520.622 34.2241 520.728 34.3988C520.839 34.5735 520.99 34.7248 521.182 34.8526C521.374 34.9762 521.595 35.0849 521.847 35.1786C522.098 35.2681 522.367 35.3448 522.652 35.4087L523.828 35.69C524.399 35.8178 524.924 35.9883 525.401 36.2013C525.878 36.4144 526.292 36.6765 526.641 36.9876C526.99 37.2987 527.261 37.6651 527.453 38.087C527.649 38.5089 527.749 38.9925 527.753 39.538C527.749 40.3391 527.544 41.0337 527.14 41.6218C526.739 42.2056 526.159 42.6594 525.401 42.9833C524.647 43.3029 523.737 43.4627 522.671 43.4627C521.615 43.4627 520.694 43.3008 519.91 42.9769C519.13 42.6531 518.521 42.1737 518.082 41.5387C517.647 40.8995 517.419 40.109 517.398 39.1673H520.076C520.106 39.6062 520.232 39.9727 520.453 40.2667C520.679 40.5565 520.98 40.7759 521.355 40.9251C521.734 41.07 522.162 41.1424 522.64 41.1424C523.108 41.1424 523.515 41.0742 523.86 40.9379C524.21 40.8015 524.48 40.6119 524.672 40.369C524.864 40.1261 524.96 39.8469 524.96 39.5316C524.96 39.2376 524.872 38.9904 524.698 38.7901C524.527 38.5898 524.276 38.4194 523.943 38.2788C523.615 38.1381 523.213 38.0103 522.735 37.8952L521.31 37.5373C520.206 37.2688 519.335 36.8491 518.696 36.2781C518.056 35.707 517.739 34.9379 517.743 33.9705C517.739 33.1779 517.95 32.4854 518.376 31.8931C518.806 31.3008 519.397 30.8384 520.147 30.506C520.897 30.1737 521.749 30.0075 522.703 30.0075C523.675 30.0075 524.523 30.1737 525.247 30.506C525.976 30.8384 526.543 31.3008 526.948 31.8931C527.353 32.4854 527.561 33.1715 527.574 33.9513H524.921ZM536.728 43.2773L532.982 30.1864H536.005L538.172 39.2823H538.281L540.671 30.1864H543.26L545.644 39.3015H545.76L547.926 30.1864H550.95L547.204 43.2773H544.507L542.014 34.7184H541.912L539.425 43.2773H536.728ZM557.072 43.2773H552.431V30.1864H557.11C558.427 30.1864 559.561 30.4485 560.511 30.9727C561.461 31.4925 562.192 32.2404 562.703 33.2163C563.219 34.1921 563.477 35.3597 563.477 36.7191C563.477 38.0827 563.219 39.2546 562.703 40.2347C562.192 41.2148 561.457 41.967 560.498 42.4911C559.543 43.0153 558.401 43.2773 557.072 43.2773ZM555.199 40.9059H556.957C557.775 40.9059 558.463 40.761 559.021 40.4712C559.584 40.1772 560.006 39.7234 560.287 39.1097C560.573 38.4918 560.715 37.695 560.715 36.7191C560.715 35.7518 560.573 34.9613 560.287 34.3477C560.006 33.734 559.586 33.2823 559.028 32.9925C558.47 32.7028 557.781 32.5579 556.963 32.5579H555.199V40.9059Z" fill="white"/>
<defs>
<filter id="filter0_d_524_17375" x="-4.1008e-05" y="0.000170708" width="961.116" height="95.9229" filterUnits="userSpaceOnUse" color-interpolation-filters="sRGB">
<feFlood flood-opacity="0" result="BackgroundImageFix"/>
<feColorMatrix in="SourceAlpha" type="matrix" values="0 0 0 0 0 0 0 0 0 0 0 0 0 0 0 0 0 0 127 0" result="hardAlpha"/>
<feOffset dy="5.18478"/>
<feGaussianBlur stdDeviation="6.48098"/>
<feComposite in2="hardAlpha" operator="out"/>
<feColorMatrix type="matrix" values="0 0 0 0 0 0 0 0 0 0 0 0 0 0 0 0 0 0 0.25 0"/>
<feBlend mode="normal" in2="BackgroundImageFix" result="effect1_dropShadow_524_17375"/>
<feBlend mode="normal" in="SourceGraphic" in2="effect1_dropShadow_524_17375" result="shape"/>
</filter>
<filter id="filter1_i_524_17375" x="14.5581" y="-2.59222" width="929.265" height="68.3686" filterUnits="userSpaceOnUse" color-interpolation-filters="sRGB">
<feFlood flood-opacity="0" result="BackgroundImageFix"/>
<feBlend mode="normal" in="SourceGraphic" in2="BackgroundImageFix" result="shape"/>
<feColorMatrix in="SourceAlpha" type="matrix" values="0 0 0 0 0 0 0 0 0 0 0 0 0 0 0 0 0 0 127 0" result="hardAlpha"/>
<feOffset dy="-10.3696"/>
<feGaussianBlur stdDeviation="6.48098"/>
<feComposite in2="hardAlpha" operator="arithmetic" k2="-1" k3="1"/>
<feColorMatrix type="matrix" values="0 0 0 0 0 0 0 0 0 0 0 0 0 0 0 0 0 0 0.25 0"/>
<feBlend mode="normal" in2="shape" result="effect1_innerShadow_524_17375"/>
</filter>
<linearGradient id="paint0_linear_524_17375" x1="811.55" y1="14.8666" x2="113.59" y2="14.8666" gradientUnits="userSpaceOnUse">
<stop stop-color="#020C7B"/>
<stop offset="0.5" stop-color="#040825"/>
<stop offset="1" stop-color="#000D61"/>
</linearGradient>
<linearGradient id="paint1_linear_524_17375" x1="803.951" y1="59.9844" x2="121.952" y2="59.9844" gradientUnits="userSpaceOnUse">
<stop stop-color="#020C7B"/>
<stop offset="0.5" stop-color="#040825"/>
<stop offset="1" stop-color="#000D61"/>
</linearGradient>
<linearGradient id="paint2_linear_524_17375" x1="931.714" y1="36.7779" x2="919.214" y2="36.7779" gradientUnits="userSpaceOnUse">
<stop stop-color="#020C7B"/>
<stop offset="0.5" stop-color="#040825"/>
<stop offset="1" stop-color="#000D61"/>
</linearGradient>
<linearGradient id="paint3_linear_524_17375" x1="50.9452" y1="37.7931" x2="8.30664" y2="37.7931" gradientUnits="userSpaceOnUse">
<stop stop-color="#020C7B"/>
<stop offset="0.5" stop-color="#040825"/>
<stop offset="1" stop-color="#000D61"/>
</linearGradient>
<linearGradient id="paint4_linear_524_17375" x1="86.6958" y1="53.8921" x2="52.585" y2="53.8921" gradientUnits="userSpaceOnUse">
<stop stop-color="#020C7B"/>
<stop offset="0.5" stop-color="#040825"/>
<stop offset="1" stop-color="#000D61"/>
</linearGradient>
<linearGradient id="paint5_linear_524_17375" x1="95.9147" y1="53.9082" x2="99.0223" y2="64.9446" gradientUnits="userSpaceOnUse">
<stop stop-color="#020C7B"/>
<stop offset="0.5" stop-color="#040825"/>
<stop offset="1" stop-color="#000D61"/>
</linearGradient>
<linearGradient id="paint6_linear_524_17375" x1="80.4238" y1="20.5794" x2="51.1698" y2="32.8346" gradientUnits="userSpaceOnUse">
<stop stop-color="#020C7B"/>
<stop offset="0.5" stop-color="#040825"/>
<stop offset="1" stop-color="#000D61"/>
</linearGradient>
<linearGradient id="paint7_linear_524_17375" x1="89.5641" y1="20.2114" x2="91.7903" y2="9.95337" gradientUnits="userSpaceOnUse">
<stop stop-color="#020C7B"/>
<stop offset="0.5" stop-color="#040825"/>
<stop offset="1" stop-color="#000D61"/>
</linearGradient>
<linearGradient id="paint8_linear_524_17375" x1="911.478" y1="18.8108" x2="918.168" y2="15.5206" gradientUnits="userSpaceOnUse">
<stop stop-color="#020C7B"/>
<stop offset="0.5" stop-color="#040825"/>
<stop offset="1" stop-color="#000D61"/>
</linearGradient>
<linearGradient id="paint9_linear_524_17375" x1="904.862" y1="18.3963" x2="903.547" y2="12.2302" gradientUnits="userSpaceOnUse">
<stop stop-color="#020C7B"/>
<stop offset="0.5" stop-color="#040825"/>
<stop offset="1" stop-color="#000D61"/>
</linearGradient>
<linearGradient id="paint10_linear_524_17375" x1="904.041" y1="52.35" x2="902.956" y2="57.4344" gradientUnits="userSpaceOnUse">
<stop stop-color="#020C7B"/>
<stop offset="0.5" stop-color="#040825"/>
<stop offset="1" stop-color="#000D61"/>
</linearGradient>
<linearGradient id="paint11_linear_524_17375" x1="910.926" y1="53.7445" x2="917.885" y2="56.7526" gradientUnits="userSpaceOnUse">
<stop stop-color="#020C7B"/>
<stop offset="0.5" stop-color="#040825"/>
<stop offset="1" stop-color="#000D61"/>
</linearGradient>
</defs>
</svg>
