<svg width="977" height="64" viewBox="0 0 977 64" fill="none" xmlns="http://www.w3.org/2000/svg">
<g filter="url(#filter0_d_784_18634)">
<path d="M943.82 7.77734C949.716 7.77735 955.122 11.095 957.846 16.3848L961.955 24.3633C964.341 28.996 964.341 34.5157 961.955 39.1484L957.846 47.127C955.122 52.4165 949.716 55.7344 943.82 55.7344H37.8037C30.4519 55.7344 23.7094 52.4155 20.3132 47.125L15.192 39.1465C12.2186 34.5144 12.2185 28.9963 15.192 24.3643L20.3132 16.3857C23.7094 11.0953 30.4519 7.77734 37.8037 7.77734L943.82 7.77734Z" fill="url(#paint0_linear_784_18634)"/>
<path d="M37.8037 8.77734H943.82C949.337 8.77735 954.403 11.882 956.957 16.8428L961.065 24.8213C963.303 29.1668 963.303 34.345 961.065 38.6904L956.957 46.6689C954.402 51.6295 949.337 54.7344 943.82 54.7344H37.8037C30.7253 54.7344 24.334 51.5363 21.1553 46.585L16.0332 38.6064C13.2711 34.3035 13.271 29.2072 16.0332 24.9043L21.1553 16.9258L21.1543 16.9248C24.333 11.9736 30.7253 8.77734 37.8037 8.77734Z" stroke="url(#paint1_linear_784_18634)" stroke-width="2"/>
</g>
<path d="M422.668 25.1649L425.832 35.111H425.953L429.124 25.1649H432.192L427.679 38.2559H424.112L419.593 25.1649H422.668ZM433.717 38.2559V28.4377H436.44V38.2559H433.717ZM435.084 27.1721C434.68 27.1721 434.332 27.0378 434.043 26.7694C433.757 26.4966 433.614 26.1706 433.614 25.7914C433.614 25.4164 433.757 25.0946 434.043 24.8262C434.332 24.5534 434.68 24.4171 435.084 24.4171C435.489 24.4171 435.834 24.5534 436.12 24.8262C436.41 25.0946 436.555 25.4164 436.555 25.7914C436.555 26.1706 436.41 26.4966 436.12 26.7694C435.834 27.0378 435.489 27.1721 435.084 27.1721ZM443.095 38.4476C442.085 38.4476 441.216 38.2431 440.487 37.834C439.763 37.4206 439.205 36.8368 438.813 36.0826C438.421 35.324 438.225 34.427 438.225 33.3915C438.225 32.3816 438.421 31.4952 438.813 30.7324C439.205 29.9696 439.756 29.3752 440.468 28.949C441.184 28.5229 442.024 28.3098 442.987 28.3098C443.634 28.3098 444.237 28.4142 444.796 28.623C445.358 28.8276 445.848 29.1365 446.266 29.5499C446.688 29.9632 447.016 30.4831 447.25 31.1096C447.484 31.7317 447.602 32.4604 447.602 33.2956V34.0435H439.311V32.356H445.038C445.038 31.964 444.953 31.6167 444.783 31.3141C444.612 31.0115 444.376 30.775 444.073 30.6046C443.775 30.4299 443.428 30.3425 443.031 30.3425C442.618 30.3425 442.252 30.4384 441.932 30.6301C441.617 30.8176 441.369 31.0712 441.19 31.3908C441.011 31.7061 440.92 32.0577 440.916 32.4455V34.0499C440.916 34.5357 441.005 34.9554 441.184 35.3091C441.367 35.6628 441.625 35.9355 441.957 36.1273C442.29 36.3191 442.684 36.415 443.14 36.415C443.443 36.415 443.72 36.3723 443.971 36.2871C444.222 36.2019 444.438 36.074 444.617 35.9036C444.796 35.7331 444.932 35.5243 445.026 35.2772L447.544 35.4434C447.416 36.0485 447.154 36.5769 446.758 37.0286C446.366 37.476 445.859 37.8255 445.237 38.0769C444.619 38.324 443.905 38.4476 443.095 38.4476ZM451.245 38.2559L448.573 28.4377H451.328L452.85 35.0343H452.939L454.524 28.4377H457.228L458.839 34.9959H458.922L460.418 28.4377H463.166L460.501 38.2559H457.618L455.93 32.0811H455.809L454.122 38.2559H451.245ZM480.386 29.748H477.587C477.536 29.3858 477.431 29.0641 477.274 28.7828C477.116 28.4973 476.913 28.2544 476.666 28.0542C476.419 27.8539 476.134 27.7005 475.81 27.5939C475.49 27.4874 475.143 27.4341 474.768 27.4341C474.09 27.4341 473.5 27.6025 472.997 27.9391C472.494 28.2715 472.104 28.7573 471.828 29.3965C471.551 30.0314 471.412 30.8027 471.412 31.7104C471.412 32.6436 471.551 33.4277 471.828 34.0627C472.109 34.6976 472.501 35.177 473.004 35.5009C473.506 35.8248 474.088 35.9867 474.749 35.9867C475.119 35.9867 475.462 35.9377 475.778 35.8397C476.097 35.7417 476.381 35.5989 476.628 35.4114C476.875 35.2196 477.08 34.9874 477.242 34.7147C477.408 34.4419 477.523 34.1309 477.587 33.7814L480.386 33.7942C480.314 34.3951 480.133 34.9746 479.843 35.5328C479.558 36.0868 479.172 36.5833 478.686 37.0222C478.205 37.4569 477.629 37.802 476.96 38.0577C476.296 38.3091 475.543 38.4348 474.704 38.4348C473.536 38.4348 472.492 38.1706 471.572 37.6422C470.656 37.1138 469.931 36.3489 469.399 35.3475C468.87 34.3461 468.606 33.1337 468.606 31.7104C468.606 30.2828 468.874 29.0684 469.411 28.0669C469.948 27.0655 470.677 26.3027 471.597 25.7786C472.518 25.2502 473.553 24.986 474.704 24.986C475.462 24.986 476.166 25.0925 476.813 25.3056C477.465 25.5186 478.043 25.8297 478.546 26.2388C479.048 26.6436 479.457 27.1401 479.773 27.7282C480.092 28.3162 480.297 28.9895 480.386 29.748ZM486.756 38.4476C485.763 38.4476 484.905 38.2367 484.18 37.8148C483.46 37.3887 482.904 36.7963 482.512 36.0378C482.12 35.275 481.924 34.3908 481.924 33.3851C481.924 32.3709 482.12 31.4846 482.512 30.726C482.904 29.9632 483.46 29.3709 484.18 28.949C484.905 28.5229 485.763 28.3098 486.756 28.3098C487.749 28.3098 488.606 28.5229 489.326 28.949C490.05 29.3709 490.608 29.9632 491 30.726C491.392 31.4846 491.589 32.3709 491.589 33.3851C491.589 34.3908 491.392 35.275 491 36.0378C490.608 36.7963 490.05 37.3887 489.326 37.8148C488.606 38.2367 487.749 38.4476 486.756 38.4476ZM486.769 36.3382C487.221 36.3382 487.598 36.2104 487.9 35.9547C488.203 35.6948 488.431 35.3411 488.584 34.8936C488.742 34.4462 488.821 33.937 488.821 33.3659C488.821 32.7949 488.742 32.2857 488.584 31.8382C488.431 31.3908 488.203 31.0371 487.9 30.7772C487.598 30.5172 487.221 30.3873 486.769 30.3873C486.313 30.3873 485.929 30.5172 485.618 30.7772C485.312 31.0371 485.079 31.3908 484.922 31.8382C484.768 32.2857 484.691 32.7949 484.691 33.3659C484.691 33.937 484.768 34.4462 484.922 34.8936C485.079 35.3411 485.312 35.6948 485.618 35.9547C485.929 36.2104 486.313 36.3382 486.769 36.3382ZM496.082 25.1649V38.2559H493.359V25.1649H496.082ZM500.986 25.1649V38.2559H498.263V25.1649H500.986ZM507.642 38.4476C506.632 38.4476 505.763 38.2431 505.034 37.834C504.31 37.4206 503.752 36.8368 503.359 36.0826C502.967 35.324 502.771 34.427 502.771 33.3915C502.771 32.3816 502.967 31.4952 503.359 30.7324C503.752 29.9696 504.303 29.3752 505.015 28.949C505.731 28.5229 506.57 28.3098 507.533 28.3098C508.181 28.3098 508.784 28.4142 509.342 28.623C509.905 28.8276 510.395 29.1365 510.813 29.5499C511.234 29.9632 511.563 30.4831 511.797 31.1096C512.031 31.7317 512.149 32.4604 512.149 33.2956V34.0435H503.858V32.356H509.585C509.585 31.964 509.5 31.6167 509.33 31.3141C509.159 31.0115 508.923 30.775 508.62 30.6046C508.322 30.4299 507.975 30.3425 507.578 30.3425C507.165 30.3425 506.798 30.4384 506.479 30.6301C506.163 30.8176 505.916 31.0712 505.737 31.3908C505.558 31.7061 505.467 32.0577 505.462 32.4455V34.0499C505.462 34.5357 505.552 34.9554 505.731 35.3091C505.914 35.6628 506.172 35.9355 506.504 36.1273C506.837 36.3191 507.231 36.415 507.687 36.415C507.989 36.415 508.266 36.3723 508.518 36.2871C508.769 36.2019 508.984 36.074 509.163 35.9036C509.342 35.7331 509.479 35.5243 509.573 35.2772L512.091 35.4434C511.963 36.0485 511.701 36.5769 511.305 37.0286C510.913 37.476 510.406 37.8255 509.783 38.0769C509.166 38.324 508.452 38.4476 507.642 38.4476ZM518.362 38.4476C517.356 38.4476 516.491 38.2346 515.766 37.8084C515.046 37.378 514.492 36.7814 514.104 36.0186C513.721 35.2559 513.529 34.378 513.529 33.3851C513.529 32.3794 513.723 31.4973 514.111 30.7388C514.503 29.976 515.059 29.3816 515.779 28.9554C516.499 28.525 517.356 28.3098 518.349 28.3098C519.205 28.3098 519.955 28.4654 520.599 28.7765C521.242 29.0875 521.752 29.5243 522.127 30.0868C522.502 30.6493 522.708 31.3098 522.747 32.0684H520.177C520.104 31.5783 519.913 31.1841 519.602 30.8858C519.295 30.5833 518.892 30.432 518.394 30.432C517.972 30.432 517.603 30.5471 517.288 30.7772C516.977 31.003 516.734 31.3333 516.559 31.7679C516.384 32.2026 516.297 32.7289 516.297 33.3468C516.297 33.9732 516.382 34.5059 516.553 34.9448C516.727 35.3837 516.972 35.7182 517.288 35.9483C517.603 36.1784 517.972 36.2935 518.394 36.2935C518.705 36.2935 518.984 36.2296 519.231 36.1017C519.482 35.9739 519.689 35.7885 519.851 35.5456C520.017 35.2985 520.126 35.0023 520.177 34.6571H522.747C522.704 35.4071 522.499 36.0676 522.133 36.6387C521.771 37.2054 521.27 37.6486 520.631 37.9682C519.992 38.2878 519.235 38.4476 518.362 38.4476ZM529.712 28.4377V30.4831H523.8V28.4377H529.712ZM525.142 26.0854H527.865V35.2388C527.865 35.4902 527.903 35.6863 527.98 35.8269C528.057 35.9632 528.163 36.0591 528.3 36.1145C528.44 36.1699 528.602 36.1976 528.785 36.1976C528.913 36.1976 529.041 36.187 529.169 36.1657C529.297 36.1401 529.395 36.1209 529.463 36.1081L529.891 38.1344C529.755 38.177 529.563 38.226 529.316 38.2814C529.069 38.3411 528.768 38.3773 528.415 38.3901C527.758 38.4157 527.183 38.3283 526.689 38.128C526.199 37.9277 525.817 37.6167 525.545 37.1948C525.272 36.7729 525.138 36.2402 525.142 35.5968V26.0854ZM531.486 38.2559V28.4377H534.209V38.2559H531.486ZM532.854 27.1721C532.449 27.1721 532.102 27.0378 531.812 26.7694C531.527 26.4966 531.384 26.1706 531.384 25.7914C531.384 25.4164 531.527 25.0946 531.812 24.8262C532.102 24.5534 532.449 24.4171 532.854 24.4171C533.259 24.4171 533.604 24.5534 533.889 24.8262C534.179 25.0946 534.324 25.4164 534.324 25.7914C534.324 26.1706 534.179 26.4966 533.889 26.7694C533.604 27.0378 533.259 27.1721 532.854 27.1721ZM540.826 38.4476C539.834 38.4476 538.975 38.2367 538.25 37.8148C537.53 37.3887 536.974 36.7963 536.582 36.0378C536.19 35.275 535.994 34.3908 535.994 33.3851C535.994 32.3709 536.19 31.4846 536.582 30.726C536.974 29.9632 537.53 29.3709 538.25 28.949C538.975 28.5229 539.834 28.3098 540.826 28.3098C541.819 28.3098 542.676 28.5229 543.396 28.949C544.12 29.3709 544.679 29.9632 545.071 30.726C545.463 31.4846 545.659 32.3709 545.659 33.3851C545.659 34.3908 545.463 35.275 545.071 36.0378C544.679 36.7963 544.12 37.3887 543.396 37.8148C542.676 38.2367 541.819 38.4476 540.826 38.4476ZM540.839 36.3382C541.291 36.3382 541.668 36.2104 541.971 35.9547C542.273 35.6948 542.501 35.3411 542.655 34.8936C542.812 34.4462 542.891 33.937 542.891 33.3659C542.891 32.7949 542.812 32.2857 542.655 31.8382C542.501 31.3908 542.273 31.0371 541.971 30.7772C541.668 30.5172 541.291 30.3873 540.839 30.3873C540.383 30.3873 540 30.5172 539.689 30.7772C539.382 31.0371 539.15 31.3908 538.992 31.8382C538.839 32.2857 538.762 32.7949 538.762 33.3659C538.762 33.937 538.839 34.4462 538.992 34.8936C539.15 35.3411 539.382 35.6948 539.689 35.9547C540 36.2104 540.383 36.3382 540.839 36.3382ZM550.152 32.5797V38.2559H547.429V28.4377H550.025V30.1699H550.14C550.357 29.5989 550.721 29.1472 551.233 28.8148C551.744 28.4782 552.364 28.3098 553.093 28.3098C553.775 28.3098 554.369 28.459 554.876 28.7573C555.383 29.0556 555.777 29.4817 556.059 30.0357C556.34 30.5854 556.481 31.2417 556.481 32.0044V38.2559H553.758V32.4902C553.762 31.8894 553.608 31.4206 553.297 31.084C552.986 30.7431 552.558 30.5726 552.013 30.5726C551.646 30.5726 551.322 30.6515 551.041 30.8091C550.764 30.9668 550.547 31.1969 550.389 31.4995C550.236 31.7978 550.157 32.1578 550.152 32.5797Z" fill="white"/>
<defs>
<filter id="filter0_d_784_18634" x="-4.1008e-05" y="0.000170708" width="976.706" height="73.8809" filterUnits="userSpaceOnUse" color-interpolation-filters="sRGB">
<feFlood flood-opacity="0" result="BackgroundImageFix"/>
<feColorMatrix in="SourceAlpha" type="matrix" values="0 0 0 0 0 0 0 0 0 0 0 0 0 0 0 0 0 0 127 0" result="hardAlpha"/>
<feOffset dy="5.18478"/>
<feGaussianBlur stdDeviation="6.48098"/>
<feComposite in2="hardAlpha" operator="out"/>
<feColorMatrix type="matrix" values="0 0 0 0 0 0 0 0 0 0 0 0 0 0 0 0 0 0 0.25 0"/>
<feBlend mode="normal" in2="BackgroundImageFix" result="effect1_dropShadow_784_18634"/>
<feBlend mode="normal" in="SourceGraphic" in2="effect1_dropShadow_784_18634" result="shape"/>
</filter>
<linearGradient id="paint0_linear_784_18634" x1="488.353" y1="7.77734" x2="488.353" y2="55.7344" gradientUnits="userSpaceOnUse">
<stop stop-color="#0144BD"/>
<stop offset="1" stop-color="#192871"/>
</linearGradient>
<linearGradient id="paint1_linear_784_18634" x1="963.744" y1="31.7559" x2="12.9619" y2="31.7559" gradientUnits="userSpaceOnUse">
<stop stop-color="#020C7B"/>
<stop offset="0.5" stop-color="#040825"/>
<stop offset="1" stop-color="#000D61"/>
</linearGradient>
</defs>
</svg>
