<svg width="962" height="74" viewBox="0 0 962 74" fill="none" xmlns="http://www.w3.org/2000/svg">
<rect x="14.5576" y="7.77734" width="933.813" height="58" rx="16" fill="#000431"/>
<g filter="url(#filter0_d_787_18711)">
<g filter="url(#filter1_i_787_18711)">
<path d="M915.561 7.77734C920.121 7.77747 924.416 9.67274 927.154 12.8937L940.921 29.0927C944.79 33.646 944.789 39.9104 940.919 44.4635L927.154 60.661L926.623 61.2486C924.062 63.9201 920.37 65.5499 916.413 65.7555L915.562 65.7773H44.752C40.1845 65.7772 35.8668 64.1107 32.9349 61.2486L32.3678 60.661L17.6584 44.4635C13.5239 39.9103 13.5242 33.6461 17.6584 29.0927L24.0192 22.9506C25.0397 21.5629 26.5481 20.4124 27.8649 19.222L32.3678 12.8937C35.2926 9.67302 39.8802 7.77753 44.752 7.77734L915.561 7.77734Z" fill="#0144BD"/>
</g>
<path fill-rule="evenodd" clip-rule="evenodd" d="M918.246 7.77734C923.072 7.77737 927.617 9.67266 930.514 12.8937L945.084 29.0927C949.179 33.6461 949.177 39.9104 945.082 44.4635L930.514 60.661L929.953 61.2486C927.242 63.9202 923.336 65.55 919.149 65.7555L918.248 65.7773H42.8613C38.3384 65.7772 34.0629 64.1108 31.1597 61.2486L30.5981 60.661L16.0324 44.4635C11.9383 39.9103 11.9386 33.6461 16.0324 29.0927L30.5981 12.8937C33.4943 9.6729 38.037 7.77753 42.8613 7.77734H918.246ZM52.3877 10.9903C52.3436 11.0081 47.8317 12.8368 46.6258 14.6689C44.9412 17.2286 45.4029 21.6944 45.4652 21.9449L45.4708 21.9543L45.467 21.9496V21.9543L45.4633 21.9464C45.2796 21.7425 42.733 18.5035 39.3177 17.8693C37.1366 17.4645 31.3159 18.5889 30.0384 18.846L19.0986 31.0148C16.0288 34.4297 16.0286 39.1267 19.0986 42.5414L32.163 57.0699C34.0753 57.3596 39.789 58.1616 41.7961 57.6981C45.1644 56.9198 48.4996 52.8394 48.6774 52.6193L48.6831 52.6099V52.6146L48.6812 52.6193C48.6344 52.8712 47.7549 57.7655 49.5947 60.25C50.3919 61.3265 52.5276 62.1166 54.0986 62.5769H897.868C899.554 62.3059 911.864 61.4595 913.063 60.0781C915.116 57.7138 914.668 52.7818 914.644 52.524V52.5131L914.647 52.5224C914.799 52.7439 917.771 57.0273 921.066 58.0107C922.814 58.5319 926.705 57.8277 928.629 57.4231L942.017 42.5414C945.088 39.1268 945.087 34.4296 942.017 31.0148L928.282 15.7456C926.224 15.3532 923.16 14.9029 921.665 15.3487C918.37 16.3321 915.398 20.6155 915.246 20.8369L915.243 20.8463C915.243 20.8463 915.242 20.8435 915.243 20.84L915.241 20.8447L915.243 20.8354C915.268 20.5775 915.715 15.6455 913.662 13.2812C912.673 12.1422 909.904 11.3678 908.184 10.9778H52.1424C52.2949 10.9844 52.381 10.9901 52.3877 10.9903Z" fill="#00053D"/>
<path d="M56.333 15.2492L904.987 15.2451" stroke="url(#paint0_linear_787_18711)" stroke-width="1.09562" stroke-linejoin="bevel"/>
<path d="M899.899 60.1436L59.4326 60.1444" stroke="url(#paint1_linear_787_18711)" stroke-width="1.09562" stroke-linejoin="bevel"/>
<path d="M927.588 52.6301L938.251 43.0642C942.14 39.5751 942.132 33.4799 938.234 30.0008L928.066 20.9258" stroke="url(#paint2_linear_787_18711)" stroke-width="1.09562" stroke-linejoin="bevel"/>
<path d="M33.0967 52.5396L23.7738 43.4861C20.2225 40.0374 20.2298 34.3342 23.7898 30.8946L30.7853 24.1357" stroke="url(#paint3_linear_787_18711)" stroke-width="1.09562" stroke-linejoin="bevel"/>
<path d="M34.0616 53.0936C33.8246 53.9246 33.5875 54.7555 33.3505 55.5865C33.5747 55.628 33.7988 55.6695 34.023 55.7109C35.8397 56.047 37.6565 56.3832 39.4732 56.7193L39.6588 56.7919L39.9716 56.6772C41.9049 55.5155 43.8382 54.3538 45.7715 53.1921C45.9668 53.0747 46.1622 52.9573 46.3576 52.8398C46.1436 52.9183 45.9296 52.9967 45.7155 53.0751C43.5978 53.8512 41.48 54.6273 39.3622 55.4033L39.8606 55.3613C38.1399 54.6884 36.4192 54.0155 34.6985 53.3426C34.4862 53.2596 34.2739 53.1766 34.0616 53.0936Z" fill="url(#paint4_linear_787_18711)"/>
<path d="M58.4886 60.5384C57.5444 60.7299 56.6003 60.9214 55.6561 61.1129C55.4342 61.0002 55.2124 60.8874 54.9905 60.7747C53.8021 60.1709 52.6137 59.567 51.4253 58.9632L51.2636 58.9012L51.2 58.7735C51.1318 57.1569 51.0637 55.5402 50.9956 53.9236C50.9902 53.7957 50.9848 53.6678 50.9794 53.54C51.043 53.6675 51.1066 53.7951 51.1702 53.9226C51.9744 55.5354 52.7787 57.1482 53.5829 58.761L53.3576 58.5713C54.7988 59.1239 56.2401 59.6764 57.6814 60.229C57.9505 60.3321 58.2195 60.4353 58.4886 60.5384Z" fill="url(#paint5_linear_787_18711)"/>
<path d="M32.3889 23.6579C31.7937 22.9146 31.1986 22.1713 30.6034 21.428C30.8038 21.3708 31.0042 21.3136 31.2047 21.2564C33.0389 20.7331 34.8731 20.2098 36.7073 19.6864L36.8593 19.6024L37.2061 19.6959C39.3237 20.5995 41.4413 21.5031 43.559 22.4067C43.7983 22.5088 44.0376 22.611 44.277 22.7131C44.0336 22.6475 43.7903 22.5819 43.547 22.5163C41.3939 21.9359 39.2408 21.3555 37.0877 20.775L37.5865 20.7845C36.0246 21.648 34.4628 22.5114 32.9009 23.3749C32.7302 23.4692 32.5596 23.5636 32.3889 23.6579Z" fill="url(#paint6_linear_787_18711)"/>
<path d="M55.1361 13.8542C54.1622 13.7353 53.1884 13.6164 52.2145 13.4975C52.0184 13.6294 51.8223 13.7613 51.6262 13.8931C50.5396 14.6239 49.4529 15.3546 48.3663 16.0853L48.2233 16.1589L48.1799 16.2922C48.3571 17.9107 48.5344 19.5293 48.7117 21.1478C48.7259 21.2778 48.7401 21.4077 48.7543 21.5376C48.798 21.4034 48.8417 21.2691 48.8854 21.1349C49.4299 19.4628 49.9744 17.7906 50.5188 16.1185L50.3324 16.3253C51.6888 15.6276 53.0453 14.9298 54.4017 14.232C54.6465 14.1061 54.8913 13.9801 55.1361 13.8542Z" fill="url(#paint7_linear_787_18711)"/>
<path d="M926.846 21.188C927.123 20.5758 927.399 19.9637 927.676 19.3515C927.458 19.2554 927.241 19.1594 927.024 19.0633C925.612 18.4392 924.2 17.8152 922.789 17.1912L922.353 16.92L921.865 17.1207C920.396 18.2877 918.927 19.4547 917.458 20.6217C917.33 20.7232 917.203 20.8246 917.075 20.9261C917.238 20.859 917.401 20.7919 917.564 20.7248C919.441 19.9532 921.317 19.1815 923.194 18.4098L922.27 18.3394C923.592 19.1622 924.914 19.9851 926.236 20.8079C926.439 20.9346 926.643 21.0613 926.846 21.188Z" fill="url(#paint8_linear_787_18711)"/>
<path d="M907.378 15.4125C907.067 15.0229 906.755 14.6334 906.443 14.2438C906.717 14.2535 906.991 14.2632 907.265 14.2729C908.407 14.3134 909.549 14.3539 910.69 14.3943L911.765 14.3537L912.28 14.8304C912.898 16.1149 913.515 17.3995 914.133 18.6841C914.177 18.777 914.222 18.8698 914.267 18.9627C914.166 18.8697 914.066 18.7767 913.965 18.6837C912.575 17.3975 911.184 16.1112 909.794 14.825L911.384 15.261C910.307 15.3017 909.23 15.3425 908.153 15.3832C907.895 15.393 907.637 15.4027 907.378 15.4125Z" fill="url(#paint9_linear_787_18711)"/>
<path d="M901.847 59.0465C902.428 59.3188 903.008 59.5911 903.588 59.8634C903.89 59.7689 904.191 59.6743 904.492 59.5798C906.552 58.9332 908.612 58.2867 910.672 57.6402L910.998 57.5602L911.167 57.3826C911.847 56.016 912.526 54.6493 913.205 53.2827C913.266 53.1603 913.327 53.0379 913.388 52.9154C913.271 53.0384 913.154 53.1613 913.037 53.2842C911.73 54.6565 910.424 56.0287 909.118 57.401L909.613 57.1434C907.355 57.6968 905.097 58.2502 902.838 58.8037C902.508 58.8846 902.178 58.9656 901.847 59.0465Z" fill="url(#paint10_linear_787_18711)"/>
<path d="M927.051 52.3678C927.026 53.1245 927.001 53.8813 926.976 54.638C926.753 54.677 926.53 54.716 926.306 54.755C924.764 55.0244 923.222 55.2938 921.679 55.5632L921.422 55.6511L921.093 55.5179C919.561 54.3542 918.028 53.1906 916.496 52.027C916.357 51.9221 916.219 51.8172 916.081 51.7123C916.253 51.7819 916.424 51.8514 916.596 51.921C918.501 52.6925 920.406 53.4641 922.311 54.2357L921.725 54.1904C923.276 53.6597 924.827 53.129 926.378 52.5983C926.602 52.5214 926.827 52.4446 927.051 52.3678Z" fill="url(#paint11_linear_787_18711)"/>
</g>
<path d="M439.734 43.2773V30.1864H444.899C445.888 30.1864 446.732 30.3633 447.43 30.717C448.134 31.0664 448.668 31.5629 449.035 32.2063C449.406 32.8455 449.591 33.5977 449.591 34.4627C449.591 35.332 449.403 36.0799 449.028 36.7063C448.653 37.3285 448.11 37.8058 447.399 38.1381C446.691 38.4705 445.835 38.6367 444.829 38.6367H441.371V36.4123H444.381C444.91 36.4123 445.349 36.3398 445.698 36.195C446.048 36.0501 446.308 35.8327 446.478 35.543C446.653 35.2532 446.74 34.8931 446.74 34.4627C446.74 34.0281 446.653 33.6616 446.478 33.3633C446.308 33.065 446.046 32.8391 445.692 32.6857C445.342 32.5281 444.901 32.4492 444.369 32.4492H442.502V43.2773H439.734ZM446.804 37.32L450.058 43.2773H447.002L443.819 37.32H446.804ZM455.812 43.4691C454.802 43.4691 453.933 43.2646 453.204 42.8555C452.48 42.4421 451.921 41.8583 451.529 41.104C451.137 40.3455 450.941 39.4485 450.941 38.413C450.941 37.4031 451.137 36.5167 451.529 35.7539C451.921 34.9911 452.473 34.3967 453.185 33.9705C453.901 33.5444 454.74 33.3313 455.703 33.3313C456.351 33.3313 456.954 33.4357 457.512 33.6445C458.075 33.8491 458.565 34.158 458.983 34.5714C459.404 34.9847 459.733 35.5046 459.967 36.131C460.201 36.7532 460.318 37.4819 460.318 38.3171V39.065H452.028V37.3775H457.755C457.755 36.9854 457.67 36.6381 457.5 36.3356C457.329 36.033 457.093 35.7965 456.79 35.6261C456.492 35.4513 456.144 35.364 455.748 35.364C455.335 35.364 454.968 35.4599 454.649 35.6516C454.333 35.8391 454.086 36.0927 453.907 36.4123C453.728 36.7276 453.637 37.0792 453.632 37.467V39.0714C453.632 39.5572 453.722 39.9769 453.901 40.3306C454.084 40.6843 454.342 40.957 454.674 41.1488C455.007 41.3406 455.401 41.4364 455.857 41.4364C456.159 41.4364 456.436 41.3938 456.688 41.3086C456.939 41.2234 457.154 41.0955 457.333 40.9251C457.512 40.7546 457.649 40.5458 457.742 40.2987L460.261 40.4648C460.133 41.07 459.871 41.5984 459.475 42.0501C459.083 42.4975 458.576 42.8469 457.953 43.0984C457.335 43.3455 456.622 43.4691 455.812 43.4691ZM470.985 33.4592L467.553 43.2773H464.484L461.052 33.4592H463.928L465.967 40.484H466.07L468.102 33.4592H470.985ZM476.537 43.4691C475.527 43.4691 474.657 43.2646 473.929 42.8555C473.204 42.4421 472.646 41.8583 472.254 41.104C471.862 40.3455 471.666 39.4485 471.666 38.413C471.666 37.4031 471.862 36.5167 472.254 35.7539C472.646 34.9911 473.198 34.3967 473.91 33.9705C474.625 33.5444 475.465 33.3313 476.428 33.3313C477.076 33.3313 477.679 33.4357 478.237 33.6445C478.799 33.8491 479.29 34.158 479.707 34.5714C480.129 34.9847 480.457 35.5046 480.691 36.131C480.926 36.7532 481.043 37.4819 481.043 38.3171V39.065H472.753V37.3775H478.48C478.48 36.9854 478.395 36.6381 478.224 36.3356C478.054 36.033 477.817 35.7965 477.515 35.6261C477.216 35.4513 476.869 35.364 476.473 35.364C476.059 35.364 475.693 35.4599 475.373 35.6516C475.058 35.8391 474.811 36.0927 474.632 36.4123C474.453 36.7276 474.361 37.0792 474.357 37.467V39.0714C474.357 39.5572 474.446 39.9769 474.625 40.3306C474.809 40.6843 475.066 40.957 475.399 41.1488C475.731 41.3406 476.125 41.4364 476.581 41.4364C476.884 41.4364 477.161 41.3938 477.412 41.3086C477.664 41.2234 477.879 41.0955 478.058 40.9251C478.237 40.7546 478.373 40.5458 478.467 40.2987L480.986 40.4648C480.858 41.07 480.596 41.5984 480.199 42.0501C479.807 42.4975 479.3 42.8469 478.678 43.0984C478.06 43.3455 477.346 43.4691 476.537 43.4691ZM485.62 43.4627C484.993 43.4627 484.435 43.354 483.945 43.1367C483.455 42.9151 483.067 42.5891 482.782 42.1587C482.5 41.7241 482.36 41.1829 482.36 40.5352C482.36 39.9897 482.46 39.5316 482.66 39.1609C482.861 38.7901 483.133 38.4918 483.478 38.266C483.824 38.0401 484.216 37.8697 484.655 37.7546C485.098 37.6396 485.562 37.5586 486.048 37.5117C486.619 37.4521 487.079 37.3967 487.429 37.3455C487.778 37.2901 488.032 37.2092 488.189 37.1026C488.347 36.9961 488.426 36.8384 488.426 36.6296V36.5913C488.426 36.1864 488.298 35.8732 488.042 35.6516C487.791 35.43 487.433 35.3192 486.968 35.3192C486.478 35.3192 486.089 35.4279 485.799 35.6452C485.509 35.8583 485.317 36.1268 485.223 36.4506L482.705 36.2461C482.833 35.6495 483.084 35.1339 483.459 34.6992C483.834 34.2603 484.318 33.9236 484.91 33.6893C485.507 33.4506 486.197 33.3313 486.981 33.3313C487.527 33.3313 488.049 33.3952 488.547 33.5231C489.05 33.6509 489.495 33.8491 489.883 34.1175C490.275 34.386 490.584 34.7312 490.81 35.1531C491.036 35.5707 491.149 36.0714 491.149 36.6552V43.2773H488.566V41.9158H488.49C488.332 42.2227 488.121 42.4933 487.857 42.7276C487.593 42.9577 487.275 43.1388 486.905 43.271C486.534 43.3988 486.106 43.4627 485.62 43.4627ZM486.4 41.5835C486.8 41.5835 487.154 41.5046 487.461 41.3469C487.767 41.185 488.008 40.9677 488.183 40.695C488.358 40.4222 488.445 40.1133 488.445 39.7681V38.7262C488.36 38.7816 488.243 38.8327 488.093 38.8796C487.949 38.9222 487.785 38.9627 487.601 39.0011C487.418 39.0352 487.235 39.0671 487.052 39.0969C486.868 39.1225 486.702 39.146 486.553 39.1673C486.233 39.2141 485.954 39.2887 485.716 39.391C485.477 39.4933 485.292 39.6317 485.16 39.8065C485.027 39.9769 484.961 40.19 484.961 40.4457C484.961 40.8164 485.096 41.0998 485.364 41.2958C485.637 41.4876 485.982 41.5835 486.4 41.5835ZM495.984 30.1864V43.2773H493.261V30.1864H495.984ZM504.639 43.2773H501.673L506.193 30.1864H509.759L514.272 43.2773H511.306L508.027 33.1779H507.925L504.639 43.2773ZM504.454 38.1317H511.46V40.2923H504.454V38.1317ZM518.52 30.1864V43.2773H515.797V30.1864H518.52ZM523.424 30.1864V43.2773H520.701V30.1864H523.424Z" fill="white"/>
<defs>
<filter id="filter0_d_787_18711" x="-4.1008e-05" y="0.000170708" width="961.116" height="95.9239" filterUnits="userSpaceOnUse" color-interpolation-filters="sRGB">
<feFlood flood-opacity="0" result="BackgroundImageFix"/>
<feColorMatrix in="SourceAlpha" type="matrix" values="0 0 0 0 0 0 0 0 0 0 0 0 0 0 0 0 0 0 127 0" result="hardAlpha"/>
<feOffset dy="5.18478"/>
<feGaussianBlur stdDeviation="6.48098"/>
<feComposite in2="hardAlpha" operator="out"/>
<feColorMatrix type="matrix" values="0 0 0 0 0 0 0 0 0 0 0 0 0 0 0 0 0 0 0.25 0"/>
<feBlend mode="normal" in2="BackgroundImageFix" result="effect1_dropShadow_787_18711"/>
<feBlend mode="normal" in="SourceGraphic" in2="effect1_dropShadow_787_18711" result="shape"/>
</filter>
<filter id="filter1_i_787_18711" x="14.5576" y="-2.59222" width="929.265" height="68.3696" filterUnits="userSpaceOnUse" color-interpolation-filters="sRGB">
<feFlood flood-opacity="0" result="BackgroundImageFix"/>
<feBlend mode="normal" in="SourceGraphic" in2="BackgroundImageFix" result="shape"/>
<feColorMatrix in="SourceAlpha" type="matrix" values="0 0 0 0 0 0 0 0 0 0 0 0 0 0 0 0 0 0 127 0" result="hardAlpha"/>
<feOffset dy="-10.3696"/>
<feGaussianBlur stdDeviation="6.48098"/>
<feComposite in2="hardAlpha" operator="arithmetic" k2="-1" k3="1"/>
<feColorMatrix type="matrix" values="0 0 0 0 0 0 0 0 0 0 0 0 0 0 0 0 0 0 0.25 0"/>
<feBlend mode="normal" in2="shape" result="effect1_innerShadow_787_18711"/>
</filter>
<linearGradient id="paint0_linear_787_18711" x1="811.55" y1="14.8666" x2="113.591" y2="14.8666" gradientUnits="userSpaceOnUse">
<stop stop-color="#020C7B"/>
<stop offset="0.5" stop-color="#040825"/>
<stop offset="1" stop-color="#000D61"/>
</linearGradient>
<linearGradient id="paint1_linear_787_18711" x1="803.95" y1="59.9844" x2="121.952" y2="59.9844" gradientUnits="userSpaceOnUse">
<stop stop-color="#020C7B"/>
<stop offset="0.5" stop-color="#040825"/>
<stop offset="1" stop-color="#000D61"/>
</linearGradient>
<linearGradient id="paint2_linear_787_18711" x1="931.713" y1="36.7779" x2="919.213" y2="36.7779" gradientUnits="userSpaceOnUse">
<stop stop-color="#020C7B"/>
<stop offset="0.5" stop-color="#040825"/>
<stop offset="1" stop-color="#000D61"/>
</linearGradient>
<linearGradient id="paint3_linear_787_18711" x1="50.9452" y1="37.7931" x2="8.30664" y2="37.7931" gradientUnits="userSpaceOnUse">
<stop stop-color="#020C7B"/>
<stop offset="0.5" stop-color="#040825"/>
<stop offset="1" stop-color="#000D61"/>
</linearGradient>
<linearGradient id="paint4_linear_787_18711" x1="86.6958" y1="53.8931" x2="52.585" y2="53.8931" gradientUnits="userSpaceOnUse">
<stop stop-color="#020C7B"/>
<stop offset="0.5" stop-color="#040825"/>
<stop offset="1" stop-color="#000D61"/>
</linearGradient>
<linearGradient id="paint5_linear_787_18711" x1="95.9147" y1="53.9073" x2="99.0223" y2="64.9436" gradientUnits="userSpaceOnUse">
<stop stop-color="#020C7B"/>
<stop offset="0.5" stop-color="#040825"/>
<stop offset="1" stop-color="#000D61"/>
</linearGradient>
<linearGradient id="paint6_linear_787_18711" x1="80.4238" y1="20.5794" x2="51.1698" y2="32.8346" gradientUnits="userSpaceOnUse">
<stop stop-color="#020C7B"/>
<stop offset="0.5" stop-color="#040825"/>
<stop offset="1" stop-color="#000D61"/>
</linearGradient>
<linearGradient id="paint7_linear_787_18711" x1="89.5636" y1="20.2114" x2="91.7899" y2="9.95337" gradientUnits="userSpaceOnUse">
<stop stop-color="#020C7B"/>
<stop offset="0.5" stop-color="#040825"/>
<stop offset="1" stop-color="#000D61"/>
</linearGradient>
<linearGradient id="paint8_linear_787_18711" x1="911.478" y1="18.8108" x2="918.168" y2="15.5206" gradientUnits="userSpaceOnUse">
<stop stop-color="#020C7B"/>
<stop offset="0.5" stop-color="#040825"/>
<stop offset="1" stop-color="#000D61"/>
</linearGradient>
<linearGradient id="paint9_linear_787_18711" x1="904.861" y1="18.3963" x2="903.546" y2="12.2302" gradientUnits="userSpaceOnUse">
<stop stop-color="#020C7B"/>
<stop offset="0.5" stop-color="#040825"/>
<stop offset="1" stop-color="#000D61"/>
</linearGradient>
<linearGradient id="paint10_linear_787_18711" x1="904.04" y1="52.35" x2="902.956" y2="57.4344" gradientUnits="userSpaceOnUse">
<stop stop-color="#020C7B"/>
<stop offset="0.5" stop-color="#040825"/>
<stop offset="1" stop-color="#000D61"/>
</linearGradient>
<linearGradient id="paint11_linear_787_18711" x1="910.926" y1="53.7445" x2="917.885" y2="56.7526" gradientUnits="userSpaceOnUse">
<stop stop-color="#020C7B"/>
<stop offset="0.5" stop-color="#040825"/>
<stop offset="1" stop-color="#000D61"/>
</linearGradient>
</defs>
</svg>
