<svg width="1343" height="75" viewBox="0 0 1343 75" fill="none" xmlns="http://www.w3.org/2000/svg">
<g style="mix-blend-mode:plus-lighter">
<path d="M482.836 46.25L633.98 74.8596C633.98 74.8596 477.663 45.9628 371.576 43.0693C307.031 41.3088 220.432 55.7865 220.432 55.7865C220.432 55.7865 270.194 31.8741 350.584 31.6273C414.521 31.4309 482.836 46.25 482.836 46.25Z" fill="url(#paint0_linear_389_14870)"/>
<path d="M852.118 46.25L700.974 74.8596C700.974 74.8596 857.291 45.9628 963.377 43.0693C1027.92 41.3088 1114.52 55.7865 1114.52 55.7865C1114.52 55.7865 1064.76 31.8741 984.369 31.6273C920.433 31.4309 852.118 46.25 852.118 46.25Z" fill="url(#paint1_linear_389_14870)"/>
<g filter="url(#filter0_i_389_14870)">
<path d="M74.63 73.787C86.6556 74.0302 100.72 72.7495 119.463 69.5398C160.45 62.5209 179.208 53.9079 199.503 44.999C222.282 34.9997 247.873 24.2632 298.05 20.865C341.361 17.9322 377.025 18.4139 411.968 23.3924C437.517 27.0326 461.192 32.8808 485.845 40.384C473.308 35.3048 461.24 30.9468 447.628 25.6655C403.517 8.55104 338.699 -1.69735 285.873 1.4298C263.866 2.73296 245.414 9.18439 216.323 19.0076C191.263 27.4695 156.604 38.9562 112.048 38.3711L107.703 38.2754C78.8443 37.3935 56.2451 28.9409 40.5255 20.7603C28.56 14.5334 18.1667 7.21649 9.39516 0.00012207C7.59637 3.55073 5.94197 7.03392 4.54352 10.3488C1.06962 18.5836 -0.225606 24.276 0.0316167 27.149C1.0019 37.9846 4.16166 45.9065 9.79449 52.0577C15.0899 57.8402 23.3696 62.9445 37.9507 67.5718C51.6802 71.9286 63.2755 73.5572 74.63 73.787ZM1268.23 73.787C1279.58 73.5573 1291.18 71.9282 1304.91 67.5718C1319.49 62.9444 1327.77 57.8401 1333.07 52.0577C1338.7 45.9067 1341.86 37.9849 1342.83 27.149C1343.08 24.2801 1341.79 18.5978 1338.33 10.3757C1336.93 7.05392 1335.27 3.5623 1333.47 0.00311279C1324.7 7.21918 1314.3 14.5368 1302.34 20.7633C1286.62 28.9437 1264.01 37.3942 1235.15 38.2754C1188.5 39.6989 1152.4 27.7424 1126.54 19.0076C1098.35 9.49165 1080.16 3.13948 1059.04 1.56738L1056.98 1.4298C1004.16 -1.6964 939.346 8.55139 895.236 25.6655C881.629 30.9448 869.563 35.2987 857.031 40.375C881.676 32.8747 905.348 27.0316 930.89 23.3924C965.834 18.4137 1001.5 17.9321 1044.81 20.865C1094.99 24.263 1120.58 34.9994 1143.36 44.999C1163.66 53.9079 1182.42 62.5209 1223.4 69.5398C1242.14 72.7491 1256.2 74.0301 1268.23 73.787Z" fill="url(#paint2_linear_389_14870)"/>
</g>
<path d="M667.477 15.516C667.477 15.516 664.764 30.3852 658.903 37.5827C654.67 42.7799 645.35 48.2074 645.35 48.2074C645.35 48.2074 654.587 51.3965 658.903 55.563C664.597 61.0608 667.477 73.8157 667.477 73.8157V15.516Z" fill="#010B7B"/>
<path d="M667.477 73.8157C667.477 73.8157 670.356 61.0603 676.051 55.5624C680.367 51.396 689.604 48.2069 689.604 48.2069C689.604 48.2069 680.284 42.7794 676.051 37.5822C670.189 30.3846 667.477 15.516 667.477 15.516V73.8157Z" fill="#010B7B"/>
<g filter="url(#filter1_i_389_14870)">
<path d="M667.477 26.7204C667.477 26.7204 665.666 36.6471 661.753 41.4522C658.927 44.9219 652.705 48.5453 652.705 48.5453C652.705 48.5453 658.871 50.6744 661.753 53.4559C665.554 57.1263 667.477 65.6414 667.477 65.6414V26.7204Z" fill="#001FE8"/>
<path d="M667.477 65.6414C667.477 65.6414 669.399 57.1259 673.201 53.4555C676.082 50.674 682.249 48.5449 682.249 48.5449C682.249 48.5449 676.027 44.9215 673.201 41.4518C669.288 36.6467 667.477 26.7204 667.477 26.7204V65.6414Z" fill="#001FE8"/>
</g>
</g>
<defs>
<filter id="filter0_i_389_14870" x="0" y="0.00012207" width="1342.86" height="76.9507" filterUnits="userSpaceOnUse" color-interpolation-filters="sRGB">
<feFlood flood-opacity="0" result="BackgroundImageFix"/>
<feBlend mode="normal" in="SourceGraphic" in2="BackgroundImageFix" result="shape"/>
<feColorMatrix in="SourceAlpha" type="matrix" values="0 0 0 0 0 0 0 0 0 0 0 0 0 0 0 0 0 0 127 0" result="hardAlpha"/>
<feOffset dy="3.13489"/>
<feGaussianBlur stdDeviation="1.56744"/>
<feComposite in2="hardAlpha" operator="arithmetic" k2="-1" k3="1"/>
<feColorMatrix type="matrix" values="0 0 0 0 0 0 0 0 0 0 0 0 0 0 0 0 0 0 0.25 0"/>
<feBlend mode="normal" in2="shape" result="effect1_innerShadow_389_14870"/>
</filter>
<filter id="filter1_i_389_14870" x="652.705" y="26.7204" width="29.5444" height="41.0124" filterUnits="userSpaceOnUse" color-interpolation-filters="sRGB">
<feFlood flood-opacity="0" result="BackgroundImageFix"/>
<feBlend mode="normal" in="SourceGraphic" in2="BackgroundImageFix" result="shape"/>
<feColorMatrix in="SourceAlpha" type="matrix" values="0 0 0 0 0 0 0 0 0 0 0 0 0 0 0 0 0 0 127 0" result="hardAlpha"/>
<feOffset dy="2.0913"/>
<feGaussianBlur stdDeviation="1.04565"/>
<feComposite in2="hardAlpha" operator="arithmetic" k2="-1" k3="1"/>
<feColorMatrix type="matrix" values="0 0 0 0 0 0 0 0 0 0 0 0 0 0 0 0 0 0 0.25 0"/>
<feBlend mode="normal" in2="shape" result="effect1_innerShadow_389_14870"/>
</filter>
<linearGradient id="paint0_linear_389_14870" x1="633.98" y1="53.2425" x2="220.432" y2="53.2425" gradientUnits="userSpaceOnUse">
<stop stop-color="#020C7B"/>
<stop offset="0.5" stop-color="#040825"/>
<stop offset="1" stop-color="#000D61"/>
</linearGradient>
<linearGradient id="paint1_linear_389_14870" x1="700.974" y1="53.2425" x2="1114.52" y2="53.2425" gradientUnits="userSpaceOnUse">
<stop stop-color="#020C7B"/>
<stop offset="0.5" stop-color="#040825"/>
<stop offset="1" stop-color="#000D61"/>
</linearGradient>
<linearGradient id="paint2_linear_389_14870" x1="1342.86" y1="36.908" x2="0" y2="36.908" gradientUnits="userSpaceOnUse">
<stop stop-color="#020C7B"/>
<stop offset="0.5" stop-color="#040825"/>
<stop offset="1" stop-color="#000D61"/>
</linearGradient>
</defs>
</svg>
