<svg width="375" height="113" viewBox="0 0 375 113" fill="none" xmlns="http://www.w3.org/2000/svg">
<g clip-path="url(#clip0_150_26113)">
<mask id="path-1-inside-1_150_26113" fill="white">
<path d="M0 9.66773C0 4.32839 4.32839 0 9.66773 0H365.332C370.672 0 375 4.32839 375 9.66773V103.332C375 108.672 370.672 113 365.332 113H9.66773C4.32839 113 0 108.672 0 103.332V9.66773Z"/>
</mask>
<path d="M0 9.66773C0 4.32839 4.32839 0 9.66773 0H365.332C370.672 0 375 4.32839 375 9.66773V103.332C375 108.672 370.672 113 365.332 113H9.66773C4.32839 113 0 108.672 0 103.332V9.66773Z" fill="url(#paint0_linear_150_26113)"/>
<mask id="path-3-inside-2_150_26113" fill="white">
<path d="M277.25 1.00031H374.25C374.25 1.00031 336.832 19.6203 316.121 37.375C299.397 51.7121 277.25 79.472 277.25 79.472C277.25 79.472 282.923 53.9842 282.599 37.375C282.318 22.973 277.25 1.00031 277.25 1.00031Z"/>
</mask>
<path d="M277.25 1.00031H374.25C374.25 1.00031 336.832 19.6203 316.121 37.375C299.397 51.7121 277.25 79.472 277.25 79.472C277.25 79.472 282.923 53.9842 282.599 37.375C282.318 22.973 277.25 1.00031 277.25 1.00031Z" fill="#010B7B"/>
<path d="M277.25 0.698287C277.25 0.899632 277.25 1.10098 277.25 1.30232C282.29 1.55091 287.33 1.7913 292.37 2.0235C319.663 3.2809 346.957 4.29789 374.25 5.07447L372.435 -2.64719C351.559 7.4479 331.165 18.1675 312.528 33.1832C297.403 46.2067 284.932 60.741 272.598 75.7604L283.059 80.7651C283.521 78.6677 283.933 76.6219 284.331 74.5615C286.588 62.4178 288.164 50.1541 287.159 37.286C286.405 29.6184 284.621 22.4879 282.539 15.4244C281.069 10.5162 279.412 5.6894 277.544 0.932424C277.348 0.977678 277.152 1.02293 276.956 1.06819C277.298 6.1429 277.576 11.2019 277.813 16.2327C278.129 23.4359 278.428 30.6714 278.04 37.464C277.193 48.8445 274.818 60.6389 272.635 72.3083C272.256 74.2729 271.844 76.3213 271.441 78.1789L281.902 83.1836C293.755 68.642 306.159 53.8669 319.715 41.5668C336.377 27.3205 356.36 15.568 376.065 4.6478L374.25 -3.07385C346.957 -2.29728 319.663 -1.28029 292.37 -0.0228853C287.33 0.209307 282.29 0.449698 277.25 0.698287ZM277.25 1.30232V0.698287L276.817 0.719635L276.956 1.06819L277.544 0.932424L277.25 1.30232Z" fill="#020C7B" mask="url(#path-3-inside-2_150_26113)"/>
<path d="M270.717 0.0809335C270.072 0.318645 269.428 0.556355 268.783 0.794066C269.242 2.003 269.699 3.26053 270.145 4.51884C273.159 13.1694 276.024 21.9921 277.383 31.0141V31.0141C279.062 45.5452 276.933 60.3804 274.395 74.8392C274.154 76.1352 273.89 77.4917 273.625 78.75C273.924 77.4992 274.221 76.1492 274.496 74.8594C277.404 60.4451 279.939 45.7252 278.617 30.8609V30.8609C277.465 21.6092 274.81 12.6888 271.999 3.88767C271.58 2.60495 271.157 1.3373 270.717 0.0809335Z" fill="url(#paint1_linear_150_26113)"/>
<path d="M374.466 6.16372C374.775 6.77756 375.084 7.39139 375.393 8.00522C373.721 8.83299 371.961 9.73115 370.256 10.6117C352.906 19.7216 335.657 29.2358 320.291 41.3517V41.3517C308.644 50.9994 298.238 62.1526 288.076 73.4111C286.791 74.8493 285.51 76.2957 284.25 77.75C285.484 76.2734 286.739 74.8042 287.998 73.3431C297.967 61.8993 308.156 50.572 319.71 40.6483V40.6483C334.977 28.1667 352.088 18.3353 369.342 8.8798C371.04 7.96401 372.782 7.03598 374.466 6.16372Z" fill="url(#paint2_linear_150_26113)"/>
<path d="M15.5454 24.0045C15.5454 19.3326 19.3328 15.5452 24.0047 15.5452H40.9122C45.5841 15.5452 49.3714 19.3326 49.3714 24.0045V40.912C49.3714 45.5839 45.5841 49.3713 40.9122 49.3713H24.0047C19.3327 49.3713 15.5454 45.5839 15.5454 40.912V24.0045Z" fill="#CECECE" fill-opacity="0.125"/>
<g filter="url(#filter0_i_150_26113)">
<path d="M261.715 13.682C261.791 10.1517 261.546 7.574 260.978 5.45452C260.441 3.45332 259.519 1.49782 257.776 -0.664099C255.925 -2.96009 254.209 -4.10726 252.437 -4.68178C250.552 -5.29288 248.295 -5.35301 245.348 -4.84025C244.567 -4.70428 243.095 -4.11448 241.032 -2.97718C240.201 -2.51935 239.336 -2.00545 238.459 -1.46165C240.762 -0.360679 243.159 1.02184 245.33 2.75236C248.181 5.02584 251.394 8.50343 252.838 13.5709L253.046 14.3362C255.067 22.209 253.437 29.0882 252.217 34.0718C250.8 39.8572 249.842 43.5407 250.413 47.53C251.785 57.1057 257.246 67.9647 263.682 74.7136C265.668 76.7962 267.342 78.6631 269.228 80.5676C266.184 76.6655 263.625 72.8322 261.58 68.5267C258.782 62.6381 257.161 56.3374 256.135 48.463C254.946 39.3406 256.755 34.1188 258.483 29.4427C260.023 25.2766 261.548 21.402 261.715 13.682Z" fill="#020C7B" fill-opacity="0.25"/>
</g>
<g filter="url(#filter1_i_150_26113)">
<path d="M374.46 38.6369C377.748 37.3503 380.034 36.1331 381.772 34.7935C383.413 33.5286 384.864 31.9258 386.189 29.4856C387.597 26.8941 387.997 24.8695 387.846 23.0125C387.685 21.0371 386.873 18.9307 385.267 16.4077C384.841 15.7387 383.731 14.6062 381.888 13.1389C381.146 12.5483 380.339 11.9474 379.5 11.3469C379.369 13.8956 379.014 16.64 378.251 19.3092C377.248 22.8157 375.273 27.1183 371.15 30.3996L370.523 30.8854C364.033 35.778 357.056 36.9177 351.986 37.7067C346.1 38.6227 342.331 39.1544 338.868 41.2155C330.556 46.1633 322.631 55.3791 318.874 63.9147C317.715 66.5487 316.635 68.8115 315.602 71.2855C318.035 66.9754 320.59 63.1393 323.778 59.5959C328.139 54.7497 333.332 50.8305 340.207 46.8562C348.171 42.2522 353.687 41.9142 358.668 41.7122C363.106 41.5322 367.269 41.4504 374.46 38.6369Z" fill="#020C7B" fill-opacity="0.25"/>
</g>
<g filter="url(#filter2_i_150_26113)">
<path d="M226.449 -2.92483C225.217 -4.16402 224.396 -5.16165 223.817 -6.09516C223.27 -6.97658 222.839 -7.9605 222.553 -9.27156C222.249 -10.6639 222.303 -11.6035 222.57 -12.3558C222.853 -13.1561 223.422 -13.8739 224.369 -14.5996C224.62 -14.792 225.208 -15.0353 226.138 -15.265C226.512 -15.3575 226.915 -15.4405 227.331 -15.5166C227.107 -14.4124 226.955 -13.1783 226.982 -11.8896C227.016 -10.1965 227.37 -7.96148 228.733 -5.70332L228.941 -5.36556C231.116 -1.92588 233.905 0.0317928 235.936 1.43777C238.293 3.06996 239.809 4.09195 241.029 5.69517C243.959 9.54361 246.26 15.1126 246.894 19.5122C247.09 20.8699 247.293 22.0541 247.454 23.3174C246.91 20.9826 246.263 18.8219 245.319 16.6507C244.029 13.6814 242.289 10.9273 239.853 7.79424C237.031 4.16457 234.765 2.85474 232.707 1.71543C230.874 0.700371 229.144 -0.215055 226.449 -2.92483Z" fill="#020C7B" fill-opacity="0.25"/>
</g>
</g>
<path d="M-2 9.66773C-2 3.22382 3.22382 -2 9.66773 -2H365.332C371.776 -2 377 3.22382 377 9.66773H373C373 5.43296 369.567 2 365.332 2H9.66773C5.43296 2 2 5.43296 2 9.66773H-2ZM2 9.66773M375 113H0H375M9.66773 113C3.22382 113 -2 107.776 -2 101.332V9.66773C-2 3.22382 3.22382 -2 9.66773 -2V2C5.43296 2 2 5.43296 2 9.66773V103.332C2 108.672 5.43296 113 9.66773 113ZM365.332 -2C371.776 -2 377 3.22382 377 9.66773V101.332C377 107.776 371.776 113 365.332 113C369.567 113 373 108.672 373 103.332V9.66773C373 5.43296 369.567 2 365.332 2V-2Z" fill="url(#paint3_linear_150_26113)" mask="url(#path-1-inside-1_150_26113)"/>
<defs>
<filter id="filter0_i_150_26113" x="238.459" y="-5.18643" width="30.769" height="87.1616" filterUnits="userSpaceOnUse" color-interpolation-filters="sRGB">
<feFlood flood-opacity="0" result="BackgroundImageFix"/>
<feBlend mode="normal" in="SourceGraphic" in2="BackgroundImageFix" result="shape"/>
<feColorMatrix in="SourceAlpha" type="matrix" values="0 0 0 0 0 0 0 0 0 0 0 0 0 0 0 0 0 0 127 0" result="hardAlpha"/>
<feOffset dy="1.40755"/>
<feGaussianBlur stdDeviation="0.703773"/>
<feComposite in2="hardAlpha" operator="arithmetic" k2="-1" k3="1"/>
<feColorMatrix type="matrix" values="0 0 0 0 0 0 0 0 0 0 0 0 0 0 0 0 0 0 0.25 0"/>
<feBlend mode="normal" in2="shape" result="effect1_innerShadow_150_26113"/>
</filter>
<filter id="filter1_i_150_26113" x="315.603" y="11.3469" width="72.2734" height="61.3461" filterUnits="userSpaceOnUse" color-interpolation-filters="sRGB">
<feFlood flood-opacity="0" result="BackgroundImageFix"/>
<feBlend mode="normal" in="SourceGraphic" in2="BackgroundImageFix" result="shape"/>
<feColorMatrix in="SourceAlpha" type="matrix" values="0 0 0 0 0 0 0 0 0 0 0 0 0 0 0 0 0 0 127 0" result="hardAlpha"/>
<feOffset dy="1.40755"/>
<feGaussianBlur stdDeviation="0.703773"/>
<feComposite in2="hardAlpha" operator="arithmetic" k2="-1" k3="1"/>
<feColorMatrix type="matrix" values="0 0 0 0 0 0 0 0 0 0 0 0 0 0 0 0 0 0 0.25 0"/>
<feBlend mode="normal" in2="shape" result="effect1_innerShadow_150_26113"/>
</filter>
<filter id="filter2_i_150_26113" x="222.346" y="-15.5166" width="25.1079" height="40.2416" filterUnits="userSpaceOnUse" color-interpolation-filters="sRGB">
<feFlood flood-opacity="0" result="BackgroundImageFix"/>
<feBlend mode="normal" in="SourceGraphic" in2="BackgroundImageFix" result="shape"/>
<feColorMatrix in="SourceAlpha" type="matrix" values="0 0 0 0 0 0 0 0 0 0 0 0 0 0 0 0 0 0 127 0" result="hardAlpha"/>
<feOffset dy="1.40755"/>
<feGaussianBlur stdDeviation="0.703773"/>
<feComposite in2="hardAlpha" operator="arithmetic" k2="-1" k3="1"/>
<feColorMatrix type="matrix" values="0 0 0 0 0 0 0 0 0 0 0 0 0 0 0 0 0 0 0.25 0"/>
<feBlend mode="normal" in2="shape" result="effect1_innerShadow_150_26113"/>
</filter>
<linearGradient id="paint0_linear_150_26113" x1="187.5" y1="80" x2="187.5" y2="-26" gradientUnits="userSpaceOnUse">
<stop stop-color="#010B7B"/>
<stop offset="1" stop-color="#0060DE"/>
</linearGradient>
<linearGradient id="paint1_linear_150_26113" x1="273.875" y1="78.75" x2="275.75" y2="14.25" gradientUnits="userSpaceOnUse">
<stop stop-color="#001FE8"/>
<stop offset="1" stop-color="#011599"/>
</linearGradient>
<linearGradient id="paint2_linear_150_26113" x1="323.75" y1="46.5" x2="317.213" y2="30.1268" gradientUnits="userSpaceOnUse">
<stop stop-color="#001FE8"/>
<stop offset="1" stop-color="#011599"/>
</linearGradient>
<linearGradient id="paint3_linear_150_26113" x1="187.5" y1="0" x2="187.5" y2="103.5" gradientUnits="userSpaceOnUse">
<stop stop-color="#ABC3FF"/>
<stop offset="0.128319" stop-color="#566FE3"/>
<stop offset="0.247788" stop-color="#001FE8"/>
<stop offset="0.402655" stop-color="#020C7B"/>
<stop offset="1" stop-color="#010B7B"/>
</linearGradient>
<clipPath id="clip0_150_26113">
<path d="M0 9.66773C0 4.32839 4.32839 0 9.66773 0H365.332C370.672 0 375 4.32839 375 9.66773V103.332C375 108.672 370.672 113 365.332 113H9.66773C4.32839 113 0 108.672 0 103.332V9.66773Z" fill="white"/>
</clipPath>
</defs>
</svg>
