<svg width="375" height="64" viewBox="0 0 375 64" fill="none" xmlns="http://www.w3.org/2000/svg">
<g filter="url(#filter0_d_531_17264)">
<path d="M341.265 7.77734C347.229 7.77735 352.698 11.095 355.454 16.3848L359.611 24.3633C362.025 28.996 362.025 34.5157 359.611 39.1484L355.454 47.127C352.698 52.4165 347.229 55.7344 341.265 55.7344H33.118C27.1529 55.7344 21.6822 52.4155 18.9266 47.125L14.7714 39.1465C12.3588 34.5144 12.3587 28.9963 14.7714 24.3643L18.9266 16.3857C21.6822 11.0953 27.1529 7.77734 33.118 7.77734H341.265Z" fill="url(#paint0_linear_531_17264)"/>
<path d="M33.1182 8.77734H341.265C346.856 8.77739 351.984 11.8875 354.567 16.8467L358.725 24.8252C360.987 29.1684 360.987 34.3434 358.725 38.6865L354.567 46.665C351.984 51.624 346.856 54.7343 341.265 54.7344H33.1182C27.5259 54.7344 22.3968 51.6229 19.8135 46.6631L15.6582 38.6846C13.3964 34.342 13.3964 29.1687 15.6582 24.8262L19.8135 16.8477C22.3968 11.8879 27.5258 8.77734 33.1182 8.77734Z" stroke="url(#paint1_linear_531_17264)" stroke-width="2"/>
</g>
<path d="M180.542 26.4998V36.7559H178.669L174.207 30.3007H174.132V36.7559H171.963V26.4998H173.866L178.293 32.9499H178.383V26.4998H180.542ZM185.799 36.9061C185.007 36.9061 184.326 36.7458 183.755 36.4253C183.188 36.1015 182.75 35.6441 182.443 35.0532C182.136 34.4589 181.983 33.7562 181.983 32.9449C181.983 32.1536 182.136 31.4592 182.443 30.8616C182.75 30.264 183.183 29.7983 183.74 29.4644C184.301 29.1306 184.959 28.9636 185.713 28.9636C186.221 28.9636 186.693 29.0454 187.131 29.209C187.571 29.3693 187.955 29.6113 188.282 29.9352C188.613 30.259 188.87 30.6663 189.054 31.1571C189.237 31.6445 189.329 32.2154 189.329 32.8698V33.4557H182.834V32.1336H187.321C187.321 31.8265 187.254 31.5544 187.121 31.3173C186.987 31.0803 186.802 30.895 186.565 30.7615C186.331 30.6246 186.059 30.5561 185.749 30.5561C185.425 30.5561 185.138 30.6313 184.887 30.7815C184.64 30.9284 184.446 31.127 184.306 31.3774C184.166 31.6245 184.094 31.8999 184.091 32.2037V33.4607C184.091 33.8413 184.161 34.1701 184.301 34.4472C184.445 34.7243 184.647 34.938 184.907 35.0882C185.168 35.2385 185.476 35.3136 185.834 35.3136C186.071 35.3136 186.288 35.2802 186.485 35.2134C186.682 35.1467 186.85 35.0465 186.99 34.913C187.131 34.7794 187.238 34.6158 187.311 34.4222L189.284 34.5524C189.184 35.0265 188.979 35.4405 188.668 35.7944C188.361 36.1449 187.964 36.4187 187.476 36.6156C186.992 36.8093 186.433 36.9061 185.799 36.9061ZM192.366 29.0638L193.779 31.753L195.226 29.0638H197.414L195.186 32.9098L197.474 36.7559H195.296L193.779 34.0967L192.286 36.7559H190.083L192.366 32.9098L190.163 29.0638H192.366ZM202.773 29.0638V30.6663H198.14V29.0638H202.773ZM199.192 27.2209H201.325V34.3922C201.325 34.5891 201.355 34.7427 201.416 34.8529C201.476 34.9597 201.559 35.0348 201.666 35.0782C201.776 35.1216 201.903 35.1433 202.047 35.1433C202.147 35.1433 202.247 35.135 202.347 35.1183C202.447 35.0983 202.524 35.0832 202.577 35.0732L202.913 36.6607C202.806 36.6941 202.656 36.7325 202.462 36.7759C202.269 36.8226 202.033 36.851 201.756 36.861C201.242 36.8811 200.791 36.8126 200.404 36.6557C200.02 36.4988 199.721 36.2551 199.508 35.9246C199.294 35.594 199.189 35.1767 199.192 34.6726V27.2209Z" fill="white"/>
<defs>
<filter id="filter0_d_531_17264" x="-4.1008e-05" y="0.000170708" width="374.383" height="73.8809" filterUnits="userSpaceOnUse" color-interpolation-filters="sRGB">
<feFlood flood-opacity="0" result="BackgroundImageFix"/>
<feColorMatrix in="SourceAlpha" type="matrix" values="0 0 0 0 0 0 0 0 0 0 0 0 0 0 0 0 0 0 127 0" result="hardAlpha"/>
<feOffset dy="5.18478"/>
<feGaussianBlur stdDeviation="6.48098"/>
<feComposite in2="hardAlpha" operator="out"/>
<feColorMatrix type="matrix" values="0 0 0 0 0 0 0 0 0 0 0 0 0 0 0 0 0 0 0.25 0"/>
<feBlend mode="normal" in2="BackgroundImageFix" result="effect1_dropShadow_531_17264"/>
<feBlend mode="normal" in="SourceGraphic" in2="effect1_dropShadow_531_17264" result="shape"/>
</filter>
<linearGradient id="paint0_linear_531_17264" x1="187.192" y1="7.77734" x2="187.192" y2="55.7344" gradientUnits="userSpaceOnUse">
<stop stop-color="#0144BD"/>
<stop offset="1" stop-color="#192871"/>
</linearGradient>
<linearGradient id="paint1_linear_531_17264" x1="361.421" y1="31.7559" x2="12.9619" y2="31.7559" gradientUnits="userSpaceOnUse">
<stop stop-color="#020C7B"/>
<stop offset="0.5" stop-color="#040825"/>
<stop offset="1" stop-color="#000D61"/>
</linearGradient>
</defs>
</svg>
