<svg width="375" height="48" viewBox="0 0 375 48" fill="none" xmlns="http://www.w3.org/2000/svg">
<path fill-rule="evenodd" clip-rule="evenodd" d="M123.588 0.394531H354.532C357.834 0.394727 360.945 1.92569 362.927 4.52734L372.899 17.6123C375.701 21.2904 375.7 26.3514 372.897 30.0293L362.927 43.1133L362.544 43.5879C360.689 45.7459 358.015 47.0625 355.149 47.2285L354.533 47.2461H262.172V47.1162H23.8376C20.7414 47.1161 17.8142 45.77 15.8268 43.458L15.443 42.9834L5.47134 29.8994C2.669 26.2215 2.66912 21.1614 5.47134 17.4834L9.41372 12.3086C10.1054 11.1879 10.906 10.1412 11.7985 9.17969L15.443 4.39844C17.4256 1.79686 20.5352 0.2648 23.8376 0.264648H123.588V0.394531Z" fill="url(#paint0_linear_333_7226)"/>
<path d="M29.9246 5.04395L245.512 5.04395" stroke="url(#paint1_linear_333_7226)" stroke-width="1.09562" stroke-linejoin="bevel"/>
<path d="M245.512 42.2402L32.0208 42.2402" stroke="url(#paint2_linear_333_7226)" stroke-width="1.09562" stroke-linejoin="bevel"/>
<path d="M14.2185 36.0817L8.45011 29.3691C5.62156 26.0775 5.62768 21.2116 8.46452 17.9272L12.6561 13.0742" stroke="url(#paint3_linear_333_7226)" stroke-width="1.09562" stroke-linejoin="bevel"/>
<path d="M15.0491 36.3139C14.7696 37.1315 14.4901 37.9492 14.2107 38.7669C14.367 38.7975 14.5234 38.8281 14.6797 38.8587C15.9293 39.1034 17.1789 39.348 18.4284 39.5927L18.6278 39.6928L19.014 39.5365C20.2771 38.5633 21.5401 37.5901 22.8032 36.6169C22.9294 36.5197 23.0556 36.4224 23.1819 36.3252C23.1819 36.3252 23.1819 36.3252 23.1819 36.3252C23.0342 36.385 22.8865 36.4447 22.7388 36.5045C21.2606 37.1025 19.7825 37.7006 18.3044 38.2986L18.8899 38.2425C17.752 37.6711 16.6141 37.0997 15.4763 36.5283C15.3339 36.4568 15.1915 36.3853 15.0491 36.3139Z" fill="url(#paint4_linear_333_7226)"/>
<path d="M31.0399 41.6591C30.63 42.4153 30.2202 43.1715 29.8104 43.9277C29.7032 43.8469 29.596 43.7661 29.4888 43.6853C28.6333 43.0406 27.7778 42.3958 26.9223 41.7511L26.7231 41.684L26.5586 41.279C26.4822 39.9493 26.4058 38.6197 26.3294 37.29C26.3218 37.1573 26.3141 37.0246 26.3065 36.8919C26.3566 37.0153 26.4067 37.1388 26.4569 37.2622C26.959 38.4992 27.4612 39.7362 27.9633 40.9731L27.5997 40.5011C28.6187 40.8441 29.6378 41.1871 30.6568 41.5301C30.7845 41.5731 30.9122 41.6161 31.0399 41.6591Z" fill="url(#paint5_linear_333_7226)"/>
<path d="M13.7107 12.9488C13.3282 12.1728 12.9456 11.3969 12.5631 10.6209C12.7143 10.571 12.8654 10.5211 13.0166 10.4713C14.2246 10.0725 15.4327 9.67381 16.6408 9.2751L16.8258 9.15081L17.2292 9.25766C18.6072 10.0653 19.9852 10.8729 21.3632 11.6806C21.5009 11.7613 21.6386 11.842 21.7762 11.9227C21.6221 11.8818 21.4679 11.841 21.3137 11.8001C19.7705 11.3914 18.2272 10.9826 16.684 10.5738L17.2725 10.5564C16.2173 11.2652 15.1621 11.9739 14.1069 12.6827C13.9748 12.7714 13.8428 12.8601 13.7107 12.9488Z" fill="url(#paint6_linear_333_7226)"/>
<path d="M28.8811 5.65095C28.3796 4.95186 27.8782 4.25277 27.3767 3.55367C27.2807 3.64723 27.1847 3.74078 27.0886 3.83433C26.3225 4.58064 25.5563 5.32696 24.7902 6.07327L24.6001 6.16526L24.4886 6.58951C24.5838 7.91732 24.6789 9.24514 24.774 10.5729C24.7835 10.7054 24.793 10.8379 24.8025 10.9704C24.8363 10.8416 24.8702 10.7129 24.904 10.5841C25.2429 9.29373 25.5819 8.00331 25.9208 6.71289L25.6193 7.22914C26.5854 6.76167 27.5516 6.29421 28.5177 5.82675C28.6388 5.76815 28.7599 5.70955 28.8811 5.65095Z" fill="url(#paint7_linear_333_7226)"/>
<path d="M245.512 5.04395L344.986 5.04395" stroke="url(#paint8_linear_333_7226)" stroke-width="1.09562" stroke-linejoin="bevel"/>
<path d="M343.081 42.2402L245.512 42.2402" stroke="url(#paint9_linear_333_7226)" stroke-width="1.09562" stroke-linejoin="bevel"/>
<path d="M359.664 36.6897L365.826 29.246C368.515 25.9971 368.509 21.2936 365.811 18.0514L359.952 11.0088" stroke="url(#paint10_linear_333_7226)" stroke-width="1.09562" stroke-linejoin="bevel"/>
<path d="M359.34 10.6983C359.611 9.87931 359.882 9.06031 360.153 8.24132C360.012 8.21693 359.87 8.19255 359.729 8.16817C358.779 8.00419 357.829 7.84021 356.879 7.67624L356.607 7.53723L356.134 7.80586C355.036 8.98431 353.938 10.1628 352.839 11.3412C352.742 11.4458 352.645 11.5503 352.547 11.6548C352.672 11.5842 352.796 11.5136 352.92 11.443C354.322 10.6468 355.723 9.85073 357.125 9.05461L356.38 9.18423C357.239 9.62359 358.098 10.0629 358.957 10.5023C359.085 10.5676 359.213 10.633 359.34 10.6983Z" fill="url(#paint11_linear_333_7226)"/>
<path d="M345.821 6.00836C346.251 5.2645 346.682 4.52065 347.112 3.7768C347.21 3.85722 347.309 3.93765 347.407 4.01807C348.177 4.64799 348.947 5.2779 349.717 5.90782L349.861 5.95979L350.049 6.3112C350.234 7.57714 350.42 8.84308 350.605 10.109C350.624 10.2335 350.642 10.358 350.66 10.4825C350.6 10.3711 350.541 10.2598 350.481 10.1484C349.875 9.01573 349.27 7.88311 348.664 6.75049L348.996 7.15387C348.057 6.81526 347.119 6.47666 346.18 6.13805C346.06 6.09482 345.94 6.05159 345.821 6.00836Z" fill="url(#paint12_linear_333_7226)"/>
<path d="M358.921 36.7651C359.115 37.606 359.309 38.447 359.503 39.2879C359.363 39.2986 359.222 39.3093 359.081 39.32C358.166 39.3897 357.25 39.4593 356.334 39.529L356.1 39.6235L355.66 39.3854C354.542 38.2214 353.423 37.0573 352.305 35.8933C352.207 35.7919 352.11 35.6906 352.012 35.5892C352.136 35.6562 352.26 35.7232 352.383 35.7902C353.804 36.5594 355.224 37.3286 356.645 38.0978L355.971 37.9543C356.823 37.6106 357.676 37.267 358.529 36.9233C358.659 36.8706 358.79 36.8178 358.921 36.7651Z" fill="url(#paint13_linear_333_7226)"/>
<path d="M344.803 41.0516C345.026 41.8805 345.248 42.7094 345.47 43.5382C345.601 43.4812 345.732 43.4242 345.863 43.3672C346.705 43 347.547 42.6328 348.389 42.2656L348.627 42.2394L348.911 41.8441C349.418 40.2923 349.925 38.7406 350.432 37.1888C350.476 37.0546 350.52 36.9203 350.564 36.7861C350.481 36.9013 350.398 37.0164 350.316 37.1316C349.36 38.4629 348.403 39.7942 347.447 41.1255L347.97 40.704C347.056 40.8043 346.142 40.9046 345.229 41.0049C345.087 41.0205 344.945 41.036 344.803 41.0516Z" fill="url(#paint14_linear_333_7226)"/>
<path fill-rule="evenodd" clip-rule="evenodd" d="M263.395 2.59277L347.573 2.72276C348.753 3.03865 350.653 3.66593 351.332 4.58857C352.741 6.5037 352.434 10.4987 352.417 10.7075L352.415 10.7151L352.417 10.7113C352.416 10.7141 352.417 10.7164 352.417 10.7164L352.419 10.7088C352.523 10.5294 354.562 7.05984 356.824 6.26325C357.849 5.90213 359.952 6.26689 361.364 6.58477L370.789 18.9531C372.895 21.7191 372.896 25.5238 370.789 28.2897L361.602 40.3441C360.282 40.6718 357.612 41.2422 356.412 40.82C354.151 40.0234 352.112 36.5538 352.008 36.3745L352.005 36.3669V36.3757C352.022 36.5846 352.329 40.5796 350.921 42.4947C350.098 43.6136 347.479 44.2992 346.524 44.5187L263.395 44.5771V47.1111H354.479L355.097 47.0934C357.97 46.927 360.65 45.6068 362.51 43.4428L362.896 42.9668L372.892 29.8467C375.702 26.1586 375.703 21.0844 372.893 17.3961L362.896 4.27465C360.908 1.6656 357.789 0.130396 354.477 0.130371L263.395 0V2.59277Z" fill="#00042E"/>
<path d="M263.395 0V2.51465L122.058 2.5918H26.8926C26.9948 2.59701 27.0534 2.60224 27.0601 2.60254C27.0098 2.62655 23.9311 4.10296 23.106 5.58203C21.9499 7.65518 22.2663 11.272 22.309 11.4756L22.313 11.4834L22.31 11.4795V11.4834L22.308 11.4766C22.1814 11.3104 20.433 8.68838 18.0893 8.1748C16.5921 7.84699 12.5973 8.75752 11.7205 8.96582L4.21181 18.8223C2.10481 21.5883 2.10462 25.3932 4.21181 28.1592L13.1786 39.9277C14.491 40.1623 18.4122 40.8116 19.7903 40.4365C22.1017 39.8062 24.3908 36.5015 24.5136 36.3223L24.5175 36.3145V36.3184L24.5165 36.3223C24.4844 36.5263 23.8806 40.4903 25.143 42.5029C25.6901 43.3749 27.1565 44.0148 28.2347 44.3877H122.058V46.9805H20.5218C17.4176 46.9804 14.4834 45.6306 12.4907 43.3125L12.1051 42.8359L2.1074 29.7158C-0.70254 26.0277 -0.70239 20.9539 2.1074 17.2656L12.1051 4.14355C14.093 1.53499 17.2108 0.000159768 20.5218 0H263.395Z" fill="#00042E"/>
<path d="M122.058 44.3877L263.395 44.5771V47.1111L122.058 46.9805V44.3877Z" fill="#00042E"/>
<path d="M139.005 23.495C139.005 24.6134 138.793 25.5649 138.369 26.3495C137.948 27.134 137.374 27.7333 136.646 28.1473C135.921 28.5579 135.107 28.7633 134.202 28.7633C133.291 28.7633 132.473 28.5563 131.748 28.1423C131.024 27.7283 130.451 27.129 130.031 26.3445C129.61 25.5599 129.4 24.6101 129.4 23.495C129.4 22.3766 129.61 21.4251 130.031 20.6405C130.451 19.856 131.024 19.2584 131.748 18.8477C132.473 18.4337 133.291 18.2268 134.202 18.2268C135.107 18.2268 135.921 18.4337 136.646 18.8477C137.374 19.2584 137.948 19.856 138.369 20.6405C138.793 21.4251 139.005 22.3766 139.005 23.495ZM136.806 23.495C136.806 22.7705 136.698 22.1596 136.481 21.6621C136.267 21.1647 135.965 20.7874 135.574 20.5304C135.184 20.2733 134.726 20.1448 134.202 20.1448C133.678 20.1448 133.221 20.2733 132.83 20.5304C132.439 20.7874 132.136 21.1647 131.919 21.6621C131.705 22.1596 131.598 22.7705 131.598 23.495C131.598 24.2195 131.705 24.8304 131.919 25.3279C132.136 25.8253 132.439 26.2026 132.83 26.4597C133.221 26.7167 133.678 26.8453 134.202 26.8453C134.726 26.8453 135.184 26.7167 135.574 26.4597C135.965 26.2026 136.267 25.8253 136.481 25.3279C136.698 24.8304 136.806 24.2195 136.806 23.495ZM140.571 31.5076V20.931H142.674V22.223H142.769C142.863 22.016 142.998 21.8057 143.175 21.592C143.355 21.375 143.589 21.1947 143.876 21.0512C144.166 20.9043 144.527 20.8308 144.958 20.8308C145.519 20.8308 146.036 20.9777 146.51 21.2715C146.984 21.562 147.363 22.001 147.647 22.5886C147.931 23.1728 148.073 23.9057 148.073 24.787C148.073 25.645 147.934 26.3695 147.657 26.9604C147.383 27.548 147.009 27.9937 146.535 28.2975C146.064 28.598 145.537 28.7482 144.953 28.7482C144.539 28.7482 144.186 28.6798 143.896 28.5429C143.609 28.406 143.374 28.2341 143.19 28.0271C143.006 27.8168 142.866 27.6048 142.769 27.3911H142.704V31.5076H140.571ZM142.659 24.777C142.659 25.2344 142.723 25.6334 142.849 25.9739C142.976 26.3144 143.16 26.5798 143.4 26.7701C143.641 26.9571 143.933 27.0506 144.277 27.0506C144.624 27.0506 144.918 26.9554 145.158 26.7651C145.398 26.5715 145.58 26.3044 145.704 25.9639C145.831 25.62 145.894 25.2244 145.894 24.777C145.894 24.333 145.832 23.9424 145.709 23.6052C145.585 23.268 145.403 23.0042 145.163 22.8139C144.923 22.6236 144.627 22.5285 144.277 22.5285C143.929 22.5285 143.636 22.6203 143.395 22.8039C143.158 22.9875 142.976 23.248 142.849 23.5852C142.723 23.9223 142.659 24.3196 142.659 24.777ZM153 28.7733C152.209 28.7733 151.528 28.613 150.957 28.2925C150.39 27.9687 149.952 27.5113 149.645 26.9204C149.338 26.3261 149.184 25.6233 149.184 24.8121C149.184 24.0208 149.338 23.3264 149.645 22.7288C149.952 22.1312 150.385 21.6655 150.942 21.3316C151.503 20.9978 152.161 20.8308 152.915 20.8308C153.423 20.8308 153.895 20.9126 154.332 21.0762C154.773 21.2365 155.157 21.4785 155.484 21.8024C155.815 22.1262 156.072 22.5335 156.255 23.0243C156.439 23.5117 156.531 24.0826 156.531 24.737V25.3229H150.036V24.0008H154.523C154.523 23.6937 154.456 23.4216 154.322 23.1845C154.189 22.9475 154.004 22.7622 153.767 22.6287C153.533 22.4918 153.261 22.4233 152.95 22.4233C152.626 22.4233 152.339 22.4984 152.089 22.6487C151.842 22.7956 151.648 22.9942 151.508 23.2446C151.368 23.4917 151.296 23.7671 151.293 24.0709V25.3279C151.293 25.7085 151.363 26.0373 151.503 26.3144C151.647 26.5915 151.848 26.8052 152.109 26.9554C152.369 27.1057 152.678 27.1808 153.035 27.1808C153.272 27.1808 153.489 27.1474 153.686 27.0806C153.883 27.0139 154.052 26.9137 154.192 26.7802C154.332 26.6466 154.439 26.483 154.513 26.2894L156.486 26.4196C156.386 26.8937 156.18 27.3077 155.87 27.6615C155.563 28.0121 155.165 28.2859 154.678 28.4828C154.194 28.6765 153.635 28.7733 153 28.7733ZM160.056 24.1761V28.623H157.923V20.931H159.956V22.2881H160.046C160.217 21.8407 160.502 21.4869 160.903 21.2265C161.303 20.9627 161.789 20.8308 162.36 20.8308C162.894 20.8308 163.36 20.9477 163.757 21.1814C164.154 21.4151 164.463 21.7489 164.684 22.183C164.904 22.6136 165.014 23.1278 165.014 23.7254V28.623H162.881V24.106C162.884 23.6352 162.764 23.268 162.52 23.0042C162.277 22.7372 161.941 22.6036 161.514 22.6036C161.227 22.6036 160.973 22.6654 160.752 22.7889C160.535 22.9124 160.365 23.0927 160.242 23.3298C160.121 23.5634 160.06 23.8456 160.056 24.1761ZM171.742 20.931L173.154 23.6202L174.602 20.931H176.79L174.562 24.777L176.85 28.623H174.672L173.154 25.9639L171.662 28.623H169.459L171.742 24.777L169.539 20.931H171.742ZM178.037 28.623V27.0606L181.688 23.6803C181.998 23.3798 182.259 23.1094 182.469 22.869C182.683 22.6287 182.845 22.3933 182.955 22.1629C183.065 21.9292 183.12 21.6772 183.12 21.4067C183.12 21.1063 183.052 20.8475 182.915 20.6305C182.778 20.4102 182.591 20.2416 182.354 20.1247C182.117 20.0045 181.848 19.9444 181.548 19.9444C181.234 19.9444 180.96 20.0079 180.726 20.1347C180.493 20.2616 180.312 20.4436 180.185 20.6806C180.059 20.9176 179.995 21.1997 179.995 21.5269H177.937C177.937 20.8559 178.089 20.2733 178.393 19.7792C178.696 19.2851 179.122 18.9028 179.67 18.6324C180.217 18.362 180.848 18.2268 181.563 18.2268C182.297 18.2268 182.936 18.357 183.481 18.6174C184.028 18.8744 184.454 19.2317 184.758 19.689C185.061 20.1464 185.213 20.6706 185.213 21.2615C185.213 21.6488 185.137 22.031 184.983 22.4083C184.833 22.7856 184.564 23.2046 184.177 23.6653C183.789 24.1227 183.244 24.6719 182.539 25.3129L181.042 26.7802V26.8503H185.349V28.623H178.037ZM190.941 28.8484C190.08 28.8451 189.339 28.6331 188.718 28.2124C188.1 27.7917 187.624 27.1825 187.29 26.3845C186.96 25.5866 186.796 24.6268 186.8 23.505C186.8 22.3866 186.965 21.4334 187.295 20.6455C187.629 19.8576 188.105 19.2584 188.723 18.8477C189.344 18.4337 190.083 18.2268 190.941 18.2268C191.799 18.2268 192.537 18.4337 193.154 18.8477C193.775 19.2617 194.253 19.8626 194.587 20.6506C194.921 21.4351 195.086 22.3866 195.083 23.505C195.083 24.6301 194.916 25.5916 194.582 26.3895C194.251 27.1875 193.777 27.7968 193.159 28.2174C192.542 28.6381 191.802 28.8484 190.941 28.8484ZM190.941 27.0506C191.529 27.0506 191.998 26.7551 192.348 26.1642C192.699 25.5733 192.872 24.6869 192.869 23.505C192.869 22.7271 192.789 22.0795 192.629 21.562C192.472 21.0445 192.248 20.6556 191.958 20.3952C191.67 20.1347 191.332 20.0045 190.941 20.0045C190.357 20.0045 189.889 20.2967 189.539 20.8809C189.188 21.4652 189.011 22.3399 189.008 23.505C189.008 24.2929 189.086 24.9506 189.243 25.4781C189.404 26.0023 189.629 26.3962 189.919 26.66C190.21 26.9204 190.55 27.0506 190.941 27.0506ZM204.705 22.6487V24.3413H200.028V22.6487H204.705ZM213.212 29.9051V17.085H214.033V29.9051H213.212ZM215.391 21.3166C215.351 20.9126 215.179 20.5988 214.875 20.3751C214.571 20.1514 214.159 20.0396 213.638 20.0396C213.284 20.0396 212.985 20.0897 212.741 20.1898C212.498 20.2866 212.311 20.4219 212.181 20.5955C212.054 20.7691 211.99 20.966 211.99 21.1864C211.984 21.37 212.022 21.5303 212.105 21.6671C212.192 21.804 212.311 21.9225 212.461 22.0227C212.611 22.1195 212.785 22.2047 212.982 22.2781C213.179 22.3482 213.389 22.4083 213.613 22.4584L214.534 22.6787C214.982 22.7789 215.392 22.9124 215.766 23.0794C216.14 23.2463 216.464 23.4516 216.738 23.6953C217.011 23.939 217.223 24.2262 217.374 24.5567C217.527 24.8872 217.606 25.2661 217.609 25.6935C217.606 26.3211 217.445 26.8653 217.128 27.326C216.814 27.7834 216.36 28.139 215.766 28.3927C215.175 28.6431 214.462 28.7683 213.628 28.7683C212.8 28.7683 212.079 28.6414 211.464 28.3877C210.853 28.1339 210.376 27.7584 210.032 27.2609C209.692 26.7601 209.513 26.1408 209.496 25.403H211.595C211.618 25.7469 211.716 26.034 211.89 26.2643C212.067 26.4914 212.302 26.6633 212.596 26.7802C212.893 26.8937 213.229 26.9504 213.603 26.9504C213.97 26.9504 214.289 26.897 214.559 26.7902C214.833 26.6833 215.045 26.5348 215.195 26.3445C215.346 26.1542 215.421 25.9355 215.421 25.6884C215.421 25.4581 215.352 25.2644 215.215 25.1075C215.082 24.9506 214.885 24.8171 214.624 24.7069C214.367 24.5967 214.052 24.4966 213.678 24.4064L212.561 24.126C211.696 23.9157 211.014 23.5868 210.513 23.1395C210.012 22.6921 209.763 22.0895 209.767 21.3316C209.763 20.7106 209.929 20.1681 210.263 19.7041C210.6 19.24 211.062 18.8778 211.65 18.6174C212.237 18.357 212.905 18.2268 213.653 18.2268C214.414 18.2268 215.078 18.357 215.646 18.6174C216.217 18.8778 216.661 19.24 216.978 19.7041C217.295 20.1681 217.459 20.7056 217.469 21.3166H215.391ZM224.64 28.623L221.705 18.367H224.074L225.772 25.4931H225.857L227.73 18.367H229.758L231.626 25.5082H231.716L233.414 18.367H235.783L232.848 28.623H230.735L228.782 21.9175H228.701L226.753 28.623H224.64ZM240.579 28.623H236.943V18.367H240.609C241.64 18.367 242.529 18.5723 243.273 18.9829C244.018 19.3902 244.59 19.9762 244.991 20.7407C245.395 21.5052 245.597 22.42 245.597 23.485C245.597 24.5533 245.395 25.4714 244.991 26.2393C244.59 27.0072 244.014 27.5964 243.263 28.0071C242.515 28.4177 241.62 28.623 240.579 28.623ZM239.112 26.7651H240.489C241.13 26.7651 241.669 26.6516 242.106 26.4246C242.547 26.1942 242.877 25.8387 243.098 25.3579C243.321 24.8738 243.433 24.2495 243.433 23.485C243.433 22.7271 243.321 22.1078 243.098 21.6271C242.877 21.1463 242.549 20.7924 242.111 20.5654C241.674 20.3384 241.135 20.2249 240.494 20.2249H239.112V26.7651Z" fill="white"/>
<defs>
<linearGradient id="paint0_linear_333_7226" x1="189.185" y1="0.264648" x2="189.185" y2="47.2461" gradientUnits="userSpaceOnUse">
<stop stop-color="#0144BD"/>
<stop offset="1" stop-color="#192871"/>
</linearGradient>
<linearGradient id="paint1_linear_333_7226" x1="529.51" y1="5.54395" x2="29.9246" y2="5.54395" gradientUnits="userSpaceOnUse">
<stop stop-color="#020C7B"/>
<stop offset="0.5" stop-color="#040825"/>
<stop offset="1" stop-color="#000D61"/>
</linearGradient>
<linearGradient id="paint2_linear_333_7226" x1="529.237" y1="42.7402" x2="32.0208" y2="42.7402" gradientUnits="userSpaceOnUse">
<stop stop-color="#020C7B"/>
<stop offset="0.5" stop-color="#040825"/>
<stop offset="1" stop-color="#000D61"/>
</linearGradient>
<linearGradient id="paint3_linear_333_7226" x1="14.2185" y1="24.578" x2="3.52856" y2="24.578" gradientUnits="userSpaceOnUse">
<stop stop-color="#020C7B"/>
<stop offset="0.5" stop-color="#040825"/>
<stop offset="1" stop-color="#000D61"/>
</linearGradient>
<linearGradient id="paint4_linear_333_7226" x1="23.1819" y1="37.6214" x2="14.6299" y2="37.6214" gradientUnits="userSpaceOnUse">
<stop stop-color="#020C7B"/>
<stop offset="0.5" stop-color="#040825"/>
<stop offset="1" stop-color="#000D61"/>
</linearGradient>
<linearGradient id="paint5_linear_333_7226" x1="25.493" y1="37.6319" x2="30.2957" y2="42.9111" gradientUnits="userSpaceOnUse">
<stop stop-color="#020C7B"/>
<stop offset="0.5" stop-color="#040825"/>
<stop offset="1" stop-color="#000D61"/>
</linearGradient>
<linearGradient id="paint6_linear_333_7226" x1="21.6095" y1="10.6369" x2="13.1306" y2="11.7363" gradientUnits="userSpaceOnUse">
<stop stop-color="#020C7B"/>
<stop offset="0.5" stop-color="#040825"/>
<stop offset="1" stop-color="#000D61"/>
</linearGradient>
<linearGradient id="paint7_linear_333_7226" x1="23.9004" y1="10.3379" x2="27.9903" y2="4.5051" gradientUnits="userSpaceOnUse">
<stop stop-color="#020C7B"/>
<stop offset="0.5" stop-color="#040825"/>
<stop offset="1" stop-color="#000D61"/>
</linearGradient>
<linearGradient id="paint8_linear_333_7226" x1="344.986" y1="5.54395" x2="170" y2="5.54395" gradientUnits="userSpaceOnUse">
<stop stop-color="#020C7B"/>
<stop offset="0.5" stop-color="#040825"/>
<stop offset="1" stop-color="#000D61"/>
</linearGradient>
<linearGradient id="paint9_linear_333_7226" x1="343.081" y1="42.7402" x2="172.096" y2="42.7402" gradientUnits="userSpaceOnUse">
<stop stop-color="#020C7B"/>
<stop offset="0.5" stop-color="#040825"/>
<stop offset="1" stop-color="#000D61"/>
</linearGradient>
<linearGradient id="paint10_linear_333_7226" x1="370.463" y1="23.8492" x2="359.664" y2="23.8492" gradientUnits="userSpaceOnUse">
<stop stop-color="#020C7B"/>
<stop offset="0.5" stop-color="#040825"/>
<stop offset="1" stop-color="#000D61"/>
</linearGradient>
<linearGradient id="paint11_linear_333_7226" x1="352.352" y1="10.3729" x2="359.714" y2="9.25231" gradientUnits="userSpaceOnUse">
<stop stop-color="#020C7B"/>
<stop offset="0.5" stop-color="#040825"/>
<stop offset="1" stop-color="#000D61"/>
</linearGradient>
<linearGradient id="paint12_linear_333_7226" x1="351.089" y1="10.1873" x2="347.127" y2="4.43752" gradientUnits="userSpaceOnUse">
<stop stop-color="#020C7B"/>
<stop offset="0.5" stop-color="#040825"/>
<stop offset="1" stop-color="#000D61"/>
</linearGradient>
<linearGradient id="paint13_linear_333_7226" x1="351.84" y1="36.8743" x2="359.234" y2="37.8635" gradientUnits="userSpaceOnUse">
<stop stop-color="#020C7B"/>
<stop offset="0.5" stop-color="#040825"/>
<stop offset="1" stop-color="#000D61"/>
</linearGradient>
<linearGradient id="paint14_linear_333_7226" x1="351.084" y1="37.1305" x2="347.166" y2="43.0385" gradientUnits="userSpaceOnUse">
<stop stop-color="#020C7B"/>
<stop offset="0.5" stop-color="#040825"/>
<stop offset="1" stop-color="#000D61"/>
</linearGradient>
</defs>
</svg>
