<svg width="375" height="48" viewBox="0 0 375 48" fill="none" xmlns="http://www.w3.org/2000/svg">
<path d="M123.588 0.394531H354.532C357.834 0.394727 360.945 1.92569 362.927 4.52734L372.899 17.6123C375.701 21.2904 375.7 26.3514 372.897 30.0293L362.927 43.1133L362.544 43.5879C360.689 45.7459 358.015 47.0625 355.149 47.2285L354.533 47.2461H262.172V47.1162H23.8376C20.7414 47.1161 17.8142 45.77 15.8268 43.458L15.443 42.9834L5.47134 29.8994C2.669 26.2215 2.66912 21.1614 5.47134 17.4834L9.41372 12.3086C10.1054 11.1879 10.906 10.1412 11.7985 9.17969L15.443 4.39844C17.4256 1.79686 20.5352 0.2648 23.8376 0.264648H123.588V0.394531Z" fill="url(#paint0_linear_333_7160)"/>
<path d="M29.9246 5.04395L245.512 5.04395" stroke="url(#paint1_linear_333_7160)" stroke-width="1.09562" stroke-linejoin="bevel"/>
<path d="M245.512 42.2402L32.0208 42.2402" stroke="url(#paint2_linear_333_7160)" stroke-width="1.09562" stroke-linejoin="bevel"/>
<path d="M14.2185 36.0817L8.45011 29.3691C5.62156 26.0775 5.62768 21.2116 8.46452 17.9272L12.6561 13.0742" stroke="url(#paint3_linear_333_7160)" stroke-width="1.09562" stroke-linejoin="bevel"/>
<path d="M15.0491 36.3139C14.7696 37.1315 14.4901 37.9492 14.2107 38.7669C14.367 38.7975 14.5234 38.8281 14.6797 38.8587C15.9293 39.1034 17.1789 39.348 18.4284 39.5927L18.6278 39.6928L19.014 39.5365C20.2771 38.5633 21.5401 37.5901 22.8032 36.6169C22.9294 36.5197 23.0556 36.4224 23.1819 36.3252C23.1819 36.3252 23.1819 36.3252 23.1819 36.3252C23.0342 36.385 22.8865 36.4447 22.7388 36.5045C21.2606 37.1025 19.7825 37.7006 18.3044 38.2986L18.8899 38.2425C17.752 37.6711 16.6141 37.0997 15.4763 36.5283C15.3339 36.4568 15.1915 36.3853 15.0491 36.3139Z" fill="url(#paint4_linear_333_7160)"/>
<path d="M31.0399 41.6591C30.63 42.4153 30.2202 43.1715 29.8104 43.9277C29.7032 43.8469 29.596 43.7661 29.4888 43.6853C28.6333 43.0406 27.7778 42.3958 26.9223 41.7511L26.7231 41.684L26.5586 41.279C26.4822 39.9493 26.4058 38.6197 26.3294 37.29C26.3218 37.1573 26.3141 37.0246 26.3065 36.8919C26.3566 37.0153 26.4067 37.1388 26.4569 37.2622C26.959 38.4992 27.4612 39.7362 27.9633 40.9731L27.5997 40.5011C28.6187 40.8441 29.6378 41.1871 30.6568 41.5301C30.7845 41.5731 30.9122 41.6161 31.0399 41.6591Z" fill="url(#paint5_linear_333_7160)"/>
<path d="M13.7107 12.9488C13.3282 12.1728 12.9456 11.3969 12.5631 10.6209C12.7143 10.571 12.8654 10.5211 13.0166 10.4713C14.2246 10.0725 15.4327 9.67381 16.6408 9.2751L16.8258 9.15081L17.2292 9.25766C18.6072 10.0653 19.9852 10.8729 21.3632 11.6806C21.5009 11.7613 21.6386 11.842 21.7762 11.9227C21.6221 11.8818 21.4679 11.841 21.3137 11.8001C19.7705 11.3914 18.2272 10.9826 16.684 10.5738L17.2725 10.5564C16.2173 11.2652 15.1621 11.9739 14.1069 12.6827C13.9748 12.7714 13.8428 12.8601 13.7107 12.9488Z" fill="url(#paint6_linear_333_7160)"/>
<path d="M28.8811 5.65095C28.3796 4.95186 27.8782 4.25277 27.3767 3.55367C27.2807 3.64723 27.1847 3.74078 27.0886 3.83433C26.3225 4.58064 25.5563 5.32696 24.7902 6.07327L24.6001 6.16526L24.4886 6.58951C24.5838 7.91732 24.6789 9.24514 24.774 10.5729C24.7835 10.7054 24.793 10.8379 24.8025 10.9704C24.8363 10.8416 24.8702 10.7129 24.904 10.5841C25.2429 9.29373 25.5819 8.00331 25.9208 6.71289L25.6193 7.22914C26.5854 6.76167 27.5516 6.29421 28.5177 5.82675C28.6388 5.76815 28.7599 5.70955 28.8811 5.65095Z" fill="url(#paint7_linear_333_7160)"/>
<path d="M245.512 5.04395L344.986 5.04395" stroke="url(#paint8_linear_333_7160)" stroke-width="1.09562" stroke-linejoin="bevel"/>
<path d="M343.081 42.2402L245.512 42.2402" stroke="url(#paint9_linear_333_7160)" stroke-width="1.09562" stroke-linejoin="bevel"/>
<path d="M359.664 36.6897L365.826 29.246C368.515 25.9971 368.509 21.2936 365.811 18.0514L359.952 11.0088" stroke="url(#paint10_linear_333_7160)" stroke-width="1.09562" stroke-linejoin="bevel"/>
<path d="M359.34 10.6983C359.611 9.87931 359.882 9.06031 360.153 8.24132C360.012 8.21693 359.87 8.19255 359.729 8.16817C358.779 8.00419 357.829 7.84021 356.879 7.67624L356.607 7.53723L356.134 7.80586C355.036 8.98431 353.938 10.1628 352.839 11.3412C352.742 11.4458 352.645 11.5503 352.547 11.6548C352.672 11.5842 352.796 11.5136 352.92 11.443C354.322 10.6468 355.723 9.85073 357.125 9.05461L356.38 9.18423C357.239 9.62359 358.098 10.0629 358.957 10.5023C359.085 10.5676 359.213 10.633 359.34 10.6983Z" fill="url(#paint11_linear_333_7160)"/>
<path d="M345.821 6.00836C346.251 5.2645 346.682 4.52065 347.112 3.7768C347.21 3.85722 347.309 3.93765 347.407 4.01807C348.177 4.64799 348.947 5.2779 349.717 5.90782L349.861 5.95979L350.049 6.3112C350.234 7.57714 350.42 8.84308 350.605 10.109C350.624 10.2335 350.642 10.358 350.66 10.4825C350.6 10.3711 350.541 10.2598 350.481 10.1484C349.875 9.01573 349.27 7.88311 348.664 6.75049L348.996 7.15387C348.057 6.81526 347.119 6.47666 346.18 6.13805C346.06 6.09482 345.94 6.05159 345.821 6.00836Z" fill="url(#paint12_linear_333_7160)"/>
<path d="M358.921 36.7651C359.115 37.606 359.309 38.447 359.503 39.2879C359.363 39.2986 359.222 39.3093 359.081 39.32C358.166 39.3897 357.25 39.4593 356.334 39.529L356.1 39.6235L355.66 39.3854C354.542 38.2214 353.423 37.0573 352.305 35.8933C352.207 35.7919 352.11 35.6906 352.012 35.5892C352.136 35.6562 352.26 35.7232 352.383 35.7902C353.804 36.5594 355.224 37.3286 356.645 38.0978L355.971 37.9543C356.823 37.6106 357.676 37.267 358.529 36.9233C358.659 36.8706 358.79 36.8178 358.921 36.7651Z" fill="url(#paint13_linear_333_7160)"/>
<path d="M344.803 41.0516C345.026 41.8805 345.248 42.7094 345.47 43.5382C345.601 43.4812 345.732 43.4242 345.863 43.3672C346.705 43 347.547 42.6328 348.389 42.2656L348.627 42.2394L348.911 41.8441C349.418 40.2923 349.925 38.7406 350.432 37.1888C350.476 37.0546 350.52 36.9203 350.564 36.7861C350.481 36.9013 350.398 37.0164 350.316 37.1316C349.36 38.4629 348.403 39.7942 347.447 41.1255L347.97 40.704C347.056 40.8043 346.142 40.9046 345.229 41.0049C345.087 41.0205 344.945 41.036 344.803 41.0516Z" fill="url(#paint14_linear_333_7160)"/>
<path fill-rule="evenodd" clip-rule="evenodd" d="M263.395 2.59277L347.573 2.72276C348.753 3.03865 350.653 3.66593 351.332 4.58857C352.741 6.5037 352.434 10.4987 352.417 10.7075L352.415 10.7151L352.417 10.7113C352.416 10.7141 352.417 10.7164 352.417 10.7164L352.419 10.7088C352.523 10.5294 354.562 7.05984 356.824 6.26325C357.849 5.90213 359.952 6.26689 361.364 6.58477L370.789 18.9531C372.895 21.7191 372.896 25.5238 370.789 28.2897L361.602 40.3441C360.282 40.6718 357.612 41.2422 356.412 40.82C354.151 40.0234 352.112 36.5538 352.008 36.3745L352.005 36.3669V36.3757C352.022 36.5846 352.329 40.5796 350.921 42.4947C350.098 43.6136 347.479 44.2992 346.524 44.5187L263.395 44.5771V47.1111H354.479L355.097 47.0934C357.97 46.927 360.65 45.6068 362.51 43.4428L362.896 42.9668L372.892 29.8467C375.702 26.1586 375.703 21.0844 372.893 17.3961L362.896 4.27465C360.908 1.6656 357.789 0.130396 354.477 0.130371L263.395 0V2.59277Z" fill="#00042E"/>
<path d="M263.395 0V2.51465L122.058 2.5918H26.8926C26.9948 2.59701 27.0534 2.60224 27.0601 2.60254C27.0098 2.62655 23.9311 4.10296 23.106 5.58203C21.9499 7.65518 22.2663 11.272 22.309 11.4756L22.313 11.4834L22.31 11.4795V11.4834L22.308 11.4766C22.1814 11.3104 20.433 8.68838 18.0893 8.1748C16.5921 7.84699 12.5973 8.75752 11.7205 8.96582L4.21181 18.8223C2.10481 21.5883 2.10462 25.3932 4.21181 28.1592L13.1786 39.9277C14.491 40.1623 18.4122 40.8116 19.7903 40.4365C22.1017 39.8062 24.3908 36.5015 24.5136 36.3223L24.5175 36.3145V36.3184L24.5165 36.3223C24.4844 36.5263 23.8806 40.4903 25.143 42.5029C25.6901 43.3749 27.1565 44.0148 28.2347 44.3877H122.058V46.9805H20.5218C17.4176 46.9804 14.4834 45.6306 12.4907 43.3125L12.1051 42.8359L2.1074 29.7158C-0.70254 26.0277 -0.70239 20.9539 2.1074 17.2656L12.1051 4.14355C14.093 1.53499 17.2108 0.000159768 20.5218 0H263.395Z" fill="#00042E"/>
<path d="M122.058 44.3877L263.395 44.5771V47.1111L122.058 46.9805V44.3877Z" fill="#00042E"/>
<path d="M139.996 23.495C139.996 24.6134 139.784 25.5649 139.36 26.3495C138.94 27.134 138.365 27.7333 137.637 28.1473C136.913 28.5579 136.098 28.7633 135.194 28.7633C134.282 28.7633 133.464 28.5563 132.74 28.1423C132.015 27.7283 131.443 27.129 131.022 26.3445C130.601 25.5599 130.391 24.6101 130.391 23.495C130.391 22.3766 130.601 21.4251 131.022 20.6405C131.443 19.856 132.015 19.2584 132.74 18.8477C133.464 18.4337 134.282 18.2268 135.194 18.2268C136.098 18.2268 136.913 18.4337 137.637 18.8477C138.365 19.2584 138.94 19.856 139.36 20.6405C139.784 21.4251 139.996 22.3766 139.996 23.495ZM137.798 23.495C137.798 22.7705 137.689 22.1596 137.472 21.6621C137.259 21.1647 136.956 20.7874 136.566 20.5304C136.175 20.2733 135.718 20.1448 135.194 20.1448C134.669 20.1448 134.212 20.2733 133.821 20.5304C133.431 20.7874 133.127 21.1647 132.91 21.6621C132.696 22.1596 132.59 22.7705 132.59 23.495C132.59 24.2195 132.696 24.8304 132.91 25.3279C133.127 25.8253 133.431 26.2026 133.821 26.4597C134.212 26.7167 134.669 26.8453 135.194 26.8453C135.718 26.8453 136.175 26.7167 136.566 26.4597C136.956 26.2026 137.259 25.8253 137.472 25.3279C137.689 24.8304 137.798 24.2195 137.798 23.495ZM141.562 31.5076V20.931H143.666V22.223H143.761C143.854 22.016 143.99 21.8057 144.166 21.592C144.347 21.375 144.58 21.1947 144.868 21.0512C145.158 20.9043 145.519 20.8308 145.949 20.8308C146.51 20.8308 147.028 20.9777 147.502 21.2715C147.976 21.562 148.355 22.001 148.638 22.5886C148.922 23.1728 149.064 23.9057 149.064 24.787C149.064 25.645 148.926 26.3695 148.648 26.9604C148.375 27.548 148.001 27.9937 147.527 28.2975C147.056 28.598 146.528 28.7482 145.944 28.7482C145.53 28.7482 145.178 28.6798 144.888 28.5429C144.6 28.406 144.365 28.2341 144.181 28.0271C143.998 27.8168 143.858 27.6048 143.761 27.3911H143.696V31.5076H141.562ZM143.651 24.777C143.651 25.2344 143.714 25.6334 143.841 25.9739C143.968 26.3144 144.151 26.5798 144.392 26.7701C144.632 26.9571 144.924 27.0506 145.268 27.0506C145.615 27.0506 145.909 26.9554 146.15 26.7651C146.39 26.5715 146.572 26.3044 146.695 25.9639C146.822 25.62 146.886 25.2244 146.886 24.777C146.886 24.333 146.824 23.9424 146.7 23.6052C146.577 23.268 146.395 23.0042 146.155 22.8139C145.914 22.6236 145.619 22.5285 145.268 22.5285C144.921 22.5285 144.627 22.6203 144.387 22.8039C144.15 22.9875 143.968 23.248 143.841 23.5852C143.714 23.9223 143.651 24.3196 143.651 24.777ZM153.992 28.7733C153.201 28.7733 152.52 28.613 151.949 28.2925C151.381 27.9687 150.944 27.5113 150.637 26.9204C150.329 26.3261 150.176 25.6233 150.176 24.8121C150.176 24.0208 150.329 23.3264 150.637 22.7288C150.944 22.1312 151.376 21.6655 151.934 21.3316C152.495 20.9978 153.152 20.8308 153.907 20.8308C154.414 20.8308 154.887 20.9126 155.324 21.0762C155.765 21.2365 156.149 21.4785 156.476 21.8024C156.806 22.1262 157.063 22.5335 157.247 23.0243C157.431 23.5117 157.522 24.0826 157.522 24.737V25.3229H151.027V24.0008H155.514C155.514 23.6937 155.447 23.4216 155.314 23.1845C155.18 22.9475 154.995 22.7622 154.758 22.6287C154.524 22.4918 154.252 22.4233 153.942 22.4233C153.618 22.4233 153.331 22.4984 153.08 22.6487C152.833 22.7956 152.64 22.9942 152.5 23.2446C152.359 23.4917 152.288 23.7671 152.284 24.0709V25.3279C152.284 25.7085 152.354 26.0373 152.495 26.3144C152.638 26.5915 152.84 26.8052 153.1 26.9554C153.361 27.1057 153.67 27.1808 154.027 27.1808C154.264 27.1808 154.481 27.1474 154.678 27.0806C154.875 27.0139 155.044 26.9137 155.184 26.7802C155.324 26.6466 155.431 26.483 155.504 26.2894L157.477 26.4196C157.377 26.8937 157.172 27.3077 156.861 27.6615C156.554 28.0121 156.157 28.2859 155.669 28.4828C155.185 28.6765 154.626 28.7733 153.992 28.7733ZM161.048 24.1761V28.623H158.915V20.931H160.948V22.2881H161.038C161.208 21.8407 161.494 21.4869 161.894 21.2265C162.295 20.9627 162.781 20.8308 163.352 20.8308C163.886 20.8308 164.351 20.9477 164.749 21.1814C165.146 21.4151 165.455 21.7489 165.675 22.183C165.896 22.6136 166.006 23.1278 166.006 23.7254V28.623H163.872V24.106C163.876 23.6352 163.755 23.268 163.512 23.0042C163.268 22.7372 162.933 22.6036 162.505 22.6036C162.218 22.6036 161.964 22.6654 161.744 22.7889C161.527 22.9124 161.357 23.0927 161.233 23.3298C161.113 23.5634 161.051 23.8456 161.048 24.1761ZM172.734 20.931L174.146 23.6202L175.593 20.931H177.782L175.553 24.777L177.842 28.623H175.663L174.146 25.9639L172.654 28.623H170.45L172.734 24.777L170.53 20.931H172.734ZM183.491 18.367V28.623H181.322V20.4252H181.262L178.913 21.8975V19.9745L181.452 18.367H183.491ZM189.949 28.8484C189.088 28.8451 188.347 28.6331 187.726 28.2124C187.108 27.7917 186.633 27.1825 186.299 26.3845C185.968 25.5866 185.805 24.6268 185.808 23.505C185.808 22.3866 185.973 21.4334 186.304 20.6455C186.638 19.8576 187.113 19.2584 187.731 18.8477C188.352 18.4337 189.091 18.2268 189.949 18.2268C190.807 18.2268 191.545 18.4337 192.163 18.8477C192.784 19.2617 193.261 19.8626 193.595 20.6506C193.929 21.4351 194.094 22.3866 194.091 23.505C194.091 24.6301 193.924 25.5916 193.59 26.3895C193.26 27.1875 192.786 27.7968 192.168 28.2174C191.55 28.6381 190.811 28.8484 189.949 28.8484ZM189.949 27.0506C190.537 27.0506 191.006 26.7551 191.357 26.1642C191.707 25.5733 191.881 24.6869 191.877 23.505C191.877 22.7271 191.797 22.0795 191.637 21.562C191.48 21.0445 191.257 20.6556 190.966 20.3952C190.679 20.1347 190.34 20.0045 189.949 20.0045C189.365 20.0045 188.898 20.2967 188.547 20.8809C188.197 21.4652 188.02 22.3399 188.016 23.505C188.016 24.2929 188.095 24.9506 188.252 25.4781C188.412 26.0023 188.637 26.3962 188.928 26.66C189.218 26.9204 189.559 27.0506 189.949 27.0506ZM203.714 22.6487V24.3413H199.036V22.6487H203.714ZM212.221 29.9051V17.085H213.042V29.9051H212.221ZM214.399 21.3166C214.359 20.9126 214.187 20.5988 213.883 20.3751C213.579 20.1514 213.167 20.0396 212.646 20.0396C212.292 20.0396 211.994 20.0897 211.75 20.1898C211.506 20.2866 211.319 20.4219 211.189 20.5955C211.062 20.7691 210.999 20.966 210.999 21.1864C210.992 21.37 211.03 21.5303 211.114 21.6671C211.201 21.804 211.319 21.9225 211.469 22.0227C211.62 22.1195 211.793 22.2047 211.99 22.2781C212.187 22.3482 212.398 22.4083 212.621 22.4584L213.543 22.6787C213.99 22.7789 214.401 22.9124 214.775 23.0794C215.149 23.2463 215.472 23.4516 215.746 23.6953C216.02 23.939 216.232 24.2262 216.382 24.5567C216.536 24.8872 216.614 25.2661 216.618 25.6935C216.614 26.3211 216.454 26.8653 216.137 27.326C215.823 27.7834 215.369 28.139 214.775 28.3927C214.184 28.6431 213.471 28.7683 212.636 28.7683C211.808 28.7683 211.087 28.6414 210.473 28.3877C209.862 28.1339 209.385 27.7584 209.041 27.2609C208.7 26.7601 208.521 26.1408 208.505 25.403H210.603C210.626 25.7469 210.725 26.034 210.899 26.2643C211.075 26.4914 211.311 26.6633 211.605 26.7802C211.902 26.8937 212.237 26.9504 212.611 26.9504C212.978 26.9504 213.297 26.897 213.568 26.7902C213.842 26.6833 214.054 26.5348 214.204 26.3445C214.354 26.1542 214.429 25.9355 214.429 25.6884C214.429 25.4581 214.361 25.2644 214.224 25.1075C214.09 24.9506 213.893 24.8171 213.633 24.7069C213.376 24.5967 213.06 24.4966 212.686 24.4064L211.57 24.126C210.705 23.9157 210.022 23.5868 209.521 23.1395C209.021 22.6921 208.772 22.0895 208.775 21.3316C208.772 20.7106 208.937 20.1681 209.271 19.7041C209.608 19.24 210.071 18.8778 210.658 18.6174C211.246 18.357 211.913 18.2268 212.661 18.2268C213.423 18.2268 214.087 18.357 214.654 18.6174C215.225 18.8778 215.669 19.24 215.987 19.7041C216.304 20.1681 216.467 20.7056 216.477 21.3166H214.399ZM223.649 28.623L220.714 18.367H223.083L224.78 25.4931H224.865L226.738 18.367H228.767L230.634 25.5082H230.725L232.422 18.367H234.791L231.856 28.623H229.743L227.79 21.9175H227.71L225.762 28.623H223.649ZM239.587 28.623H235.952V18.367H239.617C240.649 18.367 241.537 18.5723 242.281 18.9829C243.026 19.3902 243.599 19.9762 243.999 20.7407C244.403 21.5052 244.605 22.42 244.605 23.485C244.605 24.5533 244.403 25.4714 243.999 26.2393C243.599 27.0072 243.023 27.5964 242.271 28.0071C241.524 28.4177 240.629 28.623 239.587 28.623ZM238.12 26.7651H239.497C240.138 26.7651 240.677 26.6516 241.115 26.4246C241.555 26.1942 241.886 25.8387 242.106 25.3579C242.33 24.8738 242.442 24.2495 242.442 23.485C242.442 22.7271 242.33 22.1078 242.106 21.6271C241.886 21.1463 241.557 20.7924 241.12 20.5654C240.682 20.3384 240.143 20.2249 239.502 20.2249H238.12V26.7651Z" fill="white"/>
<defs>
<linearGradient id="paint0_linear_333_7160" x1="189.185" y1="0.264648" x2="189.185" y2="47.2461" gradientUnits="userSpaceOnUse">
<stop stop-color="#0144BD"/>
<stop offset="1" stop-color="#192871"/>
</linearGradient>
<linearGradient id="paint1_linear_333_7160" x1="529.51" y1="5.54395" x2="29.9246" y2="5.54395" gradientUnits="userSpaceOnUse">
<stop stop-color="#020C7B"/>
<stop offset="0.5" stop-color="#040825"/>
<stop offset="1" stop-color="#000D61"/>
</linearGradient>
<linearGradient id="paint2_linear_333_7160" x1="529.237" y1="42.7402" x2="32.0208" y2="42.7402" gradientUnits="userSpaceOnUse">
<stop stop-color="#020C7B"/>
<stop offset="0.5" stop-color="#040825"/>
<stop offset="1" stop-color="#000D61"/>
</linearGradient>
<linearGradient id="paint3_linear_333_7160" x1="14.2185" y1="24.578" x2="3.52856" y2="24.578" gradientUnits="userSpaceOnUse">
<stop stop-color="#020C7B"/>
<stop offset="0.5" stop-color="#040825"/>
<stop offset="1" stop-color="#000D61"/>
</linearGradient>
<linearGradient id="paint4_linear_333_7160" x1="23.1819" y1="37.6214" x2="14.6299" y2="37.6214" gradientUnits="userSpaceOnUse">
<stop stop-color="#020C7B"/>
<stop offset="0.5" stop-color="#040825"/>
<stop offset="1" stop-color="#000D61"/>
</linearGradient>
<linearGradient id="paint5_linear_333_7160" x1="25.493" y1="37.6319" x2="30.2957" y2="42.9111" gradientUnits="userSpaceOnUse">
<stop stop-color="#020C7B"/>
<stop offset="0.5" stop-color="#040825"/>
<stop offset="1" stop-color="#000D61"/>
</linearGradient>
<linearGradient id="paint6_linear_333_7160" x1="21.6095" y1="10.6369" x2="13.1306" y2="11.7363" gradientUnits="userSpaceOnUse">
<stop stop-color="#020C7B"/>
<stop offset="0.5" stop-color="#040825"/>
<stop offset="1" stop-color="#000D61"/>
</linearGradient>
<linearGradient id="paint7_linear_333_7160" x1="23.9004" y1="10.3379" x2="27.9903" y2="4.5051" gradientUnits="userSpaceOnUse">
<stop stop-color="#020C7B"/>
<stop offset="0.5" stop-color="#040825"/>
<stop offset="1" stop-color="#000D61"/>
</linearGradient>
<linearGradient id="paint8_linear_333_7160" x1="344.986" y1="5.54395" x2="170" y2="5.54395" gradientUnits="userSpaceOnUse">
<stop stop-color="#020C7B"/>
<stop offset="0.5" stop-color="#040825"/>
<stop offset="1" stop-color="#000D61"/>
</linearGradient>
<linearGradient id="paint9_linear_333_7160" x1="343.081" y1="42.7402" x2="172.096" y2="42.7402" gradientUnits="userSpaceOnUse">
<stop stop-color="#020C7B"/>
<stop offset="0.5" stop-color="#040825"/>
<stop offset="1" stop-color="#000D61"/>
</linearGradient>
<linearGradient id="paint10_linear_333_7160" x1="370.463" y1="23.8492" x2="359.664" y2="23.8492" gradientUnits="userSpaceOnUse">
<stop stop-color="#020C7B"/>
<stop offset="0.5" stop-color="#040825"/>
<stop offset="1" stop-color="#000D61"/>
</linearGradient>
<linearGradient id="paint11_linear_333_7160" x1="352.352" y1="10.3729" x2="359.714" y2="9.25231" gradientUnits="userSpaceOnUse">
<stop stop-color="#020C7B"/>
<stop offset="0.5" stop-color="#040825"/>
<stop offset="1" stop-color="#000D61"/>
</linearGradient>
<linearGradient id="paint12_linear_333_7160" x1="351.089" y1="10.1873" x2="347.127" y2="4.43752" gradientUnits="userSpaceOnUse">
<stop stop-color="#020C7B"/>
<stop offset="0.5" stop-color="#040825"/>
<stop offset="1" stop-color="#000D61"/>
</linearGradient>
<linearGradient id="paint13_linear_333_7160" x1="351.84" y1="36.8743" x2="359.234" y2="37.8635" gradientUnits="userSpaceOnUse">
<stop stop-color="#020C7B"/>
<stop offset="0.5" stop-color="#040825"/>
<stop offset="1" stop-color="#000D61"/>
</linearGradient>
<linearGradient id="paint14_linear_333_7160" x1="351.084" y1="37.1305" x2="347.166" y2="43.0385" gradientUnits="userSpaceOnUse">
<stop stop-color="#020C7B"/>
<stop offset="0.5" stop-color="#040825"/>
<stop offset="1" stop-color="#000D61"/>
</linearGradient>
</defs>
</svg>
