<svg width="160" height="47" viewBox="12.96 7.77 160 47" fill="none" xmlns="http://www.w3.org/2000/svg">
<g filter="url(#filter1_i_817_11490)">
<path d="M158.909 7.77734C161.177 7.77745 163.312 9.31327 164.674 11.9233L171.519 25.0501C173.443 28.7399 173.442 33.8162 171.518 37.5058L164.674 50.6314L164.41 51.1075C163.136 53.2723 161.301 54.5931 159.333 54.7596L158.91 54.7773H27.0143C24.8886 54.7773 22.8791 53.4268 21.5146 51.1075L21.2507 50.6314L14.405 37.5058C12.4808 33.8161 12.4809 28.7399 14.405 25.0501L17.1113 19.8594C17.5862 18.735 18.1357 17.6849 18.7486 16.7202L21.2507 11.9233C22.6119 9.31349 24.747 7.7775 27.0143 7.77734H158.909Z" fill="url(#paint0_linear_817_11490)"/>
</g>
<g filter="url(#filter2_i_817_11490)">
<path fill-rule="evenodd" clip-rule="evenodd" d="M158.909 7.77734C161.177 7.77737 163.312 9.3132 164.674 11.9233L171.519 25.0501C173.443 28.7399 173.443 33.8162 171.518 37.5058L164.674 50.6314L164.41 51.1075C163.136 53.2724 161.301 54.5931 159.333 54.7596L158.91 54.7773H27.0143C24.8886 54.7772 22.8791 53.4269 21.5146 51.1075L21.2507 50.6314L14.405 37.5058C12.4808 33.8161 12.4809 28.7399 14.405 25.0501L21.2507 11.9233C22.6119 9.3134 24.7469 7.7775 27.0143 7.77734H158.909ZM31.4916 10.3809C31.4708 10.3954 29.3503 11.8773 28.7835 13.3619C27.9918 15.4361 28.2088 19.0549 28.2381 19.2579L28.2407 19.2655L28.2389 19.2617V19.2655L28.2372 19.2592C28.1509 19.0939 26.954 16.4692 25.3488 15.9553C24.3237 15.6272 21.5881 16.5384 20.9876 16.7468L15.8461 26.6077C14.4033 29.3749 14.4032 33.1811 15.8461 35.9482L21.9862 47.7213C22.885 47.9561 25.5703 48.606 26.5137 48.2304C28.0967 47.5997 29.6642 44.2931 29.7478 44.1148L29.7504 44.1072V44.111L29.7496 44.1148C29.7276 44.3189 29.3142 48.285 30.1789 50.2983C30.5536 51.1707 31.5573 51.8109 32.2957 52.1839H153.463C154.117 51.9643 155.91 51.2784 156.474 50.159C157.438 48.2431 157.228 44.2465 157.216 44.0376V44.0287L157.218 44.0363C157.29 44.2157 158.686 47.6867 160.234 48.4837C161.055 48.906 162.884 48.3354 163.788 48.0075L170.078 35.9482C171.521 33.1812 171.521 29.3749 170.078 26.6077L163.625 14.2344C162.658 13.9164 161.218 13.5515 160.516 13.9127C158.967 14.7096 157.571 18.1807 157.5 18.3601L157.498 18.3677C157.498 18.3677 157.498 18.3654 157.498 18.3626L157.497 18.3664L157.498 18.3588C157.51 18.1499 157.72 14.1533 156.755 12.2374C156.291 11.3144 154.99 10.6868 154.181 10.3708H31.3763C31.448 10.3761 31.4884 10.3808 31.4916 10.3809Z" fill="#00053D"/>
</g>
<path d="M33.3657 12.5596L153.187 12.5596" stroke="url(#paint1_linear_817_11490)" stroke-width="1.09562" stroke-linejoin="bevel"/>
<path d="M151.883 49.7705L34.8013 49.7705" stroke="url(#paint2_linear_817_11490)" stroke-width="1.09562" stroke-linejoin="bevel"/>
<path d="M163.238 44.2178L168.179 35.4973C169.7 32.811 169.697 29.5223 168.169 26.8394L163.435 18.5264" stroke="url(#paint3_linear_817_11490)" stroke-width="1.09562" stroke-linejoin="bevel"/>
<path d="M22.6112 43.6097L17.9117 35.6199C16.2948 32.871 16.2986 29.4608 17.9216 26.7156L21.5413 20.5928" stroke="url(#paint4_linear_817_11490)" stroke-width="1.09562" stroke-linejoin="bevel"/>
<path d="M23.4719 43.9095C23.0859 44.6826 22.6998 45.4557 22.3137 46.2288C22.4296 46.2626 22.5455 46.2963 22.6613 46.33C23.5487 46.5882 24.4361 46.8464 25.3235 47.1046L25.5974 47.3099L26.1238 47.0105C26.9216 46.051 27.7195 45.0914 28.5173 44.1319C28.5945 44.0391 28.6716 43.9463 28.7488 43.8535C28.6439 43.9132 28.539 43.9728 28.4341 44.0325C27.3494 44.6495 26.2647 45.2665 25.18 45.8834L25.9802 45.7894C25.2407 45.2351 24.5012 44.6809 23.7616 44.1267C23.665 44.0543 23.5685 43.9819 23.4719 43.9095Z" fill="url(#paint5_linear_817_11490)"/>
<path d="M34.223 48.9937C33.88 49.8805 33.537 50.7674 33.194 51.6542C33.1223 51.5703 33.0507 51.4864 32.979 51.4024C32.4056 50.7308 31.8323 50.0592 31.2589 49.3876L31.1209 49.326L30.9793 48.8561C30.9517 47.5118 30.9241 46.1676 30.8966 44.8233C30.8938 44.6889 30.8911 44.5545 30.8883 44.42C30.9252 44.5423 30.962 44.6646 30.9989 44.7869C31.3674 46.0099 31.7359 47.2328 32.1045 48.4558L31.8249 47.9243C32.5354 48.2412 33.246 48.558 33.9566 48.8749C34.0454 48.9145 34.1342 48.9541 34.223 48.9937Z" fill="url(#paint6_linear_817_11490)"/>
<path d="M22.5368 20.3563C22.0925 19.6534 21.6481 18.9505 21.2037 18.2476C21.3154 18.1933 21.427 18.139 21.5387 18.0847C22.3952 17.6681 23.2517 17.2515 24.1083 16.8349L24.3568 16.5863L24.8959 16.7839C25.7742 17.591 26.6526 18.3982 27.5309 19.2053C27.6159 19.2835 27.701 19.3616 27.786 19.4398C27.6769 19.3998 27.5677 19.3598 27.4585 19.3198C26.3309 18.9066 25.2033 18.4934 24.0757 18.0803L24.8633 18.0293C24.1772 18.7155 23.4912 19.4017 22.8051 20.0879C22.7157 20.1774 22.6262 20.2668 22.5368 20.3563Z" fill="url(#paint7_linear_817_11490)"/>
<path d="M32.8314 13.3463C32.3679 12.5266 31.9045 11.7069 31.4411 10.8872C31.379 10.9831 31.3169 11.079 31.2548 11.175C30.7544 11.9479 30.254 12.7208 29.7536 13.4938L29.6408 13.5664L29.5494 14.0088C29.643 15.3652 29.7367 16.7217 29.8303 18.0781C29.8397 18.2145 29.8491 18.351 29.8585 18.4874C29.8847 18.3606 29.9109 18.2338 29.9371 18.1069C30.1975 16.846 30.458 15.585 30.7184 14.3241L30.5142 14.8391C31.2013 14.3964 31.8885 13.9538 32.5756 13.5111C32.6608 13.4561 32.7461 13.4012 32.8314 13.3463Z" fill="url(#paint8_linear_817_11490)"/>
<path d="M162.657 18.1902C163.082 17.388 163.507 16.5859 163.931 15.7837C163.828 15.7584 163.724 15.733 163.62 15.7077C162.931 15.5395 162.243 15.3714 161.554 15.2032L161.218 14.9371L160.598 15.4391C159.914 16.583 159.23 17.7269 158.545 18.8708C158.485 18.9715 158.425 19.0721 158.365 19.1728C158.455 19.0995 158.546 19.0262 158.636 18.9529C159.665 18.1202 160.693 17.2875 161.722 16.4548L160.766 16.6907C161.314 17.1251 161.862 17.5595 162.41 17.9939C162.492 18.0593 162.575 18.1248 162.657 18.1902Z" fill="url(#paint9_linear_817_11490)"/>
<path d="M153.575 13.7048C153.992 12.8404 154.409 11.976 154.827 11.1116C154.892 11.1954 154.956 11.2793 155.021 11.3631C155.524 12.0153 156.028 12.6675 156.531 13.3196L156.61 13.3574L156.757 13.7198C156.853 15.0196 156.949 16.3193 157.044 17.619C157.054 17.7461 157.063 17.8733 157.072 18.0005C157.072 18.0005 157.072 18.0005 157.072 18.0005C157.029 17.8927 156.985 17.785 156.941 17.6773C156.495 16.5764 156.048 15.4754 155.602 14.3744L155.828 14.7746C155.163 14.4587 154.497 14.1427 153.831 13.8267C153.746 13.7861 153.66 13.7454 153.575 13.7048Z" fill="url(#paint10_linear_817_11490)"/>
<path d="M162.426 44.3052C162.761 45.1387 163.096 45.9722 163.43 46.8057C163.326 46.8177 163.221 46.8297 163.117 46.8418C162.462 46.917 161.808 46.9922 161.153 47.0674L160.844 47.2564L160.258 46.8068C159.564 45.6734 158.87 44.5401 158.176 43.4067C158.117 43.3102 158.058 43.2137 157.998 43.1171C158.088 43.1856 158.177 43.2541 158.266 43.3226C159.313 44.1267 160.361 44.9308 161.408 45.7349L160.513 45.4743C161.063 45.1383 161.613 44.8023 162.163 44.4662C162.251 44.4126 162.339 44.3589 162.426 44.3052Z" fill="url(#paint11_linear_817_11490)"/>
<path d="M152.881 48.3976C153.154 49.35 153.427 50.3023 153.699 51.2547C153.789 51.1933 153.879 51.132 153.968 51.0706C154.524 50.6905 155.08 50.3104 155.635 49.9303L155.787 49.9101L156.005 49.5047C156.313 47.9099 156.621 46.3152 156.928 44.7204C156.954 44.5853 156.98 44.4502 157.007 44.3151C157.007 44.3151 157.007 44.3151 157.007 44.3151C156.948 44.4247 156.889 44.5344 156.83 44.644C156.134 45.9382 155.438 47.2325 154.742 48.5267L155.112 48.1011C154.472 48.1862 153.831 48.2713 153.191 48.3564C153.088 48.3702 152.985 48.3839 152.881 48.3976Z" fill="url(#paint12_linear_817_11490)"/>
<path d="M66.3744 32.1395C66.3744 33.258 66.1624 34.2095 65.7384 34.994C65.3178 35.7786 64.7435 36.3779 64.0157 36.7918C63.2913 37.2025 62.4766 37.4078 61.5719 37.4078C60.6605 37.4078 59.8425 37.2008 59.118 36.7868C58.3936 36.3728 57.821 35.7736 57.4004 34.989C56.9797 34.2044 56.7694 33.2546 56.7694 32.1395C56.7694 31.0211 56.9797 30.0696 57.4004 29.2851C57.821 28.5005 58.3936 27.9029 59.118 27.4923C59.8425 27.0783 60.6605 26.8713 61.5719 26.8713C62.4766 26.8713 63.2913 27.0783 64.0157 27.4923C64.7435 27.9029 65.3178 28.5005 65.7384 29.2851C66.1624 30.0696 66.3744 31.0211 66.3744 32.1395ZM64.176 32.1395C64.176 31.4151 64.0675 30.8041 63.8505 30.3067C63.6368 29.8092 63.3347 29.432 62.944 29.1749C62.5534 28.9178 62.096 28.7893 61.5719 28.7893C61.0477 28.7893 60.5904 28.9178 60.1997 29.1749C59.8091 29.432 59.5053 29.8092 59.2883 30.3067C59.0746 30.8041 58.9678 31.4151 58.9678 32.1395C58.9678 32.864 59.0746 33.475 59.2883 33.9724C59.5053 34.4699 59.8091 34.8471 60.1997 35.1042C60.5904 35.3613 61.0477 35.4898 61.5719 35.4898C62.096 35.4898 62.5534 35.3613 62.944 35.1042C63.3347 34.8471 63.6368 34.4699 63.8505 33.9724C64.0675 33.475 64.176 32.864 64.176 32.1395ZM67.9406 40.1521V29.5755H70.0439V30.8675H70.1391C70.2326 30.6606 70.3678 30.4502 70.5447 30.2366C70.725 30.0196 70.9587 29.8393 71.2458 29.6957C71.5363 29.5488 71.8968 29.4754 72.3275 29.4754C72.8884 29.4754 73.4059 29.6223 73.8799 29.9161C74.354 30.2065 74.7329 30.6455 75.0167 31.2331C75.3005 31.8174 75.4424 32.5502 75.4424 33.4316C75.4424 34.2896 75.3038 35.014 75.0267 35.605C74.753 36.1926 74.379 36.6383 73.905 36.9421C73.4342 37.2425 72.9067 37.3928 72.3225 37.3928C71.9085 37.3928 71.5563 37.3243 71.2658 37.1875C70.9787 37.0506 70.7434 36.8786 70.5597 36.6716C70.3761 36.4613 70.2359 36.2493 70.1391 36.0356H70.074V40.1521H67.9406ZM70.0289 33.4215C70.0289 33.8789 70.0923 34.2779 70.2192 34.6184C70.3461 34.959 70.5297 35.2244 70.7701 35.4147C71.0104 35.6016 71.3026 35.6951 71.6464 35.6951C71.9936 35.6951 72.2874 35.6 72.5278 35.4097C72.7682 35.216 72.9501 34.9489 73.0737 34.6084C73.2005 34.2645 73.264 33.8689 73.264 33.4215C73.264 32.9775 73.2022 32.5869 73.0787 32.2497C72.9552 31.9125 72.7732 31.6488 72.5328 31.4585C72.2924 31.2682 71.997 31.173 71.6464 31.173C71.2992 31.173 71.0054 31.2648 70.7651 31.4485C70.528 31.6321 70.3461 31.8925 70.2192 32.2297C70.0923 32.5669 70.0289 32.9642 70.0289 33.4215ZM80.3701 37.4178C79.5789 37.4178 78.8978 37.2576 78.3269 36.9371C77.7593 36.6132 77.322 36.1558 77.0148 35.5649C76.7077 34.9706 76.5541 34.2679 76.5541 33.4566C76.5541 32.6654 76.7077 31.9709 77.0148 31.3733C77.322 30.7757 77.7543 30.31 78.3119 29.9761C78.8728 29.6423 79.5305 29.4754 80.285 29.4754C80.7924 29.4754 81.2648 29.5572 81.7022 29.7207C82.1429 29.881 82.5268 30.123 82.854 30.4469C83.1845 30.7707 83.4416 31.178 83.6252 31.6688C83.8088 32.1562 83.9006 32.7271 83.9006 33.3815V33.9674H77.4055V32.6453H81.8925C81.8925 32.3382 81.8257 32.0661 81.6922 31.8291C81.5586 31.592 81.3733 31.4067 81.1363 31.2732C80.9026 31.1363 80.6305 31.0679 80.32 31.0679C79.9962 31.0679 79.7091 31.143 79.4587 31.2932C79.2116 31.4401 79.018 31.6388 78.8778 31.8891C78.7375 32.1362 78.6658 32.4116 78.6624 32.7154V33.9724C78.6624 34.353 78.7325 34.6819 78.8728 34.959C79.0163 35.2361 79.2183 35.4497 79.4787 35.6C79.7391 35.7502 80.0479 35.8253 80.4052 35.8253C80.6422 35.8253 80.8592 35.7919 81.0562 35.7252C81.2532 35.6584 81.4218 35.5582 81.562 35.4247C81.7022 35.2911 81.809 35.1276 81.8825 34.9339L83.8556 35.0641C83.7554 35.5382 83.5501 35.9522 83.2396 36.3061C82.9325 36.6566 82.5352 36.9304 82.0477 37.1274C81.5636 37.321 81.0044 37.4178 80.3701 37.4178ZM87.4262 32.8206V37.2676H85.2928V29.5755H87.326V30.9326H87.4162C87.5864 30.4853 87.8719 30.1314 88.2725 29.871C88.6731 29.6072 89.1589 29.4754 89.7298 29.4754C90.2639 29.4754 90.7297 29.5922 91.127 29.8259C91.5243 30.0596 91.8331 30.3935 92.0534 30.8275C92.2738 31.2582 92.3839 31.7723 92.3839 32.3699V37.2676H90.2506V32.7505C90.2539 32.2798 90.1337 31.9125 89.89 31.6488C89.6463 31.3817 89.3108 31.2481 88.8835 31.2481C88.5963 31.2481 88.3426 31.3099 88.1223 31.4334C87.9053 31.557 87.735 31.7372 87.6115 31.9743C87.4913 32.208 87.4295 32.4901 87.4262 32.8206ZM97.3693 37.2676V27.0115H101.416C102.193 27.0115 102.856 27.1601 103.404 27.4572C103.951 27.751 104.369 28.16 104.656 28.6841C104.946 29.2049 105.091 29.8059 105.091 30.487C105.091 31.168 104.944 31.769 104.651 32.2898C104.357 32.8106 103.931 33.2162 103.374 33.5067C102.819 33.7971 102.148 33.9424 101.361 33.9424H98.7815V32.2046H101.01C101.427 32.2046 101.771 32.1329 102.042 31.9893C102.315 31.8424 102.519 31.6404 102.653 31.3834C102.789 31.1229 102.858 30.8241 102.858 30.487C102.858 30.1464 102.789 29.8493 102.653 29.5956C102.519 29.3385 102.315 29.1398 102.042 28.9996C101.768 28.8561 101.421 28.7843 101 28.7843H99.5377V37.2676H97.3693ZM108.447 37.4128C107.956 37.4128 107.518 37.3277 107.135 37.1574C106.751 36.9838 106.447 36.7284 106.223 36.3912C106.003 36.0507 105.893 35.6267 105.893 35.1192C105.893 34.6919 105.971 34.333 106.128 34.0425C106.285 33.7521 106.499 33.5184 106.769 33.3414C107.039 33.1645 107.347 33.0309 107.69 32.9408C108.038 32.8507 108.402 32.7872 108.782 32.7505C109.23 32.7038 109.59 32.6604 109.864 32.6203C110.138 32.5769 110.336 32.5135 110.46 32.43C110.583 32.3465 110.645 32.223 110.645 32.0594V32.0294C110.645 31.7122 110.545 31.4668 110.345 31.2932C110.148 31.1196 109.867 31.0328 109.503 31.0328C109.119 31.0328 108.814 31.1179 108.587 31.2882C108.36 31.4551 108.21 31.6655 108.136 31.9192L106.163 31.7589C106.263 31.2915 106.46 30.8876 106.754 30.547C107.048 30.2032 107.427 29.9394 107.891 29.7558C108.358 29.5688 108.899 29.4754 109.513 29.4754C109.941 29.4754 110.35 29.5254 110.74 29.6256C111.134 29.7258 111.483 29.881 111.787 30.0913C112.094 30.3017 112.336 30.5721 112.513 30.9026C112.69 31.2298 112.778 31.6221 112.778 32.0794V37.2676H110.755V36.2009H110.695C110.572 36.4413 110.406 36.6533 110.199 36.8369C109.992 37.0172 109.744 37.1591 109.453 37.2626C109.163 37.3627 108.827 37.4128 108.447 37.4128ZM109.058 35.9405C109.371 35.9405 109.648 35.8787 109.889 35.7552C110.129 35.6283 110.318 35.4581 110.455 35.2444C110.592 35.0307 110.66 34.7887 110.66 34.5183V33.702C110.593 33.7454 110.502 33.7855 110.385 33.8222C110.271 33.8556 110.143 33.8873 109.999 33.9173C109.855 33.944 109.712 33.9691 109.568 33.9924C109.425 34.0125 109.295 34.0308 109.178 34.0475C108.927 34.0843 108.709 34.1427 108.522 34.2228C108.335 34.3029 108.19 34.4114 108.086 34.5483C107.983 34.6819 107.931 34.8488 107.931 35.0491C107.931 35.3396 108.036 35.5616 108.246 35.7151C108.46 35.8654 108.73 35.9405 109.058 35.9405ZM117.909 37.4178C117.121 37.4178 116.443 37.2509 115.876 36.917C115.312 36.5798 114.878 36.1124 114.574 35.5148C114.273 34.9172 114.123 34.2295 114.123 33.4516C114.123 32.6637 114.275 31.9726 114.579 31.3783C114.886 30.7807 115.322 30.315 115.886 29.9812C116.45 29.644 117.121 29.4754 117.899 29.4754C118.57 29.4754 119.158 29.5972 119.662 29.8409C120.166 30.0847 120.565 30.4269 120.859 30.8675C121.152 31.3082 121.314 31.8257 121.344 32.42H119.331C119.274 32.036 119.124 31.7272 118.88 31.4935C118.64 31.2565 118.325 31.138 117.934 31.138C117.603 31.138 117.315 31.2281 117.068 31.4084C116.824 31.5853 116.634 31.8441 116.497 32.1846C116.36 32.5251 116.291 32.9375 116.291 33.4215C116.291 33.9123 116.358 34.3296 116.492 34.6735C116.629 35.0174 116.821 35.2795 117.068 35.4597C117.315 35.64 117.603 35.7302 117.934 35.7302C118.178 35.7302 118.396 35.6801 118.59 35.5799C118.787 35.4798 118.949 35.3345 119.076 35.1443C119.206 34.9506 119.291 34.7186 119.331 34.4482H121.344C121.311 35.0357 121.151 35.5532 120.864 36.0006C120.58 36.4446 120.188 36.7918 119.687 37.0422C119.186 37.2926 118.593 37.4178 117.909 37.4178ZM124.643 35.0541L124.648 32.4951H124.959L127.423 29.5755H129.871L126.561 33.4416H126.055L124.643 35.0541ZM122.71 37.2676V27.0115H124.844V37.2676H122.71ZM127.518 37.2676L125.254 33.9173L126.676 32.41L130.017 37.2676H127.518Z" fill="white"/>
<defs>
<filter id="filter1_i_817_11490" x="12.9619" y="-2.59222" width="160" height="57.3696" filterUnits="userSpaceOnUse" color-interpolation-filters="sRGB">
<feFlood flood-opacity="0" result="BackgroundImageFix"/>
<feBlend mode="normal" in="SourceGraphic" in2="BackgroundImageFix" result="shape"/>
<feColorMatrix in="SourceAlpha" type="matrix" values="0 0 0 0 0 0 0 0 0 0 0 0 0 0 0 0 0 0 127 0" result="hardAlpha"/>
<feOffset dy="-10.3696"/>
<feGaussianBlur stdDeviation="6.48098"/>
<feComposite in2="hardAlpha" operator="arithmetic" k2="-1" k3="1"/>
<feColorMatrix type="matrix" values="0 0 0 0 0 0 0 0 0 0 0 0 0 0 0 0 0 0 0.25 0"/>
<feBlend mode="normal" in2="shape" result="effect1_innerShadow_817_11490"/>
</filter>
<filter id="filter2_i_817_11490" x="12.9619" y="7.77734" width="165.185" height="52.1848" filterUnits="userSpaceOnUse" color-interpolation-filters="sRGB">
<feFlood flood-opacity="0" result="BackgroundImageFix"/>
<feBlend mode="normal" in="SourceGraphic" in2="BackgroundImageFix" result="shape"/>
<feColorMatrix in="SourceAlpha" type="matrix" values="0 0 0 0 0 0 0 0 0 0 0 0 0 0 0 0 0 0 127 0" result="hardAlpha"/>
<feOffset dx="5.18478" dy="5.18478"/>
<feGaussianBlur stdDeviation="2.59239"/>
<feComposite in2="hardAlpha" operator="arithmetic" k2="-1" k3="1"/>
<feColorMatrix type="matrix" values="0 0 0 0 0 0 0 0 0 0 0 0 0 0 0 0 0 0 0.25 0"/>
<feBlend mode="normal" in2="shape" result="effect1_innerShadow_817_11490"/>
</filter>
<linearGradient id="paint0_linear_817_11490" x1="92.9619" y1="7.77734" x2="92.9619" y2="54.7773" gradientUnits="userSpaceOnUse">
<stop stop-color="#0144BD"/>
<stop offset="1" stop-color="#192871"/>
</linearGradient>
<linearGradient id="paint1_linear_817_11490" x1="153.187" y1="13.0596" x2="33.3657" y2="13.0596" gradientUnits="userSpaceOnUse">
<stop stop-color="#020C7B"/>
<stop offset="0.5" stop-color="#040825"/>
<stop offset="1" stop-color="#000D61"/>
</linearGradient>
<linearGradient id="paint2_linear_817_11490" x1="151.883" y1="50.2705" x2="34.8013" y2="50.2705" gradientUnits="userSpaceOnUse">
<stop stop-color="#020C7B"/>
<stop offset="0.5" stop-color="#040825"/>
<stop offset="1" stop-color="#000D61"/>
</linearGradient>
<linearGradient id="paint3_linear_817_11490" x1="170.633" y1="31.3721" x2="163.238" y2="31.3721" gradientUnits="userSpaceOnUse">
<stop stop-color="#020C7B"/>
<stop offset="0.5" stop-color="#040825"/>
<stop offset="1" stop-color="#000D61"/>
</linearGradient>
<linearGradient id="paint4_linear_817_11490" x1="22.6112" y1="32.1012" x2="15.2913" y2="32.1012" gradientUnits="userSpaceOnUse">
<stop stop-color="#020C7B"/>
<stop offset="0.5" stop-color="#040825"/>
<stop offset="1" stop-color="#000D61"/>
</linearGradient>
<linearGradient id="paint5_linear_817_11490" x1="28.7488" y1="45.1502" x2="22.8928" y2="45.1502" gradientUnits="userSpaceOnUse">
<stop stop-color="#020C7B"/>
<stop offset="0.5" stop-color="#040825"/>
<stop offset="1" stop-color="#000D61"/>
</linearGradient>
<linearGradient id="paint6_linear_817_11490" x1="30.3313" y1="45.1604" x2="34.9685" y2="48.6493" gradientUnits="userSpaceOnUse">
<stop stop-color="#020C7B"/>
<stop offset="0.5" stop-color="#040825"/>
<stop offset="1" stop-color="#000D61"/>
</linearGradient>
<linearGradient id="paint7_linear_817_11490" x1="27.6719" y1="18.1535" x2="21.8145" y2="18.6734" gradientUnits="userSpaceOnUse">
<stop stop-color="#020C7B"/>
<stop offset="0.5" stop-color="#040825"/>
<stop offset="1" stop-color="#000D61"/>
</linearGradient>
<linearGradient id="paint8_linear_817_11490" x1="29.2408" y1="17.8546" x2="33.5916" y2="13.6076" gradientUnits="userSpaceOnUse">
<stop stop-color="#020C7B"/>
<stop offset="0.5" stop-color="#040825"/>
<stop offset="1" stop-color="#000D61"/>
</linearGradient>
<linearGradient id="paint9_linear_817_11490" x1="158.231" y1="17.8904" x2="163.333" y2="17.3588" gradientUnits="userSpaceOnUse">
<stop stop-color="#020C7B"/>
<stop offset="0.5" stop-color="#040825"/>
<stop offset="1" stop-color="#000D61"/>
</linearGradient>
<linearGradient id="paint10_linear_817_11490" x1="157.366" y1="17.7051" x2="153.124" y2="13.4918" gradientUnits="userSpaceOnUse">
<stop stop-color="#020C7B"/>
<stop offset="0.5" stop-color="#040825"/>
<stop offset="1" stop-color="#000D61"/>
</linearGradient>
<linearGradient id="paint11_linear_817_11490" x1="157.881" y1="44.4027" x2="162.991" y2="44.8707" gradientUnits="userSpaceOnUse">
<stop stop-color="#020C7B"/>
<stop offset="0.5" stop-color="#040825"/>
<stop offset="1" stop-color="#000D61"/>
</linearGradient>
<linearGradient id="paint12_linear_817_11490" x1="157.363" y1="44.6597" x2="153.11" y2="49.0489" gradientUnits="userSpaceOnUse">
<stop stop-color="#020C7B"/>
<stop offset="0.5" stop-color="#040825"/>
<stop offset="1" stop-color="#000D61"/>
</linearGradient>
</defs>
</svg>
