<svg width="375" height="48" viewBox="0 0 375 48" fill="none" xmlns="http://www.w3.org/2000/svg">
<path fill-rule="evenodd" clip-rule="evenodd" d="M123.588 0.394531H354.532C357.834 0.394727 360.945 1.92569 362.927 4.52734L372.899 17.6123C375.701 21.2904 375.7 26.3514 372.897 30.0293L362.927 43.1133L362.544 43.5879C360.689 45.7459 358.015 47.0625 355.149 47.2285L354.533 47.2461H262.172V47.1162H23.8376C20.7414 47.1161 17.8142 45.77 15.8268 43.458L15.443 42.9834L5.47134 29.8994C2.669 26.2215 2.66912 21.1614 5.47134 17.4834L9.41372 12.3086C10.1054 11.1879 10.906 10.1412 11.7985 9.17969L15.443 4.39844C17.4256 1.79686 20.5352 0.2648 23.8376 0.264648H123.588V0.394531Z" fill="url(#paint0_linear_333_7284)"/>
<path d="M29.9246 5.04395L245.512 5.04395" stroke="url(#paint1_linear_333_7284)" stroke-width="1.09562" stroke-linejoin="bevel"/>
<path d="M245.512 42.2402L32.0208 42.2402" stroke="url(#paint2_linear_333_7284)" stroke-width="1.09562" stroke-linejoin="bevel"/>
<path d="M14.2185 36.0817L8.45011 29.3691C5.62156 26.0775 5.62768 21.2116 8.46452 17.9272L12.6561 13.0742" stroke="url(#paint3_linear_333_7284)" stroke-width="1.09562" stroke-linejoin="bevel"/>
<path d="M15.0491 36.3139C14.7696 37.1315 14.4901 37.9492 14.2107 38.7669C14.367 38.7975 14.5234 38.8281 14.6797 38.8587C15.9293 39.1034 17.1789 39.348 18.4284 39.5927L18.6278 39.6928L19.014 39.5365C20.2771 38.5633 21.5401 37.5901 22.8032 36.6169C22.9294 36.5197 23.0556 36.4224 23.1819 36.3252C23.1819 36.3252 23.1819 36.3252 23.1819 36.3252C23.0342 36.385 22.8865 36.4447 22.7388 36.5045C21.2606 37.1025 19.7825 37.7006 18.3044 38.2986L18.8899 38.2425C17.752 37.6711 16.6141 37.0997 15.4763 36.5283C15.3339 36.4568 15.1915 36.3853 15.0491 36.3139Z" fill="url(#paint4_linear_333_7284)"/>
<path d="M31.0399 41.6591C30.63 42.4153 30.2202 43.1715 29.8104 43.9277C29.7032 43.8469 29.596 43.7661 29.4888 43.6853C28.6333 43.0406 27.7778 42.3958 26.9223 41.7511L26.7231 41.684L26.5586 41.279C26.4822 39.9493 26.4058 38.6197 26.3294 37.29C26.3218 37.1573 26.3141 37.0246 26.3065 36.8919C26.3566 37.0153 26.4067 37.1388 26.4569 37.2622C26.959 38.4992 27.4612 39.7362 27.9633 40.9731L27.5997 40.5011C28.6187 40.8441 29.6378 41.1871 30.6568 41.5301C30.7845 41.5731 30.9122 41.6161 31.0399 41.6591Z" fill="url(#paint5_linear_333_7284)"/>
<path d="M13.7107 12.9488C13.3282 12.1728 12.9456 11.3969 12.5631 10.6209C12.7143 10.571 12.8654 10.5211 13.0166 10.4713C14.2246 10.0725 15.4327 9.67381 16.6408 9.2751L16.8258 9.15081L17.2292 9.25766C18.6072 10.0653 19.9852 10.8729 21.3632 11.6806C21.5009 11.7613 21.6386 11.842 21.7762 11.9227C21.6221 11.8818 21.4679 11.841 21.3137 11.8001C19.7705 11.3914 18.2272 10.9826 16.684 10.5738L17.2725 10.5564C16.2173 11.2652 15.1621 11.9739 14.1069 12.6827C13.9748 12.7714 13.8428 12.8601 13.7107 12.9488Z" fill="url(#paint6_linear_333_7284)"/>
<path d="M28.8811 5.65095C28.3796 4.95186 27.8782 4.25277 27.3767 3.55367C27.2807 3.64723 27.1847 3.74078 27.0886 3.83433C26.3225 4.58064 25.5563 5.32696 24.7902 6.07327L24.6001 6.16526L24.4886 6.58951C24.5838 7.91732 24.6789 9.24514 24.774 10.5729C24.7835 10.7054 24.793 10.8379 24.8025 10.9704C24.8363 10.8416 24.8702 10.7129 24.904 10.5841C25.2429 9.29373 25.5819 8.00331 25.9208 6.71289L25.6193 7.22914C26.5854 6.76167 27.5516 6.29421 28.5177 5.82675C28.6388 5.76815 28.7599 5.70955 28.8811 5.65095Z" fill="url(#paint7_linear_333_7284)"/>
<path d="M245.512 5.04395L344.986 5.04395" stroke="url(#paint8_linear_333_7284)" stroke-width="1.09562" stroke-linejoin="bevel"/>
<path d="M343.081 42.2402L245.512 42.2402" stroke="url(#paint9_linear_333_7284)" stroke-width="1.09562" stroke-linejoin="bevel"/>
<path d="M359.664 36.6897L365.826 29.246C368.515 25.9971 368.509 21.2936 365.811 18.0514L359.952 11.0088" stroke="url(#paint10_linear_333_7284)" stroke-width="1.09562" stroke-linejoin="bevel"/>
<path d="M359.34 10.6983C359.611 9.87931 359.882 9.06031 360.153 8.24132C360.012 8.21693 359.87 8.19255 359.729 8.16817C358.779 8.00419 357.829 7.84021 356.879 7.67624L356.607 7.53723L356.134 7.80586C355.036 8.98431 353.938 10.1628 352.839 11.3412C352.742 11.4458 352.645 11.5503 352.547 11.6548C352.672 11.5842 352.796 11.5136 352.92 11.443C354.322 10.6468 355.723 9.85073 357.125 9.05461L356.38 9.18423C357.239 9.62359 358.098 10.0629 358.957 10.5023C359.085 10.5676 359.213 10.633 359.34 10.6983Z" fill="url(#paint11_linear_333_7284)"/>
<path d="M345.821 6.00836C346.251 5.2645 346.682 4.52065 347.112 3.7768C347.21 3.85722 347.309 3.93765 347.407 4.01807C348.177 4.64799 348.947 5.2779 349.717 5.90782L349.861 5.95979L350.049 6.3112C350.234 7.57714 350.42 8.84308 350.605 10.109C350.624 10.2335 350.642 10.358 350.66 10.4825C350.6 10.3711 350.541 10.2598 350.481 10.1484C349.875 9.01573 349.27 7.88311 348.664 6.75049L348.996 7.15387C348.057 6.81526 347.119 6.47666 346.18 6.13805C346.06 6.09482 345.94 6.05159 345.821 6.00836Z" fill="url(#paint12_linear_333_7284)"/>
<path d="M358.921 36.7651C359.115 37.606 359.309 38.447 359.503 39.2879C359.363 39.2986 359.222 39.3093 359.081 39.32C358.166 39.3897 357.25 39.4593 356.334 39.529L356.1 39.6235L355.66 39.3854C354.542 38.2214 353.423 37.0573 352.305 35.8933C352.207 35.7919 352.11 35.6906 352.012 35.5892C352.136 35.6562 352.26 35.7232 352.383 35.7902C353.804 36.5594 355.224 37.3286 356.645 38.0978L355.971 37.9543C356.823 37.6106 357.676 37.267 358.529 36.9233C358.659 36.8706 358.79 36.8178 358.921 36.7651Z" fill="url(#paint13_linear_333_7284)"/>
<path d="M344.803 41.0516C345.026 41.8805 345.248 42.7094 345.47 43.5382C345.601 43.4812 345.732 43.4242 345.863 43.3672C346.705 43 347.547 42.6328 348.389 42.2656L348.627 42.2394L348.911 41.8441C349.418 40.2923 349.925 38.7406 350.432 37.1888C350.476 37.0546 350.52 36.9203 350.564 36.7861C350.481 36.9013 350.398 37.0164 350.316 37.1316C349.36 38.4629 348.403 39.7942 347.447 41.1255L347.97 40.704C347.056 40.8043 346.142 40.9046 345.229 41.0049C345.087 41.0205 344.945 41.036 344.803 41.0516Z" fill="url(#paint14_linear_333_7284)"/>
<path fill-rule="evenodd" clip-rule="evenodd" d="M263.395 2.59277L347.573 2.72276C348.753 3.03865 350.653 3.66593 351.332 4.58857C352.741 6.5037 352.434 10.4987 352.417 10.7075L352.415 10.7151L352.417 10.7113C352.416 10.7141 352.417 10.7164 352.417 10.7164L352.419 10.7088C352.523 10.5294 354.562 7.05984 356.824 6.26325C357.849 5.90213 359.952 6.26689 361.364 6.58477L370.789 18.9531C372.895 21.7191 372.896 25.5238 370.789 28.2897L361.602 40.3441C360.282 40.6718 357.612 41.2422 356.412 40.82C354.151 40.0234 352.112 36.5538 352.008 36.3745L352.005 36.3669V36.3757C352.022 36.5846 352.329 40.5796 350.921 42.4947C350.098 43.6136 347.479 44.2992 346.524 44.5187L263.395 44.5771V47.1111H354.479L355.097 47.0934C357.97 46.927 360.65 45.6068 362.51 43.4428L362.896 42.9668L372.892 29.8467C375.702 26.1586 375.703 21.0844 372.893 17.3961L362.896 4.27465C360.908 1.6656 357.789 0.130396 354.477 0.130371L263.395 0V2.59277Z" fill="#00042E"/>
<path d="M263.395 0V2.51465L122.058 2.5918H26.8926C26.9948 2.59701 27.0534 2.60224 27.0601 2.60254C27.0098 2.62655 23.9311 4.10296 23.106 5.58203C21.9499 7.65518 22.2663 11.272 22.309 11.4756L22.313 11.4834L22.31 11.4795V11.4834L22.308 11.4766C22.1814 11.3104 20.433 8.68838 18.0893 8.1748C16.5921 7.84699 12.5973 8.75752 11.7205 8.96582L4.21181 18.8223C2.10481 21.5883 2.10462 25.3932 4.21181 28.1592L13.1786 39.9277C14.491 40.1623 18.4122 40.8116 19.7903 40.4365C22.1017 39.8062 24.3908 36.5015 24.5136 36.3223L24.5175 36.3145V36.3184L24.5165 36.3223C24.4844 36.5263 23.8806 40.4903 25.143 42.5029C25.6901 43.3749 27.1565 44.0148 28.2347 44.3877H122.058V46.9805H20.5218C17.4176 46.9804 14.4834 45.6306 12.4907 43.3125L12.1051 42.8359L2.1074 29.7158C-0.70254 26.0277 -0.70239 20.9539 2.1074 17.2656L12.1051 4.14355C14.093 1.53499 17.2108 0.000159768 20.5218 0H263.395Z" fill="#00042E"/>
<path d="M122.058 44.3877L263.395 44.5771V47.1111L122.058 46.9805V44.3877Z" fill="#00042E"/>
<path d="M138.798 23.495C138.798 24.6134 138.586 25.5649 138.162 26.3495C137.741 27.134 137.167 27.7333 136.439 28.1473C135.715 28.5579 134.9 28.7633 133.996 28.7633C133.084 28.7633 132.266 28.5563 131.542 28.1423C130.817 27.7283 130.245 27.129 129.824 26.3445C129.403 25.5599 129.193 24.6101 129.193 23.495C129.193 22.3766 129.403 21.4251 129.824 20.6405C130.245 19.856 130.817 19.2584 131.542 18.8477C132.266 18.4337 133.084 18.2268 133.996 18.2268C134.9 18.2268 135.715 18.4337 136.439 18.8477C137.167 19.2584 137.741 19.856 138.162 20.6405C138.586 21.4251 138.798 22.3766 138.798 23.495ZM136.6 23.495C136.6 22.7705 136.491 22.1596 136.274 21.6621C136.06 21.1647 135.758 20.7874 135.368 20.5304C134.977 20.2733 134.52 20.1448 133.996 20.1448C133.471 20.1448 133.014 20.2733 132.623 20.5304C132.233 20.7874 131.929 21.1647 131.712 21.6621C131.498 22.1596 131.391 22.7705 131.391 23.495C131.391 24.2195 131.498 24.8304 131.712 25.3279C131.929 25.8253 132.233 26.2026 132.623 26.4597C133.014 26.7167 133.471 26.8453 133.996 26.8453C134.52 26.8453 134.977 26.7167 135.368 26.4597C135.758 26.2026 136.06 25.8253 136.274 25.3279C136.491 24.8304 136.6 24.2195 136.6 23.495ZM140.364 31.5076V20.931H142.468V22.223H142.563C142.656 22.016 142.791 21.8057 142.968 21.592C143.149 21.375 143.382 21.1947 143.669 21.0512C143.96 20.9043 144.32 20.8308 144.751 20.8308C145.312 20.8308 145.829 20.9777 146.304 21.2715C146.778 21.562 147.157 22.001 147.44 22.5886C147.724 23.1728 147.866 23.9057 147.866 24.787C147.866 25.645 147.727 26.3695 147.45 26.9604C147.177 27.548 146.803 27.9937 146.329 28.2975C145.858 28.598 145.33 28.7482 144.746 28.7482C144.332 28.7482 143.98 28.6798 143.689 28.5429C143.402 28.406 143.167 28.2341 142.983 28.0271C142.8 27.8168 142.66 27.6048 142.563 27.3911H142.498V31.5076H140.364ZM142.453 24.777C142.453 25.2344 142.516 25.6334 142.643 25.9739C142.77 26.3144 142.953 26.5798 143.194 26.7701C143.434 26.9571 143.726 27.0506 144.07 27.0506C144.417 27.0506 144.711 26.9554 144.951 26.7651C145.192 26.5715 145.374 26.3044 145.497 25.9639C145.624 25.62 145.688 25.2244 145.688 24.777C145.688 24.333 145.626 23.9424 145.502 23.6052C145.379 23.268 145.197 23.0042 144.956 22.8139C144.716 22.6236 144.421 22.5285 144.07 22.5285C143.723 22.5285 143.429 22.6203 143.189 22.8039C142.952 22.9875 142.77 23.248 142.643 23.5852C142.516 23.9223 142.453 24.3196 142.453 24.777ZM152.794 28.7733C152.002 28.7733 151.321 28.613 150.751 28.2925C150.183 27.9687 149.746 27.5113 149.438 26.9204C149.131 26.3261 148.978 25.6233 148.978 24.8121C148.978 24.0208 149.131 23.3264 149.438 22.7288C149.746 22.1312 150.178 21.6655 150.736 21.3316C151.296 20.9978 151.954 20.8308 152.709 20.8308C153.216 20.8308 153.688 20.9126 154.126 21.0762C154.567 21.2365 154.95 21.4785 155.278 21.8024C155.608 22.1262 155.865 22.5335 156.049 23.0243C156.232 23.5117 156.324 24.0826 156.324 24.737V25.3229H149.829V24.0008H154.316C154.316 23.6937 154.249 23.4216 154.116 23.1845C153.982 22.9475 153.797 22.7622 153.56 22.6287C153.326 22.4918 153.054 22.4233 152.744 22.4233C152.42 22.4233 152.133 22.4984 151.882 22.6487C151.635 22.7956 151.442 22.9942 151.301 23.2446C151.161 23.4917 151.089 23.7671 151.086 24.0709V25.3279C151.086 25.7085 151.156 26.0373 151.296 26.3144C151.44 26.5915 151.642 26.8052 151.902 26.9554C152.163 27.1057 152.472 27.1808 152.829 27.1808C153.066 27.1808 153.283 27.1474 153.48 27.0806C153.677 27.0139 153.845 26.9137 153.986 26.7802C154.126 26.6466 154.233 26.483 154.306 26.2894L156.279 26.4196C156.179 26.8937 155.974 27.3077 155.663 27.6615C155.356 28.0121 154.959 28.2859 154.471 28.4828C153.987 28.6765 153.428 28.7733 152.794 28.7733ZM159.85 24.1761V28.623H157.716V20.931H159.75V22.2881H159.84C160.01 21.8407 160.295 21.4869 160.696 21.2265C161.097 20.9627 161.583 20.8308 162.153 20.8308C162.688 20.8308 163.153 20.9477 163.551 21.1814C163.948 21.4151 164.257 21.7489 164.477 22.183C164.697 22.6136 164.808 23.1278 164.808 23.7254V28.623H162.674V24.106C162.678 23.6352 162.557 23.268 162.314 23.0042C162.07 22.7372 161.734 22.6036 161.307 22.6036C161.02 22.6036 160.766 22.6654 160.546 22.7889C160.329 22.9124 160.159 23.0927 160.035 23.3298C159.915 23.5634 159.853 23.8456 159.85 24.1761ZM171.536 20.931L172.948 23.6202L174.395 20.931H176.584L174.355 24.777L176.644 28.623H174.465L172.948 25.9639L171.455 28.623H169.252L171.536 24.777L169.332 20.931H171.536ZM181.621 28.7633C180.874 28.7633 180.208 28.6347 179.623 28.3777C179.042 28.1173 178.583 27.76 178.246 27.306C177.912 26.8486 177.74 26.3211 177.73 25.7235H179.914C179.927 25.9739 180.009 26.1942 180.159 26.3845C180.313 26.5715 180.516 26.7167 180.77 26.8202C181.024 26.9237 181.309 26.9755 181.626 26.9755C181.957 26.9755 182.249 26.917 182.503 26.8002C182.757 26.6833 182.955 26.5214 183.099 26.3144C183.242 26.1074 183.314 25.8687 183.314 25.5983C183.314 25.3245 183.237 25.0825 183.084 24.8722C182.933 24.6585 182.716 24.4916 182.433 24.3714C182.152 24.2512 181.818 24.1911 181.431 24.1911H180.475V22.5986H181.431C181.758 22.5986 182.047 22.5418 182.297 22.4283C182.551 22.3148 182.748 22.1579 182.888 21.9576C183.029 21.7539 183.099 21.5169 183.099 21.2465C183.099 20.9894 183.037 20.7641 182.913 20.5704C182.793 20.3734 182.623 20.2199 182.403 20.1097C182.186 19.9995 181.932 19.9444 181.641 19.9444C181.348 19.9444 181.079 19.9979 180.835 20.1047C180.591 20.2082 180.396 20.3568 180.249 20.5504C180.102 20.744 180.024 20.9711 180.014 21.2315H177.936C177.946 20.6405 178.114 20.1197 178.441 19.669C178.769 19.2183 179.209 18.8661 179.764 18.6124C180.321 18.3553 180.95 18.2268 181.651 18.2268C182.359 18.2268 182.979 18.3553 183.509 18.6124C184.04 18.8694 184.453 19.2166 184.746 19.654C185.043 20.088 185.19 20.5754 185.187 21.1163C185.19 21.6905 185.012 22.1696 184.651 22.5535C184.294 22.9375 183.828 23.1812 183.254 23.2847V23.3648C184.008 23.4616 184.583 23.7237 184.977 24.151C185.374 24.575 185.571 25.1059 185.568 25.7435C185.571 26.3278 185.402 26.8469 185.062 27.301C184.725 27.755 184.259 28.1122 183.665 28.3727C183.07 28.6331 182.389 28.7633 181.621 28.7633ZM191.148 28.8484C190.286 28.8451 189.545 28.6331 188.924 28.2124C188.306 27.7917 187.831 27.1825 187.497 26.3845C187.166 25.5866 187.003 24.6268 187.006 23.505C187.006 22.3866 187.171 21.4334 187.502 20.6455C187.836 19.8576 188.311 19.2584 188.929 18.8477C189.55 18.4337 190.29 18.2268 191.148 18.2268C192.006 18.2268 192.743 18.4337 193.361 18.8477C193.982 19.2617 194.459 19.8626 194.793 20.6506C195.127 21.4351 195.292 22.3866 195.289 23.505C195.289 24.6301 195.122 25.5916 194.788 26.3895C194.458 27.1875 193.984 27.7968 193.366 28.2174C192.748 28.6381 192.009 28.8484 191.148 28.8484ZM191.148 27.0506C191.735 27.0506 192.204 26.7551 192.555 26.1642C192.905 25.5733 193.079 24.6869 193.076 23.505C193.076 22.7271 192.995 22.0795 192.835 21.562C192.678 21.0445 192.455 20.6556 192.164 20.3952C191.877 20.1347 191.538 20.0045 191.148 20.0045C190.563 20.0045 190.096 20.2967 189.745 20.8809C189.395 21.4652 189.218 22.3399 189.215 23.505C189.215 24.2929 189.293 24.9506 189.45 25.4781C189.61 26.0023 189.836 26.3962 190.126 26.66C190.416 26.9204 190.757 27.0506 191.148 27.0506ZM204.912 22.6487V24.3413H200.234V22.6487H204.912ZM213.419 29.9051V17.085H214.24V29.9051H213.419ZM215.597 21.3166C215.557 20.9126 215.385 20.5988 215.081 20.3751C214.778 20.1514 214.365 20.0396 213.844 20.0396C213.491 20.0396 213.192 20.0897 212.948 20.1898C212.704 20.2866 212.517 20.4219 212.387 20.5955C212.26 20.7691 212.197 20.966 212.197 21.1864C212.19 21.37 212.229 21.5303 212.312 21.6671C212.399 21.804 212.517 21.9225 212.668 22.0227C212.818 22.1195 212.991 22.2047 213.188 22.2781C213.385 22.3482 213.596 22.4083 213.819 22.4584L214.741 22.6787C215.188 22.7789 215.599 22.9124 215.973 23.0794C216.347 23.2463 216.671 23.4516 216.944 23.6953C217.218 23.939 217.43 24.2262 217.58 24.5567C217.734 24.8872 217.812 25.2661 217.816 25.6935C217.812 26.3211 217.652 26.8653 217.335 27.326C217.021 27.7834 216.567 28.139 215.973 28.3927C215.382 28.6431 214.669 28.7683 213.834 28.7683C213.006 28.7683 212.285 28.6414 211.671 28.3877C211.06 28.1339 210.583 27.7584 210.239 27.2609C209.898 26.7601 209.72 26.1408 209.703 25.403H211.801C211.825 25.7469 211.923 26.034 212.097 26.2643C212.274 26.4914 212.509 26.6633 212.803 26.7802C213.1 26.8937 213.435 26.9504 213.809 26.9504C214.177 26.9504 214.495 26.897 214.766 26.7902C215.04 26.6833 215.252 26.5348 215.402 26.3445C215.552 26.1542 215.627 25.9355 215.627 25.6884C215.627 25.4581 215.559 25.2644 215.422 25.1075C215.288 24.9506 215.091 24.8171 214.831 24.7069C214.574 24.5967 214.258 24.4966 213.884 24.4064L212.768 24.126C211.903 23.9157 211.22 23.5868 210.72 23.1395C210.219 22.6921 209.97 22.0895 209.973 21.3316C209.97 20.7106 210.135 20.1681 210.469 19.7041C210.806 19.24 211.269 18.8778 211.856 18.6174C212.444 18.357 213.112 18.2268 213.859 18.2268C214.621 18.2268 215.285 18.357 215.853 18.6174C216.423 18.8778 216.867 19.24 217.185 19.7041C217.502 20.1681 217.665 20.7056 217.675 21.3166H215.597ZM224.847 28.623L221.912 18.367H224.281L225.978 25.4931H226.064L227.937 18.367H229.965L231.833 25.5082H231.923L233.62 18.367H235.989L233.055 28.623H230.941L228.988 21.9175H228.908L226.96 28.623H224.847ZM240.785 28.623H237.15V18.367H240.815C241.847 18.367 242.735 18.5723 243.48 18.9829C244.224 19.3902 244.797 19.9762 245.197 20.7407C245.601 21.5052 245.803 22.42 245.803 23.485C245.803 24.5533 245.601 25.4714 245.197 26.2393C244.797 27.0072 244.221 27.5964 243.47 28.0071C242.722 28.4177 241.827 28.623 240.785 28.623ZM239.318 26.7651H240.695C241.336 26.7651 241.875 26.6516 242.313 26.4246C242.753 26.1942 243.084 25.8387 243.304 25.3579C243.528 24.8738 243.64 24.2495 243.64 23.485C243.64 22.7271 243.528 22.1078 243.304 21.6271C243.084 21.1463 242.755 20.7924 242.318 20.5654C241.88 20.3384 241.341 20.2249 240.7 20.2249H239.318V26.7651Z" fill="white"/>
<defs>
<linearGradient id="paint0_linear_333_7284" x1="189.185" y1="0.264648" x2="189.185" y2="47.2461" gradientUnits="userSpaceOnUse">
<stop stop-color="#0144BD"/>
<stop offset="1" stop-color="#192871"/>
</linearGradient>
<linearGradient id="paint1_linear_333_7284" x1="529.51" y1="5.54395" x2="29.9246" y2="5.54395" gradientUnits="userSpaceOnUse">
<stop stop-color="#020C7B"/>
<stop offset="0.5" stop-color="#040825"/>
<stop offset="1" stop-color="#000D61"/>
</linearGradient>
<linearGradient id="paint2_linear_333_7284" x1="529.237" y1="42.7402" x2="32.0208" y2="42.7402" gradientUnits="userSpaceOnUse">
<stop stop-color="#020C7B"/>
<stop offset="0.5" stop-color="#040825"/>
<stop offset="1" stop-color="#000D61"/>
</linearGradient>
<linearGradient id="paint3_linear_333_7284" x1="14.2185" y1="24.578" x2="3.52856" y2="24.578" gradientUnits="userSpaceOnUse">
<stop stop-color="#020C7B"/>
<stop offset="0.5" stop-color="#040825"/>
<stop offset="1" stop-color="#000D61"/>
</linearGradient>
<linearGradient id="paint4_linear_333_7284" x1="23.1819" y1="37.6214" x2="14.6299" y2="37.6214" gradientUnits="userSpaceOnUse">
<stop stop-color="#020C7B"/>
<stop offset="0.5" stop-color="#040825"/>
<stop offset="1" stop-color="#000D61"/>
</linearGradient>
<linearGradient id="paint5_linear_333_7284" x1="25.493" y1="37.6319" x2="30.2957" y2="42.9111" gradientUnits="userSpaceOnUse">
<stop stop-color="#020C7B"/>
<stop offset="0.5" stop-color="#040825"/>
<stop offset="1" stop-color="#000D61"/>
</linearGradient>
<linearGradient id="paint6_linear_333_7284" x1="21.6095" y1="10.6369" x2="13.1306" y2="11.7363" gradientUnits="userSpaceOnUse">
<stop stop-color="#020C7B"/>
<stop offset="0.5" stop-color="#040825"/>
<stop offset="1" stop-color="#000D61"/>
</linearGradient>
<linearGradient id="paint7_linear_333_7284" x1="23.9004" y1="10.3379" x2="27.9903" y2="4.5051" gradientUnits="userSpaceOnUse">
<stop stop-color="#020C7B"/>
<stop offset="0.5" stop-color="#040825"/>
<stop offset="1" stop-color="#000D61"/>
</linearGradient>
<linearGradient id="paint8_linear_333_7284" x1="344.986" y1="5.54395" x2="170" y2="5.54395" gradientUnits="userSpaceOnUse">
<stop stop-color="#020C7B"/>
<stop offset="0.5" stop-color="#040825"/>
<stop offset="1" stop-color="#000D61"/>
</linearGradient>
<linearGradient id="paint9_linear_333_7284" x1="343.081" y1="42.7402" x2="172.096" y2="42.7402" gradientUnits="userSpaceOnUse">
<stop stop-color="#020C7B"/>
<stop offset="0.5" stop-color="#040825"/>
<stop offset="1" stop-color="#000D61"/>
</linearGradient>
<linearGradient id="paint10_linear_333_7284" x1="370.463" y1="23.8492" x2="359.664" y2="23.8492" gradientUnits="userSpaceOnUse">
<stop stop-color="#020C7B"/>
<stop offset="0.5" stop-color="#040825"/>
<stop offset="1" stop-color="#000D61"/>
</linearGradient>
<linearGradient id="paint11_linear_333_7284" x1="352.352" y1="10.3729" x2="359.714" y2="9.25231" gradientUnits="userSpaceOnUse">
<stop stop-color="#020C7B"/>
<stop offset="0.5" stop-color="#040825"/>
<stop offset="1" stop-color="#000D61"/>
</linearGradient>
<linearGradient id="paint12_linear_333_7284" x1="351.089" y1="10.1873" x2="347.127" y2="4.43752" gradientUnits="userSpaceOnUse">
<stop stop-color="#020C7B"/>
<stop offset="0.5" stop-color="#040825"/>
<stop offset="1" stop-color="#000D61"/>
</linearGradient>
<linearGradient id="paint13_linear_333_7284" x1="351.84" y1="36.8743" x2="359.234" y2="37.8635" gradientUnits="userSpaceOnUse">
<stop stop-color="#020C7B"/>
<stop offset="0.5" stop-color="#040825"/>
<stop offset="1" stop-color="#000D61"/>
</linearGradient>
<linearGradient id="paint14_linear_333_7284" x1="351.084" y1="37.1305" x2="347.166" y2="43.0385" gradientUnits="userSpaceOnUse">
<stop stop-color="#020C7B"/>
<stop offset="0.5" stop-color="#040825"/>
<stop offset="1" stop-color="#000D61"/>
</linearGradient>
</defs>
</svg>
