<svg width="375" height="64" viewBox="0 0 375 64" fill="none" xmlns="http://www.w3.org/2000/svg">
<g filter="url(#filter0_d_787_18733)">
<path d="M341.265 7.77734C347.229 7.77735 352.698 11.095 355.454 16.3848L359.611 24.3633C362.025 28.996 362.025 34.5157 359.611 39.1484L355.454 47.127C352.698 52.4165 347.229 55.7344 341.265 55.7344H33.118C27.1529 55.7344 21.6822 52.4155 18.9266 47.125L14.7714 39.1465C12.3588 34.5144 12.3587 28.9963 14.7714 24.3643L18.9266 16.3857C21.6822 11.0953 27.1529 7.77734 33.118 7.77734H341.265Z" fill="url(#paint0_linear_787_18733)"/>
<path d="M33.1182 8.77734H341.265C346.856 8.77739 351.984 11.8875 354.567 16.8467L358.725 24.8252C360.987 29.1684 360.987 34.3434 358.725 38.6865L354.567 46.665C351.984 51.624 346.856 54.7343 341.265 54.7344H33.1182C27.5259 54.7344 22.3968 51.6229 19.8135 46.6631L15.6582 38.6846C13.3964 34.342 13.3964 29.1687 15.6582 24.8262L19.8135 16.8477C22.3968 11.8879 27.5258 8.77734 33.1182 8.77734Z" stroke="url(#paint1_linear_787_18733)" stroke-width="2"/>
</g>
<path d="M154.425 36.7559V26.4998H158.471C159.246 26.4998 159.907 26.6383 160.455 26.9154C161.005 27.1892 161.424 27.5781 161.711 28.0823C162.002 28.583 162.147 29.1723 162.147 29.85C162.147 30.5311 162 31.117 161.706 31.6078C161.413 32.0952 160.987 32.4691 160.429 32.7295C159.875 32.99 159.204 33.1202 158.416 33.1202H155.707V31.3774H158.066C158.48 31.3774 158.824 31.3207 159.097 31.2072C159.371 31.0937 159.575 30.9234 159.708 30.6964C159.845 30.4693 159.914 30.1872 159.914 29.85C159.914 29.5095 159.845 29.2224 159.708 28.9887C159.575 28.755 159.369 28.578 159.092 28.4579C158.819 28.3343 158.473 28.2726 158.056 28.2726H156.593V36.7559H154.425ZM159.964 32.0885L162.513 36.7559H160.119L157.625 32.0885H159.964ZM167.021 36.9061C166.23 36.9061 165.549 36.7458 164.978 36.4253C164.41 36.1015 163.973 35.6441 163.666 35.0532C163.359 34.4589 163.205 33.7562 163.205 32.9449C163.205 32.1536 163.359 31.4592 163.666 30.8616C163.973 30.264 164.405 29.7983 164.963 29.4644C165.524 29.1306 166.181 28.9636 166.936 28.9636C167.443 28.9636 167.916 29.0454 168.353 29.209C168.794 29.3693 169.178 29.6113 169.505 29.9352C169.835 30.259 170.093 30.6663 170.276 31.1571C170.46 31.6445 170.552 32.2154 170.552 32.8698V33.4557H164.056V32.1336H168.543C168.543 31.8265 168.477 31.5544 168.343 31.3173C168.21 31.0803 168.024 30.895 167.787 30.7615C167.554 30.6246 167.281 30.5561 166.971 30.5561C166.647 30.5561 166.36 30.6313 166.11 30.7815C165.863 30.9284 165.669 31.127 165.529 31.3774C165.388 31.6245 165.317 31.8999 165.313 32.2037V33.4607C165.313 33.8413 165.383 34.1701 165.524 34.4472C165.667 34.7243 165.869 34.938 166.13 35.0882C166.39 35.2385 166.699 35.3136 167.056 35.3136C167.293 35.3136 167.51 35.2802 167.707 35.2134C167.904 35.1467 168.073 35.0465 168.213 34.913C168.353 34.7794 168.46 34.6158 168.533 34.4222L170.507 34.5524C170.406 35.0265 170.201 35.4405 169.891 35.7944C169.583 36.1449 169.186 36.4187 168.699 36.6156C168.215 36.8093 167.655 36.9061 167.021 36.9061ZM178.908 29.0638L176.219 36.7559H173.815L171.126 29.0638H173.38L174.977 34.5674H175.057L176.65 29.0638H178.908ZM183.258 36.9061C182.467 36.9061 181.785 36.7458 181.215 36.4253C180.647 36.1015 180.21 35.6441 179.902 35.0532C179.595 34.4589 179.442 33.7562 179.442 32.9449C179.442 32.1536 179.595 31.4592 179.902 30.8616C180.21 30.264 180.642 29.7983 181.2 29.4644C181.76 29.1306 182.418 28.9636 183.173 28.9636C183.68 28.9636 184.152 29.0454 184.59 29.209C185.031 29.3693 185.414 29.6113 185.742 29.9352C186.072 30.259 186.329 30.6663 186.513 31.1571C186.696 31.6445 186.788 32.2154 186.788 32.8698V33.4557H180.293V32.1336H184.78C184.78 31.8265 184.713 31.5544 184.58 31.3173C184.446 31.0803 184.261 30.895 184.024 30.7615C183.79 30.6246 183.518 30.5561 183.208 30.5561C182.884 30.5561 182.597 30.6313 182.346 30.7815C182.099 30.9284 181.906 31.127 181.765 31.3774C181.625 31.6245 181.553 31.8999 181.55 32.2037V33.4607C181.55 33.8413 181.62 34.1701 181.76 34.4472C181.904 34.7243 182.106 34.938 182.366 35.0882C182.627 35.2385 182.936 35.3136 183.293 35.3136C183.53 35.3136 183.747 35.2802 183.944 35.2134C184.141 35.1467 184.309 35.0465 184.45 34.913C184.59 34.7794 184.697 34.6158 184.77 34.4222L186.743 34.5524C186.643 35.0265 186.438 35.4405 186.127 35.7944C185.82 36.1449 185.423 36.4187 184.935 36.6156C184.451 36.8093 183.892 36.9061 183.258 36.9061ZM190.374 36.9011C189.883 36.9011 189.446 36.816 189.062 36.6457C188.678 36.4721 188.374 36.2167 188.15 35.8795C187.93 35.539 187.82 35.115 187.82 34.6075C187.82 34.1802 187.898 33.8213 188.055 33.5308C188.212 33.2403 188.426 33.0066 188.696 32.8297C188.967 32.6528 189.274 32.5192 189.618 32.4291C189.965 32.3389 190.329 32.2755 190.709 32.2388C191.157 32.192 191.517 32.1486 191.791 32.1086C192.065 32.0652 192.264 32.0017 192.387 31.9183C192.511 31.8348 192.572 31.7113 192.572 31.5477V31.5176C192.572 31.2005 192.472 30.9551 192.272 30.7815C192.075 30.6079 191.794 30.5211 191.431 30.5211C191.047 30.5211 190.741 30.6062 190.514 30.7765C190.287 30.9434 190.137 31.1537 190.063 31.4075L188.09 31.2472C188.19 30.7798 188.387 30.3759 188.681 30.0353C188.975 29.6915 189.354 29.4277 189.818 29.2441C190.285 29.0571 190.826 28.9636 191.441 28.9636C191.868 28.9636 192.277 29.0137 192.667 29.1139C193.061 29.214 193.41 29.3693 193.714 29.5796C194.021 29.7899 194.263 30.0604 194.44 30.3909C194.617 30.7181 194.706 31.1103 194.706 31.5677V36.7559H192.683V35.6892H192.622C192.499 35.9296 192.334 36.1416 192.127 36.3252C191.92 36.5055 191.671 36.6474 191.38 36.7509C191.09 36.851 190.754 36.9011 190.374 36.9011ZM190.985 35.4288C191.299 35.4288 191.576 35.367 191.816 35.2435C192.057 35.1166 192.245 34.9464 192.382 34.7327C192.519 34.519 192.587 34.277 192.587 34.0066V33.1903C192.521 33.2337 192.429 33.2737 192.312 33.3105C192.198 33.3438 192.07 33.3756 191.926 33.4056C191.783 33.4323 191.639 33.4574 191.496 33.4807C191.352 33.5008 191.222 33.5191 191.105 33.5358C190.855 33.5725 190.636 33.631 190.449 33.7111C190.262 33.7912 190.117 33.8997 190.013 34.0366C189.91 34.1701 189.858 34.3371 189.858 34.5374C189.858 34.8278 189.963 35.0499 190.174 35.2034C190.387 35.3537 190.658 35.4288 190.985 35.4288ZM198.494 26.4998V36.7559H196.361V26.4998H198.494ZM205.275 36.7559H202.951L206.492 26.4998H209.286L212.822 36.7559H210.498L207.929 28.8435H207.849L205.275 36.7559ZM205.13 32.7245H210.618V34.4172H205.13V32.7245ZM216.149 26.4998V36.7559H214.016V26.4998H216.149ZM219.992 26.4998V36.7559H217.858V26.4998H219.992Z" fill="white"/>
<defs>
<filter id="filter0_d_787_18733" x="-4.1008e-05" y="0.000170708" width="374.383" height="73.8809" filterUnits="userSpaceOnUse" color-interpolation-filters="sRGB">
<feFlood flood-opacity="0" result="BackgroundImageFix"/>
<feColorMatrix in="SourceAlpha" type="matrix" values="0 0 0 0 0 0 0 0 0 0 0 0 0 0 0 0 0 0 127 0" result="hardAlpha"/>
<feOffset dy="5.18478"/>
<feGaussianBlur stdDeviation="6.48098"/>
<feComposite in2="hardAlpha" operator="out"/>
<feColorMatrix type="matrix" values="0 0 0 0 0 0 0 0 0 0 0 0 0 0 0 0 0 0 0.25 0"/>
<feBlend mode="normal" in2="BackgroundImageFix" result="effect1_dropShadow_787_18733"/>
<feBlend mode="normal" in="SourceGraphic" in2="effect1_dropShadow_787_18733" result="shape"/>
</filter>
<linearGradient id="paint0_linear_787_18733" x1="187.192" y1="7.77734" x2="187.192" y2="55.7344" gradientUnits="userSpaceOnUse">
<stop stop-color="#0144BD"/>
<stop offset="1" stop-color="#192871"/>
</linearGradient>
<linearGradient id="paint1_linear_787_18733" x1="361.421" y1="31.7559" x2="12.9619" y2="31.7559" gradientUnits="userSpaceOnUse">
<stop stop-color="#020C7B"/>
<stop offset="0.5" stop-color="#040825"/>
<stop offset="1" stop-color="#000D61"/>
</linearGradient>
</defs>
</svg>
