<svg width="375" height="64" viewBox="0 0 375 64" fill="none" xmlns="http://www.w3.org/2000/svg">
<g filter="url(#filter0_d_335_18252)">
<path d="M341.265 7.77734C347.229 7.77735 352.698 11.095 355.454 16.3848L359.611 24.3633C362.025 28.996 362.025 34.5157 359.611 39.1484L355.454 47.127C352.698 52.4165 347.229 55.7344 341.265 55.7344H33.118C27.1529 55.7344 21.6822 52.4155 18.9266 47.125L14.7714 39.1465C12.3588 34.5144 12.3587 28.9963 14.7714 24.3643L18.9266 16.3857C21.6822 11.0953 27.1529 7.77734 33.118 7.77734H341.265Z" fill="url(#paint0_linear_335_18252)"/>
<path d="M33.1182 8.77734H341.265C346.856 8.77739 351.984 11.8875 354.567 16.8467L358.725 24.8252C360.987 29.1684 360.987 34.3434 358.725 38.6865L354.567 46.665C351.984 51.624 346.856 54.7343 341.265 54.7344H33.1182C27.5259 54.7344 22.3968 51.6229 19.8135 46.6631L15.6582 38.6846C13.3964 34.342 13.3964 29.1687 15.6582 24.8262L19.8135 16.8477C22.3968 11.8879 27.5258 8.77734 33.1182 8.77734Z" stroke="url(#paint1_linear_335_18252)" stroke-width="2"/>
</g>
<path d="M135.731 26.4998L138.21 34.292H138.305L140.789 26.4998H143.192L139.657 36.7559H136.863L133.322 26.4998H135.731ZM144.387 36.7559V29.0638H146.52V36.7559H144.387ZM145.458 28.0722C145.141 28.0722 144.869 27.9671 144.642 27.7568C144.419 27.5431 144.307 27.2877 144.307 26.9906C144.307 26.6968 144.419 26.4447 144.642 26.2344C144.869 26.0207 145.141 25.9139 145.458 25.9139C145.776 25.9139 146.046 26.0207 146.27 26.2344C146.497 26.4447 146.61 26.6968 146.61 26.9906C146.61 27.2877 146.497 27.5431 146.27 27.7568C146.046 27.9671 145.776 28.0722 145.458 28.0722ZM151.735 36.9061C150.943 36.9061 150.262 36.7458 149.691 36.4253C149.124 36.1015 148.686 35.6441 148.379 35.0532C148.072 34.4589 147.919 33.7562 147.919 32.9449C147.919 32.1536 148.072 31.4592 148.379 30.8616C148.686 30.264 149.119 29.7983 149.676 29.4644C150.237 29.1306 150.895 28.9636 151.649 28.9636C152.157 28.9636 152.629 29.0454 153.067 29.209C153.507 29.3693 153.891 29.6113 154.218 29.9352C154.549 30.259 154.806 30.6663 154.99 31.1571C155.173 31.6445 155.265 32.2154 155.265 32.8698V33.4557H148.77V32.1336H153.257C153.257 31.8265 153.19 31.5544 153.057 31.3173C152.923 31.0803 152.738 30.895 152.501 30.7615C152.267 30.6246 151.995 30.5561 151.685 30.5561C151.361 30.5561 151.074 30.6313 150.823 30.7815C150.576 30.9284 150.382 31.127 150.242 31.3774C150.102 31.6245 150.03 31.8999 150.027 32.2037V33.4607C150.027 33.8413 150.097 34.1701 150.237 34.4472C150.381 34.7243 150.583 34.938 150.843 35.0882C151.104 35.2385 151.412 35.3136 151.77 35.3136C152.007 35.3136 152.224 35.2802 152.421 35.2134C152.618 35.1467 152.786 35.0465 152.926 34.913C153.067 34.7794 153.174 34.6158 153.247 34.4222L155.22 34.5524C155.12 35.0265 154.915 35.4405 154.604 35.7944C154.297 36.1449 153.9 36.4187 153.412 36.6156C152.928 36.8093 152.369 36.9061 151.735 36.9061ZM158.12 36.7559L156.026 29.0638H158.185L159.377 34.2319H159.447L160.689 29.0638H162.807L164.069 34.2019H164.134L165.306 29.0638H167.459L165.371 36.7559H163.112L161.79 31.9183H161.695L160.373 36.7559H158.12ZM180.95 30.0904H178.757C178.717 29.8066 178.635 29.5546 178.512 29.3342C178.388 29.1105 178.229 28.9202 178.036 28.7633C177.842 28.6064 177.618 28.4862 177.365 28.4028C177.114 28.3193 176.842 28.2776 176.548 28.2776C176.018 28.2776 175.555 28.4094 175.161 28.6732C174.767 28.9336 174.462 29.3142 174.245 29.815C174.028 30.3124 173.919 30.9167 173.919 31.6278C173.919 32.359 174.028 32.9733 174.245 33.4707C174.465 33.9682 174.772 34.3437 175.166 34.5975C175.56 34.8512 176.016 34.9781 176.533 34.9781C176.824 34.9781 177.093 34.9397 177.34 34.8629C177.59 34.7861 177.812 34.6743 178.006 34.5274C178.199 34.3771 178.36 34.1952 178.487 33.9815C178.617 33.7678 178.707 33.5241 178.757 33.2504L180.95 33.2604C180.894 33.7311 180.752 34.1852 180.525 34.6225C180.301 35.0565 179.999 35.4455 179.618 35.7893C179.241 36.1299 178.79 36.4003 178.266 36.6006C177.745 36.7976 177.156 36.8961 176.498 36.8961C175.584 36.8961 174.766 36.6891 174.045 36.2751C173.327 35.8611 172.759 35.2619 172.342 34.4773C171.928 33.6927 171.721 32.7429 171.721 31.6278C171.721 30.5094 171.931 29.5579 172.352 28.7733C172.773 27.9888 173.343 27.3912 174.065 26.9805C174.786 26.5666 175.597 26.3596 176.498 26.3596C177.093 26.3596 177.644 26.443 178.151 26.61C178.662 26.7769 179.114 27.0206 179.508 27.3411C179.902 27.6583 180.223 28.0472 180.47 28.5079C180.72 28.9687 180.88 29.4961 180.95 30.0904ZM185.941 36.9061C185.163 36.9061 184.49 36.7408 183.923 36.4103C183.358 36.0765 182.923 35.6124 182.615 35.0181C182.308 34.4205 182.155 33.7278 182.155 32.9399C182.155 32.1453 182.308 31.4509 182.615 30.8566C182.923 30.259 183.358 29.7949 183.923 29.4644C184.49 29.1306 185.163 28.9636 185.941 28.9636C186.719 28.9636 187.39 29.1306 187.954 29.4644C188.521 29.7949 188.959 30.259 189.266 30.8566C189.573 31.4509 189.727 32.1453 189.727 32.9399C189.727 33.7278 189.573 34.4205 189.266 35.0181C188.959 35.6124 188.521 36.0765 187.954 36.4103C187.39 36.7408 186.719 36.9061 185.941 36.9061ZM185.951 35.2535C186.305 35.2535 186.6 35.1533 186.837 34.953C187.074 34.7494 187.253 34.4723 187.373 34.1217C187.496 33.7712 187.558 33.3722 187.558 32.9249C187.558 32.4775 187.496 32.0785 187.373 31.728C187.253 31.3774 187.074 31.1003 186.837 30.8967C186.6 30.693 186.305 30.5912 185.951 30.5912C185.593 30.5912 185.293 30.693 185.049 30.8967C184.809 31.1003 184.627 31.3774 184.503 31.728C184.383 32.0785 184.323 32.4775 184.323 32.9249C184.323 33.3722 184.383 33.7712 184.503 34.1217C184.627 34.4723 184.809 34.7494 185.049 34.953C185.293 35.1533 185.593 35.2535 185.951 35.2535ZM193.247 26.4998V36.7559H191.114V26.4998H193.247ZM197.089 26.4998V36.7559H194.956V26.4998H197.089ZM202.304 36.9061C201.513 36.9061 200.832 36.7458 200.261 36.4253C199.693 36.1015 199.256 35.6441 198.949 35.0532C198.641 34.4589 198.488 33.7562 198.488 32.9449C198.488 32.1536 198.641 31.4592 198.949 30.8616C199.256 30.264 199.688 29.7983 200.246 29.4644C200.806 29.1306 201.464 28.9636 202.219 28.9636C202.726 28.9636 203.199 29.0454 203.636 29.209C204.077 29.3693 204.461 29.6113 204.788 29.9352C205.118 30.259 205.375 30.6663 205.559 31.1571C205.743 31.6445 205.834 32.2154 205.834 32.8698V33.4557H199.339V32.1336H203.826C203.826 31.8265 203.759 31.5544 203.626 31.3173C203.492 31.0803 203.307 30.895 203.07 30.7615C202.836 30.6246 202.564 30.5561 202.254 30.5561C201.93 30.5561 201.643 30.6313 201.392 30.7815C201.145 30.9284 200.952 31.127 200.811 31.3774C200.671 31.6245 200.599 31.8999 200.596 32.2037V33.4607C200.596 33.8413 200.666 34.1701 200.806 34.4472C200.95 34.7243 201.152 34.938 201.412 35.0882C201.673 35.2385 201.982 35.3136 202.339 35.3136C202.576 35.3136 202.793 35.2802 202.99 35.2134C203.187 35.1467 203.355 35.0465 203.496 34.913C203.636 34.7794 203.743 34.6158 203.816 34.4222L205.789 34.5524C205.689 35.0265 205.484 35.4405 205.173 35.7944C204.866 36.1449 204.469 36.4187 203.981 36.6156C203.497 36.8093 202.938 36.9061 202.304 36.9061ZM210.702 36.9061C209.914 36.9061 209.236 36.7392 208.669 36.4053C208.105 36.0681 207.671 35.6007 207.367 35.0031C207.066 34.4055 206.916 33.7178 206.916 32.9399C206.916 32.152 207.068 31.4609 207.372 30.8666C207.679 30.269 208.115 29.8033 208.679 29.4694C209.243 29.1322 209.914 28.9636 210.692 28.9636C211.363 28.9636 211.951 29.0855 212.455 29.3292C212.959 29.5729 213.358 29.9151 213.652 30.3558C213.945 30.7965 214.107 31.314 214.137 31.9083H212.124C212.067 31.5243 211.917 31.2155 211.674 30.9818C211.433 30.7448 211.118 30.6263 210.727 30.6263C210.397 30.6263 210.108 30.7164 209.861 30.8967C209.617 31.0736 209.427 31.3324 209.29 31.6729C209.153 32.0134 209.084 32.4257 209.084 32.9098C209.084 33.4006 209.151 33.8179 209.285 34.1618C209.422 34.5057 209.614 34.7677 209.861 34.948C210.108 35.1283 210.397 35.2184 210.727 35.2184C210.971 35.2184 211.189 35.1684 211.383 35.0682C211.58 34.9681 211.742 34.8228 211.869 34.6325C211.999 34.4389 212.084 34.2069 212.124 33.9364H214.137C214.104 34.524 213.944 35.0415 213.657 35.4889C213.373 35.9329 212.981 36.2801 212.48 36.5305C211.979 36.7809 211.386 36.9061 210.702 36.9061ZM219.595 29.0638V30.6663H214.962V29.0638H219.595ZM216.014 27.2209H218.147V34.3922C218.147 34.5891 218.177 34.7427 218.238 34.8529C218.298 34.9597 218.381 35.0348 218.488 35.0782C218.598 35.1216 218.725 35.1433 218.869 35.1433C218.969 35.1433 219.069 35.135 219.169 35.1183C219.269 35.0983 219.346 35.0832 219.399 35.0732L219.735 36.6607C219.628 36.6941 219.478 36.7325 219.284 36.7759C219.091 36.8226 218.855 36.851 218.578 36.861C218.064 36.8811 217.613 36.8126 217.226 36.6557C216.842 36.4988 216.543 36.2551 216.33 35.9246C216.116 35.594 216.011 35.1767 216.014 34.6726V27.2209ZM220.984 36.7559V29.0638H223.118V36.7559H220.984ZM222.056 28.0722C221.739 28.0722 221.467 27.9671 221.24 27.7568C221.016 27.5431 220.904 27.2877 220.904 26.9906C220.904 26.6968 221.016 26.4447 221.24 26.2344C221.467 26.0207 221.739 25.9139 222.056 25.9139C222.373 25.9139 222.644 26.0207 222.867 26.2344C223.094 26.4447 223.208 26.6968 223.208 26.9906C223.208 27.2877 223.094 27.5431 222.867 27.7568C222.644 27.9671 222.373 28.0722 222.056 28.0722ZM228.302 36.9061C227.524 36.9061 226.851 36.7408 226.284 36.4103C225.72 36.0765 225.284 35.6124 224.977 35.0181C224.67 34.4205 224.516 33.7278 224.516 32.9399C224.516 32.1453 224.67 31.4509 224.977 30.8566C225.284 30.259 225.72 29.7949 226.284 29.4644C226.851 29.1306 227.524 28.9636 228.302 28.9636C229.08 28.9636 229.751 29.1306 230.315 29.4644C230.883 29.7949 231.32 30.259 231.627 30.8566C231.934 31.4509 232.088 32.1453 232.088 32.9399C232.088 33.7278 231.934 34.4205 231.627 35.0181C231.32 35.6124 230.883 36.0765 230.315 36.4103C229.751 36.7408 229.08 36.9061 228.302 36.9061ZM228.312 35.2535C228.666 35.2535 228.961 35.1533 229.198 34.953C229.436 34.7494 229.614 34.4723 229.734 34.1217C229.858 33.7712 229.92 33.3722 229.92 32.9249C229.92 32.4775 229.858 32.0785 229.734 31.728C229.614 31.3774 229.436 31.1003 229.198 30.8967C228.961 30.693 228.666 30.5912 228.312 30.5912C227.955 30.5912 227.654 30.693 227.411 30.8967C227.17 31.1003 226.988 31.3774 226.865 31.728C226.745 32.0785 226.685 32.4775 226.685 32.9249C226.685 33.3722 226.745 33.7712 226.865 34.1217C226.988 34.4723 227.17 34.7494 227.411 34.953C227.654 35.1533 227.955 35.2535 228.312 35.2535ZM235.609 32.3089V36.7559H233.475V29.0638H235.508V30.4209H235.599C235.769 29.9736 236.054 29.6197 236.455 29.3593C236.856 29.0955 237.341 28.9636 237.912 28.9636C238.446 28.9636 238.912 29.0805 239.309 29.3142C239.707 29.5479 240.015 29.8818 240.236 30.3158C240.456 30.7464 240.566 31.2606 240.566 31.8582V36.7559H238.433V32.2388C238.436 31.768 238.316 31.4008 238.072 31.1371C237.829 30.87 237.493 30.7364 237.066 30.7364C236.779 30.7364 236.525 30.7982 236.305 30.9217C236.088 31.0452 235.917 31.2255 235.794 31.4626C235.674 31.6963 235.612 31.9784 235.609 32.3089Z" fill="white"/>
<defs>
<filter id="filter0_d_335_18252" x="-4.1008e-05" y="0.000170708" width="374.383" height="73.8809" filterUnits="userSpaceOnUse" color-interpolation-filters="sRGB">
<feFlood flood-opacity="0" result="BackgroundImageFix"/>
<feColorMatrix in="SourceAlpha" type="matrix" values="0 0 0 0 0 0 0 0 0 0 0 0 0 0 0 0 0 0 127 0" result="hardAlpha"/>
<feOffset dy="5.18478"/>
<feGaussianBlur stdDeviation="6.48098"/>
<feComposite in2="hardAlpha" operator="out"/>
<feColorMatrix type="matrix" values="0 0 0 0 0 0 0 0 0 0 0 0 0 0 0 0 0 0 0.25 0"/>
<feBlend mode="normal" in2="BackgroundImageFix" result="effect1_dropShadow_335_18252"/>
<feBlend mode="normal" in="SourceGraphic" in2="effect1_dropShadow_335_18252" result="shape"/>
</filter>
<linearGradient id="paint0_linear_335_18252" x1="187.192" y1="7.77734" x2="187.192" y2="55.7344" gradientUnits="userSpaceOnUse">
<stop stop-color="#0144BD"/>
<stop offset="1" stop-color="#192871"/>
</linearGradient>
<linearGradient id="paint1_linear_335_18252" x1="361.421" y1="31.7559" x2="12.9619" y2="31.7559" gradientUnits="userSpaceOnUse">
<stop stop-color="#020C7B"/>
<stop offset="0.5" stop-color="#040825"/>
<stop offset="1" stop-color="#000D61"/>
</linearGradient>
</defs>
</svg>
