<svg width="1257" height="75" viewBox="0 0 1257 75" fill="none" xmlns="http://www.w3.org/2000/svg">
<g style="mix-blend-mode:plus-lighter">
<path d="M451.965 46.2497L593.445 74.8594C593.445 74.8594 447.123 45.9625 347.819 43.069C287.401 41.3085 206.338 55.7863 206.338 55.7863C206.338 55.7863 252.918 31.8738 328.169 31.627C388.018 31.4307 451.965 46.2497 451.965 46.2497Z" fill="url(#paint0_linear_401_15111)"/>
<path d="M797.637 46.2497L656.156 74.8594C656.156 74.8594 802.479 45.9625 901.782 43.069C962.2 41.3085 1043.26 55.7863 1043.26 55.7863C1043.26 55.7863 996.683 31.8738 921.432 31.627C861.584 31.4307 797.637 46.2497 797.637 46.2497Z" fill="url(#paint1_linear_401_15111)"/>
<g filter="url(#filter0_i_401_15111)">
<path d="M69.8584 73.7865C81.1151 74.0297 94.28 72.749 111.825 69.5394C150.191 62.5204 167.75 53.9074 186.747 44.9986C208.07 34.9992 232.025 24.2627 278.993 20.8646C319.536 17.9317 352.919 18.4134 385.628 23.3919C409.544 27.0321 431.705 32.8804 454.782 40.3835C443.046 35.3043 431.75 30.9464 419.008 25.665C377.718 8.55058 317.044 -1.69781 267.595 1.42934C246.995 2.7325 229.723 9.18394 202.492 19.0072C179.035 27.469 146.591 38.9557 104.884 38.3706L100.817 38.2749C73.8033 37.393 52.649 28.9405 37.9344 20.7599C26.734 14.533 17.0052 7.21603 8.79446 -0.000335693C7.11068 3.55027 5.56206 7.03346 4.25302 10.3484C1.00123 18.5831 -0.211182 24.2756 0.0295952 27.1486C0.937844 37.9842 3.89557 45.9061 9.16826 52.0572C14.1251 57.8397 21.8754 62.944 35.5242 67.5713C48.376 71.9282 59.2298 73.5568 69.8584 73.7865ZM1187.14 73.7865C1197.77 73.5568 1208.62 71.9277 1221.48 67.5713C1235.13 62.9439 1242.88 57.8397 1247.84 52.0572C1253.11 45.9062 1256.06 37.9844 1256.97 27.1486C1257.21 24.2796 1256 18.5973 1252.76 10.3753C1251.45 7.05346 1249.9 3.56184 1248.21 0.00265503C1240 7.21873 1230.27 14.5363 1219.07 20.7629C1204.36 28.9433 1183.2 37.3938 1156.18 38.2749C1112.51 39.6985 1078.72 27.7419 1054.51 19.0072C1028.13 9.49119 1011.1 3.13902 991.33 1.56693L989.405 1.42934C939.957 -1.69685 879.287 8.55093 837.997 25.665C825.261 30.9444 813.966 35.2982 802.235 40.3746C825.305 32.8742 847.463 27.0312 871.372 23.3919C904.082 18.4132 937.469 17.9317 978.012 20.8646C1024.98 24.2625 1048.93 34.999 1070.26 44.9986C1089.26 53.9074 1106.82 62.5204 1145.18 69.5394C1162.72 72.7486 1175.89 74.0296 1187.14 73.7865Z" fill="url(#paint2_linear_401_15111)"/>
</g>
<path d="M624.8 15.5158C624.8 15.5158 622.261 30.3849 616.774 37.5825C612.812 42.7797 604.088 48.2072 604.088 48.2072C604.088 48.2072 612.735 51.3963 616.774 55.5627C622.105 61.0606 624.8 73.8154 624.8 73.8154V15.5158Z" fill="#010B7B"/>
<path d="M624.8 73.8154C624.8 73.8154 627.496 61.06 632.826 55.5622C636.866 51.3958 645.513 48.2066 645.513 48.2066C645.513 48.2066 636.789 42.7792 632.826 37.5819C627.339 30.3844 624.8 15.5158 624.8 15.5158V73.8154Z" fill="#010B7B"/>
<g filter="url(#filter1_i_401_15111)">
<path d="M624.8 26.7206C624.8 26.7206 623.105 36.6472 619.442 41.4524C616.797 44.922 610.973 48.5454 610.973 48.5454C610.973 48.5454 616.745 50.6745 619.442 53.456C623.001 57.1264 624.8 65.6416 624.8 65.6416V26.7206Z" fill="#001FE8"/>
<path d="M624.8 65.6416C624.8 65.6416 626.6 57.126 630.159 53.4557C632.856 50.6742 638.628 48.5451 638.628 48.5451C638.628 48.5451 632.804 44.9217 630.159 41.452C626.495 36.6469 624.8 26.7206 624.8 26.7206V65.6416Z" fill="#001FE8"/>
</g>
</g>
<defs>
<filter id="filter0_i_401_15111" x="0" y="0" width="1257" height="76.9503" filterUnits="userSpaceOnUse" color-interpolation-filters="sRGB">
<feFlood flood-opacity="0" result="BackgroundImageFix"/>
<feBlend mode="normal" in="SourceGraphic" in2="BackgroundImageFix" result="shape"/>
<feColorMatrix in="SourceAlpha" type="matrix" values="0 0 0 0 0 0 0 0 0 0 0 0 0 0 0 0 0 0 127 0" result="hardAlpha"/>
<feOffset dy="3.13489"/>
<feGaussianBlur stdDeviation="1.56744"/>
<feComposite in2="hardAlpha" operator="arithmetic" k2="-1" k3="1"/>
<feColorMatrix type="matrix" values="0 0 0 0 0 0 0 0 0 0 0 0 0 0 0 0 0 0 0.25 0"/>
<feBlend mode="normal" in2="shape" result="effect1_innerShadow_401_15111"/>
</filter>
<filter id="filter1_i_401_15111" x="610.973" y="26.7207" width="27.6553" height="41.0122" filterUnits="userSpaceOnUse" color-interpolation-filters="sRGB">
<feFlood flood-opacity="0" result="BackgroundImageFix"/>
<feBlend mode="normal" in="SourceGraphic" in2="BackgroundImageFix" result="shape"/>
<feColorMatrix in="SourceAlpha" type="matrix" values="0 0 0 0 0 0 0 0 0 0 0 0 0 0 0 0 0 0 127 0" result="hardAlpha"/>
<feOffset dy="2.0913"/>
<feGaussianBlur stdDeviation="1.04565"/>
<feComposite in2="hardAlpha" operator="arithmetic" k2="-1" k3="1"/>
<feColorMatrix type="matrix" values="0 0 0 0 0 0 0 0 0 0 0 0 0 0 0 0 0 0 0.25 0"/>
<feBlend mode="normal" in2="shape" result="effect1_innerShadow_401_15111"/>
</filter>
<linearGradient id="paint0_linear_401_15111" x1="593.445" y1="53.2422" x2="206.338" y2="53.2422" gradientUnits="userSpaceOnUse">
<stop stop-color="#020C7B"/>
<stop offset="0.5" stop-color="#040825"/>
<stop offset="1" stop-color="#000D61"/>
</linearGradient>
<linearGradient id="paint1_linear_401_15111" x1="656.156" y1="53.2422" x2="1043.26" y2="53.2422" gradientUnits="userSpaceOnUse">
<stop stop-color="#020C7B"/>
<stop offset="0.5" stop-color="#040825"/>
<stop offset="1" stop-color="#000D61"/>
</linearGradient>
<linearGradient id="paint2_linear_401_15111" x1="1257" y1="36.9075" x2="0" y2="36.9075" gradientUnits="userSpaceOnUse">
<stop stop-color="#020C7B"/>
<stop offset="0.5" stop-color="#040825"/>
<stop offset="1" stop-color="#000D61"/>
</linearGradient>
</defs>
</svg>
