<svg width="375" height="113" viewBox="0 0 375 113" fill="none" xmlns="http://www.w3.org/2000/svg">
<g clip-path="url(#clip0_643_16810)">
<mask id="path-1-inside-1_643_16810" fill="white">
<path d="M0 9.66773C0 4.32839 4.32839 0 9.66773 0H365.332C370.672 0 375 4.32839 375 9.66773V103.332C375 108.672 370.672 113 365.332 113H9.66773C4.32839 113 0 108.672 0 103.332V9.66773Z"/>
</mask>
<path d="M0 9.66773C0 4.32839 4.32839 0 9.66773 0H365.332C370.672 0 375 4.32839 375 9.66773V103.332C375 108.672 370.672 113 365.332 113H9.66773C4.32839 113 0 108.672 0 103.332V9.66773Z" fill="url(#paint0_linear_643_16810)"/>
<mask id="path-3-inside-2_643_16810" fill="white">
<path d="M277.25 1H374.25C374.25 1 336.832 19.62 316.121 37.3747C299.397 51.7118 277.25 79.4717 277.25 79.4717C277.25 79.4717 282.923 53.9839 282.599 37.3747C282.318 22.9727 277.25 1 277.25 1Z"/>
</mask>
<path d="M277.25 1H374.25C374.25 1 336.832 19.62 316.121 37.3747C299.397 51.7118 277.25 79.4717 277.25 79.4717C277.25 79.4717 282.923 53.9839 282.599 37.3747C282.318 22.9727 277.25 1 277.25 1Z" fill="#010B7B"/>
<path d="M277.25 0.697982C277.25 0.899327 277.25 1.10067 277.25 1.30202C282.29 1.55061 287.33 1.791 292.37 2.02319C319.663 3.2806 346.957 4.29759 374.25 5.07416L372.435 -2.64749C351.559 7.4476 331.165 18.1672 312.528 33.1829C297.403 46.2064 284.932 60.7407 272.598 75.7601L283.059 80.7648C283.521 78.6674 283.933 76.6216 284.331 74.5612C286.588 62.4175 288.164 50.1538 287.159 37.2857C286.405 29.6181 284.621 22.4876 282.539 15.4241C281.069 10.5159 279.412 5.68909 277.544 0.932118C277.348 0.977373 277.152 1.02263 276.956 1.06788C277.298 6.1426 277.576 11.2016 277.813 16.2324C278.129 23.4356 278.428 30.6711 278.04 37.4636C277.193 48.8442 274.818 60.6386 272.635 72.308C272.256 74.2726 271.844 76.321 271.441 78.1786L281.902 83.1833C293.755 68.6417 306.159 53.8666 319.715 41.5665C336.377 27.3202 356.36 15.5677 376.065 4.64749L374.25 -3.07416C346.957 -2.29759 319.663 -1.2806 292.37 -0.0231905C287.33 0.209002 282.29 0.449393 277.25 0.697982ZM277.25 1.30202V0.697982L276.817 0.71933L276.956 1.06788L277.544 0.932118L277.25 1.30202Z" fill="#020C7B" mask="url(#path-3-inside-2_643_16810)"/>
<path d="M270.717 0.0809335C270.072 0.318645 269.428 0.556355 268.783 0.794066C269.242 2.003 269.699 3.26053 270.145 4.51884C273.159 13.1694 276.024 21.9921 277.383 31.0141V31.0141C279.062 45.5452 276.933 60.3804 274.395 74.8392C274.154 76.1352 273.89 77.4917 273.625 78.75C273.924 77.4992 274.221 76.1492 274.496 74.8594C277.404 60.4451 279.939 45.7252 278.617 30.8609V30.8609C277.465 21.6092 274.81 12.6888 271.999 3.88767C271.58 2.60495 271.157 1.3373 270.717 0.0809335Z" fill="url(#paint1_linear_643_16810)"/>
<path d="M374.466 6.16323C374.774 6.77707 375.083 7.3909 375.392 8.00474C373.72 8.8325 371.961 9.73066 370.256 10.6112C352.906 19.7211 335.656 29.2353 320.29 41.3512V41.3512C308.643 50.9989 298.238 62.1521 288.075 73.4106C286.79 74.8488 285.51 76.2953 284.25 77.7495C285.483 76.273 286.738 74.8037 287.998 73.3426C297.966 61.8988 308.156 50.5715 319.709 40.6478V40.6478C334.976 28.1662 352.087 18.3348 369.341 8.87931C371.04 7.96352 372.782 7.03549 374.466 6.16323Z" fill="url(#paint2_linear_643_16810)"/>
<path d="M15.5452 24.0042C15.5452 19.3323 19.3325 15.5449 24.0044 15.5449H40.9119C45.5839 15.5449 49.3712 19.3323 49.3712 24.0042V40.9117C49.3712 45.5836 45.5839 49.371 40.9119 49.371H24.0044C19.3325 49.371 15.5452 45.5836 15.5452 40.9117V24.0042Z" fill="#CECECE" fill-opacity="0.125"/>
<g clip-path="url(#clip1_643_16810)">
<path d="M30.3368 26.1191H26.815C26.426 26.1191 26.1106 26.4345 26.1106 26.8235V30.3453C26.1106 30.7344 26.426 31.0497 26.815 31.0497H30.3368C30.7258 31.0497 31.0412 30.7344 31.0412 30.3453V26.8235C31.0412 26.4345 30.7258 26.1191 30.3368 26.1191Z" stroke="white" stroke-width="1.40874" stroke-linecap="round" stroke-linejoin="round"/>
<path d="M38.0848 26.1191H34.563C34.174 26.1191 33.8586 26.4345 33.8586 26.8235V30.3453C33.8586 30.7344 34.174 31.0497 34.563 31.0497H38.0848C38.4739 31.0497 38.7892 30.7344 38.7892 30.3453V26.8235C38.7892 26.4345 38.4739 26.1191 38.0848 26.1191Z" stroke="white" stroke-width="1.40874" stroke-linecap="round" stroke-linejoin="round"/>
<path d="M38.0848 33.8672H34.563C34.174 33.8672 33.8586 34.1825 33.8586 34.5716V38.0934C33.8586 38.4824 34.174 38.7978 34.563 38.7978H38.0848C38.4739 38.7978 38.7892 38.4824 38.7892 38.0934V34.5716C38.7892 34.1825 38.4739 33.8672 38.0848 33.8672Z" stroke="white" stroke-width="1.40874" stroke-linecap="round" stroke-linejoin="round"/>
<path d="M30.3368 33.8672H26.815C26.426 33.8672 26.1106 34.1825 26.1106 34.5716V38.0934C26.1106 38.4824 26.426 38.7978 26.815 38.7978H30.3368C30.7258 38.7978 31.0412 38.4824 31.0412 38.0934V34.5716C31.0412 34.1825 30.7258 33.8672 30.3368 33.8672Z" stroke="white" stroke-width="1.40874" stroke-linecap="round" stroke-linejoin="round"/>
</g>
<path d="M16.6392 63.3942V61.1122H27.3906V63.3942H23.3828V74.2031H20.647V63.3942H16.6392ZM32.1223 74.3949C31.1294 74.3949 30.2708 74.1839 29.5463 73.7621C28.8262 73.3359 28.2701 72.7436 27.878 71.9851C27.486 71.2223 27.29 70.3381 27.29 69.3324C27.29 68.3182 27.486 67.4318 27.878 66.6733C28.2701 65.9105 28.8262 65.3182 29.5463 64.8963C30.2708 64.4702 31.1294 64.2571 32.1223 64.2571C33.1152 64.2571 33.9718 64.4702 34.6919 64.8963C35.4164 65.3182 35.9746 65.9105 36.3667 66.6733C36.7587 67.4318 36.9547 68.3182 36.9547 69.3324C36.9547 70.3381 36.7587 71.2223 36.3667 71.9851C35.9746 72.7436 35.4164 73.3359 34.6919 73.7621C33.9718 74.1839 33.1152 74.3949 32.1223 74.3949ZM32.1351 72.2855C32.5868 72.2855 32.964 72.1577 33.2665 71.902C33.5691 71.642 33.7971 71.2884 33.9505 70.8409C34.1081 70.3935 34.187 69.8842 34.187 69.3132C34.187 68.7422 34.1081 68.233 33.9505 67.7855C33.7971 67.3381 33.5691 66.9844 33.2665 66.7244C32.964 66.4645 32.5868 66.3345 32.1351 66.3345C31.6792 66.3345 31.2956 66.4645 30.9846 66.7244C30.6777 66.9844 30.4455 67.3381 30.2878 67.7855C30.1344 68.233 30.0577 68.7422 30.0577 69.3132C30.0577 69.8842 30.1344 70.3935 30.2878 70.8409C30.4455 71.2884 30.6777 71.642 30.9846 71.902C31.2956 72.1577 31.6792 72.2855 32.1351 72.2855ZM45.0215 70.0227V64.3849H47.7445V74.2031H45.1301V72.4197H45.0279C44.8063 72.995 44.4377 73.4574 43.9221 73.8068C43.4107 74.1562 42.7864 74.331 42.0492 74.331C41.3929 74.331 40.8155 74.1818 40.3169 73.8835C39.8184 73.5852 39.4284 73.1612 39.1472 72.6115C38.8702 72.0618 38.7296 71.4034 38.7253 70.6364V64.3849H41.4483V70.1506C41.4526 70.7301 41.6081 71.1882 41.915 71.5249C42.2218 71.8615 42.633 72.0298 43.1486 72.0298C43.4767 72.0298 43.7836 71.9553 44.0691 71.8061C44.3546 71.6527 44.5847 71.4268 44.7594 71.1286C44.9384 70.8303 45.0257 70.4616 45.0215 70.0227ZM49.9226 74.2031V64.3849H52.5625V66.098H52.6648C52.8438 65.4886 53.1442 65.0284 53.5661 64.7173C53.9879 64.402 54.4737 64.2443 55.0234 64.2443C55.1598 64.2443 55.3068 64.2528 55.4645 64.2699C55.6222 64.2869 55.7607 64.3104 55.88 64.3402V66.7564C55.7521 66.718 55.5753 66.6839 55.3494 66.6541C55.1236 66.6243 54.9169 66.6094 54.7294 66.6094C54.3288 66.6094 53.9709 66.6967 53.6555 66.8714C53.3445 67.0419 53.0973 67.2805 52.9141 67.5874C52.7351 67.8942 52.6456 68.2479 52.6456 68.6484V74.2031H49.9226ZM60.0108 68.527V74.2031H57.2878V64.3849H59.883V66.1172H59.998C60.2154 65.5462 60.5797 65.0945 61.0911 64.7621C61.6025 64.4254 62.2225 64.2571 62.9512 64.2571C63.633 64.2571 64.2275 64.4062 64.7346 64.7045C65.2417 65.0028 65.6358 65.429 65.9171 65.983C66.1983 66.5327 66.339 67.1889 66.339 67.9517V74.2031H63.6159V68.4375C63.6202 67.8366 63.4668 67.3679 63.1557 67.0312C62.8446 66.6903 62.4164 66.5199 61.8709 66.5199C61.5044 66.5199 61.1806 66.5987 60.8993 66.7564C60.6223 66.9141 60.405 67.1442 60.2473 67.4467C60.0939 67.745 60.0151 68.1051 60.0108 68.527ZM71.2848 74.3885C70.6584 74.3885 70.1001 74.2798 69.6101 74.0625C69.12 73.8409 68.7322 73.5149 68.4467 73.0845C68.1655 72.6499 68.0249 72.1087 68.0249 71.4609C68.0249 70.9155 68.125 70.4574 68.3253 70.0866C68.5256 69.7159 68.7983 69.4176 69.1435 69.1918C69.4886 68.9659 69.8807 68.7955 70.3196 68.6804C70.7628 68.5653 71.2273 68.4844 71.7131 68.4375C72.2841 68.3778 72.7443 68.3224 73.0938 68.2713C73.4432 68.2159 73.6967 68.1349 73.8544 68.0284C74.0121 67.9219 74.0909 67.7642 74.0909 67.5554V67.517C74.0909 67.1122 73.9631 66.799 73.7074 66.5774C73.456 66.3558 73.098 66.245 72.6335 66.245C72.1435 66.245 71.7536 66.3537 71.4638 66.571C71.174 66.7841 70.9822 67.0526 70.8885 67.3764L68.37 67.1719C68.4979 66.5753 68.7493 66.0597 69.1243 65.625C69.4993 65.1861 69.983 64.8494 70.5753 64.6151C71.1719 64.3764 71.8622 64.2571 72.6463 64.2571C73.1918 64.2571 73.7138 64.321 74.2124 64.4489C74.7152 64.5767 75.1605 64.7749 75.5483 65.0433C75.9403 65.3118 76.2493 65.657 76.4751 66.0788C76.701 66.4964 76.8139 66.9972 76.8139 67.581V74.2031H74.2315V72.8416H74.1548C73.9972 73.1484 73.7862 73.419 73.522 73.6534C73.2578 73.8835 72.9403 74.0646 72.5696 74.1967C72.1989 74.3246 71.7706 74.3885 71.2848 74.3885ZM72.0646 72.5092C72.4652 72.5092 72.8189 72.4304 73.1257 72.2727C73.4325 72.1108 73.6733 71.8935 73.848 71.6207C74.0227 71.348 74.1101 71.0391 74.1101 70.6939V69.652C74.0249 69.7074 73.9077 69.7585 73.7585 69.8054C73.6136 69.848 73.4496 69.8885 73.2663 69.9268C73.0831 69.9609 72.8999 69.9929 72.7166 70.0227C72.5334 70.0483 72.3672 70.0717 72.218 70.093C71.8984 70.1399 71.6193 70.2145 71.3807 70.3168C71.142 70.419 70.9567 70.5575 70.8246 70.7322C70.6925 70.9027 70.6264 71.1158 70.6264 71.3714C70.6264 71.7422 70.7607 72.0256 71.0291 72.2216C71.3018 72.4134 71.647 72.5092 72.0646 72.5092ZM78.9265 74.2031V64.3849H81.5217V66.1172H81.6367C81.8413 65.5419 82.1822 65.0881 82.6594 64.7557C83.1367 64.4233 83.7077 64.2571 84.3725 64.2571C85.0458 64.2571 85.619 64.4254 86.092 64.7621C86.565 65.0945 86.8803 65.5462 87.038 66.1172H87.1403C87.3406 65.5547 87.7028 65.1051 88.2269 64.7685C88.7553 64.4276 89.3796 64.2571 90.0998 64.2571C91.016 64.2571 91.7596 64.549 92.3306 65.1328C92.9059 65.7124 93.1935 66.5348 93.1935 67.6001V74.2031H90.4769V68.1371C90.4769 67.5916 90.332 67.1825 90.0423 66.9098C89.7525 66.6371 89.3903 66.5007 88.9556 66.5007C88.4613 66.5007 88.0756 66.6584 87.7987 66.9737C87.5217 67.2848 87.3832 67.696 87.3832 68.2074V74.2031H84.7433V68.0795C84.7433 67.598 84.6048 67.2145 84.3278 66.929C84.055 66.6435 83.695 66.5007 83.2475 66.5007C82.945 66.5007 82.6722 66.5774 82.4293 66.7308C82.1907 66.88 82.0011 67.0909 81.8604 67.3636C81.7198 67.6321 81.6495 67.9474 81.6495 68.3097V74.2031H78.9265ZM99.8189 74.3949C98.8089 74.3949 97.9396 74.1903 97.2109 73.7812C96.4865 73.3679 95.9283 72.7841 95.5362 72.0298C95.1442 71.2713 94.9482 70.3743 94.9482 69.3388C94.9482 68.3288 95.1442 67.4425 95.5362 66.6797C95.9283 65.9169 96.4801 65.3224 97.1918 64.8963C97.9077 64.4702 98.7472 64.2571 99.7102 64.2571C100.358 64.2571 100.961 64.3615 101.519 64.5703C102.082 64.7749 102.572 65.0838 102.989 65.4972C103.411 65.9105 103.739 66.4304 103.974 67.0568C104.208 67.679 104.325 68.4077 104.325 69.2429V69.9908H96.0348V68.3033H101.762C101.762 67.9112 101.677 67.5639 101.506 67.2614C101.336 66.9588 101.099 66.7223 100.797 66.5518C100.499 66.3771 100.151 66.2898 99.755 66.2898C99.3416 66.2898 98.9751 66.3857 98.6555 66.5774C98.3402 66.7649 98.093 67.0185 97.9141 67.3381C97.7351 67.6534 97.6435 68.005 97.6392 68.3928V69.9972C97.6392 70.483 97.7287 70.9027 97.9077 71.2564C98.0909 71.6101 98.3487 71.8828 98.6811 72.0746C99.0135 72.2663 99.4077 72.3622 99.8636 72.3622C100.166 72.3622 100.443 72.3196 100.695 72.2344C100.946 72.1491 101.161 72.0213 101.34 71.8509C101.519 71.6804 101.656 71.4716 101.749 71.2244L104.268 71.3906C104.14 71.9957 103.878 72.5241 103.482 72.9759C103.089 73.4233 102.582 73.7727 101.96 74.0241C101.342 74.2713 100.629 74.3949 99.8189 74.3949ZM108.825 68.527V74.2031H106.102V64.3849H108.697V66.1172H108.812C109.03 65.5462 109.394 65.0945 109.906 64.7621C110.417 64.4254 111.037 64.2571 111.766 64.2571C112.447 64.2571 113.042 64.4062 113.549 64.7045C114.056 65.0028 114.45 65.429 114.732 65.983C115.013 66.5327 115.153 67.1889 115.153 67.9517V74.2031H112.43V68.4375C112.435 67.8366 112.281 67.3679 111.97 67.0312C111.659 66.6903 111.231 66.5199 110.685 66.5199C110.319 66.5199 109.995 66.5987 109.714 66.7564C109.437 66.9141 109.219 67.1442 109.062 67.4467C108.908 67.745 108.83 68.1051 108.825 68.527ZM122.522 64.3849V66.4304H116.609V64.3849H122.522ZM117.952 62.0327H120.675V71.1861C120.675 71.4375 120.713 71.6335 120.79 71.7741C120.866 71.9105 120.973 72.0064 121.109 72.0618C121.25 72.1172 121.412 72.1449 121.595 72.1449C121.723 72.1449 121.851 72.1342 121.979 72.1129C122.106 72.0874 122.204 72.0682 122.273 72.0554L122.701 74.0817C122.564 74.1243 122.373 74.1733 122.126 74.2287C121.878 74.2884 121.578 74.3246 121.224 74.3374C120.568 74.3629 119.993 74.2756 119.498 74.0753C119.008 73.875 118.627 73.5639 118.354 73.142C118.081 72.7202 117.947 72.1875 117.952 71.544V62.0327Z" fill="white"/>
<g filter="url(#filter0_i_643_16810)">
<path d="M261.714 13.6822C261.791 10.1519 261.546 7.57419 260.977 5.45471C260.44 3.4535 259.518 1.498 257.775 -0.663916C255.924 -2.9599 254.209 -4.10708 252.437 -4.68159C250.551 -5.2927 248.294 -5.35283 245.348 -4.84006C244.567 -4.7041 243.094 -4.11429 241.031 -2.97699C240.201 -2.51917 239.336 -2.00527 238.459 -1.46147C240.761 -0.360495 243.159 1.02202 245.329 2.75254C248.181 5.02602 251.394 8.50361 252.838 13.5711L253.045 14.3364C255.067 22.2092 253.437 29.0883 252.216 34.072C250.799 39.8574 249.841 43.5409 250.413 47.5302C251.785 57.1059 257.246 67.9649 263.681 74.7138C265.667 76.7964 267.341 78.6632 269.228 80.5678C266.184 76.6657 263.625 72.8324 261.579 68.5269C258.782 62.6383 257.16 56.3375 256.134 48.4632C254.946 39.3408 256.754 34.1189 258.483 29.4429C260.022 25.2768 261.547 21.4022 261.714 13.6822Z" fill="#020C7B" fill-opacity="0.25"/>
</g>
<g filter="url(#filter1_i_643_16810)">
<path d="M374.46 38.6365C377.748 37.3499 380.034 36.1327 381.772 34.7931C383.413 33.5282 384.864 31.9254 386.189 29.4852C387.597 26.8937 387.997 24.8691 387.846 23.0121C387.685 21.0367 386.873 18.9303 385.267 16.4073C384.841 15.7383 383.731 14.6058 381.888 13.1385C381.146 12.5479 380.339 11.947 379.5 11.3465C379.369 13.8952 379.014 16.6396 378.251 19.3088C377.248 22.8154 375.273 27.1179 371.15 30.3992L370.523 30.885C364.033 35.7776 357.055 36.9173 351.985 37.7063C346.1 38.6223 342.331 39.154 338.868 41.2151C330.556 46.1629 322.63 55.3787 318.874 63.9143C317.715 66.5483 316.635 68.8111 315.602 71.2851C318.034 66.975 320.589 63.1389 323.778 59.5955C328.138 54.7493 333.332 50.8301 340.206 46.8558C348.171 42.2518 353.687 41.9138 358.668 41.7118C363.106 41.5318 367.269 41.45 374.46 38.6365Z" fill="#020C7B" fill-opacity="0.25"/>
</g>
<g filter="url(#filter2_i_643_16810)">
<path d="M226.449 -2.9248C225.217 -4.16399 224.396 -5.16162 223.816 -6.09513C223.27 -6.97655 222.839 -7.96047 222.553 -9.27153C222.248 -10.6639 222.303 -11.6035 222.569 -12.3558C222.853 -13.1561 223.422 -13.8739 224.369 -14.5996C224.62 -14.792 225.208 -15.0353 226.138 -15.265C226.512 -15.3575 226.915 -15.4405 227.331 -15.5166C227.107 -14.4124 226.955 -13.1783 226.981 -11.8896C227.016 -10.1965 227.37 -7.96145 228.733 -5.70329L228.941 -5.36553C231.116 -1.92585 233.905 0.0318233 235.936 1.4378C238.293 3.06999 239.809 4.09198 241.029 5.6952C243.959 9.54364 246.26 15.1127 246.894 19.5123C247.09 20.8699 247.293 22.0541 247.454 23.3175C246.91 20.9826 246.263 18.8219 245.319 16.6508C244.029 13.6814 242.289 10.9274 239.853 7.79427C237.031 4.1646 234.765 2.85477 232.707 1.71546C230.873 0.700401 229.144 -0.215024 226.449 -2.9248Z" fill="#020C7B" fill-opacity="0.25"/>
</g>
</g>
<path d="M-2 9.66773C-2 3.22382 3.22382 -2 9.66773 -2H365.332C371.776 -2 377 3.22382 377 9.66773H373C373 5.43296 369.567 2 365.332 2H9.66773C5.43296 2 2 5.43296 2 9.66773H-2ZM2 9.66773M375 113H0H375M9.66773 113C3.22382 113 -2 107.776 -2 101.332V9.66773C-2 3.22382 3.22382 -2 9.66773 -2V2C5.43296 2 2 5.43296 2 9.66773V103.332C2 108.672 5.43296 113 9.66773 113ZM365.332 -2C371.776 -2 377 3.22382 377 9.66773V101.332C377 107.776 371.776 113 365.332 113C369.567 113 373 108.672 373 103.332V9.66773C373 5.43296 369.567 2 365.332 2V-2Z" fill="url(#paint3_linear_643_16810)" mask="url(#path-1-inside-1_643_16810)"/>
<defs>
<filter id="filter0_i_643_16810" x="238.459" y="-5.18652" width="30.7688" height="87.1615" filterUnits="userSpaceOnUse" color-interpolation-filters="sRGB">
<feFlood flood-opacity="0" result="BackgroundImageFix"/>
<feBlend mode="normal" in="SourceGraphic" in2="BackgroundImageFix" result="shape"/>
<feColorMatrix in="SourceAlpha" type="matrix" values="0 0 0 0 0 0 0 0 0 0 0 0 0 0 0 0 0 0 127 0" result="hardAlpha"/>
<feOffset dy="1.40755"/>
<feGaussianBlur stdDeviation="0.703773"/>
<feComposite in2="hardAlpha" operator="arithmetic" k2="-1" k3="1"/>
<feColorMatrix type="matrix" values="0 0 0 0 0 0 0 0 0 0 0 0 0 0 0 0 0 0 0.25 0"/>
<feBlend mode="normal" in2="shape" result="effect1_innerShadow_643_16810"/>
</filter>
<filter id="filter1_i_643_16810" x="315.602" y="11.3467" width="72.2734" height="61.346" filterUnits="userSpaceOnUse" color-interpolation-filters="sRGB">
<feFlood flood-opacity="0" result="BackgroundImageFix"/>
<feBlend mode="normal" in="SourceGraphic" in2="BackgroundImageFix" result="shape"/>
<feColorMatrix in="SourceAlpha" type="matrix" values="0 0 0 0 0 0 0 0 0 0 0 0 0 0 0 0 0 0 127 0" result="hardAlpha"/>
<feOffset dy="1.40755"/>
<feGaussianBlur stdDeviation="0.703773"/>
<feComposite in2="hardAlpha" operator="arithmetic" k2="-1" k3="1"/>
<feColorMatrix type="matrix" values="0 0 0 0 0 0 0 0 0 0 0 0 0 0 0 0 0 0 0.25 0"/>
<feBlend mode="normal" in2="shape" result="effect1_innerShadow_643_16810"/>
</filter>
<filter id="filter2_i_643_16810" x="222.346" y="-15.5166" width="25.1074" height="40.2415" filterUnits="userSpaceOnUse" color-interpolation-filters="sRGB">
<feFlood flood-opacity="0" result="BackgroundImageFix"/>
<feBlend mode="normal" in="SourceGraphic" in2="BackgroundImageFix" result="shape"/>
<feColorMatrix in="SourceAlpha" type="matrix" values="0 0 0 0 0 0 0 0 0 0 0 0 0 0 0 0 0 0 127 0" result="hardAlpha"/>
<feOffset dy="1.40755"/>
<feGaussianBlur stdDeviation="0.703773"/>
<feComposite in2="hardAlpha" operator="arithmetic" k2="-1" k3="1"/>
<feColorMatrix type="matrix" values="0 0 0 0 0 0 0 0 0 0 0 0 0 0 0 0 0 0 0.25 0"/>
<feBlend mode="normal" in2="shape" result="effect1_innerShadow_643_16810"/>
</filter>
<linearGradient id="paint0_linear_643_16810" x1="187.5" y1="80" x2="187.5" y2="-26" gradientUnits="userSpaceOnUse">
<stop stop-color="#010B7B"/>
<stop offset="1" stop-color="#0060DE"/>
</linearGradient>
<linearGradient id="paint1_linear_643_16810" x1="273.875" y1="78.75" x2="275.75" y2="14.25" gradientUnits="userSpaceOnUse">
<stop stop-color="#001FE8"/>
<stop offset="1" stop-color="#011599"/>
</linearGradient>
<linearGradient id="paint2_linear_643_16810" x1="323.75" y1="46.4995" x2="317.213" y2="30.1263" gradientUnits="userSpaceOnUse">
<stop stop-color="#001FE8"/>
<stop offset="1" stop-color="#011599"/>
</linearGradient>
<linearGradient id="paint3_linear_643_16810" x1="187.5" y1="0" x2="187.5" y2="103.5" gradientUnits="userSpaceOnUse">
<stop stop-color="#ABC3FF"/>
<stop offset="0.128319" stop-color="#566FE3"/>
<stop offset="0.247788" stop-color="#001FE8"/>
<stop offset="0.402655" stop-color="#020C7B"/>
<stop offset="1" stop-color="#010B7B"/>
</linearGradient>
<clipPath id="clip0_643_16810">
<path d="M0 9.66773C0 4.32839 4.32839 0 9.66773 0H365.332C370.672 0 375 4.32839 375 9.66773V103.332C375 108.672 370.672 113 365.332 113H9.66773C4.32839 113 0 108.672 0 103.332V9.66773Z" fill="white"/>
</clipPath>
<clipPath id="clip1_643_16810">
<rect width="16.9048" height="16.9048" fill="white" transform="translate(23.9976 24.0059)"/>
</clipPath>
</defs>
</svg>
