<svg width="168" height="162" viewBox="0 0 168 162" fill="none" xmlns="http://www.w3.org/2000/svg">
<path d="M0 81C0 36.2649 36.2649 0 81 0H87C131.735 0 168 36.2649 168 81C168 125.735 131.735 162 87 162H81C36.2649 162 0 125.735 0 81Z" fill="url(#paint0_linear_401_15843)"/>
<g clip-path="url(#clip0_401_15843)">
<path d="M83.9015 105.196C97.6461 105.196 109.026 93.7919 109.026 80.0719C109.026 66.3272 97.6215 54.9473 83.8768 54.9473C70.1568 54.9473 58.7769 66.3272 58.7769 80.0719C58.7769 93.7919 70.1815 105.196 83.9015 105.196ZM83.9015 101.009C72.2752 101.009 62.9889 91.6982 62.9889 80.0719C62.9889 68.4456 72.2505 59.1347 83.8768 59.1347C95.5031 59.1347 104.814 68.4456 104.839 80.0719C104.863 91.6982 95.5278 101.009 83.9015 101.009ZM71.0189 82.7321H83.8768C84.8375 82.7321 85.6011 81.9932 85.6011 81.0079V64.4059C85.6011 63.4453 84.8375 62.7063 83.8768 62.7063C82.9162 62.7063 82.1772 63.4453 82.1772 64.4059V79.3083H71.0189C70.0337 79.3083 69.2947 80.0473 69.2947 81.0079C69.2947 81.9932 70.0337 82.7321 71.0189 82.7321Z" fill="#FAFAFA"/>
</g>
<defs>
<linearGradient id="paint0_linear_401_15843" x1="84" y1="-38.8142" x2="90.3386" y2="161.8" gradientUnits="userSpaceOnUse">
<stop offset="0.447115" stop-color="#143C87" stop-opacity="0"/>
<stop offset="0.975962" stop-color="#020C7B"/>
</linearGradient>
<clipPath id="clip0_401_15843">
<rect width="53" height="53" fill="white" transform="translate(57.5 54.5)"/>
</clipPath>
</defs>
</svg>
