<svg width="873" height="319" viewBox="0 0 873 319" fill="none" xmlns="http://www.w3.org/2000/svg">
<g filter="url(#filter0_d_472_12523)">
<path d="M102.856 25.5435L104.343 40.3335L104.442 39.8306L106.935 27.1304L112.043 39.022L155.934 141.204L156.696 142.98L155.779 144.681L130.019 192.457L156.146 254.43L158.533 260.093L152.389 259.984L111.479 259.254L107.989 259.192L107.578 255.726L97.0381 166.849L79.1729 172.023L71.0195 221.815L70.4121 225.529L66.667 225.148L18.7559 220.271L12.0811 219.591L15.8535 214.042L38.0352 181.417L40.6748 177.533L40.6025 177.139L40.7002 176.481L46.2373 139.129L53.5947 45.064L53.7754 42.7466L55.8789 41.7563L97.1729 22.3247L102.29 19.9165L102.856 25.5435ZM86.043 80.4761L81.4922 136.587L106.476 132.779L101.218 109.281L87.0146 80.0718L86.043 80.4761Z" fill="url(#paint0_linear_472_12523)" stroke="white" stroke-width="8"/>
<mask id="path-2-outside-1_472_12523" maskUnits="userSpaceOnUse" x="381.733" y="219.499" width="486" height="91" fill="black">
<rect fill="white" x="381.733" y="219.499" width="486" height="91"/>
<path d="M490.052 250.463C490.278 250.644 490.572 250.734 490.933 250.734C492.197 250.734 493.01 250.079 493.371 248.77L499.062 227.499H518.368L506.987 270.04C506.4 272.208 505.158 274.037 503.262 275.527C501.41 277.018 499.378 277.763 497.165 277.763H481.72C477.52 277.763 474.088 275.979 471.423 272.411L452.727 239.76C452.366 239.309 451.937 239.083 451.44 239.083C450.175 239.128 449.362 239.783 449.001 241.047L439.179 277.763L401.733 293.056L439.991 231.36C440.262 230.322 440.872 229.418 441.821 228.651C442.814 227.883 443.853 227.499 444.937 227.499H456.52C459.546 227.499 462.007 228.244 463.904 229.734L490.052 250.463Z"/>
<path d="M531.782 254.595C531.15 254.595 530.563 254.844 530.021 255.341C529.524 255.837 529.275 256.402 529.275 257.034C529.275 257.983 529.772 258.457 530.766 258.457H594.646L589.43 277.831H517.827C516.563 277.831 515.501 277.447 514.643 276.679C513.785 275.866 513.356 274.827 513.356 273.563C513.356 273.021 513.424 272.502 513.56 272.005L520.334 246.873C520.605 245.789 521.214 244.886 522.163 244.163C523.111 243.396 524.127 243.012 525.211 243.012H536.862L539.979 231.36C540.25 230.322 540.859 229.418 541.808 228.651C542.756 227.883 543.772 227.499 544.856 227.499H602.91L599.794 239.15H551.427C550.795 239.15 550.207 239.399 549.666 239.896C549.169 240.392 548.92 240.957 548.92 241.589C548.92 242.538 549.417 243.012 550.411 243.012H575.543L572.427 254.595H531.782Z"/>
<path d="M662.928 246.873C662.296 246.873 661.709 247.121 661.167 247.618C660.67 248.115 660.422 248.679 660.422 249.312C660.422 250.26 660.919 250.734 661.912 250.734H675.46C676.725 250.734 677.786 251.141 678.644 251.954C679.502 252.721 679.931 253.737 679.931 255.002C679.931 255.544 679.864 256.063 679.728 256.56L673.97 277.831H654.664L659.812 258.457C659.903 258.095 659.948 257.757 659.948 257.441C659.948 255.544 658.954 254.595 656.967 254.595H618.287C617.203 254.595 616.187 254.979 615.239 255.747C614.29 256.47 613.681 257.373 613.41 258.457L608.193 277.831H596.61L602.774 254.595C603.045 253.512 603.655 252.608 604.603 251.886C605.597 251.118 606.635 250.734 607.719 250.734H615.442C616.074 250.734 616.639 250.486 617.135 249.989C617.677 249.492 617.948 248.928 617.948 248.296C617.948 247.347 617.451 246.873 616.458 246.873H608.735C606.748 246.873 605.755 245.925 605.755 244.028C605.755 243.667 605.8 243.328 605.89 243.012H662.048C663.312 243.012 664.125 242.357 664.486 241.047L668.144 227.499H687.451L683.86 241.047C683.454 242.673 682.528 244.05 681.083 245.179C679.638 246.308 678.102 246.873 676.477 246.873H662.928ZM621.674 227.499L618.558 239.15H606.974L610.09 227.499H621.674Z"/>
<path d="M744.895 256.56L748.485 243.012H767.859L760.611 270.108C760.069 272.231 758.827 274.06 756.885 275.595C754.988 277.086 752.956 277.831 750.788 277.831H686.908C685.644 277.831 684.583 277.447 683.724 276.679C682.866 275.866 682.437 274.827 682.437 273.563C682.437 273.021 682.505 272.502 682.641 272.005L694.631 227.499H706.215L698.424 256.56C698.379 256.741 698.357 256.899 698.357 257.034C698.357 257.983 698.853 258.457 699.847 258.457H742.456C743.766 258.457 744.579 257.824 744.895 256.56ZM752.685 227.499H771.991L768.875 239.15H749.569L752.685 227.499Z"/>
<path d="M846.574 243.012C847.884 243.012 848.945 243.396 849.758 244.163C850.616 244.931 851.045 245.97 851.045 247.279C851.045 247.776 850.977 248.273 850.842 248.77L845.151 270.108C844.609 272.231 843.367 274.06 841.426 275.595C839.529 277.086 837.497 277.831 835.329 277.831H765.623L770.839 258.457H826.997C827.629 258.457 828.193 258.208 828.69 257.712C829.232 257.215 829.503 256.65 829.503 256.018C829.503 255.07 829.006 254.595 828.013 254.595H775.717C773.775 254.595 772.804 253.647 772.804 251.75C772.804 251.434 772.849 251.096 772.939 250.734L778.088 231.36C778.359 230.322 778.968 229.418 779.917 228.651C780.91 227.883 781.949 227.499 783.033 227.499H833.364L830.248 239.15H789.604C788.971 239.15 788.384 239.399 787.842 239.896C787.3 240.392 787.029 240.957 787.029 241.589C787.029 242.538 787.526 243.012 788.52 243.012H846.574ZM837.226 227.499H856.532L853.416 239.15H834.109L837.226 227.499Z"/>
</mask>
<path d="M490.052 250.463C490.278 250.644 490.572 250.734 490.933 250.734C492.197 250.734 493.01 250.079 493.371 248.77L499.062 227.499H518.368L506.987 270.04C506.4 272.208 505.158 274.037 503.262 275.527C501.41 277.018 499.378 277.763 497.165 277.763H481.72C477.52 277.763 474.088 275.979 471.423 272.411L452.727 239.76C452.366 239.309 451.937 239.083 451.44 239.083C450.175 239.128 449.362 239.783 449.001 241.047L439.179 277.763L401.733 293.056L439.991 231.36C440.262 230.322 440.872 229.418 441.821 228.651C442.814 227.883 443.853 227.499 444.937 227.499H456.52C459.546 227.499 462.007 228.244 463.904 229.734L490.052 250.463Z" fill="url(#paint1_linear_472_12523)"/>
<path d="M531.782 254.595C531.15 254.595 530.563 254.844 530.021 255.341C529.524 255.837 529.275 256.402 529.275 257.034C529.275 257.983 529.772 258.457 530.766 258.457H594.646L589.43 277.831H517.827C516.563 277.831 515.501 277.447 514.643 276.679C513.785 275.866 513.356 274.827 513.356 273.563C513.356 273.021 513.424 272.502 513.56 272.005L520.334 246.873C520.605 245.789 521.214 244.886 522.163 244.163C523.111 243.396 524.127 243.012 525.211 243.012H536.862L539.979 231.36C540.25 230.322 540.859 229.418 541.808 228.651C542.756 227.883 543.772 227.499 544.856 227.499H602.91L599.794 239.15H551.427C550.795 239.15 550.207 239.399 549.666 239.896C549.169 240.392 548.92 240.957 548.92 241.589C548.92 242.538 549.417 243.012 550.411 243.012H575.543L572.427 254.595H531.782Z" fill="url(#paint2_linear_472_12523)"/>
<path d="M662.928 246.873C662.296 246.873 661.709 247.121 661.167 247.618C660.67 248.115 660.422 248.679 660.422 249.312C660.422 250.26 660.919 250.734 661.912 250.734H675.46C676.725 250.734 677.786 251.141 678.644 251.954C679.502 252.721 679.931 253.737 679.931 255.002C679.931 255.544 679.864 256.063 679.728 256.56L673.97 277.831H654.664L659.812 258.457C659.903 258.095 659.948 257.757 659.948 257.441C659.948 255.544 658.954 254.595 656.967 254.595H618.287C617.203 254.595 616.187 254.979 615.239 255.747C614.29 256.47 613.681 257.373 613.41 258.457L608.193 277.831H596.61L602.774 254.595C603.045 253.512 603.655 252.608 604.603 251.886C605.597 251.118 606.635 250.734 607.719 250.734H615.442C616.074 250.734 616.639 250.486 617.135 249.989C617.677 249.492 617.948 248.928 617.948 248.296C617.948 247.347 617.451 246.873 616.458 246.873H608.735C606.748 246.873 605.755 245.925 605.755 244.028C605.755 243.667 605.8 243.328 605.89 243.012H662.048C663.312 243.012 664.125 242.357 664.486 241.047L668.144 227.499H687.451L683.86 241.047C683.454 242.673 682.528 244.05 681.083 245.179C679.638 246.308 678.102 246.873 676.477 246.873H662.928ZM621.674 227.499L618.558 239.15H606.974L610.09 227.499H621.674Z" fill="url(#paint3_linear_472_12523)"/>
<path d="M744.895 256.56L748.485 243.012H767.859L760.611 270.108C760.069 272.231 758.827 274.06 756.885 275.595C754.988 277.086 752.956 277.831 750.788 277.831H686.908C685.644 277.831 684.583 277.447 683.724 276.679C682.866 275.866 682.437 274.827 682.437 273.563C682.437 273.021 682.505 272.502 682.641 272.005L694.631 227.499H706.215L698.424 256.56C698.379 256.741 698.357 256.899 698.357 257.034C698.357 257.983 698.853 258.457 699.847 258.457H742.456C743.766 258.457 744.579 257.824 744.895 256.56ZM752.685 227.499H771.991L768.875 239.15H749.569L752.685 227.499Z" fill="url(#paint4_linear_472_12523)"/>
<path d="M846.574 243.012C847.884 243.012 848.945 243.396 849.758 244.163C850.616 244.931 851.045 245.97 851.045 247.279C851.045 247.776 850.977 248.273 850.842 248.77L845.151 270.108C844.609 272.231 843.367 274.06 841.426 275.595C839.529 277.086 837.497 277.831 835.329 277.831H765.623L770.839 258.457H826.997C827.629 258.457 828.193 258.208 828.69 257.712C829.232 257.215 829.503 256.65 829.503 256.018C829.503 255.07 829.006 254.595 828.013 254.595H775.717C773.775 254.595 772.804 253.647 772.804 251.75C772.804 251.434 772.849 251.096 772.939 250.734L778.088 231.36C778.359 230.322 778.968 229.418 779.917 228.651C780.91 227.883 781.949 227.499 783.033 227.499H833.364L830.248 239.15H789.604C788.971 239.15 788.384 239.399 787.842 239.896C787.3 240.392 787.029 240.957 787.029 241.589C787.029 242.538 787.526 243.012 788.52 243.012H846.574ZM837.226 227.499H856.532L853.416 239.15H834.109L837.226 227.499Z" fill="url(#paint5_linear_472_12523)"/>
<path d="M490.052 250.463C490.278 250.644 490.572 250.734 490.933 250.734C492.197 250.734 493.01 250.079 493.371 248.77L499.062 227.499H518.368L506.987 270.04C506.4 272.208 505.158 274.037 503.262 275.527C501.41 277.018 499.378 277.763 497.165 277.763H481.72C477.52 277.763 474.088 275.979 471.423 272.411L452.727 239.76C452.366 239.309 451.937 239.083 451.44 239.083C450.175 239.128 449.362 239.783 449.001 241.047L439.179 277.763L401.733 293.056L439.991 231.36C440.262 230.322 440.872 229.418 441.821 228.651C442.814 227.883 443.853 227.499 444.937 227.499H456.52C459.546 227.499 462.007 228.244 463.904 229.734L490.052 250.463Z" stroke="white" stroke-width="16" mask="url(#path-2-outside-1_472_12523)"/>
<path d="M531.782 254.595C531.15 254.595 530.563 254.844 530.021 255.341C529.524 255.837 529.275 256.402 529.275 257.034C529.275 257.983 529.772 258.457 530.766 258.457H594.646L589.43 277.831H517.827C516.563 277.831 515.501 277.447 514.643 276.679C513.785 275.866 513.356 274.827 513.356 273.563C513.356 273.021 513.424 272.502 513.56 272.005L520.334 246.873C520.605 245.789 521.214 244.886 522.163 244.163C523.111 243.396 524.127 243.012 525.211 243.012H536.862L539.979 231.36C540.25 230.322 540.859 229.418 541.808 228.651C542.756 227.883 543.772 227.499 544.856 227.499H602.91L599.794 239.15H551.427C550.795 239.15 550.207 239.399 549.666 239.896C549.169 240.392 548.92 240.957 548.92 241.589C548.92 242.538 549.417 243.012 550.411 243.012H575.543L572.427 254.595H531.782Z" stroke="white" stroke-width="16" mask="url(#path-2-outside-1_472_12523)"/>
<path d="M662.928 246.873C662.296 246.873 661.709 247.121 661.167 247.618C660.67 248.115 660.422 248.679 660.422 249.312C660.422 250.26 660.919 250.734 661.912 250.734H675.46C676.725 250.734 677.786 251.141 678.644 251.954C679.502 252.721 679.931 253.737 679.931 255.002C679.931 255.544 679.864 256.063 679.728 256.56L673.97 277.831H654.664L659.812 258.457C659.903 258.095 659.948 257.757 659.948 257.441C659.948 255.544 658.954 254.595 656.967 254.595H618.287C617.203 254.595 616.187 254.979 615.239 255.747C614.29 256.47 613.681 257.373 613.41 258.457L608.193 277.831H596.61L602.774 254.595C603.045 253.512 603.655 252.608 604.603 251.886C605.597 251.118 606.635 250.734 607.719 250.734H615.442C616.074 250.734 616.639 250.486 617.135 249.989C617.677 249.492 617.948 248.928 617.948 248.296C617.948 247.347 617.451 246.873 616.458 246.873H608.735C606.748 246.873 605.755 245.925 605.755 244.028C605.755 243.667 605.8 243.328 605.89 243.012H662.048C663.312 243.012 664.125 242.357 664.486 241.047L668.144 227.499H687.451L683.86 241.047C683.454 242.673 682.528 244.05 681.083 245.179C679.638 246.308 678.102 246.873 676.477 246.873H662.928ZM621.674 227.499L618.558 239.15H606.974L610.09 227.499H621.674Z" stroke="white" stroke-width="16" mask="url(#path-2-outside-1_472_12523)"/>
<path d="M744.895 256.56L748.485 243.012H767.859L760.611 270.108C760.069 272.231 758.827 274.06 756.885 275.595C754.988 277.086 752.956 277.831 750.788 277.831H686.908C685.644 277.831 684.583 277.447 683.724 276.679C682.866 275.866 682.437 274.827 682.437 273.563C682.437 273.021 682.505 272.502 682.641 272.005L694.631 227.499H706.215L698.424 256.56C698.379 256.741 698.357 256.899 698.357 257.034C698.357 257.983 698.853 258.457 699.847 258.457H742.456C743.766 258.457 744.579 257.824 744.895 256.56ZM752.685 227.499H771.991L768.875 239.15H749.569L752.685 227.499Z" stroke="white" stroke-width="16" mask="url(#path-2-outside-1_472_12523)"/>
<path d="M846.574 243.012C847.884 243.012 848.945 243.396 849.758 244.163C850.616 244.931 851.045 245.97 851.045 247.279C851.045 247.776 850.977 248.273 850.842 248.77L845.151 270.108C844.609 272.231 843.367 274.06 841.426 275.595C839.529 277.086 837.497 277.831 835.329 277.831H765.623L770.839 258.457H826.997C827.629 258.457 828.193 258.208 828.69 257.712C829.232 257.215 829.503 256.65 829.503 256.018C829.503 255.07 829.006 254.595 828.013 254.595H775.717C773.775 254.595 772.804 253.647 772.804 251.75C772.804 251.434 772.849 251.096 772.939 250.734L778.088 231.36C778.359 230.322 778.968 229.418 779.917 228.651C780.91 227.883 781.949 227.499 783.033 227.499H833.364L830.248 239.15H789.604C788.971 239.15 788.384 239.399 787.842 239.896C787.3 240.392 787.029 240.957 787.029 241.589C787.029 242.538 787.526 243.012 788.52 243.012H846.574ZM837.226 227.499H856.532L853.416 239.15H834.109L837.226 227.499Z" stroke="white" stroke-width="16" mask="url(#path-2-outside-1_472_12523)"/>
<path d="M683.562 45.6211L683.638 45.623C689.893 45.8374 695.761 46.5568 701.231 47.7949C709.193 49.3062 715.585 52.3386 719.679 57.3838C723.852 62.5264 725.119 69.1107 724.112 76.5586L721.491 96.6387L721.482 96.7109L721.47 96.7822L720.526 102.412L719.834 106.538L715.743 105.661L695.738 101.374L692.115 100.597L692.612 96.9258C693.52 90.2225 694.003 85.1076 694.092 81.5137C694.137 79.7081 694.078 78.4066 693.96 77.5342C693.913 77.1895 693.864 76.9762 693.834 76.8613C693.114 76.011 692.07 75.3535 690.441 75C688.618 74.6043 686.885 74.6274 685.194 75.0439C685.069 75.1881 684.771 75.5786 684.367 76.4727C683.622 78.1237 682.867 80.7315 682.18 84.4697C681.464 88.3628 680.858 91.417 680.43 93.5029C680.215 94.5458 680.045 95.3466 679.928 95.8896C679.893 96.049 679.864 96.1862 679.839 96.3008C679.827 101.571 681.341 103.214 682.617 103.796C685.808 105.15 690.777 106.527 697.699 107.874C707.021 108.983 714.345 110.953 718.845 114.295C721.219 116.059 723.017 118.364 723.669 121.27C724.274 123.968 723.775 126.672 722.645 129.218C719.616 144.99 714.015 157.108 705.391 164.932C696.549 172.952 685.063 175.985 671.476 174.505L671.361 174.492L671.248 174.473L664.783 173.389C657.524 172.444 651.051 172.849 645.675 172.97C643.106 173.028 640.513 173.029 638.384 172.626C636.3 172.231 633.468 171.214 632.188 168.224L632.185 168.217L632.182 168.209C631.249 166.007 629.348 161.527 627.802 157.134C627.031 154.944 626.315 152.684 625.854 150.687C625.623 149.689 625.437 148.68 625.352 147.731C625.272 146.849 625.247 145.704 625.554 144.587L625.794 143.708L626.392 143.021L644.071 122.672L647.144 119.136L650.155 122.725L657.831 131.871L672.262 134.891L684.878 137.53L672.984 142.497L665.891 145.459C668.77 145.556 671.649 145.77 673.948 146.282C677.901 147.162 680.355 146.266 682.195 144.181C683.974 142.164 685.507 138.658 686.452 133.202C674.863 131.021 665.799 128.144 659.545 124.415C652.607 120.278 648.398 114.555 649.263 107.248C649.167 94.0261 650.118 80.3468 652.112 66.2139L652.12 66.1631L652.128 66.1113L653.377 58.666C654.247 53.48 658.218 50.2158 663.282 48.3379C668.3 46.4773 675.13 45.6489 683.487 45.6211H683.562Z" fill="url(#paint6_linear_472_12523)" stroke="white" stroke-width="8"/>
<path d="M554.022 52.3962L627.566 71.0645L629.087 71.451L629.94 72.7672L646.779 98.7599L647.982 100.618L647.047 102.625L631.918 135.086L631.218 136.587L629.663 137.154L614.271 142.767L625.893 154.315L626.808 155.225L627.019 156.5L629.766 173.098L687.596 175.377L694.908 175.664L690.718 181.664L675.729 203.126L674.535 204.836L672.449 204.836L593.75 204.837L588.942 204.837L589.817 200.108L594.08 177.069L593.885 158.704L576.452 156.963L565.523 204.962L564.804 208.122L561.563 208.074L524 207.51L518.833 207.432L520.203 202.45L550.558 91.9795L549.042 56.4439L548.812 51.0737L554.022 52.3962ZM594.498 86.8155L596.192 89.5971L593.811 91.8197L580.396 104.337L586.97 101.353L594.909 97.7474L592.463 106.117L586.499 126.522L602.63 124.152L613.65 101.135L604.734 86.0965L593.71 85.52L594.498 86.8155Z" fill="url(#paint7_linear_472_12523)" stroke="white" stroke-width="8"/>
<path d="M549.143 68.9702L549.305 90.8515L549.331 94.5001L545.7 94.8612L486.231 100.777L485.204 130.712L499.149 126.472L507.073 124.063L504.522 130.528L505.067 130.115L510.568 125.94L511.452 132.789L514.715 158.064L515.288 162.492L510.823 162.576L486.065 163.037L482.974 175.812L502.448 176.677L502.924 176.698L503.382 176.83L520.382 181.749L524.446 182.924L523.044 186.916L516.852 204.556L515.913 207.23L513.077 207.23L432.274 207.23L425.906 207.23L428.671 201.493L453.93 149.077L451.24 118.994L451.228 118.861L451.225 118.728L450.227 74.796L450.141 70.954L453.976 70.7128L544.892 65.0071L549.112 64.7424L549.143 68.9702Z" fill="url(#paint8_linear_472_12523)" stroke="white" stroke-width="8"/>
<path d="M817.31 67.8548L817.472 89.7361L817.499 93.3846L813.868 93.7458L754.399 99.6614L753.347 130.325L773.696 127.029L776.514 126.573L777.862 129.089L787.642 147.357L788.743 149.413L787.496 151.384L782.297 159.6L781.145 161.419L778.99 161.46L754.232 161.921L751.142 174.696L770.615 175.561L771.092 175.582L771.55 175.714L788.55 180.634L792.622 181.812L791.209 185.809L785.501 201.955L784.567 204.597L781.765 204.621L685.676 205.456L678.091 205.522L682.321 199.226L688.748 189.656L689.815 188.068L691.719 187.901L692.642 187.82L690.098 187.597L694.441 181.835L721.889 145.423L721.891 115.425L721.891 115.206L721.914 114.986L726.531 73.2435L726.898 69.9263L730.228 69.6926L813.032 63.8941L817.279 63.5967L817.31 67.8548Z" fill="url(#paint9_linear_472_12523)" stroke="white" stroke-width="8"/>
<mask id="path-7-outside-2_472_12523" maskUnits="userSpaceOnUse" x="287.38" y="29.3276" width="172" height="277" fill="black">
<rect fill="white" x="287.38" y="29.3276" width="172" height="277"/>
<path d="M346.766 45.3159L352.193 59.4214L380.674 166.471L376.05 215.774L415.77 143.236L408.34 69.7192L442.9 68.6704L445.431 121.292L450.607 149.961L376.05 285.794L361.621 244.359L336.98 178.029C337.959 176.227 339.023 174.553 340.173 173.096C346.128 165.548 359.239 157.665 359.239 157.665C359.2 157.651 346.235 153.023 340.173 146.981C332.182 139.016 328.13 120.565 328.109 120.47C328.091 120.553 326.06 129.782 322.053 137.999L305.277 95.3237L297.38 39.3276L346.766 45.3159ZM349.856 174.015C349.847 174.06 348.939 178.17 347.156 179.948C345.797 181.302 342.89 182.338 342.89 182.338C342.907 182.349 345.828 184.107 347.156 185.792C349.002 188.131 349.856 192.964 349.856 192.964C349.856 192.964 350.71 188.131 352.556 185.792C353.888 184.102 356.822 182.338 356.822 182.338C356.822 182.338 353.914 181.302 352.556 179.948C350.775 178.173 349.869 174.071 349.856 174.015Z"/>
</mask>
<path d="M346.766 45.3159L352.193 59.4214L380.674 166.471L376.05 215.774L415.77 143.236L408.34 69.7192L442.9 68.6704L445.431 121.292L450.607 149.961L376.05 285.794L361.621 244.359L336.98 178.029C337.959 176.227 339.023 174.553 340.173 173.096C346.128 165.548 359.239 157.665 359.239 157.665C359.2 157.651 346.235 153.023 340.173 146.981C332.182 139.016 328.13 120.565 328.109 120.47C328.091 120.553 326.06 129.782 322.053 137.999L305.277 95.3237L297.38 39.3276L346.766 45.3159ZM349.856 174.015C349.847 174.06 348.939 178.17 347.156 179.948C345.797 181.302 342.89 182.338 342.89 182.338C342.907 182.349 345.828 184.107 347.156 185.792C349.002 188.131 349.856 192.964 349.856 192.964C349.856 192.964 350.71 188.131 352.556 185.792C353.888 184.102 356.822 182.338 356.822 182.338C356.822 182.338 353.914 181.302 352.556 179.948C350.775 178.173 349.869 174.071 349.856 174.015Z" fill="url(#paint10_linear_472_12523)"/>
<path d="M346.766 45.3159L354.232 42.4429L352.504 37.9532L347.729 37.3741L346.766 45.3159ZM352.193 59.4214L359.924 57.3645L359.814 56.9494L359.66 56.5484L352.193 59.4214ZM380.674 166.471L388.639 167.218L388.772 165.795L388.405 164.414L380.674 166.471ZM376.05 215.774L368.085 215.027L383.067 219.616L376.05 215.774ZM415.77 143.236L422.786 147.078L423.979 144.901L423.729 142.431L415.77 143.236ZM408.34 69.7192L408.097 61.7229L399.517 61.9833L400.38 70.5236L408.34 69.7192ZM442.9 68.6704L450.891 68.2862L450.514 60.4357L442.658 60.6741L442.9 68.6704ZM445.431 121.292L437.44 121.676L437.465 122.198L437.558 122.713L445.431 121.292ZM450.607 149.961L457.62 153.811L458.983 151.328L458.48 148.54L450.607 149.961ZM376.05 285.794L368.495 288.425L374.409 305.41L383.063 289.644L376.05 285.794ZM361.621 244.359L369.176 241.728L369.149 241.65L369.12 241.573L361.621 244.359ZM336.98 178.029L329.951 174.209L328.215 177.405L329.481 180.815L336.98 178.029ZM340.173 173.096L333.892 168.141L333.892 168.141L340.173 173.096ZM359.239 157.665L363.361 164.521L377.851 155.809L361.927 150.129L359.239 157.665ZM340.173 146.981L334.525 152.647L334.525 152.647L340.173 146.981ZM328.109 120.47L335.924 118.758L320.295 118.757L328.109 120.47ZM322.053 137.999L314.607 140.925L321.266 157.864L329.243 141.505L322.053 137.999ZM305.277 95.3237L297.356 96.441L297.487 97.3738L297.832 98.2505L305.277 95.3237ZM297.38 39.3276L298.343 31.3858L288.004 30.1321L289.458 40.4449L297.38 39.3276ZM349.856 174.015L357.67 172.298L342.043 172.299L349.856 174.015ZM347.156 179.948L352.803 185.615L352.804 185.614L347.156 179.948ZM342.89 182.338L340.203 174.803L324.281 180.479L338.765 189.193L342.89 182.338ZM347.156 185.792L353.437 180.837L353.437 180.836L347.156 185.792ZM349.856 192.964L341.979 194.357L357.735 194.356L349.856 192.964ZM352.556 185.792L346.275 180.836L346.275 180.837L352.556 185.792ZM356.822 182.338L360.944 189.195L375.438 180.481L359.508 174.803L356.822 182.338ZM352.556 179.948L346.908 185.614L346.909 185.614L352.556 179.948ZM346.766 45.3159L339.299 48.1889L344.727 62.2944L352.193 59.4214L359.66 56.5484L354.232 42.4429L346.766 45.3159ZM352.193 59.4214L344.462 61.4782L372.943 168.528L380.674 166.471L388.405 164.414L359.924 57.3645L352.193 59.4214ZM380.674 166.471L372.709 165.724L368.085 215.027L376.05 215.774L384.015 216.521L388.639 167.218L380.674 166.471ZM376.05 215.774L383.067 219.616L422.786 147.078L415.77 143.236L408.753 139.394L369.033 211.932L376.05 215.774ZM415.77 143.236L423.729 142.431L416.299 68.9148L408.34 69.7192L400.38 70.5236L407.81 144.04L415.77 143.236ZM408.34 69.7192L408.583 77.7156L443.143 76.6667L442.9 68.6704L442.658 60.6741L408.097 61.7229L408.34 69.7192ZM442.9 68.6704L434.91 69.0546L437.44 121.676L445.431 121.292L453.421 120.907L450.891 68.2862L442.9 68.6704ZM445.431 121.292L437.558 122.713L442.735 151.383L450.607 149.961L458.48 148.54L453.303 119.87L445.431 121.292ZM450.607 149.961L443.594 146.112L369.037 281.945L376.05 285.794L383.063 289.644L457.62 153.811L450.607 149.961ZM376.05 285.794L383.605 283.164L369.176 241.728L361.621 244.359L354.066 246.99L368.495 288.425L376.05 285.794ZM361.621 244.359L369.12 241.573L344.48 175.243L336.98 178.029L329.481 180.815L354.122 247.145L361.621 244.359ZM336.98 178.029L344.01 181.849C344.829 180.341 345.651 179.069 346.454 178.051L340.173 173.096L333.892 168.141C332.396 170.038 331.09 172.114 329.951 174.209L336.98 178.029ZM340.173 173.096L346.454 178.051C348.709 175.192 352.714 171.868 356.633 169.028C358.507 167.67 360.213 166.528 361.449 165.728C362.064 165.328 362.558 165.018 362.89 164.811C363.057 164.707 363.182 164.63 363.262 164.581C363.303 164.556 363.331 164.539 363.348 164.529C363.356 164.524 363.362 164.521 363.364 164.519C363.365 164.519 363.365 164.518 363.365 164.519C363.365 164.519 363.364 164.519 363.364 164.519C363.364 164.519 363.363 164.52 363.363 164.52C363.362 164.52 363.361 164.521 359.239 157.665C355.117 150.808 355.116 150.809 355.115 150.809C355.115 150.81 355.114 150.81 355.113 150.811C355.112 150.811 355.11 150.812 355.109 150.813C355.105 150.816 355.101 150.818 355.095 150.821C355.085 150.828 355.072 150.836 355.055 150.846C355.022 150.866 354.976 150.894 354.919 150.929C354.804 150.999 354.642 151.099 354.438 151.225C354.03 151.479 353.453 151.843 352.746 152.301C351.337 153.214 349.394 154.515 347.245 156.071C343.12 159.06 337.592 163.452 333.892 168.141L340.173 173.096ZM359.239 157.665L361.927 150.129C362.042 150.171 359.074 149.115 355.415 147.366C351.545 145.516 347.836 143.324 345.82 141.315L340.173 146.981L334.525 152.647C338.572 156.68 344.376 159.823 348.515 161.801C352.863 163.88 356.397 165.145 356.552 165.2L359.239 157.665ZM340.173 146.981L345.82 141.315C343.175 138.678 340.646 133.551 338.683 128.075C336.831 122.907 335.898 118.639 335.924 118.758L328.109 120.47L320.295 122.182C320.341 122.396 321.445 127.401 323.621 133.473C325.687 139.238 329.18 147.319 334.525 152.647L340.173 146.981ZM328.109 120.47L320.295 118.757C320.302 118.727 318.43 127.176 314.862 134.492L322.053 137.999L329.243 141.505C333.689 132.388 335.881 122.38 335.924 122.183L328.109 120.47ZM322.053 137.999L329.498 135.072L312.723 92.397L305.277 95.3237L297.832 98.2505L314.607 140.925L322.053 137.999ZM305.277 95.3237L313.199 94.2065L305.301 38.2104L297.38 39.3276L289.458 40.4449L297.356 96.441L305.277 95.3237ZM297.38 39.3276L296.417 47.2695L345.803 53.2577L346.766 45.3159L347.729 37.3741L298.343 31.3858L297.38 39.3276ZM349.856 174.015L342.043 172.299C342.075 172.154 341.931 172.824 341.642 173.627C341.499 174.025 341.363 174.337 341.255 174.541C341.205 174.636 341.185 174.661 341.205 174.633C341.221 174.61 341.316 174.474 341.509 174.282L347.156 179.948L352.804 185.614C355.042 183.383 356.197 180.438 356.7 179.036C357.314 177.328 357.629 175.921 357.67 175.731L349.856 174.015ZM347.156 179.948L341.509 174.281C341.762 174.029 341.882 173.981 341.7 174.094C341.555 174.184 341.338 174.302 341.065 174.432C340.802 174.558 340.555 174.663 340.377 174.734C340.29 174.769 340.227 174.794 340.194 174.806C340.178 174.812 340.17 174.815 340.171 174.814C340.172 174.814 340.175 174.813 340.18 174.811C340.183 174.81 340.186 174.809 340.19 174.808C340.192 174.807 340.194 174.806 340.196 174.805C340.197 174.805 340.198 174.805 340.2 174.804C340.2 174.804 340.201 174.804 340.202 174.804C340.202 174.803 340.203 174.803 342.89 182.338C345.576 189.874 345.577 189.874 345.578 189.873C345.578 189.873 345.579 189.873 345.58 189.872C345.581 189.872 345.583 189.871 345.584 189.871C345.587 189.87 345.59 189.869 345.594 189.868C345.601 189.865 345.608 189.862 345.616 189.859C345.633 189.854 345.652 189.846 345.674 189.838C345.719 189.822 345.774 189.801 345.84 189.777C345.972 189.727 346.146 189.66 346.354 189.576C346.763 189.411 347.328 189.172 347.962 188.87C348.992 188.377 351.108 187.304 352.803 185.615L347.156 179.948ZM342.89 182.338L338.765 189.193C338.67 189.136 339.192 189.448 339.835 189.914C340.154 190.145 340.444 190.372 340.674 190.573C340.932 190.798 340.965 190.859 340.876 190.747L347.156 185.792L353.437 180.836C352.052 179.081 350.23 177.688 349.227 176.961C348.073 176.124 347.126 175.551 347.014 175.483L342.89 182.338ZM347.156 185.792L340.875 190.746C340.748 190.585 340.826 190.642 341.019 191.086C341.191 191.483 341.366 191.981 341.528 192.526C341.685 193.06 341.806 193.553 341.885 193.91C341.924 194.086 341.952 194.22 341.967 194.301C341.975 194.34 341.98 194.366 341.982 194.377C341.983 194.382 341.983 194.383 341.983 194.38C341.982 194.378 341.982 194.375 341.981 194.372C341.981 194.37 341.981 194.368 341.98 194.365C341.98 194.364 341.98 194.363 341.979 194.362C341.979 194.361 341.979 194.36 341.979 194.36C341.979 194.358 341.979 194.357 349.856 192.964C357.734 191.571 357.734 191.57 357.734 191.569C357.734 191.569 357.734 191.567 357.733 191.567C357.733 191.565 357.733 191.563 357.732 191.562C357.732 191.558 357.731 191.554 357.73 191.55C357.729 191.542 357.727 191.532 357.725 191.521C357.721 191.5 357.716 191.473 357.711 191.442C357.699 191.381 357.684 191.3 357.665 191.204C357.627 191.011 357.573 190.749 357.503 190.435C357.365 189.813 357.156 188.952 356.869 187.984C356.384 186.344 355.367 183.283 353.437 180.837L347.156 185.792ZM349.856 192.964C357.735 194.356 357.734 194.357 357.734 194.358C357.734 194.358 357.734 194.359 357.734 194.36C357.734 194.361 357.733 194.363 357.733 194.364C357.733 194.366 357.732 194.368 357.732 194.37C357.731 194.374 357.731 194.377 357.731 194.378C357.73 194.381 357.73 194.38 357.731 194.375C357.733 194.365 357.738 194.339 357.746 194.299C357.762 194.219 357.789 194.084 357.828 193.909C357.907 193.551 358.027 193.058 358.185 192.525C358.347 191.98 358.521 191.482 358.694 191.085C358.886 190.641 358.964 190.585 358.837 190.746L352.556 185.792L346.275 180.837C344.345 183.283 343.328 186.345 342.843 187.985C342.556 188.953 342.348 189.814 342.209 190.436C342.139 190.751 342.086 191.012 342.048 191.205C342.029 191.302 342.013 191.382 342.002 191.444C341.996 191.475 341.991 191.501 341.987 191.523C341.985 191.534 341.984 191.543 341.982 191.551C341.981 191.556 341.981 191.56 341.98 191.563C341.98 191.565 341.98 191.567 341.979 191.568C341.979 191.569 341.979 191.57 341.979 191.571C341.979 191.572 341.978 191.573 349.856 192.964ZM352.556 185.792L358.836 190.747C358.781 190.817 359.086 190.487 359.883 189.91C360.195 189.683 360.485 189.489 360.694 189.354C360.797 189.287 360.874 189.238 360.92 189.21C360.942 189.196 360.956 189.187 360.961 189.185C360.963 189.183 360.963 189.183 360.96 189.185C360.959 189.186 360.957 189.187 360.954 189.189C360.953 189.189 360.952 189.19 360.95 189.191C360.949 189.192 360.948 189.192 360.947 189.193C360.947 189.193 360.946 189.194 360.946 189.194C360.945 189.194 360.944 189.195 356.822 182.338C352.7 175.482 352.699 175.483 352.699 175.483C352.698 175.483 352.698 175.484 352.697 175.484C352.696 175.485 352.695 175.485 352.694 175.486C352.691 175.488 352.689 175.489 352.686 175.491C352.68 175.494 352.674 175.498 352.667 175.502C352.653 175.51 352.637 175.521 352.617 175.533C352.578 175.556 352.528 175.587 352.467 175.625C352.347 175.7 352.185 175.802 351.992 175.927C351.609 176.175 351.082 176.528 350.495 176.953C349.492 177.68 347.663 179.077 346.275 180.836L352.556 185.792ZM356.822 182.338C359.508 174.803 359.509 174.803 359.51 174.803C359.511 174.804 359.512 174.804 359.512 174.804C359.513 174.805 359.515 174.805 359.516 174.805C359.518 174.806 359.52 174.807 359.522 174.808C359.526 174.809 359.529 174.81 359.532 174.811C359.537 174.813 359.54 174.814 359.541 174.814C359.542 174.815 359.534 174.812 359.518 174.806C359.485 174.794 359.422 174.769 359.335 174.734C359.157 174.663 358.91 174.558 358.647 174.432C358.374 174.302 358.157 174.184 358.012 174.094C357.83 173.981 357.95 174.029 358.203 174.281L352.556 179.948L346.909 185.614C348.604 187.304 350.72 188.377 351.75 188.87C352.384 189.172 352.949 189.411 353.358 189.576C353.566 189.66 353.74 189.727 353.872 189.777C353.938 189.801 353.993 189.822 354.038 189.838C354.06 189.846 354.079 189.854 354.096 189.859C354.104 189.862 354.112 189.865 354.118 189.868C354.122 189.869 354.125 189.87 354.128 189.871C354.129 189.871 354.131 189.872 354.132 189.873C354.133 189.873 354.134 189.873 354.134 189.873C354.135 189.874 354.136 189.874 356.822 182.338ZM352.556 179.948L358.203 174.282C358.396 174.474 358.491 174.61 358.508 174.633C358.527 174.662 358.508 174.637 358.458 174.542C358.35 174.339 358.214 174.029 358.072 173.632C357.784 172.83 357.64 172.16 357.67 172.298L349.856 174.015L342.043 175.733C342.085 175.926 342.401 177.335 343.014 179.042C343.518 180.443 344.671 183.385 346.908 185.614L352.556 179.948Z" fill="white" mask="url(#path-7-outside-2_472_12523)"/>
<path d="M180.774 59.9573L197 83.2805L197.183 83.5436L197.321 83.8322L214.293 119.138L214.522 119.614L214.62 120.134L218.508 140.876L226.056 119.87L213.861 67.3851L212.869 63.1158L217.211 62.5173L239.834 59.4005L243.868 58.8444L244.352 62.8868L252.695 132.54L252.823 133.609L252.397 134.598L233.464 178.557L228.698 200.915L228.035 204.027L224.854 204.08L201.669 204.472L197.515 204.542L197.602 200.388L198.717 147.479L189.525 126.591L174.426 189.189L173.674 192.308L133.966 191.6L136.717 185.959L156.391 145.625L137.869 88.2381L134.044 76.3868L141.13 81.6302L137.067 76.4085L133.53 71.8623L139.025 70.1357L176.29 58.426L179.095 57.5452L180.774 59.9573Z" fill="url(#paint11_linear_472_12523)" stroke="white" stroke-width="8"/>
<mask id="path-10-outside-3_472_12523" maskUnits="userSpaceOnUse" x="239.962" y="54.4956" width="102" height="153" fill="black">
<rect fill="white" x="239.962" y="54.4956" width="102" height="153"/>
<path d="M294.512 97.3501L313.325 143.566L314.886 148.221C308.441 153.676 297.131 157.71 297.125 157.712C297.125 157.712 310.237 165.595 316.191 173.144C320.838 179.034 324.077 188.461 326.021 195.57L292.711 198.376V175.79L271.272 167.391L259.226 134.191L254.595 104.14L249.962 73.8853L289.243 64.4956L294.512 97.3501ZM330.636 195.182L330.594 195.185C330.6 195.162 330.607 195.14 330.613 195.117L330.636 195.182ZM294.938 138.323C294.93 138.355 294.348 140.992 293.204 142.132C292.332 143.002 290.464 143.667 290.464 143.667C290.478 143.676 292.352 144.804 293.204 145.884C294.384 147.38 294.933 150.464 294.938 150.49C294.943 150.457 295.492 147.378 296.671 145.884C297.521 144.807 299.384 143.684 299.41 143.667C299.399 143.664 297.541 142.999 296.671 142.132C295.528 140.993 294.946 138.362 294.938 138.323Z"/>
</mask>
<path d="M294.512 97.3501L313.325 143.566L314.886 148.221C308.441 153.676 297.131 157.71 297.125 157.712C297.125 157.712 310.237 165.595 316.191 173.144C320.838 179.034 324.077 188.461 326.021 195.57L292.711 198.376V175.79L271.272 167.391L259.226 134.191L254.595 104.14L249.962 73.8853L289.243 64.4956L294.512 97.3501ZM330.636 195.182L330.594 195.185C330.6 195.162 330.607 195.14 330.613 195.117L330.636 195.182ZM294.938 138.323C294.93 138.355 294.348 140.992 293.204 142.132C292.332 143.002 290.464 143.667 290.464 143.667C290.478 143.676 292.352 144.804 293.204 145.884C294.384 147.38 294.933 150.464 294.938 150.49C294.943 150.457 295.492 147.378 296.671 145.884C297.521 144.807 299.384 143.684 299.41 143.667C299.399 143.664 297.541 142.999 296.671 142.132C295.528 140.993 294.946 138.362 294.938 138.323Z" fill="url(#paint12_linear_472_12523)"/>
<path d="M294.512 97.3501L286.613 98.6168L286.757 99.5196L287.102 100.366L294.512 97.3501ZM313.325 143.566L320.91 141.023L320.83 140.784L320.735 140.55L313.325 143.566ZM314.886 148.221L320.054 154.327L324.195 150.822L322.471 145.678L314.886 148.221ZM297.125 157.712L294.439 150.177L278.51 155.855L293.003 164.569L297.125 157.712ZM316.191 173.144L322.472 168.189L322.472 168.189L316.191 173.144ZM326.021 195.57L326.692 203.542L336.273 202.734L333.737 193.46L326.021 195.57ZM292.711 198.376H284.711V207.079L293.383 206.348L292.711 198.376ZM292.711 175.79H300.711V170.332L295.629 168.341L292.711 175.79ZM271.272 167.391L263.752 170.12L264.986 173.52L268.354 174.84L271.272 167.391ZM259.226 134.191L251.319 135.409L251.438 136.183L251.705 136.92L259.226 134.191ZM254.595 104.14L246.687 105.351L246.688 105.359L254.595 104.14ZM249.962 73.8853L248.102 66.1045L240.939 67.8166L242.054 75.0961L249.962 73.8853ZM289.243 64.4956L297.142 63.2289L295.776 54.7087L287.383 56.7148L289.243 64.4956ZM330.636 195.182L331.193 203.163L341.585 202.438L338.202 192.585L330.636 195.182ZM330.594 195.185L322.884 193.051L319.866 203.953L331.151 203.166L330.594 195.185ZM330.613 195.117L338.18 192.519L329.801 168.112L322.904 192.978L330.613 195.117ZM294.938 138.323L302.751 136.604L287.124 136.606L294.938 138.323ZM293.204 142.132L298.851 147.799L298.852 147.798L293.204 142.132ZM290.464 143.667L287.778 136.132L271.855 141.806L286.339 150.522L290.464 143.667ZM293.204 145.884L299.485 140.93L299.485 140.929L293.204 145.884ZM294.938 150.49L287.06 151.886L302.814 151.888L294.938 150.49ZM296.671 145.884L290.391 140.929L290.39 140.929L296.671 145.884ZM299.41 143.667L303.538 150.52L318.002 141.808L302.099 136.133L299.41 143.667ZM296.671 142.132L291.023 147.798L291.024 147.8L296.671 142.132ZM294.512 97.3501L287.102 100.366L305.916 146.582L313.325 143.566L320.735 140.55L301.921 94.3338L294.512 97.3501ZM313.325 143.566L305.74 146.109L307.301 150.764L314.886 148.221L322.471 145.678L320.91 141.023L313.325 143.566ZM314.886 148.221L309.717 142.115C307.328 144.137 303.672 146.15 300.216 147.758C296.887 149.307 294.31 150.223 294.439 150.177L297.125 157.712L299.811 165.248C299.946 165.2 303.026 164.098 306.965 162.265C310.777 160.492 315.999 157.76 320.054 154.327L314.886 148.221ZM297.125 157.712C293.003 164.569 293.002 164.568 293.001 164.568C293.001 164.568 293.001 164.567 293 164.567C293 164.567 292.999 164.567 292.999 164.566C292.999 164.566 292.999 164.566 293 164.567C293.003 164.568 293.008 164.572 293.016 164.577C293.033 164.587 293.062 164.604 293.102 164.629C293.182 164.678 293.308 164.755 293.474 164.858C293.806 165.065 294.3 165.376 294.916 165.775C296.151 166.576 297.857 167.718 299.731 169.076C303.65 171.915 307.655 175.24 309.911 178.099L316.191 173.144L322.472 168.189C318.773 163.5 313.244 159.108 309.119 156.119C306.971 154.563 305.027 153.262 303.618 152.349C302.911 151.891 302.334 151.527 301.926 151.273C301.722 151.146 301.56 151.047 301.446 150.977C301.388 150.942 301.343 150.914 301.309 150.894C301.293 150.884 301.279 150.875 301.269 150.869C301.264 150.866 301.259 150.863 301.256 150.861C301.254 150.86 301.252 150.859 301.251 150.858C301.25 150.858 301.249 150.857 301.249 150.857C301.248 150.857 301.247 150.856 297.125 157.712ZM316.191 173.144L309.91 178.099C313.468 182.608 316.377 190.63 318.304 197.679L326.021 195.57L333.737 193.46C331.778 186.292 328.208 175.46 322.472 168.189L316.191 173.144ZM326.021 195.57L325.349 187.598L292.039 190.405L292.711 198.376L293.383 206.348L326.692 203.542L326.021 195.57ZM292.711 198.376H300.711V175.79H292.711H284.711V198.376H292.711ZM292.711 175.79L295.629 168.341L274.191 159.942L271.272 167.391L268.354 174.84L289.793 183.238L292.711 175.79ZM271.272 167.391L278.793 164.662L266.746 131.462L259.226 134.191L251.705 136.92L263.752 170.12L271.272 167.391ZM259.226 134.191L267.132 132.972L262.501 102.922L254.595 104.14L246.688 105.359L251.319 135.409L259.226 134.191ZM254.595 104.14L262.503 102.929L257.87 72.6744L249.962 73.8853L242.054 75.0961L246.687 105.351L254.595 104.14ZM249.962 73.8853L251.822 81.666L291.103 72.2764L289.243 64.4956L287.383 56.7148L248.102 66.1045L249.962 73.8853ZM289.243 64.4956L281.344 65.7623L286.613 98.6168L294.512 97.3501L302.411 96.0834L297.142 63.2289L289.243 64.4956ZM330.636 195.182L330.079 187.202L330.037 187.204L330.594 195.185L331.151 203.166L331.193 203.163L330.636 195.182ZM330.594 195.185L338.304 197.319C338.297 197.344 338.292 197.363 338.289 197.372C338.287 197.381 338.285 197.387 338.287 197.379C338.288 197.376 338.293 197.359 338.298 197.34C338.304 197.32 338.312 197.29 338.322 197.255L330.613 195.117L322.904 192.978C322.911 192.954 322.916 192.936 322.919 192.927C322.921 192.92 322.923 192.914 322.92 192.922C322.919 192.927 322.914 192.944 322.908 192.964C322.902 192.984 322.894 193.015 322.884 193.051L330.594 195.185ZM330.613 195.117L323.047 197.714L323.069 197.78L330.636 195.182L338.202 192.585L338.18 192.519L330.613 195.117ZM294.938 138.323L287.124 136.606C287.144 136.512 287.138 136.551 287.106 136.668C287.073 136.79 287.025 136.95 286.968 137.108C286.941 137.184 286.917 137.245 286.898 137.29C286.878 137.336 286.872 137.345 286.883 137.324C286.893 137.305 286.938 137.22 287.028 137.091C287.114 136.966 287.284 136.738 287.557 136.466L293.204 142.132L298.852 147.798C300.77 145.886 301.684 143.469 302.026 142.517C302.478 141.258 302.711 140.222 302.751 140.04L294.938 138.323ZM293.204 142.132L287.557 136.466C287.763 136.26 287.931 136.127 288.021 136.059C288.115 135.988 288.176 135.95 288.192 135.94C288.213 135.927 288.171 135.953 288.059 136.007C287.956 136.056 287.855 136.099 287.781 136.129C287.747 136.142 287.727 136.15 287.723 136.152C287.722 136.152 287.725 136.151 287.734 136.148C287.739 136.146 287.744 136.144 287.752 136.141C287.755 136.14 287.759 136.138 287.764 136.137C287.766 136.136 287.768 136.135 287.771 136.134C287.772 136.134 287.773 136.134 287.774 136.133C287.775 136.133 287.776 136.133 287.776 136.132C287.777 136.132 287.778 136.132 290.464 143.667C293.15 151.203 293.15 151.203 293.151 151.203C293.152 151.202 293.153 151.202 293.154 151.202C293.155 151.201 293.156 151.201 293.158 151.2C293.161 151.199 293.164 151.198 293.167 151.197C293.173 151.195 293.18 151.192 293.187 151.19C293.201 151.185 293.218 151.179 293.236 151.172C293.273 151.159 293.317 151.142 293.368 151.123C293.471 151.084 293.602 151.033 293.757 150.971C294.062 150.848 294.481 150.671 294.955 150.445C295.664 150.106 297.398 149.247 298.851 147.799L293.204 142.132ZM290.464 143.667L286.339 150.522C286.283 150.489 286.325 150.513 286.426 150.578C286.53 150.645 286.673 150.742 286.824 150.851C286.982 150.966 287.097 151.057 287.161 151.114C287.191 151.139 287.186 151.137 287.155 151.106C287.128 151.078 287.041 150.989 286.923 150.839L293.204 145.884L299.485 140.929C298.338 139.475 296.896 138.39 296.214 137.896C295.381 137.292 294.697 136.878 294.589 136.813L290.464 143.667ZM293.204 145.884L286.923 150.839C286.759 150.631 286.671 150.48 286.644 150.432C286.614 150.378 286.614 150.371 286.636 150.423C286.686 150.538 286.76 150.739 286.842 151.015C286.92 151.278 286.982 151.528 287.023 151.712C287.063 151.892 287.075 151.971 287.06 151.886L294.938 150.49L302.815 149.093C302.786 148.929 302.586 147.826 302.181 146.462C301.854 145.359 301.079 142.95 299.485 140.93L293.204 145.884ZM294.938 150.49L302.814 151.888C302.8 151.971 302.813 151.89 302.853 151.71C302.894 151.526 302.955 151.276 303.033 151.013C303.115 150.738 303.189 150.537 303.239 150.422C303.261 150.371 303.261 150.378 303.231 150.432C303.203 150.481 303.116 150.631 302.952 150.839L296.671 145.884L290.39 140.929C288.797 142.948 288.023 145.354 287.696 146.457C287.291 147.82 287.09 148.924 287.061 149.092L294.938 150.49ZM296.671 145.884L302.951 150.84C302.834 150.989 302.748 151.078 302.72 151.105C302.69 151.136 302.685 151.139 302.714 151.113C302.778 151.058 302.891 150.966 303.049 150.852C303.199 150.743 303.342 150.647 303.447 150.579C303.549 150.513 303.592 150.488 303.538 150.52L299.41 143.667L295.283 136.815C295.166 136.885 294.481 137.301 293.65 137.904C292.969 138.398 291.534 139.48 290.391 140.929L296.671 145.884ZM299.41 143.667L302.099 136.133C302.179 136.161 302.164 136.157 302.093 136.129C302.019 136.099 301.917 136.056 301.815 136.007C301.766 135.983 301.727 135.964 301.7 135.949C301.671 135.933 301.667 135.93 301.684 135.941C301.7 135.95 301.761 135.989 301.855 136.06C301.945 136.127 302.112 136.26 302.317 136.465L296.671 142.132L291.024 147.8C292.473 149.243 294.201 150.101 294.91 150.44C295.829 150.88 296.579 151.151 296.721 151.202L299.41 143.667ZM296.671 142.132L302.318 136.466C302.591 136.737 302.761 136.966 302.847 137.091C302.937 137.22 302.982 137.305 302.992 137.323C303.003 137.345 302.997 137.336 302.978 137.29C302.959 137.246 302.935 137.185 302.907 137.109C302.851 136.951 302.803 136.791 302.769 136.669C302.737 136.552 302.731 136.512 302.751 136.604L294.938 138.323L287.124 140.041C287.165 140.227 287.398 141.264 287.851 142.521C288.193 143.474 289.106 145.888 291.023 147.798L296.671 142.132Z" fill="white" mask="url(#path-10-outside-3_472_12523)"/>
<g filter="url(#filter1_i_472_12523)">
<path d="M328.331 194.65C328.331 194.65 325.357 177.822 318.931 169.676C314.291 163.794 304.074 157.651 304.074 157.651C304.074 157.651 314.2 154.042 318.931 149.326C325.174 143.104 328.331 128.668 328.331 128.668V194.65Z" fill="white"/>
<path d="M328.331 128.668C328.331 128.668 331.487 143.105 337.73 149.327C342.461 154.042 352.587 157.652 352.587 157.652C352.587 157.652 342.37 163.794 337.73 169.676C331.304 177.822 328.331 194.65 328.331 194.65V128.668Z" fill="white"/>
</g>
</g>
<defs>
<filter id="filter0_d_472_12523" x="-1.65332" y="-1" width="879" height="329" filterUnits="userSpaceOnUse" color-interpolation-filters="sRGB">
<feFlood flood-opacity="0" result="BackgroundImageFix"/>
<feColorMatrix in="SourceAlpha" type="matrix" values="0 0 0 0 0 0 0 0 0 0 0 0 0 0 0 0 0 0 127 0" result="hardAlpha"/>
<feOffset dy="4"/>
<feGaussianBlur stdDeviation="2.5"/>
<feComposite in2="hardAlpha" operator="out"/>
<feColorMatrix type="matrix" values="0 0 0 0 0 0 0 0 0 0 0 0 0 0 0 0 0 0 0.5 0"/>
<feBlend mode="normal" in2="BackgroundImageFix" result="effect1_dropShadow_472_12523"/>
<feBlend mode="normal" in="SourceGraphic" in2="effect1_dropShadow_472_12523" result="shape"/>
</filter>
<filter id="filter1_i_472_12523" x="304.074" y="128.668" width="48.5127" height="69.3537" filterUnits="userSpaceOnUse" color-interpolation-filters="sRGB">
<feFlood flood-opacity="0" result="BackgroundImageFix"/>
<feBlend mode="normal" in="SourceGraphic" in2="BackgroundImageFix" result="shape"/>
<feColorMatrix in="SourceAlpha" type="matrix" values="0 0 0 0 0 0 0 0 0 0 0 0 0 0 0 0 0 0 127 0" result="hardAlpha"/>
<feOffset dy="3.37224"/>
<feGaussianBlur stdDeviation="4.61075"/>
<feComposite in2="hardAlpha" operator="arithmetic" k2="-1" k3="1"/>
<feColorMatrix type="matrix" values="0 0 0 0 0 0 0 0 0 0 0 0 0 0 0 0 0 0 0.5 0"/>
<feBlend mode="normal" in2="shape" result="effect1_innerShadow_472_12523"/>
</filter>
<linearGradient id="paint0_linear_472_12523" x1="85.8107" y1="30.7881" x2="85.8107" y2="255.984" gradientUnits="userSpaceOnUse">
<stop stop-color="#4001BD"/>
<stop offset="0.25" stop-color="#0C398E"/>
<stop offset="0.5" stop-color="#182D60"/>
<stop offset="1" stop-color="#10173B"/>
</linearGradient>
<linearGradient id="paint1_linear_472_12523" x1="629.837" y1="285.733" x2="629.837" y2="227.499" gradientUnits="userSpaceOnUse">
<stop stop-color="#4001BD"/>
<stop offset="0.25" stop-color="#0C398E"/>
<stop offset="0.5" stop-color="#182D60"/>
<stop offset="1" stop-color="#10173B"/>
</linearGradient>
<linearGradient id="paint2_linear_472_12523" x1="629.837" y1="285.733" x2="629.837" y2="227.499" gradientUnits="userSpaceOnUse">
<stop stop-color="#4001BD"/>
<stop offset="0.25" stop-color="#0C398E"/>
<stop offset="0.5" stop-color="#182D60"/>
<stop offset="1" stop-color="#10173B"/>
</linearGradient>
<linearGradient id="paint3_linear_472_12523" x1="629.837" y1="285.733" x2="629.837" y2="227.499" gradientUnits="userSpaceOnUse">
<stop stop-color="#4001BD"/>
<stop offset="0.25" stop-color="#0C398E"/>
<stop offset="0.5" stop-color="#182D60"/>
<stop offset="1" stop-color="#10173B"/>
</linearGradient>
<linearGradient id="paint4_linear_472_12523" x1="629.837" y1="285.733" x2="629.837" y2="227.499" gradientUnits="userSpaceOnUse">
<stop stop-color="#4001BD"/>
<stop offset="0.25" stop-color="#0C398E"/>
<stop offset="0.5" stop-color="#182D60"/>
<stop offset="1" stop-color="#10173B"/>
</linearGradient>
<linearGradient id="paint5_linear_472_12523" x1="629.837" y1="285.733" x2="629.837" y2="227.499" gradientUnits="userSpaceOnUse">
<stop stop-color="#4001BD"/>
<stop offset="0.25" stop-color="#0C398E"/>
<stop offset="0.5" stop-color="#182D60"/>
<stop offset="1" stop-color="#10173B"/>
</linearGradient>
<linearGradient id="paint6_linear_472_12523" x1="679.028" y1="49.6211" x2="679.028" y2="170.867" gradientUnits="userSpaceOnUse">
<stop stop-color="#4001BD"/>
<stop offset="0.25" stop-color="#0C398E"/>
<stop offset="0.5" stop-color="#182D60"/>
<stop offset="1" stop-color="#10173B"/>
</linearGradient>
<linearGradient id="paint7_linear_472_12523" x1="600.84" y1="57.125" x2="598.207" y2="204.832" gradientUnits="userSpaceOnUse">
<stop stop-color="#4001BD"/>
<stop offset="0.25" stop-color="#0C398E"/>
<stop offset="0.5" stop-color="#182D60"/>
<stop offset="1" stop-color="#10173B"/>
</linearGradient>
<linearGradient id="paint8_linear_472_12523" x1="491.512" y1="68.0435" x2="489.136" y2="201.301" gradientUnits="userSpaceOnUse">
<stop stop-color="#4001BD"/>
<stop offset="0.25" stop-color="#0C398E"/>
<stop offset="0.5" stop-color="#182D60"/>
<stop offset="1" stop-color="#10173B"/>
</linearGradient>
<linearGradient id="paint9_linear_472_12523" x1="750.962" y1="66.7726" x2="748.541" y2="202.577" gradientUnits="userSpaceOnUse">
<stop stop-color="#4001BD"/>
<stop offset="0.25" stop-color="#0C398E"/>
<stop offset="0.5" stop-color="#182D60"/>
<stop offset="1" stop-color="#10173B"/>
</linearGradient>
<linearGradient id="paint10_linear_472_12523" x1="374.955" y1="40.7663" x2="370.414" y2="285.604" gradientUnits="userSpaceOnUse">
<stop stop-color="#0144BD"/>
<stop offset="0.5" stop-color="#182D60"/>
<stop offset="1" stop-color="#10173B"/>
</linearGradient>
<linearGradient id="paint11_linear_472_12523" x1="196.045" y1="62.5724" x2="193.59" y2="200.33" gradientUnits="userSpaceOnUse">
<stop stop-color="#4001BD"/>
<stop offset="0.25" stop-color="#0C398E"/>
<stop offset="0.5" stop-color="#182D60"/>
<stop offset="1" stop-color="#10173B"/>
</linearGradient>
<linearGradient id="paint12_linear_472_12523" x1="292.832" y1="64.5239" x2="290.578" y2="197.699" gradientUnits="userSpaceOnUse">
<stop stop-color="#0144BD"/>
<stop offset="0.5" stop-color="#182D60"/>
<stop offset="1" stop-color="#10173B"/>
</linearGradient>
</defs>
</svg>
