<svg width="180" height="47" viewBox="12.96 7.78 179.37 46" fill="none" xmlns="http://www.w3.org/2000/svg">
<g filter="url(#filter0_d_479_4291)">
<g filter="url(#filter1_i_479_4291)">
<path d="M178.065 7.77716C180.63 7.77726 183.046 9.28041 184.586 11.8349L192.33 24.6825C194.506 28.2937 194.506 33.262 192.329 36.8731L184.586 49.7194L184.287 50.1854C182.847 52.3042 180.77 53.5968 178.544 53.7598L178.066 53.7772H28.8586C26.454 53.7771 24.1808 52.4554 22.6372 50.1854L22.3386 49.7194L14.5944 36.8731C12.4177 33.2619 12.4178 28.2937 14.5944 24.6825L17.6559 19.6022C18.1931 18.5017 18.8148 17.4739 19.5081 16.5297L22.3386 11.8349C23.8785 9.28063 26.2938 7.77731 28.8586 7.77716H178.065Z" fill="url(#paint0_linear_479_4291)"/>
</g>
<g filter="url(#filter2_i_479_4291)">
<path fill-rule="evenodd" clip-rule="evenodd" d="M178.065 7.77716C180.63 7.77718 183.046 9.28034 184.586 11.8349L192.33 24.6825C194.506 28.2937 194.506 33.262 192.329 36.8731L184.586 49.7194L184.287 50.1854C182.847 52.3042 180.77 53.5969 178.544 53.7598L178.066 53.7772H28.8586C26.4539 53.7771 24.1808 52.4554 22.6372 50.1854L22.3386 49.7194L14.5944 36.8731C12.4177 33.2619 12.4178 28.2937 14.5944 24.6825L22.3386 11.8349C23.8784 9.28053 26.2937 7.77731 28.8586 7.77716H178.065ZM33.9236 10.3253C33.9001 10.3395 31.5013 11.7899 30.8601 13.2429C29.9645 15.2729 30.21 18.8148 30.2431 19.0135L30.246 19.0209L30.244 19.0172V19.0209L30.2421 19.0147C30.1444 18.853 28.7904 16.2841 26.9746 15.7811C25.815 15.46 22.7202 16.3518 22.041 16.5558L16.2247 26.2069C14.5925 28.9152 14.5924 32.6404 16.2247 35.3487L23.1707 46.8713C24.1874 47.101 27.2252 47.7371 28.2923 47.3695C30.0831 46.7522 31.8564 43.516 31.9509 43.3415L31.9539 43.334V43.3378L31.9529 43.3415C31.9281 43.5413 31.4605 47.4229 32.4386 49.3934C32.8625 50.2472 33.998 50.8738 34.8332 51.2389H171.904C172.644 51.0239 174.672 50.3527 175.31 49.2571C176.401 47.382 176.163 43.4704 176.15 43.2659V43.2572L176.152 43.2646C176.233 43.4403 177.812 46.8374 179.564 47.6174C180.493 48.0308 182.561 47.4723 183.584 47.1514L190.7 35.3487C192.332 32.6405 192.332 28.9152 190.7 26.2069L183.399 14.0968C182.305 13.7856 180.677 13.4284 179.882 13.782C178.13 14.562 176.551 17.9591 176.47 18.1348L176.468 18.1422C176.468 18.1422 176.468 18.14 176.468 18.1372L176.467 18.1409L176.468 18.1335C176.482 17.929 176.719 14.0174 175.628 12.1423C175.103 11.2389 173.631 10.6247 172.716 10.3154H33.7932C33.8743 10.3207 33.92 10.3252 33.9236 10.3253Z" fill="#00053D"/>
</g>
<path d="M36.0435 12.4575L171.591 12.4575" stroke="url(#paint1_linear_479_4291)" stroke-width="1.09562" stroke-linejoin="bevel"/>
<path d="M170.116 48.877L37.6675 48.877" stroke="url(#paint2_linear_479_4291)" stroke-width="1.09562" stroke-linejoin="bevel"/>
<path d="M182.961 43.4423L188.174 35.4819C190.088 32.5593 190.084 28.7793 188.163 25.8612L183.184 18.2975" stroke="url(#paint3_linear_479_4291)" stroke-width="1.09562" stroke-linejoin="bevel"/>
<path d="M23.8773 42.8473L18.9555 35.6077C16.9292 32.6273 16.9339 28.7103 18.9672 25.7347L22.6671 20.3201" stroke="url(#paint4_linear_479_4291)" stroke-width="1.09562" stroke-linejoin="bevel"/>
<path d="M24.7099 43.0853C24.3672 43.8786 24.0244 44.6718 23.6817 45.4651C23.8085 45.4963 23.9353 45.5276 24.0621 45.5588C25.0511 45.8025 26.0401 46.0462 27.0291 46.2899L27.2704 46.4459L27.7428 46.2114C28.677 45.2624 29.6113 44.3135 30.5455 43.3645C30.6371 43.2715 30.7287 43.1784 30.8203 43.0854C30.7034 43.1434 30.5864 43.2015 30.4695 43.2596C29.2767 43.8517 28.0839 44.4438 26.8911 45.0359L27.6048 44.9574C26.7495 44.4043 25.8941 43.8511 25.0388 43.298C24.9292 43.2271 24.8195 43.1562 24.7099 43.0853Z" fill="url(#paint5_linear_479_4291)"/>
<path d="M36.987 48.1569C36.6165 48.9981 36.246 49.8394 35.8755 50.6806C35.7939 50.5991 35.7123 50.5175 35.6307 50.436C34.9786 49.7842 34.3265 49.1324 33.6744 48.4807L33.5169 48.4185L33.3629 47.9689C33.3259 46.6572 33.289 45.3454 33.252 44.0337C33.2483 43.9026 33.2446 43.7715 33.2409 43.6404C33.282 43.7605 33.323 43.8805 33.3641 44.0005C33.7753 45.2015 34.1864 46.4025 34.5975 47.6035L34.2861 47.0918C35.0863 47.4073 35.8865 47.7229 36.6866 48.0385C36.7868 48.0779 36.8869 48.1174 36.987 48.1569Z" fill="url(#paint6_linear_479_4291)"/>
<path d="M23.6652 20.1617C23.2478 19.4251 22.8304 18.6886 22.4129 17.9521C22.5353 17.9013 22.6578 17.8504 22.7802 17.7996C23.7359 17.4026 24.6917 17.0056 25.6475 16.6086L25.8682 16.418L26.3561 16.5745C27.3806 17.369 28.4052 18.1635 29.4297 18.958C29.5302 19.0359 29.6308 19.1139 29.7313 19.1918C29.6094 19.1527 29.4876 19.1136 29.3657 19.0745C28.1237 18.6761 26.8817 18.2776 25.6397 17.8791L26.3483 17.845C25.5555 18.5296 24.7627 19.2141 23.9699 19.8986C23.8683 19.9863 23.7668 20.074 23.6652 20.1617Z" fill="url(#paint7_linear_479_4291)"/>
<path d="M35.3776 13.1887C34.8942 12.4125 34.4108 11.6363 33.9274 10.8602C33.8558 10.9536 33.7843 11.0471 33.7128 11.1406C33.1384 11.891 32.564 12.6415 31.9896 13.3919L31.853 13.47L31.7515 13.9102C31.8497 15.2278 31.948 16.5455 32.0463 17.8631C32.0561 17.9953 32.066 18.1274 32.0758 18.2596C32.1046 18.1347 32.1334 18.0099 32.1622 17.885C32.4492 16.6403 32.7363 15.3956 33.0233 14.1509L32.7851 14.6691C33.5536 14.2303 34.3221 13.7915 35.0905 13.3526C35.1862 13.298 35.2819 13.2433 35.3776 13.1887Z" fill="url(#paint8_linear_479_4291)"/>
<path d="M182.473 18.0046C182.841 17.1952 183.209 16.3858 183.577 15.5764C183.463 15.5524 183.349 15.5284 183.235 15.5045C182.473 15.3444 181.712 15.1844 180.951 15.0244L180.641 14.816L180.075 15.2137C179.271 16.3519 178.466 17.4901 177.661 18.6284C177.59 18.7289 177.519 18.8294 177.448 18.9299C177.548 18.8596 177.648 18.7893 177.748 18.7191C178.881 17.9232 180.013 17.1274 181.146 16.3316L180.27 16.5209C180.909 16.951 181.548 17.3811 182.186 17.8113C182.282 17.8757 182.378 17.9401 182.473 18.0046Z" fill="url(#paint9_linear_479_4291)"/>
<path d="M172.095 13.5409C172.523 12.7199 172.952 11.8988 173.381 11.0777C173.455 11.1591 173.529 11.2404 173.603 11.3217C174.181 11.9556 174.759 12.5896 175.337 13.2235L175.435 13.265L175.6 13.6271C175.717 14.8886 175.835 16.1501 175.952 17.4117C175.963 17.5353 175.975 17.659 175.986 17.7826C175.986 17.7826 175.986 17.7826 175.986 17.7826C175.938 17.676 175.889 17.5694 175.841 17.4628C175.345 16.3751 174.849 15.2874 174.353 14.1997L174.616 14.6033C173.871 14.2894 173.126 13.9755 172.381 13.6617C172.286 13.6214 172.19 13.5812 172.095 13.5409Z" fill="url(#paint10_linear_479_4291)"/>
<path d="M182.19 43.4955C182.471 44.3326 182.752 45.1697 183.032 46.0068C182.918 46.0176 182.804 46.0283 182.69 46.0391C181.962 46.1076 181.235 46.1761 180.507 46.2445L180.231 46.3897L179.699 46.0351C178.881 44.9085 178.063 43.7819 177.245 42.6553C177.175 42.5584 177.104 42.4616 177.034 42.3648C177.133 42.4308 177.232 42.4968 177.331 42.5629C178.481 43.3311 179.632 44.0994 180.783 44.8677L179.975 44.6582C180.613 44.3233 181.251 43.9883 181.889 43.6533C181.989 43.6007 182.09 43.5481 182.19 43.4955Z" fill="url(#paint11_linear_479_4291)"/>
<path d="M171.317 47.5688C171.578 48.477 171.838 49.3853 172.099 50.2935C172.2 50.2345 172.302 50.1755 172.403 50.1165C173.04 49.7458 173.677 49.3751 174.314 49.0044L174.493 48.983L174.739 48.5778C175.099 47.0297 175.459 45.4817 175.82 43.9336C175.851 43.8015 175.881 43.6694 175.912 43.5373C175.912 43.5373 175.912 43.5373 175.912 43.5373C175.846 43.6464 175.78 43.7554 175.714 43.8644C174.94 45.1423 174.165 46.4202 173.391 47.6981L173.816 47.2715C173.097 47.357 172.379 47.4425 171.66 47.5279C171.546 47.5415 171.431 47.5552 171.317 47.5688Z" fill="url(#paint12_linear_479_4291)"/>
</g>
<defs>
<filter id="filter0_d_479_4291" x="-4.1008e-05" y="-1.23978e-05" width="206.924" height="71.9239" filterUnits="userSpaceOnUse" color-interpolation-filters="sRGB">
<feFlood flood-opacity="0" result="BackgroundImageFix"/>
<feColorMatrix in="SourceAlpha" type="matrix" values="0 0 0 0 0 0 0 0 0 0 0 0 0 0 0 0 0 0 127 0" result="hardAlpha"/>
<feOffset dy="5.18478"/>
<feGaussianBlur stdDeviation="6.48098"/>
<feComposite in2="hardAlpha" operator="out"/>
<feColorMatrix type="matrix" values="0 0 0 0 0 0 0 0 0 0 0 0 0 0 0 0 0 0 0.25 0"/>
<feBlend mode="normal" in2="BackgroundImageFix" result="effect1_dropShadow_479_4291"/>
<feBlend mode="normal" in="SourceGraphic" in2="effect1_dropShadow_479_4291" result="shape"/>
</filter>
<filter id="filter1_i_479_4291" x="12.9619" y="-2.5924" width="181" height="56.3696" filterUnits="userSpaceOnUse" color-interpolation-filters="sRGB">
<feFlood flood-opacity="0" result="BackgroundImageFix"/>
<feBlend mode="normal" in="SourceGraphic" in2="BackgroundImageFix" result="shape"/>
<feColorMatrix in="SourceAlpha" type="matrix" values="0 0 0 0 0 0 0 0 0 0 0 0 0 0 0 0 0 0 127 0" result="hardAlpha"/>
<feOffset dy="-10.3696"/>
<feGaussianBlur stdDeviation="6.48098"/>
<feComposite in2="hardAlpha" operator="arithmetic" k2="-1" k3="1"/>
<feColorMatrix type="matrix" values="0 0 0 0 0 0 0 0 0 0 0 0 0 0 0 0 0 0 0.25 0"/>
<feBlend mode="normal" in2="shape" result="effect1_innerShadow_479_4291"/>
</filter>
<filter id="filter2_i_479_4291" x="12.9619" y="7.77716" width="186.185" height="51.1848" filterUnits="userSpaceOnUse" color-interpolation-filters="sRGB">
<feFlood flood-opacity="0" result="BackgroundImageFix"/>
<feBlend mode="normal" in="SourceGraphic" in2="BackgroundImageFix" result="shape"/>
<feColorMatrix in="SourceAlpha" type="matrix" values="0 0 0 0 0 0 0 0 0 0 0 0 0 0 0 0 0 0 127 0" result="hardAlpha"/>
<feOffset dx="5.18478" dy="5.18478"/>
<feGaussianBlur stdDeviation="2.59239"/>
<feComposite in2="hardAlpha" operator="arithmetic" k2="-1" k3="1"/>
<feColorMatrix type="matrix" values="0 0 0 0 0 0 0 0 0 0 0 0 0 0 0 0 0 0 0.25 0"/>
<feBlend mode="normal" in2="shape" result="effect1_innerShadow_479_4291"/>
</filter>
<linearGradient id="paint0_linear_479_4291" x1="103.462" y1="7.77716" x2="103.462" y2="53.7772" gradientUnits="userSpaceOnUse">
<stop stop-color="#0144BD"/>
<stop offset="1" stop-color="#192871"/>
</linearGradient>
<linearGradient id="paint1_linear_479_4291" x1="171.591" y1="12.9575" x2="36.0435" y2="12.9575" gradientUnits="userSpaceOnUse">
<stop stop-color="#020C7B"/>
<stop offset="0.5" stop-color="#040825"/>
<stop offset="1" stop-color="#000D61"/>
</linearGradient>
<linearGradient id="paint2_linear_479_4291" x1="170.116" y1="49.377" x2="37.6675" y2="49.377" gradientUnits="userSpaceOnUse">
<stop stop-color="#020C7B"/>
<stop offset="0.5" stop-color="#040825"/>
<stop offset="1" stop-color="#000D61"/>
</linearGradient>
<linearGradient id="paint3_linear_479_4291" x1="191.327" y1="30.8699" x2="182.961" y2="30.8699" gradientUnits="userSpaceOnUse">
<stop stop-color="#020C7B"/>
<stop offset="0.5" stop-color="#040825"/>
<stop offset="1" stop-color="#000D61"/>
</linearGradient>
<linearGradient id="paint4_linear_479_4291" x1="23.8773" y1="31.5837" x2="15.5967" y2="31.5837" gradientUnits="userSpaceOnUse">
<stop stop-color="#020C7B"/>
<stop offset="0.5" stop-color="#040825"/>
<stop offset="1" stop-color="#000D61"/>
</linearGradient>
<linearGradient id="paint5_linear_479_4291" x1="30.8203" y1="44.3545" x2="24.1958" y2="44.3545" gradientUnits="userSpaceOnUse">
<stop stop-color="#020C7B"/>
<stop offset="0.5" stop-color="#040825"/>
<stop offset="1" stop-color="#000D61"/>
</linearGradient>
<linearGradient id="paint6_linear_479_4291" x1="32.6107" y1="44.365" x2="37.2885" y2="48.4329" gradientUnits="userSpaceOnUse">
<stop stop-color="#020C7B"/>
<stop offset="0.5" stop-color="#040825"/>
<stop offset="1" stop-color="#000D61"/>
</linearGradient>
<linearGradient id="paint7_linear_479_4291" x1="29.6021" y1="17.9329" x2="22.9933" y2="18.6109" gradientUnits="userSpaceOnUse">
<stop stop-color="#020C7B"/>
<stop offset="0.5" stop-color="#040825"/>
<stop offset="1" stop-color="#000D61"/>
</linearGradient>
<linearGradient id="paint8_linear_479_4291" x1="31.3771" y1="17.6402" x2="35.6056" y2="12.8692" gradientUnits="userSpaceOnUse">
<stop stop-color="#020C7B"/>
<stop offset="0.5" stop-color="#040825"/>
<stop offset="1" stop-color="#000D61"/>
</linearGradient>
<linearGradient id="paint9_linear_479_4291" x1="177.297" y1="17.6748" x2="183.048" y2="16.9821" gradientUnits="userSpaceOnUse">
<stop stop-color="#020C7B"/>
<stop offset="0.5" stop-color="#040825"/>
<stop offset="1" stop-color="#000D61"/>
</linearGradient>
<linearGradient id="paint10_linear_479_4291" x1="176.318" y1="17.4935" x2="172.206" y2="12.7722" gradientUnits="userSpaceOnUse">
<stop stop-color="#020C7B"/>
<stop offset="0.5" stop-color="#040825"/>
<stop offset="1" stop-color="#000D61"/>
</linearGradient>
<linearGradient id="paint11_linear_479_4291" x1="176.901" y1="43.623" x2="182.666" y2="44.2332" gradientUnits="userSpaceOnUse">
<stop stop-color="#020C7B"/>
<stop offset="0.5" stop-color="#040825"/>
<stop offset="1" stop-color="#000D61"/>
</linearGradient>
<linearGradient id="paint12_linear_479_4291" x1="176.315" y1="43.8746" x2="172.215" y2="48.7661" gradientUnits="userSpaceOnUse">
<stop stop-color="#020C7B"/>
<stop offset="0.5" stop-color="#040825"/>
<stop offset="1" stop-color="#000D61"/>
</linearGradient>
</defs>
</svg>
