<svg preserveAspectRatio="none" width="100%" height="100%" overflow="visible" style="display: block;" viewBox="0 0 1257 53.7314" fill="none" xmlns="http://www.w3.org/2000/svg">
<path id="Union" d="M885.817 0.147461H1237.62C1240.74 0.147668 1243.69 1.89513 1245.57 4.86328L1255.01 19.791C1257.66 23.987 1257.66 29.7602 1255.01 33.9561L1245.57 48.8828L1245.2 49.4238C1243.45 51.8856 1240.91 53.3876 1238.2 53.5771L1237.62 53.5977H878.097V53.4502H262.171V53.7314H121.713V53.4502H21.1082C17.9151 53.45 14.897 51.9139 12.8474 49.2764L12.4509 48.7354L2.16774 33.8086C-0.722671 29.6126 -0.722486 23.8397 2.16774 19.6436L6.23219 13.7402C6.94558 12.4616 7.77162 11.2679 8.69215 10.1709L12.4509 4.71484C14.4956 1.7472 17.7026 0.000237532 21.1082 0H885.817V0.147461Z" fill="url(#paint0_linear_0_26)"/>
<defs>
<linearGradient id="paint0_linear_0_26" x1="628.499" y1="0" x2="628.499" y2="53.7314" gradientUnits="userSpaceOnUse">
<stop stop-color="#0144BD"/>
<stop offset="1" stop-color="#192871"/>
</linearGradient>
</defs>
</svg>
