<svg preserveAspectRatio="none" width="100%" height="100%" overflow="visible" style="display: block;" viewBox="0 0 1257 54.0272" fill="none" xmlns="http://www.w3.org/2000/svg">
<g id="Group 37">
<g id="Group 36">
<path id="Union" d="M29.6138 7.02651L821.95 5.75473" stroke="url(#paint0_linear_0_8)" stroke-width="1.09562" stroke-linejoin="bevel"/>
<path id="Union_2" d="M821.95 48.1894L31.7129 47.2659" stroke="url(#paint1_linear_0_8)" stroke-width="1.09562" stroke-linejoin="bevel"/>
<path id="Union_3" d="M13.8852 40.6037L7.53154 32.6165C4.9857 29.4161 4.99133 24.8805 7.54511 21.6865L12.3205 15.7138" stroke="url(#paint2_linear_0_8)" stroke-width="1.09562" stroke-linejoin="bevel"/>
<path id="Vector 11" d="M14.7456 40.9653C14.4463 41.776 14.147 42.5866 13.8477 43.3973C14.0057 43.4326 14.1637 43.4679 14.3217 43.5032C15.5756 43.7835 16.8294 44.0637 18.0833 44.3439L18.3052 44.4616L18.7092 44.2809C19.968 43.2457 21.2268 42.2105 22.4856 41.1752C22.6107 41.0724 22.7357 40.9695 22.8608 40.8667C22.713 40.9328 22.5652 40.9989 22.4174 41.065C20.9296 41.7305 19.4419 42.396 17.9541 43.0615L18.5801 42.9984C17.445 42.3966 16.3099 41.7947 15.1748 41.1929C15.0317 41.1171 14.8887 41.0412 14.7456 40.9653Z" fill="url(#paint3_linear_0_8)"/>
<path id="Vector 12" d="M31.5941 47.5893C30.6076 47.7724 29.6211 47.9556 28.6346 48.1387C28.4879 48.0366 28.3413 47.9345 28.1947 47.8324C27.4372 47.305 26.6797 46.7776 25.9222 46.2502L25.7473 46.0632C25.8223 44.6458 25.8973 43.2284 25.9723 41.811C25.9782 41.7005 25.984 41.5901 25.9898 41.4796C26.0418 41.5899 26.0937 41.7002 26.1456 41.8106C26.8117 43.2261 27.4779 44.6417 28.1441 46.0573L27.9692 45.8703C28.9816 46.3504 29.9939 46.8305 31.0063 47.3105C31.2022 47.4035 31.3982 47.4964 31.5941 47.5893Z" fill="url(#paint4_linear_0_8)"/>
<path id="Vector 11_2" d="M13.7386 15.4081C13.1139 14.6814 12.4893 13.9548 11.8646 13.2281C12.0044 13.1807 12.1441 13.1332 12.2838 13.0858C13.5796 12.6458 14.8753 12.2059 16.171 11.7659L16.3367 11.638L16.7753 11.7843C18.1743 12.5866 19.5734 13.389 20.9724 14.1914C21.1327 14.2833 21.293 14.3752 21.4533 14.4672C21.4533 14.4672 21.4533 14.4672 21.4533 14.4672C21.2828 14.4103 21.1123 14.3535 20.9418 14.2966C19.4539 13.8004 17.9661 13.3041 16.4782 12.8079L17.0825 12.8262C16.0763 13.603 15.0702 14.3799 14.0641 15.1567C13.9556 15.2405 13.8471 15.3243 13.7386 15.4081Z" fill="url(#paint5_linear_0_8)"/>
<path id="Vector 12_2" d="M29.3362 6.69725C28.3229 6.59808 27.3096 6.4989 26.2962 6.39973C26.1703 6.51668 26.0444 6.63364 25.9185 6.75059C25.2318 7.38848 24.5451 8.02637 23.8584 8.66426L23.7224 8.85789C23.9579 10.2718 24.1933 11.6856 24.4288 13.0995C24.4475 13.2122 24.4663 13.3249 24.4851 13.4376C24.5237 13.3203 24.5623 13.2031 24.6009 13.0858C25.085 11.6146 25.5691 10.1434 26.0533 8.67215L25.9173 8.86577C26.8804 8.25493 27.8434 7.64408 28.8065 7.03324C28.983 6.92125 29.1596 6.80925 29.3362 6.69725Z" fill="url(#paint6_linear_0_8)"/>
</g>
<g id="Group 35">
<path id="Union_4" d="M821.951 5.75472L1227.93 5.75472" stroke="url(#paint7_linear_0_8)" stroke-width="1.09562" stroke-linejoin="bevel"/>
<path id="Union_5" d="M1225.83 48.1892L821.951 48.1892" stroke="url(#paint8_linear_0_8)" stroke-width="1.09562" stroke-linejoin="bevel"/>
<path id="Union_6" d="M1244.1 41.8567L1251.61 32.4591C1254.18 29.2527 1254.17 24.6969 1251.6 21.4969L1244.42 12.5591" stroke="url(#paint9_linear_0_8)" stroke-width="1.09562" stroke-linejoin="bevel"/>
<path id="Vector 11_3" d="M1244.08 11.8854C1244.15 11.1641 1244.23 10.4427 1244.31 9.72135C1244.13 9.67586 1243.94 9.63037 1243.75 9.58488C1242.78 9.34728 1241.81 9.10967 1240.84 8.87206L1240.43 8.68925L1239.98 8.9469C1238.83 10.2914 1237.68 11.6359 1236.53 12.9804C1236.44 13.0856 1236.35 13.1909 1236.26 13.2961C1236.26 13.2961 1236.26 13.2961 1236.26 13.2961C1236.39 13.2233 1236.52 13.1505 1236.65 13.0777C1238.28 12.1478 1239.91 11.2179 1241.54 10.2879L1240.68 10.3628C1241.63 10.7888 1242.58 11.2148 1243.53 11.6408C1243.71 11.7223 1243.89 11.8039 1244.08 11.8854Z" fill="url(#paint10_linear_0_8)"/>
<path id="Vector 12_3" d="M1228.17 5.80661C1229.1 5.65704 1230.03 5.50747 1230.96 5.3579C1231.11 5.46378 1231.26 5.56966 1231.41 5.67554C1232.18 6.21546 1232.95 6.75539 1233.72 7.29531L1233.85 7.35939L1233.93 7.51496C1234.01 8.88989 1234.09 10.2648 1234.17 11.6397C1234.17 11.7463 1234.18 11.8529 1234.18 11.9595C1234.18 11.9595 1234.18 11.9595 1234.18 11.9595C1234.12 11.8498 1234.06 11.7402 1233.99 11.6306C1233.18 10.2162 1232.37 8.80188 1231.56 7.38753L1231.78 7.60718C1230.77 7.1054 1229.77 6.60361 1228.76 6.10182C1228.56 6.00342 1228.36 5.90502 1228.17 5.80661Z" fill="url(#paint11_linear_0_8)"/>
<path id="Vector 11_4" d="M1243.64 42.2219C1243.62 42.9953 1243.59 43.7687 1243.57 44.542C1243.39 44.5659 1243.22 44.5897 1243.04 44.6135C1242.1 44.7399 1241.15 44.8662 1240.21 44.9925L1239.89 45.1029L1239.49 44.8827C1238.31 43.5598 1237.13 42.2368 1235.95 40.9139C1235.86 40.8097 1235.77 40.7056 1235.67 40.6014C1235.8 40.6723 1235.93 40.7431 1236.06 40.8139C1237.7 41.7136 1239.34 42.6133 1240.97 43.5129L1240.26 43.4031C1241.21 43.0719 1242.15 42.7407 1243.1 42.4094C1243.28 42.3469 1243.46 42.2844 1243.64 42.2219Z" fill="url(#paint12_linear_0_8)"/>
<path id="Vector 12_4" d="M1227.36 47.7725C1227.85 48.0924 1228.34 48.4123 1228.83 48.7322C1229.09 48.6491 1229.35 48.5659 1229.62 48.4828C1230.42 48.2251 1231.23 47.9673 1232.04 47.7096L1232.57 47.5846L1232.79 47.2768C1233.19 45.6184 1233.59 43.96 1234 42.3016C1234.02 42.1903 1234.05 42.079 1234.08 41.9677C1233.99 42.0811 1233.91 42.1946 1233.83 42.308C1232.59 43.9985 1231.35 45.689 1230.11 47.3794L1230.86 46.9466C1229.98 47.1548 1229.1 47.3629 1228.22 47.5711C1227.93 47.6382 1227.65 47.7053 1227.36 47.7725Z" fill="url(#paint13_linear_0_8)"/>
</g>
<g id="Vector">
<path fill-rule="evenodd" clip-rule="evenodd" d="M882.901 2.9734L1230.89 3.12247C1232.01 3.48473 1233.82 4.2041 1234.47 5.26219C1235.81 7.45846 1235.51 12.0399 1235.5 12.2794L1235.5 12.2881L1235.5 12.2838C1235.5 12.287 1235.5 12.2896 1235.5 12.2896L1235.5 12.2809C1235.6 12.0752 1237.54 8.09624 1239.69 7.18271C1240.67 6.76858 1242.67 7.18689 1244.02 7.55143L1252.99 21.7354C1255 24.9075 1255 29.2708 1252.99 32.4427L1244.24 46.2667C1242.99 46.6426 1240.44 47.2967 1239.3 46.8125C1237.15 45.899 1235.21 41.9201 1235.11 41.7144L1235.11 41.7057V41.7158C1235.12 41.9553 1235.42 46.5368 1234.07 48.733C1233.29 50.0162 1230.8 50.8025 1229.89 51.0542L882.901 51.1212V54.0272H1237.46L1238.05 54.0069C1240.79 53.816 1243.34 52.302 1245.11 49.8203L1245.48 49.2745L1254.99 34.2282C1257.67 29.9987 1257.67 24.1796 1254.99 19.9499L1245.48 4.90218C1243.58 1.91012 1240.61 0.149538 1237.46 0.14951L882.901 0V2.9734Z" fill="#00042E"/>
<path d="M882.901 0V2.88381L409.139 2.97228H26.6842C26.7857 2.97826 26.8438 2.98426 26.8504 2.9846C26.8006 3.01214 23.7456 4.70529 22.927 6.40149C21.7798 8.77898 22.0938 12.9268 22.1362 13.1602L22.1401 13.1692L22.1372 13.1647V13.1692L22.1352 13.1614C22.0095 12.9708 20.2747 9.96386 17.9491 9.37489C16.4636 8.99895 12.4997 10.0432 11.6297 10.282L4.17918 21.5854C2.0885 24.7576 2.08832 29.121 4.17918 32.293L13.0765 45.7892C14.3787 46.0583 18.2695 46.8029 19.6369 46.3727C21.9305 45.6498 24.2018 41.86 24.3236 41.6545L24.3276 41.6455V41.65L24.3266 41.6545C24.2948 41.8885 23.6956 46.4344 24.9482 48.7425C25.4911 49.7424 26.9461 50.4763 28.016 50.9039H409.139V53.8773H20.3628C17.2827 53.8772 14.3712 52.3294 12.3939 49.6709L12.0113 49.1244L2.09107 34.0782C-0.697098 29.8486 -0.696948 24.0299 2.09107 19.8003L12.0113 4.75184C13.9838 1.76034 17.0775 0.000183222 20.3628 0H882.901Z" fill="var(--fill-0, #00042E)"/>
<path d="M409.139 50.9039L882.901 51.1212V54.0272L409.139 53.8773V50.9039Z" fill="var(--fill-0, #00042E)"/>
</g>
</g>
<defs>
<linearGradient id="paint0_linear_0_8" x1="1772.74" y1="6.32842" x2="100.183" y2="6.32838" gradientUnits="userSpaceOnUse">
<stop stop-color="#020C7B"/>
<stop offset="0.5" stop-color="#040825"/>
<stop offset="1" stop-color="#000D61"/>
</linearGradient>
<linearGradient id="paint1_linear_0_8" x1="1771.83" y1="48.763" x2="107.201" y2="48.763" gradientUnits="userSpaceOnUse">
<stop stop-color="#020C7B"/>
<stop offset="0.5" stop-color="#040825"/>
<stop offset="1" stop-color="#000D61"/>
</linearGradient>
<linearGradient id="paint2_linear_0_8" x1="47.6023" y1="28.0408" x2="11.8134" y2="28.0408" gradientUnits="userSpaceOnUse">
<stop stop-color="#020C7B"/>
<stop offset="0.5" stop-color="#040825"/>
<stop offset="1" stop-color="#000D61"/>
</linearGradient>
<linearGradient id="paint3_linear_0_8" x1="77.6099" y1="42.9216" x2="48.9788" y2="42.9216" gradientUnits="userSpaceOnUse">
<stop stop-color="#020C7B"/>
<stop offset="0.5" stop-color="#040825"/>
<stop offset="1" stop-color="#000D61"/>
</linearGradient>
<linearGradient id="paint4_linear_0_8" x1="85.3472" y1="42.9301" x2="88.4603" y2="52.9722" gradientUnits="userSpaceOnUse">
<stop stop-color="#020C7B"/>
<stop offset="0.5" stop-color="#040825"/>
<stop offset="1" stop-color="#000D61"/>
</linearGradient>
<linearGradient id="paint5_linear_0_8" x1="72.3459" y1="12.1367" x2="47.1326" y2="21.7305" gradientUnits="userSpaceOnUse">
<stop stop-color="#020C7B"/>
<stop offset="0.5" stop-color="#040825"/>
<stop offset="1" stop-color="#000D61"/>
</linearGradient>
<linearGradient id="paint6_linear_0_8" x1="80.0159" y1="11.7947" x2="82.2595" y2="2.40492" gradientUnits="userSpaceOnUse">
<stop stop-color="#020C7B"/>
<stop offset="0.5" stop-color="#040825"/>
<stop offset="1" stop-color="#000D61"/>
</linearGradient>
<linearGradient id="paint7_linear_0_8" x1="1156.51" y1="925348" x2="567.952" y2="925348" gradientUnits="userSpaceOnUse">
<stop stop-color="#020C7B"/>
<stop offset="0.5" stop-color="#040825"/>
<stop offset="1" stop-color="#000D61"/>
</linearGradient>
<linearGradient id="paint8_linear_0_8" x1="1150.1" y1="1.42859e+06" x2="574.994" y2="1.42859e+06" gradientUnits="userSpaceOnUse">
<stop stop-color="#020C7B"/>
<stop offset="0.5" stop-color="#040825"/>
<stop offset="1" stop-color="#000D61"/>
</linearGradient>
<linearGradient id="paint9_linear_0_8" x1="1242.22" y1="27.2079" x2="1205.9" y2="27.2079" gradientUnits="userSpaceOnUse">
<stop stop-color="#020C7B"/>
<stop offset="0.5" stop-color="#040825"/>
<stop offset="1" stop-color="#000D61"/>
</linearGradient>
<linearGradient id="paint10_linear_0_8" x1="1181.3" y1="11.8341" x2="1202.39" y2="2.37045" gradientUnits="userSpaceOnUse">
<stop stop-color="#020C7B"/>
<stop offset="0.5" stop-color="#040825"/>
<stop offset="1" stop-color="#000D61"/>
</linearGradient>
<linearGradient id="paint11_linear_0_8" x1="1177.05" y1="11.6224" x2="1174.91" y2="2.44959" gradientUnits="userSpaceOnUse">
<stop stop-color="#020C7B"/>
<stop offset="0.5" stop-color="#040825"/>
<stop offset="1" stop-color="#000D61"/>
</linearGradient>
<linearGradient id="paint12_linear_0_8" x1="1179.58" y1="42.068" x2="1201.49" y2="50.7084" gradientUnits="userSpaceOnUse">
<stop stop-color="#020C7B"/>
<stop offset="0.5" stop-color="#040825"/>
<stop offset="1" stop-color="#000D61"/>
</linearGradient>
<linearGradient id="paint13_linear_0_8" x1="1177.04" y1="42.3608" x2="1174.96" y2="51.5981" gradientUnits="userSpaceOnUse">
<stop stop-color="#020C7B"/>
<stop offset="0.5" stop-color="#040825"/>
<stop offset="1" stop-color="#000D61"/>
</linearGradient>
</defs>
</svg>
