<svg preserveAspectRatio="none" width="100%" height="100%" overflow="visible" style="display: block;" viewBox="0 0 352 70" fill="none" xmlns="http://www.w3.org/2000/svg">
<path id="Union" fill-rule="evenodd" clip-rule="evenodd" d="M321.084 0C326.072 3.69811e-05 330.771 2.28745 333.766 6.17486L348.826 25.7254C353.059 31.2209 353.057 38.7812 348.824 44.2764L333.766 63.8251L333.185 64.5343C330.383 67.7586 326.345 69.7256 322.017 69.9736L321.086 70H30.9152C26.2386 69.9999 21.8179 67.9887 18.816 64.5343L18.2353 63.8251L3.17478 44.2764C-1.0584 38.7812 -1.05812 31.2209 3.17478 25.7254L18.2353 6.17486C21.2299 2.28774 25.927 0.000226469 30.9152 0H321.084ZM40.7652 3.87768C40.7196 3.89919 36.0544 6.10627 34.8076 8.31739C33.0657 11.4066 33.5432 16.7964 33.6075 17.0987L33.6133 17.1101L33.6095 17.1044V17.1101L33.6056 17.1006C33.4157 16.8545 30.7825 12.9453 27.2512 12.18C24.996 11.6913 18.9775 13.0484 17.6566 13.3588L6.34522 28.0453C3.17113 32.1666 3.17085 37.8354 6.34522 41.9566L19.8535 59.491C21.8307 59.8406 27.7385 60.8086 29.8138 60.2492C33.2965 59.3099 36.745 54.3852 36.9289 54.1196L36.9347 54.1083V54.114L36.9328 54.1196C36.8845 54.4236 35.9751 60.3305 37.8774 63.3291C38.7016 64.6284 40.9099 65.5818 42.5343 66.1374H309.103C310.541 65.8103 314.487 64.7888 315.726 63.1217C317.848 60.2682 317.386 54.3158 317.36 54.0046V53.9914L317.364 54.0027C317.521 54.27 320.592 59.4395 323.999 60.6264C325.806 61.2555 329.828 60.4056 331.817 59.9173L345.656 41.9566C348.83 37.8355 348.83 32.1665 345.656 28.0453L331.459 9.61687C329.33 9.14325 326.164 8.59975 324.618 9.13782C321.212 10.3247 318.14 15.4943 317.983 15.7616L317.979 15.7729C317.979 15.7729 317.979 15.7695 317.979 15.7653L317.977 15.771L317.979 15.7597C318.005 15.4485 318.468 9.49608 316.346 6.6426C315.323 5.26788 312.461 4.33326 310.682 3.86259H40.5116C40.6693 3.87054 40.7583 3.8775 40.7652 3.87768Z" fill="var(--fill-0, #00053D)"/>
</svg>
