<svg preserveAspectRatio="none" width="100%" height="100%" overflow="visible" style="display: block;" viewBox="0 0 341.751 59.1192" fill="none" xmlns="http://www.w3.org/2000/svg">
<g id="Group 25">
<path id="Union" d="M39.7641 1.70203L303.371 1.70204" stroke="url(#paint0_linear_0_177)" stroke-width="1.09562" stroke-linejoin="bevel"/>
<path id="Union_2" d="M300.501 57.123L42.9219 57.123" stroke="url(#paint1_linear_0_177)" stroke-width="1.09562" stroke-linejoin="bevel"/>
<path id="Union_3" d="M325.483 48.8527L337.031 35.053C339.761 31.7913 339.755 27.0405 337.017 23.7857L325.917 10.589" stroke="url(#paint2_linear_0_177)" stroke-width="1.09562" stroke-linejoin="bevel"/>
<path id="Union_4" d="M16.1038 47.9474L5.00738 35.1758C2.13721 31.8724 2.14341 26.9581 5.0219 23.6619L13.7502 13.6669" stroke="url(#paint3_linear_0_177)" stroke-width="1.09562" stroke-linejoin="bevel"/>
<path id="Vector 11" d="M17.1383 48.8923C16.8616 49.711 16.5848 50.5296 16.3081 51.3482C16.5398 51.4037 16.7716 51.4593 17.0033 51.5148C18.8571 51.9591 20.711 52.4034 22.5648 52.8477L22.7963 52.9501L23.1447 52.7925C25.1028 51.434 27.0608 50.0756 29.0189 48.7172C29.2147 48.5813 29.4105 48.4455 29.6063 48.3097C29.3892 48.4079 29.1721 48.5062 28.9549 48.6044C26.7838 49.587 24.6127 50.5695 22.4415 51.5521L23.0214 51.4969C21.2783 50.7252 19.5352 49.9535 17.792 49.1817C17.5741 49.0853 17.3562 48.9888 17.1383 48.8923Z" fill="url(#paint4_linear_0_177)"/>
<path id="Vector 12" d="M41.1352 56.8195C40.7237 57.5714 40.3122 58.3234 39.9007 59.0753C39.7341 58.9643 39.5674 58.8533 39.4008 58.7423C38.071 57.8564 36.7411 56.9705 35.4113 56.0846L35.1769 55.9927L35.0453 55.6146C34.8235 53.6566 34.6017 51.6986 34.3799 49.7405C34.3578 49.5451 34.3357 49.3497 34.3135 49.1543C34.3784 49.3406 34.4432 49.5268 34.5081 49.713C35.1579 51.5792 35.8077 53.4454 36.4576 55.3116L36.0915 54.8416C37.5855 55.4275 39.0795 56.0134 40.5735 56.5992C40.7608 56.6726 40.948 56.7461 41.1352 56.8195Z" fill="url(#paint5_linear_0_177)"/>
<path id="Vector 11_2" d="M15.0459 12.9107C14.6647 12.1333 14.2834 11.3559 13.9022 10.5785C14.1249 10.4948 14.3476 10.4111 14.5702 10.3274C16.3514 9.6577 18.1325 8.98801 19.9137 8.31832L20.1302 8.18791L20.4967 8.30142C22.6155 9.40705 24.7343 10.5127 26.8531 11.6183C27.065 11.7289 27.2769 11.8394 27.4887 11.95C27.2606 11.8793 27.0325 11.8087 26.8043 11.738C24.5228 11.0313 22.2412 10.3247 19.9596 9.61804L20.5427 9.60114C18.9141 10.5817 17.2854 11.5624 15.6567 12.543C15.4531 12.6655 15.2495 12.7881 15.0459 12.9107Z" fill="url(#paint6_linear_0_177)"/>
<path id="Vector 12_2" d="M37.8119 2.08597C37.3101 1.39065 36.8083 0.695324 36.3064 4.35792e-08C36.1554 0.130766 36.0043 0.261532 35.8532 0.392297C34.6485 1.43514 33.4438 2.47798 32.2391 3.52082L32.0164 3.64221L31.9344 4.03667C31.9689 6.00518 32.0034 7.97368 32.0379 9.94218C32.0413 10.1385 32.0448 10.3349 32.0482 10.5313C32.0883 10.3385 32.1283 10.1457 32.1684 9.9529C32.5702 8.02023 32.972 6.08755 33.3738 4.15487L33.0691 4.67072C34.4739 3.90514 35.8787 3.13955 37.2835 2.37397C37.4596 2.27797 37.6358 2.18197 37.8119 2.08597Z" fill="url(#paint7_linear_0_177)"/>
<path id="Vector 11_3" d="M325.208 9.52479C325.474 8.70544 325.74 7.88609 326.006 7.06674C325.797 7.02041 325.588 6.97407 325.378 6.92774C323.971 6.61604 322.564 6.30433 321.156 5.99263L320.842 5.85276L320.417 6.11989C318.686 7.78285 316.954 9.44581 315.222 11.1088C315.069 11.2563 314.915 11.4038 314.761 11.5513C314.942 11.4379 315.122 11.3244 315.303 11.2109C317.337 9.93187 319.371 8.65281 321.405 7.37375L320.666 7.50101C321.984 8.0883 323.302 8.67559 324.62 9.26288C324.816 9.35018 325.012 9.43748 325.208 9.52479Z" fill="url(#paint8_linear_0_177)"/>
<path id="Vector 12_3" d="M304.956 2.58667C305.386 1.84661 305.816 1.10656 306.246 0.366502C306.4 0.477106 306.553 0.58771 306.707 0.698314C307.909 1.56481 309.112 2.43131 310.315 3.29781L310.497 3.3745L310.65 3.70096C311.035 5.55356 311.42 7.40616 311.805 9.25876C311.843 9.441 311.881 9.62324 311.919 9.80548C311.839 9.63617 311.76 9.46686 311.68 9.29755C310.873 7.57642 310.066 5.85529 309.259 4.13416L309.594 4.5373C308.223 3.96069 306.852 3.38408 305.481 2.80747C305.306 2.73387 305.131 2.66027 304.956 2.58667Z" fill="url(#paint9_linear_0_177)"/>
<path id="Vector 11_4" d="M324.517 49.583C324.707 50.4241 324.897 51.2651 325.087 52.1062C324.878 52.1324 324.669 52.1586 324.46 52.1848C323.097 52.3556 321.733 52.5264 320.37 52.6972L320.093 52.7919L319.702 52.5563C317.94 50.918 316.178 49.2797 314.416 47.6413C314.263 47.4986 314.109 47.3559 313.956 47.2131C313.956 47.2131 313.956 47.2131 313.956 47.2131C314.135 47.3213 314.315 47.4295 314.495 47.5378C316.557 48.7798 318.62 50.0219 320.683 51.264L320.015 51.1231C321.316 50.678 322.617 50.2329 323.918 49.7878C324.118 49.7195 324.317 49.6513 324.517 49.583Z" fill="url(#paint10_linear_0_177)"/>
<path id="Vector 12_4" d="M303.268 55.968C303.488 56.793 303.708 57.6179 303.928 58.4428C304.127 58.3682 304.327 58.2936 304.527 58.2189C305.814 57.7376 307.101 57.2563 308.388 56.7749L308.671 56.7302L308.915 56.3539C309.792 54.0971 310.669 51.8404 311.546 49.5836C311.622 49.3882 311.698 49.1928 311.773 48.9974C311.773 48.9974 311.773 48.9974 311.773 48.9974C311.659 49.1739 311.544 49.3504 311.429 49.5269C310.101 51.5655 308.774 53.6042 307.447 55.6428L307.974 55.2218C306.616 55.4372 305.258 55.6525 303.899 55.8678C303.689 55.9012 303.478 55.9346 303.268 55.968Z" fill="url(#paint11_linear_0_177)"/>
</g>
<defs>
<linearGradient id="paint0_linear_0_177" x1="303.371" y1="2.20204" x2="39.7641" y2="2.20203" gradientUnits="userSpaceOnUse">
<stop stop-color="#020C7B"/>
<stop offset="0.5" stop-color="#040825"/>
<stop offset="1" stop-color="#000D61"/>
</linearGradient>
<linearGradient id="paint1_linear_0_177" x1="300.501" y1="57.623" x2="42.9219" y2="57.623" gradientUnits="userSpaceOnUse">
<stop stop-color="#020C7B"/>
<stop offset="0.5" stop-color="#040825"/>
<stop offset="1" stop-color="#000D61"/>
</linearGradient>
<linearGradient id="paint2_linear_0_177" x1="341.751" y1="29.7208" x2="325.483" y2="29.7208" gradientUnits="userSpaceOnUse">
<stop stop-color="#020C7B"/>
<stop offset="0.5" stop-color="#040825"/>
<stop offset="1" stop-color="#000D61"/>
</linearGradient>
<linearGradient id="paint3_linear_0_177" x1="16.1038" y1="30.8072" x2="2.7505e-06" y2="30.8072" gradientUnits="userSpaceOnUse">
<stop stop-color="#020C7B"/>
<stop offset="0.5" stop-color="#040825"/>
<stop offset="1" stop-color="#000D61"/>
</linearGradient>
<linearGradient id="paint4_linear_0_177" x1="29.6063" y1="50.241" x2="16.7232" y2="50.241" gradientUnits="userSpaceOnUse">
<stop stop-color="#020C7B"/>
<stop offset="0.5" stop-color="#040825"/>
<stop offset="1" stop-color="#000D61"/>
</linearGradient>
<linearGradient id="paint5_linear_0_177" x1="33.0881" y1="50.257" x2="40.2361" y2="58.201" gradientUnits="userSpaceOnUse">
<stop stop-color="#020C7B"/>
<stop offset="0.5" stop-color="#040825"/>
<stop offset="1" stop-color="#000D61"/>
</linearGradient>
<linearGradient id="paint6_linear_0_177" x1="27.2376" y1="10.0342" x2="14.4693" y2="11.7081" gradientUnits="userSpaceOnUse">
<stop stop-color="#020C7B"/>
<stop offset="0.5" stop-color="#040825"/>
<stop offset="1" stop-color="#000D61"/>
</linearGradient>
<linearGradient id="paint7_linear_0_177" x1="30.6892" y1="9.5888" x2="36.7598" y2="0.835393" gradientUnits="userSpaceOnUse">
<stop stop-color="#020C7B"/>
<stop offset="0.5" stop-color="#040825"/>
<stop offset="1" stop-color="#000D61"/>
</linearGradient>
<linearGradient id="paint8_linear_0_177" x1="314.467" y1="9.64138" x2="325.551" y2="7.93544" gradientUnits="userSpaceOnUse">
<stop stop-color="#020C7B"/>
<stop offset="0.5" stop-color="#040825"/>
<stop offset="1" stop-color="#000D61"/>
</linearGradient>
<linearGradient id="paint9_linear_0_177" x1="312.564" y1="9.36559" x2="306.684" y2="0.738149" gradientUnits="userSpaceOnUse">
<stop stop-color="#020C7B"/>
<stop offset="0.5" stop-color="#040825"/>
<stop offset="1" stop-color="#000D61"/>
</linearGradient>
<linearGradient id="paint10_linear_0_177" x1="313.697" y1="49.1278" x2="324.83" y2="50.6339" gradientUnits="userSpaceOnUse">
<stop stop-color="#020C7B"/>
<stop offset="0.5" stop-color="#040825"/>
<stop offset="1" stop-color="#000D61"/>
</linearGradient>
<linearGradient id="paint11_linear_0_177" x1="312.558" y1="49.5106" x2="306.745" y2="58.3723" gradientUnits="userSpaceOnUse">
<stop stop-color="#020C7B"/>
<stop offset="0.5" stop-color="#040825"/>
<stop offset="1" stop-color="#000D61"/>
</linearGradient>
</defs>
</svg>
