<svg preserveAspectRatio="none" width="100%" height="100%" overflow="visible" style="display: block;" viewBox="0 0 352 70" fill="none" xmlns="http://www.w3.org/2000/svg">
<g id="Union" filter="url(#filter0_i_0_250)">
<path d="M321.084 0C326.072 0.000151345 330.771 2.28755 333.766 6.17486L348.826 25.7254C353.059 31.2208 353.057 38.7813 348.824 44.2764L333.766 63.8251L333.185 64.5343C330.383 67.7585 326.345 69.7255 322.017 69.9736L321.086 70H30.9152C26.2387 69.9999 21.8179 67.9886 18.816 64.5343L18.2353 63.8251L3.17478 44.2764C-1.0584 38.7812 -1.05812 31.2209 3.17478 25.7254L9.6875 18.3125C10.7324 16.6378 12.2767 15.2492 13.625 13.8125L18.2353 6.17486C21.23 2.28788 25.9271 0.000226464 30.9152 0H321.084Z" fill="var(--fill-0, #0144BD)"/>
</g>
<defs>
<filter id="filter0_i_0_250" x="0" y="-10.3696" width="352" height="80.3696" filterUnits="userSpaceOnUse" color-interpolation-filters="sRGB">
<feFlood flood-opacity="0" result="BackgroundImageFix"/>
<feBlend mode="normal" in="SourceGraphic" in2="BackgroundImageFix" result="shape"/>
<feColorMatrix in="SourceAlpha" type="matrix" values="0 0 0 0 0 0 0 0 0 0 0 0 0 0 0 0 0 0 127 0" result="hardAlpha"/>
<feOffset dy="-10.3696"/>
<feGaussianBlur stdDeviation="6.48098"/>
<feComposite in2="hardAlpha" operator="arithmetic" k2="-1" k3="1"/>
<feColorMatrix type="matrix" values="0 0 0 0 0 0 0 0 0 0 0 0 0 0 0 0 0 0 0.25 0"/>
<feBlend mode="normal" in2="shape" result="effect1_innerShadow_0_250"/>
</filter>
</defs>
</svg>
