<svg preserveAspectRatio="none" width="100%" height="100%" overflow="visible" style="display: block;" viewBox="0 0 83.2908 83.2908" fill="none" xmlns="http://www.w3.org/2000/svg">
<g id="Icon">
<path id="Vector" d="M31.2342 10.4095H13.882C11.9653 10.4095 10.4116 11.9633 10.4116 13.88V31.2322C10.4116 33.1489 11.9653 34.7026 13.882 34.7026H31.2342C33.1509 34.7026 34.7047 33.1489 34.7047 31.2322V13.88C34.7047 11.9633 33.1509 10.4095 31.2342 10.4095Z" stroke="var(--stroke-0, white)" stroke-width="6.9409" stroke-linecap="round" stroke-linejoin="round"/>
<path id="Vector_2" d="M69.4097 10.4095H52.0574C50.1408 10.4095 48.587 11.9633 48.587 13.88V31.2322C48.587 33.1489 50.1408 34.7026 52.0574 34.7026H69.4097C71.3264 34.7026 72.8801 33.1489 72.8801 31.2322V13.88C72.8801 11.9633 71.3264 10.4095 69.4097 10.4095Z" stroke="var(--stroke-0, white)" stroke-width="6.9409" stroke-linecap="round" stroke-linejoin="round"/>
<path id="Vector_3" d="M69.4097 48.5869H52.0574C50.1408 48.5869 48.587 50.1406 48.587 52.0573V69.4095C48.587 71.3262 50.1408 72.88 52.0574 72.88H69.4097C71.3264 72.88 72.8801 71.3262 72.8801 69.4095V52.0573C72.8801 50.1406 71.3264 48.5869 69.4097 48.5869Z" stroke="var(--stroke-0, white)" stroke-width="6.9409" stroke-linecap="round" stroke-linejoin="round"/>
<path id="Vector_4" d="M31.2342 48.5869H13.882C11.9653 48.5869 10.4116 50.1406 10.4116 52.0573V69.4095C10.4116 71.3262 11.9653 72.88 13.882 72.88H31.2342C33.1509 72.88 34.7047 71.3262 34.7047 69.4095V52.0573C34.7047 50.1406 33.1509 48.5869 31.2342 48.5869Z" stroke="var(--stroke-0, white)" stroke-width="6.9409" stroke-linecap="round" stroke-linejoin="round"/>
</g>
</svg>
