<svg preserveAspectRatio="none" width="100%" height="100%" overflow="visible" style="display: block;" viewBox="0 0 26.8763 35.3508" fill="none" xmlns="http://www.w3.org/2000/svg">
<g id="Union" filter="url(#filter0_i_0_291)">
<path d="M13.0018 35.3508C13.0018 35.3508 11.408 26.3347 7.96359 21.9704C5.47645 18.819 0 15.5279 0 15.5279C0 15.5279 5.42774 13.5942 7.96359 11.0678C11.3098 7.7341 13.0018 0 13.0018 0V35.3508Z" fill="var(--fill-0, white)"/>
<path d="M13.0018 0C13.0018 0 14.6938 7.73443 18.04 11.0681C20.5758 13.5945 26.8763 14.3492 26.8763 14.3492C26.8763 14.3492 22.0408 16.5704 19.5537 19.7219C16.1093 24.0862 13.0018 35.3508 13.0018 35.3508V0Z" fill="var(--fill-0, white)"/>
</g>
<defs>
<filter id="filter0_i_0_291" x="0" y="0" width="26.8763" height="36.7779" filterUnits="userSpaceOnUse" color-interpolation-filters="sRGB">
<feFlood flood-opacity="0" result="BackgroundImageFix"/>
<feBlend mode="normal" in="SourceGraphic" in2="BackgroundImageFix" result="shape"/>
<feColorMatrix in="SourceAlpha" type="matrix" values="0 0 0 0 0 0 0 0 0 0 0 0 0 0 0 0 0 0 127 0" result="hardAlpha"/>
<feOffset dy="1.42704"/>
<feGaussianBlur stdDeviation="1.95114"/>
<feComposite in2="hardAlpha" operator="arithmetic" k2="-1" k3="1"/>
<feColorMatrix type="matrix" values="0 0 0 0 0 0 0 0 0 0 0 0 0 0 0 0 0 0 0.5 0"/>
<feBlend mode="normal" in2="shape" result="effect1_innerShadow_0_291"/>
</filter>
</defs>
</svg>
