<svg preserveAspectRatio="none" width="100%" height="100%" overflow="visible" style="display: block;" viewBox="0 0 18.7967 18.7967" fill="none" xmlns="http://www.w3.org/2000/svg">
<g id="Icon" clip-path="url(#clip0_0_281)">
<path id="Vector" d="M14.8806 5.48271V3.13313C14.8806 2.92541 14.7981 2.7262 14.6512 2.57933C14.5044 2.43245 14.3052 2.34993 14.0974 2.34993H3.91591C3.50048 2.34993 3.10206 2.51496 2.8083 2.80872C2.51455 3.10247 2.34952 3.50089 2.34952 3.91632C2.34952 4.33176 2.51455 4.73017 2.8083 5.02393C3.10206 5.31768 3.50048 5.48271 3.91591 5.48271H15.6638C15.8715 5.48271 16.0708 5.56523 16.2176 5.71211C16.3645 5.85898 16.447 6.05819 16.447 6.26591V9.39869M16.447 9.39869H14.0974C13.682 9.39869 13.2836 9.56372 12.9898 9.85747C12.6961 10.1512 12.5311 10.5496 12.5311 10.9651C12.5311 11.3805 12.6961 11.7789 12.9898 12.0727C13.2836 12.3664 13.682 12.5315 14.0974 12.5315H16.447C16.6547 12.5315 16.854 12.449 17.0008 12.3021C17.1477 12.1552 17.2302 11.956 17.2302 11.7483V10.1819C17.2302 9.97417 17.1477 9.77496 17.0008 9.62808C16.854 9.4812 16.6547 9.39869 16.447 9.39869Z" stroke="var(--stroke-0, white)" stroke-width="1.56639" stroke-linecap="round" stroke-linejoin="round"/>
<path id="Vector_2" d="M2.34952 3.91539V14.8801C2.34952 15.2955 2.51455 15.694 2.8083 15.9877C3.10206 16.2815 3.50048 16.4465 3.91591 16.4465H15.6638C15.8715 16.4465 16.0708 16.364 16.2176 16.2171C16.3645 16.0702 16.447 15.871 16.447 15.6633V12.5305" stroke="var(--stroke-0, white)" stroke-width="1.56639" stroke-linecap="round" stroke-linejoin="round"/>
</g>
<defs>
<clipPath id="clip0_0_281">
<rect width="18.7967" height="18.7967" fill="white"/>
</clipPath>
</defs>
</svg>
