<svg preserveAspectRatio="none" width="100%" height="100%" overflow="visible" style="display: block;" viewBox="0 0 163.17 19.3615" fill="none" xmlns="http://www.w3.org/2000/svg">
<g id="Subtract">
<mask id="path-1-outside-1_0_292" maskUnits="userSpaceOnUse" x="-0.326922" y="-0.676649" width="164" height="21" fill="black">
<rect fill="white" x="-0.326922" y="-0.676649" width="164" height="21"/>
<path d="M120.034 6.11241C120.796 6.11241 121.506 6.23598 122.162 6.48155C122.824 6.72214 123.401 7.08523 123.892 7.5714C124.388 8.05763 124.774 8.66949 125.05 9.40636C125.326 10.1381 125.464 10.9953 125.464 11.9776V12.8575H117.599V12.8644C117.599 13.4357 117.704 13.9298 117.914 14.3458C118.13 14.7619 118.433 15.0831 118.824 15.3087C119.215 15.5342 119.679 15.6466 120.215 15.6466C120.571 15.6466 120.897 15.5964 121.193 15.4962C121.488 15.3959 121.742 15.2455 121.952 15.045C122.163 14.8446 122.324 14.5993 122.434 14.3087L125.396 14.504C125.245 15.2157 124.937 15.837 124.471 16.3683C124.01 16.8945 123.414 17.3059 122.682 17.6017C121.955 17.8924 121.115 18.0382 120.162 18.0382C118.974 18.0381 117.952 17.7967 117.095 17.3155C116.243 16.8294 115.586 16.143 115.125 15.256C114.664 14.3637 114.433 13.308 114.433 12.09C114.433 10.9021 114.664 9.85921 115.125 8.96202C115.586 8.06494 116.235 7.36556 117.072 6.86437C117.914 6.36324 118.902 6.11248 120.034 6.11241ZM156.666 5.92687C158.125 5.92692 159.273 6.23517 160.11 6.85167C160.952 7.46821 161.443 8.30762 161.583 9.37023L158.651 9.55089C158.6 9.30026 158.493 9.07464 158.327 8.87413C158.162 8.66862 157.944 8.50518 157.673 8.38487C157.407 8.25969 157.089 8.19737 156.718 8.19737C156.222 8.19744 155.804 8.30249 155.463 8.5128C155.122 8.71828 154.951 8.99419 154.951 9.33995C154.951 9.61562 155.062 9.8487 155.282 10.0392C155.503 10.2297 155.882 10.3829 156.418 10.4982L158.508 10.9191C159.631 11.1496 160.468 11.521 161.02 12.0323C161.571 12.5436 161.847 13.2151 161.847 14.047C161.847 14.8038 161.623 15.4678 161.177 16.0392C160.736 16.6106 160.13 17.0572 159.358 17.378C158.591 17.6938 157.706 17.8517 156.703 17.8517C155.175 17.8517 153.956 17.5332 153.049 16.8966C152.147 16.255 151.619 15.383 151.463 14.2804L154.614 14.1144C154.709 14.5805 154.939 14.9371 155.305 15.1827C155.671 15.4233 156.14 15.5431 156.711 15.5431C157.272 15.5431 157.724 15.4354 158.065 15.2198C158.41 14.9993 158.586 14.716 158.591 14.3702C158.586 14.0796 158.462 13.8418 158.222 13.6564C157.981 13.4659 157.611 13.3201 157.11 13.2198L155.11 12.8214C153.982 12.5958 153.141 12.205 152.59 11.6485C152.044 11.0922 151.771 10.3827 151.771 9.52062C151.771 8.77889 151.971 8.13991 152.372 7.60362C152.778 7.06727 153.347 6.65315 154.079 6.36241C154.816 6.0717 155.679 5.92687 156.666 5.92687ZM54.8977 5.90245C55.6596 5.90247 56.369 6.02501 57.0256 6.27062C57.6872 6.51122 58.2639 6.87429 58.7551 7.36046C59.2513 7.84665 59.6366 8.45863 59.9123 9.19542C60.188 9.92721 60.3264 10.7843 60.3264 11.7667V12.6466H52.4612V12.6544C52.4612 13.2258 52.5671 13.7198 52.7776 14.1359C52.9931 14.5516 53.296 14.8723 53.6867 15.0978C54.0777 15.3233 54.542 15.4366 55.0784 15.4366C55.4341 15.4366 55.7602 15.3865 56.0559 15.2862C56.3514 15.186 56.6043 15.0354 56.8147 14.8351C57.0252 14.6346 57.1858 14.3885 57.2961 14.0978L60.259 14.2931C60.1086 15.0048 59.8003 15.627 59.3342 16.1583C58.8731 16.6846 58.276 17.095 57.5442 17.3907C56.8174 17.6814 55.9779 17.8272 55.0256 17.8273C53.8376 17.8273 52.8144 17.5868 51.9573 17.1056C51.1052 16.6194 50.4487 15.9322 49.9875 15.045C49.5265 14.1529 49.2962 13.0979 49.2961 11.88C49.2961 10.6921 49.5264 9.64929 49.9875 8.75206C50.4486 7.85492 51.0978 7.15566 51.9348 6.65441C52.7769 6.15314 53.7648 5.90245 54.8977 5.90245ZM142.176 12.8351C142.181 13.5165 142.364 14.0554 142.725 14.4513C143.086 14.8472 143.57 15.045 144.176 15.045C144.562 15.045 144.923 14.9578 145.259 14.7823C145.595 14.6019 145.866 14.3363 146.072 13.9855C146.282 13.6347 146.384 13.2008 146.379 12.6847V6.05284H149.582V17.6017H146.507V15.504H146.387C146.126 16.1807 145.693 16.7248 145.086 17.1359C144.485 17.5469 143.75 17.752 142.883 17.7521C142.111 17.7521 141.431 17.5766 140.845 17.2257C140.259 16.8748 139.8 16.3761 139.469 15.7296C139.143 15.083 138.978 14.3085 138.973 13.4064V6.05284H142.176V12.8351ZM16.3635 17.6017H12.8752L11.7346 14.09H6.17503L5.03245 17.6017H1.67308C1.74778 17.286 1.87039 16.7881 2.03831 16.1691L4.03441 10.3859C4.60516 9.0966 5.26725 7.87052 6.0139 6.92394C7.36573 5.21028 9.80323 3.44737 11.2746 2.463L16.3635 17.6017ZM24.8186 5.90245C25.6206 5.90245 26.3207 6.07793 26.9172 6.42882C27.5135 6.7797 27.9771 7.28124 28.3078 7.93273C28.6386 8.57929 28.8039 9.35105 28.8039 10.2482V17.6017H25.6008V10.8194C25.6058 10.1127 25.4257 9.56113 25.0598 9.16515C24.6939 8.76416 24.1897 8.56359 23.5481 8.56359C23.1171 8.56362 22.7362 8.65652 22.4055 8.84191C22.0797 9.02738 21.8244 9.2985 21.6389 9.65441C21.4585 10.0053 21.3656 10.4287 21.3606 10.9249V17.6017H18.1575V6.05284H21.2102V8.08995H21.345C21.6006 7.41829 22.0296 6.88717 22.6311 6.4962C23.2325 6.10028 23.9616 5.90252 24.8186 5.90245ZM34.5315 17.6017H31.3284V6.05284H34.5315V17.6017ZM43.0901 13.9025H43.2326L46.9621 2.20323H50.5715L45.2629 17.6017H41.0666L35.7512 2.20323H39.3674L43.0901 13.9025ZM67.5237 5.88683C67.684 5.88684 67.8569 5.89706 68.0422 5.9171C68.2275 5.93713 68.3902 5.96506 68.5305 6.00011V8.84191C68.3802 8.79685 68.1719 8.75684 67.9065 8.72179C67.6411 8.68676 67.3983 8.66908 67.178 8.66905C66.7068 8.66905 66.2852 8.77213 65.9143 8.97765C65.5485 9.17813 65.2577 9.45863 65.0422 9.81944C64.8317 10.1803 64.7268 10.5964 64.7268 11.0675V17.6017H61.5237V6.05284H64.6282V8.06749H64.7492C64.9598 7.35085 65.3127 6.80936 65.8088 6.44347C66.3051 6.07253 66.877 5.88683 67.5237 5.88683ZM75.1321 5.67687C76.5907 5.67689 77.7383 5.98514 78.5754 6.60167C79.4175 7.21822 79.9087 8.05758 80.0491 9.12023L77.1164 9.30089C77.0663 9.05026 76.9586 8.82464 76.7932 8.62413C76.6278 8.41872 76.4104 8.25515 76.1399 8.13487C75.8743 8.00959 75.5556 7.94741 75.1848 7.94737C74.6886 7.94737 74.2698 8.05236 73.9289 8.2628C73.5882 8.46828 73.4173 8.74419 73.4172 9.08995C73.4172 9.36557 73.5278 9.59872 73.7483 9.78917C73.9688 9.97965 74.3477 10.1329 74.884 10.2482L76.9739 10.6691C78.0967 10.8996 78.9342 11.271 79.4856 11.7823C80.0368 12.2936 80.3127 12.9651 80.3127 13.797C80.3127 14.5537 80.0896 15.2178 79.6438 15.7892C79.2027 16.3606 78.5954 16.8072 77.8235 17.128C77.0566 17.4438 76.1716 17.6017 75.1692 17.6017C73.6404 17.6016 72.4221 17.2832 71.5149 16.6466C70.6129 16.005 70.0843 15.1329 69.9289 14.0304L73.0793 13.8644C73.1746 14.3305 73.4048 14.6871 73.7707 14.9327C74.1367 15.1733 74.6055 15.2931 75.177 15.2931C75.7384 15.2931 76.1896 15.1854 76.5305 14.9698C76.8763 14.7493 77.0519 14.466 77.0569 14.1202C77.0518 13.8297 76.929 13.5917 76.6887 13.4064C76.4481 13.2159 76.0767 13.0701 75.5754 12.9698L73.5754 12.5714C72.4477 12.3458 71.6083 11.9549 71.0569 11.3985C70.5105 10.8421 70.2366 10.1328 70.2366 9.27062C70.2366 8.52894 70.4373 7.88989 70.8381 7.35362C71.2441 6.81728 71.8133 6.40315 72.5451 6.11241C73.282 5.82168 74.1446 5.67687 75.1321 5.67687ZM109.444 11.8868H109.579V2.20323H112.82V17.6017H110.008L103.309 7.90929H103.196V17.6017H99.9397V2.20323H102.797L109.444 11.8868ZM131.961 10.09L134.134 6.05284H137.42L134.074 11.8273L137.51 17.6017H134.239L131.961 13.6095L129.721 17.6017H126.412L129.841 11.8273L126.532 6.05284H129.841L131.961 10.09ZM87.6711 5.55773C88.4328 5.55777 89.1416 5.68137 89.7981 5.92687C90.4596 6.16744 91.0364 6.5306 91.5276 7.01671C92.0238 7.50294 92.4101 8.11481 92.6858 8.85167C92.9614 9.58349 93.0998 10.4405 93.0998 11.423V12.3028H85.2346V12.3107C85.2347 12.8817 85.3397 13.3753 85.55 13.7911C85.7656 14.2072 86.0692 14.5284 86.4602 14.754C86.8511 14.9795 87.3146 15.0919 87.8508 15.0919C88.2067 15.0919 88.5326 15.0417 88.8284 14.9415C89.1241 14.8413 89.3776 14.6909 89.5881 14.4903C89.7985 14.2899 89.9593 14.0446 90.0696 13.754L93.0315 13.9493C92.8811 14.6611 92.5728 15.2832 92.1067 15.8146C91.6456 16.3406 91.0492 16.7513 90.3176 17.047C89.5908 17.3377 88.7505 17.4835 87.7981 17.4835C86.6103 17.4835 85.5877 17.2429 84.7307 16.7618C83.8786 16.2756 83.2221 15.5885 82.761 14.7013C82.2999 13.8091 82.0686 12.7541 82.0686 11.5362C82.0686 10.3484 82.2999 9.30552 82.761 8.40831C83.2221 7.51104 83.8711 6.81095 84.7082 6.30968C85.5503 5.80849 86.5383 5.55773 87.6711 5.55773ZM7.00218 11.5489H10.9094L9.0178 5.72179H8.89769L7.00218 11.5489ZM120.087 8.50401C119.601 8.50407 119.17 8.6164 118.794 8.84191C118.423 9.0624 118.133 9.36064 117.922 9.73644C117.728 10.0786 117.622 10.4575 117.603 10.8722H122.448C122.448 10.411 122.348 10.0025 122.148 9.64659C121.947 9.2907 121.669 9.01214 121.313 8.81163C120.962 8.60628 120.553 8.50401 120.087 8.50401ZM54.9504 8.29308C54.4642 8.29308 54.0324 8.40637 53.6565 8.63194C53.2858 8.85247 52.9948 9.15069 52.7844 9.52648C52.5904 9.86848 52.4844 10.2468 52.4651 10.6612H57.3108C57.3107 10.2003 57.2104 9.79145 57.01 9.43566C56.8096 9.08007 56.5316 8.80208 56.176 8.60167C55.8252 8.39619 55.4165 8.29311 54.9504 8.29308ZM87.7229 7.94933C87.2368 7.94939 86.8057 8.06173 86.4299 8.28722C86.059 8.50778 85.7684 8.80677 85.5578 9.18273C85.3638 9.52478 85.2578 9.90299 85.2385 10.3175H90.0842C90.0842 9.8564 89.9839 9.44776 89.7834 9.09191C89.5829 8.73608 89.3043 8.4584 88.9485 8.25792C88.5976 8.05245 88.189 7.94933 87.7229 7.94933ZM32.9377 1.32335C33.4138 1.32336 33.8197 1.48324 34.1555 1.80382C34.4963 2.1196 34.6672 2.49847 34.6672 2.93956C34.6672 3.38569 34.4964 3.76914 34.1555 4.08995C33.8197 4.40568 33.4139 4.56358 32.9377 4.56359C32.4615 4.56359 32.053 4.40575 31.7121 4.08995C31.3763 3.76914 31.2082 3.38568 31.2082 2.93956C31.2082 2.49847 31.3763 2.1196 31.7121 1.80382C32.053 1.48315 32.4616 1.32335 32.9377 1.32335Z"/>
</mask>
<path d="M120.034 6.11241C120.796 6.11241 121.506 6.23598 122.162 6.48155C122.824 6.72214 123.401 7.08523 123.892 7.5714C124.388 8.05763 124.774 8.66949 125.05 9.40636C125.326 10.1381 125.464 10.9953 125.464 11.9776V12.8575H117.599V12.8644C117.599 13.4357 117.704 13.9298 117.914 14.3458C118.13 14.7619 118.433 15.0831 118.824 15.3087C119.215 15.5342 119.679 15.6466 120.215 15.6466C120.571 15.6466 120.897 15.5964 121.193 15.4962C121.488 15.3959 121.742 15.2455 121.952 15.045C122.163 14.8446 122.324 14.5993 122.434 14.3087L125.396 14.504C125.245 15.2157 124.937 15.837 124.471 16.3683C124.01 16.8945 123.414 17.3059 122.682 17.6017C121.955 17.8924 121.115 18.0382 120.162 18.0382C118.974 18.0381 117.952 17.7967 117.095 17.3155C116.243 16.8294 115.586 16.143 115.125 15.256C114.664 14.3637 114.433 13.308 114.433 12.09C114.433 10.9021 114.664 9.85921 115.125 8.96202C115.586 8.06494 116.235 7.36556 117.072 6.86437C117.914 6.36324 118.902 6.11248 120.034 6.11241ZM156.666 5.92687C158.125 5.92692 159.273 6.23517 160.11 6.85167C160.952 7.46821 161.443 8.30762 161.583 9.37023L158.651 9.55089C158.6 9.30026 158.493 9.07464 158.327 8.87413C158.162 8.66862 157.944 8.50518 157.673 8.38487C157.407 8.25969 157.089 8.19737 156.718 8.19737C156.222 8.19744 155.804 8.30249 155.463 8.5128C155.122 8.71828 154.951 8.99419 154.951 9.33995C154.951 9.61562 155.062 9.8487 155.282 10.0392C155.503 10.2297 155.882 10.3829 156.418 10.4982L158.508 10.9191C159.631 11.1496 160.468 11.521 161.02 12.0323C161.571 12.5436 161.847 13.2151 161.847 14.047C161.847 14.8038 161.623 15.4678 161.177 16.0392C160.736 16.6106 160.13 17.0572 159.358 17.378C158.591 17.6938 157.706 17.8517 156.703 17.8517C155.175 17.8517 153.956 17.5332 153.049 16.8966C152.147 16.255 151.619 15.383 151.463 14.2804L154.614 14.1144C154.709 14.5805 154.939 14.9371 155.305 15.1827C155.671 15.4233 156.14 15.5431 156.711 15.5431C157.272 15.5431 157.724 15.4354 158.065 15.2198C158.41 14.9993 158.586 14.716 158.591 14.3702C158.586 14.0796 158.462 13.8418 158.222 13.6564C157.981 13.4659 157.611 13.3201 157.11 13.2198L155.11 12.8214C153.982 12.5958 153.141 12.205 152.59 11.6485C152.044 11.0922 151.771 10.3827 151.771 9.52062C151.771 8.77889 151.971 8.13991 152.372 7.60362C152.778 7.06727 153.347 6.65315 154.079 6.36241C154.816 6.0717 155.679 5.92687 156.666 5.92687ZM54.8977 5.90245C55.6596 5.90247 56.369 6.02501 57.0256 6.27062C57.6872 6.51122 58.2639 6.87429 58.7551 7.36046C59.2513 7.84665 59.6366 8.45863 59.9123 9.19542C60.188 9.92721 60.3264 10.7843 60.3264 11.7667V12.6466H52.4612V12.6544C52.4612 13.2258 52.5671 13.7198 52.7776 14.1359C52.9931 14.5516 53.296 14.8723 53.6867 15.0978C54.0777 15.3233 54.542 15.4366 55.0784 15.4366C55.4341 15.4366 55.7602 15.3865 56.0559 15.2862C56.3514 15.186 56.6043 15.0354 56.8147 14.8351C57.0252 14.6346 57.1858 14.3885 57.2961 14.0978L60.259 14.2931C60.1086 15.0048 59.8003 15.627 59.3342 16.1583C58.8731 16.6846 58.276 17.095 57.5442 17.3907C56.8174 17.6814 55.9779 17.8272 55.0256 17.8273C53.8376 17.8273 52.8144 17.5868 51.9573 17.1056C51.1052 16.6194 50.4487 15.9322 49.9875 15.045C49.5265 14.1529 49.2962 13.0979 49.2961 11.88C49.2961 10.6921 49.5264 9.64929 49.9875 8.75206C50.4486 7.85492 51.0978 7.15566 51.9348 6.65441C52.7769 6.15314 53.7648 5.90245 54.8977 5.90245ZM142.176 12.8351C142.181 13.5165 142.364 14.0554 142.725 14.4513C143.086 14.8472 143.57 15.045 144.176 15.045C144.562 15.045 144.923 14.9578 145.259 14.7823C145.595 14.6019 145.866 14.3363 146.072 13.9855C146.282 13.6347 146.384 13.2008 146.379 12.6847V6.05284H149.582V17.6017H146.507V15.504H146.387C146.126 16.1807 145.693 16.7248 145.086 17.1359C144.485 17.5469 143.75 17.752 142.883 17.7521C142.111 17.7521 141.431 17.5766 140.845 17.2257C140.259 16.8748 139.8 16.3761 139.469 15.7296C139.143 15.083 138.978 14.3085 138.973 13.4064V6.05284H142.176V12.8351ZM16.3635 17.6017H12.8752L11.7346 14.09H6.17503L5.03245 17.6017H1.67308C1.74778 17.286 1.87039 16.7881 2.03831 16.1691L4.03441 10.3859C4.60516 9.0966 5.26725 7.87052 6.0139 6.92394C7.36573 5.21028 9.80323 3.44737 11.2746 2.463L16.3635 17.6017ZM24.8186 5.90245C25.6206 5.90245 26.3207 6.07793 26.9172 6.42882C27.5135 6.7797 27.9771 7.28124 28.3078 7.93273C28.6386 8.57929 28.8039 9.35105 28.8039 10.2482V17.6017H25.6008V10.8194C25.6058 10.1127 25.4257 9.56113 25.0598 9.16515C24.6939 8.76416 24.1897 8.56359 23.5481 8.56359C23.1171 8.56362 22.7362 8.65652 22.4055 8.84191C22.0797 9.02738 21.8244 9.2985 21.6389 9.65441C21.4585 10.0053 21.3656 10.4287 21.3606 10.9249V17.6017H18.1575V6.05284H21.2102V8.08995H21.345C21.6006 7.41829 22.0296 6.88717 22.6311 6.4962C23.2325 6.10028 23.9616 5.90252 24.8186 5.90245ZM34.5315 17.6017H31.3284V6.05284H34.5315V17.6017ZM43.0901 13.9025H43.2326L46.9621 2.20323H50.5715L45.2629 17.6017H41.0666L35.7512 2.20323H39.3674L43.0901 13.9025ZM67.5237 5.88683C67.684 5.88684 67.8569 5.89706 68.0422 5.9171C68.2275 5.93713 68.3902 5.96506 68.5305 6.00011V8.84191C68.3802 8.79685 68.1719 8.75684 67.9065 8.72179C67.6411 8.68676 67.3983 8.66908 67.178 8.66905C66.7068 8.66905 66.2852 8.77213 65.9143 8.97765C65.5485 9.17813 65.2577 9.45863 65.0422 9.81944C64.8317 10.1803 64.7268 10.5964 64.7268 11.0675V17.6017H61.5237V6.05284H64.6282V8.06749H64.7492C64.9598 7.35085 65.3127 6.80936 65.8088 6.44347C66.3051 6.07253 66.877 5.88683 67.5237 5.88683ZM75.1321 5.67687C76.5907 5.67689 77.7383 5.98514 78.5754 6.60167C79.4175 7.21822 79.9087 8.05758 80.0491 9.12023L77.1164 9.30089C77.0663 9.05026 76.9586 8.82464 76.7932 8.62413C76.6278 8.41872 76.4104 8.25515 76.1399 8.13487C75.8743 8.00959 75.5556 7.94741 75.1848 7.94737C74.6886 7.94737 74.2698 8.05236 73.9289 8.2628C73.5882 8.46828 73.4173 8.74419 73.4172 9.08995C73.4172 9.36557 73.5278 9.59872 73.7483 9.78917C73.9688 9.97965 74.3477 10.1329 74.884 10.2482L76.9739 10.6691C78.0967 10.8996 78.9342 11.271 79.4856 11.7823C80.0368 12.2936 80.3127 12.9651 80.3127 13.797C80.3127 14.5537 80.0896 15.2178 79.6438 15.7892C79.2027 16.3606 78.5954 16.8072 77.8235 17.128C77.0566 17.4438 76.1716 17.6017 75.1692 17.6017C73.6404 17.6016 72.4221 17.2832 71.5149 16.6466C70.6129 16.005 70.0843 15.1329 69.9289 14.0304L73.0793 13.8644C73.1746 14.3305 73.4048 14.6871 73.7707 14.9327C74.1367 15.1733 74.6055 15.2931 75.177 15.2931C75.7384 15.2931 76.1896 15.1854 76.5305 14.9698C76.8763 14.7493 77.0519 14.466 77.0569 14.1202C77.0518 13.8297 76.929 13.5917 76.6887 13.4064C76.4481 13.2159 76.0767 13.0701 75.5754 12.9698L73.5754 12.5714C72.4477 12.3458 71.6083 11.9549 71.0569 11.3985C70.5105 10.8421 70.2366 10.1328 70.2366 9.27062C70.2366 8.52894 70.4373 7.88989 70.8381 7.35362C71.2441 6.81728 71.8133 6.40315 72.5451 6.11241C73.282 5.82168 74.1446 5.67687 75.1321 5.67687ZM109.444 11.8868H109.579V2.20323H112.82V17.6017H110.008L103.309 7.90929H103.196V17.6017H99.9397V2.20323H102.797L109.444 11.8868ZM131.961 10.09L134.134 6.05284H137.42L134.074 11.8273L137.51 17.6017H134.239L131.961 13.6095L129.721 17.6017H126.412L129.841 11.8273L126.532 6.05284H129.841L131.961 10.09ZM87.6711 5.55773C88.4328 5.55777 89.1416 5.68137 89.7981 5.92687C90.4596 6.16744 91.0364 6.5306 91.5276 7.01671C92.0238 7.50294 92.4101 8.11481 92.6858 8.85167C92.9614 9.58349 93.0998 10.4405 93.0998 11.423V12.3028H85.2346V12.3107C85.2347 12.8817 85.3397 13.3753 85.55 13.7911C85.7656 14.2072 86.0692 14.5284 86.4602 14.754C86.8511 14.9795 87.3146 15.0919 87.8508 15.0919C88.2067 15.0919 88.5326 15.0417 88.8284 14.9415C89.1241 14.8413 89.3776 14.6909 89.5881 14.4903C89.7985 14.2899 89.9593 14.0446 90.0696 13.754L93.0315 13.9493C92.8811 14.6611 92.5728 15.2832 92.1067 15.8146C91.6456 16.3406 91.0492 16.7513 90.3176 17.047C89.5908 17.3377 88.7505 17.4835 87.7981 17.4835C86.6103 17.4835 85.5877 17.2429 84.7307 16.7618C83.8786 16.2756 83.2221 15.5885 82.761 14.7013C82.2999 13.8091 82.0686 12.7541 82.0686 11.5362C82.0686 10.3484 82.2999 9.30552 82.761 8.40831C83.2221 7.51104 83.8711 6.81095 84.7082 6.30968C85.5503 5.80849 86.5383 5.55773 87.6711 5.55773ZM7.00218 11.5489H10.9094L9.0178 5.72179H8.89769L7.00218 11.5489ZM120.087 8.50401C119.601 8.50407 119.17 8.6164 118.794 8.84191C118.423 9.0624 118.133 9.36064 117.922 9.73644C117.728 10.0786 117.622 10.4575 117.603 10.8722H122.448C122.448 10.411 122.348 10.0025 122.148 9.64659C121.947 9.2907 121.669 9.01214 121.313 8.81163C120.962 8.60628 120.553 8.50401 120.087 8.50401ZM54.9504 8.29308C54.4642 8.29308 54.0324 8.40637 53.6565 8.63194C53.2858 8.85247 52.9948 9.15069 52.7844 9.52648C52.5904 9.86848 52.4844 10.2468 52.4651 10.6612H57.3108C57.3107 10.2003 57.2104 9.79145 57.01 9.43566C56.8096 9.08007 56.5316 8.80208 56.176 8.60167C55.8252 8.39619 55.4165 8.29311 54.9504 8.29308ZM87.7229 7.94933C87.2368 7.94939 86.8057 8.06173 86.4299 8.28722C86.059 8.50778 85.7684 8.80677 85.5578 9.18273C85.3638 9.52478 85.2578 9.90299 85.2385 10.3175H90.0842C90.0842 9.8564 89.9839 9.44776 89.7834 9.09191C89.5829 8.73608 89.3043 8.4584 88.9485 8.25792C88.5976 8.05245 88.189 7.94933 87.7229 7.94933ZM32.9377 1.32335C33.4138 1.32336 33.8197 1.48324 34.1555 1.80382C34.4963 2.1196 34.6672 2.49847 34.6672 2.93956C34.6672 3.38569 34.4964 3.76914 34.1555 4.08995C33.8197 4.40568 33.4139 4.56358 32.9377 4.56359C32.4615 4.56359 32.053 4.40575 31.7121 4.08995C31.3763 3.76914 31.2082 3.38568 31.2082 2.93956C31.2082 2.49847 31.3763 2.1196 31.7121 1.80382C32.053 1.48315 32.4616 1.32335 32.9377 1.32335Z" fill="url(#paint0_linear_0_292)"/>
<path d="M120.034 6.11241V4.78906H120.034L120.034 6.11241ZM122.162 6.48155L121.699 7.7211L121.71 7.72523L122.162 6.48155ZM123.892 7.5714L122.961 8.51198L122.966 8.51665L123.892 7.5714ZM125.05 9.40636L123.811 9.8701L123.812 9.8728L125.05 9.40636ZM125.464 12.8575V14.1809H126.787V12.8575H125.464ZM117.599 12.8575V11.5342H116.276V12.8575H117.599ZM117.914 14.3458L116.733 14.9432L116.739 14.9546L117.914 14.3458ZM118.824 15.3087L118.163 16.455L118.163 16.455L118.824 15.3087ZM120.215 15.6466L120.215 16.9699H120.215V15.6466ZM121.193 15.4962L121.617 16.7495L121.617 16.7495L121.193 15.4962ZM121.952 15.045L122.865 16.0033L122.865 16.0032L121.952 15.045ZM122.434 14.3087L122.521 12.9882L121.544 12.9238L121.197 13.8393L122.434 14.3087ZM125.396 14.504L126.69 14.7776L127.006 13.284L125.483 13.1835L125.396 14.504ZM124.471 16.3683L123.476 15.4955L123.476 15.4962L124.471 16.3683ZM122.682 17.6017L123.173 18.8304L123.178 18.8286L122.682 17.6017ZM120.162 18.0382L120.162 19.3615H120.162V18.0382ZM117.095 17.3155L116.439 18.4649L116.447 18.4695L117.095 17.3155ZM115.125 15.256L113.95 15.8636L113.951 15.8663L115.125 15.256ZM114.433 12.09L113.109 12.0899V12.09H114.433ZM115.125 8.96202L113.948 8.357L113.948 8.35709L115.125 8.96202ZM117.072 6.86437L116.396 5.72719L116.393 5.729L117.072 6.86437ZM156.666 5.92687L156.666 4.60352H156.666V5.92687ZM160.11 6.85167L159.325 7.91721L159.328 7.9194L160.11 6.85167ZM161.583 9.37023L161.665 10.6911L163.081 10.6038L162.895 9.19693L161.583 9.37023ZM158.651 9.55089L157.353 9.81042L157.579 10.9427L158.732 10.8717L158.651 9.55089ZM158.327 8.87413L157.296 9.7039L157.301 9.71012L157.307 9.71629L158.327 8.87413ZM157.673 8.38487L157.109 9.58191L157.122 9.58819L157.136 9.59417L157.673 8.38487ZM156.718 8.19737V6.87402L156.718 6.87402L156.718 8.19737ZM155.463 8.5128L156.146 9.64616L156.158 9.63887L155.463 8.5128ZM154.951 9.33995L153.628 9.33965V9.33995H154.951ZM155.282 10.0392L154.417 11.0406L154.417 11.0407L155.282 10.0392ZM156.418 10.4982L156.14 11.792L156.148 11.7938L156.157 11.7955L156.418 10.4982ZM158.508 10.9191L158.774 9.62275L158.769 9.62175L158.508 10.9191ZM161.02 12.0323L161.92 11.0621L161.92 11.062L161.02 12.0323ZM161.847 14.047H163.17V14.0469L161.847 14.047ZM161.177 16.0392L160.134 15.2249L160.129 15.2305L161.177 16.0392ZM159.358 17.378L159.862 18.6017L159.866 18.6001L159.358 17.378ZM156.703 17.8517L156.703 19.175H156.703V17.8517ZM153.049 16.8966L152.282 17.975L152.289 17.9799L153.049 16.8966ZM151.463 14.2804L151.393 12.9589L149.951 13.0349L150.153 14.4651L151.463 14.2804ZM154.614 14.1144L155.91 13.8495L155.682 12.7329L154.544 12.7928L154.614 14.1144ZM155.305 15.1827L154.567 16.2815L154.578 16.2885L155.305 15.1827ZM156.711 15.5431V16.8664H156.711L156.711 15.5431ZM158.065 15.2198L158.772 16.3383L158.776 16.3355L158.065 15.2198ZM158.591 14.3702L159.914 14.3894L159.915 14.3683L159.914 14.3472L158.591 14.3702ZM158.222 13.6564L157.401 14.694L157.407 14.6993L157.414 14.7045L158.222 13.6564ZM157.11 13.2198L157.369 11.9222L157.368 11.922L157.11 13.2198ZM155.11 12.8214L154.85 14.119L154.851 14.1192L155.11 12.8214ZM152.59 11.6485L151.646 12.5757L151.65 12.5801L152.59 11.6485ZM151.771 9.52062L150.447 9.5206V9.52062H151.771ZM152.372 7.60362L151.317 6.80487L151.312 6.81133L152.372 7.60362ZM154.079 6.36241L153.594 5.1314L153.591 5.13255L154.079 6.36241ZM54.8977 5.90245L54.8977 4.5791H54.8977V5.90245ZM57.0256 6.27062L56.562 7.51015L56.5733 7.51428L57.0256 6.27062ZM58.7551 7.36046L57.8242 8.30102L57.829 8.30571L58.7551 7.36046ZM59.9123 9.19542L58.6729 9.65919L58.6739 9.66194L59.9123 9.19542ZM60.3264 11.7667H61.6497V11.7667L60.3264 11.7667ZM60.3264 12.6466V13.9699H61.6497V12.6466H60.3264ZM52.4612 12.6466V11.3232H51.1378V12.6466H52.4612ZM52.4612 12.6544H51.1378V12.6545L52.4612 12.6544ZM52.7776 14.1359L51.5967 14.7334L51.6027 14.7448L52.7776 14.1359ZM53.6867 15.0978L53.0253 16.244L53.0254 16.244L53.6867 15.0978ZM55.0784 15.4366V16.76H55.0785L55.0784 15.4366ZM56.0559 15.2862L56.4807 16.5395L56.4809 16.5395L56.0559 15.2862ZM56.8147 14.8351L57.7271 15.7935L57.7273 15.7934L56.8147 14.8351ZM57.2961 14.0978L57.3832 12.7773L56.4061 12.7129L56.0588 13.6284L57.2961 14.0978ZM60.259 14.2931L61.5538 14.5666L61.8693 13.073L60.3461 12.9726L60.259 14.2931ZM59.3342 16.1583L58.3394 15.2856L58.3389 15.2862L59.3342 16.1583ZM57.5442 17.3907L58.0357 18.6194L58.04 18.6177L57.5442 17.3907ZM55.0256 17.8273V19.1506H55.0257L55.0256 17.8273ZM51.9573 17.1056L51.3013 18.255L51.3094 18.2595L51.9573 17.1056ZM49.9875 15.045L48.8119 15.6526L48.8133 15.6554L49.9875 15.045ZM49.2961 11.88H47.9728V11.88L49.2961 11.88ZM49.9875 8.75206L48.8105 8.14713L48.8105 8.14718L49.9875 8.75206ZM51.9348 6.65441L51.2579 5.51726L51.2548 5.51909L51.9348 6.65441ZM142.176 12.8351H140.853L140.853 12.8449L142.176 12.8351ZM142.725 14.4513L141.747 15.3426L141.747 15.3427L142.725 14.4513ZM144.176 15.045L144.176 16.3684H144.176V15.045ZM145.259 14.7823L145.872 15.9553L145.879 15.9517L145.885 15.9481L145.259 14.7823ZM146.072 13.9855L144.937 13.3046L144.93 13.3166L146.072 13.9855ZM146.379 12.6847H145.056L145.056 12.6974L146.379 12.6847ZM146.379 6.05284V4.72949H145.056V6.05284H146.379ZM149.582 6.05284H150.906V4.72949H149.582V6.05284ZM149.582 17.6017V18.925H150.906V17.6017H149.582ZM146.507 17.6017H145.184V18.925H146.507V17.6017ZM146.507 15.504H147.83V14.1807H146.507V15.504ZM146.387 15.504V14.1807H145.479L145.152 15.0283L146.387 15.504ZM145.086 17.1359L144.344 16.0404L144.34 16.0432L145.086 17.1359ZM142.883 17.7521V19.0754H142.883L142.883 17.7521ZM140.845 17.2257L140.165 18.3612L140.166 18.3613L140.845 17.2257ZM139.469 15.7296L138.287 16.3251L138.291 16.3324L139.469 15.7296ZM138.973 13.4064H137.65L137.65 13.4138L138.973 13.4064ZM138.973 6.05284V4.72949H137.65V6.05284H138.973ZM142.176 6.05284H143.499V4.72949H142.176V6.05284ZM16.3635 17.6017V18.925H18.2045L17.6179 17.18L16.3635 17.6017ZM12.8752 17.6017L11.6166 18.0105L11.9137 18.925H12.8752V17.6017ZM11.7346 14.09L12.9932 13.6811L12.6962 12.7666H11.7346V14.09ZM6.17503 14.09V12.7666H5.21396L4.91661 13.6805L6.17503 14.09ZM5.03245 17.6017V18.925H5.99352L6.29087 18.0111L5.03245 17.6017ZM1.67308 17.6017L0.385297 17.2969L0 18.925H1.67308V17.6017ZM2.03831 16.1691L0.787378 15.7373L0.772805 15.7795L0.761112 15.8226L2.03831 16.1691ZM4.03441 10.3859L2.82433 9.85015L2.80171 9.90125L2.78347 9.95409L4.03441 10.3859ZM6.0139 6.92394L4.97491 6.10432L4.97487 6.10438L6.0139 6.92394ZM11.2746 2.463L12.529 2.04134L11.9775 0.400612L10.5388 1.36309L11.2746 2.463ZM24.8186 5.90245V4.5791H24.8185L24.8186 5.90245ZM26.9172 6.42882L27.5883 5.28827L27.5882 5.28818L26.9172 6.42882ZM28.3078 7.93273L27.1279 8.5318L27.1297 8.53536L28.3078 7.93273ZM28.8039 17.6017V18.925H30.1273V17.6017H28.8039ZM25.6008 17.6017H24.2775V18.925H25.6008V17.6017ZM25.6008 10.8194L24.2775 10.8101V10.8194H25.6008ZM25.0598 9.16515L24.0823 10.0572L24.0879 10.0633L25.0598 9.16515ZM23.5481 8.56359V7.24023L23.548 7.24023L23.5481 8.56359ZM22.4055 8.84191L21.7584 7.6875L21.7508 7.69183L22.4055 8.84191ZM21.6389 9.65441L20.4653 9.04282L20.462 9.04921L21.6389 9.65441ZM21.3606 10.9249L20.0372 10.9115V10.9249H21.3606ZM21.3606 17.6017V18.925H22.6839V17.6017H21.3606ZM18.1575 17.6017H16.8341V18.925H18.1575V17.6017ZM18.1575 6.05284V4.72949H16.8341V6.05284H18.1575ZM21.2102 6.05284H22.5335V4.72949H21.2102V6.05284ZM21.2102 8.08995H19.8868V9.4133H21.2102V8.08995ZM21.345 8.08995V9.4133H22.2572L22.5817 8.56071L21.345 8.08995ZM22.6311 6.4962L23.3523 7.60578L23.3587 7.60154L22.6311 6.4962ZM34.5315 17.6017V18.925H35.8548V17.6017H34.5315ZM31.3284 17.6017H30.005V18.925H31.3284V17.6017ZM31.3284 6.05284V4.72949H30.005V6.05284H31.3284ZM34.5315 6.05284H35.8548V4.72949H34.5315V6.05284ZM43.0901 13.9025L41.829 14.3037L42.1224 15.2258H43.0901V13.9025ZM43.2326 13.9025V15.2258H44.1998L44.4935 14.3044L43.2326 13.9025ZM46.9621 2.20323V0.879883H45.995L45.7013 1.8013L46.9621 2.20323ZM50.5715 2.20323L51.8226 2.63455L52.4275 0.879883H50.5715V2.20323ZM45.2629 17.6017V18.925H46.2065L46.514 18.033L45.2629 17.6017ZM41.0666 17.6017L39.8157 18.0335L40.1235 18.925H41.0666V17.6017ZM35.7512 2.20323V0.879883H33.8944L34.5003 2.63504L35.7512 2.20323ZM39.3674 2.20323L40.6285 1.80197L40.3351 0.879883H39.3674V2.20323ZM67.5237 5.88683L67.5238 4.56348H67.5237V5.88683ZM68.0422 5.9171L68.1845 4.60142L68.1845 4.60142L68.0422 5.9171ZM68.5305 6.00011H69.8538V4.9667L68.8513 4.71622L68.5305 6.00011ZM68.5305 8.84191L68.1506 10.1096L69.8538 10.62V8.84191H68.5305ZM67.9065 8.72179L68.0798 7.40983L68.0797 7.40982L67.9065 8.72179ZM67.178 8.66905L67.1781 7.3457H67.178V8.66905ZM65.9143 8.97765L66.5503 10.1382L66.5556 10.1352L65.9143 8.97765ZM65.0422 9.81944L63.906 9.14081L63.8991 9.15265L65.0422 9.81944ZM64.7268 11.0675L63.4034 11.0674V11.0675H64.7268ZM64.7268 17.6017V18.925H66.0501V17.6017H64.7268ZM61.5237 17.6017H60.2003V18.925H61.5237V17.6017ZM61.5237 6.05284V4.72949H60.2003V6.05284H61.5237ZM64.6282 6.05284H65.9515V4.72949H64.6282V6.05284ZM64.6282 8.06749H63.3048V9.39084H64.6282V8.06749ZM64.7492 8.06749V9.39084H65.7398L66.0189 8.44048L64.7492 8.06749ZM65.8088 6.44347L66.5943 7.50854L66.6011 7.50343L65.8088 6.44347ZM75.1321 5.67687L75.1321 4.35352H75.1321V5.67687ZM78.5754 6.60167L77.7906 7.66721L77.7937 7.66943L78.5754 6.60167ZM80.0491 9.12023L80.1304 10.4411L81.5468 10.3538L81.361 8.94693L80.0491 9.12023ZM77.1164 9.30089L75.8188 9.56042L76.0452 10.6927L77.1978 10.6217L77.1164 9.30089ZM76.7932 8.62413L75.7624 9.45399L75.7673 9.46017L75.7724 9.46629L76.7932 8.62413ZM76.1399 8.13487L75.5753 9.33176L75.5887 9.33808L75.6023 9.34411L76.1399 8.13487ZM75.1848 7.94737L75.1849 6.62402H75.1848V7.94737ZM73.9289 8.2628L74.6123 9.39616L74.6242 9.3888L73.9289 8.2628ZM73.4172 9.08995L72.0939 9.08965V9.08995H73.4172ZM73.7483 9.78917L72.8831 10.7905L72.8833 10.7907L73.7483 9.78917ZM74.884 10.2482L74.6059 11.542L74.6143 11.5438L74.6227 11.5455L74.884 10.2482ZM76.9739 10.6691L77.2401 9.37275L77.2351 9.37175L76.9739 10.6691ZM79.4856 11.7823L80.3855 10.8121L80.3854 10.812L79.4856 11.7823ZM80.3127 13.797H81.6361V13.7969L80.3127 13.797ZM79.6438 15.7892L78.6005 14.975L78.5962 14.9805L79.6438 15.7892ZM77.8235 17.128L78.3273 18.3517L78.3313 18.3501L77.8235 17.128ZM75.1692 17.6017L75.1691 18.925H75.1692V17.6017ZM71.5149 16.6466L70.7478 17.725L70.7548 17.7299L71.5149 16.6466ZM69.9289 14.0304L69.8593 12.7089L68.4169 12.7849L68.6185 14.2151L69.9289 14.0304ZM73.0793 13.8644L74.3759 13.5995L74.1478 12.4829L73.0097 12.5428L73.0793 13.8644ZM73.7707 14.9327L73.0331 16.0315L73.0437 16.0385L73.7707 14.9327ZM75.177 15.2931V16.6164V16.6164V15.2931ZM76.5305 14.9698L77.2378 16.0883L77.2421 16.0855L76.5305 14.9698ZM77.0569 14.1202L78.3801 14.1394L78.3804 14.1183L78.38 14.0972L77.0569 14.1202ZM76.6887 13.4064L75.8673 14.4439L75.8738 14.4491L75.8804 14.4542L76.6887 13.4064ZM75.5754 12.9698L75.835 11.6722L75.834 11.672L75.5754 12.9698ZM73.5754 12.5714L73.3159 13.869L73.3169 13.8692L73.5754 12.5714ZM71.0569 11.3985L70.1126 12.3258L70.117 12.3301L71.0569 11.3985ZM70.2366 9.27062L68.9132 9.27061V9.27062H70.2366ZM70.8381 7.35362L69.783 6.55487L69.7781 6.56137L70.8381 7.35362ZM72.5451 6.11241L72.0594 4.88141L72.0566 4.88256L72.5451 6.11241ZM109.444 11.8868L108.353 12.6357L108.747 13.2102H109.444V11.8868ZM109.579 11.8868V13.2102H110.903V11.8868H109.579ZM109.579 2.20323V0.879883H108.256V2.20323H109.579ZM112.82 2.20323H114.143V0.879883H112.82V2.20323ZM112.82 17.6017V18.925H114.143V17.6017H112.82ZM110.008 17.6017L108.919 18.3541L109.314 18.925H110.008V17.6017ZM103.309 7.90929L104.397 7.15685L104.003 6.58594H103.309V7.90929ZM103.196 7.90929V6.58594H101.872V7.90929H103.196ZM103.196 17.6017V18.925H104.519V17.6017H103.196ZM99.9397 17.6017H98.6163V18.925H99.9397V17.6017ZM99.9397 2.20323V0.879883H98.6163V2.20323H99.9397ZM102.797 2.20323L103.888 1.45436L103.494 0.879883H102.797V2.20323ZM131.961 10.09L130.79 10.7052L131.947 12.9089L133.126 10.7171L131.961 10.09ZM134.134 6.05284V4.72949H133.343L132.969 5.42566L134.134 6.05284ZM137.42 6.05284L138.565 6.71628L139.716 4.72949H137.42V6.05284ZM134.074 11.8273L132.929 11.1638L132.54 11.8361L132.937 12.5039L134.074 11.8273ZM137.51 17.6017V18.925H139.837L138.647 16.925L137.51 17.6017ZM134.239 17.6017L133.09 18.2576L133.471 18.925H134.239V17.6017ZM131.961 13.6095L133.111 12.9536L131.951 10.9226L130.807 12.9619L131.961 13.6095ZM129.721 17.6017V18.925H130.496L130.875 18.2493L129.721 17.6017ZM126.412 17.6017L125.274 16.926L124.088 18.925H126.412V17.6017ZM129.841 11.8273L130.979 12.5029L131.373 11.8391L130.989 11.1694L129.841 11.8273ZM126.532 6.05284V4.72949H124.249L125.384 6.71075L126.532 6.05284ZM129.841 6.05284L131.013 5.43756L130.641 4.72949H129.841V6.05284ZM87.6711 5.55773L87.6712 4.23438H87.6711V5.55773ZM89.7981 5.92687L89.3345 7.16643L89.3458 7.17054L89.7981 5.92687ZM91.5276 7.01671L90.5967 7.95732L90.6014 7.96196L91.5276 7.01671ZM92.6858 8.85167L91.4463 9.31541L91.4474 9.31815L92.6858 8.85167ZM93.0998 11.423H94.4232V11.423L93.0998 11.423ZM93.0998 12.3028V13.6262H94.4232V12.3028H93.0998ZM85.2346 12.3028V10.9795H83.9113V12.3028H85.2346ZM85.2346 12.3107H83.9113V12.3108L85.2346 12.3107ZM85.55 13.7911L84.3691 14.3885L84.375 14.3999L85.55 13.7911ZM86.4602 14.754L85.7989 15.9003L85.7989 15.9003L86.4602 14.754ZM87.8508 15.0919L87.8507 16.4153H87.8508V15.0919ZM88.8284 14.9415L89.2531 16.1948L89.2532 16.1948L88.8284 14.9415ZM89.5881 14.4903L90.5008 15.4486L90.5009 15.4485L89.5881 14.4903ZM90.0696 13.754L90.1566 12.4335L89.1795 12.3691L88.8322 13.2847L90.0696 13.754ZM93.0315 13.9493L94.3262 14.2229L94.6418 12.7293L93.1186 12.6288L93.0315 13.9493ZM92.1067 15.8146L91.1119 14.9418L91.1114 14.9423L92.1067 15.8146ZM90.3176 17.047L90.8091 18.2757L90.8135 18.2739L90.3176 17.047ZM87.7981 17.4835L87.798 18.8069H87.7981V17.4835ZM84.7307 16.7618L84.0748 17.9113L84.0829 17.9158L84.7307 16.7618ZM82.761 14.7013L81.5854 15.3089L81.5868 15.3116L82.761 14.7013ZM82.0686 11.5362H80.7452V11.5363L82.0686 11.5362ZM82.761 8.40831L81.584 7.80338L81.5839 7.80344L82.761 8.40831ZM84.7082 6.30968L84.0314 5.1725L84.0284 5.17432L84.7082 6.30968ZM7.00218 11.5489L5.74373 11.1396L5.1801 12.8723H7.00218V11.5489ZM10.9094 11.5489V12.8723H12.7303L12.1681 11.1403L10.9094 11.5489ZM9.0178 5.72179L10.2765 5.31319L9.97955 4.39844H9.0178V5.72179ZM8.89769 5.72179V4.39844H7.93655L7.63924 5.31243L8.89769 5.72179ZM120.087 8.50401V7.18066L120.087 7.18066L120.087 8.50401ZM118.794 8.84191L119.471 9.97938L119.475 9.97668L118.794 8.84191ZM117.922 9.73644L119.073 10.3897L119.077 10.3832L117.922 9.73644ZM117.603 10.8722L116.281 10.8106L116.216 12.1955H117.603V10.8722ZM122.448 10.8722V12.1955H123.772L123.772 10.8722L122.448 10.8722ZM122.148 9.64659L123.301 8.99703L123.301 8.99703L122.148 9.64659ZM121.313 8.81163L120.644 9.95369L120.654 9.95922L120.663 9.9646L121.313 8.81163ZM54.9504 8.29308L54.9505 6.96973H54.9504V8.29308ZM53.6565 8.63194L54.3331 9.76927L54.3373 9.76671L53.6565 8.63194ZM52.7844 9.52648L53.9354 10.1796L53.939 10.1731L52.7844 9.52648ZM52.4651 10.6612L51.1432 10.5995L51.0784 11.9846H52.4651V10.6612ZM57.3108 10.6612V11.9846H58.6343L58.6341 10.6611L57.3108 10.6612ZM57.01 9.43566L58.163 8.7861L58.1628 8.78582L57.01 9.43566ZM56.176 8.60167L55.5072 9.74357L55.5167 9.74914L55.5263 9.75456L56.176 8.60167ZM87.7229 7.94933V6.62598L87.7227 6.62598L87.7229 7.94933ZM86.4299 8.28722L87.1063 9.42469L87.1107 9.422L86.4299 8.28722ZM85.5578 9.18273L86.7089 9.83578L86.7125 9.82932L85.5578 9.18273ZM85.2385 10.3175L83.9166 10.2558L83.852 11.6408H85.2385V10.3175ZM90.0842 10.3175V11.6408H91.4076L91.4076 10.3174L90.0842 10.3175ZM89.7834 9.09191L90.9364 8.44235L90.9363 8.44226L89.7834 9.09191ZM88.9485 8.25792L88.2797 9.39986L88.2893 9.40545L88.2989 9.41089L88.9485 8.25792ZM32.9377 1.32335L32.9377 0H32.9377V1.32335ZM34.1555 1.80382L33.2417 2.76098L33.2488 2.76783L33.2561 2.77458L34.1555 1.80382ZM34.6672 2.93956H35.9906V2.93952L34.6672 2.93956ZM34.1555 4.08995L35.062 5.05411L35.0625 5.05362L34.1555 4.08995ZM32.9377 4.56359V5.88694L32.9377 5.88694L32.9377 4.56359ZM31.7121 4.08995L30.798 5.04687L30.8054 5.05385L30.8128 5.06071L31.7121 4.08995ZM31.2082 2.93956L29.8849 2.93952V2.93956H31.2082ZM31.7121 1.80382L32.6187 2.76791L32.619 2.76763L31.7121 1.80382ZM120.034 6.11241V7.43576C120.651 7.43576 121.202 7.53525 121.699 7.72105L122.162 6.48155L122.626 5.24205C121.809 4.93671 120.942 4.78906 120.034 4.78906V6.11241ZM122.162 6.48155L121.71 7.72523C122.196 7.90195 122.608 8.16311 122.961 8.51197L123.892 7.5714L124.823 6.63083C124.193 6.00735 123.452 5.54234 122.615 5.23788L122.162 6.48155ZM123.892 7.5714L122.966 8.51665C123.306 8.85038 123.594 9.29071 123.811 9.87009L125.05 9.40636L126.289 8.94262C125.955 8.04827 125.47 7.26488 124.818 6.62615L123.892 7.5714ZM125.05 9.40636L123.812 9.8728C124.019 10.4233 124.141 11.1161 124.141 11.9776H125.464H126.787C126.787 10.8745 126.632 9.85301 126.288 8.93992L125.05 9.40636ZM125.464 11.9776H124.141V12.8575H125.464H126.787V11.9776H125.464ZM125.464 12.8575V11.5342H117.599V12.8575V14.1809H125.464V12.8575ZM117.599 12.8575H116.276V12.8644H117.599H118.922V12.8575H117.599ZM117.599 12.8644H116.276C116.276 13.5965 116.41 14.3044 116.733 14.9432L117.914 14.3458L119.095 13.7484C118.997 13.5552 118.922 13.2749 118.922 12.8644H117.599ZM117.914 14.3458L116.739 14.9546C117.066 15.5861 117.544 16.098 118.163 16.455L118.824 15.3087L119.486 14.1624C119.323 14.0683 119.193 13.9376 119.089 13.7371L117.914 14.3458ZM118.824 15.3087L118.163 16.455C118.791 16.8168 119.491 16.9699 120.215 16.9699L120.215 15.6466L120.215 14.3232C119.867 14.3232 119.64 14.2515 119.486 14.1624L118.824 15.3087ZM120.215 15.6466V16.9699C120.696 16.9699 121.167 16.9021 121.617 16.7495L121.193 15.4962L120.768 14.2429C120.627 14.2908 120.446 14.3232 120.215 14.3232V15.6466ZM121.193 15.4962L121.617 16.7495C122.081 16.5923 122.505 16.3464 122.865 16.0033L121.952 15.045L121.04 14.0867C120.979 14.1447 120.896 14.1996 120.768 14.2429L121.193 15.4962ZM121.952 15.045L122.865 16.0032C123.228 15.6579 123.495 15.2422 123.671 14.7781L122.434 14.3087L121.197 13.8393C121.152 13.9563 121.098 14.0313 121.04 14.0869L121.952 15.045ZM122.434 14.3087L122.347 15.6292L125.309 15.8245L125.396 14.504L125.483 13.1835L122.521 12.9882L122.434 14.3087ZM125.396 14.504L124.101 14.2304C123.996 14.7265 123.788 15.1399 123.476 15.4955L124.471 16.3683L125.466 17.241C126.086 16.5341 126.495 15.7049 126.69 14.7776L125.396 14.504ZM124.471 16.3683L123.476 15.4962C123.167 15.8482 122.75 16.1468 122.186 16.3747L122.682 17.6017L123.178 18.8286C124.077 18.4651 124.852 17.9409 125.466 17.2404L124.471 16.3683ZM122.682 17.6017L122.19 16.373C121.649 16.5893 120.982 16.7148 120.162 16.7148V18.0382V19.3615C121.248 19.3615 122.261 19.1955 123.173 18.8304L122.682 17.6017ZM120.162 18.0382L120.162 16.7148C119.155 16.7148 118.365 16.511 117.743 16.1616L117.095 17.3155L116.447 18.4695C117.539 19.0824 118.794 19.3615 120.162 19.3615L120.162 18.0382ZM117.095 17.3155L117.751 16.1662C117.124 15.8085 116.645 15.3113 116.299 14.6456L115.125 15.256L113.951 15.8663C114.527 16.9748 115.362 17.8502 116.439 18.4649L117.095 17.3155ZM115.125 15.256L116.301 14.6483C115.955 13.9795 115.756 13.1406 115.756 12.09H114.433H113.109C113.109 13.4755 113.373 14.748 113.95 15.8636L115.125 15.256ZM114.433 12.09L115.756 12.09C115.756 11.0758 115.953 10.2468 116.302 9.56696L115.125 8.96202L113.948 8.35709C113.375 9.47157 113.11 10.7284 113.109 12.0899L114.433 12.09ZM115.125 8.96202L116.302 9.56704C116.654 8.88172 117.135 8.36949 117.752 7.99973L117.072 6.86437L116.393 5.729C115.336 6.36163 114.518 7.24816 113.948 8.357L115.125 8.96202ZM117.072 6.86437L117.749 8.00154C118.357 7.64013 119.103 7.43582 120.034 7.43576L120.034 6.11241L120.034 4.78906C118.701 4.78914 117.472 5.08634 116.396 5.72719L117.072 6.86437ZM156.666 5.92687L156.666 7.25022C157.953 7.25027 158.791 7.52369 159.325 7.9172L160.11 6.85167L160.894 5.78614C159.755 4.94664 158.296 4.60358 156.666 4.60352L156.666 5.92687ZM160.11 6.85167L159.328 7.9194C159.87 8.31627 160.177 8.82813 160.271 9.54352L161.583 9.37023L162.895 9.19693C162.709 7.78712 162.033 6.62015 160.891 5.78394L160.11 6.85167ZM161.583 9.37023L161.502 8.04938L158.569 8.23004L158.651 9.55089L158.732 10.8717L161.665 10.6911L161.583 9.37023ZM158.651 9.55089L159.948 9.29136C159.855 8.82321 159.65 8.39815 159.348 8.03197L158.327 8.87413L157.307 9.71629C157.335 9.75113 157.346 9.7773 157.353 9.81042L158.651 9.55089ZM158.327 8.87413L159.358 8.04437C159.046 7.65651 158.651 7.37122 158.211 7.17558L157.673 8.38487L157.136 9.59417C157.237 9.63913 157.278 9.68072 157.296 9.7039L158.327 8.87413ZM157.673 8.38487L158.237 7.18783C157.754 6.9602 157.233 6.87402 156.718 6.87402V8.19737V9.52073C156.945 9.52073 157.061 9.55918 157.109 9.58191L157.673 8.38487ZM156.718 8.19737L156.718 6.87402C156.035 6.87412 155.362 7.01976 154.768 7.38674L155.463 8.5128L156.158 9.63887C156.245 9.58521 156.409 9.52077 156.718 9.52073L156.718 8.19737ZM155.463 8.5128L154.78 7.37951C154.114 7.78121 153.628 8.45219 153.628 9.33965L154.951 9.33995L156.275 9.34026C156.275 9.3637 156.272 9.40005 156.26 9.44442C156.247 9.48934 156.228 9.53233 156.205 9.57012C156.157 9.64702 156.116 9.66462 156.146 9.64609L155.463 8.5128ZM154.951 9.33995H153.628C153.628 10.0254 153.926 10.6158 154.417 11.0406L155.282 10.0392L156.148 9.03771C156.158 9.04711 156.197 9.08464 156.23 9.15501C156.264 9.22736 156.275 9.29535 156.275 9.33995H154.951ZM155.282 10.0392L154.417 11.0407C154.897 11.4548 155.546 11.6643 156.14 11.792L156.418 10.4982L156.696 9.20436C156.479 9.15767 156.327 9.1102 156.228 9.06995C156.123 9.02774 156.114 9.00841 156.147 9.03763L155.282 10.0392ZM156.418 10.4982L156.157 11.7955L158.247 12.2164L158.508 10.9191L158.769 9.62175L156.679 9.20085L156.418 10.4982ZM158.508 10.9191L158.242 12.2154C159.242 12.4208 159.816 12.7205 160.12 13.0027L161.02 12.0323L161.92 11.062C161.121 10.3216 160.02 9.8785 158.774 9.62275L158.508 10.9191ZM161.02 12.0323L160.12 13.0025C160.371 13.2355 160.524 13.5403 160.524 14.047L161.847 14.047L163.17 14.0469C163.17 12.8899 162.771 11.8516 161.92 11.0621L161.02 12.0323ZM161.847 14.047H160.524C160.524 14.5216 160.391 14.896 160.134 15.2249L161.177 16.0392L162.22 16.8535C162.855 16.0396 163.17 15.0861 163.17 14.047H161.847ZM161.177 16.0392L160.129 15.2305C159.85 15.5929 159.442 15.9098 158.85 16.156L159.358 17.378L159.866 18.6001C160.817 18.2047 161.622 17.6283 162.225 16.8478L161.177 16.0392ZM159.358 17.378L158.854 16.1544C158.276 16.3921 157.568 16.5283 156.703 16.5283V17.8517V19.175C157.843 19.175 158.905 18.9955 159.862 18.6017L159.358 17.378ZM156.703 17.8517L156.703 16.5283C155.346 16.5283 154.424 16.2445 153.809 15.8133L153.049 16.8966L152.289 17.9799C153.489 18.8219 155.003 19.175 156.703 19.175L156.703 17.8517ZM153.049 16.8966L153.816 15.8182C153.212 15.3888 152.879 14.841 152.774 14.0957L151.463 14.2804L150.153 14.4651C150.359 15.9249 151.082 17.1213 152.282 17.975L153.049 16.8966ZM151.463 14.2804L151.533 15.6019L154.683 15.4359L154.614 14.1144L154.544 12.7928L151.393 12.9589L151.463 14.2804ZM154.614 14.1144L153.317 14.3793C153.475 15.1547 153.887 15.825 154.567 16.2815L155.305 15.1827L156.042 14.084C155.991 14.0492 155.942 14.0064 155.91 13.8495L154.614 14.1144ZM155.305 15.1827L154.578 16.2885C155.217 16.7089 155.96 16.8664 156.711 16.8664V15.5431V14.2197C156.319 14.2197 156.124 14.1377 156.032 14.0769L155.305 15.1827ZM156.711 15.5431L156.711 16.8664C157.428 16.8664 158.152 16.7305 158.772 16.3383L158.065 15.2198L157.357 14.1013C157.296 14.1402 157.117 14.2197 156.711 14.2197L156.711 15.5431ZM158.065 15.2198L158.776 16.3355C159.416 15.9273 159.902 15.2686 159.914 14.3894L158.591 14.3702L157.268 14.351C157.268 14.327 157.272 14.2927 157.283 14.2526C157.295 14.2122 157.312 14.1755 157.331 14.1449C157.369 14.0834 157.396 14.0765 157.353 14.1042L158.065 15.2198ZM158.591 14.3702L159.914 14.3472C159.902 13.6312 159.57 13.0248 159.03 12.6083L158.222 13.6564L157.414 14.7045C157.402 14.6954 157.358 14.657 157.32 14.5822C157.28 14.5055 157.269 14.4348 157.268 14.3933L158.591 14.3702ZM158.222 13.6564L159.043 12.6187C158.565 12.24 157.957 12.0398 157.369 11.9222L157.11 13.2198L156.85 14.5175C157.044 14.5563 157.184 14.5984 157.28 14.636C157.377 14.6744 157.408 14.6996 157.401 14.694L158.222 13.6564ZM157.11 13.2198L157.368 11.922L155.368 11.5236L155.11 12.8214L154.851 14.1192L156.851 14.5177L157.11 13.2198ZM155.11 12.8214L155.369 11.5237C154.385 11.3268 153.828 11.0176 153.53 10.717L152.59 11.6485L151.65 12.5801C152.455 13.3923 153.579 13.8648 154.85 14.119L155.11 12.8214ZM152.59 11.6485L153.534 10.7214C153.258 10.4398 153.094 10.0761 153.094 9.52062H151.771H150.447C150.447 10.6892 150.83 11.7445 151.646 12.5757L152.59 11.6485ZM151.771 9.52062L153.094 9.52063C153.094 9.03246 153.221 8.67906 153.432 8.39592L152.372 7.60362L151.312 6.81133C150.722 7.60077 150.447 8.52532 150.447 9.5206L151.771 9.52062ZM152.372 7.60362L153.427 8.40236C153.664 8.08924 154.022 7.809 154.568 7.59227L154.079 6.36241L153.591 5.13255C152.673 5.4973 151.892 6.04529 151.317 6.80489L152.372 7.60362ZM154.079 6.36241L154.565 7.59342C155.114 7.37692 155.805 7.25022 156.666 7.25022V5.92687V4.60352C155.553 4.60352 154.519 4.76649 153.594 5.13141L154.079 6.36241ZM54.8977 5.90245L54.8977 7.2258C55.5154 7.22582 56.0663 7.3247 56.562 7.5101L57.0256 6.27062L57.4892 5.03114C56.6716 4.72532 55.8037 4.57912 54.8977 4.5791L54.8977 5.90245ZM57.0256 6.27062L56.5733 7.51428C57.0594 7.69104 57.4718 7.95221 57.8242 8.30101L58.7551 7.36046L59.686 6.41991C59.0561 5.79637 58.315 5.33141 57.4779 5.02696L57.0256 6.27062ZM58.7551 7.36046L57.829 8.30571C58.1688 8.63871 58.4557 9.07881 58.6729 9.65919L59.9123 9.19542L61.1518 8.73165C60.8175 7.83846 60.3338 7.0546 59.6813 6.41521L58.7551 7.36046ZM59.9123 9.19542L58.6739 9.66194C58.8813 10.2123 59.003 10.9051 59.003 11.7667L60.3264 11.7667L61.6497 11.7667C61.6497 10.6636 61.4947 9.6421 61.1507 8.7289L59.9123 9.19542ZM60.3264 11.7667H59.003V12.6466H60.3264H61.6497V11.7667H60.3264ZM60.3264 12.6466V11.3232H52.4612V12.6466V13.9699H60.3264V12.6466ZM52.4612 12.6466H51.1378V12.6544H52.4612H53.7845V12.6466H52.4612ZM52.4612 12.6544L51.1378 12.6545C51.1378 13.3884 51.2741 14.0957 51.5968 14.7334L52.7776 14.1359L53.9584 13.5383C53.86 13.3439 53.7845 13.0632 53.7845 12.6544L52.4612 12.6544ZM52.7776 14.1359L51.6027 14.7448C51.9297 15.3757 52.4067 15.887 53.0253 16.244L53.6867 15.0978L54.3482 13.9516C54.1853 13.8576 54.0564 13.7275 53.9525 13.5269L52.7776 14.1359ZM53.6867 15.0978L53.0254 16.244C53.6518 16.6054 54.353 16.76 55.0784 16.76V15.4366V14.1133C54.731 14.1133 54.5036 14.0413 54.3481 13.9515L53.6867 15.0978ZM55.0784 15.4366L55.0785 16.76C55.5587 16.7599 56.0305 16.6922 56.4807 16.5395L56.0559 15.2862L55.631 14.0329C55.4899 14.0808 55.3096 14.1133 55.0782 14.1133L55.0784 15.4366ZM56.0559 15.2862L56.4809 16.5395C56.9458 16.3818 57.3683 16.1352 57.7271 15.7935L56.8147 14.8351L55.9022 13.8766C55.8403 13.9356 55.757 13.9902 55.6309 14.033L56.0559 15.2862ZM56.8147 14.8351L57.7273 15.7934C58.0913 15.4467 58.358 15.0298 58.5335 14.5671L57.2961 14.0978L56.0588 13.6284C56.0137 13.7472 55.9591 13.8224 55.902 13.8768L56.8147 14.8351ZM57.2961 14.0978L57.2091 15.4182L60.172 15.6136L60.259 14.2931L60.3461 12.9726L57.3832 12.7773L57.2961 14.0978ZM60.259 14.2931L58.9642 14.0195C58.8593 14.5162 58.6511 14.9303 58.3394 15.2856L59.3342 16.1583L60.329 17.031C60.9496 16.3237 61.358 15.4935 61.5538 14.5666L60.259 14.2931ZM59.3342 16.1583L58.3389 15.2862C58.0314 15.6371 57.614 15.9352 57.0483 16.1638L57.5442 17.3907L58.04 18.6177C58.9379 18.2548 59.7147 17.7322 60.3295 17.0304L59.3342 16.1583ZM57.5442 17.3907L57.0527 16.162C56.5117 16.3784 55.8445 16.5039 55.0256 16.5039L55.0256 17.8273L55.0257 19.1506C56.1113 19.1506 57.1231 18.9845 58.0357 18.6194L57.5442 17.3907ZM55.0256 17.8273V16.5039C54.0171 16.5039 53.2268 16.3007 52.6051 15.9516L51.9573 17.1056L51.3094 18.2595C52.402 18.8729 53.6581 19.1506 55.0256 19.1506V17.8273ZM51.9573 17.1056L52.6132 15.9562C51.9868 15.5988 51.5081 15.101 51.1617 14.4347L49.9875 15.045L48.8133 15.6554C49.3893 16.7634 50.2236 17.6399 51.3014 18.255L51.9573 17.1056ZM49.9875 15.045L51.1632 14.4375C50.8178 13.7691 50.6195 12.9311 50.6195 11.88L49.2961 11.88L47.9728 11.88C47.9728 13.2646 48.2352 14.5366 48.8119 15.6526L49.9875 15.045ZM49.2961 11.88H50.6195C50.6195 10.8649 50.8154 10.0363 51.1645 9.35695L49.9875 8.75206L48.8105 8.14718C48.2375 9.26227 47.9728 10.5192 47.9728 11.88H49.2961ZM49.9875 8.75206L51.1645 9.357C51.5167 8.67181 51.9971 8.15963 52.6147 7.78972L51.9348 6.65441L51.2548 5.51909C50.1986 6.15169 49.3806 7.03802 48.8105 8.14713L49.9875 8.75206ZM51.9348 6.65441L52.6117 7.79155C53.2189 7.43012 53.9653 7.2258 54.8977 7.2258V5.90245V4.5791C53.5643 4.5791 52.335 4.87615 51.2579 5.51726L51.9348 6.65441ZM142.176 12.8351L140.853 12.8449C140.86 13.7609 141.111 14.6453 141.747 15.3426L142.725 14.4513L143.703 13.5599C143.617 13.4654 143.503 13.2722 143.499 12.8252L142.176 12.8351ZM142.725 14.4513L141.747 15.3427C142.393 16.0519 143.252 16.3683 144.176 16.3684L144.176 15.045L144.176 13.7217C143.887 13.7217 143.778 13.6426 143.703 13.5599L142.725 14.4513ZM144.176 15.045V16.3684C144.77 16.3684 145.342 16.232 145.872 15.9553L145.259 14.7823L144.646 13.6094C144.504 13.6835 144.354 13.7217 144.176 13.7217V15.045ZM145.259 14.7823L145.885 15.9481C146.449 15.6452 146.893 15.2013 147.213 14.6543L146.072 13.9855L144.93 13.3166C144.839 13.4713 144.741 13.5586 144.633 13.6166L145.259 14.7823ZM146.072 13.9855L147.206 14.6663C147.572 14.0567 147.709 13.3673 147.702 12.672L146.379 12.6847L145.056 12.6974C145.059 13.0343 144.992 13.2126 144.937 13.3046L146.072 13.9855ZM146.379 12.6847H147.702V6.05284H146.379H145.056V12.6847H146.379ZM146.379 6.05284V7.37619H149.582V6.05284V4.72949H146.379V6.05284ZM149.582 6.05284H148.259V17.6017H149.582H150.906V6.05284H149.582ZM149.582 17.6017V16.2783H146.507V17.6017V18.925H149.582V17.6017ZM146.507 17.6017H147.83V15.504H146.507H145.184V17.6017H146.507ZM146.507 15.504V14.1807H146.387V15.504V16.8274H146.507V15.504ZM146.387 15.504L145.152 15.0283C144.989 15.4504 144.729 15.7793 144.344 16.0404L145.086 17.1359L145.829 18.2313C146.656 17.6704 147.263 16.911 147.622 15.9797L146.387 15.504ZM145.086 17.1359L144.34 16.0432C143.997 16.277 143.536 16.4287 142.883 16.4287L142.883 17.7521L142.883 19.0754C143.964 19.0754 144.972 18.8168 145.833 18.2285L145.086 17.1359ZM142.883 17.7521V16.4287C142.319 16.4287 141.88 16.3028 141.524 16.0901L140.845 17.2257L140.166 18.3613C140.983 18.8504 141.904 19.0754 142.883 19.0754V17.7521ZM140.845 17.2257L141.524 16.0901C141.164 15.8746 140.872 15.5668 140.647 15.1268L139.469 15.7296L138.291 16.3324C138.727 17.1855 139.353 17.875 140.165 18.3612L140.845 17.2257ZM139.469 15.7296L140.651 15.1341C140.437 14.7095 140.3 14.1462 140.296 13.399L138.973 13.4064L137.65 13.4138C137.655 14.4709 137.85 15.4565 138.287 16.3251L139.469 15.7296ZM138.973 13.4064H140.296V6.05284H138.973H137.65V13.4064H138.973ZM138.973 6.05284V7.37619H142.176V6.05284V4.72949H138.973V6.05284ZM142.176 6.05284H140.853V12.8351H142.176H143.499V6.05284H142.176ZM16.3635 17.6017V16.2783H12.8752V17.6017V18.925H16.3635V17.6017ZM12.8752 17.6017L14.1338 17.1929L12.9932 13.6811L11.7346 14.09L10.476 14.4988L11.6166 18.0105L12.8752 17.6017ZM11.7346 14.09V12.7666H6.17503V14.09V15.4133H11.7346V14.09ZM6.17503 14.09L4.91661 13.6805L3.77403 17.1922L5.03245 17.6017L6.29087 18.0111L7.43345 14.4994L6.17503 14.09ZM5.03245 17.6017V16.2783H1.67308V17.6017V18.925H5.03245V17.6017ZM1.67308 17.6017L2.96086 17.9064C3.03273 17.6027 3.15184 17.1189 3.31551 16.5155L2.03831 16.1691L0.761112 15.8226C0.588949 16.4573 0.46284 16.9692 0.385297 17.2969L1.67308 17.6017ZM2.03831 16.1691L3.28925 16.6008L5.28534 10.8176L4.03441 10.3859L2.78347 9.95409L0.787378 15.7373L2.03831 16.1691ZM4.03441 10.3859L5.24448 10.9216C5.79378 9.68078 6.40339 8.56697 7.05293 7.7435L6.0139 6.92394L4.97487 6.10438C4.13112 7.17407 3.41655 8.51241 2.82433 9.85015L4.03441 10.3859ZM6.0139 6.92394L7.05288 7.74355C8.26101 6.21206 10.535 4.55 12.0105 3.56291L11.2746 2.463L10.5388 1.36309C9.07145 2.34475 6.47046 4.20849 4.97491 6.10432L6.0139 6.92394ZM11.2746 2.463L10.0203 2.88466L15.1091 18.0233L16.3635 17.6017L17.6179 17.18L12.529 2.04134L11.2746 2.463ZM24.8186 5.90245V7.2258C25.4229 7.2258 25.8837 7.3562 26.2463 7.56946L26.9172 6.42882L27.5882 5.28818C26.7577 4.79967 25.8183 4.5791 24.8186 4.5791V5.90245ZM26.9172 6.42882L26.2461 7.56937C26.6118 7.78458 26.9047 8.09219 27.1279 8.5318L28.3078 7.93273L29.4878 7.33366C29.0495 6.47029 28.4152 5.77481 27.5883 5.28827L26.9172 6.42882ZM28.3078 7.93273L27.1297 8.53536C27.3451 8.9566 27.4806 9.51221 27.4806 10.2482H28.8039H30.1273C30.1273 9.18989 29.932 8.20198 29.486 7.33009L28.3078 7.93273ZM28.8039 10.2482H27.4806V17.6017H28.8039H30.1273V10.2482H28.8039ZM28.8039 17.6017V16.2783H25.6008V17.6017V18.925H28.8039V17.6017ZM25.6008 17.6017H26.9242V10.8194H25.6008H24.2775V17.6017H25.6008ZM25.6008 10.8194L26.9241 10.8288C26.9307 9.89422 26.6899 8.97935 26.0317 8.26703L25.0598 9.16515L24.0879 10.0633C24.1615 10.1429 24.2809 10.3312 24.2775 10.8101L25.6008 10.8194ZM25.0598 9.16515L26.0373 8.27311C25.3748 7.54708 24.4876 7.24023 23.5481 7.24023V8.56359V9.88694C23.8917 9.88694 24.013 9.98125 24.0823 10.0572L25.0598 9.16515ZM23.5481 8.56359L23.548 7.24023C22.9215 7.24028 22.3122 7.37715 21.7585 7.68752L22.4055 8.84191L23.0525 9.99629C23.1603 9.93589 23.3128 9.88695 23.5482 9.88694L23.5481 8.56359ZM22.4055 8.84191L21.7508 7.69183C21.187 8.01279 20.7591 8.47915 20.4653 9.04283L21.6389 9.65441L22.8125 10.266C22.8896 10.1179 22.9724 10.042 23.0602 9.99198L22.4055 8.84191ZM21.6389 9.65441L20.462 9.04921C20.1664 9.62407 20.0439 10.2607 20.0373 10.9115L21.3606 10.9249L22.6839 10.9383C22.6873 10.5967 22.7505 10.3865 22.8158 10.2596L21.6389 9.65441ZM21.3606 10.9249H20.0372V17.6017H21.3606H22.6839V10.9249H21.3606ZM21.3606 17.6017V16.2783H18.1575V17.6017V18.925H21.3606V17.6017ZM18.1575 17.6017H19.4808V6.05284H18.1575H16.8341V17.6017H18.1575ZM18.1575 6.05284V7.37619H21.2102V6.05284V4.72949H18.1575V6.05284ZM21.2102 6.05284H19.8868V8.08995H21.2102H22.5335V6.05284H21.2102ZM21.2102 8.08995V9.4133H21.345V8.08995V6.7666H21.2102V8.08995ZM21.345 8.08995L22.5817 8.56071C22.7376 8.15131 22.986 7.84387 23.3523 7.60576L22.6311 6.4962L21.9099 5.38665C21.0732 5.93048 20.4636 6.68527 20.1082 7.6192L21.345 8.08995ZM22.6311 6.4962L23.3587 7.60154C23.7057 7.37314 24.1701 7.22585 24.8187 7.2258L24.8186 5.90245L24.8185 4.5791C23.7532 4.57919 22.7593 4.82743 21.9034 5.39087L22.6311 6.4962ZM34.5315 17.6017V16.2783H31.3284V17.6017V18.925H34.5315V17.6017ZM31.3284 17.6017H32.6517V6.05284H31.3284H30.005V17.6017H31.3284ZM31.3284 6.05284V7.37619H34.5315V6.05284V4.72949H31.3284V6.05284ZM34.5315 6.05284H33.2081V17.6017H34.5315H35.8548V6.05284H34.5315ZM43.0901 13.9025V15.2258H43.2326V13.9025V12.5791H43.0901V13.9025ZM43.2326 13.9025L44.4935 14.3044L48.223 2.60516L46.9621 2.20323L45.7013 1.8013L41.9718 13.5005L43.2326 13.9025ZM46.9621 2.20323V3.52658H50.5715V2.20323V0.879883H46.9621V2.20323ZM50.5715 2.20323L49.3204 1.77192L44.0118 17.1704L45.2629 17.6017L46.514 18.033L51.8226 2.63455L50.5715 2.20323ZM45.2629 17.6017V16.2783H41.0666V17.6017V18.925H45.2629V17.6017ZM41.0666 17.6017L42.3176 17.1699L37.0021 1.77143L35.7512 2.20323L34.5003 2.63504L39.8157 18.0335L41.0666 17.6017ZM35.7512 2.20323V3.52658H39.3674V2.20323V0.879883H35.7512V2.20323ZM39.3674 2.20323L38.1064 2.6045L41.829 14.3037L43.0901 13.9025L44.3511 13.5012L40.6285 1.80197L39.3674 2.20323ZM67.5237 5.88683L67.5236 7.21018C67.6286 7.21018 67.7533 7.21693 67.9 7.23279L68.0422 5.9171L68.1845 4.60142C67.9604 4.57719 67.7394 4.56349 67.5238 4.56348L67.5237 5.88683ZM68.0422 5.9171L67.9 7.23278C68.039 7.24781 68.1403 7.26665 68.2097 7.284L68.5305 6.00011L68.8513 4.71622C68.6402 4.66348 68.4161 4.62646 68.1845 4.60142L68.0422 5.9171ZM68.5305 6.00011H67.2072V8.84191H68.5305H69.8538V6.00011H68.5305ZM68.5305 8.84191L68.9104 7.57426C68.6613 7.49961 68.373 7.44856 68.0798 7.40983L67.9065 8.72179L67.7332 10.0337C67.9707 10.0651 68.099 10.0941 68.1506 10.1096L68.5305 8.84191ZM67.9065 8.72179L68.0797 7.40982C67.7693 7.36884 67.4675 7.34573 67.1781 7.3457L67.178 8.66905L67.1778 9.9924C67.3291 9.99242 67.513 10.0047 67.7333 10.0338L67.9065 8.72179ZM67.178 8.66905V7.3457C66.5074 7.3457 65.8609 7.49431 65.2729 7.82009L65.9143 8.97765L66.5556 10.1352C66.7095 10.0499 66.9061 9.9924 67.178 9.9924V8.66905ZM65.9143 8.97765L65.2783 7.81714C64.7045 8.13159 64.2417 8.57903 63.9061 9.14085L65.0422 9.81944L66.1783 10.498C66.2738 10.3382 66.3924 10.2247 66.5503 10.1382L65.9143 8.97765ZM65.0422 9.81944L63.8991 9.15265C63.5557 9.74137 63.4035 10.3934 63.4034 11.0674L64.7268 11.0675L66.0501 11.0676C66.0502 10.7994 66.1077 10.6192 66.1853 10.4862L65.0422 9.81944ZM64.7268 11.0675H63.4034V17.6017H64.7268H66.0501V11.0675H64.7268ZM64.7268 17.6017V16.2783H61.5237V17.6017V18.925H64.7268V17.6017ZM61.5237 17.6017H62.847V6.05284H61.5237H60.2003V17.6017H61.5237ZM61.5237 6.05284V7.37619H64.6282V6.05284V4.72949H61.5237V6.05284ZM64.6282 6.05284H63.3048V8.06749H64.6282H65.9515V6.05284H64.6282ZM64.6282 8.06749V9.39084H64.7492V8.06749V6.74414H64.6282V8.06749ZM64.7492 8.06749L66.0189 8.44048C66.1659 7.94023 66.3773 7.66856 66.5943 7.50851L65.8088 6.44347L65.0234 5.37842C64.2481 5.95016 63.7536 6.76146 63.4796 7.69451L64.7492 8.06749ZM65.8088 6.44347L66.6011 7.50343C66.8582 7.31125 67.1494 7.21018 67.5237 7.21018V5.88683V4.56348C66.6047 4.56348 65.7519 4.83381 65.0165 5.3835L65.8088 6.44347ZM75.1321 5.67687L75.132 7.00022C76.419 7.00024 77.2563 7.27365 77.7906 7.6672L78.5754 6.60167L79.3602 5.53614C78.2204 4.69662 76.7624 4.35354 75.1321 4.35352L75.1321 5.67687ZM78.5754 6.60167L77.7937 7.66943C78.3357 8.06627 78.6426 8.57804 78.7371 9.29353L80.0491 9.12023L81.361 8.94693C81.1748 7.53712 80.4994 6.37016 79.3572 5.53391L78.5754 6.60167ZM80.0491 9.12023L79.9677 7.79938L77.0351 7.98004L77.1164 9.30089L77.1978 10.6217L80.1304 10.4411L80.0491 9.12023ZM77.1164 9.30089L78.4141 9.04136C78.3205 8.57321 78.1161 8.14815 77.814 7.78197L76.7932 8.62413L75.7724 9.46629C75.8011 9.50113 75.8122 9.5273 75.8188 9.56042L77.1164 9.30089ZM76.7932 8.62413L77.824 7.79428C77.5131 7.40802 77.1193 7.12205 76.6775 6.92564L76.1399 8.13487L75.6023 9.34411C75.7016 9.38824 75.7426 9.42943 75.7624 9.45399L76.7932 8.62413ZM76.1399 8.13487L76.7044 6.93799C76.221 6.70998 75.6995 6.62407 75.1849 6.62402L75.1848 7.94737L75.1847 9.27072C75.4118 9.27074 75.5275 9.3092 75.5753 9.33176L76.1399 8.13487ZM75.1848 7.94737V6.62402C74.5023 6.62402 73.8287 6.76942 73.2337 7.13681L73.9289 8.2628L74.6242 9.3888C74.7109 9.33529 74.875 9.27073 75.1848 9.27073V7.94737ZM73.9289 8.2628L73.2456 7.12951C72.5794 7.53121 72.0941 8.20219 72.0939 9.08965L73.4172 9.08995L74.7406 9.09026C74.7406 9.1137 74.7375 9.15005 74.7253 9.19442C74.713 9.23934 74.694 9.28233 74.6706 9.32012C74.6231 9.39702 74.5815 9.41463 74.6122 9.39609L73.9289 8.2628ZM73.4172 9.08995H72.0939C72.0939 9.77548 72.3915 10.3658 72.8831 10.7905L73.7483 9.78917L74.6135 8.78782C74.6243 8.79723 74.6627 8.8347 74.696 8.90495C74.7303 8.97718 74.7406 9.04517 74.7406 9.08995H73.4172ZM73.7483 9.78917L72.8833 10.7907C73.3628 11.2048 74.0122 11.4143 74.6059 11.542L74.884 10.2482L75.1621 8.95436C74.9449 8.90767 74.7932 8.8602 74.6936 8.81995C74.5892 8.77774 74.5794 8.75841 74.6132 8.78763L73.7483 9.78917ZM74.884 10.2482L74.6227 11.5455L76.7126 11.9664L76.9739 10.6691L77.2351 9.37175L75.1453 8.95085L74.884 10.2482ZM76.9739 10.6691L76.7077 11.9654C77.708 12.1708 78.2814 12.4705 78.5858 12.7527L79.4856 11.7823L80.3854 10.812C79.5869 10.0716 78.4854 9.6285 77.2401 9.37275L76.9739 10.6691ZM79.4856 11.7823L78.5857 12.7526C78.8368 12.9855 78.9894 13.2902 78.9894 13.797L80.3127 13.797L81.6361 13.7969C81.636 12.6399 81.2367 11.6016 80.3855 10.8121L79.4856 11.7823ZM80.3127 13.797H78.9894C78.9894 14.2725 78.8565 14.647 78.6005 14.975L79.6438 15.7892L80.6871 16.6033C81.3228 15.7887 81.6361 14.8348 81.6361 13.797H80.3127ZM79.6438 15.7892L78.5962 14.9805C78.3169 15.3424 77.9088 15.6595 77.3156 15.906L77.8235 17.128L78.3313 18.3501C79.2821 17.9549 80.0885 17.3788 80.6913 16.5978L79.6438 15.7892ZM77.8235 17.128L77.3196 15.9043C76.7422 16.1421 76.034 16.2783 75.1692 16.2783V17.6017V18.925C76.3092 18.925 77.3709 18.7455 78.3273 18.3517L77.8235 17.128ZM75.1692 17.6017L75.1692 16.2783C73.8121 16.2783 72.8895 15.9945 72.275 15.5633L71.5149 16.6466L70.7548 17.7299C71.9547 18.5718 73.4688 18.925 75.1691 18.925L75.1692 17.6017ZM71.5149 16.6466L72.2819 15.5682C71.6782 15.1388 71.3444 14.591 71.2393 13.8457L69.9289 14.0304L68.6185 14.2151C68.8243 15.6749 69.5475 16.8713 70.7479 17.725L71.5149 16.6466ZM69.9289 14.0304L69.9986 15.3519L73.149 15.1859L73.0793 13.8644L73.0097 12.5428L69.8593 12.7089L69.9289 14.0304ZM73.0793 13.8644L71.7828 14.1293C71.9412 14.9047 72.3531 15.575 73.0332 16.0315L73.7707 14.9327L74.5083 13.834C74.4565 13.7992 74.408 13.7564 74.3759 13.5995L73.0793 13.8644ZM73.7707 14.9327L73.0437 16.0385C73.6832 16.459 74.4261 16.6164 75.177 16.6164V15.2931V13.9697C74.785 13.9697 74.5901 13.8877 74.4978 13.827L73.7707 14.9327ZM75.177 15.2931V16.6164C75.8943 16.6164 76.6176 16.4805 77.2378 16.0883L76.5305 14.9698L75.8232 13.8513C75.7617 13.8902 75.5825 13.9697 75.177 13.9697V15.2931ZM76.5305 14.9698L77.2421 16.0855C77.8822 15.6773 78.3673 15.0185 78.3801 14.1394L77.0569 14.1202L75.7337 14.101C75.734 14.0771 75.7376 14.0429 75.7491 14.0028C75.7607 13.9624 75.7776 13.9256 75.7966 13.895C75.8348 13.8333 75.8622 13.8265 75.8189 13.8541L76.5305 14.9698ZM77.0569 14.1202L78.38 14.0972C78.3676 13.384 78.0391 12.7767 77.497 12.3585L76.6887 13.4064L75.8804 14.4542C75.8677 14.4444 75.8235 14.4054 75.7849 14.3305C75.7454 14.2538 75.7344 14.1837 75.7337 14.1433L77.0569 14.1202ZM76.6887 13.4064L77.5101 12.3688C77.031 11.9895 76.422 11.7896 75.835 11.6722L75.5754 12.9698L75.3159 14.2675C75.5102 14.3063 75.6503 14.3485 75.7466 14.3862C75.8447 14.4247 75.8748 14.4499 75.8673 14.4439L76.6887 13.4064ZM75.5754 12.9698L75.834 11.672L73.834 11.2736L73.5754 12.5714L73.3169 13.8692L75.3169 14.2677L75.5754 12.9698ZM73.5754 12.5714L73.835 11.2737C72.851 11.077 72.2949 10.7678 71.9968 10.467L71.0569 11.3985L70.117 12.3301C70.9216 13.1419 72.0444 13.6147 73.3159 13.869L73.5754 12.5714ZM71.0569 11.3985L72.0011 10.4713C71.7238 10.189 71.5599 9.82517 71.5599 9.27062H70.2366H68.9132C68.9132 10.4404 69.2971 11.4953 70.1126 12.3258L71.0569 11.3985ZM70.2366 9.27062L71.5599 9.27063C71.5599 8.78255 71.6865 8.42904 71.8981 8.14588L70.8381 7.35362L69.7781 6.56137C69.1881 7.35074 68.9132 8.27533 68.9132 9.27061L70.2366 9.27062ZM70.8381 7.35362L71.8932 8.15236C72.1303 7.83927 72.4882 7.559 73.0337 7.34226L72.5451 6.11241L72.0566 4.88256C71.1385 5.24729 70.358 5.7953 69.783 6.55489L70.8381 7.35362ZM72.5451 6.11241L73.0309 7.34341C73.5796 7.1269 74.2706 7.00022 75.1321 7.00022V5.67687V4.35352C74.0185 4.35352 72.9844 4.51645 72.0594 4.88142L72.5451 6.11241ZM109.444 11.8868V13.2102H109.579V11.8868V10.5635H109.444V11.8868ZM109.579 11.8868H110.903V2.20323H109.579H108.256V11.8868H109.579ZM109.579 2.20323V3.52658H112.82V2.20323V0.879883H109.579V2.20323ZM112.82 2.20323H111.496V17.6017H112.82H114.143V2.20323H112.82ZM112.82 17.6017V16.2783H110.008V17.6017V18.925H112.82V17.6017ZM110.008 17.6017L111.097 16.8492L104.397 7.15685L103.309 7.90929L102.22 8.66173L108.919 18.3541L110.008 17.6017ZM103.309 7.90929V6.58594H103.196V7.90929V9.23264H103.309V7.90929ZM103.196 7.90929H101.872V17.6017H103.196H104.519V7.90929H103.196ZM103.196 17.6017V16.2783H99.9397V17.6017V18.925H103.196V17.6017ZM99.9397 17.6017H101.263V2.20323H99.9397H98.6163V17.6017H99.9397ZM99.9397 2.20323V3.52658H102.797V2.20323V0.879883H99.9397V2.20323ZM102.797 2.20323L101.706 2.95211L108.353 12.6357L109.444 11.8868L110.535 11.138L103.888 1.45436L102.797 2.20323ZM131.961 10.09L133.126 10.7171L135.299 6.68002L134.134 6.05284L132.969 5.42566L130.796 9.46277L131.961 10.09ZM134.134 6.05284V7.37619H137.42V6.05284V4.72949H134.134V6.05284ZM137.42 6.05284L136.275 5.38941L132.929 11.1638L134.074 11.8273L135.219 12.4907L138.565 6.71628L137.42 6.05284ZM134.074 11.8273L132.937 12.5039L136.373 18.2783L137.51 17.6017L138.647 16.925L135.212 11.1506L134.074 11.8273ZM137.51 17.6017V16.2783H134.239V17.6017V18.925H137.51V17.6017ZM134.239 17.6017L135.389 16.9457L133.111 12.9536L131.961 13.6095L130.812 14.2654L133.09 18.2576L134.239 17.6017ZM131.961 13.6095L130.807 12.9619L128.567 16.9541L129.721 17.6017L130.875 18.2493L133.115 14.2571L131.961 13.6095ZM129.721 17.6017V16.2783H126.412V17.6017V18.925H129.721V17.6017ZM126.412 17.6017L127.55 18.2773L130.979 12.5029L129.841 11.8273L128.703 11.1516L125.274 16.926L126.412 17.6017ZM129.841 11.8273L130.989 11.1694L127.681 5.39494L126.532 6.05284L125.384 6.71075L128.693 12.4852L129.841 11.8273ZM126.532 6.05284V7.37619H129.841V6.05284V4.72949H126.532V6.05284ZM129.841 6.05284L128.669 6.66813L130.79 10.7052L131.961 10.09L133.133 9.47467L131.013 5.43756L129.841 6.05284ZM87.6711 5.55773L87.671 6.88108C88.2871 6.88112 88.8377 6.98058 89.3345 7.16637L89.7981 5.92687L90.2616 4.68736C89.4455 4.38216 88.5784 4.23443 87.6712 4.23438L87.6711 5.55773ZM89.7981 5.92687L89.3458 7.17054C89.8317 7.34723 90.2442 7.60846 90.5967 7.95731L91.5276 7.01671L92.4584 6.07611C91.8285 5.45273 91.0876 4.98764 90.2503 4.68319L89.7981 5.92687ZM91.5276 7.01671L90.6014 7.96196C90.942 8.29569 91.2296 8.73603 91.4463 9.31541L92.6858 8.85167L93.9252 8.38794C93.5906 7.49358 93.1056 6.71019 92.4537 6.07146L91.5276 7.01671ZM92.6858 8.85167L91.4474 9.31815C91.6547 9.86862 91.7765 10.5614 91.7765 11.423L93.0998 11.423L94.4232 11.423C94.4232 10.3197 94.2681 9.29836 93.9242 8.38519L92.6858 8.85167ZM93.0998 11.423H91.7765V12.3028H93.0998H94.4232V11.423H93.0998ZM93.0998 12.3028V10.9795H85.2346V12.3028V13.6262H93.0998V12.3028ZM85.2346 12.3028H83.9113V12.3107H85.2346H86.558V12.3028H85.2346ZM85.2346 12.3107L83.9113 12.3108C83.9113 13.043 84.0463 13.7501 84.3691 14.3884L85.55 13.7911L86.7309 13.1938C86.6331 13.0005 86.558 12.7205 86.558 12.3105L85.2346 12.3107ZM85.55 13.7911L84.375 14.3999C84.7022 15.0314 85.1801 15.5433 85.7989 15.9003L86.4602 14.754L87.1215 13.6077C86.9583 13.5136 86.829 13.383 86.7251 13.1824L85.55 13.7911ZM86.4602 14.754L85.7989 15.9003C86.4263 16.2622 87.1271 16.4152 87.8507 16.4153L87.8508 15.0919L87.8509 13.7686C87.5022 13.7685 87.2758 13.6968 87.1214 13.6077L86.4602 14.754ZM87.8508 15.0919V16.4153C88.3313 16.4153 88.803 16.3474 89.2531 16.1948L88.8284 14.9415L88.4036 13.6882C88.2622 13.7361 88.082 13.7686 87.8508 13.7686V15.0919ZM88.8284 14.9415L89.2532 16.1948C89.7169 16.0376 90.1406 15.7917 90.5008 15.4486L89.5881 14.4903L88.6755 13.5321C88.6146 13.59 88.5313 13.6449 88.4035 13.6882L88.8284 14.9415ZM89.5881 14.4903L90.5009 15.4485C90.8634 15.1032 91.1308 14.6876 91.3069 14.2234L90.0696 13.754L88.8322 13.2847C88.7879 13.4016 88.7337 13.4766 88.6753 13.5322L89.5881 14.4903ZM90.0696 13.754L89.9825 15.0745L92.9444 15.2698L93.0315 13.9493L93.1186 12.6288L90.1566 12.4335L90.0696 13.754ZM93.0315 13.9493L91.7367 13.6758C91.6318 14.1725 91.4236 14.5865 91.1119 14.9418L92.1067 15.8146L93.1014 16.6873C93.7221 15.9799 94.1304 15.1497 94.3262 14.2229L93.0315 13.9493ZM92.1067 15.8146L91.1114 14.9423C90.8036 15.2936 90.3865 15.5918 89.8217 15.8201L90.3176 17.047L90.8135 18.2739C91.7119 17.9108 92.4876 17.3877 93.1019 16.6868L92.1067 15.8146ZM90.3176 17.047L89.8261 15.8183C89.2852 16.0347 88.6172 16.1602 87.7981 16.1602V17.4835V18.8069C88.8837 18.8069 89.8963 18.6408 90.8091 18.2757L90.3176 17.047ZM87.7981 17.4835L87.7981 16.1602C86.79 16.1601 86.0002 15.9569 85.3785 15.6079L84.7307 16.7618L84.0829 17.9158C85.1752 18.529 86.4306 18.8068 87.798 18.8069L87.7981 17.4835ZM84.7307 16.7618L85.3865 15.6124C84.7603 15.2551 84.2816 14.7573 83.9352 14.0909L82.761 14.7013L81.5868 15.3116C82.1627 16.4196 82.9969 17.2962 84.0749 17.9112L84.7307 16.7618ZM82.761 14.7013L83.9366 14.0937C83.5909 13.4248 83.392 12.5865 83.3919 11.5362L82.0686 11.5362L80.7452 11.5363C80.7453 12.9217 81.0089 14.1935 81.5854 15.3089L82.761 14.7013ZM82.0686 11.5362H83.3919C83.3919 10.5221 83.5885 9.6932 83.938 9.01318L82.761 8.40831L81.5839 7.80344C81.0113 8.91784 80.7452 10.1746 80.7452 11.5362H82.0686ZM82.761 8.40831L83.938 9.01325C84.2905 8.32729 84.7709 7.81459 85.3881 7.44504L84.7082 6.30968L84.0284 5.17432C82.9713 5.80731 82.1538 6.69479 81.584 7.80338L82.761 8.40831ZM84.7082 6.30968L85.3851 7.44686C85.9923 7.08546 86.7389 6.88108 87.6711 6.88108V5.55773V4.23438C86.3378 4.23438 85.1084 4.53152 84.0314 5.1725L84.7082 6.30968ZM7.00218 11.5489V12.8723H10.9094V11.5489V10.2256H7.00218V11.5489ZM10.9094 11.5489L12.1681 11.1403L10.2765 5.31319L9.0178 5.72179L7.75911 6.13038L9.65071 11.9575L10.9094 11.5489ZM9.0178 5.72179V4.39844H8.89769V5.72179V7.04514H9.0178V5.72179ZM8.89769 5.72179L7.63924 5.31243L5.74373 11.1396L7.00218 11.5489L8.26062 11.9583L10.1561 6.13115L8.89769 5.72179ZM120.087 8.50401L120.087 7.18066C119.389 7.18074 118.717 7.34468 118.113 7.70713L118.794 8.84191L119.475 9.97668C119.623 9.88813 119.813 9.8274 120.087 9.82737L120.087 8.50401ZM118.794 8.84191L118.118 7.70444C117.548 8.04352 117.092 8.51089 116.768 9.08967L117.922 9.73644L119.077 10.3832C119.173 10.2104 119.299 10.0813 119.471 9.97937L118.794 8.84191ZM117.922 9.73644L116.771 9.08322C116.467 9.61844 116.309 10.2023 116.281 10.8106L117.603 10.8722L118.925 10.9338C118.935 10.7127 118.988 10.5388 119.073 10.3896L117.922 9.73644ZM117.603 10.8722V12.1955H122.448V10.8722V9.54883H117.603V10.8722ZM122.448 10.8722L123.772 10.8722C123.772 10.2133 123.627 9.57564 123.301 8.99703L122.148 9.64659L120.995 10.2962C121.07 10.4293 121.125 10.6088 121.125 10.8722L122.448 10.8722ZM122.148 9.64659L123.301 8.99703C122.981 8.43051 122.529 7.97784 121.962 7.65867L121.313 8.81163L120.663 9.9646C120.808 10.0464 120.913 10.1509 120.995 10.2962L122.148 9.64659ZM121.313 8.81163L121.981 7.66958C121.399 7.3285 120.752 7.18066 120.087 7.18066V8.50401V9.82737C120.354 9.82737 120.525 9.88406 120.644 9.95369L121.313 8.81163ZM54.9504 8.29308V6.96973C54.2505 6.96973 53.5786 7.1354 52.9756 7.49718L53.6565 8.63194L54.3373 9.76671C54.4863 9.67735 54.6778 9.61643 54.9504 9.61643V8.29308ZM53.6565 8.63194L52.9799 7.49463C52.4102 7.83351 51.9541 8.30067 51.6298 8.87988L52.7844 9.52648L53.939 10.1731C54.0356 10.0007 54.1613 9.87144 54.3331 9.76926L53.6565 8.63194ZM52.7844 9.52648L51.6334 8.8734C51.3302 9.40786 51.1716 9.9909 51.1432 10.5995L52.4651 10.6612L53.787 10.723C53.7973 10.5027 53.8505 10.3291 53.9354 10.1795L52.7844 9.52648ZM52.4651 10.6612V11.9846H57.3108V10.6612V9.33789H52.4651V10.6612ZM57.3108 10.6612L58.6341 10.6611C58.634 10.0026 58.4889 9.3647 58.163 8.7861L57.01 9.43566L55.857 10.0852C55.9319 10.2182 55.9874 10.3979 55.9874 10.6614L57.3108 10.6612ZM57.01 9.43566L58.1628 8.78582C57.8438 8.21991 57.3919 7.76788 56.8257 7.44879L56.176 8.60167L55.5263 9.75456C55.6713 9.83627 55.7753 9.94023 55.8572 10.0855L57.01 9.43566ZM56.176 8.60167L56.8448 7.45977C56.2634 7.11923 55.6173 6.96978 54.9505 6.96973L54.9504 8.29308L54.9503 9.61643C55.2157 9.61645 55.3869 9.67314 55.5072 9.74357L56.176 8.60167ZM87.7229 7.94933L87.7227 6.62598C87.0248 6.62607 86.3532 6.79 85.7491 7.15244L86.4299 8.28722L87.1107 9.422C87.2583 9.33346 87.4489 9.27271 87.7231 9.27268L87.7229 7.94933ZM86.4299 8.28722L85.7536 7.14975C85.182 7.48959 84.7268 7.95824 84.4032 8.53613L85.5578 9.18273L86.7125 9.82932C86.8099 9.65531 86.9359 9.52596 87.1062 9.42469L86.4299 8.28722ZM85.5578 9.18273L84.4068 8.52968C84.1036 9.06409 83.945 9.64701 83.9166 10.2558L85.2385 10.3175L86.5604 10.3792C86.5707 10.159 86.6239 9.98546 86.7088 9.83577L85.5578 9.18273ZM85.2385 10.3175V11.6408H90.0842V10.3175V8.99414H85.2385V10.3175ZM90.0842 10.3175L91.4076 10.3174C91.4075 9.65867 91.2624 9.02095 90.9364 8.44235L89.7834 9.09191L88.6305 9.74146C88.7054 9.87457 88.7608 10.0541 88.7609 10.3176L90.0842 10.3175ZM89.7834 9.09191L90.9363 8.44226C90.6164 7.87453 90.1632 7.42335 89.598 7.10495L88.9485 8.25792L88.2989 9.41089C88.4455 9.49345 88.5494 9.59763 88.6305 9.74155L89.7834 9.09191ZM88.9485 8.25792L89.6172 7.11598C89.0359 6.77556 88.3899 6.62598 87.7229 6.62598V7.94933V9.27268C87.9881 9.27268 88.1593 9.32934 88.2797 9.39986L88.9485 8.25792ZM32.9377 1.32335L32.9377 2.6467C33.0839 2.6467 33.1596 2.68259 33.2417 2.76098L34.1555 1.80382L35.0693 0.846657C34.4799 0.283894 33.7436 7.39098e-06 32.9377 0L32.9377 1.32335ZM34.1555 1.80382L33.2561 2.77458C33.3121 2.82644 33.3283 2.85873 33.3327 2.86842C33.3363 2.87652 33.3439 2.89486 33.3439 2.93961L34.6672 2.93956L35.9906 2.93952C35.9905 2.10788 35.6494 1.38388 35.0549 0.83306L34.1555 1.80382ZM34.6672 2.93956H33.3439C33.3439 2.98889 33.3355 3.01167 33.3301 3.02372C33.3241 3.03724 33.3059 3.07228 33.2485 3.12629L34.1555 4.08995L35.0625 5.05362C35.6537 4.4972 35.9906 3.77117 35.9906 2.93956H34.6672ZM34.1555 4.08995L33.249 3.12579C33.1673 3.20264 33.0891 3.24023 32.9377 3.24023L32.9377 4.56359L32.9377 5.88694C33.7386 5.88693 34.472 5.60871 35.062 5.05411L34.1555 4.08995ZM32.9377 4.56359V3.24023C32.7857 3.24023 32.701 3.20209 32.6115 3.11919L31.7121 4.08995L30.8128 5.06071C31.405 5.60941 32.1373 5.88694 32.9377 5.88694V4.56359ZM31.7121 4.08995L32.6262 3.13304C32.5395 3.05017 32.5316 3.00754 32.5316 2.93956H31.2082H29.8849C29.8849 3.76382 30.2131 4.48812 30.798 5.04687L31.7121 4.08995ZM31.2082 2.93956L32.5316 2.93961C32.5316 2.89175 32.5396 2.87095 32.5439 2.86137C32.5487 2.8505 32.5648 2.81855 32.6187 2.76791L31.7121 1.80382L30.8056 0.839732C30.2172 1.39301 29.8849 2.11534 29.8849 2.93952L31.2082 2.93956ZM31.7121 1.80382L32.619 2.76763C32.7087 2.68318 32.7909 2.6467 32.9377 2.6467V1.32335V0C32.1324 0 31.3972 0.283125 30.8053 0.840012L31.7121 1.80382Z" fill="var(--stroke-0, white)" mask="url(#path-1-outside-1_0_292)"/>
</g>
<defs>
<linearGradient id="paint0_linear_0_292" x1="81.76" y1="1.67534" x2="81.76" y2="18.0382" gradientUnits="userSpaceOnUse">
<stop stop-color="#4001BD"/>
<stop offset="0.25" stop-color="#0C398E"/>
<stop offset="0.5" stop-color="#182D60"/>
<stop offset="1" stop-color="#10173B"/>
</linearGradient>
</defs>
</svg>
