<svg preserveAspectRatio="none" width="100%" height="100%" overflow="visible" style="display: block;" viewBox="0 0 223.499 40.3909" fill="none" xmlns="http://www.w3.org/2000/svg">
<g id="Group 25">
<path id="Union" d="M26.0049 1.49862L198.399 1.49862" stroke="url(#paint0_linear_0_265)" stroke-width="1.09562" stroke-linejoin="bevel"/>
<path id="Union_2" d="M196.522 38.6946L28.0701 38.6946" stroke="url(#paint1_linear_0_265)" stroke-width="1.09562" stroke-linejoin="bevel"/>
<path id="Union_3" d="M212.86 33.144L218.97 25.6506C221.605 22.4195 221.599 17.7796 218.956 14.5552L213.143 7.46311" stroke="url(#paint2_linear_0_265)" stroke-width="1.09562" stroke-linejoin="bevel"/>
<path id="Union_4" d="M10.5316 32.5364L4.80693 25.7745C2.03434 22.4995 2.04037 17.6988 4.82118 14.4308L8.99236 9.5289" stroke="url(#paint3_linear_0_265)" stroke-width="1.09562" stroke-linejoin="bevel"/>
<path id="Vector 11" d="M11.3615 32.7701C11.0783 33.5865 10.795 34.4029 10.5118 35.2193C10.6662 35.25 10.8206 35.2807 10.975 35.3114C12.2074 35.5564 13.4398 35.8015 14.6722 36.0466L14.8742 36.1496L15.2654 35.9891C16.507 35.0164 17.7486 34.0436 18.9901 33.0708C19.1141 32.9737 19.238 32.8766 19.3619 32.7795C19.2163 32.8393 19.0706 32.899 18.925 32.9588C17.4657 33.5574 16.0064 34.156 14.5471 34.7546L15.1403 34.6972C14.021 34.1264 12.9016 33.5555 11.7823 32.9847C11.642 32.9131 11.5018 32.8416 11.3615 32.7701Z" fill="url(#paint4_linear_0_265)"/>
<path id="Vector 12" d="M27.1093 38.1049C26.7018 38.8669 26.2942 39.6289 25.8866 40.3909C25.7811 40.3099 25.6756 40.229 25.5701 40.1481C24.728 39.5021 23.886 38.8562 23.0439 38.2103L22.8474 38.1434L22.6836 37.7354C22.6099 36.4052 22.5362 35.0749 22.4625 33.7447C22.4551 33.6119 22.4477 33.4792 22.4404 33.3464C22.4899 33.4698 22.5395 33.5932 22.589 33.7166C23.0853 34.953 23.5816 36.1894 24.0779 37.4257L23.7176 36.9509C24.7223 37.2927 25.727 37.6346 26.7317 37.9764C26.8575 38.0193 26.9834 38.0621 27.1093 38.1049Z" fill="url(#paint5_linear_0_265)"/>
<path id="Vector 11_2" d="M10.0424 9.39963C9.65795 8.62571 9.27355 7.85179 8.88915 7.07786C9.03843 7.02784 9.1877 6.97782 9.33698 6.92779C10.5284 6.52855 11.7198 6.12931 12.9112 5.73007L13.0985 5.60226L13.5069 5.71186C14.8617 6.51948 16.2166 7.3271 17.5714 8.13472C17.7066 8.21533 17.8419 8.29594 17.9771 8.37655C17.825 8.33574 17.673 8.29493 17.5209 8.25411C15.9976 7.84522 14.4742 7.43632 12.9508 7.02743L13.5465 7.00922C12.5085 7.71731 11.4705 8.42539 10.4325 9.13347C10.3025 9.22219 10.1724 9.31091 10.0424 9.39963Z" fill="url(#paint6_linear_0_265)"/>
<path id="Vector 12_2" d="M24.9872 2.11258C24.4864 1.40839 23.9856 0.704195 23.4847 3.09001e-08C23.3903 0.0936501 23.2959 0.1873 23.2015 0.28095C22.4481 1.02837 21.6947 1.7758 20.9412 2.52322L20.7548 2.61446L20.644 3.03994C20.7394 4.36879 20.8349 5.69763 20.9303 7.02648C20.9398 7.15911 20.9494 7.29174 20.9589 7.42438C20.9924 7.29569 21.0259 7.16701 21.0594 7.03832C21.395 5.74902 21.7307 4.45972 22.0663 3.17042L21.769 3.68714C22.7223 3.22073 23.6756 2.75432 24.6289 2.2879C24.7483 2.22946 24.8678 2.17102 24.9872 2.11258Z" fill="url(#paint7_linear_0_265)"/>
<path id="Vector 11_3" d="M212.525 7.15177C212.802 6.33327 213.079 5.51477 213.356 4.69627C213.217 4.67186 213.077 4.64744 212.938 4.62303C212 4.45893 211.063 4.29483 210.125 4.13072L209.85 3.98798L209.372 4.26361C208.293 5.44101 207.214 6.61841 206.135 7.79581C206.039 7.9002 205.944 8.0046 205.848 8.109C205.971 8.03831 206.093 7.96762 206.216 7.89694C207.6 7.09972 208.984 6.3025 210.368 5.50528L209.615 5.63816C210.459 6.07736 211.304 6.51656 212.148 6.95576C212.274 7.0211 212.399 7.08644 212.525 7.15177Z" fill="url(#paint8_linear_0_265)"/>
<path id="Vector 12_3" d="M199.211 2.47078C199.642 1.7218 200.073 0.972812 200.504 0.223827C200.6 0.304395 200.697 0.384964 200.794 0.465533C201.551 1.09639 202.308 1.72725 203.065 2.35811L203.206 2.40952L203.393 2.76178C203.574 4.029 203.754 5.29623 203.935 6.56345C203.953 6.68806 203.971 6.81266 203.989 6.93727C203.93 6.82602 203.871 6.71477 203.812 6.60352C203.213 5.47214 202.614 4.34075 202.016 3.20936L202.343 3.61303C201.417 3.2754 200.491 2.93777 199.565 2.60014C199.447 2.55702 199.329 2.5139 199.211 2.47078Z" fill="url(#paint9_linear_0_265)"/>
<path id="Vector 11_4" d="M212.115 33.2196C212.314 34.0604 212.514 34.9012 212.713 35.742C212.574 35.7528 212.436 35.7635 212.297 35.7742C211.393 35.8441 210.49 35.9139 209.587 35.9837L209.349 36.0808L208.905 35.8366C207.806 34.6734 206.707 33.5103 205.608 32.3472C205.512 32.246 205.417 32.1448 205.321 32.0435C205.443 32.1106 205.565 32.1776 205.687 32.2446C207.09 33.0149 208.492 33.7851 209.895 34.5554L209.213 34.4082C210.051 34.0648 210.89 33.7214 211.728 33.378C211.857 33.3252 211.986 33.2724 212.115 33.2196Z" fill="url(#paint10_linear_0_265)"/>
<path id="Vector 12_4" d="M198.209 37.4986C198.434 38.3328 198.66 39.167 198.885 40.0012C199.014 39.944 199.143 39.8868 199.272 39.8296C200.1 39.4618 200.929 39.0941 201.757 38.7263L201.992 38.7003L202.273 38.3041C202.77 36.7507 203.268 35.1973 203.765 33.6439C203.808 33.5096 203.851 33.3754 203.894 33.2411C203.812 33.356 203.731 33.471 203.649 33.5859C202.705 34.9158 201.76 36.2456 200.816 37.5755L201.332 37.1533C200.431 37.253 199.53 37.3526 198.629 37.4522C198.489 37.4676 198.349 37.4831 198.209 37.4986Z" fill="url(#paint11_linear_0_265)"/>
</g>
<defs>
<linearGradient id="paint0_linear_0_265" x1="198.399" y1="1.99862" x2="26.0049" y2="1.99862" gradientUnits="userSpaceOnUse">
<stop stop-color="#020C7B"/>
<stop offset="0.5" stop-color="#040825"/>
<stop offset="1" stop-color="#000D61"/>
</linearGradient>
<linearGradient id="paint1_linear_0_265" x1="196.522" y1="39.1946" x2="28.0701" y2="39.1946" gradientUnits="userSpaceOnUse">
<stop stop-color="#020C7B"/>
<stop offset="0.5" stop-color="#040825"/>
<stop offset="1" stop-color="#000D61"/>
</linearGradient>
<linearGradient id="paint2_linear_0_265" x1="223.499" y1="20.3035" x2="212.86" y2="20.3035" gradientUnits="userSpaceOnUse">
<stop stop-color="#020C7B"/>
<stop offset="0.5" stop-color="#040825"/>
<stop offset="1" stop-color="#000D61"/>
</linearGradient>
<linearGradient id="paint3_linear_0_265" x1="10.5316" y1="21.0326" x2="2.73436e-06" y2="21.0326" gradientUnits="userSpaceOnUse">
<stop stop-color="#020C7B"/>
<stop offset="0.5" stop-color="#040825"/>
<stop offset="1" stop-color="#000D61"/>
</linearGradient>
<linearGradient id="paint4_linear_0_265" x1="19.3619" y1="34.0757" x2="10.9367" y2="34.0757" gradientUnits="userSpaceOnUse">
<stop stop-color="#020C7B"/>
<stop offset="0.5" stop-color="#040825"/>
<stop offset="1" stop-color="#000D61"/>
</linearGradient>
<linearGradient id="paint5_linear_0_265" x1="21.639" y1="34.0864" x2="26.4479" y2="39.2942" gradientUnits="userSpaceOnUse">
<stop stop-color="#020C7B"/>
<stop offset="0.5" stop-color="#040825"/>
<stop offset="1" stop-color="#000D61"/>
</linearGradient>
<linearGradient id="paint6_linear_0_265" x1="17.8128" y1="7.09081" x2="9.45549" y2="8.15839" gradientUnits="userSpaceOnUse">
<stop stop-color="#020C7B"/>
<stop offset="0.5" stop-color="#040825"/>
<stop offset="1" stop-color="#000D61"/>
</linearGradient>
<linearGradient id="paint7_linear_0_265" x1="20.0702" y1="6.79185" x2="24.1804" y2="1.01676" gradientUnits="userSpaceOnUse">
<stop stop-color="#020C7B"/>
<stop offset="0.5" stop-color="#040825"/>
<stop offset="1" stop-color="#000D61"/>
</linearGradient>
<linearGradient id="paint8_linear_0_265" x1="205.656" y1="6.82714" x2="212.913" y2="5.73876" gradientUnits="userSpaceOnUse">
<stop stop-color="#020C7B"/>
<stop offset="0.5" stop-color="#040825"/>
<stop offset="1" stop-color="#000D61"/>
</linearGradient>
<linearGradient id="paint9_linear_0_265" x1="204.411" y1="6.64204" x2="200.428" y2="0.947788" gradientUnits="userSpaceOnUse">
<stop stop-color="#020C7B"/>
<stop offset="0.5" stop-color="#040825"/>
<stop offset="1" stop-color="#000D61"/>
</linearGradient>
<linearGradient id="paint10_linear_0_265" x1="205.152" y1="33.3286" x2="212.439" y2="34.2892" gradientUnits="userSpaceOnUse">
<stop stop-color="#020C7B"/>
<stop offset="0.5" stop-color="#040825"/>
<stop offset="1" stop-color="#000D61"/>
</linearGradient>
<linearGradient id="paint11_linear_0_265" x1="204.407" y1="33.5855" x2="200.466" y2="39.4393" gradientUnits="userSpaceOnUse">
<stop stop-color="#020C7B"/>
<stop offset="0.5" stop-color="#040825"/>
<stop offset="1" stop-color="#000D61"/>
</linearGradient>
</defs>
</svg>
