<svg preserveAspectRatio="none" width="100%" height="100%" overflow="visible" style="display: block;" viewBox="0 0 360 507" fill="none" xmlns="http://www.w3.org/2000/svg">
<g id="Group 41">
<path id="Subtract" d="M348 0C354.627 5.41176e-06 360 5.37259 360 12V495C360 501.627 354.627 507 348 507H12C5.37259 507 8.45615e-08 501.627 0 495V12C2.12611e-06 5.37259 5.37258 3.38235e-07 12 0H348ZM60.1631 8.5C32.5488 8.5 10.1631 30.8858 10.1631 58.5V489.5C10.1631 496.127 15.5349 501.5 22.1621 501.5H338.162C344.79 501.5 350.163 496.127 350.163 489.5V20.5C350.163 13.8727 344.79 8.50026 338.163 8.5H60.1631Z" fill="var(--fill-0, #A2A2A2)"/>
<g id="Frame 46">
</g>
<path id="Union" d="M239.29 34H356.145V5.50015H223L239.29 34Z" fill="var(--fill-0, #A2A2A2)"/>
</g>
</svg>
