<svg preserveAspectRatio="none" width="100%" height="100%" overflow="visible" style="display: block;" viewBox="0 0 141.566 47.1698" fill="none" xmlns="http://www.w3.org/2000/svg">
<g id="Group 43" opacity="0.2">
<path id="Vector 7" d="M37.5082 42.0246C45.9929 41.0813 58.6959 32.3049 58.6959 32.3049C58.6959 32.3049 63.3397 33.7343 65.2263 36.736C67.1129 39.7376 68.5641 46.0269 68.5641 46.0269H9.93531C9.93531 46.0269 12.8377 37.3077 17.8444 35.521C22.8511 33.7343 28.4147 43.0357 37.5082 42.0246Z" fill="var(--fill-0, white)"/>
<g id="Vector 8" filter="url(#filter0_i_0_203)">
<path d="M17.4861 39.2742C17.7172 39.1917 18.1571 39.1309 19.2145 39.5986C20.3343 40.0939 21.5341 40.891 23.2393 41.9593C24.4135 42.6949 25.766 43.5197 27.2925 44.2334H13.0179C13.0787 44.1211 13.1407 44.0079 13.2044 43.8945C13.8154 42.8081 14.5259 41.7485 15.307 40.8934C16.1009 40.0242 16.8423 39.5039 17.4861 39.2742ZM57.7083 36.579C57.9661 36.6941 58.2487 36.8291 58.5427 36.9833C59.7868 37.6357 60.874 38.4504 61.4117 39.306C62.1162 40.4269 62.8387 42.3491 63.4253 44.2334H43.0766C46.0235 43.1372 48.924 41.6973 51.3434 40.3769C53.53 39.1835 55.4384 38.0231 56.8002 37.1614C57.137 36.9482 57.441 36.7525 57.7083 36.579ZM56.481 36.0983L56.4787 36.0977L56.4776 36.0972C56.4776 36.0972 56.4797 36.0979 56.481 36.0983Z" fill="var(--fill-0, #333333)"/>
</g>
<path id="Vector 7_2" d="M105.57 42.0246C97.0851 41.0813 84.3821 32.3049 84.3821 32.3049C84.3821 32.3049 79.7382 33.7343 77.8517 36.736C75.9651 39.7376 74.5139 46.0269 74.5139 46.0269H133.143C133.143 46.0269 130.24 37.3077 125.234 35.521C120.227 33.7343 114.663 43.0357 105.57 42.0246Z" fill="var(--fill-0, white)"/>
<g id="Vector 8_2" filter="url(#filter1_i_0_203)">
<path d="M125.592 39.2742C125.361 39.1917 124.921 39.1309 123.863 39.5986C122.744 40.0939 121.544 40.891 119.839 41.9593C118.664 42.6949 117.312 43.5197 115.785 44.2334H130.06C129.999 44.1211 129.937 44.0079 129.874 43.8945C129.263 42.8081 128.552 41.7485 127.771 40.8934C126.977 40.0242 126.236 39.5039 125.592 39.2742ZM85.3697 36.579C85.1119 36.6941 84.8292 36.8291 84.5352 36.9833C83.2911 37.6357 82.204 38.4504 81.6662 39.306C80.9618 40.4269 80.2392 42.3491 79.6527 44.2334H100.001C97.0544 43.1372 94.1539 41.6973 91.7346 40.3769C89.548 39.1835 87.6396 38.0231 86.2778 37.1614C85.9409 36.9482 85.6369 36.7525 85.3697 36.579ZM86.597 36.0983L86.5992 36.0977L86.6004 36.0972C86.6004 36.0972 86.5983 36.0979 86.597 36.0983Z" fill="var(--fill-0, #333333)"/>
</g>
<path id="Union" d="M77.561 20.2267V11.1118C80.6602 15.9669 84.8731 21.5044 89.4609 24.5148C95.8479 28.7056 99.7778 30.171 107.383 29.1602C114.879 28.164 114.567 23.2998 123.709 20.2267C127.687 18.8895 130.896 18.7286 134.448 20.9413C138.304 23.343 139.468 26.7439 139.673 31.2328C139.855 35.2311 135.981 46.0016 135.972 46.0267C135.972 46.0267 131.656 33.0881 125.741 32.7336C119.488 32.3591 115.636 38.8717 109.415 39.5946C103.368 40.2972 96.3099 38.046 91.4926 34.3774C87.7019 31.4906 83.8012 29.1602 77.561 20.2267Z" fill="var(--fill-0, white)"/>
<g id="Union_2">
<path d="M65.9515 10.3261C69.1527 5.31091 71.1656 1.02378 71.1758 1.00204C71.1758 1.00411 72.1765 6.961 71.1758 10.5788C70.1431 14.312 68.1781 16.2531 65.9515 19.4409V10.3261Z" fill="var(--fill-0, white)"/>
<path d="M76.4001 19.4409C74.1735 16.2532 72.2084 14.312 71.1758 10.5788C70.1749 6.96033 71.1758 1.00204 71.1758 1.00204C71.1758 1.00204 73.1908 5.29814 76.4001 10.326V19.4409Z" fill="var(--fill-0, white)"/>
</g>
<g id="Union_3" filter="url(#filter2_i_0_203)">
<path d="M69.5706 6.43717C69.5733 7.7877 69.6745 9.21094 69.9742 10.4545C69.3271 12.6315 68.3534 14.1026 67.1126 15.7889V10.5455C68.0411 9.07874 68.8679 7.68068 69.5706 6.43717ZM72.7808 6.43493C73.4833 7.67821 74.31 9.07731 75.2394 10.5455V15.7889C73.9986 14.1025 73.0243 12.6315 72.3772 10.4545C72.677 9.21022 72.7782 7.78616 72.7808 6.43493Z" fill="var(--fill-0, #333333)"/>
</g>
<path id="Union_4" d="M64.7902 10.6834V19.7982C58.55 28.7316 54.6499 31.0621 50.8592 33.9489C46.0418 37.6176 38.9837 39.8688 32.9362 39.1661C26.7151 38.4431 22.8629 31.9304 16.6101 32.3051C10.6954 32.6599 6.37968 45.5983 6.37968 45.5983C6.37968 45.5983 2.49594 34.8073 2.67854 30.8043C2.8833 26.3155 4.04719 22.9145 7.90288 20.5129C11.4554 18.3001 14.6638 18.4611 18.6418 19.7982C27.7847 22.8713 27.4728 27.7354 34.9679 28.7317C42.5734 29.7426 46.5033 28.277 52.8903 24.0863C57.4781 21.076 61.691 15.5385 64.7902 10.6834Z" fill="var(--fill-0, white)"/>
<g id="Union_5" filter="url(#filter3_i_0_203)">
<path d="M14.9754 23.1839C16.1192 23.1414 17.4568 23.3655 19.2395 23.9272C23.1377 25.1556 24.9218 26.6629 26.8521 28.222C29.0186 29.972 31.4526 31.851 36.2248 32.4457C40.3442 32.9589 43.7361 32.8746 47.0596 32.0034C49.4896 31.3663 51.7413 30.3428 54.086 29.0297C52.8936 29.9186 51.7458 30.6813 50.4512 31.6055C46.2558 34.6007 40.091 36.3943 35.0667 35.847C32.9736 35.6189 31.2186 34.4899 28.4518 32.7707C26.0684 31.2898 22.7719 29.2796 18.5343 29.382L18.121 29.3987C15.3762 29.5531 13.2268 31.0323 11.7317 32.464C10.5937 33.5537 9.60521 34.8343 8.77095 36.0972C8.59986 35.4758 8.44251 34.8662 8.30951 34.2861C7.97911 32.8449 7.85592 31.8487 7.88038 31.3459C7.97266 29.4496 8.27319 28.0632 8.80893 26.9867C9.31257 25.9747 10.1001 25.0814 11.4869 24.2716C12.7927 23.5092 13.8955 23.2241 14.9754 23.1839ZM128.498 23.1839C129.578 23.2241 130.681 23.5092 131.987 24.2716C133.374 25.0815 134.162 25.9747 134.665 26.9867C135.201 28.0632 135.501 29.4496 135.593 31.3459C135.618 31.848 135.495 32.8425 135.165 34.2814C135.032 34.8627 134.875 35.4738 134.703 36.0967C133.869 34.8338 132.881 33.5532 131.743 32.4635C130.247 31.0318 128.098 29.5529 125.353 29.3987C120.916 29.1496 117.482 31.2421 115.022 32.7707C112.342 34.4361 110.611 35.5478 108.603 35.8229L108.407 35.847C103.383 36.3941 97.2184 34.6006 93.0231 31.6055C91.729 30.6816 90.5814 29.9197 89.3895 29.0313C91.7335 30.3439 93.9849 31.3665 96.4142 32.0034C99.7378 32.8747 103.13 32.959 107.25 32.4457C112.022 31.851 114.456 29.972 116.622 28.222C118.553 26.6629 120.337 25.1556 124.235 23.9272C126.017 23.3656 127.355 23.1414 128.498 23.1839Z" fill="var(--fill-0, #333333)"/>
</g>
<g id="Union_6">
<path d="M71.176 47.1698C71.176 47.1698 69.7529 39.3683 66.6773 35.5919C64.4565 32.865 59.5664 30.0174 59.5664 30.0174C59.5664 30.0174 64.413 28.3441 66.6773 26.1581C69.6652 23.2735 71.176 16.5813 71.176 16.5813V47.1698Z" fill="var(--fill-0, white)"/>
<path d="M71.176 16.5813C71.176 16.5813 72.6869 23.2738 75.6748 26.1583C77.9391 28.3444 82.7857 30.0176 82.7857 30.0176C82.7857 30.0176 77.8956 32.8653 75.6748 35.5922C72.5992 39.3686 71.176 47.1698 71.176 47.1698V16.5813Z" fill="var(--fill-0, white)"/>
</g>
<g id="Union_7" filter="url(#filter4_i_0_203)">
<path d="M71.1762 41.2912C71.1762 41.2912 70.2261 36.0829 68.1728 33.5617C66.6901 31.7413 63.4255 29.8401 63.4255 29.8401C63.4255 29.8401 66.6611 28.7231 68.1728 27.2637C70.1675 25.3379 71.1762 20.8702 71.1762 20.8702V41.2912Z" fill="var(--fill-0, #333333)"/>
<path d="M71.1762 20.8702C71.1762 20.8702 72.1848 25.3381 74.1795 27.2639C75.6912 28.7233 78.9268 29.8403 78.9268 29.8403C78.9268 29.8403 75.6622 31.7414 74.1795 33.5619C72.1263 36.083 71.1762 41.2912 71.1762 41.2912V20.8702Z" fill="var(--fill-0, #333333)"/>
</g>
<path id="Vector 9" d="M58.1156 12.8643L68.5643 0C68.5643 0 57.758 12.9934 50.4242 14.2945C45.9622 15.0861 39.9755 8.5762 39.9755 8.5762C39.9755 8.5762 43.4156 19.3284 48.973 19.4394C53.393 19.5277 58.1156 12.8643 58.1156 12.8643Z" fill="var(--fill-0, white)"/>
<path id="Vector 11" d="M18.6893 12.0597L40.2855 26.5395C40.2855 26.5395 18.3162 13.1614 10.8697 12.9947C6.33911 12.8933 1.41599 19.0657 1.41599 19.0657C1.41599 19.0657 3.17496 9.51876 8.65039 8.561C13.0051 7.79928 18.6893 12.0597 18.6893 12.0597Z" fill="var(--fill-0, white)"/>
<path id="Vector 12" d="M122.676 13.4509L102.991 25.6138C102.991 25.6138 123.05 13.3779 130.496 13.2112C135.027 13.1098 139.95 20.457 139.95 20.457C139.95 20.457 138.43 9.6162 132.955 8.65844C128.6 7.89672 122.676 13.4509 122.676 13.4509Z" fill="var(--fill-0, white)"/>
<path id="Vector 10" d="M84.9625 12.8643L74.5138 0C74.5138 0 85.3201 12.9934 92.6539 14.2945C97.116 15.0861 103.103 8.5762 103.103 8.5762C103.103 8.5762 99.6626 19.3284 94.1051 19.4394C89.6852 19.5277 84.9625 12.8643 84.9625 12.8643Z" fill="var(--fill-0, white)"/>
<g id="Union_8" filter="url(#filter5_i_0_203)">
<path d="M46.5471 23.63C46.5471 23.63 41.3754 20.2142 39.5359 17.1122C38.2077 14.8724 37.5358 10.9731 37.5358 10.9731C37.5358 10.9731 34.9934 13.367 32.8034 14.026C29.9136 14.8956 24.7173 13.6232 24.7173 13.6232L46.5471 23.63Z" fill="var(--fill-0, #333333)"/>
</g>
<g id="Union_9" filter="url(#filter6_i_0_203)">
<path d="M95.5564 23.63C95.5564 23.63 100.728 20.2142 102.568 17.1122C103.896 14.8724 104.568 10.9731 104.568 10.9731C104.568 10.9731 107.11 13.367 109.3 14.026C112.19 14.8956 117.386 13.6232 117.386 13.6232L95.5564 23.63Z" fill="var(--fill-0, #333333)"/>
</g>
<path id="Vector 14" d="M23.6224 11.0636C23.8119 11.1677 24.0184 11.2691 24.2185 11.364C26.0405 12.2013 28.0135 12.8009 30.1372 12.6595C30.4606 12.6324 30.7863 12.5827 31.1106 12.4991C32.8913 11.9858 34.2488 10.9086 35.483 9.73881C35.6424 9.58314 35.799 9.42425 35.9491 9.26091C35.7519 9.3621 35.5531 9.4601 35.3548 9.55731C33.8427 10.28 32.3189 11.0453 30.8483 11.3821C30.5883 11.4356 30.3171 11.471 30.0399 11.4942C28.208 11.622 26.2529 11.3798 24.2806 11.1506C24.0628 11.1237 23.8362 11.0936 23.6224 11.0636Z" fill="var(--stroke-0, white)"/>
<path id="Vector 15" d="M118.545 10.9501C118.355 11.0542 118.149 11.1556 117.949 11.2505C116.127 12.0878 114.154 12.6874 112.03 12.546C111.706 12.5189 111.381 12.4692 111.056 12.3856C109.276 11.8723 107.918 10.7951 106.684 9.62529C106.525 9.46962 106.368 9.31074 106.218 9.14739C106.218 9.14739 106.218 9.14739 106.218 9.14739C106.415 9.24859 106.614 9.34658 106.812 9.4438C108.324 10.1665 109.848 10.9318 111.319 11.2686C111.579 11.3221 111.85 11.3575 112.127 11.3807C113.959 11.5085 115.914 11.2662 117.886 11.0371C118.104 11.0102 118.331 10.9801 118.545 10.9501Z" fill="var(--stroke-0, white)"/>
</g>
<defs>
<filter id="filter0_i_0_203" x="13.0179" y="36.0972" width="50.4073" height="9.23348" filterUnits="userSpaceOnUse" color-interpolation-filters="sRGB">
<feFlood flood-opacity="0" result="BackgroundImageFix"/>
<feBlend mode="normal" in="SourceGraphic" in2="BackgroundImageFix" result="shape"/>
<feColorMatrix in="SourceAlpha" type="matrix" values="0 0 0 0 0 0 0 0 0 0 0 0 0 0 0 0 0 0 127 0" result="hardAlpha"/>
<feOffset dy="1.09726"/>
<feGaussianBlur stdDeviation="0.548629"/>
<feComposite in2="hardAlpha" operator="arithmetic" k2="-1" k3="1"/>
<feColorMatrix type="matrix" values="0 0 0 0 0 0 0 0 0 0 0 0 0 0 0 0 0 0 0.25 0"/>
<feBlend mode="normal" in2="shape" result="effect1_innerShadow_0_203"/>
</filter>
<filter id="filter1_i_0_203" x="79.6527" y="36.0972" width="50.4073" height="9.23348" filterUnits="userSpaceOnUse" color-interpolation-filters="sRGB">
<feFlood flood-opacity="0" result="BackgroundImageFix"/>
<feBlend mode="normal" in="SourceGraphic" in2="BackgroundImageFix" result="shape"/>
<feColorMatrix in="SourceAlpha" type="matrix" values="0 0 0 0 0 0 0 0 0 0 0 0 0 0 0 0 0 0 127 0" result="hardAlpha"/>
<feOffset dy="1.09726"/>
<feGaussianBlur stdDeviation="0.548629"/>
<feComposite in2="hardAlpha" operator="arithmetic" k2="-1" k3="1"/>
<feColorMatrix type="matrix" values="0 0 0 0 0 0 0 0 0 0 0 0 0 0 0 0 0 0 0.25 0"/>
<feBlend mode="normal" in2="shape" result="effect1_innerShadow_0_203"/>
</filter>
<filter id="filter2_i_0_203" x="67.1126" y="6.43493" width="8.12676" height="10.4512" filterUnits="userSpaceOnUse" color-interpolation-filters="sRGB">
<feFlood flood-opacity="0" result="BackgroundImageFix"/>
<feBlend mode="normal" in="SourceGraphic" in2="BackgroundImageFix" result="shape"/>
<feColorMatrix in="SourceAlpha" type="matrix" values="0 0 0 0 0 0 0 0 0 0 0 0 0 0 0 0 0 0 127 0" result="hardAlpha"/>
<feOffset dy="1.09726"/>
<feGaussianBlur stdDeviation="0.548629"/>
<feComposite in2="hardAlpha" operator="arithmetic" k2="-1" k3="1"/>
<feColorMatrix type="matrix" values="0 0 0 0 0 0 0 0 0 0 0 0 0 0 0 0 0 0 0.25 0"/>
<feBlend mode="normal" in2="shape" result="effect1_innerShadow_0_203"/>
</filter>
<filter id="filter3_i_0_203" x="7.87737" y="23.1789" width="127.719" height="13.4669" filterUnits="userSpaceOnUse" color-interpolation-filters="sRGB">
<feFlood flood-opacity="0" result="BackgroundImageFix"/>
<feBlend mode="normal" in="SourceGraphic" in2="BackgroundImageFix" result="shape"/>
<feColorMatrix in="SourceAlpha" type="matrix" values="0 0 0 0 0 0 0 0 0 0 0 0 0 0 0 0 0 0 127 0" result="hardAlpha"/>
<feOffset dy="0.548629"/>
<feGaussianBlur stdDeviation="0.274314"/>
<feComposite in2="hardAlpha" operator="arithmetic" k2="-1" k3="1"/>
<feColorMatrix type="matrix" values="0 0 0 0 0 0 0 0 0 0 0 0 0 0 0 0 0 0 0.25 0"/>
<feBlend mode="normal" in2="shape" result="effect1_innerShadow_0_203"/>
</filter>
<filter id="filter4_i_0_203" x="63.4255" y="20.8702" width="15.5013" height="21.5182" filterUnits="userSpaceOnUse" color-interpolation-filters="sRGB">
<feFlood flood-opacity="0" result="BackgroundImageFix"/>
<feBlend mode="normal" in="SourceGraphic" in2="BackgroundImageFix" result="shape"/>
<feColorMatrix in="SourceAlpha" type="matrix" values="0 0 0 0 0 0 0 0 0 0 0 0 0 0 0 0 0 0 127 0" result="hardAlpha"/>
<feOffset dy="1.09726"/>
<feGaussianBlur stdDeviation="0.548629"/>
<feComposite in2="hardAlpha" operator="arithmetic" k2="-1" k3="1"/>
<feColorMatrix type="matrix" values="0 0 0 0 0 0 0 0 0 0 0 0 0 0 0 0 0 0 0.25 0"/>
<feBlend mode="normal" in2="shape" result="effect1_innerShadow_0_203"/>
</filter>
<filter id="filter5_i_0_203" x="24.7173" y="10.9731" width="21.8298" height="13.7542" filterUnits="userSpaceOnUse" color-interpolation-filters="sRGB">
<feFlood flood-opacity="0" result="BackgroundImageFix"/>
<feBlend mode="normal" in="SourceGraphic" in2="BackgroundImageFix" result="shape"/>
<feColorMatrix in="SourceAlpha" type="matrix" values="0 0 0 0 0 0 0 0 0 0 0 0 0 0 0 0 0 0 127 0" result="hardAlpha"/>
<feOffset dy="1.09726"/>
<feGaussianBlur stdDeviation="0.548629"/>
<feComposite in2="hardAlpha" operator="arithmetic" k2="-1" k3="1"/>
<feColorMatrix type="matrix" values="0 0 0 0 0 0 0 0 0 0 0 0 0 0 0 0 0 0 0.25 0"/>
<feBlend mode="normal" in2="shape" result="effect1_innerShadow_0_203"/>
</filter>
<filter id="filter6_i_0_203" x="95.5564" y="10.9731" width="21.8298" height="13.7542" filterUnits="userSpaceOnUse" color-interpolation-filters="sRGB">
<feFlood flood-opacity="0" result="BackgroundImageFix"/>
<feBlend mode="normal" in="SourceGraphic" in2="BackgroundImageFix" result="shape"/>
<feColorMatrix in="SourceAlpha" type="matrix" values="0 0 0 0 0 0 0 0 0 0 0 0 0 0 0 0 0 0 127 0" result="hardAlpha"/>
<feOffset dy="1.09726"/>
<feGaussianBlur stdDeviation="0.548629"/>
<feComposite in2="hardAlpha" operator="arithmetic" k2="-1" k3="1"/>
<feColorMatrix type="matrix" values="0 0 0 0 0 0 0 0 0 0 0 0 0 0 0 0 0 0 0.25 0"/>
<feBlend mode="normal" in2="shape" result="effect1_innerShadow_0_203"/>
</filter>
</defs>
</svg>
