<svg preserveAspectRatio="none" width="100%" height="100%" overflow="visible" style="display: block;" viewBox="0 0 360 507" fill="none" xmlns="http://www.w3.org/2000/svg">
<g id="Group 41">
<path id="Subtract" d="M348 0C354.627 5.41176e-06 360 5.37259 360 12V495C360 501.627 354.627 507 348 507H12C5.37259 507 8.45615e-08 501.627 0 495V12C2.12611e-06 5.37259 5.37258 3.38235e-07 12 0H348ZM60 8.63867C32.3858 8.63867 10 31.0244 10 58.6387V489.639C10.0001 496.266 15.3727 501.639 22 501.639H338C344.627 501.639 350 496.266 350 489.639V20.6387C350 14.0113 344.627 8.63867 338 8.63867H60Z" fill="var(--fill-0, #DFB400)"/>
<g id="Frame 46">
</g>
<path id="Union" d="M239.29 34H356.145V5.50015H223L239.29 34Z" fill="var(--fill-0, #DFB400)"/>
</g>
</svg>
