<svg preserveAspectRatio="none" width="100%" height="100%" overflow="visible" style="display: block;" viewBox="0 0 141.566 47.1697" fill="none" xmlns="http://www.w3.org/2000/svg">
<g id="Group 43" opacity="0.2">
<path id="Vector 7" d="M37.5082 42.0246C45.9928 41.0813 58.6958 32.3049 58.6958 32.3049C58.6958 32.3049 63.3396 33.7343 65.2262 36.7359C67.1128 39.7376 68.564 46.0268 68.564 46.0268H9.9353C9.9353 46.0268 12.8377 37.3077 17.8444 35.521C22.851 33.7343 28.4146 43.0356 37.5082 42.0246Z" fill="var(--fill-0, white)"/>
<g id="Vector 8" filter="url(#filter0_i_0_202)">
<path d="M17.486 39.2741C17.7172 39.1916 18.1571 39.1308 19.2144 39.5985C20.3343 40.0938 21.5341 40.8909 23.2393 41.9592C24.4135 42.6948 25.7659 43.5196 27.2924 44.2333H13.0179C13.0787 44.121 13.1406 44.0078 13.2044 43.8944C13.8154 42.808 14.5258 41.7485 15.307 40.8933C16.1009 40.0241 16.8423 39.5039 17.486 39.2741ZM57.7082 36.579C57.966 36.694 58.2486 36.829 58.5427 36.9832C59.7867 37.6357 60.8739 38.4504 61.4116 39.3059C62.1161 40.4269 62.8386 42.349 63.4252 44.2333H43.0766C46.0235 43.1372 48.9239 41.6972 51.3433 40.3768C53.5299 39.1835 55.4383 38.0231 56.8001 37.1613C57.1369 36.9482 57.441 36.7525 57.7082 36.579ZM56.4809 36.0982L56.4787 36.0977L56.4775 36.0971C56.4775 36.0971 56.4796 36.0978 56.4809 36.0982Z" fill="var(--fill-0, #D00416)"/>
</g>
<path id="Vector 7_2" d="M105.57 42.0246C97.0849 41.0813 84.382 32.3049 84.382 32.3049C84.382 32.3049 79.7381 33.7343 77.8515 36.7359C75.965 39.7376 74.5138 46.0268 74.5138 46.0268H133.142C133.142 46.0268 130.24 37.3077 125.233 35.521C120.227 33.7343 114.663 43.0356 105.57 42.0246Z" fill="var(--fill-0, white)"/>
<g id="Vector 8_2" filter="url(#filter1_i_0_202)">
<path d="M125.592 39.2741C125.361 39.1916 124.921 39.1308 123.863 39.5985C122.743 40.0938 121.544 40.8909 119.838 41.9592C118.664 42.6948 117.312 43.5196 115.785 44.2333H130.06C129.999 44.121 129.937 44.0078 129.873 43.8944C129.262 42.808 128.552 41.7485 127.771 40.8933C126.977 40.0241 126.235 39.5039 125.592 39.2741ZM85.3695 36.579C85.1117 36.694 84.8291 36.829 84.5351 36.9832C83.291 37.6357 82.2038 38.4504 81.6661 39.3059C80.9616 40.4269 80.2391 42.349 79.6526 44.2333H100.001C97.0543 43.1372 94.1538 41.6972 91.7344 40.3768C89.5478 39.1835 87.6394 38.0231 86.2777 37.1613C85.9408 36.9482 85.6368 36.7525 85.3695 36.579ZM86.5968 36.0982L86.5991 36.0977L86.6002 36.0971C86.6002 36.0971 86.5982 36.0978 86.5968 36.0982Z" fill="var(--fill-0, #D00416)"/>
</g>
<path id="Union" d="M77.5609 20.2266V11.1118C80.66 15.9669 84.8729 21.5044 89.4608 24.5147C95.8478 28.7055 99.7777 30.171 107.383 29.1602C114.878 28.1639 114.566 23.2998 123.709 20.2266C127.687 18.8895 130.896 18.7286 134.448 20.9413C138.304 23.3429 139.468 26.7438 139.672 31.2327C139.855 35.231 135.981 46.0016 135.972 46.0267C135.972 46.0267 131.656 33.088 125.741 32.7336C119.488 32.359 115.636 38.8717 109.415 39.5945C103.367 40.2971 96.3098 38.0459 91.4925 34.3773C87.7017 31.4905 83.8011 29.1602 77.5609 20.2266Z" fill="var(--fill-0, white)"/>
<g id="Union_2">
<path d="M65.9513 10.326C69.1526 5.3109 71.1655 1.02378 71.1757 1.00204C71.1757 1.00411 72.1764 6.96099 71.1757 10.5788C70.143 14.312 68.178 16.2531 65.9513 19.4408V10.326Z" fill="var(--fill-0, white)"/>
<path d="M76.4 19.4408C74.1734 16.2531 72.2083 14.312 71.1757 10.5788C70.1748 6.96032 71.1757 1.00204 71.1757 1.00204C71.1757 1.00204 73.1906 5.29814 76.4 10.326V19.4408Z" fill="var(--fill-0, white)"/>
</g>
<g id="Union_3" filter="url(#filter2_i_0_202)">
<path d="M69.5705 6.43716C69.5732 7.78769 69.6744 9.21092 69.9741 10.4545C69.327 12.6314 68.3532 14.1025 67.1125 15.7889V10.5455C68.041 9.07873 68.8678 7.68067 69.5705 6.43716ZM72.7807 6.43492C73.4832 7.6782 74.3099 9.0773 75.2392 10.5455V15.7889C73.9985 14.1025 73.0242 12.6315 72.3771 10.4545C72.6769 9.2102 72.7781 7.78615 72.7807 6.43492Z" fill="var(--fill-0, #D00416)"/>
</g>
<path id="Union_4" d="M64.7901 10.6834V19.7982C58.55 28.7316 54.6498 31.0621 50.8591 33.9489C46.0417 37.6175 38.9836 39.8687 32.9361 39.1661C26.7151 38.4431 22.8628 31.9304 16.6101 32.3051C10.6954 32.6599 6.37967 45.5982 6.37967 45.5982C6.37967 45.5982 2.49593 34.8073 2.67853 30.8043C2.8833 26.3154 4.04719 22.9145 7.90287 20.5128C11.4554 18.3001 14.6638 18.4611 18.6418 19.7982C27.7846 22.8713 27.4727 27.7354 34.9678 28.7317C42.5734 29.7426 46.5032 28.277 52.8902 24.0862C57.4781 21.076 61.691 15.5385 64.7901 10.6834Z" fill="var(--fill-0, white)"/>
<g id="Union_5" filter="url(#filter3_i_0_202)">
<path d="M14.9754 23.1839C16.1192 23.1413 17.4568 23.3655 19.2394 23.9272C23.1377 25.1555 24.9218 26.6629 26.852 28.222C29.0186 29.972 31.4525 31.8509 36.2248 32.4456C40.3441 32.9589 43.7361 32.8746 47.0595 32.0033C49.4895 31.3663 51.7412 30.3428 54.0859 29.0297C52.8935 29.9186 51.7457 30.6812 50.4511 31.6055C46.2558 34.6007 40.0909 36.3942 35.0667 35.8469C32.9736 35.6189 31.2186 34.4898 28.4518 32.7707C26.0684 31.2898 22.7719 29.2795 18.5343 29.3819L18.121 29.3987C15.3762 29.553 13.2268 31.0323 11.7317 32.4639C10.5937 33.5537 9.60519 34.8342 8.77093 36.0971C8.59985 35.4757 8.4425 34.8662 8.3095 34.286C7.97909 32.8449 7.8559 31.8487 7.88037 31.3459C7.97265 29.4496 8.27318 28.0632 8.80891 26.9867C9.31256 25.9747 10.1 25.0814 11.4868 24.2716C12.7927 23.5091 13.8955 23.2241 14.9754 23.1839ZM128.498 23.1839C129.578 23.2241 130.681 23.5092 131.987 24.2716C133.374 25.0814 134.162 25.9747 134.665 26.9867C135.201 28.0631 135.501 29.4495 135.593 31.3459C135.618 31.848 135.495 32.8424 135.165 34.2813C135.032 34.8627 134.875 35.4737 134.703 36.0966C133.869 34.8337 132.88 33.5531 131.742 32.4634C130.247 31.0318 128.097 29.5529 125.353 29.3987C120.916 29.1496 117.482 31.242 115.022 32.7707C112.342 34.436 110.611 35.5477 108.602 35.8228L108.407 35.8469C103.383 36.394 97.2183 34.6006 93.023 31.6055C91.7289 30.6816 90.5812 29.9196 89.3893 29.0312C91.7334 30.3438 93.9847 31.3664 96.4141 32.0033C99.7376 32.8746 103.13 32.9589 107.249 32.4456C112.022 31.851 114.456 29.972 116.622 28.222C118.552 26.6629 120.337 25.1555 124.235 23.9272C126.017 23.3655 127.355 23.1413 128.498 23.1839Z" fill="var(--fill-0, #D00416)"/>
</g>
<g id="Union_6">
<path d="M71.1759 47.1697C71.1759 47.1697 69.7528 39.3682 66.6772 35.5918C64.4564 32.865 59.5663 30.0173 59.5663 30.0173C59.5663 30.0173 64.4129 28.3441 66.6772 26.158C69.6651 23.2735 71.1759 16.5813 71.1759 16.5813V47.1697Z" fill="var(--fill-0, white)"/>
<path d="M71.1759 16.5813C71.1759 16.5813 72.6868 23.2737 75.6747 26.1583C77.939 28.3443 82.7856 30.0176 82.7856 30.0176C82.7856 30.0176 77.8955 32.8653 75.6747 35.5921C72.5991 39.3685 71.1759 47.1697 71.1759 47.1697V16.5813Z" fill="var(--fill-0, white)"/>
</g>
<g id="Union_7" filter="url(#filter4_i_0_202)">
<path d="M71.1761 41.2911C71.1761 41.2911 70.226 36.0828 68.1727 33.5617C66.69 31.7412 63.4254 29.8401 63.4254 29.8401C63.4254 29.8401 66.661 28.723 68.1727 27.2636C70.1674 25.3379 71.1761 20.8702 71.1761 20.8702V41.2911Z" fill="var(--fill-0, #D00416)"/>
<path d="M71.1761 20.8702C71.1761 20.8702 72.1847 25.3381 74.1794 27.2638C75.6911 28.7232 78.9267 29.8403 78.9267 29.8403C78.9267 29.8403 75.6621 31.7414 74.1794 33.5619C72.1261 36.083 71.1761 41.2911 71.1761 41.2911V20.8702Z" fill="var(--fill-0, #D00416)"/>
</g>
<path id="Vector 9" d="M58.1155 12.8643L68.5642 0C68.5642 0 57.7579 12.9934 50.4241 14.2945C45.9621 15.0861 39.9755 8.57619 39.9755 8.57619C39.9755 8.57619 43.4155 19.3284 48.9729 19.4394C53.3929 19.5276 58.1155 12.8643 58.1155 12.8643Z" fill="var(--fill-0, white)"/>
<path id="Vector 11" d="M18.6892 12.0597L40.2854 26.5394C40.2854 26.5394 18.3161 13.1614 10.8697 12.9947C6.3391 12.8933 1.41598 19.0657 1.41598 19.0657C1.41598 19.0657 3.17496 9.51874 8.65038 8.56099C13.0051 7.79927 18.6892 12.0597 18.6892 12.0597Z" fill="var(--fill-0, white)"/>
<path id="Vector 12" d="M122.676 13.4509L102.991 25.6137C102.991 25.6137 123.049 13.3779 130.496 13.2112C135.026 13.1097 139.949 20.4569 139.949 20.4569C139.949 20.4569 138.43 9.61618 132.955 8.65842C128.6 7.8967 122.676 13.4509 122.676 13.4509Z" fill="var(--fill-0, white)"/>
<path id="Vector 10" d="M84.9624 12.8643L74.5137 0C74.5137 0 85.32 12.9934 92.6538 14.2945C97.1158 15.0861 103.102 8.57619 103.102 8.57619C103.102 8.57619 99.6624 19.3284 94.105 19.4394C89.685 19.5276 84.9624 12.8643 84.9624 12.8643Z" fill="var(--fill-0, white)"/>
<g id="Union_8" filter="url(#filter5_i_0_202)">
<path d="M46.547 23.63C46.547 23.63 41.3753 20.2141 39.5359 17.1122C38.2077 14.8724 37.5358 10.9731 37.5358 10.9731C37.5358 10.9731 34.9934 13.367 32.8034 14.026C29.9135 14.8956 24.7173 13.6232 24.7173 13.6232L46.547 23.63Z" fill="var(--fill-0, #D00416)"/>
</g>
<g id="Union_9" filter="url(#filter6_i_0_202)">
<path d="M95.5563 23.63C95.5563 23.63 100.728 20.2141 102.567 17.1122C103.896 14.8724 104.568 10.9731 104.568 10.9731C104.568 10.9731 107.11 13.367 109.3 14.026C112.19 14.8956 117.386 13.6232 117.386 13.6232L95.5563 23.63Z" fill="var(--fill-0, #D00416)"/>
</g>
<path id="Vector 14" d="M23.6224 11.0636C23.8118 11.1677 24.0184 11.2691 24.2185 11.364C26.0404 12.2013 28.0135 12.8009 30.1372 12.6595C30.4606 12.6324 30.7862 12.5826 31.1106 12.4991C32.8913 11.9858 34.2488 10.9086 35.4829 9.73879C35.6424 9.58312 35.7989 9.42424 35.949 9.26089C35.7519 9.36209 35.5531 9.46008 35.3548 9.5573C33.8427 10.28 32.3189 11.0453 30.8482 11.3821C30.5883 11.4356 30.317 11.471 30.0399 11.4942C28.2079 11.622 26.2529 11.3797 24.2806 11.1506C24.0627 11.1237 23.8362 11.0936 23.6224 11.0636Z" fill="var(--stroke-0, white)"/>
<path id="Vector 15" d="M118.343 10.8998C118.154 11.0038 117.947 11.1052 117.747 11.2001C115.925 12.0375 113.952 12.637 111.828 12.4956C111.505 12.4685 111.179 12.4188 110.855 12.3352C109.074 11.8219 107.717 10.7447 106.483 9.57494C106.323 9.41926 106.167 9.26038 106.016 9.09704C106.214 9.19823 106.412 9.29623 106.611 9.39344C108.123 10.1161 109.647 10.8814 111.117 11.2183C111.377 11.2718 111.648 11.3072 111.926 11.3303C113.758 11.4582 115.713 11.2159 117.685 10.9868C117.903 10.9598 118.129 10.9298 118.343 10.8998Z" fill="var(--stroke-0, white)"/>
</g>
<defs>
<filter id="filter0_i_0_202" x="13.0179" y="36.0971" width="50.4073" height="9.23347" filterUnits="userSpaceOnUse" color-interpolation-filters="sRGB">
<feFlood flood-opacity="0" result="BackgroundImageFix"/>
<feBlend mode="normal" in="SourceGraphic" in2="BackgroundImageFix" result="shape"/>
<feColorMatrix in="SourceAlpha" type="matrix" values="0 0 0 0 0 0 0 0 0 0 0 0 0 0 0 0 0 0 127 0" result="hardAlpha"/>
<feOffset dy="1.09726"/>
<feGaussianBlur stdDeviation="0.548628"/>
<feComposite in2="hardAlpha" operator="arithmetic" k2="-1" k3="1"/>
<feColorMatrix type="matrix" values="0 0 0 0 0 0 0 0 0 0 0 0 0 0 0 0 0 0 0.25 0"/>
<feBlend mode="normal" in2="shape" result="effect1_innerShadow_0_202"/>
</filter>
<filter id="filter1_i_0_202" x="79.6526" y="36.0971" width="50.4073" height="9.23347" filterUnits="userSpaceOnUse" color-interpolation-filters="sRGB">
<feFlood flood-opacity="0" result="BackgroundImageFix"/>
<feBlend mode="normal" in="SourceGraphic" in2="BackgroundImageFix" result="shape"/>
<feColorMatrix in="SourceAlpha" type="matrix" values="0 0 0 0 0 0 0 0 0 0 0 0 0 0 0 0 0 0 127 0" result="hardAlpha"/>
<feOffset dy="1.09726"/>
<feGaussianBlur stdDeviation="0.548628"/>
<feComposite in2="hardAlpha" operator="arithmetic" k2="-1" k3="1"/>
<feColorMatrix type="matrix" values="0 0 0 0 0 0 0 0 0 0 0 0 0 0 0 0 0 0 0.25 0"/>
<feBlend mode="normal" in2="shape" result="effect1_innerShadow_0_202"/>
</filter>
<filter id="filter2_i_0_202" x="67.1125" y="6.43492" width="8.12675" height="10.4512" filterUnits="userSpaceOnUse" color-interpolation-filters="sRGB">
<feFlood flood-opacity="0" result="BackgroundImageFix"/>
<feBlend mode="normal" in="SourceGraphic" in2="BackgroundImageFix" result="shape"/>
<feColorMatrix in="SourceAlpha" type="matrix" values="0 0 0 0 0 0 0 0 0 0 0 0 0 0 0 0 0 0 127 0" result="hardAlpha"/>
<feOffset dy="1.09726"/>
<feGaussianBlur stdDeviation="0.548628"/>
<feComposite in2="hardAlpha" operator="arithmetic" k2="-1" k3="1"/>
<feColorMatrix type="matrix" values="0 0 0 0 0 0 0 0 0 0 0 0 0 0 0 0 0 0 0.25 0"/>
<feBlend mode="normal" in2="shape" result="effect1_innerShadow_0_202"/>
</filter>
<filter id="filter3_i_0_202" x="7.87736" y="23.1788" width="127.719" height="13.4669" filterUnits="userSpaceOnUse" color-interpolation-filters="sRGB">
<feFlood flood-opacity="0" result="BackgroundImageFix"/>
<feBlend mode="normal" in="SourceGraphic" in2="BackgroundImageFix" result="shape"/>
<feColorMatrix in="SourceAlpha" type="matrix" values="0 0 0 0 0 0 0 0 0 0 0 0 0 0 0 0 0 0 127 0" result="hardAlpha"/>
<feOffset dy="0.548628"/>
<feGaussianBlur stdDeviation="0.274314"/>
<feComposite in2="hardAlpha" operator="arithmetic" k2="-1" k3="1"/>
<feColorMatrix type="matrix" values="0 0 0 0 0 0 0 0 0 0 0 0 0 0 0 0 0 0 0.25 0"/>
<feBlend mode="normal" in2="shape" result="effect1_innerShadow_0_202"/>
</filter>
<filter id="filter4_i_0_202" x="63.4254" y="20.8702" width="15.5013" height="21.5182" filterUnits="userSpaceOnUse" color-interpolation-filters="sRGB">
<feFlood flood-opacity="0" result="BackgroundImageFix"/>
<feBlend mode="normal" in="SourceGraphic" in2="BackgroundImageFix" result="shape"/>
<feColorMatrix in="SourceAlpha" type="matrix" values="0 0 0 0 0 0 0 0 0 0 0 0 0 0 0 0 0 0 127 0" result="hardAlpha"/>
<feOffset dy="1.09726"/>
<feGaussianBlur stdDeviation="0.548628"/>
<feComposite in2="hardAlpha" operator="arithmetic" k2="-1" k3="1"/>
<feColorMatrix type="matrix" values="0 0 0 0 0 0 0 0 0 0 0 0 0 0 0 0 0 0 0.25 0"/>
<feBlend mode="normal" in2="shape" result="effect1_innerShadow_0_202"/>
</filter>
<filter id="filter5_i_0_202" x="24.7173" y="10.9731" width="21.8297" height="13.7542" filterUnits="userSpaceOnUse" color-interpolation-filters="sRGB">
<feFlood flood-opacity="0" result="BackgroundImageFix"/>
<feBlend mode="normal" in="SourceGraphic" in2="BackgroundImageFix" result="shape"/>
<feColorMatrix in="SourceAlpha" type="matrix" values="0 0 0 0 0 0 0 0 0 0 0 0 0 0 0 0 0 0 127 0" result="hardAlpha"/>
<feOffset dy="1.09726"/>
<feGaussianBlur stdDeviation="0.548628"/>
<feComposite in2="hardAlpha" operator="arithmetic" k2="-1" k3="1"/>
<feColorMatrix type="matrix" values="0 0 0 0 0 0 0 0 0 0 0 0 0 0 0 0 0 0 0.25 0"/>
<feBlend mode="normal" in2="shape" result="effect1_innerShadow_0_202"/>
</filter>
<filter id="filter6_i_0_202" x="95.5563" y="10.9731" width="21.8297" height="13.7542" filterUnits="userSpaceOnUse" color-interpolation-filters="sRGB">
<feFlood flood-opacity="0" result="BackgroundImageFix"/>
<feBlend mode="normal" in="SourceGraphic" in2="BackgroundImageFix" result="shape"/>
<feColorMatrix in="SourceAlpha" type="matrix" values="0 0 0 0 0 0 0 0 0 0 0 0 0 0 0 0 0 0 127 0" result="hardAlpha"/>
<feOffset dy="1.09726"/>
<feGaussianBlur stdDeviation="0.548628"/>
<feComposite in2="hardAlpha" operator="arithmetic" k2="-1" k3="1"/>
<feColorMatrix type="matrix" values="0 0 0 0 0 0 0 0 0 0 0 0 0 0 0 0 0 0 0.25 0"/>
<feBlend mode="normal" in2="shape" result="effect1_innerShadow_0_202"/>
</filter>
</defs>
</svg>
