<svg width="523" height="188" viewBox="0 0 523 188" fill="none" xmlns="http://www.w3.org/2000/svg">
<g clip-path="url(#clip0_389_14970)">
<mask id="path-1-inside-1_389_14970" fill="white">
<path d="M0 9.42797C0 4.22105 4.22104 0 9.42796 0H513.545C518.752 0 522.973 4.22104 522.973 9.42796V177.714C522.973 182.921 518.752 187.142 513.545 187.142H9.42798C4.22106 187.142 0 182.921 0 177.714V9.42797Z"/>
</mask>
<path d="M0 9.42797C0 4.22105 4.22104 0 9.42796 0H513.545C518.752 0 522.973 4.22104 522.973 9.42796V177.714C522.973 182.921 518.752 187.142 513.545 187.142H9.42798C4.22106 187.142 0 182.921 0 177.714V9.42797Z" fill="url(#paint0_linear_389_14970)"/>
<path d="M15.1592 41.2759C15.1592 31.8967 22.7625 24.2934 32.1416 24.2934H66.0844C75.4636 24.2934 83.0669 31.8967 83.0669 41.2759V75.2187C83.0669 84.5978 75.4636 92.2011 66.0844 92.2011H32.1416C22.7625 92.2011 15.1592 84.5978 15.1592 75.2187V41.2759Z" fill="#CECECE" fill-opacity="0.125"/>
<path d="M40.6123 56.8328H46.2685" stroke="white" stroke-width="2.82812" stroke-linecap="round" stroke-linejoin="round"/>
<path d="M43.4404 54.0039V59.6601" stroke="white" stroke-width="2.82812" stroke-linecap="round" stroke-linejoin="round"/>
<path d="M53.3389 58.246H53.3543" stroke="white" stroke-width="2.82812" stroke-linecap="round" stroke-linejoin="round"/>
<path d="M57.5811 55.4183H57.5965" stroke="white" stroke-width="2.82812" stroke-linecap="round" stroke-linejoin="round"/>
<path d="M56.6194 48.3474H41.5739C40.1743 48.3477 38.8246 48.8669 37.7856 49.8045C36.7467 50.7422 36.0922 52.0317 35.9487 53.4239C35.9402 53.4974 35.9346 53.5667 35.9247 53.6388C35.8101 54.5919 34.9561 61.7188 34.9561 63.9021C34.9561 65.0272 35.403 66.1062 36.1986 66.9017C36.9941 67.6973 38.0731 68.1442 39.1982 68.1442C40.6123 68.1442 41.3193 67.4372 42.0264 66.7302L44.0258 64.7307C44.5561 64.2003 45.2753 63.9022 46.0253 63.9021H52.168C52.918 63.9022 53.6372 64.2003 54.1675 64.7307L56.1669 66.7302C56.874 67.4372 57.581 68.1442 58.9951 68.1442C60.1202 68.1442 61.1992 67.6973 61.9947 66.9017C62.7903 66.1062 63.2372 65.0272 63.2372 63.9021C63.2372 61.7173 62.3831 54.5919 62.2686 53.6388C62.2587 53.5681 62.2531 53.4974 62.2446 53.4253C62.1014 52.0329 61.4471 50.743 60.4081 49.8051C59.3691 48.8671 58.0192 48.3478 56.6194 48.3474Z" stroke="white" stroke-width="2.82812" stroke-linecap="round" stroke-linejoin="round"/>
<path d="M16.07 117.838V114.851H30.1423V117.838H24.8966V131.986H21.3158V117.838H16.07ZM31.0584 131.986V119.135H34.5138V121.377H34.6476C34.8819 120.58 35.2751 119.977 35.8273 119.57C36.3795 119.157 37.0153 118.951 37.7348 118.951C37.9133 118.951 38.1057 118.962 38.3121 118.984C38.5185 119.007 38.6997 119.037 38.8559 119.076V122.239C38.6886 122.189 38.4571 122.144 38.1615 122.105C37.8659 122.066 37.5954 122.046 37.35 122.046C36.8257 122.046 36.3572 122.161 35.9444 122.389C35.5372 122.613 35.2137 122.925 34.9739 123.326C34.7397 123.728 34.6225 124.191 34.6225 124.715V131.986H31.0584ZM48.9395 126.514V119.135H52.5036V131.986H49.0817V129.651H48.9479C48.6579 130.404 48.1754 131.01 47.5005 131.467C46.8312 131.924 46.0141 132.153 45.0491 132.153C44.1902 132.153 43.4344 131.958 42.7819 131.567C42.1293 131.177 41.6189 130.622 41.2508 129.902C40.8883 129.183 40.7042 128.321 40.6986 127.317V119.135H44.2627V126.681C44.2683 127.44 44.4719 128.04 44.8735 128.48C45.275 128.921 45.8133 129.141 46.4882 129.141C46.9176 129.141 47.3192 129.044 47.6929 128.848C48.0666 128.648 48.3678 128.352 48.5965 127.961C48.8308 127.571 48.9451 127.089 48.9395 126.514ZM61.2109 132.237C59.889 132.237 58.7512 131.969 57.7974 131.434C56.8493 130.893 56.1186 130.128 55.6054 129.141C55.0923 128.148 54.8357 126.974 54.8357 125.619C54.8357 124.297 55.0923 123.137 55.6054 122.138C56.1186 121.14 56.8409 120.362 57.7723 119.804C58.7094 119.246 59.8082 118.968 61.0687 118.968C61.9165 118.968 62.7057 119.104 63.4364 119.378C64.1726 119.645 64.8141 120.05 65.3607 120.591C65.9128 121.132 66.3423 121.812 66.6491 122.632C66.9559 123.446 67.1092 124.4 67.1092 125.493V126.472H56.258V124.264H63.7543C63.7543 123.75 63.6428 123.296 63.4197 122.9C63.1966 122.504 62.887 122.194 62.491 121.971C62.1006 121.742 61.646 121.628 61.1273 121.628C60.5862 121.628 60.1066 121.754 59.6882 122.005C59.2755 122.25 58.952 122.582 58.7177 123C58.4835 123.413 58.3636 123.873 58.358 124.381V126.481C58.358 127.116 58.4751 127.666 58.7094 128.129C58.9492 128.592 59.2867 128.949 59.7217 129.2C60.1568 129.451 60.6727 129.576 61.2695 129.576C61.6655 129.576 62.0281 129.52 62.3571 129.409C62.6862 129.297 62.9679 129.13 63.2021 128.907C63.4364 128.684 63.6149 128.41 63.7376 128.087L67.0339 128.305C66.8666 129.097 66.5236 129.788 66.0049 130.379C65.4917 130.965 64.828 131.422 64.0137 131.751C63.2049 132.075 62.2707 132.237 61.2109 132.237ZM90.7004 123.419C90.7004 125.287 90.3462 126.877 89.6379 128.187C88.9351 129.498 87.9757 130.499 86.7598 131.191C85.5495 131.877 84.1885 132.22 82.677 132.22C81.1543 132.22 79.7878 131.874 78.5775 131.183C77.3671 130.491 76.4106 129.49 75.7078 128.179C75.005 126.868 74.6536 125.281 74.6536 123.419C74.6536 121.55 75.005 119.96 75.7078 118.65C76.4106 117.339 77.3671 116.341 78.5775 115.655C79.7878 114.963 81.1543 114.617 82.677 114.617C84.1885 114.617 85.5495 114.963 86.7598 115.655C87.9757 116.341 88.9351 117.339 89.6379 118.65C90.3462 119.96 90.7004 121.55 90.7004 123.419ZM87.0275 123.419C87.0275 122.208 86.8463 121.187 86.4837 120.356C86.1268 119.525 85.622 118.895 84.9694 118.466C84.3168 118.036 83.5527 117.821 82.677 117.821C81.8013 117.821 81.0372 118.036 80.3846 118.466C79.732 118.895 79.2245 119.525 78.8619 120.356C78.505 121.187 78.3265 122.208 78.3265 123.419C78.3265 124.629 78.505 125.65 78.8619 126.481C79.2245 127.312 79.732 127.942 80.3846 128.371C81.0372 128.801 81.8013 129.016 82.677 129.016C83.5527 129.016 84.3168 128.801 84.9694 128.371C85.622 127.942 86.1268 127.312 86.4837 126.481C86.8463 125.65 87.0275 124.629 87.0275 123.419ZM95.852 131.986L92.3548 119.135H95.9608L97.952 127.769H98.0691L100.144 119.135H103.683L105.791 127.719H105.9L107.858 119.135H111.455L107.967 131.986H104.193L101.985 123.904H101.826L99.6169 131.986H95.852ZM116.921 124.556V131.986H113.357V119.135H116.753V121.402H116.904C117.188 120.655 117.665 120.064 118.335 119.629C119.004 119.188 119.815 118.968 120.769 118.968C121.662 118.968 122.44 119.163 123.103 119.553C123.767 119.944 124.283 120.501 124.651 121.227C125.019 121.946 125.203 122.805 125.203 123.803V131.986H121.639V124.439C121.645 123.653 121.444 123.039 121.037 122.599C120.63 122.152 120.069 121.929 119.355 121.929C118.876 121.929 118.452 122.032 118.084 122.239C117.721 122.445 117.437 122.746 117.23 123.142C117.029 123.533 116.926 124.004 116.921 124.556ZM133.869 132.237C132.547 132.237 131.409 131.969 130.455 131.434C129.507 130.893 128.777 130.128 128.263 129.141C127.75 128.148 127.494 126.974 127.494 125.619C127.494 124.297 127.75 123.137 128.263 122.138C128.777 121.14 129.499 120.362 130.43 119.804C131.367 119.246 132.466 118.968 133.727 118.968C134.574 118.968 135.364 119.104 136.094 119.378C136.831 119.645 137.472 120.05 138.019 120.591C138.571 121.132 139 121.812 139.307 122.632C139.614 123.446 139.767 124.4 139.767 125.493V126.472H128.916V124.264H136.412C136.412 123.75 136.301 123.296 136.078 122.9C135.855 122.504 135.545 122.194 135.149 121.971C134.759 121.742 134.304 121.628 133.785 121.628C133.244 121.628 132.765 121.754 132.346 122.005C131.933 122.25 131.61 122.582 131.376 123C131.141 123.413 131.022 123.873 131.016 124.381V126.481C131.016 127.116 131.133 127.666 131.367 128.129C131.607 128.592 131.945 128.949 132.38 129.2C132.815 129.451 133.331 129.576 133.927 129.576C134.323 129.576 134.686 129.52 135.015 129.409C135.344 129.297 135.626 129.13 135.86 128.907C136.094 128.684 136.273 128.41 136.396 128.087L139.692 128.305C139.525 129.097 139.182 129.788 138.663 130.379C138.15 130.965 137.486 131.422 136.672 131.751C135.863 132.075 134.929 132.237 133.869 132.237ZM142.093 131.986V119.135H145.548V121.377H145.682C145.917 120.58 146.31 119.977 146.862 119.57C147.414 119.157 148.05 118.951 148.769 118.951C148.948 118.951 149.14 118.962 149.347 118.984C149.553 119.007 149.734 119.037 149.891 119.076V122.239C149.723 122.189 149.492 122.144 149.196 122.105C148.901 122.066 148.63 122.046 148.385 122.046C147.86 122.046 147.392 122.161 146.979 122.389C146.572 122.613 146.248 122.925 146.009 123.326C145.774 123.728 145.657 124.191 145.657 124.715V131.986H142.093ZM162.426 122.799L159.163 123C159.107 122.721 158.987 122.47 158.803 122.247C158.619 122.019 158.376 121.837 158.075 121.703C157.779 121.564 157.425 121.494 157.012 121.494C156.46 121.494 155.995 121.611 155.615 121.846C155.236 122.074 155.046 122.381 155.046 122.766C155.046 123.073 155.169 123.332 155.414 123.544C155.66 123.756 156.081 123.926 156.678 124.054L159.004 124.523C160.253 124.779 161.184 125.192 161.798 125.761C162.412 126.33 162.718 127.077 162.718 128.003C162.718 128.846 162.47 129.585 161.974 130.22C161.483 130.856 160.808 131.353 159.949 131.71C159.096 132.061 158.111 132.237 156.996 132.237C155.295 132.237 153.939 131.883 152.93 131.174C151.926 130.46 151.337 129.49 151.164 128.263L154.67 128.079C154.776 128.597 155.032 128.993 155.44 129.267C155.847 129.534 156.368 129.668 157.004 129.668C157.629 129.668 158.131 129.548 158.51 129.308C158.895 129.063 159.09 128.748 159.096 128.363C159.09 128.04 158.953 127.775 158.686 127.568C158.418 127.356 158.005 127.195 157.447 127.083L155.222 126.64C153.967 126.389 153.033 125.954 152.419 125.334C151.811 124.715 151.507 123.926 151.507 122.967C151.507 122.141 151.73 121.43 152.177 120.833C152.628 120.237 153.262 119.776 154.076 119.453C154.896 119.129 155.855 118.968 156.954 118.968C158.577 118.968 159.854 119.311 160.786 119.997C161.723 120.683 162.269 121.617 162.426 122.799ZM168.527 124.556V131.986H164.963V114.851H168.426V121.402H168.577C168.867 120.644 169.335 120.05 169.982 119.62C170.629 119.185 171.441 118.968 172.417 118.968C173.309 118.968 174.088 119.163 174.751 119.553C175.421 119.938 175.939 120.493 176.307 121.218C176.681 121.938 176.865 122.799 176.86 123.803V131.986H173.296V124.439C173.301 123.647 173.1 123.031 172.693 122.59C172.292 122.15 171.728 121.929 171.003 121.929C170.518 121.929 170.088 122.032 169.715 122.239C169.347 122.445 169.057 122.746 168.845 123.142C168.638 123.533 168.532 124.004 168.527 124.556ZM179.664 131.986V119.135H183.229V131.986H179.664ZM181.455 117.478C180.925 117.478 180.47 117.303 180.091 116.951C179.717 116.594 179.531 116.168 179.531 115.671C179.531 115.18 179.717 114.759 180.091 114.408C180.47 114.051 180.925 113.872 181.455 113.872C181.985 113.872 182.437 114.051 182.81 114.408C183.19 114.759 183.379 115.18 183.379 115.671C183.379 116.168 183.19 116.594 182.81 116.951C182.437 117.303 181.985 117.478 181.455 117.478ZM186.084 136.805V119.135H189.597V121.293H189.756C189.913 120.948 190.139 120.596 190.434 120.239C190.735 119.877 191.126 119.576 191.605 119.336C192.091 119.09 192.693 118.968 193.413 118.968C194.35 118.968 195.214 119.213 196.006 119.704C196.798 120.189 197.431 120.923 197.905 121.904C198.379 122.88 198.616 124.105 198.616 125.577C198.616 127.011 198.385 128.221 197.922 129.208C197.465 130.19 196.84 130.934 196.048 131.442C195.262 131.944 194.38 132.195 193.404 132.195C192.713 132.195 192.124 132.081 191.639 131.852C191.159 131.623 190.766 131.336 190.459 130.99C190.152 130.639 189.918 130.285 189.756 129.928H189.648V136.805H186.084ZM189.572 125.56C189.572 126.324 189.678 126.991 189.89 127.56C190.102 128.129 190.409 128.572 190.811 128.89C191.212 129.202 191.7 129.359 192.275 129.359C192.855 129.359 193.346 129.2 193.747 128.882C194.149 128.558 194.453 128.112 194.659 127.543C194.871 126.969 194.977 126.308 194.977 125.56C194.977 124.819 194.874 124.166 194.668 123.603C194.461 123.039 194.157 122.599 193.756 122.281C193.354 121.963 192.86 121.804 192.275 121.804C191.695 121.804 191.204 121.957 190.802 122.264C190.406 122.571 190.102 123.006 189.89 123.569C189.678 124.132 189.572 124.796 189.572 125.56Z" fill="white"/>
<path d="M27.769 149.289C27.769 150.306 27.5854 151.184 27.2184 151.925C26.8513 152.665 26.3477 153.236 25.7077 153.638C25.0677 154.039 24.3367 154.24 23.5147 154.24C22.6927 154.24 21.9617 154.039 21.3216 153.638C20.6816 153.236 20.178 152.665 19.811 151.925C19.4439 151.184 19.2604 150.306 19.2604 149.289C19.2604 148.273 19.4439 147.394 19.811 146.654C20.178 145.914 20.6816 145.343 21.3216 144.941C21.9617 144.539 22.6927 144.339 23.5147 144.339C24.3367 144.339 25.0677 144.539 25.7077 144.941C26.3477 145.343 26.8513 145.914 27.2184 146.654C27.5854 147.394 27.769 148.273 27.769 149.289ZM26.6395 149.289C26.6395 148.455 26.4999 147.75 26.2207 147.176C25.9446 146.602 25.5697 146.168 25.0959 145.873C24.6253 145.578 24.0982 145.43 23.5147 145.43C22.9311 145.43 22.4025 145.578 21.9287 145.873C21.4581 146.168 21.0832 146.602 20.804 147.176C20.5279 147.75 20.3898 148.455 20.3898 149.289C20.3898 150.124 20.5279 150.828 20.804 151.402C21.0832 151.977 21.4581 152.411 21.9287 152.706C22.4025 153.001 22.9311 153.148 23.5147 153.148C24.0982 153.148 24.6253 153.001 25.0959 152.706C25.5697 152.411 25.9446 151.977 26.2207 151.402C26.4999 150.828 26.6395 150.124 26.6395 149.289ZM31.2185 154.108L29.0161 146.88H30.1832L31.7456 152.414H31.8209L33.3645 146.88H34.5505L36.0752 152.395H36.1505L37.713 146.88H38.8801L36.6776 154.108H35.5858L34.0046 148.555H33.8916L32.3104 154.108H31.2185ZM41.459 149.76V154.108H40.3484V146.88H41.4214V148.009H41.5155C41.6849 147.642 41.9422 147.347 42.2873 147.125C42.6324 146.899 43.0779 146.786 43.6238 146.786C44.1133 146.786 44.5415 146.886 44.9086 147.087C45.2757 147.285 45.5612 147.586 45.7651 147.99C45.969 148.392 46.071 148.9 46.071 149.515V154.108H44.9604V149.591C44.9604 149.023 44.8129 148.58 44.518 148.263C44.2231 147.943 43.8183 147.783 43.3038 147.783C42.9493 147.783 42.6324 147.86 42.3532 148.014C42.0771 148.168 41.859 148.392 41.699 148.687C41.539 148.982 41.459 149.34 41.459 149.76ZM52.5431 156.819C52.3548 156.819 52.187 156.803 52.0395 156.772C51.892 156.744 51.7901 156.716 51.7336 156.687L52.016 155.708C52.2858 155.777 52.5242 155.803 52.7313 155.784C52.9384 155.765 53.1219 155.672 53.2819 155.506C53.4451 155.343 53.5941 155.078 53.729 154.711L53.9361 154.146L51.263 146.88H52.4678L54.4631 152.64H54.5384L56.5338 146.88H57.7386L54.6702 155.163C54.5322 155.536 54.3612 155.845 54.1572 156.09C53.9533 156.338 53.7164 156.521 53.4466 156.64C53.1799 156.76 52.8788 156.819 52.5431 156.819ZM61.8823 154.259C61.2297 154.259 60.6571 154.104 60.1646 153.793C59.6751 153.482 59.2924 153.048 59.0163 152.49C58.7433 151.931 58.6069 151.278 58.6069 150.532C58.6069 149.779 58.7433 149.122 59.0163 148.56C59.2924 147.998 59.6751 147.562 60.1646 147.252C60.6571 146.941 61.2297 146.786 61.8823 146.786C62.5349 146.786 63.1059 146.941 63.5953 147.252C64.0879 147.562 64.4707 147.998 64.7436 148.56C65.0197 149.122 65.1577 149.779 65.1577 150.532C65.1577 151.278 65.0197 151.931 64.7436 152.49C64.4707 153.048 64.0879 153.482 63.5953 153.793C63.1059 154.104 62.5349 154.259 61.8823 154.259ZM61.8823 153.261C62.378 153.261 62.7859 153.134 63.1059 152.88C63.4259 152.626 63.6628 152.292 63.8165 151.878C63.9702 151.464 64.0471 151.015 64.0471 150.532C64.0471 150.049 63.9702 149.598 63.8165 149.181C63.6628 148.764 63.4259 148.427 63.1059 148.169C62.7859 147.912 62.378 147.783 61.8823 147.783C61.3866 147.783 60.9787 147.912 60.6587 148.169C60.3387 148.427 60.1018 148.764 59.9481 149.181C59.7944 149.598 59.7175 150.049 59.7175 150.532C59.7175 151.015 59.7944 151.464 59.9481 151.878C60.1018 152.292 60.3387 152.626 60.6587 152.88C60.9787 153.134 61.3866 153.261 61.8823 153.261ZM71.4086 151.153V146.88H72.5193V154.108H71.4086V152.885H71.3333C71.1639 153.252 70.9004 153.564 70.5427 153.821C70.185 154.075 69.7333 154.203 69.1873 154.203C68.7356 154.203 68.334 154.104 67.9826 153.906C67.6312 153.705 67.3551 153.404 67.1543 153.002C66.9535 152.598 66.8531 152.088 66.8531 151.473V146.88H67.9638V151.398C67.9638 151.925 68.1112 152.345 68.4061 152.659C68.7042 152.973 69.0838 153.13 69.545 153.13C69.8211 153.13 70.1019 153.059 70.3874 152.918C70.676 152.777 70.9176 152.56 71.1121 152.268C71.3098 151.977 71.4086 151.605 71.4086 151.153ZM74.5535 154.108V146.88H75.6265V147.972H75.7018C75.8335 147.614 76.072 147.324 76.4171 147.101C76.7622 146.878 77.1512 146.767 77.5842 146.767C77.6658 146.767 77.7677 146.768 77.8901 146.772C78.0125 146.775 78.105 146.779 78.1678 146.786V147.915C78.1301 147.906 78.0438 147.892 77.9089 147.873C77.7772 147.851 77.6375 147.84 77.4901 147.84C77.1387 147.84 76.825 147.914 76.5489 148.061C76.2759 148.205 76.0594 148.406 75.8994 148.663C75.7425 148.918 75.6641 149.208 75.6641 149.534V154.108H74.5535ZM86.1481 154.259C85.4704 154.259 84.8869 154.099 84.3975 153.779C83.908 153.459 83.5315 153.018 83.268 152.457C83.0044 151.895 82.8727 151.253 82.8727 150.532C82.8727 149.798 83.0076 149.15 83.2774 148.588C83.5504 148.023 83.93 147.583 84.4163 147.266C84.9057 146.946 85.4767 146.786 86.1293 146.786C86.6376 146.786 87.0956 146.88 87.5035 147.068C87.9113 147.256 88.2455 147.52 88.5059 147.859C88.7663 148.198 88.9279 148.593 88.9906 149.045H87.88C87.7953 148.715 87.607 148.423 87.3152 148.169C87.0266 147.912 86.6376 147.783 86.1481 147.783C85.7152 147.783 85.3355 147.896 85.0092 148.122C84.6861 148.345 84.4335 148.66 84.2516 149.068C84.0727 149.473 83.9833 149.948 83.9833 150.494C83.9833 151.053 84.0712 151.539 84.2469 151.953C84.4257 152.367 84.6767 152.689 84.9998 152.918C85.3261 153.147 85.7089 153.261 86.1481 153.261C86.4368 153.261 86.6987 153.211 86.934 153.111C87.1693 153.01 87.3686 152.866 87.5317 152.678C87.6949 152.49 87.8109 152.264 87.88 152H88.9906C88.9279 152.427 88.7726 152.811 88.5247 153.153C88.28 153.492 87.9553 153.762 87.5505 153.963C87.149 154.16 86.6815 154.259 86.1481 154.259ZM92.7414 154.278C92.2833 154.278 91.8676 154.192 91.4943 154.019C91.1209 153.843 90.8244 153.591 90.6048 153.261C90.3852 152.929 90.2754 152.527 90.2754 152.057C90.2754 151.642 90.3569 151.307 90.5201 151.049C90.6832 150.789 90.9013 150.585 91.1742 150.438C91.4472 150.29 91.7484 150.18 92.0778 150.108C92.4104 150.033 92.7445 149.973 93.0802 149.929C93.5194 149.873 93.8755 149.831 94.1485 149.802C94.4246 149.771 94.6254 149.719 94.7509 149.647C94.8795 149.575 94.9438 149.449 94.9438 149.271V149.233C94.9438 148.769 94.8168 148.408 94.5626 148.15C94.3116 147.893 93.9304 147.765 93.419 147.765C92.8888 147.765 92.4731 147.881 92.1719 148.113C91.8707 148.345 91.659 148.593 91.5366 148.856L90.4824 148.48C90.6707 148.041 90.9217 147.699 91.2354 147.454C91.5523 147.206 91.8974 147.034 92.2708 146.936C92.6472 146.836 93.0175 146.786 93.3814 146.786C93.6136 146.786 93.8802 146.814 94.1814 146.87C94.4858 146.924 94.7791 147.035 95.0615 147.205C95.347 147.374 95.5839 147.63 95.7721 147.972C95.9603 148.314 96.0545 148.772 96.0545 149.346V154.108H94.9438V153.13H94.8873C94.8121 153.286 94.6866 153.454 94.5109 153.633C94.3352 153.812 94.1014 153.964 93.8097 154.09C93.5179 154.215 93.1618 154.278 92.7414 154.278ZM92.9108 153.28C93.35 153.28 93.7202 153.194 94.0214 153.021C94.3258 152.849 94.5548 152.626 94.7085 152.353C94.8654 152.08 94.9438 151.793 94.9438 151.492V150.475C94.8968 150.532 94.7932 150.584 94.6332 150.631C94.4763 150.675 94.2944 150.714 94.0873 150.748C93.8834 150.78 93.6842 150.808 93.4896 150.833C93.2983 150.855 93.143 150.874 93.0237 150.889C92.7351 150.927 92.4653 150.988 92.2143 151.073C91.9664 151.155 91.7656 151.278 91.6119 151.445C91.4613 151.608 91.386 151.831 91.386 152.113C91.386 152.499 91.5288 152.791 91.8143 152.988C92.1029 153.183 92.4684 153.28 92.9108 153.28ZM98.0816 154.108V146.88H99.1546V147.972H99.2299C99.3617 147.614 99.6001 147.324 99.9452 147.101C100.29 146.878 100.679 146.767 101.112 146.767C101.194 146.767 101.296 146.768 101.418 146.772C101.541 146.775 101.633 146.779 101.696 146.786V147.915C101.658 147.906 101.572 147.892 101.437 147.873C101.305 147.851 101.166 147.84 101.018 147.84C100.667 147.84 100.353 147.914 100.077 148.061C99.804 148.205 99.5876 148.406 99.4276 148.663C99.2707 148.918 99.1923 149.208 99.1923 149.534V154.108H98.0816ZM105.522 154.259C104.92 154.259 104.388 154.107 103.927 153.803C103.465 153.495 103.105 153.062 102.844 152.504C102.584 151.942 102.454 151.278 102.454 150.513C102.454 149.754 102.584 149.095 102.844 148.536C103.105 147.978 103.467 147.547 103.931 147.242C104.396 146.938 104.932 146.786 105.541 146.786C106.011 146.786 106.383 146.864 106.656 147.021C106.932 147.175 107.142 147.35 107.287 147.548C107.434 147.743 107.549 147.903 107.63 148.028H107.724V144.47H108.835V154.108H107.762V152.998H107.63C107.549 153.13 107.433 153.296 107.282 153.497C107.131 153.694 106.917 153.872 106.637 154.028C106.358 154.182 105.986 154.259 105.522 154.259ZM105.673 153.261C106.118 153.261 106.495 153.145 106.802 152.913C107.109 152.678 107.343 152.353 107.503 151.939C107.663 151.522 107.743 151.04 107.743 150.494C107.743 149.954 107.665 149.482 107.508 149.078C107.351 148.67 107.119 148.353 106.811 148.127C106.504 147.898 106.124 147.783 105.673 147.783C105.202 147.783 104.81 147.904 104.496 148.146C104.185 148.384 103.952 148.709 103.795 149.12C103.641 149.528 103.564 149.986 103.564 150.494C103.564 151.009 103.643 151.476 103.8 151.897C103.96 152.314 104.195 152.646 104.505 152.894C104.819 153.139 105.208 153.261 105.673 153.261ZM116.144 148.499L115.146 148.781C115.083 148.615 114.991 148.453 114.868 148.296C114.749 148.136 114.586 148.005 114.379 147.901C114.172 147.798 113.907 147.746 113.583 147.746C113.141 147.746 112.772 147.848 112.478 148.052C112.186 148.252 112.04 148.508 112.04 148.819C112.04 149.095 112.14 149.313 112.341 149.473C112.542 149.633 112.856 149.766 113.282 149.873L114.355 150.136C115.002 150.293 115.483 150.533 115.8 150.856C116.117 151.176 116.275 151.589 116.275 152.094C116.275 152.508 116.156 152.879 115.918 153.205C115.682 153.531 115.353 153.788 114.929 153.977C114.506 154.165 114.013 154.259 113.452 154.259C112.714 154.259 112.104 154.099 111.621 153.779C111.138 153.459 110.832 152.991 110.703 152.377L111.758 152.113C111.858 152.502 112.048 152.794 112.327 152.988C112.609 153.183 112.978 153.28 113.433 153.28C113.951 153.28 114.362 153.17 114.666 152.951C114.973 152.728 115.127 152.461 115.127 152.151C115.127 151.9 115.039 151.689 114.864 151.52C114.688 151.347 114.418 151.219 114.054 151.134L112.849 150.852C112.187 150.695 111.701 150.452 111.39 150.122C111.083 149.79 110.929 149.374 110.929 148.875C110.929 148.467 111.044 148.107 111.273 147.793C111.505 147.479 111.82 147.233 112.219 147.054C112.62 146.875 113.075 146.786 113.583 146.786C114.299 146.786 114.86 146.943 115.268 147.256C115.679 147.57 115.971 147.984 116.144 148.499ZM124.611 154.259C123.958 154.259 123.386 154.104 122.893 153.793C122.404 153.482 122.021 153.048 121.745 152.49C121.472 151.931 121.336 151.278 121.336 150.532C121.336 149.779 121.472 149.122 121.745 148.56C122.021 147.998 122.404 147.562 122.893 147.252C123.386 146.941 123.958 146.786 124.611 146.786C125.264 146.786 125.835 146.941 126.324 147.252C126.817 147.562 127.199 147.998 127.472 148.56C127.748 149.122 127.887 149.779 127.887 150.532C127.887 151.278 127.748 151.931 127.472 152.49C127.199 153.048 126.817 153.482 126.324 153.793C125.835 154.104 125.264 154.259 124.611 154.259ZM124.611 153.261C125.107 153.261 125.515 153.134 125.835 152.88C126.155 152.626 126.392 152.292 126.545 151.878C126.699 151.464 126.776 151.015 126.776 150.532C126.776 150.049 126.699 149.598 126.545 149.181C126.392 148.764 126.155 148.427 125.835 148.169C125.515 147.912 125.107 147.783 124.611 147.783C124.115 147.783 123.707 147.912 123.387 148.169C123.067 148.427 122.831 148.764 122.677 149.181C122.523 149.598 122.446 150.049 122.446 150.532C122.446 151.015 122.523 151.464 122.677 151.878C122.831 152.292 123.067 152.626 123.387 152.88C123.707 153.134 124.115 153.261 124.611 153.261ZM130.693 149.76V154.108H129.582V146.88H130.655V148.009H130.749C130.918 147.642 131.176 147.347 131.521 147.125C131.866 146.899 132.311 146.786 132.857 146.786C133.347 146.786 133.775 146.886 134.142 147.087C134.509 147.285 134.795 147.586 134.999 147.99C135.203 148.392 135.304 148.9 135.304 149.515V154.108H134.194V149.591C134.194 149.023 134.046 148.58 133.751 148.263C133.457 147.943 133.052 147.783 132.537 147.783C132.183 147.783 131.866 147.86 131.587 148.014C131.311 148.168 131.093 148.392 130.933 148.687C130.773 148.982 130.693 149.34 130.693 149.76ZM141.475 149.459V150.494H137.259V149.459H141.475ZM146.366 154.259C145.688 154.259 145.105 154.099 144.616 153.779C144.126 153.459 143.75 153.018 143.486 152.457C143.223 151.895 143.091 151.253 143.091 150.532C143.091 149.798 143.226 149.15 143.495 148.588C143.768 148.023 144.148 147.583 144.634 147.266C145.124 146.946 145.695 146.786 146.347 146.786C146.856 146.786 147.314 146.88 147.722 147.068C148.129 147.256 148.464 147.52 148.724 147.859C148.984 148.198 149.146 148.593 149.209 149.045H148.098C148.013 148.715 147.825 148.423 147.533 148.169C147.245 147.912 146.856 147.783 146.366 147.783C145.933 147.783 145.554 147.896 145.227 148.122C144.904 148.345 144.652 148.66 144.47 149.068C144.291 149.473 144.201 149.948 144.201 150.494C144.201 151.053 144.289 151.539 144.465 151.953C144.644 152.367 144.895 152.689 145.218 152.918C145.544 153.147 145.927 153.261 146.366 153.261C146.655 153.261 146.917 153.211 147.152 153.111C147.387 153.01 147.587 152.866 147.75 152.678C147.913 152.49 148.029 152.264 148.098 152H149.209C149.146 152.427 148.991 152.811 148.743 153.153C148.498 153.492 148.173 153.762 147.769 153.963C147.367 154.16 146.9 154.259 146.366 154.259ZM151.943 149.76V154.108H150.832V144.47H151.943V148.009H152.037C152.206 147.636 152.461 147.339 152.799 147.12C153.141 146.897 153.596 146.786 154.164 146.786C154.657 146.786 155.088 146.885 155.458 147.082C155.829 147.277 156.116 147.576 156.32 147.981C156.527 148.383 156.63 148.894 156.63 149.515V154.108H155.52V149.591C155.52 149.016 155.371 148.572 155.072 148.259C154.778 147.942 154.368 147.783 153.844 147.783C153.48 147.783 153.154 147.86 152.865 148.014C152.58 148.168 152.354 148.392 152.188 148.687C152.024 148.982 151.943 149.34 151.943 149.76ZM160.789 154.278C160.331 154.278 159.915 154.192 159.542 154.019C159.169 153.843 158.872 153.591 158.653 153.261C158.433 152.929 158.323 152.527 158.323 152.057C158.323 151.642 158.405 151.307 158.568 151.049C158.731 150.789 158.949 150.585 159.222 150.438C159.495 150.29 159.796 150.18 160.126 150.108C160.458 150.033 160.792 149.973 161.128 149.929C161.567 149.873 161.923 149.831 162.196 149.802C162.472 149.771 162.673 149.719 162.799 149.647C162.927 149.575 162.992 149.449 162.992 149.271V149.233C162.992 148.769 162.865 148.408 162.61 148.15C162.359 147.893 161.978 147.765 161.467 147.765C160.937 147.765 160.521 147.881 160.22 148.113C159.919 148.345 159.707 148.593 159.584 148.856L158.53 148.48C158.718 148.041 158.969 147.699 159.283 147.454C159.6 147.206 159.945 147.034 160.319 146.936C160.695 146.836 161.065 146.786 161.429 146.786C161.661 146.786 161.928 146.814 162.229 146.87C162.534 146.924 162.827 147.035 163.109 147.205C163.395 147.374 163.632 147.63 163.82 147.972C164.008 148.314 164.102 148.772 164.102 149.346V154.108H162.992V153.13H162.935C162.86 153.286 162.734 153.454 162.559 153.633C162.383 153.812 162.149 153.964 161.857 154.09C161.566 154.215 161.21 154.278 160.789 154.278ZM160.959 153.28C161.398 153.28 161.768 153.194 162.069 153.021C162.374 152.849 162.603 152.626 162.756 152.353C162.913 152.08 162.992 151.793 162.992 151.492V150.475C162.945 150.532 162.841 150.584 162.681 150.631C162.524 150.675 162.342 150.714 162.135 150.748C161.931 150.78 161.732 150.808 161.537 150.833C161.346 150.855 161.191 150.874 161.072 150.889C160.783 150.927 160.513 150.988 160.262 151.073C160.014 151.155 159.813 151.278 159.66 151.445C159.509 151.608 159.434 151.831 159.434 152.113C159.434 152.499 159.577 152.791 159.862 152.988C160.151 153.183 160.516 153.28 160.959 153.28ZM166.129 154.108V146.88H167.24V154.108H166.129ZM166.694 145.675C166.478 145.675 166.291 145.601 166.134 145.454C165.98 145.306 165.904 145.129 165.904 144.922C165.904 144.715 165.98 144.538 166.134 144.39C166.291 144.243 166.478 144.169 166.694 144.169C166.911 144.169 167.096 144.243 167.249 144.39C167.406 144.538 167.485 144.715 167.485 144.922C167.485 145.129 167.406 145.306 167.249 145.454C167.096 145.601 166.911 145.675 166.694 145.675ZM170.385 149.76V154.108H169.274V146.88H170.347V148.009H170.441C170.611 147.642 170.868 147.347 171.213 147.125C171.558 146.899 172.004 146.786 172.55 146.786C173.039 146.786 173.467 146.886 173.834 147.087C174.202 147.285 174.487 147.586 174.691 147.99C174.895 148.392 174.997 148.9 174.997 149.515V154.108H173.886V149.591C173.886 149.023 173.739 148.58 173.444 148.263C173.149 147.943 172.744 147.783 172.23 147.783C171.875 147.783 171.558 147.86 171.279 148.014C171.003 148.168 170.785 148.392 170.625 148.687C170.465 148.982 170.385 149.34 170.385 149.76ZM178.683 152.791L178.608 153.299C178.554 153.657 178.473 154.039 178.363 154.447C178.256 154.855 178.145 155.239 178.029 155.6C177.913 155.961 177.817 156.248 177.742 156.461H176.895C176.935 156.261 176.989 155.996 177.055 155.666C177.121 155.337 177.186 154.968 177.252 154.56C177.321 154.155 177.378 153.741 177.422 153.318L177.478 152.791H178.683ZM190.379 146.88L187.706 154.108H186.576L183.903 146.88H185.108L187.103 152.64H187.179L189.174 146.88H190.379ZM194.617 154.259C193.92 154.259 193.319 154.105 192.814 153.798C192.312 153.487 191.925 153.054 191.652 152.499C191.382 151.94 191.247 151.291 191.247 150.551C191.247 149.81 191.382 149.158 191.652 148.593C191.925 148.025 192.304 147.583 192.791 147.266C193.28 146.946 193.851 146.786 194.504 146.786C194.88 146.786 195.252 146.848 195.619 146.974C195.986 147.099 196.32 147.303 196.621 147.586C196.923 147.865 197.163 148.235 197.341 148.696C197.52 149.158 197.61 149.725 197.61 150.4V150.871H192.038V149.911H196.48C196.48 149.503 196.399 149.139 196.236 148.819C196.076 148.499 195.846 148.246 195.548 148.061C195.254 147.876 194.905 147.783 194.504 147.783C194.061 147.783 193.679 147.893 193.355 148.113C193.035 148.329 192.789 148.612 192.617 148.96C192.444 149.308 192.358 149.682 192.358 150.08V150.72C192.358 151.266 192.452 151.729 192.64 152.108C192.831 152.485 193.097 152.772 193.435 152.97C193.774 153.164 194.168 153.261 194.617 153.261C194.908 153.261 195.172 153.221 195.407 153.139C195.646 153.054 195.851 152.929 196.024 152.762C196.196 152.593 196.33 152.383 196.424 152.132L197.497 152.433C197.384 152.797 197.194 153.117 196.927 153.393C196.661 153.666 196.331 153.879 195.939 154.033C195.547 154.184 195.106 154.259 194.617 154.259ZM199.299 154.108V146.88H200.372V147.972H200.447C200.579 147.614 200.818 147.324 201.163 147.101C201.508 146.878 201.897 146.767 202.33 146.767C202.411 146.767 202.513 146.768 202.636 146.772C202.758 146.775 202.851 146.779 202.913 146.786V147.915C202.876 147.906 202.79 147.892 202.655 147.873C202.523 147.851 202.383 147.84 202.236 147.84C201.884 147.84 201.571 147.914 201.295 148.061C201.022 148.205 200.805 148.406 200.645 148.663C200.488 148.918 200.41 149.208 200.41 149.534V154.108H199.299ZM204.23 154.108V146.88H205.341V154.108H204.23ZM204.795 145.675C204.578 145.675 204.392 145.601 204.235 145.454C204.081 145.306 204.004 145.129 204.004 144.922C204.004 144.715 204.081 144.538 204.235 144.39C204.392 144.243 204.578 144.169 204.795 144.169C205.011 144.169 205.196 144.243 205.35 144.39C205.507 144.538 205.585 144.715 205.585 144.922C205.585 145.129 205.507 145.306 205.35 145.454C205.196 145.601 205.011 145.675 204.795 145.675ZM210.594 146.88V147.821H206.697V146.88H210.594ZM207.864 154.108V145.882C207.864 145.468 207.962 145.123 208.156 144.847C208.351 144.571 208.603 144.364 208.914 144.226C209.224 144.088 209.552 144.019 209.897 144.019C210.17 144.019 210.393 144.04 210.566 144.084C210.738 144.128 210.867 144.169 210.951 144.207L210.631 145.167C210.575 145.148 210.497 145.124 210.396 145.096C210.299 145.068 210.17 145.054 210.01 145.054C209.643 145.054 209.378 145.146 209.215 145.332C209.055 145.517 208.975 145.788 208.975 146.146V154.108H207.864ZM212.866 156.819C212.677 156.819 212.51 156.803 212.362 156.772C212.215 156.744 212.113 156.716 212.056 156.687L212.339 155.708C212.608 155.777 212.847 155.803 213.054 155.784C213.261 155.765 213.445 155.672 213.605 155.506C213.768 155.343 213.917 155.078 214.052 154.711L214.259 154.146L211.586 146.88H212.79L214.786 152.64H214.861L216.856 146.88H218.061L214.993 155.163C214.855 155.536 214.684 155.845 214.48 156.09C214.276 156.338 214.039 156.521 213.769 156.64C213.503 156.76 213.201 156.819 212.866 156.819ZM223.254 154.108V146.88H224.327V147.972H224.403C224.534 147.614 224.773 147.324 225.118 147.101C225.463 146.878 225.852 146.767 226.285 146.767C226.367 146.767 226.469 146.768 226.591 146.772C226.713 146.775 226.806 146.779 226.869 146.786V147.915C226.831 147.906 226.745 147.892 226.61 147.873C226.478 147.851 226.338 147.84 226.191 147.84C225.84 147.84 225.526 147.914 225.25 148.061C224.977 148.205 224.76 148.406 224.6 148.663C224.443 148.918 224.365 149.208 224.365 149.534V154.108H223.254ZM230.312 154.278C229.854 154.278 229.439 154.192 229.065 154.019C228.692 153.843 228.395 153.591 228.176 153.261C227.956 152.929 227.846 152.527 227.846 152.057C227.846 151.642 227.928 151.307 228.091 151.049C228.254 150.789 228.472 150.585 228.745 150.438C229.018 150.29 229.319 150.18 229.649 150.108C229.981 150.033 230.316 149.973 230.651 149.929C231.09 149.873 231.447 149.831 231.719 149.802C231.996 149.771 232.196 149.719 232.322 149.647C232.451 149.575 232.515 149.449 232.515 149.271V149.233C232.515 148.769 232.388 148.408 232.134 148.15C231.883 147.893 231.501 147.765 230.99 147.765C230.46 147.765 230.044 147.881 229.743 148.113C229.442 148.345 229.23 148.593 229.108 148.856L228.053 148.48C228.242 148.041 228.493 147.699 228.806 147.454C229.123 147.206 229.468 147.034 229.842 146.936C230.218 146.836 230.588 146.786 230.952 146.786C231.185 146.786 231.451 146.814 231.752 146.87C232.057 146.924 232.35 147.035 232.632 147.205C232.918 147.374 233.155 147.63 233.343 147.972C233.531 148.314 233.625 148.772 233.625 149.346V154.108H232.515V153.13H232.458C232.383 153.286 232.258 153.454 232.082 153.633C231.906 153.812 231.672 153.964 231.381 154.09C231.089 154.215 230.733 154.278 230.312 154.278ZM230.482 153.28C230.921 153.28 231.291 153.194 231.592 153.021C231.897 152.849 232.126 152.626 232.28 152.353C232.436 152.08 232.515 151.793 232.515 151.492V150.475C232.468 150.532 232.364 150.584 232.204 150.631C232.047 150.675 231.865 150.714 231.658 150.748C231.454 150.78 231.255 150.808 231.061 150.833C230.869 150.855 230.714 150.874 230.595 150.889C230.306 150.927 230.036 150.988 229.785 151.073C229.537 151.155 229.337 151.278 229.183 151.445C229.032 151.608 228.957 151.831 228.957 152.113C228.957 152.499 229.1 152.791 229.385 152.988C229.674 153.183 230.039 153.28 230.482 153.28ZM235.653 154.108V146.88H236.726V147.972H236.801C236.933 147.614 237.171 147.324 237.516 147.101C237.861 146.878 238.25 146.767 238.683 146.767C238.765 146.767 238.867 146.768 238.989 146.772C239.112 146.775 239.204 146.779 239.267 146.786V147.915C239.229 147.906 239.143 147.892 239.008 147.873C238.876 147.851 238.737 147.84 238.589 147.84C238.238 147.84 237.924 147.914 237.648 148.061C237.375 148.205 237.159 148.406 236.999 148.663C236.842 148.918 236.763 149.208 236.763 149.534V154.108H235.653ZM240.583 154.108V146.88H241.694V154.108H240.583ZM241.148 145.675C240.932 145.675 240.745 145.601 240.588 145.454C240.434 145.306 240.358 145.129 240.358 144.922C240.358 144.715 240.434 144.538 240.588 144.39C240.745 144.243 240.932 144.169 241.148 144.169C241.365 144.169 241.55 144.243 241.703 144.39C241.86 144.538 241.939 144.715 241.939 144.922C241.939 145.129 241.86 145.306 241.703 145.454C241.55 145.601 241.365 145.675 241.148 145.675ZM246.872 146.88V147.821H243.126V146.88H246.872ZM244.218 145.148H245.328V152.038C245.328 152.351 245.374 152.587 245.465 152.744C245.559 152.897 245.678 153.001 245.822 153.054C245.97 153.104 246.125 153.13 246.288 153.13C246.411 153.13 246.511 153.123 246.59 153.111C246.668 153.095 246.731 153.082 246.778 153.073L247.004 154.071C246.928 154.099 246.823 154.127 246.688 154.155C246.554 154.187 246.383 154.203 246.175 154.203C245.862 154.203 245.554 154.135 245.253 154C244.955 153.865 244.707 153.66 244.509 153.384C244.315 153.108 244.218 152.759 244.218 152.339V145.148ZM249.258 156.819C249.07 156.819 248.902 156.803 248.754 156.772C248.607 156.744 248.505 156.716 248.449 156.687L248.731 155.708C249.001 155.777 249.239 155.803 249.446 155.784C249.653 155.765 249.837 155.672 249.997 155.506C250.16 155.343 250.309 155.078 250.444 154.711L250.651 154.146L247.978 146.88H249.183L251.178 152.64H251.253L253.249 146.88H254.453L251.385 155.163C251.247 155.536 251.076 155.845 250.872 156.09C250.668 156.338 250.431 156.521 250.162 156.64C249.895 156.76 249.594 156.819 249.258 156.819ZM257.123 152.791L257.048 153.299C256.994 153.657 256.913 154.039 256.803 154.447C256.696 154.855 256.585 155.239 256.469 155.6C256.353 155.961 256.257 156.248 256.182 156.461H255.335C255.375 156.261 255.429 155.996 255.495 155.666C255.561 155.337 255.626 154.968 255.692 154.56C255.761 154.155 255.818 153.741 255.862 153.318L255.918 152.791H257.123ZM265.035 154.278C264.577 154.278 264.161 154.192 263.788 154.019C263.415 153.843 263.118 153.591 262.899 153.261C262.679 152.929 262.569 152.527 262.569 152.057C262.569 151.642 262.651 151.307 262.814 151.049C262.977 150.789 263.195 150.585 263.468 150.438C263.741 150.29 264.042 150.18 264.372 150.108C264.704 150.033 265.038 149.973 265.374 149.929C265.813 149.873 266.169 149.831 266.442 149.802C266.718 149.771 266.919 149.719 267.045 149.647C267.173 149.575 267.238 149.449 267.238 149.271V149.233C267.238 148.769 267.111 148.408 266.856 148.15C266.605 147.893 266.224 147.765 265.713 147.765C265.183 147.765 264.767 147.881 264.466 148.113C264.165 148.345 263.953 148.593 263.83 148.856L262.776 148.48C262.964 148.041 263.215 147.699 263.529 147.454C263.846 147.206 264.191 147.034 264.565 146.936C264.941 146.836 265.311 146.786 265.675 146.786C265.907 146.786 266.174 146.814 266.475 146.87C266.78 146.924 267.073 147.035 267.355 147.205C267.641 147.374 267.878 147.63 268.066 147.972C268.254 148.314 268.348 148.772 268.348 149.346V154.108H267.238V153.13H267.181C267.106 153.286 266.98 153.454 266.805 153.633C266.629 153.812 266.395 153.964 266.103 154.09C265.812 154.215 265.456 154.278 265.035 154.278ZM265.205 153.28C265.644 153.28 266.014 153.194 266.315 153.021C266.62 152.849 266.849 152.626 267.002 152.353C267.159 152.08 267.238 151.793 267.238 151.492V150.475C267.191 150.532 267.087 150.584 266.927 150.631C266.77 150.675 266.588 150.714 266.381 150.748C266.177 150.78 265.978 150.808 265.783 150.833C265.592 150.855 265.437 150.874 265.318 150.889C265.029 150.927 264.759 150.988 264.508 151.073C264.26 151.155 264.059 151.278 263.906 151.445C263.755 151.608 263.68 151.831 263.68 152.113C263.68 152.499 263.823 152.791 264.108 152.988C264.397 153.183 264.762 153.28 265.205 153.28ZM271.486 149.76V154.108H270.375V146.88H271.448V148.009H271.543C271.712 147.642 271.969 147.347 272.314 147.125C272.659 146.899 273.105 146.786 273.651 146.786C274.14 146.786 274.569 146.886 274.936 147.087C275.303 147.285 275.588 147.586 275.792 147.99C275.996 148.392 276.098 148.9 276.098 149.515V154.108H274.987V149.591C274.987 149.023 274.84 148.58 274.545 148.263C274.25 147.943 273.845 147.783 273.331 147.783C272.976 147.783 272.659 147.86 272.38 148.014C272.104 148.168 271.886 148.392 271.726 148.687C271.566 148.982 271.486 149.34 271.486 149.76ZM280.857 154.259C280.255 154.259 279.723 154.107 279.262 153.803C278.8 153.495 278.44 153.062 278.179 152.504C277.919 151.942 277.789 151.278 277.789 150.513C277.789 149.754 277.919 149.095 278.179 148.536C278.44 147.978 278.802 147.547 279.266 147.242C279.731 146.938 280.267 146.786 280.876 146.786C281.346 146.786 281.718 146.864 281.991 147.021C282.267 147.175 282.478 147.35 282.622 147.548C282.769 147.743 282.884 147.903 282.965 148.028H283.06V144.47H284.17V154.108H283.097V152.998H282.965C282.884 153.13 282.768 153.296 282.617 153.497C282.467 153.694 282.252 153.872 281.972 154.028C281.693 154.182 281.321 154.259 280.857 154.259ZM281.008 153.261C281.453 153.261 281.83 153.145 282.137 152.913C282.445 152.678 282.678 152.353 282.838 151.939C282.998 151.522 283.078 151.04 283.078 150.494C283.078 149.954 283 149.482 282.843 149.078C282.686 148.67 282.454 148.353 282.147 148.127C281.839 147.898 281.459 147.783 281.008 147.783C280.537 147.783 280.145 147.904 279.831 148.146C279.521 148.384 279.287 148.709 279.13 149.12C278.976 149.528 278.899 149.986 278.899 150.494C278.899 151.009 278.978 151.476 279.135 151.897C279.295 152.314 279.53 152.646 279.841 152.894C280.154 153.139 280.543 153.261 281.008 153.261ZM291.121 151.473L291.102 150.099H291.328L294.491 146.88H295.865L292.495 150.287H292.401L291.121 151.473ZM290.086 154.108V144.47H291.196V154.108H290.086ZM294.679 154.108L291.855 150.532L292.646 149.76L296.091 154.108H294.679ZM300.027 154.259C299.331 154.259 298.73 154.105 298.225 153.798C297.723 153.487 297.335 153.054 297.063 152.499C296.793 151.94 296.658 151.291 296.658 150.551C296.658 149.81 296.793 149.158 297.063 148.593C297.335 148.025 297.715 147.583 298.201 147.266C298.691 146.946 299.262 146.786 299.914 146.786C300.291 146.786 300.663 146.848 301.03 146.974C301.397 147.099 301.731 147.303 302.032 147.586C302.333 147.865 302.573 148.235 302.752 148.696C302.931 149.158 303.02 149.725 303.02 150.4V150.871H297.448V149.911H301.891C301.891 149.503 301.809 149.139 301.646 148.819C301.486 148.499 301.257 148.246 300.959 148.061C300.664 147.876 300.316 147.783 299.914 147.783C299.472 147.783 299.089 147.893 298.766 148.113C298.446 148.329 298.2 148.612 298.027 148.96C297.855 149.308 297.768 149.682 297.768 150.08V150.72C297.768 151.266 297.863 151.729 298.051 152.108C298.242 152.485 298.507 152.772 298.846 152.97C299.185 153.164 299.579 153.261 300.027 153.261C300.319 153.261 300.583 153.221 300.818 153.139C301.056 153.054 301.262 152.929 301.434 152.762C301.607 152.593 301.74 152.383 301.834 152.132L302.907 152.433C302.795 152.797 302.605 153.117 302.338 153.393C302.071 153.666 301.742 153.879 301.35 154.033C300.958 154.184 300.517 154.259 300.027 154.259ZM307.741 154.259C307.044 154.259 306.443 154.105 305.938 153.798C305.436 153.487 305.049 153.054 304.776 152.499C304.506 151.94 304.371 151.291 304.371 150.551C304.371 149.81 304.506 149.158 304.776 148.593C305.049 148.025 305.428 147.583 305.915 147.266C306.404 146.946 306.975 146.786 307.628 146.786C308.004 146.786 308.376 146.848 308.743 146.974C309.11 147.099 309.444 147.303 309.745 147.586C310.047 147.865 310.287 148.235 310.465 148.696C310.644 149.158 310.734 149.725 310.734 150.4V150.871H305.162V149.911H309.604C309.604 149.503 309.523 149.139 309.36 148.819C309.2 148.499 308.97 148.246 308.672 148.061C308.378 147.876 308.029 147.783 307.628 147.783C307.185 147.783 306.803 147.893 306.479 148.113C306.159 148.329 305.913 148.612 305.741 148.96C305.568 149.308 305.482 149.682 305.482 150.08V150.72C305.482 151.266 305.576 151.729 305.764 152.108C305.955 152.485 306.221 152.772 306.559 152.97C306.898 153.164 307.292 153.261 307.741 153.261C308.032 153.261 308.296 153.221 308.531 153.139C308.77 153.054 308.975 152.929 309.148 152.762C309.32 152.593 309.454 152.383 309.548 152.132L310.621 152.433C310.508 152.797 310.318 153.117 310.051 153.393C309.785 153.666 309.455 153.879 309.063 154.033C308.671 154.184 308.23 154.259 307.741 154.259ZM312.423 156.819V146.88H313.496V148.028H313.628C313.71 147.903 313.822 147.743 313.967 147.548C314.114 147.35 314.324 147.175 314.597 147.021C314.874 146.864 315.247 146.786 315.717 146.786C316.326 146.786 316.863 146.938 317.327 147.242C317.791 147.547 318.154 147.978 318.414 148.536C318.674 149.095 318.805 149.754 318.805 150.513C318.805 151.278 318.674 151.942 318.414 152.504C318.154 153.062 317.793 153.495 317.332 153.803C316.87 154.107 316.339 154.259 315.736 154.259C315.272 154.259 314.9 154.182 314.621 154.028C314.342 153.872 314.127 153.694 313.976 153.497C313.826 153.296 313.71 153.13 313.628 152.998H313.534V156.819H312.423ZM313.515 150.494C313.515 151.04 313.595 151.522 313.755 151.939C313.915 152.353 314.149 152.678 314.456 152.913C314.764 153.145 315.14 153.261 315.586 153.261C316.05 153.261 316.437 153.139 316.748 152.894C317.062 152.646 317.297 152.314 317.454 151.897C317.614 151.476 317.694 151.009 317.694 150.494C317.694 149.986 317.616 149.528 317.459 149.12C317.305 148.709 317.071 148.384 316.758 148.146C316.447 147.904 316.056 147.783 315.586 147.783C315.134 147.783 314.754 147.898 314.447 148.127C314.139 148.353 313.907 148.67 313.75 149.078C313.593 149.482 313.515 149.954 313.515 150.494ZM324.226 156.819V146.88H325.299V148.028H325.431C325.512 147.903 325.625 147.743 325.77 147.548C325.917 147.35 326.127 147.175 326.4 147.021C326.676 146.864 327.05 146.786 327.52 146.786C328.129 146.786 328.666 146.938 329.13 147.242C329.594 147.547 329.957 147.978 330.217 148.536C330.477 149.095 330.608 149.754 330.608 150.513C330.608 151.278 330.477 151.942 330.217 152.504C329.957 153.062 329.596 153.495 329.135 153.803C328.673 154.107 328.142 154.259 327.539 154.259C327.075 154.259 326.703 154.182 326.424 154.028C326.145 153.872 325.93 153.694 325.779 153.497C325.628 153.296 325.512 153.13 325.431 152.998H325.337V156.819H324.226ZM325.318 150.494C325.318 151.04 325.398 151.522 325.558 151.939C325.718 152.353 325.952 152.678 326.259 152.913C326.567 153.145 326.943 153.261 327.389 153.261C327.853 153.261 328.24 153.139 328.551 152.894C328.865 152.646 329.1 152.314 329.257 151.897C329.417 151.476 329.497 151.009 329.497 150.494C329.497 149.986 329.418 149.528 329.262 149.12C329.108 148.709 328.874 148.384 328.56 148.146C328.25 147.904 327.859 147.783 327.389 147.783C326.937 147.783 326.557 147.898 326.25 148.127C325.942 148.353 325.71 148.67 325.553 149.078C325.396 149.482 325.318 149.954 325.318 150.494ZM335.332 154.259C334.636 154.259 334.035 154.105 333.53 153.798C333.028 153.487 332.641 153.054 332.368 152.499C332.098 151.94 331.963 151.291 331.963 150.551C331.963 149.81 332.098 149.158 332.368 148.593C332.641 148.025 333.02 147.583 333.507 147.266C333.996 146.946 334.567 146.786 335.22 146.786C335.596 146.786 335.968 146.848 336.335 146.974C336.702 147.099 337.036 147.303 337.337 147.586C337.638 147.865 337.878 148.235 338.057 148.696C338.236 149.158 338.326 149.725 338.326 150.4V150.871H332.754V149.911H337.196C337.196 149.503 337.115 149.139 336.951 148.819C336.791 148.499 336.562 148.246 336.264 148.061C335.969 147.876 335.621 147.783 335.22 147.783C334.777 147.783 334.394 147.893 334.071 148.113C333.751 148.329 333.505 148.612 333.332 148.96C333.16 149.308 333.074 149.682 333.074 150.08V150.72C333.074 151.266 333.168 151.729 333.356 152.108C333.547 152.485 333.812 152.772 334.151 152.97C334.49 153.164 334.884 153.261 335.332 153.261C335.624 153.261 335.888 153.221 336.123 153.139C336.362 153.054 336.567 152.929 336.74 152.762C336.912 152.593 337.046 152.383 337.14 152.132L338.213 152.433C338.1 152.797 337.91 153.117 337.643 153.393C337.377 153.666 337.047 153.879 336.655 154.033C336.263 154.184 335.822 154.259 335.332 154.259ZM340.015 154.108V146.88H341.088V147.972H341.163C341.295 147.614 341.534 147.324 341.879 147.101C342.224 146.878 342.613 146.767 343.046 146.767C343.127 146.767 343.229 146.768 343.352 146.772C343.474 146.775 343.567 146.779 343.629 146.786V147.915C343.592 147.906 343.505 147.892 343.371 147.873C343.239 147.851 343.099 147.84 342.952 147.84C342.6 147.84 342.287 147.914 342.01 148.061C341.737 148.205 341.521 148.406 341.361 148.663C341.204 148.918 341.126 149.208 341.126 149.534V154.108H340.015ZM344.946 154.108V146.88H346.019V148.009H346.113C346.264 147.623 346.507 147.324 346.842 147.11C347.178 146.894 347.581 146.786 348.052 146.786C348.529 146.786 348.926 146.894 349.243 147.11C349.563 147.324 349.812 147.623 349.991 148.009H350.066C350.251 147.636 350.529 147.339 350.899 147.12C351.269 146.897 351.713 146.786 352.231 146.786C352.877 146.786 353.406 146.988 353.817 147.393C354.228 147.794 354.433 148.42 354.433 149.271V154.108H353.323V149.271C353.323 148.737 353.177 148.356 352.885 148.127C352.593 147.898 352.25 147.783 351.854 147.783C351.346 147.783 350.952 147.937 350.673 148.245C350.394 148.549 350.254 148.935 350.254 149.402V154.108H349.125V149.158C349.125 148.747 348.992 148.416 348.725 148.165C348.458 147.91 348.115 147.783 347.694 147.783C347.406 147.783 347.136 147.86 346.885 148.014C346.637 148.168 346.436 148.381 346.282 148.654C346.132 148.924 346.057 149.236 346.057 149.591V154.108H344.946ZM358.591 154.278C358.133 154.278 357.717 154.192 357.344 154.019C356.971 153.843 356.674 153.591 356.455 153.261C356.235 152.929 356.125 152.527 356.125 152.057C356.125 151.642 356.207 151.307 356.37 151.049C356.533 150.789 356.751 150.585 357.024 150.438C357.297 150.29 357.598 150.18 357.928 150.108C358.26 150.033 358.594 149.973 358.93 149.929C359.369 149.873 359.725 149.831 359.998 149.802C360.274 149.771 360.475 149.719 360.601 149.647C360.729 149.575 360.794 149.449 360.794 149.271V149.233C360.794 148.769 360.667 148.408 360.412 148.15C360.161 147.893 359.78 147.765 359.269 147.765C358.739 147.765 358.323 147.881 358.022 148.113C357.721 148.345 357.509 148.593 357.386 148.856L356.332 148.48C356.521 148.041 356.771 147.699 357.085 147.454C357.402 147.206 357.747 147.034 358.121 146.936C358.497 146.836 358.867 146.786 359.231 146.786C359.463 146.786 359.73 146.814 360.031 146.87C360.336 146.924 360.629 147.035 360.911 147.205C361.197 147.374 361.434 147.63 361.622 147.972C361.81 148.314 361.904 148.772 361.904 149.346V154.108H360.794V153.13H360.737C360.662 153.286 360.536 153.454 360.361 153.633C360.185 153.812 359.951 153.964 359.659 154.09C359.368 154.215 359.012 154.278 358.591 154.278ZM358.761 153.28C359.2 153.28 359.57 153.194 359.871 153.021C360.176 152.849 360.405 152.626 360.558 152.353C360.715 152.08 360.794 151.793 360.794 151.492V150.475C360.747 150.532 360.643 150.584 360.483 150.631C360.326 150.675 360.144 150.714 359.937 150.748C359.733 150.78 359.534 150.808 359.339 150.833C359.148 150.855 358.993 150.874 358.874 150.889C358.585 150.927 358.315 150.988 358.064 151.073C357.816 151.155 357.615 151.278 357.462 151.445C357.311 151.608 357.236 151.831 357.236 152.113C357.236 152.499 357.379 152.791 357.664 152.988C357.953 153.183 358.318 153.28 358.761 153.28ZM365.042 149.76V154.108H363.931V146.88H365.004V148.009H365.099C365.268 147.642 365.525 147.347 365.87 147.125C366.215 146.899 366.661 146.786 367.207 146.786C367.696 146.786 368.125 146.886 368.492 147.087C368.859 147.285 369.144 147.586 369.348 147.99C369.552 148.392 369.654 148.9 369.654 149.515V154.108H368.543V149.591C368.543 149.023 368.396 148.58 368.101 148.263C367.806 147.943 367.401 147.783 366.887 147.783C366.532 147.783 366.215 147.86 365.936 148.014C365.66 148.168 365.442 148.392 365.282 148.687C365.122 148.982 365.042 149.34 365.042 149.76ZM374.714 154.259C374.018 154.259 373.417 154.105 372.912 153.798C372.41 153.487 372.022 153.054 371.749 152.499C371.48 151.94 371.345 151.291 371.345 150.551C371.345 149.81 371.48 149.158 371.749 148.593C372.022 148.025 372.402 147.583 372.888 147.266C373.378 146.946 373.949 146.786 374.601 146.786C374.978 146.786 375.35 146.848 375.717 146.974C376.084 147.099 376.418 147.303 376.719 147.586C377.02 147.865 377.26 148.235 377.439 148.696C377.618 149.158 377.707 149.725 377.707 150.4V150.871H372.135V149.911H376.578C376.578 149.503 376.496 149.139 376.333 148.819C376.173 148.499 375.944 148.246 375.646 148.061C375.351 147.876 375.003 147.783 374.601 147.783C374.159 147.783 373.776 147.893 373.453 148.113C373.133 148.329 372.887 148.612 372.714 148.96C372.542 149.308 372.455 149.682 372.455 150.08V150.72C372.455 151.266 372.549 151.729 372.738 152.108C372.929 152.485 373.194 152.772 373.533 152.97C373.872 153.164 374.266 153.261 374.714 153.261C375.006 153.261 375.27 153.221 375.505 153.139C375.743 153.054 375.949 152.929 376.121 152.762C376.294 152.593 376.427 152.383 376.521 152.132L377.594 152.433C377.481 152.797 377.292 153.117 377.025 153.393C376.758 153.666 376.429 153.879 376.037 154.033C375.645 154.184 375.204 154.259 374.714 154.259ZM380.507 149.76V154.108H379.397V146.88H380.47V148.009H380.564C380.733 147.642 380.991 147.347 381.336 147.125C381.681 146.899 382.126 146.786 382.672 146.786C383.162 146.786 383.59 146.886 383.957 147.087C384.324 147.285 384.61 147.586 384.814 147.99C385.018 148.392 385.119 148.9 385.119 149.515V154.108H384.009V149.591C384.009 149.023 383.861 148.58 383.566 148.263C383.272 147.943 382.867 147.783 382.352 147.783C381.998 147.783 381.681 147.86 381.402 148.014C381.126 148.168 380.908 148.392 380.748 148.687C380.588 148.982 380.507 149.34 380.507 149.76ZM390.293 146.88V147.821H386.547V146.88H390.293ZM387.638 145.148H388.749V152.038C388.749 152.351 388.795 152.587 388.886 152.744C388.98 152.897 389.099 153.001 389.243 153.054C389.391 153.104 389.546 153.13 389.709 153.13C389.831 153.13 389.932 153.123 390.01 153.111C390.089 153.095 390.151 153.082 390.199 153.073L390.424 154.071C390.349 154.099 390.244 154.127 390.109 154.155C389.974 154.187 389.803 154.203 389.596 154.203C389.282 154.203 388.975 154.135 388.674 154C388.376 153.865 388.128 153.66 387.93 153.384C387.736 153.108 387.638 152.759 387.638 152.339V145.148ZM22.4228 174.259C21.7452 174.259 21.1616 174.099 20.6722 173.779C20.1827 173.459 19.8063 173.018 19.5427 172.457C19.2792 171.895 19.1474 171.253 19.1474 170.532C19.1474 169.798 19.2823 169.15 19.5521 168.588C19.8251 168.023 20.2047 167.583 20.691 167.266C21.1804 166.946 21.7514 166.786 22.404 166.786C22.9123 166.786 23.3703 166.88 23.7782 167.068C24.1861 167.256 24.5202 167.52 24.7806 167.859C25.041 168.198 25.2026 168.593 25.2653 169.045H24.1547C24.07 168.715 23.8817 168.423 23.59 168.169C23.3013 167.912 22.9123 167.783 22.4228 167.783C21.9899 167.783 21.6103 167.896 21.284 168.122C20.9608 168.345 20.7083 168.66 20.5263 169.068C20.3475 169.473 20.258 169.948 20.258 170.494C20.258 171.053 20.3459 171.539 20.5216 171.953C20.7004 172.367 20.9514 172.689 21.2746 172.918C21.6009 173.147 21.9836 173.261 22.4228 173.261C22.7115 173.261 22.9735 173.211 23.2088 173.111C23.4441 173.01 23.6433 172.866 23.8064 172.678C23.9696 172.49 24.0857 172.264 24.1547 172H25.2653C25.2026 172.427 25.0473 172.811 24.7994 173.153C24.5547 173.492 24.23 173.762 23.8253 173.963C23.4237 174.16 22.9562 174.259 22.4228 174.259ZM29.8255 174.259C29.173 174.259 28.6004 174.104 28.1078 173.793C27.6184 173.482 27.2356 173.048 26.9595 172.49C26.6866 171.931 26.5501 171.278 26.5501 170.532C26.5501 169.779 26.6866 169.122 26.9595 168.56C27.2356 167.998 27.6184 167.562 28.1078 167.252C28.6004 166.941 29.173 166.786 29.8255 166.786C30.4781 166.786 31.0491 166.941 31.5386 167.252C32.0311 167.562 32.4139 167.998 32.6868 168.56C32.9629 169.122 33.101 169.779 33.101 170.532C33.101 171.278 32.9629 171.931 32.6868 172.49C32.4139 173.048 32.0311 173.482 31.5386 173.793C31.0491 174.104 30.4781 174.259 29.8255 174.259ZM29.8255 173.261C30.3212 173.261 30.7291 173.134 31.0491 172.88C31.3691 172.626 31.606 172.292 31.7597 171.878C31.9135 171.464 31.9903 171.015 31.9903 170.532C31.9903 170.049 31.9135 169.598 31.7597 169.181C31.606 168.764 31.3691 168.427 31.0491 168.169C30.7291 167.912 30.3212 167.783 29.8255 167.783C29.3298 167.783 28.922 167.912 28.602 168.169C28.2819 168.427 28.0451 168.764 27.8913 169.181C27.7376 169.598 27.6607 170.049 27.6607 170.532C27.6607 171.015 27.7376 171.464 27.8913 171.878C28.0451 172.292 28.2819 172.626 28.602 172.88C28.922 173.134 29.3298 173.261 29.8255 173.261ZM35.907 169.76V174.108H34.7964V166.88H35.8693V168.009H35.9635C36.1329 167.642 36.3902 167.347 36.7353 167.125C37.0804 166.899 37.5259 166.786 38.0718 166.786C38.5612 166.786 38.9895 166.886 39.3566 167.087C39.7236 167.285 40.0091 167.586 40.2131 167.99C40.417 168.392 40.519 168.9 40.519 169.515V174.108H39.4083V169.591C39.4083 169.023 39.2609 168.58 38.966 168.263C38.671 167.943 38.2663 167.783 37.7518 167.783C37.3973 167.783 37.0804 167.86 36.8012 168.014C36.5251 168.168 36.307 168.392 36.147 168.687C35.987 168.982 35.907 169.34 35.907 169.76ZM45.6922 166.88V167.821H41.9461V166.88H45.6922ZM43.0379 165.148H44.1486V172.038C44.1486 172.351 44.194 172.587 44.285 172.744C44.3791 172.897 44.4984 173.001 44.6427 173.054C44.7901 173.104 44.9454 173.13 45.1086 173.13C45.231 173.13 45.3313 173.123 45.4098 173.111C45.4882 173.095 45.551 173.082 45.598 173.073L45.8239 174.071C45.7486 174.099 45.6435 174.127 45.5086 174.155C45.3737 174.187 45.2027 174.203 44.9956 174.203C44.6819 174.203 44.3744 174.135 44.0733 174C43.7752 173.865 43.5273 173.66 43.3297 173.384C43.1352 173.108 43.0379 172.759 43.0379 172.339V165.148ZM47.3628 174.108V166.88H48.4358V167.972H48.5111C48.6429 167.614 48.8813 167.324 49.2264 167.101C49.5715 166.878 49.9606 166.767 50.3935 166.767C50.4751 166.767 50.5771 166.768 50.6994 166.772C50.8218 166.775 50.9144 166.779 50.9771 166.786V167.915C50.9395 167.906 50.8532 167.892 50.7183 167.873C50.5865 167.851 50.4469 167.84 50.2994 167.84C49.948 167.84 49.6343 167.914 49.3582 168.061C49.0852 168.205 48.8688 168.406 48.7088 168.663C48.5519 168.918 48.4735 169.208 48.4735 169.534V174.108H47.3628ZM55.0102 174.259C54.3576 174.259 53.7851 174.104 53.2925 173.793C52.8031 173.482 52.4203 173.048 52.1442 172.49C51.8713 171.931 51.7348 171.278 51.7348 170.532C51.7348 169.779 51.8713 169.122 52.1442 168.56C52.4203 167.998 52.8031 167.562 53.2925 167.252C53.7851 166.941 54.3576 166.786 55.0102 166.786C55.6628 166.786 56.2338 166.941 56.7232 167.252C57.2158 167.562 57.5986 167.998 57.8715 168.56C58.1476 169.122 58.2857 169.779 58.2857 170.532C58.2857 171.278 58.1476 171.931 57.8715 172.49C57.5986 173.048 57.2158 173.482 56.7232 173.793C56.2338 174.104 55.6628 174.259 55.0102 174.259ZM55.0102 173.261C55.5059 173.261 55.9138 173.134 56.2338 172.88C56.5538 172.626 56.7907 172.292 56.9444 171.878C57.0982 171.464 57.175 171.015 57.175 170.532C57.175 170.049 57.0982 169.598 56.9444 169.181C56.7907 168.764 56.5538 168.427 56.2338 168.169C55.9138 167.912 55.5059 167.783 55.0102 167.783C54.5145 167.783 54.1067 167.912 53.7866 168.169C53.4666 168.427 53.2298 168.764 53.076 169.181C52.9223 169.598 52.8454 170.049 52.8454 170.532C52.8454 171.015 52.9223 171.464 53.076 171.878C53.2298 172.292 53.4666 172.626 53.7866 172.88C54.1067 173.134 54.5145 173.261 55.0102 173.261ZM61.0917 164.47V174.108H59.981V164.47H61.0917ZM69.7897 174.259C69.1371 174.259 68.5646 174.104 68.072 173.793C67.5826 173.482 67.1998 173.048 66.9237 172.49C66.6508 171.931 66.5143 171.278 66.5143 170.532C66.5143 169.779 66.6508 169.122 66.9237 168.56C67.1998 167.998 67.5826 167.562 68.072 167.252C68.5646 166.941 69.1371 166.786 69.7897 166.786C70.4423 166.786 71.0133 166.941 71.5027 167.252C71.9953 167.562 72.3781 167.998 72.651 168.56C72.9271 169.122 73.0652 169.779 73.0652 170.532C73.0652 171.278 72.9271 171.931 72.651 172.49C72.3781 173.048 71.9953 173.482 71.5027 173.793C71.0133 174.104 70.4423 174.259 69.7897 174.259ZM69.7897 173.261C70.2854 173.261 70.6933 173.134 71.0133 172.88C71.3333 172.626 71.5702 172.292 71.7239 171.878C71.8777 171.464 71.9545 171.015 71.9545 170.532C71.9545 170.049 71.8777 169.598 71.7239 169.181C71.5702 168.764 71.3333 168.427 71.0133 168.169C70.6933 167.912 70.2854 167.783 69.7897 167.783C69.294 167.783 68.8862 167.912 68.5661 168.169C68.2461 168.427 68.0092 168.764 67.8555 169.181C67.7018 169.598 67.6249 170.049 67.6249 170.532C67.6249 171.015 67.7018 171.464 67.8555 171.878C68.0092 172.292 68.2461 172.626 68.5661 172.88C68.8862 173.134 69.294 173.261 69.7897 173.261ZM77.9795 166.88V167.821H74.0829V166.88H77.9795ZM75.25 174.108V165.882C75.25 165.468 75.3472 165.123 75.5418 164.847C75.7363 164.571 75.9888 164.364 76.2994 164.226C76.61 164.088 76.9379 164.019 77.283 164.019C77.556 164.019 77.7787 164.04 77.9513 164.084C78.1238 164.128 78.2525 164.169 78.3372 164.207L78.0172 165.167C77.9607 165.148 77.8823 165.124 77.7819 165.096C77.6846 165.068 77.556 165.054 77.396 165.054C77.0289 165.054 76.7638 165.146 76.6006 165.332C76.4406 165.517 76.3606 165.788 76.3606 166.146V174.108H75.25ZM83.9786 176.819C83.7904 176.819 83.6225 176.803 83.4751 176.772C83.3276 176.744 83.2256 176.716 83.1692 176.687L83.4515 175.708C83.7213 175.777 83.9598 175.803 84.1669 175.784C84.3739 175.765 84.5575 175.672 84.7175 175.506C84.8806 175.343 85.0296 175.078 85.1645 174.711L85.3716 174.146L82.6986 166.88H83.9033L85.8987 172.64H85.974L87.9694 166.88H89.1741L86.1058 175.163C85.9677 175.536 85.7967 175.845 85.5928 176.09C85.3889 176.338 85.152 176.521 84.8822 176.64C84.6155 176.76 84.3143 176.819 83.9786 176.819ZM93.3179 174.259C92.6653 174.259 92.0927 174.104 91.6001 173.793C91.1107 173.482 90.7279 173.048 90.4518 172.49C90.1789 171.931 90.0424 171.278 90.0424 170.532C90.0424 169.779 90.1789 169.122 90.4518 168.56C90.7279 167.998 91.1107 167.562 91.6001 167.252C92.0927 166.941 92.6653 166.786 93.3179 166.786C93.9704 166.786 94.5414 166.941 95.0309 167.252C95.5235 167.562 95.9062 167.998 96.1792 168.56C96.4553 169.122 96.5933 169.779 96.5933 170.532C96.5933 171.278 96.4553 171.931 96.1792 172.49C95.9062 173.048 95.5235 173.482 95.0309 173.793C94.5414 174.104 93.9704 174.259 93.3179 174.259ZM93.3179 173.261C93.8136 173.261 94.2214 173.134 94.5414 172.88C94.8615 172.626 95.0983 172.292 95.2521 171.878C95.4058 171.464 95.4827 171.015 95.4827 170.532C95.4827 170.049 95.4058 169.598 95.2521 169.181C95.0983 168.764 94.8615 168.427 94.5414 168.169C94.2214 167.912 93.8136 167.783 93.3179 167.783C92.8222 167.783 92.4143 167.912 92.0943 168.169C91.7743 168.427 91.5374 168.764 91.3837 169.181C91.2299 169.598 91.1531 170.049 91.1531 170.532C91.1531 171.015 91.2299 171.464 91.3837 171.878C91.5374 172.292 91.7743 172.626 92.0943 172.88C92.4143 173.134 92.8222 173.261 93.3179 173.261ZM102.844 171.153V166.88H103.955V174.108H102.844V172.885H102.769C102.599 173.252 102.336 173.564 101.978 173.821C101.621 174.075 101.169 174.203 100.623 174.203C100.171 174.203 99.7695 174.104 99.4181 173.906C99.0668 173.705 98.7907 173.404 98.5899 173.002C98.3891 172.598 98.2887 172.088 98.2887 171.473V166.88H99.3993V171.398C99.3993 171.925 99.5468 172.345 99.8417 172.659C100.14 172.973 100.519 173.13 100.981 173.13C101.257 173.13 101.537 173.059 101.823 172.918C102.112 172.777 102.353 172.56 102.548 172.268C102.745 171.977 102.844 171.605 102.844 171.153ZM105.989 174.108V166.88H107.062V167.972H107.137C107.269 167.614 107.508 167.324 107.853 167.101C108.198 166.878 108.587 166.767 109.02 166.767C109.101 166.767 109.203 166.768 109.326 166.772C109.448 166.775 109.541 166.779 109.603 166.786V167.915C109.566 167.906 109.479 167.892 109.344 167.873C109.213 167.851 109.073 167.84 108.926 167.84C108.574 167.84 108.261 167.914 107.984 168.061C107.711 168.205 107.495 168.406 107.335 168.663C107.178 168.918 107.1 169.208 107.1 169.534V174.108H105.989ZM117.584 174.259C116.906 174.259 116.322 174.099 115.833 173.779C115.344 173.459 114.967 173.018 114.704 172.457C114.44 171.895 114.308 171.253 114.308 170.532C114.308 169.798 114.443 169.15 114.713 168.588C114.986 168.023 115.366 167.583 115.852 167.266C116.341 166.946 116.912 166.786 117.565 166.786C118.073 166.786 118.531 166.88 118.939 167.068C119.347 167.256 119.681 167.52 119.941 167.859C120.202 168.198 120.363 168.593 120.426 169.045H119.316C119.231 168.715 119.043 168.423 118.751 168.169C118.462 167.912 118.073 167.783 117.584 167.783C117.151 167.783 116.771 167.896 116.445 168.122C116.122 168.345 115.869 168.66 115.687 169.068C115.508 169.473 115.419 169.948 115.419 170.494C115.419 171.053 115.507 171.539 115.682 171.953C115.861 172.367 116.112 172.689 116.435 172.918C116.762 173.147 117.144 173.261 117.584 173.261C117.872 173.261 118.134 173.211 118.37 173.111C118.605 173.01 118.804 172.866 118.967 172.678C119.13 172.49 119.246 172.264 119.316 172H120.426C120.363 172.427 120.208 172.811 119.96 173.153C119.716 173.492 119.391 173.762 118.986 173.963C118.585 174.16 118.117 174.259 117.584 174.259ZM124.986 174.259C124.334 174.259 123.761 174.104 123.269 173.793C122.779 173.482 122.396 173.048 122.12 172.49C121.847 171.931 121.711 171.278 121.711 170.532C121.711 169.779 121.847 169.122 122.12 168.56C122.396 167.998 122.779 167.562 123.269 167.252C123.761 166.941 124.334 166.786 124.986 166.786C125.639 166.786 126.21 166.941 126.699 167.252C127.192 167.562 127.575 167.998 127.848 168.56C128.124 169.122 128.262 169.779 128.262 170.532C128.262 171.278 128.124 171.931 127.848 172.49C127.575 173.048 127.192 173.482 126.699 173.793C126.21 174.104 125.639 174.259 124.986 174.259ZM124.986 173.261C125.482 173.261 125.89 173.134 126.21 172.88C126.53 172.626 126.767 172.292 126.921 171.878C127.074 171.464 127.151 171.015 127.151 170.532C127.151 170.049 127.074 169.598 126.921 169.181C126.767 168.764 126.53 168.427 126.21 168.169C125.89 167.912 125.482 167.783 124.986 167.783C124.491 167.783 124.083 167.912 123.763 168.169C123.443 168.427 123.206 168.764 123.052 169.181C122.898 169.598 122.822 170.049 122.822 170.532C122.822 171.015 122.898 171.464 123.052 171.878C123.206 172.292 123.443 172.626 123.763 172.88C124.083 173.134 124.491 173.261 124.986 173.261ZM131.068 164.47V174.108H129.957V164.47H131.068ZM134.213 164.47V174.108H133.102V164.47H134.213ZM139.278 174.259C138.581 174.259 137.98 174.105 137.475 173.798C136.973 173.487 136.586 173.054 136.313 172.499C136.043 171.94 135.908 171.291 135.908 170.551C135.908 169.81 136.043 169.158 136.313 168.593C136.586 168.025 136.965 167.583 137.452 167.266C137.941 166.946 138.512 166.786 139.165 166.786C139.541 166.786 139.913 166.848 140.28 166.974C140.647 167.099 140.981 167.303 141.282 167.586C141.584 167.865 141.824 168.235 142.002 168.696C142.181 169.158 142.271 169.725 142.271 170.4V170.871H136.699V169.911H141.141C141.141 169.503 141.06 169.139 140.897 168.819C140.737 168.499 140.507 168.246 140.209 168.061C139.915 167.876 139.566 167.783 139.165 167.783C138.722 167.783 138.34 167.893 138.016 168.113C137.696 168.329 137.45 168.612 137.278 168.96C137.105 169.308 137.019 169.682 137.019 170.08V170.72C137.019 171.266 137.113 171.729 137.301 172.108C137.492 172.485 137.758 172.772 138.096 172.97C138.435 173.164 138.829 173.261 139.278 173.261C139.569 173.261 139.833 173.221 140.068 173.139C140.307 173.054 140.512 172.929 140.685 172.762C140.857 172.593 140.991 172.383 141.085 172.132L142.158 172.433C142.045 172.797 141.855 173.117 141.588 173.393C141.322 173.666 140.992 173.879 140.6 174.033C140.208 174.184 139.767 174.259 139.278 174.259ZM146.897 174.259C146.219 174.259 145.636 174.099 145.146 173.779C144.657 173.459 144.28 173.018 144.017 172.457C143.753 171.895 143.621 171.253 143.621 170.532C143.621 169.798 143.756 169.15 144.026 168.588C144.299 168.023 144.679 167.583 145.165 167.266C145.654 166.946 146.225 166.786 146.878 166.786C147.386 166.786 147.844 166.88 148.252 167.068C148.66 167.256 148.994 167.52 149.255 167.859C149.515 168.198 149.677 168.593 149.739 169.045H148.629C148.544 168.715 148.356 168.423 148.064 168.169C147.775 167.912 147.386 167.783 146.897 167.783C146.464 167.783 146.084 167.896 145.758 168.122C145.435 168.345 145.182 168.66 145 169.068C144.821 169.473 144.732 169.948 144.732 170.494C144.732 171.053 144.82 171.539 144.996 171.953C145.174 172.367 145.425 172.689 145.748 172.918C146.075 173.147 146.458 173.261 146.897 173.261C147.185 173.261 147.447 173.211 147.683 173.111C147.918 173.01 148.117 172.866 148.28 172.678C148.444 172.49 148.56 172.264 148.629 172H149.739C149.677 172.427 149.521 172.811 149.273 173.153C149.029 173.492 148.704 173.762 148.299 173.963C147.898 174.16 147.43 174.259 146.897 174.259ZM154.507 166.88V167.821H150.76V166.88H154.507ZM151.852 165.148H152.963V172.038C152.963 172.351 153.008 172.587 153.099 172.744C153.194 172.897 153.313 173.001 153.457 173.054C153.605 173.104 153.76 173.13 153.923 173.13C154.045 173.13 154.146 173.123 154.224 173.111C154.303 173.095 154.365 173.082 154.412 173.073L154.638 174.071C154.563 174.099 154.458 174.127 154.323 174.155C154.188 174.187 154.017 174.203 153.81 174.203C153.496 174.203 153.189 174.135 152.888 174C152.59 173.865 152.342 173.66 152.144 173.384C151.95 173.108 151.852 172.759 151.852 172.339V165.148ZM156.177 174.108V166.88H157.288V174.108H156.177ZM156.742 165.675C156.525 165.675 156.339 165.601 156.182 165.454C156.028 165.306 155.951 165.129 155.951 164.922C155.951 164.715 156.028 164.538 156.182 164.39C156.339 164.243 156.525 164.169 156.742 164.169C156.958 164.169 157.144 164.243 157.297 164.39C157.454 164.538 157.533 164.715 157.533 164.922C157.533 165.129 157.454 165.306 157.297 165.454C157.144 165.601 156.958 165.675 156.742 165.675ZM162.259 174.259C161.606 174.259 161.034 174.104 160.541 173.793C160.052 173.482 159.669 173.048 159.393 172.49C159.12 171.931 158.983 171.278 158.983 170.532C158.983 169.779 159.12 169.122 159.393 168.56C159.669 167.998 160.052 167.562 160.541 167.252C161.034 166.941 161.606 166.786 162.259 166.786C162.911 166.786 163.482 166.941 163.972 167.252C164.464 167.562 164.847 167.998 165.12 168.56C165.396 169.122 165.534 169.779 165.534 170.532C165.534 171.278 165.396 171.931 165.12 172.49C164.847 173.048 164.464 173.482 163.972 173.793C163.482 174.104 162.911 174.259 162.259 174.259ZM162.259 173.261C162.754 173.261 163.162 173.134 163.482 172.88C163.802 172.626 164.039 172.292 164.193 171.878C164.347 171.464 164.423 171.015 164.423 170.532C164.423 170.049 164.347 169.598 164.193 169.181C164.039 168.764 163.802 168.427 163.482 168.169C163.162 167.912 162.754 167.783 162.259 167.783C161.763 167.783 161.355 167.912 161.035 168.169C160.715 168.427 160.478 168.764 160.324 169.181C160.171 169.598 160.094 170.049 160.094 170.532C160.094 171.015 160.171 171.464 160.324 171.878C160.478 172.292 160.715 172.626 161.035 172.88C161.355 173.134 161.763 173.261 162.259 173.261ZM168.34 169.76V174.108H167.229V166.88H168.302V168.009H168.397C168.566 167.642 168.823 167.347 169.168 167.125C169.514 166.899 169.959 166.786 170.505 166.786C170.994 166.786 171.423 166.886 171.79 167.087C172.157 167.285 172.442 167.586 172.646 167.99C172.85 168.392 172.952 168.9 172.952 169.515V174.108H171.841V169.591C171.841 169.023 171.694 168.58 171.399 168.263C171.104 167.943 170.699 167.783 170.185 167.783C169.83 167.783 169.514 167.86 169.234 168.014C168.958 168.168 168.74 168.392 168.58 168.687C168.42 168.982 168.34 169.34 168.34 169.76Z" fill="#E8E8E8"/>
<mask id="path-11-inside-2_389_14970" fill="white">
<path d="M337.92 2.40887H481.019C481.019 2.40887 425.819 36.5289 395.265 69.0633C370.592 95.3353 337.92 146.204 337.92 146.204C337.92 146.204 346.29 99.4986 345.812 69.0633C345.397 42.6726 337.92 2.40887 337.92 2.40887Z"/>
</mask>
<path d="M337.92 2.40887H481.019C481.019 2.40887 425.819 36.5289 395.265 69.0633C370.592 95.3353 337.92 146.204 337.92 146.204C337.92 146.204 346.29 99.4986 345.812 69.0633C345.397 42.6726 337.92 2.40887 337.92 2.40887Z" fill="#010B7B"/>
<path d="M337.92 2.06962C337.92 2.29579 337.92 2.52196 337.92 2.74813C346.137 3.02736 354.354 3.29739 362.57 3.5582C402.053 4.8115 441.536 5.85217 481.019 6.6802L478.773 -1.22439C447.603 17.9075 417.217 38.3493 390.88 64.9453C368.42 89.1194 350.214 115.612 332.317 142.604L344.476 147.378C345.984 138.849 347.275 130.357 348.421 121.852C350.696 104.461 352.254 86.9113 351.29 68.9773C350.319 54.3503 347.659 40.3061 344.505 26.3559C342.654 18.3036 340.574 10.2367 338.254 2.34694C338.032 2.38823 337.809 2.42952 337.587 2.47081C338.181 10.652 338.706 18.9342 339.173 27.1147C339.942 41.2477 340.71 55.4227 340.334 69.1494C339.682 85.9326 337.395 103.046 335.161 120.071C334.041 128.384 332.772 136.848 331.365 145.029L343.524 149.803C360.888 123.311 378.922 96.4658 399.65 73.1814C423.842 47.5766 453.538 26.0128 483.264 6.04214L496.017 -1.98339L481.019 -1.86245C441.536 -1.03442 402.053 0.00624514 362.57 1.25954C354.354 1.52036 346.137 1.79039 337.92 2.06962ZM337.92 2.74813V2.06962L337.472 2.08486L337.587 2.47081L338.254 2.34694L337.92 2.74813Z" fill="#020C7B" mask="url(#path-11-inside-2_389_14970)"/>
<path d="M328.5 1.04785C327.761 1.26782 327.021 1.48779 326.281 1.70776C326.968 3.97317 327.646 6.31925 328.309 8.65954C332.752 24.6574 336.932 40.8741 338.883 57.3371V57.3371C341.301 84.0723 338.104 111.12 334.272 137.718C333.91 140.091 333.515 142.574 333.117 144.881C333.553 142.581 333.986 140.104 334.387 137.737C338.64 111.179 342.285 84.2358 340.279 57.1974V57.1974C338.571 40.5252 334.635 24.2159 330.43 8.07755C329.801 5.71415 329.16 3.35879 328.5 1.04785Z" fill="url(#paint1_linear_389_14970)"/>
<path d="M482.341 12.419C482.653 13.1784 482.964 13.9379 483.275 14.6973C480.8 16.2282 478.204 17.8834 475.685 19.5081C450.065 36.3076 424.609 53.838 401.933 76.1421V76.1421C384.744 93.9045 369.42 114.393 354.449 135.079C352.557 137.721 350.671 140.378 348.816 143.049C348.816 143.049 348.816 143.049 348.816 143.049C350.645 140.35 352.505 137.665 354.372 134.995C369.149 114.079 384.257 93.374 401.351 75.2705V75.2705C423.926 52.5146 449.242 34.5919 474.764 17.3652C477.277 15.697 479.855 14.0048 482.341 12.419Z" fill="url(#paint2_linear_389_14970)"/>
<g filter="url(#filter0_i_389_14970)">
<path d="M315.516 19.3335C315.629 14.0852 315.267 10.253 314.427 7.1021C313.634 4.12702 312.272 1.21988 309.696 -1.99413C306.961 -5.40745 304.426 -7.1129 301.807 -7.96699C299.021 -8.87549 295.687 -8.96488 291.333 -8.20258C290.178 -8.00045 288.003 -7.12362 284.954 -5.43286C283.727 -4.75223 282.449 -3.98824 281.153 -3.17981C284.555 -1.54305 288.097 0.512265 291.305 3.08494C295.519 6.4648 300.266 11.6347 302.4 19.1683L302.707 20.306C305.694 32.01 303.285 42.2369 301.481 49.6458C299.387 58.2467 297.972 63.7228 298.816 69.6534C300.844 83.8891 308.913 100.033 318.423 110.066C321.358 113.162 323.831 115.937 326.619 118.769C322.121 112.968 318.339 107.269 315.317 100.868C311.183 92.1138 308.787 82.7469 307.271 71.0405C305.515 57.4787 308.187 49.7157 310.741 42.764C313.016 36.5705 315.27 30.8104 315.516 19.3335Z" fill="#020C7B" fill-opacity="0.25"/>
</g>
<g filter="url(#filter1_i_389_14970)">
<path d="M494.303 59.3298C499.162 57.4171 502.539 55.6075 505.107 53.6161C507.532 51.7357 509.676 49.3527 511.635 45.7251C513.715 41.8724 514.306 38.8626 514.083 36.1019C513.845 33.1651 512.645 30.0336 510.272 26.2828C509.643 25.2884 508.002 23.6047 505.279 21.4233C504.182 20.5452 502.99 19.652 501.75 18.7592C501.556 22.5482 501.032 26.6283 499.904 30.5964C498.423 35.8094 495.504 42.2058 489.412 47.0839L488.486 47.8061C478.895 55.0797 468.585 56.774 461.094 57.947C452.397 59.3087 446.828 60.0991 441.711 63.1633C429.428 70.5189 417.717 84.2195 412.167 96.9089C410.454 100.825 408.858 104.189 407.332 107.867C410.926 101.459 414.701 95.7562 419.412 90.4884C425.856 83.2838 433.53 77.4574 443.688 71.5491C455.457 64.7045 463.607 64.2021 470.968 63.9017C477.525 63.6341 483.677 63.5125 494.303 59.3298Z" fill="#020C7B" fill-opacity="0.25"/>
</g>
<g filter="url(#filter2_i_389_14970)">
<path d="M251.048 -1.35837C249.134 -4.74091 247.959 -7.36431 247.263 -9.70868C246.606 -11.9222 246.257 -14.2882 246.406 -17.2732C246.563 -20.4435 247.225 -22.431 248.23 -23.8926C249.3 -25.4473 250.933 -26.6576 253.376 -27.6648C254.024 -27.9318 255.421 -28.1119 257.541 -28.0628C258.395 -28.043 259.303 -27.9865 260.236 -27.9071C259.117 -25.6647 258.076 -23.101 257.385 -20.3157C256.478 -16.6565 255.937 -11.6461 257.538 -5.99752L257.788 -5.14987C260.439 3.51224 265.261 9.34732 268.784 13.5543C272.873 18.4381 275.518 21.5191 277.195 25.6771C281.222 35.6582 282.907 48.9704 281.71 58.7966C281.341 61.8289 281.088 64.4927 280.698 67.3017C280.891 61.966 280.762 56.9444 280.005 51.7273C278.971 44.5921 276.852 37.6577 273.465 29.5023C269.542 20.0542 265.461 15.9165 261.725 12.2668C258.397 9.01519 255.234 6.03841 251.048 -1.35837Z" fill="#020C7B" fill-opacity="0.25"/>
</g>
</g>
<path d="M-1.9504 9.42796C-1.9504 3.14387 3.14387 -1.9504 9.42796 -1.9504H513.545C519.829 -1.9504 524.923 3.14387 524.923 9.42796H521.023C521.023 5.29821 517.675 1.9504 513.545 1.9504H9.42796C5.29821 1.9504 1.9504 5.29821 1.9504 9.42796H-1.9504ZM1.9504 9.42796M522.973 187.142H0H522.973M9.42796 187.142C3.14387 187.142 -1.9504 182.048 -1.9504 175.764V9.42796C-1.9504 3.14387 3.14387 -1.9504 9.42796 -1.9504V1.9504C5.29821 1.9504 1.9504 5.29821 1.9504 9.42796V177.714C1.9504 182.921 5.29821 187.142 9.42796 187.142ZM513.545 -1.9504C519.829 -1.9504 524.923 3.14387 524.923 9.42796V175.764C524.923 182.048 519.829 187.142 513.545 187.142C517.675 187.142 521.023 182.921 521.023 177.714V9.42796C521.023 5.29821 517.675 1.9504 513.545 1.9504V-1.9504Z" fill="url(#paint3_linear_389_14970)" mask="url(#path-1-inside-1_389_14970)"/>
<defs>
<filter id="filter0_i_389_14970" x="281.153" y="-8.71729" width="45.4653" height="129.067" filterUnits="userSpaceOnUse" color-interpolation-filters="sRGB">
<feFlood flood-opacity="0" result="BackgroundImageFix"/>
<feBlend mode="normal" in="SourceGraphic" in2="BackgroundImageFix" result="shape"/>
<feColorMatrix in="SourceAlpha" type="matrix" values="0 0 0 0 0 0 0 0 0 0 0 0 0 0 0 0 0 0 127 0" result="hardAlpha"/>
<feOffset dy="1.58107"/>
<feGaussianBlur stdDeviation="0.790534"/>
<feComposite in2="hardAlpha" operator="arithmetic" k2="-1" k3="1"/>
<feColorMatrix type="matrix" values="0 0 0 0 0 0 0 0 0 0 0 0 0 0 0 0 0 0 0.25 0"/>
<feBlend mode="normal" in2="shape" result="effect1_innerShadow_389_14970"/>
</filter>
<filter id="filter1_i_389_14970" x="407.332" y="18.7592" width="106.795" height="90.6886" filterUnits="userSpaceOnUse" color-interpolation-filters="sRGB">
<feFlood flood-opacity="0" result="BackgroundImageFix"/>
<feBlend mode="normal" in="SourceGraphic" in2="BackgroundImageFix" result="shape"/>
<feColorMatrix in="SourceAlpha" type="matrix" values="0 0 0 0 0 0 0 0 0 0 0 0 0 0 0 0 0 0 127 0" result="hardAlpha"/>
<feOffset dy="1.58107"/>
<feGaussianBlur stdDeviation="0.790534"/>
<feComposite in2="hardAlpha" operator="arithmetic" k2="-1" k3="1"/>
<feColorMatrix type="matrix" values="0 0 0 0 0 0 0 0 0 0 0 0 0 0 0 0 0 0 0.25 0"/>
<feBlend mode="normal" in2="shape" result="effect1_innerShadow_389_14970"/>
</filter>
<filter id="filter2_i_389_14970" x="246.372" y="-28.0709" width="35.7158" height="97.7412" filterUnits="userSpaceOnUse" color-interpolation-filters="sRGB">
<feFlood flood-opacity="0" result="BackgroundImageFix"/>
<feBlend mode="normal" in="SourceGraphic" in2="BackgroundImageFix" result="shape"/>
<feColorMatrix in="SourceAlpha" type="matrix" values="0 0 0 0 0 0 0 0 0 0 0 0 0 0 0 0 0 0 127 0" result="hardAlpha"/>
<feOffset dy="2.36856"/>
<feGaussianBlur stdDeviation="1.18428"/>
<feComposite in2="hardAlpha" operator="arithmetic" k2="-1" k3="1"/>
<feColorMatrix type="matrix" values="0 0 0 0 0 0 0 0 0 0 0 0 0 0 0 0 0 0 0.25 0"/>
<feBlend mode="normal" in2="shape" result="effect1_innerShadow_389_14970"/>
</filter>
<linearGradient id="paint0_linear_389_14970" x1="261.487" y1="132.49" x2="261.487" y2="-43.0593" gradientUnits="userSpaceOnUse">
<stop stop-color="#010B7B"/>
<stop offset="1" stop-color="#0060DE"/>
</linearGradient>
<linearGradient id="paint1_linear_389_14970" x1="333.486" y1="144.881" x2="337.745" y2="26.742" gradientUnits="userSpaceOnUse">
<stop stop-color="#001FE8"/>
<stop offset="1" stop-color="#011599"/>
</linearGradient>
<linearGradient id="paint2_linear_389_14970" x1="407.183" y1="85.7848" x2="393.352" y2="57.8477" gradientUnits="userSpaceOnUse">
<stop stop-color="#001FE8"/>
<stop offset="1" stop-color="#011599"/>
</linearGradient>
<linearGradient id="paint3_linear_389_14970" x1="261.487" y1="0" x2="261.487" y2="171.409" gradientUnits="userSpaceOnUse">
<stop stop-color="#ABC3FF"/>
<stop offset="0.128319" stop-color="#566FE3"/>
<stop offset="0.247788" stop-color="#001FE8"/>
<stop offset="0.402655" stop-color="#020C7B"/>
<stop offset="1" stop-color="#010B7B"/>
</linearGradient>
<clipPath id="clip0_389_14970">
<path d="M0 9.42797C0 4.22105 4.22104 0 9.42796 0H513.545C518.752 0 522.973 4.22104 522.973 9.42796V177.714C522.973 182.921 518.752 187.142 513.545 187.142H9.42798C4.22106 187.142 0 182.921 0 177.714V9.42797Z" fill="white"/>
</clipPath>
</defs>
</svg>
