<svg width="523" height="188" viewBox="0 0 523 188" fill="none" xmlns="http://www.w3.org/2000/svg">
<g clip-path="url(#clip0_389_14916)">
<mask id="path-1-inside-1_389_14916" fill="white">
<path d="M0 9.42797C0 4.22105 4.22104 0 9.42796 0H513.545C518.752 0 522.973 4.22104 522.973 9.42796V177.714C522.973 182.921 518.752 187.142 513.545 187.142H9.42798C4.22106 187.142 0 182.921 0 177.714V9.42797Z"/>
</mask>
<path d="M0 9.42797C0 4.22105 4.22104 0 9.42796 0H513.545C518.752 0 522.973 4.22104 522.973 9.42796V177.714C522.973 182.921 518.752 187.142 513.545 187.142H9.42798C4.22106 187.142 0 182.921 0 177.714V9.42797Z" fill="url(#paint0_linear_389_14916)"/>
<path d="M15.1592 41.2756C15.1592 31.8965 22.7625 24.2932 32.1416 24.2932H66.0844C75.4636 24.2932 83.0669 31.8965 83.0669 41.2756V75.2184C83.0669 84.5976 75.4636 92.2009 66.0844 92.2009H32.1416C22.7625 92.2009 15.1592 84.5976 15.1592 75.2184V41.2756Z" fill="#CECECE" fill-opacity="0.125"/>
<g clip-path="url(#clip1_389_14916)">
<g clip-path="url(#clip2_389_14916)">
<path d="M40.6123 54.0046H38.4912C37.5536 54.0046 36.6544 53.6322 35.9915 52.9692C35.3285 52.3062 34.9561 51.4071 34.9561 50.4695C34.9561 49.5319 35.3285 48.6327 35.9915 47.9697C36.6544 47.3068 37.5536 46.9343 38.4912 46.9343H40.6123" stroke="white" stroke-width="2.82812" stroke-linecap="round" stroke-linejoin="round"/>
<path d="M57.5811 54.0046H59.7021C60.6397 54.0046 61.5389 53.6322 62.2019 52.9692C62.8648 52.3062 63.2373 51.4071 63.2373 50.4695C63.2373 49.5319 62.8648 48.6327 62.2019 47.9697C61.5389 47.3068 60.6397 46.9343 59.7021 46.9343H57.5811" stroke="white" stroke-width="2.82812" stroke-linecap="round" stroke-linejoin="round"/>
<path d="M37.7842 72.3867H60.4091" stroke="white" stroke-width="2.82812" stroke-linecap="round" stroke-linejoin="round"/>
<path d="M46.2685 62.0084V65.3173C46.2685 66.095 45.6039 66.703 44.8969 67.0283C43.2283 67.7919 42.0264 69.8988 42.0264 72.3876" stroke="white" stroke-width="2.82812" stroke-linecap="round" stroke-linejoin="round"/>
<path d="M51.9248 62.0084V65.3173C51.9248 66.095 52.5894 66.703 53.2964 67.0283C54.965 67.7919 56.167 69.8988 56.167 72.3876" stroke="white" stroke-width="2.82812" stroke-linecap="round" stroke-linejoin="round"/>
<path d="M57.581 44.1055H40.6123V54.0039C40.6123 56.2541 41.5062 58.4121 43.0973 60.0032C44.6884 61.5944 46.8465 62.4882 49.0967 62.4882C51.3469 62.4882 53.5049 61.5944 55.096 60.0032C56.6871 58.4121 57.581 56.2541 57.581 54.0039V44.1055Z" stroke="white" stroke-width="2.82812" stroke-linecap="round" stroke-linejoin="round"/>
</g>
</g>
<path d="M16.07 117.838V114.851H30.1423V117.838H24.8966V131.986H21.3158V117.838H16.07ZM36.3355 132.237C35.036 132.237 33.9121 131.961 32.9639 131.408C32.0213 130.851 31.2934 130.075 30.7803 129.083C30.2671 128.084 30.0105 126.927 30.0105 125.611C30.0105 124.283 30.2671 123.123 30.7803 122.13C31.2934 121.132 32.0213 120.356 32.9639 119.804C33.9121 119.247 35.036 118.968 36.3355 118.968C37.6351 118.968 38.7562 119.247 39.6988 119.804C40.647 120.356 41.3777 121.132 41.8908 122.13C42.404 123.123 42.6605 124.283 42.6605 125.611C42.6605 126.927 42.404 128.084 41.8908 129.083C41.3777 130.075 40.647 130.851 39.6988 131.408C38.7562 131.961 37.6351 132.237 36.3355 132.237ZM36.3523 129.476C36.9435 129.476 37.4371 129.309 37.8331 128.974C38.2291 128.634 38.5275 128.171 38.7283 127.585C38.9347 126.999 39.0379 126.333 39.0379 125.585C39.0379 124.838 38.9347 124.172 38.7283 123.586C38.5275 123 38.2291 122.537 37.8331 122.197C37.4371 121.857 36.9435 121.687 36.3523 121.687C35.7555 121.687 35.2535 121.857 34.8463 122.197C34.4447 122.537 34.1408 123 33.9344 123.586C33.7336 124.172 33.6332 124.838 33.6332 125.585C33.6332 126.333 33.7336 126.999 33.9344 127.585C34.1408 128.171 34.4447 128.634 34.8463 128.974C35.2535 129.309 35.7555 129.476 36.3523 129.476ZM53.2189 126.514V119.135H56.783V131.986H53.3612V129.652H53.2273C52.9373 130.405 52.4548 131.01 51.7799 131.467C51.1106 131.924 50.2935 132.153 49.3286 132.153C48.4696 132.153 47.7138 131.958 47.0613 131.567C46.4087 131.177 45.8983 130.622 45.5302 129.903C45.1677 129.183 44.9836 128.321 44.978 127.317V119.135H48.5421V126.681C48.5477 127.44 48.7513 128.04 49.1529 128.48C49.5544 128.921 50.0927 129.141 50.7676 129.141C51.1971 129.141 51.5986 129.044 51.9723 128.848C52.346 128.648 52.6472 128.352 52.8759 127.962C53.1102 127.571 53.2245 127.089 53.2189 126.514ZM59.6339 131.986V119.135H63.0892V121.377H63.2231C63.4573 120.58 63.8505 119.977 64.4027 119.57C64.9549 119.157 65.5907 118.951 66.3103 118.951C66.4887 118.951 66.6812 118.962 66.8875 118.984C67.0939 119.007 67.2752 119.037 67.4313 119.076V122.239C67.264 122.189 67.0325 122.144 66.7369 122.105C66.4413 122.066 66.1708 122.046 65.9254 122.046C65.4011 122.046 64.9326 122.161 64.5198 122.39C64.1127 122.613 63.7892 122.925 63.5493 123.327C63.3151 123.728 63.198 124.191 63.198 124.715V131.986H59.6339ZM72.8381 124.556V131.986H69.274V119.135H72.6708V121.402H72.8214C73.1059 120.655 73.5827 120.064 74.2521 119.629C74.9214 119.188 75.7329 118.968 76.6867 118.968C77.5791 118.968 78.3572 119.163 79.0209 119.553C79.6846 119.944 80.2006 120.502 80.5687 121.227C80.9368 121.946 81.1209 122.805 81.1209 123.803V131.986H77.5568V124.439C77.5624 123.653 77.3616 123.039 76.9544 122.599C76.5472 122.152 75.9867 121.929 75.2728 121.929C74.7931 121.929 74.3692 122.033 74.0011 122.239C73.6385 122.445 73.3541 122.746 73.1477 123.142C72.9469 123.533 72.8437 124.004 72.8381 124.556ZM87.5944 132.228C86.7745 132.228 86.0438 132.086 85.4024 131.802C84.7609 131.512 84.2534 131.085 83.8797 130.522C83.5116 129.953 83.3275 129.244 83.3275 128.397C83.3275 127.683 83.4586 127.083 83.7207 126.598C83.9829 126.113 84.3398 125.722 84.7916 125.427C85.2434 125.131 85.7565 124.908 86.331 124.757C86.9111 124.607 87.5191 124.501 88.1549 124.439C88.9023 124.361 89.5047 124.289 89.9621 124.222C90.4194 124.149 90.7513 124.043 90.9577 123.904C91.164 123.764 91.2672 123.558 91.2672 123.285V123.235C91.2672 122.705 91.0999 122.295 90.7652 122.005C90.4361 121.715 89.9676 121.57 89.3597 121.57C88.7182 121.57 88.2079 121.712 87.8286 121.996C87.4493 122.275 87.1984 122.627 87.0756 123.05L83.7793 122.783C83.9466 122.002 84.2757 121.327 84.7665 120.758C85.2573 120.184 85.8904 119.743 86.6657 119.436C87.4466 119.124 88.3501 118.968 89.3764 118.968C90.0903 118.968 90.7736 119.051 91.4262 119.219C92.0843 119.386 92.6672 119.645 93.1747 119.997C93.6879 120.348 94.0923 120.8 94.3879 121.352C94.6835 121.899 94.8313 122.554 94.8313 123.318V131.986H91.4513V130.204H91.3509C91.1445 130.605 90.8684 130.96 90.5226 131.266C90.1768 131.567 89.7613 131.805 89.276 131.977C88.7908 132.145 88.2302 132.228 87.5944 132.228ZM88.6151 129.769C89.1394 129.769 89.6023 129.665 90.0039 129.459C90.4055 129.247 90.7206 128.963 90.9493 128.606C91.178 128.249 91.2923 127.844 91.2923 127.393V126.029C91.1808 126.101 91.0274 126.168 90.8322 126.23C90.6425 126.285 90.4278 126.338 90.1879 126.389C89.9481 126.433 89.7083 126.475 89.4684 126.514C89.2286 126.548 89.0111 126.578 88.8159 126.606C88.3975 126.668 88.0322 126.765 87.7199 126.899C87.4075 127.033 87.1649 127.214 86.992 127.443C86.8191 127.666 86.7326 127.945 86.7326 128.279C86.7326 128.765 86.9083 129.136 87.2597 129.392C87.6167 129.643 88.0685 129.769 88.6151 129.769ZM97.5964 131.986V119.135H100.993V121.402H101.144C101.411 120.649 101.858 120.055 102.482 119.62C103.107 119.185 103.854 118.968 104.725 118.968C105.606 118.968 106.356 119.188 106.975 119.629C107.594 120.064 108.007 120.655 108.213 121.402H108.347C108.609 120.666 109.083 120.078 109.769 119.637C110.461 119.191 111.278 118.968 112.221 118.968C113.42 118.968 114.393 119.35 115.141 120.114C115.894 120.872 116.27 121.949 116.27 123.343V131.986H112.714V124.046C112.714 123.332 112.525 122.797 112.146 122.44C111.766 122.083 111.292 121.904 110.723 121.904C110.076 121.904 109.571 122.111 109.209 122.523C108.846 122.931 108.665 123.469 108.665 124.138V131.986H105.21V123.971C105.21 123.341 105.029 122.839 104.666 122.465C104.309 122.091 103.838 121.904 103.252 121.904C102.856 121.904 102.499 122.005 102.181 122.205C101.869 122.401 101.621 122.677 101.437 123.034C101.253 123.385 101.16 123.798 101.16 124.272V131.986H97.5964ZM124.942 132.237C123.62 132.237 122.482 131.969 121.528 131.434C120.58 130.893 119.85 130.128 119.336 129.141C118.823 128.148 118.567 126.974 118.567 125.619C118.567 124.297 118.823 123.137 119.336 122.139C119.85 121.14 120.572 120.362 121.503 119.804C122.44 119.247 123.539 118.968 124.8 118.968C125.648 118.968 126.437 119.104 127.167 119.378C127.904 119.645 128.545 120.05 129.092 120.591C129.644 121.132 130.073 121.812 130.38 122.632C130.687 123.446 130.84 124.4 130.84 125.493V126.472H119.989V124.264H127.485C127.485 123.75 127.374 123.296 127.151 122.9C126.928 122.504 126.618 122.194 126.222 121.971C125.832 121.743 125.377 121.628 124.858 121.628C124.317 121.628 123.838 121.754 123.419 122.005C123.007 122.25 122.683 122.582 122.449 123C122.215 123.413 122.095 123.873 122.089 124.381V126.481C122.089 127.117 122.206 127.666 122.44 128.129C122.68 128.592 123.018 128.949 123.453 129.2C123.888 129.451 124.404 129.576 125.001 129.576C125.397 129.576 125.759 129.52 126.088 129.409C126.417 129.297 126.699 129.13 126.933 128.907C127.167 128.684 127.346 128.411 127.469 128.087L130.765 128.305C130.598 129.097 130.255 129.788 129.736 130.379C129.223 130.965 128.559 131.422 127.745 131.752C126.936 132.075 126.002 132.237 124.942 132.237ZM136.73 124.556V131.986H133.166V119.135H136.563V121.402H136.713C136.998 120.655 137.475 120.064 138.144 119.629C138.813 119.188 139.625 118.968 140.579 118.968C141.471 118.968 142.249 119.163 142.913 119.553C143.577 119.944 144.093 120.502 144.461 121.227C144.829 121.946 145.013 122.805 145.013 123.803V131.986H141.449V124.439C141.454 123.653 141.254 123.039 140.846 122.599C140.439 122.152 139.879 121.929 139.165 121.929C138.685 121.929 138.261 122.033 137.893 122.239C137.531 122.445 137.246 122.746 137.04 123.142C136.839 123.533 136.736 124.004 136.73 124.556ZM154.657 119.135V121.812H146.918V119.135H154.657ZM148.675 116.056H152.239V128.037C152.239 128.366 152.29 128.622 152.39 128.807C152.49 128.985 152.63 129.111 152.808 129.183C152.992 129.256 153.204 129.292 153.444 129.292C153.612 129.292 153.779 129.278 153.946 129.25C154.113 129.217 154.242 129.191 154.331 129.175L154.892 131.827C154.713 131.883 154.462 131.947 154.139 132.019C153.815 132.097 153.422 132.145 152.959 132.161C152.1 132.195 151.347 132.081 150.7 131.818C150.059 131.556 149.559 131.149 149.202 130.597C148.845 130.045 148.67 129.348 148.675 128.505V116.056ZM167.51 122.799L164.247 123C164.192 122.721 164.072 122.47 163.888 122.247C163.703 122.019 163.461 121.837 163.16 121.703C162.864 121.564 162.51 121.494 162.097 121.494C161.545 121.494 161.079 121.611 160.7 121.846C160.321 122.074 160.131 122.381 160.131 122.766C160.131 123.073 160.254 123.332 160.499 123.544C160.745 123.756 161.166 123.926 161.762 124.054L164.088 124.523C165.338 124.78 166.269 125.192 166.883 125.761C167.496 126.33 167.803 127.077 167.803 128.003C167.803 128.846 167.555 129.585 167.058 130.22C166.568 130.856 165.893 131.353 165.034 131.71C164.18 132.061 163.196 132.237 162.08 132.237C160.379 132.237 159.024 131.883 158.014 131.174C157.01 130.46 156.422 129.49 156.249 128.263L159.755 128.079C159.861 128.597 160.117 128.993 160.524 129.267C160.931 129.534 161.453 129.668 162.089 129.668C162.713 129.668 163.215 129.548 163.595 129.309C163.98 129.063 164.175 128.748 164.18 128.363C164.175 128.04 164.038 127.775 163.77 127.568C163.503 127.356 163.09 127.195 162.532 127.083L160.307 126.64C159.052 126.389 158.118 125.954 157.504 125.334C156.896 124.715 156.592 123.926 156.592 122.967C156.592 122.141 156.815 121.43 157.261 120.833C157.713 120.237 158.346 119.776 159.161 119.453C159.98 119.129 160.94 118.968 162.039 118.968C163.662 118.968 164.939 119.311 165.87 119.997C166.807 120.683 167.354 121.617 167.51 122.799Z" fill="white"/>
<path d="M27.7685 149.289C27.7685 150.306 27.585 151.184 27.2179 151.924C26.8508 152.665 26.3472 153.236 25.7072 153.637C25.0672 154.039 24.3362 154.24 23.5142 154.24C22.6922 154.24 21.9612 154.039 21.3211 153.637C20.6811 153.236 20.1776 152.665 19.8105 151.924C19.4434 151.184 19.2599 150.306 19.2599 149.289C19.2599 148.272 19.4434 147.394 19.8105 146.654C20.1776 145.913 20.6811 145.342 21.3211 144.941C21.9612 144.539 22.6922 144.338 23.5142 144.338C24.3362 144.338 25.0672 144.539 25.7072 144.941C26.3472 145.342 26.8508 145.913 27.2179 146.654C27.585 147.394 27.7685 148.272 27.7685 149.289ZM26.639 149.289C26.639 148.454 26.4994 147.75 26.2202 147.176C25.9441 146.602 25.5692 146.167 25.0954 145.872C24.6248 145.577 24.0977 145.43 23.5142 145.43C22.9306 145.43 22.402 145.577 21.9282 145.872C21.4576 146.167 21.0827 146.602 20.8035 147.176C20.5274 147.75 20.3893 148.454 20.3893 149.289C20.3893 150.124 20.5274 150.828 20.8035 151.402C21.0827 151.976 21.4576 152.411 21.9282 152.706C22.402 153.001 22.9306 153.148 23.5142 153.148C24.0977 153.148 24.6248 153.001 25.0954 152.706C25.5692 152.411 25.9441 151.976 26.2202 151.402C26.4994 150.828 26.639 150.124 26.639 149.289ZM29.5803 156.819V146.879H30.6533V148.028H30.7851C30.8667 147.902 30.9796 147.742 31.1239 147.548C31.2714 147.35 31.4816 147.174 31.7546 147.021C32.0306 146.864 32.404 146.785 32.8746 146.785C33.4833 146.785 34.0198 146.938 34.4841 147.242C34.9484 147.546 35.3108 147.978 35.5712 148.536C35.8316 149.094 35.9618 149.753 35.9618 150.513C35.9618 151.278 35.8316 151.942 35.5712 152.503C35.3108 153.062 34.95 153.495 34.4888 153.802C34.0276 154.106 33.4958 154.259 32.8934 154.259C32.4291 154.259 32.0573 154.182 31.7781 154.028C31.4989 153.871 31.2839 153.694 31.1333 153.496C30.9828 153.295 30.8667 153.129 30.7851 152.997H30.691V156.819H29.5803ZM30.6721 150.494C30.6721 151.04 30.7522 151.521 30.9122 151.939C31.0722 152.353 31.3059 152.677 31.6134 152.913C31.9208 153.145 32.2973 153.261 32.7428 153.261C33.2072 153.261 33.5946 153.139 33.9052 152.894C34.219 152.646 34.4543 152.313 34.6112 151.896C34.7712 151.476 34.8512 151.008 34.8512 150.494C34.8512 149.985 34.7727 149.527 34.6159 149.12C34.4621 148.709 34.2284 148.384 33.9147 148.145C33.604 147.904 33.2134 147.783 32.7428 147.783C32.291 147.783 31.9114 147.898 31.604 148.127C31.2965 148.352 31.0643 148.669 30.9075 149.077C30.7506 149.482 30.6721 149.954 30.6721 150.494ZM40.6867 154.259C39.9902 154.259 39.3894 154.105 38.8843 153.797C38.3823 153.487 37.9948 153.054 37.7219 152.499C37.4521 151.94 37.3172 151.291 37.3172 150.55C37.3172 149.81 37.4521 149.157 37.7219 148.592C37.9948 148.025 38.3745 147.582 38.8608 147.265C39.3502 146.945 39.9212 146.785 40.5738 146.785C40.9503 146.785 41.3221 146.848 41.6891 146.974C42.0562 147.099 42.3903 147.303 42.6915 147.585C42.9927 147.865 43.2327 148.235 43.4116 148.696C43.5904 149.157 43.6798 149.725 43.6798 150.4V150.87H38.1078V149.91H42.5503C42.5503 149.502 42.4688 149.138 42.3056 148.818C42.1456 148.498 41.9166 148.246 41.6185 148.061C41.3236 147.876 40.9754 147.783 40.5738 147.783C40.1314 147.783 39.7486 147.893 39.4255 148.112C39.1055 148.329 38.8592 148.611 38.6866 148.96C38.5141 149.308 38.4278 149.681 38.4278 150.08V150.72C38.4278 151.266 38.5219 151.728 38.7102 152.108C38.9015 152.484 39.1667 152.772 39.5055 152.969C39.8443 153.164 40.2381 153.261 40.6867 153.261C40.9785 153.261 41.242 153.22 41.4774 153.139C41.7158 153.054 41.9213 152.928 42.0939 152.762C42.2664 152.593 42.3997 152.382 42.4939 152.131L43.5669 152.433C43.4539 152.797 43.2641 153.117 42.9974 153.393C42.7307 153.666 42.4013 153.879 42.0091 154.033C41.617 154.183 41.1762 154.259 40.6867 154.259ZM46.4799 149.76V154.108H45.3693V146.879H46.4423V148.009H46.5364C46.7058 147.642 46.9631 147.347 47.3082 147.124C47.6533 146.898 48.0988 146.785 48.6447 146.785C49.1342 146.785 49.5624 146.886 49.9295 147.087C50.2966 147.284 50.5821 147.585 50.786 147.99C50.9899 148.392 51.0919 148.9 51.0919 149.515V154.108H49.9813V149.59C49.9813 149.022 49.8338 148.58 49.5389 148.263C49.244 147.943 48.8393 147.783 48.3247 147.783C47.9702 147.783 47.6533 147.86 47.3741 148.014C47.098 148.167 46.88 148.392 46.7199 148.687C46.5599 148.982 46.4799 149.339 46.4799 149.76ZM59.8794 154.259C59.1829 154.259 58.5821 154.105 58.0769 153.797C57.575 153.487 57.1875 153.054 56.9145 152.499C56.6447 151.94 56.5098 151.291 56.5098 150.55C56.5098 149.81 56.6447 149.157 56.9145 148.592C57.1875 148.025 57.5671 147.582 58.0534 147.265C58.5428 146.945 59.1138 146.785 59.7664 146.785C60.1429 146.785 60.5147 146.848 60.8818 146.974C61.2488 147.099 61.583 147.303 61.8842 147.585C62.1854 147.865 62.4254 148.235 62.6042 148.696C62.783 149.157 62.8724 149.725 62.8724 150.4V150.87H57.3004V149.91H61.743C61.743 149.502 61.6614 149.138 61.4983 148.818C61.3383 148.498 61.1092 148.246 60.8112 148.061C60.5163 147.876 60.168 147.783 59.7664 147.783C59.3241 147.783 58.9413 147.893 58.6181 148.112C58.2981 148.329 58.0518 148.611 57.8793 148.96C57.7067 149.308 57.6204 149.681 57.6204 150.08V150.72C57.6204 151.266 57.7146 151.728 57.9028 152.108C58.0942 152.484 58.3593 152.772 58.6981 152.969C59.037 153.164 59.4307 153.261 59.8794 153.261C60.1711 153.261 60.4347 153.22 60.67 153.139C60.9084 153.054 61.1139 152.928 61.2865 152.762C61.4591 152.593 61.5924 152.382 61.6865 152.131L62.7595 152.433C62.6466 152.797 62.4567 153.117 62.1901 153.393C61.9234 153.666 61.594 153.879 61.2018 154.033C60.8096 154.183 60.3688 154.259 59.8794 154.259ZM65.1961 146.879L66.9279 149.835L68.6598 146.879H69.9398L67.6056 150.494L69.9398 154.108H68.6598L66.9279 151.303L65.1961 154.108H63.916L66.2126 150.494L63.916 146.879H65.1961ZM74.1636 154.259C73.4859 154.259 72.9023 154.099 72.4129 153.779C71.9235 153.459 71.547 153.018 71.2834 152.456C71.0199 151.895 70.8881 151.253 70.8881 150.531C70.8881 149.797 71.023 149.149 71.2928 148.588C71.5658 148.023 71.9454 147.582 72.4317 147.265C72.9211 146.945 73.4922 146.785 74.1447 146.785C74.653 146.785 75.1111 146.879 75.5189 147.068C75.9268 147.256 76.2609 147.519 76.5213 147.858C76.7817 148.197 76.9433 148.592 77.006 149.044H75.8954C75.8107 148.715 75.6224 148.423 75.3307 148.169C75.042 147.912 74.653 147.783 74.1636 147.783C73.7306 147.783 73.351 147.896 73.0247 148.122C72.7015 148.345 72.449 148.66 72.267 149.068C72.0882 149.473 71.9988 149.948 71.9988 150.494C71.9988 151.052 72.0866 151.539 72.2623 151.953C72.4411 152.367 72.6921 152.688 73.0153 152.917C73.3416 153.146 73.7243 153.261 74.1636 153.261C74.4522 153.261 74.7142 153.211 74.9495 153.11C75.1848 153.01 75.384 152.866 75.5471 152.677C75.7103 152.489 75.8264 152.263 75.8954 152H77.006C76.9433 152.426 76.788 152.811 76.5401 153.153C76.2954 153.492 75.9707 153.761 75.566 153.962C75.1644 154.16 74.6969 154.259 74.1636 154.259ZM79.7403 144.47V154.108H78.6296V144.47H79.7403ZM86.33 151.153V146.879H87.4406V154.108H86.33V152.884H86.2547C86.0853 153.252 85.8217 153.564 85.4641 153.821C85.1064 154.075 84.6546 154.202 84.1087 154.202C83.6569 154.202 83.2553 154.103 82.904 153.906C82.5526 153.705 82.2765 153.404 82.0757 153.002C81.8749 152.597 81.7745 152.088 81.7745 151.473V146.879H82.8851V151.397C82.8851 151.924 83.0326 152.345 83.3275 152.659C83.6256 152.972 84.0052 153.129 84.4664 153.129C84.7425 153.129 85.0233 153.059 85.3088 152.917C85.5974 152.776 85.839 152.56 86.0335 152.268C86.2312 151.976 86.33 151.604 86.33 151.153ZM94.5951 148.498L93.5974 148.781C93.5346 148.614 93.4421 148.453 93.3197 148.296C93.2005 148.136 93.0374 148.004 92.8303 147.901C92.6232 147.797 92.3581 147.745 92.035 147.745C91.5926 147.745 91.2239 147.847 90.929 148.051C90.6373 148.252 90.4914 148.508 90.4914 148.818C90.4914 149.094 90.5918 149.313 90.7926 149.473C90.9933 149.633 91.3071 149.766 91.7338 149.873L92.8068 150.136C93.4531 150.293 93.9347 150.533 94.2515 150.856C94.5684 151.176 94.7269 151.589 94.7269 152.094C94.7269 152.508 94.6076 152.878 94.3692 153.204C94.1339 153.531 93.8045 153.788 93.3809 153.976C92.9574 154.165 92.4648 154.259 91.9032 154.259C91.1659 154.259 90.5557 154.099 90.0725 153.779C89.5894 153.459 89.2835 152.991 89.1548 152.376L90.209 152.113C90.3094 152.502 90.4992 152.793 90.7784 152.988C91.0608 153.182 91.4294 153.28 91.8844 153.28C92.402 153.28 92.813 153.17 93.1174 152.95C93.4248 152.728 93.5786 152.461 93.5786 152.15C93.5786 151.899 93.4907 151.689 93.315 151.52C93.1393 151.347 92.8695 151.218 92.5056 151.134L91.3008 150.851C90.6388 150.695 90.1525 150.451 89.8419 150.122C89.5345 149.789 89.3807 149.374 89.3807 148.875C89.3807 148.467 89.4952 148.106 89.7243 147.792C89.9564 147.479 90.2717 147.232 90.6702 147.054C91.0718 146.875 91.5267 146.785 92.035 146.785C92.7503 146.785 93.3119 146.942 93.7197 147.256C94.1307 147.57 94.4225 147.984 94.5951 148.498ZM96.3987 154.108V146.879H97.5093V154.108H96.3987ZM96.9634 145.675C96.7469 145.675 96.5603 145.601 96.4034 145.454C96.2497 145.306 96.1728 145.129 96.1728 144.922C96.1728 144.715 96.2497 144.537 96.4034 144.39C96.5603 144.242 96.7469 144.169 96.9634 144.169C97.1799 144.169 97.365 144.242 97.5187 144.39C97.6756 144.537 97.754 144.715 97.754 144.922C97.754 145.129 97.6756 145.306 97.5187 145.454C97.365 145.601 97.1799 145.675 96.9634 145.675ZM105.454 146.879L102.781 154.108H101.652L98.9788 146.879H100.184L102.179 152.64H102.254L104.25 146.879H105.454ZM109.692 154.259C108.996 154.259 108.395 154.105 107.89 153.797C107.388 153.487 107 153.054 106.727 152.499C106.458 151.94 106.323 151.291 106.323 150.55C106.323 149.81 106.458 149.157 106.727 148.592C107 148.025 107.38 147.582 107.866 147.265C108.356 146.945 108.927 146.785 109.579 146.785C109.956 146.785 110.328 146.848 110.695 146.974C111.062 147.099 111.396 147.303 111.697 147.585C111.998 147.865 112.238 148.235 112.417 148.696C112.596 149.157 112.685 149.725 112.685 150.4V150.87H107.113V149.91H111.556C111.556 149.502 111.474 149.138 111.311 148.818C111.151 148.498 110.922 148.246 110.624 148.061C110.329 147.876 109.981 147.783 109.579 147.783C109.137 147.783 108.754 147.893 108.431 148.112C108.111 148.329 107.865 148.611 107.692 148.96C107.52 149.308 107.433 149.681 107.433 150.08V150.72C107.433 151.266 107.527 151.728 107.716 152.108C107.907 152.484 108.172 152.772 108.511 152.969C108.85 153.164 109.244 153.261 109.692 153.261C109.984 153.261 110.248 153.22 110.483 153.139C110.721 153.054 110.927 152.928 111.099 152.762C111.272 152.593 111.405 152.382 111.499 152.131L112.572 152.433C112.459 152.797 112.27 153.117 112.003 153.393C111.736 153.666 111.407 153.879 111.015 154.033C110.622 154.183 110.182 154.259 109.692 154.259ZM118.102 156.819V146.879H119.175V148.028H119.307C119.388 147.902 119.501 147.742 119.646 147.548C119.793 147.35 120.003 147.174 120.276 147.021C120.552 146.864 120.926 146.785 121.396 146.785C122.005 146.785 122.541 146.938 123.006 147.242C123.47 147.546 123.832 147.978 124.093 148.536C124.353 149.094 124.484 149.753 124.484 150.513C124.484 151.278 124.353 151.942 124.093 152.503C123.832 153.062 123.472 153.495 123.01 153.802C122.549 154.106 122.018 154.259 121.415 154.259C120.951 154.259 120.579 154.182 120.3 154.028C120.021 153.871 119.806 153.694 119.655 153.496C119.504 153.295 119.388 153.129 119.307 152.997H119.213V156.819H118.102ZM119.194 150.494C119.194 151.04 119.274 151.521 119.434 151.939C119.594 152.353 119.828 152.677 120.135 152.913C120.443 153.145 120.819 153.261 121.265 153.261C121.729 153.261 122.116 153.139 122.427 152.894C122.741 152.646 122.976 152.313 123.133 151.896C123.293 151.476 123.373 151.008 123.373 150.494C123.373 149.985 123.294 149.527 123.138 149.12C122.984 148.709 122.75 148.384 122.436 148.145C122.126 147.904 121.735 147.783 121.265 147.783C120.813 147.783 120.433 147.898 120.126 148.127C119.818 148.352 119.586 148.669 119.429 149.077C119.272 149.482 119.194 149.954 119.194 150.494ZM128.305 154.277C127.847 154.277 127.431 154.191 127.058 154.019C126.684 153.843 126.388 153.59 126.168 153.261C125.949 152.928 125.839 152.527 125.839 152.056C125.839 151.642 125.92 151.306 126.084 151.049C126.247 150.789 126.465 150.585 126.738 150.437C127.011 150.29 127.312 150.18 127.641 150.108C127.974 150.033 128.308 149.973 128.644 149.929C129.083 149.873 129.439 149.83 129.712 149.802C129.988 149.771 130.189 149.719 130.314 149.647C130.443 149.574 130.507 149.449 130.507 149.27V149.233C130.507 148.768 130.38 148.407 130.126 148.15C129.875 147.893 129.494 147.764 128.983 147.764C128.452 147.764 128.037 147.88 127.735 148.112C127.434 148.345 127.222 148.592 127.1 148.856L126.046 148.48C126.234 148.04 126.485 147.698 126.799 147.454C127.116 147.206 127.461 147.033 127.834 146.936C128.211 146.836 128.581 146.785 128.945 146.785C129.177 146.785 129.444 146.814 129.745 146.87C130.049 146.923 130.343 147.035 130.625 147.204C130.91 147.374 131.147 147.629 131.336 147.971C131.524 148.313 131.618 148.771 131.618 149.345V154.108H130.507V153.129H130.451C130.376 153.286 130.25 153.454 130.074 153.633C129.899 153.812 129.665 153.964 129.373 154.089C129.081 154.215 128.725 154.277 128.305 154.277ZM128.474 153.28C128.914 153.28 129.284 153.193 129.585 153.021C129.889 152.848 130.118 152.626 130.272 152.353C130.429 152.08 130.507 151.793 130.507 151.491V150.475C130.46 150.531 130.357 150.583 130.197 150.63C130.04 150.674 129.858 150.713 129.651 150.748C129.447 150.779 129.248 150.807 129.053 150.833C128.862 150.855 128.706 150.873 128.587 150.889C128.299 150.927 128.029 150.988 127.778 151.073C127.53 151.154 127.329 151.278 127.175 151.444C127.025 151.608 126.95 151.83 126.95 152.113C126.95 152.499 127.092 152.79 127.378 152.988C127.666 153.182 128.032 153.28 128.474 153.28ZM136.582 154.259C135.904 154.259 135.32 154.099 134.831 153.779C134.342 153.459 133.965 153.018 133.702 152.456C133.438 151.895 133.306 151.253 133.306 150.531C133.306 149.797 133.441 149.149 133.711 148.588C133.984 148.023 134.364 147.582 134.85 147.265C135.339 146.945 135.91 146.785 136.563 146.785C137.071 146.785 137.529 146.879 137.937 147.068C138.345 147.256 138.679 147.519 138.939 147.858C139.2 148.197 139.361 148.592 139.424 149.044H138.314C138.229 148.715 138.041 148.423 137.749 148.169C137.46 147.912 137.071 147.783 136.582 147.783C136.149 147.783 135.769 147.896 135.443 148.122C135.12 148.345 134.867 148.66 134.685 149.068C134.506 149.473 134.417 149.948 134.417 150.494C134.417 151.052 134.505 151.539 134.68 151.953C134.859 152.367 135.11 152.688 135.433 152.917C135.76 153.146 136.142 153.261 136.582 153.261C136.87 153.261 137.132 153.211 137.368 153.11C137.603 153.01 137.802 152.866 137.965 152.677C138.128 152.489 138.245 152.263 138.314 152H139.424C139.361 152.426 139.206 152.811 138.958 153.153C138.714 153.492 138.389 153.761 137.984 153.962C137.583 154.16 137.115 154.259 136.582 154.259ZM142.083 151.473L142.064 150.098H142.29L145.453 146.879H146.827L143.457 150.287H143.363L142.083 151.473ZM141.048 154.108V144.47H142.158V154.108H141.048ZM145.641 154.108L142.817 150.531L143.608 149.76L147.053 154.108H145.641ZM153.377 148.498L152.379 148.781C152.316 148.614 152.224 148.453 152.101 148.296C151.982 148.136 151.819 148.004 151.612 147.901C151.405 147.797 151.14 147.745 150.816 147.745C150.374 147.745 150.005 147.847 149.711 148.051C149.419 148.252 149.273 148.508 149.273 148.818C149.273 149.094 149.373 149.313 149.574 149.473C149.775 149.633 150.089 149.766 150.515 149.873L151.588 150.136C152.235 150.293 152.716 150.533 153.033 150.856C153.35 151.176 153.508 151.589 153.508 152.094C153.508 152.508 153.389 152.878 153.151 153.204C152.915 153.531 152.586 153.788 152.162 153.976C151.739 154.165 151.246 154.259 150.685 154.259C149.947 154.259 149.337 154.099 148.854 153.779C148.371 153.459 148.065 152.991 147.936 152.376L148.991 152.113C149.091 152.502 149.281 152.793 149.56 152.988C149.842 153.182 150.211 153.28 150.666 153.28C151.184 153.28 151.595 153.17 151.899 152.95C152.206 152.728 152.36 152.461 152.36 152.15C152.36 151.899 152.272 151.689 152.097 151.52C151.921 151.347 151.651 151.218 151.287 151.134L150.082 150.851C149.42 150.695 148.934 150.451 148.623 150.122C148.316 149.789 148.162 149.374 148.162 148.875C148.162 148.467 148.277 148.106 148.506 147.792C148.738 147.479 149.053 147.232 149.452 147.054C149.853 146.875 150.308 146.785 150.816 146.785C151.532 146.785 152.093 146.942 152.501 147.256C152.912 147.57 153.204 147.984 153.377 148.498ZM162.051 146.879V147.821H158.305V146.879H162.051ZM159.397 145.148H160.508V152.037C160.508 152.351 160.553 152.586 160.644 152.743C160.738 152.897 160.857 153.001 161.002 153.054C161.149 153.104 161.304 153.129 161.468 153.129C161.59 153.129 161.69 153.123 161.769 153.11C161.847 153.095 161.91 153.082 161.957 153.073L162.183 154.07C162.108 154.099 162.002 154.127 161.868 154.155C161.733 154.186 161.562 154.202 161.355 154.202C161.041 154.202 160.733 154.135 160.432 154C160.134 153.865 159.886 153.659 159.689 153.383C159.494 153.107 159.397 152.759 159.397 152.339V145.148ZM166.581 154.259C165.928 154.259 165.356 154.103 164.863 153.793C164.374 153.482 163.991 153.048 163.715 152.489C163.442 151.931 163.305 151.278 163.305 150.531C163.305 149.778 163.442 149.121 163.715 148.56C163.991 147.998 164.374 147.562 164.863 147.251C165.356 146.941 165.928 146.785 166.581 146.785C167.233 146.785 167.804 146.941 168.294 147.251C168.786 147.562 169.169 147.998 169.442 148.56C169.718 149.121 169.856 149.778 169.856 150.531C169.856 151.278 169.718 151.931 169.442 152.489C169.169 153.048 168.786 153.482 168.294 153.793C167.804 154.103 167.233 154.259 166.581 154.259ZM166.581 153.261C167.076 153.261 167.484 153.134 167.804 152.88C168.124 152.626 168.361 152.291 168.515 151.877C168.669 151.463 168.746 151.015 168.746 150.531C168.746 150.048 168.669 149.598 168.515 149.181C168.361 148.763 168.124 148.426 167.804 148.169C167.484 147.912 167.076 147.783 166.581 147.783C166.085 147.783 165.677 147.912 165.357 148.169C165.037 148.426 164.8 148.763 164.647 149.181C164.493 149.598 164.416 150.048 164.416 150.531C164.416 151.015 164.493 151.463 164.647 151.877C164.8 152.291 165.037 152.626 165.357 152.88C165.677 153.134 166.085 153.261 166.581 153.261ZM179.834 151.153V146.879H180.945V154.108H179.834V152.884H179.759C179.59 153.252 179.326 153.564 178.968 153.821C178.611 154.075 178.159 154.202 177.613 154.202C177.161 154.202 176.76 154.103 176.408 153.906C176.057 153.705 175.781 153.404 175.58 153.002C175.379 152.597 175.279 152.088 175.279 151.473V146.879H176.389V151.397C176.389 151.924 176.537 152.345 176.832 152.659C177.13 152.972 177.509 153.129 177.971 153.129C178.247 153.129 178.528 153.059 178.813 152.917C179.102 152.776 179.343 152.56 179.538 152.268C179.735 151.976 179.834 151.604 179.834 151.153ZM184.09 149.76V154.108H182.979V146.879H184.052V148.009H184.146C184.316 147.642 184.573 147.347 184.918 147.124C185.263 146.898 185.709 146.785 186.255 146.785C186.744 146.785 187.172 146.886 187.539 147.087C187.906 147.284 188.192 147.585 188.396 147.99C188.6 148.392 188.702 148.9 188.702 149.515V154.108H187.591V149.59C187.591 149.022 187.444 148.58 187.149 148.263C186.854 147.943 186.449 147.783 185.935 147.783C185.58 147.783 185.263 147.86 184.984 148.014C184.708 148.167 184.49 148.392 184.33 148.687C184.17 148.982 184.09 149.339 184.09 149.76ZM191.842 144.47V154.108H190.731V144.47H191.842ZM196.813 154.259C196.16 154.259 195.588 154.103 195.095 153.793C194.606 153.482 194.223 153.048 193.947 152.489C193.674 151.931 193.537 151.278 193.537 150.531C193.537 149.778 193.674 149.121 193.947 148.56C194.223 147.998 194.606 147.562 195.095 147.251C195.588 146.941 196.16 146.785 196.813 146.785C197.465 146.785 198.036 146.941 198.526 147.251C199.018 147.562 199.401 147.998 199.674 148.56C199.95 149.121 200.088 149.778 200.088 150.531C200.088 151.278 199.95 151.931 199.674 152.489C199.401 153.048 199.018 153.482 198.526 153.793C198.036 154.103 197.465 154.259 196.813 154.259ZM196.813 153.261C197.308 153.261 197.716 153.134 198.036 152.88C198.356 152.626 198.593 152.291 198.747 151.877C198.901 151.463 198.978 151.015 198.978 150.531C198.978 150.048 198.901 149.598 198.747 149.181C198.593 148.763 198.356 148.426 198.036 148.169C197.716 147.912 197.308 147.783 196.813 147.783C196.317 147.783 195.909 147.912 195.589 148.169C195.269 148.426 195.032 148.763 194.879 149.181C194.725 149.598 194.648 150.048 194.648 150.531C194.648 151.015 194.725 151.463 194.879 151.877C195.032 152.291 195.269 152.626 195.589 152.88C195.909 153.134 196.317 153.261 196.813 153.261ZM204.72 154.259C204.042 154.259 203.459 154.099 202.969 153.779C202.48 153.459 202.104 153.018 201.84 152.456C201.576 151.895 201.445 151.253 201.445 150.531C201.445 149.797 201.58 149.149 201.849 148.588C202.122 148.023 202.502 147.582 202.988 147.265C203.478 146.945 204.049 146.785 204.701 146.785C205.21 146.785 205.668 146.879 206.075 147.068C206.483 147.256 206.817 147.519 207.078 147.858C207.338 148.197 207.5 148.592 207.563 149.044H206.452C206.367 148.715 206.179 148.423 205.887 148.169C205.599 147.912 205.21 147.783 204.72 147.783C204.287 147.783 203.908 147.896 203.581 148.122C203.258 148.345 203.006 148.66 202.824 149.068C202.645 149.473 202.555 149.948 202.555 150.494C202.555 151.052 202.643 151.539 202.819 151.953C202.998 152.367 203.249 152.688 203.572 152.917C203.898 153.146 204.281 153.261 204.72 153.261C205.009 153.261 205.271 153.211 205.506 153.11C205.741 153.01 205.941 152.866 206.104 152.677C206.267 152.489 206.383 152.263 206.452 152H207.563C207.5 152.426 207.345 152.811 207.097 153.153C206.852 153.492 206.527 153.761 206.123 153.962C205.721 154.16 205.253 154.259 204.72 154.259ZM210.222 151.473L210.203 150.098H210.429L213.591 146.879H214.965L211.596 150.287H211.502L210.222 151.473ZM209.186 154.108V144.47H210.297V154.108H209.186ZM213.779 154.108L210.956 150.531L211.746 149.76L215.191 154.108H213.779ZM221.233 144.47V154.108H220.122V144.47H221.233ZM226.298 154.259C225.601 154.259 225 154.105 224.495 153.797C223.993 153.487 223.606 153.054 223.333 152.499C223.063 151.94 222.928 151.291 222.928 150.55C222.928 149.81 223.063 149.157 223.333 148.592C223.606 148.025 223.985 147.582 224.472 147.265C224.961 146.945 225.532 146.785 226.185 146.785C226.561 146.785 226.933 146.848 227.3 146.974C227.667 147.099 228.001 147.303 228.302 147.585C228.604 147.865 228.844 148.235 229.022 148.696C229.201 149.157 229.291 149.725 229.291 150.4V150.87H223.719V149.91H228.161C228.161 149.502 228.08 149.138 227.916 148.818C227.756 148.498 227.527 148.246 227.229 148.061C226.934 147.876 226.586 147.783 226.185 147.783C225.742 147.783 225.359 147.893 225.036 148.112C224.716 148.329 224.47 148.611 224.297 148.96C224.125 149.308 224.039 149.681 224.039 150.08V150.72C224.039 151.266 224.133 151.728 224.321 152.108C224.512 152.484 224.778 152.772 225.116 152.969C225.455 153.164 225.849 153.261 226.298 153.261C226.589 153.261 226.853 153.22 227.088 153.139C227.327 153.054 227.532 152.928 227.705 152.762C227.877 152.593 228.011 152.382 228.105 152.131L229.178 152.433C229.065 152.797 228.875 153.117 228.608 153.393C228.342 153.666 228.012 153.879 227.62 154.033C227.228 154.183 226.787 154.259 226.298 154.259ZM233.898 156.969C233.361 156.969 232.9 156.9 232.514 156.762C232.128 156.627 231.807 156.449 231.55 156.226C231.295 156.006 231.093 155.771 230.943 155.52L231.827 154.899C231.928 155.03 232.055 155.181 232.208 155.35C232.362 155.523 232.572 155.672 232.839 155.798C233.109 155.926 233.462 155.99 233.898 155.99C234.481 155.99 234.963 155.849 235.343 155.567C235.722 155.285 235.912 154.842 235.912 154.24V152.772H235.818C235.736 152.903 235.62 153.066 235.47 153.261C235.322 153.452 235.109 153.623 234.83 153.774C234.554 153.921 234.18 153.995 233.71 153.995C233.126 153.995 232.602 153.857 232.138 153.581C231.677 153.305 231.311 152.903 231.041 152.376C230.775 151.849 230.641 151.209 230.641 150.456C230.641 149.716 230.772 149.071 231.032 148.522C231.292 147.97 231.655 147.543 232.119 147.242C232.583 146.938 233.12 146.785 233.729 146.785C234.199 146.785 234.572 146.864 234.849 147.021C235.128 147.174 235.341 147.35 235.489 147.548C235.639 147.742 235.755 147.902 235.837 148.028H235.95V146.879H237.023V154.315C237.023 154.936 236.882 155.441 236.599 155.83C236.32 156.223 235.944 156.51 235.47 156.692C234.999 156.877 234.475 156.969 233.898 156.969ZM233.86 152.997C234.306 152.997 234.682 152.895 234.99 152.691C235.297 152.488 235.531 152.194 235.691 151.811C235.851 151.429 235.931 150.971 235.931 150.437C235.931 149.916 235.853 149.457 235.696 149.058C235.539 148.66 235.307 148.348 234.999 148.122C234.692 147.896 234.312 147.783 233.86 147.783C233.39 147.783 232.998 147.902 232.684 148.141C232.373 148.379 232.139 148.699 231.983 149.101C231.829 149.502 231.752 149.948 231.752 150.437C231.752 150.939 231.83 151.383 231.987 151.769C232.147 152.152 232.383 152.453 232.693 152.673C233.007 152.889 233.396 152.997 233.86 152.997ZM242.087 154.259C241.39 154.259 240.789 154.105 240.284 153.797C239.782 153.487 239.395 153.054 239.122 152.499C238.852 151.94 238.717 151.291 238.717 150.55C238.717 149.81 238.852 149.157 239.122 148.592C239.395 148.025 239.774 147.582 240.261 147.265C240.75 146.945 241.321 146.785 241.974 146.785C242.35 146.785 242.722 146.848 243.089 146.974C243.456 147.099 243.79 147.303 244.091 147.585C244.393 147.865 244.633 148.235 244.811 148.696C244.99 149.157 245.08 149.725 245.08 150.4V150.87H239.508V149.91H243.95C243.95 149.502 243.869 149.138 243.705 148.818C243.545 148.498 243.316 148.246 243.018 148.061C242.723 147.876 242.375 147.783 241.974 147.783C241.531 147.783 241.148 147.893 240.825 148.112C240.505 148.329 240.259 148.611 240.086 148.96C239.914 149.308 239.828 149.681 239.828 150.08V150.72C239.828 151.266 239.922 151.728 240.11 152.108C240.301 152.484 240.566 152.772 240.905 152.969C241.244 153.164 241.638 153.261 242.087 153.261C242.378 153.261 242.642 153.22 242.877 153.139C243.116 153.054 243.321 152.928 243.494 152.762C243.666 152.593 243.8 152.382 243.894 152.131L244.967 152.433C244.854 152.797 244.664 153.117 244.397 153.393C244.131 153.666 243.801 153.879 243.409 154.033C243.017 154.183 242.576 154.259 242.087 154.259ZM247.88 149.76V154.108H246.769V146.879H247.842V148.009H247.936C248.106 147.642 248.363 147.347 248.708 147.124C249.053 146.898 249.499 146.785 250.045 146.785C250.534 146.785 250.962 146.886 251.329 147.087C251.696 147.284 251.982 147.585 252.186 147.99C252.39 148.392 252.492 148.9 252.492 149.515V154.108H251.381V149.59C251.381 149.022 251.234 148.58 250.939 148.263C250.644 147.943 250.239 147.783 249.725 147.783C249.37 147.783 249.053 147.86 248.774 148.014C248.498 148.167 248.28 148.392 248.12 148.687C247.96 148.982 247.88 149.339 247.88 149.76ZM257.251 154.259C256.648 154.259 256.117 154.106 255.655 153.802C255.194 153.495 254.833 153.062 254.573 152.503C254.313 151.942 254.182 151.278 254.182 150.513C254.182 149.753 254.313 149.094 254.573 148.536C254.833 147.978 255.196 147.546 255.66 147.242C256.124 146.938 256.661 146.785 257.27 146.785C257.74 146.785 258.112 146.864 258.385 147.021C258.661 147.174 258.871 147.35 259.016 147.548C259.163 147.742 259.278 147.902 259.359 148.028H259.453V144.47H260.564V154.108H259.491V152.997H259.359C259.278 153.129 259.161 153.295 259.011 153.496C258.86 153.694 258.645 153.871 258.366 154.028C258.087 154.182 257.715 154.259 257.251 154.259ZM257.401 153.261C257.847 153.261 258.223 153.145 258.531 152.913C258.838 152.677 259.072 152.353 259.232 151.939C259.392 151.521 259.472 151.04 259.472 150.494C259.472 149.954 259.394 149.482 259.237 149.077C259.08 148.669 258.848 148.352 258.54 148.127C258.233 147.898 257.853 147.783 257.401 147.783C256.931 147.783 256.539 147.904 256.225 148.145C255.914 148.384 255.681 148.709 255.524 149.12C255.37 149.527 255.293 149.985 255.293 150.494C255.293 151.008 255.371 151.476 255.528 151.896C255.688 152.313 255.924 152.646 256.234 152.894C256.548 153.139 256.937 153.261 257.401 153.261ZM264.879 154.277C264.421 154.277 264.006 154.191 263.632 154.019C263.259 153.843 262.962 153.59 262.743 153.261C262.523 152.928 262.413 152.527 262.413 152.056C262.413 151.642 262.495 151.306 262.658 151.049C262.821 150.789 263.039 150.585 263.312 150.437C263.585 150.29 263.886 150.18 264.216 150.108C264.548 150.033 264.882 149.973 265.218 149.929C265.657 149.873 266.014 149.83 266.286 149.802C266.563 149.771 266.763 149.719 266.889 149.647C267.017 149.574 267.082 149.449 267.082 149.27V149.233C267.082 148.768 266.955 148.407 266.701 148.15C266.45 147.893 266.068 147.764 265.557 147.764C265.027 147.764 264.611 147.88 264.31 148.112C264.009 148.345 263.797 148.592 263.675 148.856L262.62 148.48C262.809 148.04 263.06 147.698 263.373 147.454C263.69 147.206 264.035 147.033 264.409 146.936C264.785 146.836 265.155 146.785 265.519 146.785C265.752 146.785 266.018 146.814 266.319 146.87C266.624 146.923 266.917 147.035 267.199 147.204C267.485 147.374 267.722 147.629 267.91 147.971C268.098 148.313 268.192 148.771 268.192 149.345V154.108H267.082V153.129H267.025C266.95 153.286 266.825 153.454 266.649 153.633C266.473 153.812 266.239 153.964 265.948 154.089C265.656 154.215 265.3 154.277 264.879 154.277ZM265.049 153.28C265.488 153.28 265.858 153.193 266.159 153.021C266.464 152.848 266.693 152.626 266.846 152.353C267.003 152.08 267.082 151.793 267.082 151.491V150.475C267.035 150.531 266.931 150.583 266.771 150.63C266.614 150.674 266.432 150.713 266.225 150.748C266.021 150.779 265.822 150.807 265.628 150.833C265.436 150.855 265.281 150.873 265.162 150.889C264.873 150.927 264.603 150.988 264.352 151.073C264.104 151.154 263.904 151.278 263.75 151.444C263.599 151.608 263.524 151.83 263.524 152.113C263.524 152.499 263.667 152.79 263.952 152.988C264.241 153.182 264.606 153.28 265.049 153.28ZM270.22 154.108V146.879H271.293V147.971H271.368C271.5 147.614 271.738 147.323 272.083 147.101C272.428 146.878 272.817 146.767 273.25 146.767C273.332 146.767 273.434 146.768 273.556 146.771C273.679 146.774 273.771 146.779 273.834 146.785V147.915C273.796 147.905 273.71 147.891 273.575 147.872C273.443 147.85 273.304 147.84 273.156 147.84C272.805 147.84 272.491 147.913 272.215 148.061C271.942 148.205 271.726 148.406 271.566 148.663C271.409 148.917 271.33 149.207 271.33 149.534V154.108H270.22ZM276.086 156.819C275.897 156.819 275.73 156.803 275.582 156.772C275.435 156.743 275.333 156.715 275.276 156.687L275.559 155.708C275.828 155.777 276.067 155.802 276.274 155.783C276.481 155.765 276.665 155.672 276.825 155.506C276.988 155.343 277.137 155.077 277.272 154.71L277.479 154.146L274.806 146.879H276.01L278.006 152.64H278.081L280.077 146.879H281.281L278.213 155.162C278.075 155.536 277.904 155.845 277.7 156.089C277.496 156.337 277.259 156.521 276.989 156.64C276.723 156.759 276.421 156.819 276.086 156.819ZM289.411 154.259C288.733 154.259 288.15 154.099 287.66 153.779C287.171 153.459 286.794 153.018 286.531 152.456C286.267 151.895 286.136 151.253 286.136 150.531C286.136 149.797 286.271 149.149 286.54 148.588C286.813 148.023 287.193 147.582 287.679 147.265C288.169 146.945 288.74 146.785 289.392 146.785C289.901 146.785 290.359 146.879 290.766 147.068C291.174 147.256 291.508 147.519 291.769 147.858C292.029 148.197 292.191 148.592 292.254 149.044H291.143C291.058 148.715 290.87 148.423 290.578 148.169C290.29 147.912 289.901 147.783 289.411 147.783C288.978 147.783 288.598 147.896 288.272 148.122C287.949 148.345 287.696 148.66 287.515 149.068C287.336 149.473 287.246 149.948 287.246 150.494C287.246 151.052 287.334 151.539 287.51 151.953C287.689 152.367 287.94 152.688 288.263 152.917C288.589 153.146 288.972 153.261 289.411 153.261C289.7 153.261 289.962 153.211 290.197 153.11C290.432 153.01 290.632 152.866 290.795 152.677C290.958 152.489 291.074 152.263 291.143 152H292.254C292.191 152.426 292.036 152.811 291.788 153.153C291.543 153.492 291.218 153.761 290.813 153.962C290.412 154.16 289.944 154.259 289.411 154.259ZM296.004 154.277C295.546 154.277 295.131 154.191 294.757 154.019C294.384 153.843 294.087 153.59 293.868 153.261C293.648 152.928 293.538 152.527 293.538 152.056C293.538 151.642 293.62 151.306 293.783 151.049C293.946 150.789 294.164 150.585 294.437 150.437C294.71 150.29 295.011 150.18 295.341 150.108C295.673 150.033 296.007 149.973 296.343 149.929C296.782 149.873 297.138 149.83 297.411 149.802C297.688 149.771 297.888 149.719 298.014 149.647C298.142 149.574 298.207 149.449 298.207 149.27V149.233C298.207 148.768 298.08 148.407 297.826 148.15C297.575 147.893 297.193 147.764 296.682 147.764C296.152 147.764 295.736 147.88 295.435 148.112C295.134 148.345 294.922 148.592 294.8 148.856L293.745 148.48C293.934 148.04 294.185 147.698 294.498 147.454C294.815 147.206 295.16 147.033 295.534 146.936C295.91 146.836 296.28 146.785 296.644 146.785C296.876 146.785 297.143 146.814 297.444 146.87C297.749 146.923 298.042 147.035 298.324 147.204C298.61 147.374 298.847 147.629 299.035 147.971C299.223 148.313 299.317 148.771 299.317 149.345V154.108H298.207V153.129H298.15C298.075 153.286 297.949 153.454 297.774 153.633C297.598 153.812 297.364 153.964 297.073 154.089C296.781 154.215 296.425 154.277 296.004 154.277ZM296.174 153.28C296.613 153.28 296.983 153.193 297.284 153.021C297.589 152.848 297.818 152.626 297.971 152.353C298.128 152.08 298.207 151.793 298.207 151.491V150.475C298.16 150.531 298.056 150.583 297.896 150.63C297.739 150.674 297.557 150.713 297.35 150.748C297.146 150.779 296.947 150.807 296.753 150.833C296.561 150.855 296.406 150.873 296.287 150.889C295.998 150.927 295.728 150.988 295.477 151.073C295.229 151.154 295.029 151.278 294.875 151.444C294.724 151.608 294.649 151.83 294.649 152.113C294.649 152.499 294.792 152.79 295.077 152.988C295.366 153.182 295.731 153.28 296.174 153.28ZM301.345 154.108V146.879H302.418V147.971H302.493C302.625 147.614 302.863 147.323 303.208 147.101C303.553 146.878 303.942 146.767 304.375 146.767C304.457 146.767 304.559 146.768 304.681 146.771C304.804 146.774 304.896 146.779 304.959 146.785V147.915C304.921 147.905 304.835 147.891 304.7 147.872C304.568 147.85 304.429 147.84 304.281 147.84C303.93 147.84 303.616 147.913 303.34 148.061C303.067 148.205 302.851 148.406 302.69 148.663C302.534 148.917 302.455 149.207 302.455 149.534V154.108H301.345ZM308.785 154.259C308.183 154.259 307.651 154.106 307.19 153.802C306.728 153.495 306.368 153.062 306.107 152.503C305.847 151.942 305.717 151.278 305.717 150.513C305.717 149.753 305.847 149.094 306.107 148.536C306.368 147.978 306.73 147.546 307.194 147.242C307.659 146.938 308.195 146.785 308.804 146.785C309.274 146.785 309.646 146.864 309.919 147.021C310.195 147.174 310.405 147.35 310.55 147.548C310.697 147.742 310.812 147.902 310.893 148.028H310.987V144.47H312.098V154.108H311.025V152.997H310.893C310.812 153.129 310.696 153.295 310.545 153.496C310.394 153.694 310.179 153.871 309.9 154.028C309.621 154.182 309.249 154.259 308.785 154.259ZM308.935 153.261C309.381 153.261 309.757 153.145 310.065 152.913C310.372 152.677 310.606 152.353 310.766 151.939C310.926 151.521 311.006 151.04 311.006 150.494C311.006 149.954 310.928 149.482 310.771 149.077C310.614 148.669 310.382 148.352 310.074 148.127C309.767 147.898 309.387 147.783 308.935 147.783C308.465 147.783 308.073 147.904 307.759 148.145C307.448 148.384 307.215 148.709 307.058 149.12C306.904 149.527 306.827 149.985 306.827 150.494C306.827 151.008 306.906 151.476 307.062 151.896C307.222 152.313 307.458 152.646 307.768 152.894C308.082 153.139 308.471 153.261 308.935 153.261ZM319.407 148.498L318.409 148.781C318.346 148.614 318.254 148.453 318.131 148.296C318.012 148.136 317.849 148.004 317.642 147.901C317.435 147.797 317.17 147.745 316.846 147.745C316.404 147.745 316.035 147.847 315.741 148.051C315.449 148.252 315.303 148.508 315.303 148.818C315.303 149.094 315.403 149.313 315.604 149.473C315.805 149.633 316.119 149.766 316.545 149.873L317.618 150.136C318.265 150.293 318.746 150.533 319.063 150.856C319.38 151.176 319.538 151.589 319.538 152.094C319.538 152.508 319.419 152.878 319.181 153.204C318.945 153.531 318.616 153.788 318.192 153.976C317.769 154.165 317.276 154.259 316.715 154.259C315.977 154.259 315.367 154.099 314.884 153.779C314.401 153.459 314.095 152.991 313.966 152.376L315.02 152.113C315.121 152.502 315.311 152.793 315.59 152.988C315.872 153.182 316.241 153.28 316.696 153.28C317.214 153.28 317.625 153.17 317.929 152.95C318.236 152.728 318.39 152.461 318.39 152.15C318.39 151.899 318.302 151.689 318.126 151.52C317.951 151.347 317.681 151.218 317.317 151.134L316.112 150.851C315.45 150.695 314.964 150.451 314.653 150.122C314.346 149.789 314.192 149.374 314.192 148.875C314.192 148.467 314.307 148.106 314.536 147.792C314.768 147.479 315.083 147.232 315.482 147.054C315.883 146.875 316.338 146.785 316.846 146.785C317.562 146.785 318.123 146.942 318.531 147.256C318.942 147.57 319.234 147.984 319.407 148.498ZM327.065 154.277C326.606 154.277 326.191 154.191 325.817 154.019C325.444 153.843 325.148 153.59 324.928 153.261C324.708 152.928 324.599 152.527 324.599 152.056C324.599 151.642 324.68 151.306 324.843 151.049C325.006 150.789 325.224 150.585 325.497 150.437C325.77 150.29 326.072 150.18 326.401 150.108C326.734 150.033 327.068 149.973 327.403 149.929C327.843 149.873 328.199 149.83 328.472 149.802C328.748 149.771 328.949 149.719 329.074 149.647C329.203 149.574 329.267 149.449 329.267 149.27V149.233C329.267 148.768 329.14 148.407 328.886 148.15C328.635 147.893 328.254 147.764 327.742 147.764C327.212 147.764 326.796 147.88 326.495 148.112C326.194 148.345 325.982 148.592 325.86 148.856L324.806 148.48C324.994 148.04 325.245 147.698 325.559 147.454C325.875 147.206 326.221 147.033 326.594 146.936C326.97 146.836 327.341 146.785 327.705 146.785C327.937 146.785 328.203 146.814 328.505 146.87C328.809 146.923 329.102 147.035 329.385 147.204C329.67 147.374 329.907 147.629 330.095 147.971C330.284 148.313 330.378 148.771 330.378 149.345V154.108H329.267V153.129H329.211C329.135 153.286 329.01 153.454 328.834 153.633C328.658 153.812 328.425 153.964 328.133 154.089C327.841 154.215 327.485 154.277 327.065 154.277ZM327.234 153.28C327.673 153.28 328.043 153.193 328.345 153.021C328.649 152.848 328.878 152.626 329.032 152.353C329.189 152.08 329.267 151.793 329.267 151.491V150.475C329.22 150.531 329.116 150.583 328.956 150.63C328.8 150.674 328.618 150.713 328.41 150.748C328.207 150.779 328.007 150.807 327.813 150.833C327.621 150.855 327.466 150.873 327.347 150.889C327.058 150.927 326.788 150.988 326.537 151.073C326.29 151.154 326.089 151.278 325.935 151.444C325.784 151.608 325.709 151.83 325.709 152.113C325.709 152.499 325.852 152.79 326.137 152.988C326.426 153.182 326.792 153.28 327.234 153.28ZM333.515 149.76V154.108H332.405V146.879H333.478V148.009H333.572C333.741 147.642 333.999 147.347 334.344 147.124C334.689 146.898 335.134 146.785 335.68 146.785C336.17 146.785 336.598 146.886 336.965 147.087C337.332 147.284 337.618 147.585 337.822 147.99C338.025 148.392 338.127 148.9 338.127 149.515V154.108H337.017V149.59C337.017 149.022 336.869 148.58 336.574 148.263C336.279 147.943 335.875 147.783 335.36 147.783C335.006 147.783 334.689 147.86 334.41 148.014C334.133 148.167 333.915 148.392 333.755 148.687C333.595 148.982 333.515 149.339 333.515 149.76ZM342.886 154.259C342.284 154.259 341.752 154.106 341.291 153.802C340.83 153.495 340.469 153.062 340.209 152.503C339.948 151.942 339.818 151.278 339.818 150.513C339.818 149.753 339.948 149.094 340.209 148.536C340.469 147.978 340.831 147.546 341.296 147.242C341.76 146.938 342.297 146.785 342.905 146.785C343.376 146.785 343.748 146.864 344.021 147.021C344.297 147.174 344.507 147.35 344.651 147.548C344.799 147.742 344.913 147.902 344.995 148.028H345.089V144.47H346.2V154.108H345.127V152.997H344.995C344.913 153.129 344.797 153.295 344.647 153.496C344.496 153.694 344.281 153.871 344.002 154.028C343.723 154.182 343.351 154.259 342.886 154.259ZM343.037 153.261C343.483 153.261 343.859 153.145 344.167 152.913C344.474 152.677 344.708 152.353 344.868 151.939C345.028 151.521 345.108 151.04 345.108 150.494C345.108 149.954 345.029 149.482 344.872 149.077C344.716 148.669 344.483 148.352 344.176 148.127C343.868 147.898 343.489 147.783 343.037 147.783C342.566 147.783 342.174 147.904 341.861 148.145C341.55 148.384 341.316 148.709 341.159 149.12C341.006 149.527 340.929 149.985 340.929 150.494C340.929 151.008 341.007 151.476 341.164 151.896C341.324 152.313 341.559 152.646 341.87 152.894C342.184 153.139 342.573 153.261 343.037 153.261ZM357.235 148.498L356.238 148.781C356.175 148.614 356.082 148.453 355.96 148.296C355.841 148.136 355.678 148.004 355.471 147.901C355.263 147.797 354.998 147.745 354.675 147.745C354.233 147.745 353.864 147.847 353.569 148.051C353.278 148.252 353.132 148.508 353.132 148.818C353.132 149.094 353.232 149.313 353.433 149.473C353.634 149.633 353.947 149.766 354.374 149.873L355.447 150.136C356.093 150.293 356.575 150.533 356.892 150.856C357.209 151.176 357.367 151.589 357.367 152.094C357.367 152.508 357.248 152.878 357.009 153.204C356.774 153.531 356.445 153.788 356.021 153.976C355.598 154.165 355.105 154.259 354.543 154.259C353.806 154.259 353.196 154.099 352.713 153.779C352.23 153.459 351.924 152.991 351.795 152.376L352.849 152.113C352.95 152.502 353.139 152.793 353.419 152.988C353.701 153.182 354.07 153.28 354.525 153.28C355.042 153.28 355.453 153.17 355.758 152.95C356.065 152.728 356.219 152.461 356.219 152.15C356.219 151.899 356.131 151.689 355.955 151.52C355.78 151.347 355.51 151.218 355.146 151.134L353.941 150.851C353.279 150.695 352.793 150.451 352.482 150.122C352.175 149.789 352.021 149.374 352.021 148.875C352.021 148.467 352.136 148.106 352.365 147.792C352.597 147.479 352.912 147.232 353.31 147.054C353.712 146.875 354.167 146.785 354.675 146.785C355.391 146.785 355.952 146.942 356.36 147.256C356.771 147.57 357.063 147.984 357.235 148.498ZM360.074 151.473L360.055 150.098H360.281L363.444 146.879H364.818L361.448 150.287H361.354L360.074 151.473ZM359.039 154.108V144.47H360.15V154.108H359.039ZM363.632 154.108L360.808 150.531L361.599 149.76L365.044 154.108H363.632ZM366.248 154.108V146.879H367.358V154.108H366.248ZM366.812 145.675C366.596 145.675 366.409 145.601 366.252 145.454C366.099 145.306 366.022 145.129 366.022 144.922C366.022 144.715 366.099 144.537 366.252 144.39C366.409 144.242 366.596 144.169 366.812 144.169C367.029 144.169 367.214 144.242 367.368 144.39C367.524 144.537 367.603 144.715 367.603 144.922C367.603 145.129 367.524 145.306 367.368 145.454C367.214 145.601 367.029 145.675 366.812 145.675ZM370.503 149.76V154.108H369.392V146.879H370.465V148.009H370.559C370.729 147.642 370.986 147.347 371.331 147.124C371.676 146.898 372.122 146.785 372.668 146.785C373.157 146.785 373.586 146.886 373.953 147.087C374.32 147.284 374.605 147.585 374.809 147.99C375.013 148.392 375.115 148.9 375.115 149.515V154.108H374.004V149.59C374.004 149.022 373.857 148.58 373.562 148.263C373.267 147.943 372.862 147.783 372.348 147.783C371.993 147.783 371.676 147.86 371.397 148.014C371.121 148.167 370.903 148.392 370.743 148.687C370.583 148.982 370.503 149.339 370.503 149.76ZM382.265 148.498L381.267 148.781C381.204 148.614 381.112 148.453 380.989 148.296C380.87 148.136 380.707 148.004 380.5 147.901C380.293 147.797 380.028 147.745 379.705 147.745C379.262 147.745 378.894 147.847 378.599 148.051C378.307 148.252 378.161 148.508 378.161 148.818C378.161 149.094 378.261 149.313 378.462 149.473C378.663 149.633 378.977 149.766 379.403 149.873L380.476 150.136C381.123 150.293 381.604 150.533 381.921 150.856C382.238 151.176 382.397 151.589 382.397 152.094C382.397 152.508 382.277 152.878 382.039 153.204C381.804 153.531 381.474 153.788 381.051 153.976C380.627 154.165 380.134 154.259 379.573 154.259C378.836 154.259 378.225 154.099 377.742 153.779C377.259 153.459 376.953 152.991 376.824 152.376L377.879 152.113C377.979 152.502 378.169 152.793 378.448 152.988C378.73 153.182 379.099 153.28 379.554 153.28C380.072 153.28 380.483 153.17 380.787 152.95C381.094 152.728 381.248 152.461 381.248 152.15C381.248 151.899 381.16 151.689 380.985 151.52C380.809 151.347 380.539 151.218 380.175 151.134L378.97 150.851C378.308 150.695 377.822 150.451 377.512 150.122C377.204 149.789 377.05 149.374 377.05 148.875C377.05 148.467 377.165 148.106 377.394 147.792C377.626 147.479 377.941 147.232 378.34 147.054C378.741 146.875 379.196 146.785 379.705 146.785C380.42 146.785 380.982 146.942 381.389 147.256C381.8 147.57 382.092 147.984 382.265 148.498Z" fill="#E8E8E8"/>
<mask id="path-12-inside-2_389_14916" fill="white">
<path d="M337.919 2.40857H481.018C481.018 2.40857 425.818 36.5286 395.264 69.063C370.591 95.335 337.919 146.203 337.919 146.203C337.919 146.203 346.289 99.4983 345.811 69.063C345.396 42.6723 337.919 2.40857 337.919 2.40857Z"/>
</mask>
<path d="M337.919 2.40857H481.018C481.018 2.40857 425.818 36.5286 395.264 69.063C370.591 95.335 337.919 146.203 337.919 146.203C337.919 146.203 346.289 99.4983 345.811 69.063C345.396 42.6723 337.919 2.40857 337.919 2.40857Z" fill="#010B7B"/>
<path d="M337.919 2.06932C337.919 2.29549 337.919 2.52165 337.919 2.74782C346.136 3.02706 354.353 3.29708 362.569 3.5579C402.052 4.8112 441.535 5.85186 481.018 6.67989L478.772 -1.2247C447.602 17.9072 417.216 38.349 390.879 64.945C368.419 89.1191 350.213 115.612 332.316 142.604L344.475 147.378C345.983 138.848 347.274 130.357 348.42 121.851C350.695 104.461 352.253 86.911 351.289 68.977C350.318 54.35 347.658 40.3058 344.504 26.3556C342.653 18.3033 340.573 10.2364 338.253 2.34663C338.031 2.38792 337.808 2.42922 337.586 2.47051C338.18 10.6517 338.705 18.9339 339.172 27.1144C339.941 41.2474 340.709 55.4224 340.333 69.1491C339.681 85.9323 337.394 103.046 335.16 120.071C334.04 128.383 332.771 136.847 331.364 145.029L343.523 149.802C360.887 123.311 378.921 96.4655 399.649 73.1811C423.841 47.5763 453.537 26.0125 483.263 6.04184L496.016 -1.9837L481.018 -1.86276C441.535 -1.03473 402.052 0.00593996 362.569 1.25924C354.353 1.52006 346.136 1.79008 337.919 2.06932ZM337.919 2.74782V2.06932L337.471 2.08455L337.586 2.47051L338.253 2.34663L337.919 2.74782Z" fill="#020C7B" mask="url(#path-12-inside-2_389_14916)"/>
<path d="M328.499 1.04724C327.76 1.26721 327.02 1.48718 326.28 1.70715C326.967 3.97256 327.645 6.31864 328.308 8.65893C332.751 24.6567 336.931 40.8735 338.882 57.3365V57.3365C341.3 84.0716 338.103 111.119 334.271 137.718C333.909 140.09 333.514 142.574 333.116 144.88C333.552 142.58 333.985 140.103 334.386 137.736C338.639 111.178 342.284 84.2352 340.278 57.1968V57.1968C338.57 40.5246 334.634 24.2153 330.429 8.07693C329.8 5.71354 329.159 3.35818 328.499 1.04724Z" fill="url(#paint1_linear_389_14916)"/>
<path d="M482.341 12.4184C482.652 13.1778 482.963 13.9373 483.274 14.6967C480.799 16.2276 478.203 17.8828 475.684 19.5075C450.064 36.307 424.608 53.8374 401.933 76.1415V76.1415C384.743 93.9039 369.42 114.392 354.449 135.079C352.557 137.72 350.671 140.377 348.816 143.048C348.816 143.048 348.816 143.048 348.816 143.048C350.644 140.349 352.505 137.664 354.371 134.994C369.148 114.078 384.256 93.3734 401.351 75.2699V75.2699C423.925 52.514 449.242 34.5913 474.764 17.3646C477.276 15.6964 479.855 14.0042 482.341 12.4184Z" fill="url(#paint2_linear_389_14916)"/>
<g filter="url(#filter0_i_389_14916)">
<path d="M315.516 19.333C315.629 14.0846 315.267 10.2525 314.427 7.10155C313.634 4.12647 312.272 1.21933 309.696 -1.99468C306.961 -5.408 304.426 -7.11345 301.807 -7.96754C299.021 -8.87604 295.687 -8.96543 291.333 -8.20313C290.178 -8.001 288.003 -7.12417 284.954 -5.43341C283.727 -4.75278 282.449 -3.98879 281.153 -3.18036C284.555 -1.5436 288.097 0.511715 291.305 3.08439C295.519 6.46425 300.266 11.6342 302.4 19.1677L302.707 20.3055C305.694 32.0095 303.285 42.2364 301.481 49.6453C299.387 58.2462 297.972 63.7223 298.816 69.6529C300.844 83.8886 308.913 100.032 318.423 110.065C321.358 113.161 323.831 115.937 326.619 118.768C322.121 112.967 318.339 107.268 315.317 100.868C311.183 92.1133 308.787 82.7463 307.271 71.04C305.515 57.4781 308.187 49.7151 310.741 42.7635C313.016 36.57 315.27 30.8098 315.516 19.333Z" fill="#020C7B" fill-opacity="0.25"/>
</g>
<g filter="url(#filter1_i_389_14916)">
<path d="M494.303 59.3292C499.162 57.4165 502.539 55.6069 505.107 53.6154C507.532 51.7351 509.676 49.3521 511.635 45.7245C513.715 41.8718 514.306 38.862 514.083 36.1013C513.845 33.1645 512.645 30.033 510.272 26.2822C509.643 25.2878 508.002 23.6041 505.279 21.4227C504.182 20.5446 502.99 19.6513 501.75 18.7586C501.556 22.5476 501.032 26.6277 499.904 30.5957C498.423 35.8088 495.504 42.2052 489.412 47.0833L488.486 47.8054C478.895 55.079 468.585 56.7734 461.094 57.9464C452.397 59.3081 446.828 60.0985 441.711 63.1627C429.428 70.5183 417.717 84.2189 412.167 96.9083C410.454 100.824 408.858 104.188 407.332 107.866C410.926 101.459 414.701 95.7556 419.412 90.4878C425.856 83.2832 433.53 77.4568 443.688 71.5485C455.457 64.7039 463.607 64.2014 470.968 63.9011C477.525 63.6335 483.677 63.5119 494.303 59.3292Z" fill="#020C7B" fill-opacity="0.25"/>
</g>
<g filter="url(#filter2_i_389_14916)">
<path d="M251.049 -1.35892C249.135 -4.74146 247.959 -7.36486 247.264 -9.70923C246.607 -11.9228 246.258 -14.2887 246.406 -17.2738C246.564 -20.444 247.226 -22.4315 248.231 -23.8931C249.3 -25.4478 250.933 -26.6581 253.377 -27.6654C254.025 -27.9324 255.421 -28.1124 257.542 -28.0633C258.395 -28.0435 259.303 -27.987 260.237 -27.9076C259.117 -25.6652 258.076 -23.1016 257.386 -20.3163C256.478 -16.6571 255.938 -11.6467 257.539 -5.99807L257.788 -5.15042C260.439 3.51169 265.262 9.34677 268.784 13.5537C272.874 18.4375 275.519 21.5185 277.196 25.6766C281.222 35.6576 282.907 48.9698 281.71 58.7961C281.341 61.8283 281.089 64.4921 280.699 67.3012C280.891 61.9654 280.762 56.9438 280.006 51.7268C278.971 44.5916 276.852 37.6572 273.466 29.5017C269.543 20.0537 265.461 15.9159 261.726 12.2663C258.398 9.01464 255.234 6.03787 251.049 -1.35892Z" fill="#020C7B" fill-opacity="0.25"/>
</g>
</g>
<path d="M-1.9504 9.42796C-1.9504 3.14387 3.14387 -1.9504 9.42796 -1.9504H513.545C519.829 -1.9504 524.923 3.14387 524.923 9.42796H521.023C521.023 5.29821 517.675 1.9504 513.545 1.9504H9.42796C5.29821 1.9504 1.9504 5.29821 1.9504 9.42796H-1.9504ZM1.9504 9.42796M522.973 187.142H0H522.973M9.42796 187.142C3.14387 187.142 -1.9504 182.048 -1.9504 175.764V9.42796C-1.9504 3.14387 3.14387 -1.9504 9.42796 -1.9504V1.9504C5.29821 1.9504 1.9504 5.29821 1.9504 9.42796V177.714C1.9504 182.921 5.29821 187.142 9.42796 187.142ZM513.545 -1.9504C519.829 -1.9504 524.923 3.14387 524.923 9.42796V175.764C524.923 182.048 519.829 187.142 513.545 187.142C517.675 187.142 521.023 182.921 521.023 177.714V9.42796C521.023 5.29821 517.675 1.9504 513.545 1.9504V-1.9504Z" fill="url(#paint3_linear_389_14916)" mask="url(#path-1-inside-1_389_14916)"/>
<defs>
<filter id="filter0_i_389_14916" x="281.153" y="-8.71783" width="45.4653" height="129.067" filterUnits="userSpaceOnUse" color-interpolation-filters="sRGB">
<feFlood flood-opacity="0" result="BackgroundImageFix"/>
<feBlend mode="normal" in="SourceGraphic" in2="BackgroundImageFix" result="shape"/>
<feColorMatrix in="SourceAlpha" type="matrix" values="0 0 0 0 0 0 0 0 0 0 0 0 0 0 0 0 0 0 127 0" result="hardAlpha"/>
<feOffset dy="1.58107"/>
<feGaussianBlur stdDeviation="0.790534"/>
<feComposite in2="hardAlpha" operator="arithmetic" k2="-1" k3="1"/>
<feColorMatrix type="matrix" values="0 0 0 0 0 0 0 0 0 0 0 0 0 0 0 0 0 0 0.25 0"/>
<feBlend mode="normal" in2="shape" result="effect1_innerShadow_389_14916"/>
</filter>
<filter id="filter1_i_389_14916" x="407.332" y="18.7586" width="106.795" height="90.6886" filterUnits="userSpaceOnUse" color-interpolation-filters="sRGB">
<feFlood flood-opacity="0" result="BackgroundImageFix"/>
<feBlend mode="normal" in="SourceGraphic" in2="BackgroundImageFix" result="shape"/>
<feColorMatrix in="SourceAlpha" type="matrix" values="0 0 0 0 0 0 0 0 0 0 0 0 0 0 0 0 0 0 127 0" result="hardAlpha"/>
<feOffset dy="1.58107"/>
<feGaussianBlur stdDeviation="0.790534"/>
<feComposite in2="hardAlpha" operator="arithmetic" k2="-1" k3="1"/>
<feColorMatrix type="matrix" values="0 0 0 0 0 0 0 0 0 0 0 0 0 0 0 0 0 0 0.25 0"/>
<feBlend mode="normal" in2="shape" result="effect1_innerShadow_389_14916"/>
</filter>
<filter id="filter2_i_389_14916" x="246.373" y="-28.0714" width="35.7158" height="97.7412" filterUnits="userSpaceOnUse" color-interpolation-filters="sRGB">
<feFlood flood-opacity="0" result="BackgroundImageFix"/>
<feBlend mode="normal" in="SourceGraphic" in2="BackgroundImageFix" result="shape"/>
<feColorMatrix in="SourceAlpha" type="matrix" values="0 0 0 0 0 0 0 0 0 0 0 0 0 0 0 0 0 0 127 0" result="hardAlpha"/>
<feOffset dy="2.36856"/>
<feGaussianBlur stdDeviation="1.18428"/>
<feComposite in2="hardAlpha" operator="arithmetic" k2="-1" k3="1"/>
<feColorMatrix type="matrix" values="0 0 0 0 0 0 0 0 0 0 0 0 0 0 0 0 0 0 0.25 0"/>
<feBlend mode="normal" in2="shape" result="effect1_innerShadow_389_14916"/>
</filter>
<linearGradient id="paint0_linear_389_14916" x1="261.487" y1="132.49" x2="261.487" y2="-43.0593" gradientUnits="userSpaceOnUse">
<stop stop-color="#010B7B"/>
<stop offset="1" stop-color="#0060DE"/>
</linearGradient>
<linearGradient id="paint1_linear_389_14916" x1="333.485" y1="144.88" x2="337.744" y2="26.7414" gradientUnits="userSpaceOnUse">
<stop stop-color="#001FE8"/>
<stop offset="1" stop-color="#011599"/>
</linearGradient>
<linearGradient id="paint2_linear_389_14916" x1="407.183" y1="85.7842" x2="393.351" y2="57.8471" gradientUnits="userSpaceOnUse">
<stop stop-color="#001FE8"/>
<stop offset="1" stop-color="#011599"/>
</linearGradient>
<linearGradient id="paint3_linear_389_14916" x1="261.487" y1="0" x2="261.487" y2="171.409" gradientUnits="userSpaceOnUse">
<stop stop-color="#ABC3FF"/>
<stop offset="0.128319" stop-color="#566FE3"/>
<stop offset="0.247788" stop-color="#001FE8"/>
<stop offset="0.402655" stop-color="#020C7B"/>
<stop offset="1" stop-color="#010B7B"/>
</linearGradient>
<clipPath id="clip0_389_14916">
<path d="M0 9.42797C0 4.22105 4.22104 0 9.42796 0H513.545C518.752 0 522.973 4.22104 522.973 9.42796V177.714C522.973 182.921 518.752 187.142 513.545 187.142H9.42798C4.22106 187.142 0 182.921 0 177.714V9.42797Z" fill="white"/>
</clipPath>
<clipPath id="clip1_389_14916">
<rect width="33.9374" height="33.9374" fill="white" transform="translate(32.1279 41.2783)"/>
</clipPath>
<clipPath id="clip2_389_14916">
<rect width="33.9374" height="33.9374" fill="white" transform="translate(32.1279 41.2783)"/>
</clipPath>
</defs>
</svg>
