<svg width="523" height="188" viewBox="0 0 523 188" fill="none" xmlns="http://www.w3.org/2000/svg">
<g clip-path="url(#clip0_389_14952)">
<mask id="path-1-inside-1_389_14952" fill="white">
<path d="M0 9.42797C0 4.22105 4.22104 0 9.42796 0H513.545C518.752 0 522.973 4.22104 522.973 9.42796V177.714C522.973 182.921 518.752 187.142 513.545 187.142H9.42798C4.22106 187.142 0 182.921 0 177.714V9.42797Z"/>
</mask>
<path d="M0 9.42797C0 4.22105 4.22104 0 9.42796 0H513.545C518.752 0 522.973 4.22104 522.973 9.42796V177.714C522.973 182.921 518.752 187.142 513.545 187.142H9.42798C4.22106 187.142 0 182.921 0 177.714V9.42797Z" fill="url(#paint0_linear_389_14952)"/>
<path d="M15.1592 41.2759C15.1592 31.8967 22.7625 24.2934 32.1416 24.2934H66.0844C75.4636 24.2934 83.0669 31.8967 83.0669 41.2759V75.2187C83.0669 84.5978 75.4636 92.2011 66.0844 92.2011H32.1416C22.7625 92.2011 15.1592 84.5978 15.1592 75.2187V41.2759Z" fill="#CECECE" fill-opacity="0.125"/>
<path d="M40.6123 56.8328H46.2685" stroke="white" stroke-width="2.82812" stroke-linecap="round" stroke-linejoin="round"/>
<path d="M43.4404 54.0039V59.6601" stroke="white" stroke-width="2.82812" stroke-linecap="round" stroke-linejoin="round"/>
<path d="M53.3389 58.246H53.3543" stroke="white" stroke-width="2.82812" stroke-linecap="round" stroke-linejoin="round"/>
<path d="M57.5811 55.4183H57.5965" stroke="white" stroke-width="2.82812" stroke-linecap="round" stroke-linejoin="round"/>
<path d="M56.6194 48.3474H41.5739C40.1743 48.3477 38.8246 48.8669 37.7856 49.8045C36.7467 50.7422 36.0922 52.0317 35.9487 53.4239C35.9402 53.4974 35.9346 53.5667 35.9247 53.6388C35.8101 54.5919 34.9561 61.7188 34.9561 63.9021C34.9561 65.0272 35.403 66.1062 36.1986 66.9017C36.9941 67.6973 38.0731 68.1442 39.1982 68.1442C40.6123 68.1442 41.3193 67.4372 42.0264 66.7302L44.0258 64.7307C44.5561 64.2003 45.2753 63.9022 46.0253 63.9021H52.168C52.918 63.9022 53.6372 64.2003 54.1675 64.7307L56.1669 66.7302C56.874 67.4372 57.581 68.1442 58.9951 68.1442C60.1202 68.1442 61.1992 67.6973 61.9947 66.9017C62.7903 66.1062 63.2372 65.0272 63.2372 63.9021C63.2372 61.7173 62.3831 54.5919 62.2686 53.6388C62.2587 53.5681 62.2531 53.4974 62.2446 53.4253C62.1014 52.0329 61.4471 50.743 60.4081 49.8051C59.3691 48.8671 58.0192 48.3478 56.6194 48.3474Z" stroke="white" stroke-width="2.82812" stroke-linecap="round" stroke-linejoin="round"/>
<path d="M20.3453 114.851V131.986H16.7226V114.851H20.3453ZM26.8229 124.556V131.986H23.2589V119.135H26.6556V121.402H26.8062C27.0907 120.655 27.5676 120.064 28.2369 119.629C28.9062 119.188 29.7177 118.968 30.6715 118.968C31.5639 118.968 32.342 119.163 33.0057 119.553C33.6695 119.944 34.1854 120.501 34.5535 121.227C34.9216 121.946 35.1057 122.805 35.1057 123.803V131.986H31.5416V124.439C31.5472 123.653 31.3464 123.039 30.9392 122.599C30.5321 122.152 29.9715 121.929 29.2576 121.929C28.7779 121.929 28.354 122.032 27.9859 122.239C27.6233 122.445 27.3389 122.746 27.1325 123.142C26.9317 123.533 26.8285 124.004 26.8229 124.556ZM49.4352 119.135L44.9425 131.986H40.9266L36.4338 119.135H40.1987L42.8676 128.33H43.0015L45.662 119.135H49.4352ZM56.7014 132.237C55.3796 132.237 54.2417 131.969 53.288 131.434C52.3398 130.893 51.6091 130.128 51.096 129.141C50.5828 128.148 50.3262 126.974 50.3262 125.619C50.3262 124.297 50.5828 123.137 51.096 122.138C51.6091 121.14 52.3314 120.362 53.2629 119.804C54.1999 119.246 55.2987 118.968 56.5592 118.968C57.407 118.968 58.1962 119.104 58.9269 119.378C59.6631 119.645 60.3046 120.05 60.8512 120.591C61.4034 121.132 61.8328 121.812 62.1396 122.632C62.4464 123.446 62.5998 124.4 62.5998 125.493V126.472H51.7485V124.264H59.2448C59.2448 123.75 59.1333 123.296 58.9102 122.9C58.6871 122.504 58.3775 122.194 57.9815 121.971C57.5911 121.742 57.1365 121.628 56.6178 121.628C56.0768 121.628 55.5971 121.754 55.1788 122.005C54.766 122.25 54.4425 122.582 54.2083 123C53.974 123.413 53.8541 123.873 53.8485 124.381V126.481C53.8485 127.116 53.9656 127.666 54.1999 128.129C54.4397 128.592 54.7772 128.949 55.2122 129.2C55.6473 129.451 56.1632 129.576 56.76 129.576C57.156 129.576 57.5186 129.52 57.8476 129.409C58.1767 129.297 58.4584 129.13 58.6926 128.907C58.9269 128.684 59.1054 128.41 59.2281 128.087L62.5245 128.305C62.3571 129.097 62.0141 129.788 61.4954 130.379C60.9822 130.965 60.3185 131.422 59.5042 131.751C58.6954 132.075 57.7612 132.237 56.7014 132.237ZM68.4897 124.556V131.986H64.9256V119.135H68.3224V121.402H68.473C68.7574 120.655 69.2343 120.064 69.9036 119.629C70.5729 119.188 71.3845 118.968 72.3382 118.968C73.2307 118.968 74.0087 119.163 74.6725 119.553C75.3362 119.944 75.8521 120.501 76.2202 121.227C76.5884 121.946 76.7724 122.805 76.7724 123.803V131.986H73.2083V124.439C73.2139 123.653 73.0131 123.039 72.606 122.599C72.1988 122.152 71.6382 121.929 70.9243 121.929C70.4446 121.929 70.0207 122.032 69.6526 122.239C69.2901 122.445 69.0056 122.746 68.7993 123.142C68.5985 123.533 68.4953 124.004 68.4897 124.556ZM86.4168 119.135V121.812H78.6779V119.135H86.4168ZM80.4348 116.056H83.9989V128.037C83.9989 128.366 84.0491 128.622 84.1495 128.806C84.2499 128.985 84.3893 129.11 84.5678 129.183C84.7519 129.255 84.9638 129.292 85.2037 129.292C85.371 129.292 85.5383 129.278 85.7056 129.25C85.873 129.216 86.0013 129.191 86.0905 129.175L86.651 131.827C86.4726 131.883 86.2216 131.947 85.8981 132.019C85.5746 132.097 85.1814 132.145 84.7184 132.161C83.8595 132.195 83.1065 132.081 82.4595 131.818C81.8181 131.556 81.3189 131.149 80.9619 130.597C80.6049 130.045 80.4292 129.348 80.4348 128.505V116.056ZM94.4067 132.237C93.1071 132.237 91.9832 131.961 91.035 131.408C90.0924 130.851 89.3645 130.075 88.8514 129.083C88.3383 128.084 88.0817 126.927 88.0817 125.611C88.0817 124.283 88.3383 123.123 88.8514 122.13C89.3645 121.132 90.0924 120.356 91.035 119.804C91.9832 119.246 93.1071 118.968 94.4067 118.968C95.7063 118.968 96.8274 119.246 97.77 119.804C98.7182 120.356 99.4488 121.132 99.962 122.13C100.475 123.123 100.732 124.283 100.732 125.611C100.732 126.927 100.475 128.084 99.962 129.083C99.4488 130.075 98.7182 130.851 97.77 131.408C96.8274 131.961 95.7063 132.237 94.4067 132.237ZM94.4234 129.476C95.0147 129.476 95.5083 129.308 95.9043 128.974C96.3003 128.634 96.5987 128.171 96.7995 127.585C97.0059 126.999 97.109 126.333 97.109 125.585C97.109 124.838 97.0059 124.172 96.7995 123.586C96.5987 123 96.3003 122.537 95.9043 122.197C95.5083 121.857 95.0147 121.687 94.4234 121.687C93.8266 121.687 93.3246 121.857 92.9175 122.197C92.5159 122.537 92.2119 123 92.0055 123.586C91.8047 124.172 91.7044 124.838 91.7044 125.585C91.7044 126.333 91.8047 126.999 92.0055 127.585C92.2119 128.171 92.5159 128.634 92.9175 128.974C93.3246 129.308 93.8266 129.476 94.4234 129.476ZM103.049 131.986V119.135H106.505V121.377H106.638C106.873 120.58 107.266 119.977 107.818 119.57C108.37 119.157 109.006 118.951 109.726 118.951C109.904 118.951 110.096 118.962 110.303 118.984C110.509 119.007 110.69 119.037 110.847 119.076V122.239C110.679 122.189 110.448 122.144 110.152 122.105C109.857 122.066 109.586 122.046 109.341 122.046C108.816 122.046 108.348 122.161 107.935 122.389C107.528 122.613 107.204 122.925 106.965 123.326C106.73 123.728 106.613 124.191 106.613 124.715V131.986H103.049ZM115.281 136.805C114.829 136.805 114.405 136.769 114.009 136.696C113.619 136.629 113.295 136.543 113.039 136.437L113.842 133.776C114.26 133.904 114.637 133.974 114.971 133.985C115.312 133.996 115.604 133.918 115.85 133.751C116.101 133.584 116.304 133.299 116.461 132.898L116.67 132.354L112.06 119.135H115.808L118.468 128.572H118.602L121.288 119.135H125.061L120.066 133.375C119.827 134.066 119.5 134.669 119.088 135.182C118.68 135.7 118.164 136.099 117.54 136.378C116.915 136.663 116.162 136.805 115.281 136.805Z" fill="white"/>
<path d="M27.7685 149.289C27.7685 150.306 27.585 151.184 27.2179 151.925C26.8508 152.665 26.3472 153.236 25.7072 153.638C25.0672 154.039 24.3362 154.24 23.5142 154.24C22.6922 154.24 21.9612 154.039 21.3211 153.638C20.6811 153.236 20.1776 152.665 19.8105 151.925C19.4434 151.184 19.2599 150.306 19.2599 149.289C19.2599 148.273 19.4434 147.394 19.8105 146.654C20.1776 145.914 20.6811 145.343 21.3211 144.941C21.9612 144.539 22.6922 144.339 23.5142 144.339C24.3362 144.339 25.0672 144.539 25.7072 144.941C26.3472 145.343 26.8508 145.914 27.2179 146.654C27.585 147.394 27.7685 148.273 27.7685 149.289ZM26.639 149.289C26.639 148.455 26.4994 147.75 26.2202 147.176C25.9441 146.602 25.5692 146.168 25.0954 145.873C24.6248 145.578 24.0977 145.43 23.5142 145.43C22.9306 145.43 22.402 145.578 21.9282 145.873C21.4576 146.168 21.0827 146.602 20.8035 147.176C20.5274 147.75 20.3893 148.455 20.3893 149.289C20.3893 150.124 20.5274 150.828 20.8035 151.402C21.0827 151.977 21.4576 152.411 21.9282 152.706C22.402 153.001 22.9306 153.148 23.5142 153.148C24.0977 153.148 24.6248 153.001 25.0954 152.706C25.5692 152.411 25.9441 151.977 26.2202 151.402C26.4994 150.828 26.639 150.124 26.639 149.289ZM29.5803 156.819V146.88H30.6533V148.028H30.7851C30.8667 147.903 30.9796 147.743 31.1239 147.548C31.2714 147.35 31.4816 147.175 31.7546 147.021C32.0306 146.864 32.404 146.786 32.8746 146.786C33.4833 146.786 34.0198 146.938 34.4841 147.242C34.9484 147.547 35.3108 147.978 35.5712 148.536C35.8316 149.095 35.9618 149.754 35.9618 150.513C35.9618 151.278 35.8316 151.942 35.5712 152.504C35.3108 153.062 34.95 153.495 34.4888 153.803C34.0276 154.107 33.4958 154.259 32.8934 154.259C32.4291 154.259 32.0573 154.182 31.7781 154.028C31.4989 153.872 31.2839 153.694 31.1333 153.497C30.9828 153.296 30.8667 153.13 30.7851 152.998H30.691V156.819H29.5803ZM30.6721 150.494C30.6721 151.04 30.7522 151.522 30.9122 151.939C31.0722 152.353 31.3059 152.678 31.6134 152.913C31.9208 153.145 32.2973 153.261 32.7428 153.261C33.2072 153.261 33.5946 153.139 33.9052 152.894C34.219 152.646 34.4543 152.314 34.6112 151.897C34.7712 151.476 34.8512 151.009 34.8512 150.494C34.8512 149.986 34.7727 149.528 34.6159 149.12C34.4621 148.709 34.2284 148.384 33.9147 148.146C33.604 147.904 33.2134 147.783 32.7428 147.783C32.291 147.783 31.9114 147.898 31.604 148.127C31.2965 148.353 31.0643 148.67 30.9075 149.078C30.7506 149.482 30.6721 149.954 30.6721 150.494ZM40.6867 154.259C39.9902 154.259 39.3894 154.105 38.8843 153.798C38.3823 153.487 37.9948 153.054 37.7219 152.499C37.4521 151.94 37.3172 151.291 37.3172 150.551C37.3172 149.81 37.4521 149.158 37.7219 148.593C37.9948 148.025 38.3745 147.583 38.8608 147.266C39.3502 146.946 39.9212 146.786 40.5738 146.786C40.9503 146.786 41.3221 146.848 41.6891 146.974C42.0562 147.099 42.3903 147.303 42.6915 147.586C42.9927 147.865 43.2327 148.235 43.4116 148.696C43.5904 149.158 43.6798 149.725 43.6798 150.4V150.871H38.1078V149.911H42.5503C42.5503 149.503 42.4688 149.139 42.3056 148.819C42.1456 148.499 41.9166 148.246 41.6185 148.061C41.3236 147.876 40.9754 147.783 40.5738 147.783C40.1314 147.783 39.7486 147.893 39.4255 148.113C39.1055 148.329 38.8592 148.612 38.6866 148.96C38.5141 149.308 38.4278 149.682 38.4278 150.08V150.72C38.4278 151.266 38.5219 151.729 38.7102 152.108C38.9015 152.485 39.1667 152.772 39.5055 152.97C39.8443 153.164 40.2381 153.261 40.6867 153.261C40.9785 153.261 41.242 153.221 41.4774 153.139C41.7158 153.054 41.9213 152.929 42.0939 152.762C42.2664 152.593 42.3997 152.383 42.4939 152.132L43.5669 152.433C43.4539 152.797 43.2641 153.117 42.9974 153.393C42.7307 153.666 42.4013 153.879 42.0091 154.033C41.617 154.184 41.1762 154.259 40.6867 154.259ZM46.4799 149.76V154.108H45.3693V146.88H46.4423V148.009H46.5364C46.7058 147.642 46.9631 147.347 47.3082 147.125C47.6533 146.899 48.0988 146.786 48.6447 146.786C49.1342 146.786 49.5624 146.886 49.9295 147.087C50.2966 147.285 50.5821 147.586 50.786 147.99C50.9899 148.392 51.0919 148.9 51.0919 149.515V154.108H49.9813V149.591C49.9813 149.023 49.8338 148.58 49.5389 148.263C49.244 147.943 48.8393 147.783 48.3247 147.783C47.9702 147.783 47.6533 147.86 47.3741 148.014C47.098 148.168 46.88 148.392 46.7199 148.687C46.5599 148.982 46.4799 149.34 46.4799 149.76ZM59.8794 154.259C59.1829 154.259 58.5821 154.105 58.0769 153.798C57.575 153.487 57.1875 153.054 56.9145 152.499C56.6447 151.94 56.5098 151.291 56.5098 150.551C56.5098 149.81 56.6447 149.158 56.9145 148.593C57.1875 148.025 57.5671 147.583 58.0534 147.266C58.5428 146.946 59.1138 146.786 59.7664 146.786C60.1429 146.786 60.5147 146.848 60.8818 146.974C61.2488 147.099 61.583 147.303 61.8842 147.586C62.1854 147.865 62.4254 148.235 62.6042 148.696C62.783 149.158 62.8724 149.725 62.8724 150.4V150.871H57.3004V149.911H61.743C61.743 149.503 61.6614 149.139 61.4983 148.819C61.3383 148.499 61.1092 148.246 60.8112 148.061C60.5163 147.876 60.168 147.783 59.7664 147.783C59.3241 147.783 58.9413 147.893 58.6181 148.113C58.2981 148.329 58.0518 148.612 57.8793 148.96C57.7067 149.308 57.6204 149.682 57.6204 150.08V150.72C57.6204 151.266 57.7146 151.729 57.9028 152.108C58.0942 152.485 58.3593 152.772 58.6981 152.97C59.037 153.164 59.4307 153.261 59.8794 153.261C60.1711 153.261 60.4347 153.221 60.67 153.139C60.9084 153.054 61.1139 152.929 61.2865 152.762C61.4591 152.593 61.5924 152.383 61.6865 152.132L62.7595 152.433C62.6466 152.797 62.4567 153.117 62.1901 153.393C61.9234 153.666 61.594 153.879 61.2018 154.033C60.8096 154.184 60.3688 154.259 59.8794 154.259ZM65.1961 146.88L66.9279 149.835L68.6598 146.88H69.9398L67.6056 150.494L69.9398 154.108H68.6598L66.9279 151.304L65.1961 154.108H63.916L66.2126 150.494L63.916 146.88H65.1961ZM74.1636 154.259C73.4859 154.259 72.9023 154.099 72.4129 153.779C71.9235 153.459 71.547 153.018 71.2834 152.457C71.0199 151.895 70.8881 151.253 70.8881 150.532C70.8881 149.798 71.023 149.15 71.2928 148.588C71.5658 148.023 71.9454 147.583 72.4317 147.266C72.9211 146.946 73.4922 146.786 74.1447 146.786C74.653 146.786 75.1111 146.88 75.5189 147.068C75.9268 147.256 76.2609 147.52 76.5213 147.859C76.7817 148.198 76.9433 148.593 77.006 149.045H75.8954C75.8107 148.715 75.6224 148.423 75.3307 148.169C75.042 147.912 74.653 147.783 74.1636 147.783C73.7306 147.783 73.351 147.896 73.0247 148.122C72.7015 148.345 72.449 148.66 72.267 149.068C72.0882 149.473 71.9988 149.948 71.9988 150.494C71.9988 151.053 72.0866 151.539 72.2623 151.953C72.4411 152.367 72.6921 152.689 73.0153 152.918C73.3416 153.147 73.7243 153.261 74.1636 153.261C74.4522 153.261 74.7142 153.211 74.9495 153.111C75.1848 153.01 75.384 152.866 75.5471 152.678C75.7103 152.49 75.8264 152.264 75.8954 152H77.006C76.9433 152.427 76.788 152.811 76.5401 153.153C76.2954 153.492 75.9707 153.762 75.566 153.963C75.1644 154.16 74.6969 154.259 74.1636 154.259ZM79.7403 144.47V154.108H78.6296V144.47H79.7403ZM86.33 151.153V146.88H87.4406V154.108H86.33V152.885H86.2547C86.0853 153.252 85.8217 153.564 85.4641 153.821C85.1064 154.075 84.6546 154.203 84.1087 154.203C83.6569 154.203 83.2553 154.104 82.904 153.906C82.5526 153.705 82.2765 153.404 82.0757 153.002C81.8749 152.598 81.7745 152.088 81.7745 151.473V146.88H82.8851V151.398C82.8851 151.925 83.0326 152.345 83.3275 152.659C83.6256 152.973 84.0052 153.13 84.4664 153.13C84.7425 153.13 85.0233 153.059 85.3088 152.918C85.5974 152.777 85.839 152.56 86.0335 152.268C86.2312 151.977 86.33 151.605 86.33 151.153ZM94.5951 148.499L93.5974 148.781C93.5346 148.615 93.4421 148.453 93.3197 148.296C93.2005 148.136 93.0374 148.005 92.8303 147.901C92.6232 147.798 92.3581 147.746 92.035 147.746C91.5926 147.746 91.2239 147.848 90.929 148.052C90.6373 148.252 90.4914 148.508 90.4914 148.819C90.4914 149.095 90.5918 149.313 90.7926 149.473C90.9933 149.633 91.3071 149.766 91.7338 149.873L92.8068 150.136C93.4531 150.293 93.9347 150.533 94.2515 150.856C94.5684 151.176 94.7269 151.589 94.7269 152.094C94.7269 152.508 94.6076 152.879 94.3692 153.205C94.1339 153.531 93.8045 153.788 93.3809 153.977C92.9574 154.165 92.4648 154.259 91.9032 154.259C91.1659 154.259 90.5557 154.099 90.0725 153.779C89.5894 153.459 89.2835 152.991 89.1548 152.377L90.209 152.113C90.3094 152.502 90.4992 152.794 90.7784 152.988C91.0608 153.183 91.4294 153.28 91.8844 153.28C92.402 153.28 92.813 153.17 93.1174 152.951C93.4248 152.728 93.5786 152.461 93.5786 152.151C93.5786 151.9 93.4907 151.689 93.315 151.52C93.1393 151.347 92.8695 151.219 92.5056 151.134L91.3008 150.852C90.6388 150.695 90.1525 150.452 89.8419 150.122C89.5345 149.79 89.3807 149.374 89.3807 148.875C89.3807 148.467 89.4952 148.107 89.7243 147.793C89.9564 147.479 90.2717 147.233 90.6702 147.054C91.0718 146.875 91.5267 146.786 92.035 146.786C92.7503 146.786 93.3119 146.943 93.7197 147.256C94.1307 147.57 94.4225 147.984 94.5951 148.499ZM96.3987 154.108V146.88H97.5093V154.108H96.3987ZM96.9634 145.675C96.7469 145.675 96.5603 145.601 96.4034 145.454C96.2497 145.306 96.1728 145.129 96.1728 144.922C96.1728 144.715 96.2497 144.538 96.4034 144.39C96.5603 144.243 96.7469 144.169 96.9634 144.169C97.1799 144.169 97.365 144.243 97.5187 144.39C97.6756 144.538 97.754 144.715 97.754 144.922C97.754 145.129 97.6756 145.306 97.5187 145.454C97.365 145.601 97.1799 145.675 96.9634 145.675ZM105.454 146.88L102.781 154.108H101.652L98.9788 146.88H100.184L102.179 152.64H102.254L104.25 146.88H105.454ZM109.692 154.259C108.996 154.259 108.395 154.105 107.89 153.798C107.388 153.487 107 153.054 106.727 152.499C106.458 151.94 106.323 151.291 106.323 150.551C106.323 149.81 106.458 149.158 106.727 148.593C107 148.025 107.38 147.583 107.866 147.266C108.356 146.946 108.927 146.786 109.579 146.786C109.956 146.786 110.328 146.848 110.695 146.974C111.062 147.099 111.396 147.303 111.697 147.586C111.998 147.865 112.238 148.235 112.417 148.696C112.596 149.158 112.685 149.725 112.685 150.4V150.871H107.113V149.911H111.556C111.556 149.503 111.474 149.139 111.311 148.819C111.151 148.499 110.922 148.246 110.624 148.061C110.329 147.876 109.981 147.783 109.579 147.783C109.137 147.783 108.754 147.893 108.431 148.113C108.111 148.329 107.865 148.612 107.692 148.96C107.52 149.308 107.433 149.682 107.433 150.08V150.72C107.433 151.266 107.527 151.729 107.716 152.108C107.907 152.485 108.172 152.772 108.511 152.97C108.85 153.164 109.244 153.261 109.692 153.261C109.984 153.261 110.248 153.221 110.483 153.139C110.721 153.054 110.927 152.929 111.099 152.762C111.272 152.593 111.405 152.383 111.499 152.132L112.572 152.433C112.459 152.797 112.27 153.117 112.003 153.393C111.736 153.666 111.407 153.879 111.015 154.033C110.622 154.184 110.182 154.259 109.692 154.259ZM118.102 156.819V146.88H119.175V148.028H119.307C119.388 147.903 119.501 147.743 119.646 147.548C119.793 147.35 120.003 147.175 120.276 147.021C120.552 146.864 120.926 146.786 121.396 146.786C122.005 146.786 122.541 146.938 123.006 147.242C123.47 147.547 123.832 147.978 124.093 148.536C124.353 149.095 124.484 149.754 124.484 150.513C124.484 151.278 124.353 151.942 124.093 152.504C123.832 153.062 123.472 153.495 123.01 153.803C122.549 154.107 122.018 154.259 121.415 154.259C120.951 154.259 120.579 154.182 120.3 154.028C120.021 153.872 119.806 153.694 119.655 153.497C119.504 153.296 119.388 153.13 119.307 152.998H119.213V156.819H118.102ZM119.194 150.494C119.194 151.04 119.274 151.522 119.434 151.939C119.594 152.353 119.828 152.678 120.135 152.913C120.443 153.145 120.819 153.261 121.265 153.261C121.729 153.261 122.116 153.139 122.427 152.894C122.741 152.646 122.976 152.314 123.133 151.897C123.293 151.476 123.373 151.009 123.373 150.494C123.373 149.986 123.294 149.528 123.138 149.12C122.984 148.709 122.75 148.384 122.436 148.146C122.126 147.904 121.735 147.783 121.265 147.783C120.813 147.783 120.433 147.898 120.126 148.127C119.818 148.353 119.586 148.67 119.429 149.078C119.272 149.482 119.194 149.954 119.194 150.494ZM128.305 154.278C127.847 154.278 127.431 154.192 127.058 154.019C126.684 153.843 126.388 153.591 126.168 153.261C125.949 152.929 125.839 152.527 125.839 152.057C125.839 151.642 125.92 151.307 126.084 151.049C126.247 150.789 126.465 150.585 126.738 150.438C127.011 150.29 127.312 150.18 127.641 150.108C127.974 150.033 128.308 149.973 128.644 149.929C129.083 149.873 129.439 149.831 129.712 149.802C129.988 149.771 130.189 149.719 130.314 149.647C130.443 149.575 130.507 149.449 130.507 149.271V149.233C130.507 148.769 130.38 148.408 130.126 148.15C129.875 147.893 129.494 147.765 128.983 147.765C128.452 147.765 128.037 147.881 127.735 148.113C127.434 148.345 127.222 148.593 127.1 148.856L126.046 148.48C126.234 148.041 126.485 147.699 126.799 147.454C127.116 147.206 127.461 147.034 127.834 146.936C128.211 146.836 128.581 146.786 128.945 146.786C129.177 146.786 129.444 146.814 129.745 146.87C130.049 146.924 130.343 147.035 130.625 147.205C130.91 147.374 131.147 147.63 131.336 147.972C131.524 148.314 131.618 148.772 131.618 149.346V154.108H130.507V153.13H130.451C130.376 153.286 130.25 153.454 130.074 153.633C129.899 153.812 129.665 153.964 129.373 154.09C129.081 154.215 128.725 154.278 128.305 154.278ZM128.474 153.28C128.914 153.28 129.284 153.194 129.585 153.021C129.889 152.849 130.118 152.626 130.272 152.353C130.429 152.08 130.507 151.793 130.507 151.492V150.475C130.46 150.532 130.357 150.584 130.197 150.631C130.04 150.675 129.858 150.714 129.651 150.748C129.447 150.78 129.248 150.808 129.053 150.833C128.862 150.855 128.706 150.874 128.587 150.889C128.299 150.927 128.029 150.988 127.778 151.073C127.53 151.155 127.329 151.278 127.175 151.445C127.025 151.608 126.95 151.831 126.95 152.113C126.95 152.499 127.092 152.791 127.378 152.988C127.666 153.183 128.032 153.28 128.474 153.28ZM136.582 154.259C135.904 154.259 135.32 154.099 134.831 153.779C134.342 153.459 133.965 153.018 133.702 152.457C133.438 151.895 133.306 151.253 133.306 150.532C133.306 149.798 133.441 149.15 133.711 148.588C133.984 148.023 134.364 147.583 134.85 147.266C135.339 146.946 135.91 146.786 136.563 146.786C137.071 146.786 137.529 146.88 137.937 147.068C138.345 147.256 138.679 147.52 138.939 147.859C139.2 148.198 139.361 148.593 139.424 149.045H138.314C138.229 148.715 138.041 148.423 137.749 148.169C137.46 147.912 137.071 147.783 136.582 147.783C136.149 147.783 135.769 147.896 135.443 148.122C135.12 148.345 134.867 148.66 134.685 149.068C134.506 149.473 134.417 149.948 134.417 150.494C134.417 151.053 134.505 151.539 134.68 151.953C134.859 152.367 135.11 152.689 135.433 152.918C135.76 153.147 136.142 153.261 136.582 153.261C136.87 153.261 137.132 153.211 137.368 153.111C137.603 153.01 137.802 152.866 137.965 152.678C138.128 152.49 138.245 152.264 138.314 152H139.424C139.361 152.427 139.206 152.811 138.958 153.153C138.714 153.492 138.389 153.762 137.984 153.963C137.583 154.16 137.115 154.259 136.582 154.259ZM142.083 151.473L142.064 150.099H142.29L145.453 146.88H146.827L143.457 150.287H143.363L142.083 151.473ZM141.048 154.108V144.47H142.158V154.108H141.048ZM145.641 154.108L142.817 150.532L143.608 149.76L147.053 154.108H145.641ZM153.377 148.499L152.379 148.781C152.316 148.615 152.224 148.453 152.101 148.296C151.982 148.136 151.819 148.005 151.612 147.901C151.405 147.798 151.14 147.746 150.816 147.746C150.374 147.746 150.005 147.848 149.711 148.052C149.419 148.252 149.273 148.508 149.273 148.819C149.273 149.095 149.373 149.313 149.574 149.473C149.775 149.633 150.089 149.766 150.515 149.873L151.588 150.136C152.235 150.293 152.716 150.533 153.033 150.856C153.35 151.176 153.508 151.589 153.508 152.094C153.508 152.508 153.389 152.879 153.151 153.205C152.915 153.531 152.586 153.788 152.162 153.977C151.739 154.165 151.246 154.259 150.685 154.259C149.947 154.259 149.337 154.099 148.854 153.779C148.371 153.459 148.065 152.991 147.936 152.377L148.991 152.113C149.091 152.502 149.281 152.794 149.56 152.988C149.842 153.183 150.211 153.28 150.666 153.28C151.184 153.28 151.595 153.17 151.899 152.951C152.206 152.728 152.36 152.461 152.36 152.151C152.36 151.9 152.272 151.689 152.097 151.52C151.921 151.347 151.651 151.219 151.287 151.134L150.082 150.852C149.42 150.695 148.934 150.452 148.623 150.122C148.316 149.79 148.162 149.374 148.162 148.875C148.162 148.467 148.277 148.107 148.506 147.793C148.738 147.479 149.053 147.233 149.452 147.054C149.853 146.875 150.308 146.786 150.816 146.786C151.532 146.786 152.093 146.943 152.501 147.256C152.912 147.57 153.204 147.984 153.377 148.499ZM162.051 146.88V147.821H158.305V146.88H162.051ZM159.397 145.148H160.508V152.038C160.508 152.351 160.553 152.587 160.644 152.744C160.738 152.897 160.857 153.001 161.002 153.054C161.149 153.104 161.304 153.13 161.468 153.13C161.59 153.13 161.69 153.123 161.769 153.111C161.847 153.095 161.91 153.082 161.957 153.073L162.183 154.071C162.108 154.099 162.002 154.127 161.868 154.155C161.733 154.187 161.562 154.203 161.355 154.203C161.041 154.203 160.733 154.135 160.432 154C160.134 153.865 159.886 153.66 159.689 153.384C159.494 153.108 159.397 152.759 159.397 152.339V145.148ZM166.581 154.259C165.928 154.259 165.356 154.104 164.863 153.793C164.374 153.482 163.991 153.048 163.715 152.49C163.442 151.931 163.305 151.278 163.305 150.532C163.305 149.779 163.442 149.122 163.715 148.56C163.991 147.998 164.374 147.562 164.863 147.252C165.356 146.941 165.928 146.786 166.581 146.786C167.233 146.786 167.804 146.941 168.294 147.252C168.786 147.562 169.169 147.998 169.442 148.56C169.718 149.122 169.856 149.779 169.856 150.532C169.856 151.278 169.718 151.931 169.442 152.49C169.169 153.048 168.786 153.482 168.294 153.793C167.804 154.104 167.233 154.259 166.581 154.259ZM166.581 153.261C167.076 153.261 167.484 153.134 167.804 152.88C168.124 152.626 168.361 152.292 168.515 151.878C168.669 151.464 168.746 151.015 168.746 150.532C168.746 150.049 168.669 149.598 168.515 149.181C168.361 148.764 168.124 148.427 167.804 148.169C167.484 147.912 167.076 147.783 166.581 147.783C166.085 147.783 165.677 147.912 165.357 148.169C165.037 148.427 164.8 148.764 164.647 149.181C164.493 149.598 164.416 150.049 164.416 150.532C164.416 151.015 164.493 151.464 164.647 151.878C164.8 152.292 165.037 152.626 165.357 152.88C165.677 153.134 166.085 153.261 166.581 153.261ZM179.834 151.153V146.88H180.945V154.108H179.834V152.885H179.759C179.59 153.252 179.326 153.564 178.968 153.821C178.611 154.075 178.159 154.203 177.613 154.203C177.161 154.203 176.76 154.104 176.408 153.906C176.057 153.705 175.781 153.404 175.58 153.002C175.379 152.598 175.279 152.088 175.279 151.473V146.88H176.389V151.398C176.389 151.925 176.537 152.345 176.832 152.659C177.13 152.973 177.509 153.13 177.971 153.13C178.247 153.13 178.528 153.059 178.813 152.918C179.102 152.777 179.343 152.56 179.538 152.268C179.735 151.977 179.834 151.605 179.834 151.153ZM184.09 149.76V154.108H182.979V146.88H184.052V148.009H184.146C184.316 147.642 184.573 147.347 184.918 147.125C185.263 146.899 185.709 146.786 186.255 146.786C186.744 146.786 187.172 146.886 187.539 147.087C187.906 147.285 188.192 147.586 188.396 147.99C188.6 148.392 188.702 148.9 188.702 149.515V154.108H187.591V149.591C187.591 149.023 187.444 148.58 187.149 148.263C186.854 147.943 186.449 147.783 185.935 147.783C185.58 147.783 185.263 147.86 184.984 148.014C184.708 148.168 184.49 148.392 184.33 148.687C184.17 148.982 184.09 149.34 184.09 149.76ZM191.842 144.47V154.108H190.731V144.47H191.842ZM196.813 154.259C196.16 154.259 195.588 154.104 195.095 153.793C194.606 153.482 194.223 153.048 193.947 152.49C193.674 151.931 193.537 151.278 193.537 150.532C193.537 149.779 193.674 149.122 193.947 148.56C194.223 147.998 194.606 147.562 195.095 147.252C195.588 146.941 196.16 146.786 196.813 146.786C197.465 146.786 198.036 146.941 198.526 147.252C199.018 147.562 199.401 147.998 199.674 148.56C199.95 149.122 200.088 149.779 200.088 150.532C200.088 151.278 199.95 151.931 199.674 152.49C199.401 153.048 199.018 153.482 198.526 153.793C198.036 154.104 197.465 154.259 196.813 154.259ZM196.813 153.261C197.308 153.261 197.716 153.134 198.036 152.88C198.356 152.626 198.593 152.292 198.747 151.878C198.901 151.464 198.978 151.015 198.978 150.532C198.978 150.049 198.901 149.598 198.747 149.181C198.593 148.764 198.356 148.427 198.036 148.169C197.716 147.912 197.308 147.783 196.813 147.783C196.317 147.783 195.909 147.912 195.589 148.169C195.269 148.427 195.032 148.764 194.879 149.181C194.725 149.598 194.648 150.049 194.648 150.532C194.648 151.015 194.725 151.464 194.879 151.878C195.032 152.292 195.269 152.626 195.589 152.88C195.909 153.134 196.317 153.261 196.813 153.261ZM204.72 154.259C204.042 154.259 203.459 154.099 202.969 153.779C202.48 153.459 202.104 153.018 201.84 152.457C201.576 151.895 201.445 151.253 201.445 150.532C201.445 149.798 201.58 149.15 201.849 148.588C202.122 148.023 202.502 147.583 202.988 147.266C203.478 146.946 204.049 146.786 204.701 146.786C205.21 146.786 205.668 146.88 206.075 147.068C206.483 147.256 206.817 147.52 207.078 147.859C207.338 148.198 207.5 148.593 207.563 149.045H206.452C206.367 148.715 206.179 148.423 205.887 148.169C205.599 147.912 205.21 147.783 204.72 147.783C204.287 147.783 203.908 147.896 203.581 148.122C203.258 148.345 203.006 148.66 202.824 149.068C202.645 149.473 202.555 149.948 202.555 150.494C202.555 151.053 202.643 151.539 202.819 151.953C202.998 152.367 203.249 152.689 203.572 152.918C203.898 153.147 204.281 153.261 204.72 153.261C205.009 153.261 205.271 153.211 205.506 153.111C205.741 153.01 205.941 152.866 206.104 152.678C206.267 152.49 206.383 152.264 206.452 152H207.563C207.5 152.427 207.345 152.811 207.097 153.153C206.852 153.492 206.527 153.762 206.123 153.963C205.721 154.16 205.253 154.259 204.72 154.259ZM210.222 151.473L210.203 150.099H210.429L213.591 146.88H214.965L211.596 150.287H211.502L210.222 151.473ZM209.186 154.108V144.47H210.297V154.108H209.186ZM213.779 154.108L210.956 150.532L211.746 149.76L215.191 154.108H213.779ZM221.233 144.47V154.108H220.122V144.47H221.233ZM226.298 154.259C225.601 154.259 225 154.105 224.495 153.798C223.993 153.487 223.606 153.054 223.333 152.499C223.063 151.94 222.928 151.291 222.928 150.551C222.928 149.81 223.063 149.158 223.333 148.593C223.606 148.025 223.985 147.583 224.472 147.266C224.961 146.946 225.532 146.786 226.185 146.786C226.561 146.786 226.933 146.848 227.3 146.974C227.667 147.099 228.001 147.303 228.302 147.586C228.604 147.865 228.844 148.235 229.022 148.696C229.201 149.158 229.291 149.725 229.291 150.4V150.871H223.719V149.911H228.161C228.161 149.503 228.08 149.139 227.916 148.819C227.756 148.499 227.527 148.246 227.229 148.061C226.934 147.876 226.586 147.783 226.185 147.783C225.742 147.783 225.359 147.893 225.036 148.113C224.716 148.329 224.47 148.612 224.297 148.96C224.125 149.308 224.039 149.682 224.039 150.08V150.72C224.039 151.266 224.133 151.729 224.321 152.108C224.512 152.485 224.778 152.772 225.116 152.97C225.455 153.164 225.849 153.261 226.298 153.261C226.589 153.261 226.853 153.221 227.088 153.139C227.327 153.054 227.532 152.929 227.705 152.762C227.877 152.593 228.011 152.383 228.105 152.132L229.178 152.433C229.065 152.797 228.875 153.117 228.608 153.393C228.342 153.666 228.012 153.879 227.62 154.033C227.228 154.184 226.787 154.259 226.298 154.259ZM233.898 156.97C233.361 156.97 232.9 156.901 232.514 156.763C232.128 156.628 231.807 156.449 231.55 156.226C231.295 156.007 231.093 155.771 230.943 155.52L231.827 154.899C231.928 155.031 232.055 155.181 232.208 155.351C232.362 155.523 232.572 155.672 232.839 155.798C233.109 155.927 233.462 155.991 233.898 155.991C234.481 155.991 234.963 155.85 235.343 155.567C235.722 155.285 235.912 154.843 235.912 154.24V152.772H235.818C235.736 152.904 235.62 153.067 235.47 153.261C235.322 153.453 235.109 153.624 234.83 153.774C234.554 153.922 234.18 153.995 233.71 153.995C233.126 153.995 232.602 153.857 232.138 153.581C231.677 153.305 231.311 152.904 231.041 152.377C230.775 151.849 230.641 151.209 230.641 150.456C230.641 149.716 230.772 149.071 231.032 148.522C231.292 147.97 231.655 147.543 232.119 147.242C232.583 146.938 233.12 146.786 233.729 146.786C234.199 146.786 234.572 146.864 234.849 147.021C235.128 147.175 235.341 147.35 235.489 147.548C235.639 147.743 235.755 147.903 235.837 148.028H235.95V146.88H237.023V154.315C237.023 154.937 236.882 155.442 236.599 155.831C236.32 156.223 235.944 156.51 235.47 156.692C234.999 156.877 234.475 156.97 233.898 156.97ZM233.86 152.998C234.306 152.998 234.682 152.896 234.99 152.692C235.297 152.488 235.531 152.195 235.691 151.812C235.851 151.429 235.931 150.971 235.931 150.438C235.931 149.917 235.853 149.457 235.696 149.059C235.539 148.66 235.307 148.348 234.999 148.122C234.692 147.896 234.312 147.783 233.86 147.783C233.39 147.783 232.998 147.903 232.684 148.141C232.373 148.38 232.139 148.7 231.983 149.101C231.829 149.503 231.752 149.948 231.752 150.438C231.752 150.94 231.83 151.384 231.987 151.769C232.147 152.152 232.383 152.453 232.693 152.673C233.007 152.89 233.396 152.998 233.86 152.998ZM242.087 154.259C241.39 154.259 240.789 154.105 240.284 153.798C239.782 153.487 239.395 153.054 239.122 152.499C238.852 151.94 238.717 151.291 238.717 150.551C238.717 149.81 238.852 149.158 239.122 148.593C239.395 148.025 239.774 147.583 240.261 147.266C240.75 146.946 241.321 146.786 241.974 146.786C242.35 146.786 242.722 146.848 243.089 146.974C243.456 147.099 243.79 147.303 244.091 147.586C244.393 147.865 244.633 148.235 244.811 148.696C244.99 149.158 245.08 149.725 245.08 150.4V150.871H239.508V149.911H243.95C243.95 149.503 243.869 149.139 243.705 148.819C243.545 148.499 243.316 148.246 243.018 148.061C242.723 147.876 242.375 147.783 241.974 147.783C241.531 147.783 241.148 147.893 240.825 148.113C240.505 148.329 240.259 148.612 240.086 148.96C239.914 149.308 239.828 149.682 239.828 150.08V150.72C239.828 151.266 239.922 151.729 240.11 152.108C240.301 152.485 240.566 152.772 240.905 152.97C241.244 153.164 241.638 153.261 242.087 153.261C242.378 153.261 242.642 153.221 242.877 153.139C243.116 153.054 243.321 152.929 243.494 152.762C243.666 152.593 243.8 152.383 243.894 152.132L244.967 152.433C244.854 152.797 244.664 153.117 244.397 153.393C244.131 153.666 243.801 153.879 243.409 154.033C243.017 154.184 242.576 154.259 242.087 154.259ZM247.88 149.76V154.108H246.769V146.88H247.842V148.009H247.936C248.106 147.642 248.363 147.347 248.708 147.125C249.053 146.899 249.499 146.786 250.045 146.786C250.534 146.786 250.962 146.886 251.329 147.087C251.696 147.285 251.982 147.586 252.186 147.99C252.39 148.392 252.492 148.9 252.492 149.515V154.108H251.381V149.591C251.381 149.023 251.234 148.58 250.939 148.263C250.644 147.943 250.239 147.783 249.725 147.783C249.37 147.783 249.053 147.86 248.774 148.014C248.498 148.168 248.28 148.392 248.12 148.687C247.96 148.982 247.88 149.34 247.88 149.76ZM257.251 154.259C256.648 154.259 256.117 154.107 255.655 153.803C255.194 153.495 254.833 153.062 254.573 152.504C254.313 151.942 254.182 151.278 254.182 150.513C254.182 149.754 254.313 149.095 254.573 148.536C254.833 147.978 255.196 147.547 255.66 147.242C256.124 146.938 256.661 146.786 257.27 146.786C257.74 146.786 258.112 146.864 258.385 147.021C258.661 147.175 258.871 147.35 259.016 147.548C259.163 147.743 259.278 147.903 259.359 148.028H259.453V144.47H260.564V154.108H259.491V152.998H259.359C259.278 153.13 259.161 153.296 259.011 153.497C258.86 153.694 258.645 153.872 258.366 154.028C258.087 154.182 257.715 154.259 257.251 154.259ZM257.401 153.261C257.847 153.261 258.223 153.145 258.531 152.913C258.838 152.678 259.072 152.353 259.232 151.939C259.392 151.522 259.472 151.04 259.472 150.494C259.472 149.954 259.394 149.482 259.237 149.078C259.08 148.67 258.848 148.353 258.54 148.127C258.233 147.898 257.853 147.783 257.401 147.783C256.931 147.783 256.539 147.904 256.225 148.146C255.914 148.384 255.681 148.709 255.524 149.12C255.37 149.528 255.293 149.986 255.293 150.494C255.293 151.009 255.371 151.476 255.528 151.897C255.688 152.314 255.924 152.646 256.234 152.894C256.548 153.139 256.937 153.261 257.401 153.261ZM264.879 154.278C264.421 154.278 264.006 154.192 263.632 154.019C263.259 153.843 262.962 153.591 262.743 153.261C262.523 152.929 262.413 152.527 262.413 152.057C262.413 151.642 262.495 151.307 262.658 151.049C262.821 150.789 263.039 150.585 263.312 150.438C263.585 150.29 263.886 150.18 264.216 150.108C264.548 150.033 264.882 149.973 265.218 149.929C265.657 149.873 266.014 149.831 266.286 149.802C266.563 149.771 266.763 149.719 266.889 149.647C267.017 149.575 267.082 149.449 267.082 149.271V149.233C267.082 148.769 266.955 148.408 266.701 148.15C266.45 147.893 266.068 147.765 265.557 147.765C265.027 147.765 264.611 147.881 264.31 148.113C264.009 148.345 263.797 148.593 263.675 148.856L262.62 148.48C262.809 148.041 263.06 147.699 263.373 147.454C263.69 147.206 264.035 147.034 264.409 146.936C264.785 146.836 265.155 146.786 265.519 146.786C265.752 146.786 266.018 146.814 266.319 146.87C266.624 146.924 266.917 147.035 267.199 147.205C267.485 147.374 267.722 147.63 267.91 147.972C268.098 148.314 268.192 148.772 268.192 149.346V154.108H267.082V153.13H267.025C266.95 153.286 266.825 153.454 266.649 153.633C266.473 153.812 266.239 153.964 265.948 154.09C265.656 154.215 265.3 154.278 264.879 154.278ZM265.049 153.28C265.488 153.28 265.858 153.194 266.159 153.021C266.464 152.849 266.693 152.626 266.846 152.353C267.003 152.08 267.082 151.793 267.082 151.492V150.475C267.035 150.532 266.931 150.584 266.771 150.631C266.614 150.675 266.432 150.714 266.225 150.748C266.021 150.78 265.822 150.808 265.628 150.833C265.436 150.855 265.281 150.874 265.162 150.889C264.873 150.927 264.603 150.988 264.352 151.073C264.104 151.155 263.904 151.278 263.75 151.445C263.599 151.608 263.524 151.831 263.524 152.113C263.524 152.499 263.667 152.791 263.952 152.988C264.241 153.183 264.606 153.28 265.049 153.28ZM270.22 154.108V146.88H271.293V147.972H271.368C271.5 147.614 271.738 147.324 272.083 147.101C272.428 146.878 272.817 146.767 273.25 146.767C273.332 146.767 273.434 146.768 273.556 146.772C273.679 146.775 273.771 146.779 273.834 146.786V147.915C273.796 147.906 273.71 147.892 273.575 147.873C273.443 147.851 273.304 147.84 273.156 147.84C272.805 147.84 272.491 147.914 272.215 148.061C271.942 148.205 271.726 148.406 271.566 148.663C271.409 148.918 271.33 149.208 271.33 149.534V154.108H270.22ZM276.086 156.819C275.897 156.819 275.73 156.803 275.582 156.772C275.435 156.744 275.333 156.716 275.276 156.687L275.559 155.708C275.828 155.777 276.067 155.803 276.274 155.784C276.481 155.765 276.665 155.672 276.825 155.506C276.988 155.343 277.137 155.078 277.272 154.711L277.479 154.146L274.806 146.88H276.01L278.006 152.64H278.081L280.077 146.88H281.281L278.213 155.163C278.075 155.536 277.904 155.845 277.7 156.09C277.496 156.338 277.259 156.521 276.989 156.64C276.723 156.76 276.421 156.819 276.086 156.819ZM289.411 154.259C288.733 154.259 288.15 154.099 287.66 153.779C287.171 153.459 286.794 153.018 286.531 152.457C286.267 151.895 286.136 151.253 286.136 150.532C286.136 149.798 286.271 149.15 286.54 148.588C286.813 148.023 287.193 147.583 287.679 147.266C288.169 146.946 288.74 146.786 289.392 146.786C289.901 146.786 290.359 146.88 290.766 147.068C291.174 147.256 291.508 147.52 291.769 147.859C292.029 148.198 292.191 148.593 292.254 149.045H291.143C291.058 148.715 290.87 148.423 290.578 148.169C290.29 147.912 289.901 147.783 289.411 147.783C288.978 147.783 288.598 147.896 288.272 148.122C287.949 148.345 287.696 148.66 287.515 149.068C287.336 149.473 287.246 149.948 287.246 150.494C287.246 151.053 287.334 151.539 287.51 151.953C287.689 152.367 287.94 152.689 288.263 152.918C288.589 153.147 288.972 153.261 289.411 153.261C289.7 153.261 289.962 153.211 290.197 153.111C290.432 153.01 290.632 152.866 290.795 152.678C290.958 152.49 291.074 152.264 291.143 152H292.254C292.191 152.427 292.036 152.811 291.788 153.153C291.543 153.492 291.218 153.762 290.813 153.963C290.412 154.16 289.944 154.259 289.411 154.259ZM296.004 154.278C295.546 154.278 295.131 154.192 294.757 154.019C294.384 153.843 294.087 153.591 293.868 153.261C293.648 152.929 293.538 152.527 293.538 152.057C293.538 151.642 293.62 151.307 293.783 151.049C293.946 150.789 294.164 150.585 294.437 150.438C294.71 150.29 295.011 150.18 295.341 150.108C295.673 150.033 296.007 149.973 296.343 149.929C296.782 149.873 297.138 149.831 297.411 149.802C297.688 149.771 297.888 149.719 298.014 149.647C298.142 149.575 298.207 149.449 298.207 149.271V149.233C298.207 148.769 298.08 148.408 297.826 148.15C297.575 147.893 297.193 147.765 296.682 147.765C296.152 147.765 295.736 147.881 295.435 148.113C295.134 148.345 294.922 148.593 294.8 148.856L293.745 148.48C293.934 148.041 294.185 147.699 294.498 147.454C294.815 147.206 295.16 147.034 295.534 146.936C295.91 146.836 296.28 146.786 296.644 146.786C296.876 146.786 297.143 146.814 297.444 146.87C297.749 146.924 298.042 147.035 298.324 147.205C298.61 147.374 298.847 147.63 299.035 147.972C299.223 148.314 299.317 148.772 299.317 149.346V154.108H298.207V153.13H298.15C298.075 153.286 297.949 153.454 297.774 153.633C297.598 153.812 297.364 153.964 297.073 154.09C296.781 154.215 296.425 154.278 296.004 154.278ZM296.174 153.28C296.613 153.28 296.983 153.194 297.284 153.021C297.589 152.849 297.818 152.626 297.971 152.353C298.128 152.08 298.207 151.793 298.207 151.492V150.475C298.16 150.532 298.056 150.584 297.896 150.631C297.739 150.675 297.557 150.714 297.35 150.748C297.146 150.78 296.947 150.808 296.753 150.833C296.561 150.855 296.406 150.874 296.287 150.889C295.998 150.927 295.728 150.988 295.477 151.073C295.229 151.155 295.029 151.278 294.875 151.445C294.724 151.608 294.649 151.831 294.649 152.113C294.649 152.499 294.792 152.791 295.077 152.988C295.366 153.183 295.731 153.28 296.174 153.28ZM301.345 154.108V146.88H302.418V147.972H302.493C302.625 147.614 302.863 147.324 303.208 147.101C303.553 146.878 303.942 146.767 304.375 146.767C304.457 146.767 304.559 146.768 304.681 146.772C304.804 146.775 304.896 146.779 304.959 146.786V147.915C304.921 147.906 304.835 147.892 304.7 147.873C304.568 147.851 304.429 147.84 304.281 147.84C303.93 147.84 303.616 147.914 303.34 148.061C303.067 148.205 302.851 148.406 302.69 148.663C302.534 148.918 302.455 149.208 302.455 149.534V154.108H301.345ZM308.785 154.259C308.183 154.259 307.651 154.107 307.19 153.803C306.728 153.495 306.368 153.062 306.107 152.504C305.847 151.942 305.717 151.278 305.717 150.513C305.717 149.754 305.847 149.095 306.107 148.536C306.368 147.978 306.73 147.547 307.194 147.242C307.659 146.938 308.195 146.786 308.804 146.786C309.274 146.786 309.646 146.864 309.919 147.021C310.195 147.175 310.405 147.35 310.55 147.548C310.697 147.743 310.812 147.903 310.893 148.028H310.987V144.47H312.098V154.108H311.025V152.998H310.893C310.812 153.13 310.696 153.296 310.545 153.497C310.394 153.694 310.179 153.872 309.9 154.028C309.621 154.182 309.249 154.259 308.785 154.259ZM308.935 153.261C309.381 153.261 309.757 153.145 310.065 152.913C310.372 152.678 310.606 152.353 310.766 151.939C310.926 151.522 311.006 151.04 311.006 150.494C311.006 149.954 310.928 149.482 310.771 149.078C310.614 148.67 310.382 148.353 310.074 148.127C309.767 147.898 309.387 147.783 308.935 147.783C308.465 147.783 308.073 147.904 307.759 148.146C307.448 148.384 307.215 148.709 307.058 149.12C306.904 149.528 306.827 149.986 306.827 150.494C306.827 151.009 306.906 151.476 307.062 151.897C307.222 152.314 307.458 152.646 307.768 152.894C308.082 153.139 308.471 153.261 308.935 153.261ZM319.407 148.499L318.409 148.781C318.346 148.615 318.254 148.453 318.131 148.296C318.012 148.136 317.849 148.005 317.642 147.901C317.435 147.798 317.17 147.746 316.846 147.746C316.404 147.746 316.035 147.848 315.741 148.052C315.449 148.252 315.303 148.508 315.303 148.819C315.303 149.095 315.403 149.313 315.604 149.473C315.805 149.633 316.119 149.766 316.545 149.873L317.618 150.136C318.265 150.293 318.746 150.533 319.063 150.856C319.38 151.176 319.538 151.589 319.538 152.094C319.538 152.508 319.419 152.879 319.181 153.205C318.945 153.531 318.616 153.788 318.192 153.977C317.769 154.165 317.276 154.259 316.715 154.259C315.977 154.259 315.367 154.099 314.884 153.779C314.401 153.459 314.095 152.991 313.966 152.377L315.02 152.113C315.121 152.502 315.311 152.794 315.59 152.988C315.872 153.183 316.241 153.28 316.696 153.28C317.214 153.28 317.625 153.17 317.929 152.951C318.236 152.728 318.39 152.461 318.39 152.151C318.39 151.9 318.302 151.689 318.126 151.52C317.951 151.347 317.681 151.219 317.317 151.134L316.112 150.852C315.45 150.695 314.964 150.452 314.653 150.122C314.346 149.79 314.192 149.374 314.192 148.875C314.192 148.467 314.307 148.107 314.536 147.793C314.768 147.479 315.083 147.233 315.482 147.054C315.883 146.875 316.338 146.786 316.846 146.786C317.562 146.786 318.123 146.943 318.531 147.256C318.942 147.57 319.234 147.984 319.407 148.499ZM327.065 154.278C326.606 154.278 326.191 154.192 325.817 154.019C325.444 153.843 325.148 153.591 324.928 153.261C324.708 152.929 324.599 152.527 324.599 152.057C324.599 151.642 324.68 151.307 324.843 151.049C325.006 150.789 325.224 150.585 325.497 150.438C325.77 150.29 326.072 150.18 326.401 150.108C326.734 150.033 327.068 149.973 327.403 149.929C327.843 149.873 328.199 149.831 328.472 149.802C328.748 149.771 328.949 149.719 329.074 149.647C329.203 149.575 329.267 149.449 329.267 149.271V149.233C329.267 148.769 329.14 148.408 328.886 148.15C328.635 147.893 328.254 147.765 327.742 147.765C327.212 147.765 326.796 147.881 326.495 148.113C326.194 148.345 325.982 148.593 325.86 148.856L324.806 148.48C324.994 148.041 325.245 147.699 325.559 147.454C325.875 147.206 326.221 147.034 326.594 146.936C326.97 146.836 327.341 146.786 327.705 146.786C327.937 146.786 328.203 146.814 328.505 146.87C328.809 146.924 329.102 147.035 329.385 147.205C329.67 147.374 329.907 147.63 330.095 147.972C330.284 148.314 330.378 148.772 330.378 149.346V154.108H329.267V153.13H329.211C329.135 153.286 329.01 153.454 328.834 153.633C328.658 153.812 328.425 153.964 328.133 154.09C327.841 154.215 327.485 154.278 327.065 154.278ZM327.234 153.28C327.673 153.28 328.043 153.194 328.345 153.021C328.649 152.849 328.878 152.626 329.032 152.353C329.189 152.08 329.267 151.793 329.267 151.492V150.475C329.22 150.532 329.116 150.584 328.956 150.631C328.8 150.675 328.618 150.714 328.41 150.748C328.207 150.78 328.007 150.808 327.813 150.833C327.621 150.855 327.466 150.874 327.347 150.889C327.058 150.927 326.788 150.988 326.537 151.073C326.29 151.155 326.089 151.278 325.935 151.445C325.784 151.608 325.709 151.831 325.709 152.113C325.709 152.499 325.852 152.791 326.137 152.988C326.426 153.183 326.792 153.28 327.234 153.28ZM333.515 149.76V154.108H332.405V146.88H333.478V148.009H333.572C333.741 147.642 333.999 147.347 334.344 147.125C334.689 146.899 335.134 146.786 335.68 146.786C336.17 146.786 336.598 146.886 336.965 147.087C337.332 147.285 337.618 147.586 337.822 147.99C338.025 148.392 338.127 148.9 338.127 149.515V154.108H337.017V149.591C337.017 149.023 336.869 148.58 336.574 148.263C336.279 147.943 335.875 147.783 335.36 147.783C335.006 147.783 334.689 147.86 334.41 148.014C334.133 148.168 333.915 148.392 333.755 148.687C333.595 148.982 333.515 149.34 333.515 149.76ZM342.886 154.259C342.284 154.259 341.752 154.107 341.291 153.803C340.83 153.495 340.469 153.062 340.209 152.504C339.948 151.942 339.818 151.278 339.818 150.513C339.818 149.754 339.948 149.095 340.209 148.536C340.469 147.978 340.831 147.547 341.296 147.242C341.76 146.938 342.297 146.786 342.905 146.786C343.376 146.786 343.748 146.864 344.021 147.021C344.297 147.175 344.507 147.35 344.651 147.548C344.799 147.743 344.913 147.903 344.995 148.028H345.089V144.47H346.2V154.108H345.127V152.998H344.995C344.913 153.13 344.797 153.296 344.647 153.497C344.496 153.694 344.281 153.872 344.002 154.028C343.723 154.182 343.351 154.259 342.886 154.259ZM343.037 153.261C343.483 153.261 343.859 153.145 344.167 152.913C344.474 152.678 344.708 152.353 344.868 151.939C345.028 151.522 345.108 151.04 345.108 150.494C345.108 149.954 345.029 149.482 344.872 149.078C344.716 148.67 344.483 148.353 344.176 148.127C343.868 147.898 343.489 147.783 343.037 147.783C342.566 147.783 342.174 147.904 341.861 148.146C341.55 148.384 341.316 148.709 341.159 149.12C341.006 149.528 340.929 149.986 340.929 150.494C340.929 151.009 341.007 151.476 341.164 151.897C341.324 152.314 341.559 152.646 341.87 152.894C342.184 153.139 342.573 153.261 343.037 153.261ZM357.235 148.499L356.238 148.781C356.175 148.615 356.082 148.453 355.96 148.296C355.841 148.136 355.678 148.005 355.471 147.901C355.263 147.798 354.998 147.746 354.675 147.746C354.233 147.746 353.864 147.848 353.569 148.052C353.278 148.252 353.132 148.508 353.132 148.819C353.132 149.095 353.232 149.313 353.433 149.473C353.634 149.633 353.947 149.766 354.374 149.873L355.447 150.136C356.093 150.293 356.575 150.533 356.892 150.856C357.209 151.176 357.367 151.589 357.367 152.094C357.367 152.508 357.248 152.879 357.009 153.205C356.774 153.531 356.445 153.788 356.021 153.977C355.598 154.165 355.105 154.259 354.543 154.259C353.806 154.259 353.196 154.099 352.713 153.779C352.23 153.459 351.924 152.991 351.795 152.377L352.849 152.113C352.95 152.502 353.139 152.794 353.419 152.988C353.701 153.183 354.07 153.28 354.525 153.28C355.042 153.28 355.453 153.17 355.758 152.951C356.065 152.728 356.219 152.461 356.219 152.151C356.219 151.9 356.131 151.689 355.955 151.52C355.78 151.347 355.51 151.219 355.146 151.134L353.941 150.852C353.279 150.695 352.793 150.452 352.482 150.122C352.175 149.79 352.021 149.374 352.021 148.875C352.021 148.467 352.136 148.107 352.365 147.793C352.597 147.479 352.912 147.233 353.31 147.054C353.712 146.875 354.167 146.786 354.675 146.786C355.391 146.786 355.952 146.943 356.36 147.256C356.771 147.57 357.063 147.984 357.235 148.499ZM360.074 151.473L360.055 150.099H360.281L363.444 146.88H364.818L361.448 150.287H361.354L360.074 151.473ZM359.039 154.108V144.47H360.15V154.108H359.039ZM363.632 154.108L360.808 150.532L361.599 149.76L365.044 154.108H363.632ZM366.248 154.108V146.88H367.358V154.108H366.248ZM366.812 145.675C366.596 145.675 366.409 145.601 366.252 145.454C366.099 145.306 366.022 145.129 366.022 144.922C366.022 144.715 366.099 144.538 366.252 144.39C366.409 144.243 366.596 144.169 366.812 144.169C367.029 144.169 367.214 144.243 367.368 144.39C367.524 144.538 367.603 144.715 367.603 144.922C367.603 145.129 367.524 145.306 367.368 145.454C367.214 145.601 367.029 145.675 366.812 145.675ZM370.503 149.76V154.108H369.392V146.88H370.465V148.009H370.559C370.729 147.642 370.986 147.347 371.331 147.125C371.676 146.899 372.122 146.786 372.668 146.786C373.157 146.786 373.586 146.886 373.953 147.087C374.32 147.285 374.605 147.586 374.809 147.99C375.013 148.392 375.115 148.9 375.115 149.515V154.108H374.004V149.591C374.004 149.023 373.857 148.58 373.562 148.263C373.267 147.943 372.862 147.783 372.348 147.783C371.993 147.783 371.676 147.86 371.397 148.014C371.121 148.168 370.903 148.392 370.743 148.687C370.583 148.982 370.503 149.34 370.503 149.76ZM382.265 148.499L381.267 148.781C381.204 148.615 381.112 148.453 380.989 148.296C380.87 148.136 380.707 148.005 380.5 147.901C380.293 147.798 380.028 147.746 379.705 147.746C379.262 147.746 378.894 147.848 378.599 148.052C378.307 148.252 378.161 148.508 378.161 148.819C378.161 149.095 378.261 149.313 378.462 149.473C378.663 149.633 378.977 149.766 379.403 149.873L380.476 150.136C381.123 150.293 381.604 150.533 381.921 150.856C382.238 151.176 382.397 151.589 382.397 152.094C382.397 152.508 382.277 152.879 382.039 153.205C381.804 153.531 381.474 153.788 381.051 153.977C380.627 154.165 380.134 154.259 379.573 154.259C378.836 154.259 378.225 154.099 377.742 153.779C377.259 153.459 376.953 152.991 376.824 152.377L377.879 152.113C377.979 152.502 378.169 152.794 378.448 152.988C378.73 153.183 379.099 153.28 379.554 153.28C380.072 153.28 380.483 153.17 380.787 152.951C381.094 152.728 381.248 152.461 381.248 152.151C381.248 151.9 381.16 151.689 380.985 151.52C380.809 151.347 380.539 151.219 380.175 151.134L378.97 150.852C378.308 150.695 377.822 150.452 377.512 150.122C377.204 149.79 377.05 149.374 377.05 148.875C377.05 148.467 377.165 148.107 377.394 147.793C377.626 147.479 377.941 147.233 378.34 147.054C378.741 146.875 379.196 146.786 379.705 146.786C380.42 146.786 380.982 146.943 381.389 147.256C381.8 147.57 382.092 147.984 382.265 148.499Z" fill="#E8E8E8"/>
<mask id="path-11-inside-2_389_14952" fill="white">
<path d="M337.919 2.40887H481.018C481.018 2.40887 425.818 36.5289 395.264 69.0633C370.591 95.3353 337.919 146.204 337.919 146.204C337.919 146.204 346.289 99.4986 345.811 69.0633C345.396 42.6726 337.919 2.40887 337.919 2.40887Z"/>
</mask>
<path d="M337.919 2.40887H481.018C481.018 2.40887 425.818 36.5289 395.264 69.0633C370.591 95.3353 337.919 146.204 337.919 146.204C337.919 146.204 346.289 99.4986 345.811 69.0633C345.396 42.6726 337.919 2.40887 337.919 2.40887Z" fill="#010B7B"/>
<path d="M337.919 2.06962C337.919 2.29579 337.919 2.52196 337.919 2.74813C346.136 3.02736 354.353 3.29739 362.569 3.5582C402.052 4.8115 441.535 5.85217 481.018 6.6802L478.772 -1.22439C447.602 17.9075 417.216 38.3493 390.879 64.9453C368.419 89.1194 350.213 115.612 332.316 142.604L344.475 147.378C345.983 138.849 347.274 130.357 348.42 121.852C350.695 104.461 352.253 86.9113 351.289 68.9773C350.318 54.3503 347.658 40.3061 344.504 26.3559C342.653 18.3036 340.573 10.2367 338.253 2.34694C338.031 2.38823 337.808 2.42952 337.586 2.47081C338.18 10.652 338.705 18.9342 339.172 27.1147C339.941 41.2477 340.709 55.4227 340.333 69.1494C339.681 85.9326 337.394 103.046 335.16 120.071C334.04 128.384 332.771 136.848 331.364 145.029L343.523 149.803C360.887 123.311 378.921 96.4658 399.649 73.1814C423.841 47.5766 453.537 26.0128 483.263 6.04214L496.016 -1.98339L481.018 -1.86245C441.535 -1.03442 402.052 0.00624514 362.569 1.25954C354.353 1.52036 346.136 1.79039 337.919 2.06962ZM337.919 2.74813V2.06962L337.471 2.08486L337.586 2.47081L338.253 2.34694L337.919 2.74813Z" fill="#020C7B" mask="url(#path-11-inside-2_389_14952)"/>
<path d="M328.499 1.04785C327.76 1.26782 327.02 1.48779 326.28 1.70776C326.967 3.97317 327.645 6.31925 328.308 8.65954C332.751 24.6574 336.931 40.8741 338.882 57.3371V57.3371C341.3 84.0723 338.103 111.12 334.271 137.718C333.909 140.091 333.514 142.574 333.116 144.881C333.552 142.581 333.985 140.104 334.386 137.737C338.639 111.179 342.284 84.2358 340.278 57.1974V57.1974C338.57 40.5252 334.634 24.2159 330.429 8.07755C329.8 5.71415 329.159 3.35879 328.499 1.04785Z" fill="url(#paint1_linear_389_14952)"/>
<path d="M482.341 12.419C482.652 13.1784 482.963 13.9379 483.274 14.6973C480.799 16.2282 478.203 17.8834 475.684 19.5081C450.064 36.3076 424.608 53.838 401.933 76.1421V76.1421C384.743 93.9045 369.42 114.393 354.449 135.079C352.557 137.721 350.671 140.378 348.816 143.049C348.816 143.049 348.816 143.049 348.816 143.049C350.644 140.35 352.505 137.665 354.371 134.995C369.148 114.079 384.256 93.374 401.351 75.2705V75.2705C423.925 52.5146 449.242 34.5919 474.764 17.3652C477.276 15.697 479.855 14.0048 482.341 12.419Z" fill="url(#paint2_linear_389_14952)"/>
<g filter="url(#filter0_i_389_14952)">
<path d="M315.516 19.3335C315.629 14.0852 315.267 10.253 314.427 7.1021C313.634 4.12702 312.272 1.21988 309.696 -1.99413C306.961 -5.40745 304.426 -7.1129 301.807 -7.96699C299.021 -8.87549 295.687 -8.96488 291.333 -8.20258C290.178 -8.00045 288.003 -7.12362 284.954 -5.43286C283.727 -4.75223 282.449 -3.98824 281.153 -3.17981C284.555 -1.54305 288.097 0.512265 291.305 3.08494C295.519 6.4648 300.266 11.6347 302.4 19.1683L302.707 20.306C305.694 32.01 303.285 42.2369 301.481 49.6458C299.387 58.2467 297.972 63.7228 298.816 69.6534C300.844 83.8891 308.913 100.033 318.423 110.066C321.358 113.162 323.831 115.937 326.619 118.769C322.121 112.968 318.339 107.269 315.317 100.868C311.183 92.1138 308.787 82.7469 307.271 71.0405C305.515 57.4787 308.187 49.7157 310.741 42.764C313.016 36.5705 315.27 30.8104 315.516 19.3335Z" fill="#020C7B" fill-opacity="0.25"/>
</g>
<g filter="url(#filter1_i_389_14952)">
<path d="M494.303 59.3298C499.162 57.4171 502.539 55.6075 505.107 53.6161C507.532 51.7357 509.676 49.3527 511.635 45.7251C513.715 41.8724 514.306 38.8626 514.083 36.1019C513.845 33.1651 512.645 30.0336 510.272 26.2828C509.643 25.2884 508.002 23.6047 505.279 21.4233C504.182 20.5452 502.99 19.652 501.75 18.7592C501.556 22.5482 501.032 26.6283 499.904 30.5964C498.423 35.8094 495.504 42.2058 489.412 47.0839L488.486 47.8061C478.895 55.0797 468.585 56.774 461.094 57.947C452.397 59.3087 446.828 60.0991 441.711 63.1633C429.428 70.5189 417.717 84.2195 412.167 96.9089C410.454 100.825 408.858 104.189 407.332 107.867C410.926 101.459 414.701 95.7562 419.412 90.4884C425.856 83.2838 433.53 77.4574 443.688 71.5491C455.457 64.7045 463.607 64.2021 470.968 63.9017C477.525 63.6341 483.677 63.5125 494.303 59.3298Z" fill="#020C7B" fill-opacity="0.25"/>
</g>
<g filter="url(#filter2_i_389_14952)">
<path d="M251.049 -1.35837C249.135 -4.74091 247.959 -7.36431 247.264 -9.70868C246.607 -11.9222 246.258 -14.2882 246.406 -17.2732C246.564 -20.4435 247.226 -22.431 248.231 -23.8926C249.3 -25.4473 250.933 -26.6576 253.377 -27.6648C254.025 -27.9318 255.421 -28.1119 257.542 -28.0628C258.395 -28.043 259.303 -27.9865 260.237 -27.9071C259.117 -25.6647 258.076 -23.101 257.386 -20.3157C256.478 -16.6565 255.938 -11.6461 257.539 -5.99752L257.788 -5.14987C260.439 3.51224 265.262 9.34732 268.784 13.5543C272.874 18.4381 275.519 21.5191 277.196 25.6771C281.222 35.6582 282.907 48.9704 281.71 58.7966C281.341 61.8289 281.089 64.4927 280.699 67.3017C280.891 61.966 280.762 56.9444 280.006 51.7273C278.971 44.5921 276.852 37.6577 273.466 29.5023C269.543 20.0542 265.461 15.9165 261.726 12.2668C258.398 9.01519 255.234 6.03841 251.049 -1.35837Z" fill="#020C7B" fill-opacity="0.25"/>
</g>
</g>
<path d="M-1.9504 9.42796C-1.9504 3.14387 3.14387 -1.9504 9.42796 -1.9504H513.545C519.829 -1.9504 524.923 3.14387 524.923 9.42796H521.023C521.023 5.29821 517.675 1.9504 513.545 1.9504H9.42796C5.29821 1.9504 1.9504 5.29821 1.9504 9.42796H-1.9504ZM1.9504 9.42796M522.973 187.142H0H522.973M9.42796 187.142C3.14387 187.142 -1.9504 182.048 -1.9504 175.764V9.42796C-1.9504 3.14387 3.14387 -1.9504 9.42796 -1.9504V1.9504C5.29821 1.9504 1.9504 5.29821 1.9504 9.42796V177.714C1.9504 182.921 5.29821 187.142 9.42796 187.142ZM513.545 -1.9504C519.829 -1.9504 524.923 3.14387 524.923 9.42796V175.764C524.923 182.048 519.829 187.142 513.545 187.142C517.675 187.142 521.023 182.921 521.023 177.714V9.42796C521.023 5.29821 517.675 1.9504 513.545 1.9504V-1.9504Z" fill="url(#paint3_linear_389_14952)" mask="url(#path-1-inside-1_389_14952)"/>
<defs>
<filter id="filter0_i_389_14952" x="281.153" y="-8.71729" width="45.4653" height="129.067" filterUnits="userSpaceOnUse" color-interpolation-filters="sRGB">
<feFlood flood-opacity="0" result="BackgroundImageFix"/>
<feBlend mode="normal" in="SourceGraphic" in2="BackgroundImageFix" result="shape"/>
<feColorMatrix in="SourceAlpha" type="matrix" values="0 0 0 0 0 0 0 0 0 0 0 0 0 0 0 0 0 0 127 0" result="hardAlpha"/>
<feOffset dy="1.58107"/>
<feGaussianBlur stdDeviation="0.790534"/>
<feComposite in2="hardAlpha" operator="arithmetic" k2="-1" k3="1"/>
<feColorMatrix type="matrix" values="0 0 0 0 0 0 0 0 0 0 0 0 0 0 0 0 0 0 0.25 0"/>
<feBlend mode="normal" in2="shape" result="effect1_innerShadow_389_14952"/>
</filter>
<filter id="filter1_i_389_14952" x="407.332" y="18.7592" width="106.795" height="90.6886" filterUnits="userSpaceOnUse" color-interpolation-filters="sRGB">
<feFlood flood-opacity="0" result="BackgroundImageFix"/>
<feBlend mode="normal" in="SourceGraphic" in2="BackgroundImageFix" result="shape"/>
<feColorMatrix in="SourceAlpha" type="matrix" values="0 0 0 0 0 0 0 0 0 0 0 0 0 0 0 0 0 0 127 0" result="hardAlpha"/>
<feOffset dy="1.58107"/>
<feGaussianBlur stdDeviation="0.790534"/>
<feComposite in2="hardAlpha" operator="arithmetic" k2="-1" k3="1"/>
<feColorMatrix type="matrix" values="0 0 0 0 0 0 0 0 0 0 0 0 0 0 0 0 0 0 0.25 0"/>
<feBlend mode="normal" in2="shape" result="effect1_innerShadow_389_14952"/>
</filter>
<filter id="filter2_i_389_14952" x="246.373" y="-28.0709" width="35.7158" height="97.7412" filterUnits="userSpaceOnUse" color-interpolation-filters="sRGB">
<feFlood flood-opacity="0" result="BackgroundImageFix"/>
<feBlend mode="normal" in="SourceGraphic" in2="BackgroundImageFix" result="shape"/>
<feColorMatrix in="SourceAlpha" type="matrix" values="0 0 0 0 0 0 0 0 0 0 0 0 0 0 0 0 0 0 127 0" result="hardAlpha"/>
<feOffset dy="2.36856"/>
<feGaussianBlur stdDeviation="1.18428"/>
<feComposite in2="hardAlpha" operator="arithmetic" k2="-1" k3="1"/>
<feColorMatrix type="matrix" values="0 0 0 0 0 0 0 0 0 0 0 0 0 0 0 0 0 0 0.25 0"/>
<feBlend mode="normal" in2="shape" result="effect1_innerShadow_389_14952"/>
</filter>
<linearGradient id="paint0_linear_389_14952" x1="261.487" y1="132.49" x2="261.487" y2="-43.0593" gradientUnits="userSpaceOnUse">
<stop stop-color="#010B7B"/>
<stop offset="1" stop-color="#0060DE"/>
</linearGradient>
<linearGradient id="paint1_linear_389_14952" x1="333.485" y1="144.881" x2="337.744" y2="26.742" gradientUnits="userSpaceOnUse">
<stop stop-color="#001FE8"/>
<stop offset="1" stop-color="#011599"/>
</linearGradient>
<linearGradient id="paint2_linear_389_14952" x1="407.183" y1="85.7848" x2="393.351" y2="57.8477" gradientUnits="userSpaceOnUse">
<stop stop-color="#001FE8"/>
<stop offset="1" stop-color="#011599"/>
</linearGradient>
<linearGradient id="paint3_linear_389_14952" x1="261.487" y1="0" x2="261.487" y2="171.409" gradientUnits="userSpaceOnUse">
<stop stop-color="#ABC3FF"/>
<stop offset="0.128319" stop-color="#566FE3"/>
<stop offset="0.247788" stop-color="#001FE8"/>
<stop offset="0.402655" stop-color="#020C7B"/>
<stop offset="1" stop-color="#010B7B"/>
</linearGradient>
<clipPath id="clip0_389_14952">
<path d="M0 9.42797C0 4.22105 4.22104 0 9.42796 0H513.545C518.752 0 522.973 4.22104 522.973 9.42796V177.714C522.973 182.921 518.752 187.142 513.545 187.142H9.42798C4.22106 187.142 0 182.921 0 177.714V9.42797Z" fill="white"/>
</clipPath>
</defs>
</svg>
