<svg width="523" height="188" viewBox="0 0 523 188" fill="none" xmlns="http://www.w3.org/2000/svg">
<g clip-path="url(#clip0_389_14880)">
<mask id="path-1-inside-1_389_14880" fill="white">
<path d="M0 9.42797C0 4.22105 4.22104 0 9.42796 0H513.545C518.752 0 522.973 4.22104 522.973 9.42796V177.714C522.973 182.921 518.752 187.142 513.545 187.142H9.42798C4.22106 187.142 0 182.921 0 177.714V9.42797Z"/>
</mask>
<path d="M0 9.42797C0 4.22105 4.22104 0 9.42796 0H513.545C518.752 0 522.973 4.22104 522.973 9.42796V177.714C522.973 182.921 518.752 187.142 513.545 187.142H9.42798C4.22106 187.142 0 182.921 0 177.714V9.42797Z" fill="url(#paint0_linear_389_14880)"/>
<path d="M15.1592 41.2757C15.1592 31.8966 22.7625 24.2933 32.1416 24.2933H66.0844C75.4636 24.2933 83.0669 31.8966 83.0669 41.2757V75.2185C83.0669 84.5977 75.4636 92.201 66.0844 92.201H32.1416C22.7625 92.201 15.1592 84.5977 15.1592 75.2185V41.2757Z" fill="#CECECE" fill-opacity="0.125"/>
<path d="M40.6123 56.8326H46.2685" stroke="white" stroke-width="2.82812" stroke-linecap="round" stroke-linejoin="round"/>
<path d="M43.4404 54.0038V59.66" stroke="white" stroke-width="2.82812" stroke-linecap="round" stroke-linejoin="round"/>
<path d="M53.3389 58.2458H53.3543" stroke="white" stroke-width="2.82812" stroke-linecap="round" stroke-linejoin="round"/>
<path d="M57.5811 55.4182H57.5965" stroke="white" stroke-width="2.82812" stroke-linecap="round" stroke-linejoin="round"/>
<path d="M56.6194 48.3473H41.5739C40.1743 48.3476 38.8246 48.8668 37.7856 49.8044C36.7467 50.7421 36.0922 52.0316 35.9487 53.4238C35.9402 53.4973 35.9346 53.5666 35.9247 53.6387C35.8101 54.5918 34.9561 61.7186 34.9561 63.9019C34.9561 65.027 35.403 66.1061 36.1986 66.9016C36.9941 67.6972 38.0731 68.1441 39.1982 68.1441C40.6123 68.1441 41.3193 67.4371 42.0264 66.7301L44.0258 64.7306C44.5561 64.2002 45.2753 63.9021 46.0253 63.9019H52.168C52.918 63.9021 53.6372 64.2002 54.1675 64.7306L56.1669 66.7301C56.874 67.4371 57.581 68.1441 58.9951 68.1441C60.1202 68.1441 61.1992 67.6972 61.9947 66.9016C62.7903 66.1061 63.2372 65.027 63.2372 63.9019C63.2372 61.7172 62.3831 54.5918 62.2686 53.6387C62.2587 53.568 62.2531 53.4973 62.2446 53.4252C62.1014 52.0328 61.4471 50.7429 60.4081 49.805C59.3691 48.867 58.0192 48.3477 56.6194 48.3473Z" stroke="white" stroke-width="2.82812" stroke-linecap="round" stroke-linejoin="round"/>
<path d="M28.0842 120.39C27.9671 119.983 27.8025 119.623 27.5906 119.311C27.3786 118.993 27.1193 118.725 26.8125 118.508C26.5113 118.285 26.1655 118.114 25.7751 117.997C25.3902 117.88 24.9635 117.822 24.495 117.822C23.6193 117.822 22.8496 118.039 22.1859 118.474C21.5277 118.909 21.0146 119.542 20.6465 120.373C20.2783 121.199 20.0943 122.208 20.0943 123.402C20.0943 124.596 20.2755 125.611 20.6381 126.447C21.0006 127.284 21.5138 127.923 22.1775 128.363C22.8412 128.798 23.6249 129.016 24.5285 129.016C25.3484 129.016 26.0484 128.871 26.6284 128.581C27.2141 128.285 27.6603 127.87 27.9671 127.334C28.2794 126.799 28.4356 126.166 28.4356 125.435L29.1718 125.544H24.7544V122.816H31.9244V124.975C31.9244 126.481 31.6064 127.775 30.9706 128.857C30.3347 129.933 29.4591 130.764 28.3435 131.35C27.228 131.93 25.9508 132.22 24.5117 132.22C22.9054 132.22 21.4943 131.866 20.2783 131.158C19.0624 130.444 18.1142 129.431 17.4338 128.121C16.7589 126.804 16.4214 125.243 16.4214 123.435C16.4214 122.047 16.6222 120.808 17.0238 119.721C17.431 118.628 17.9999 117.702 18.7306 116.943C19.4612 116.185 20.3118 115.607 21.2823 115.211C22.2528 114.815 23.3042 114.617 24.4364 114.617C25.4069 114.617 26.3105 114.759 27.1471 115.044C27.9838 115.323 28.7256 115.719 29.3726 116.232C30.0252 116.745 30.5578 117.356 30.9706 118.064C31.3833 118.767 31.6483 119.542 31.7654 120.39H28.0842ZM38.2431 132.228C37.4232 132.228 36.6925 132.086 36.0511 131.802C35.4097 131.512 34.9021 131.085 34.5284 130.522C34.1603 129.953 33.9762 129.244 33.9762 128.397C33.9762 127.683 34.1073 127.083 34.3694 126.598C34.6316 126.113 34.9886 125.722 35.4403 125.427C35.8921 125.131 36.4053 124.908 36.9798 124.757C37.5598 124.607 38.1678 124.501 38.8036 124.439C39.551 124.361 40.1534 124.289 40.6108 124.222C41.0681 124.149 41.4 124.043 41.6064 123.904C41.8127 123.764 41.9159 123.558 41.9159 123.285V123.235C41.9159 122.705 41.7486 122.295 41.4139 122.005C41.0849 121.715 40.6163 121.57 40.0084 121.57C39.367 121.57 38.8566 121.712 38.4773 121.996C38.0981 122.275 37.8471 122.627 37.7244 123.051L34.428 122.783C34.5953 122.002 34.9244 121.327 35.4152 120.758C35.9061 120.184 36.5391 119.743 37.3144 119.436C38.0953 119.124 38.9988 118.968 40.0251 118.968C40.7391 118.968 41.4223 119.051 42.0749 119.219C42.733 119.386 43.3159 119.645 43.8235 119.997C44.3366 120.348 44.741 120.8 45.0366 121.352C45.3322 121.899 45.48 122.554 45.48 123.318V131.986H42.1V130.204H41.9996C41.7932 130.605 41.5171 130.96 41.1713 131.266C40.8255 131.568 40.41 131.805 39.9247 131.978C39.4395 132.145 38.8789 132.228 38.2431 132.228ZM39.2638 129.769C39.7881 129.769 40.251 129.666 40.6526 129.459C41.0542 129.247 41.3693 128.963 41.598 128.606C41.8267 128.249 41.941 127.845 41.941 127.393V126.029C41.8295 126.102 41.6761 126.168 41.4809 126.23C41.2912 126.286 41.0765 126.339 40.8367 126.389C40.5968 126.433 40.357 126.475 40.1172 126.514C39.8773 126.548 39.6598 126.578 39.4646 126.606C39.0463 126.668 38.6809 126.765 38.3686 126.899C38.0562 127.033 37.8136 127.214 37.6407 127.443C37.4678 127.666 37.3813 127.945 37.3813 128.28C37.3813 128.765 37.557 129.136 37.9084 129.392C38.2654 129.643 38.7172 129.769 39.2638 129.769ZM54.0514 132.237C52.7351 132.237 51.6028 131.958 50.6546 131.4C49.712 130.837 48.9869 130.056 48.4794 129.058C47.9774 128.059 47.7264 126.91 47.7264 125.611C47.7264 124.294 47.9802 123.14 48.4877 122.147C49.0009 121.149 49.7287 120.371 50.6714 119.813C51.614 119.249 52.7351 118.968 54.0347 118.968C55.1558 118.968 56.1374 119.171 56.9796 119.579C57.8218 119.986 58.4884 120.557 58.9792 121.294C59.47 122.03 59.7405 122.894 59.7907 123.887H56.4274C56.3326 123.246 56.0816 122.73 55.6745 122.339C55.2729 121.943 54.7458 121.745 54.0932 121.745C53.541 121.745 53.0586 121.896 52.6458 122.197C52.2387 122.493 51.9207 122.925 51.6921 123.494C51.4634 124.063 51.349 124.752 51.349 125.56C51.349 126.38 51.4606 127.078 51.6837 127.652C51.9124 128.227 52.2331 128.664 52.6458 128.966C53.0586 129.267 53.541 129.417 54.0932 129.417C54.5004 129.417 54.8657 129.334 55.1892 129.166C55.5183 128.999 55.7888 128.756 56.0008 128.439C56.2183 128.115 56.3605 127.727 56.4274 127.276H59.7907C59.735 128.257 59.4672 129.122 58.9876 129.869C58.5135 130.611 57.8581 131.191 57.0215 131.609C56.1848 132.028 55.1948 132.237 54.0514 132.237ZM65.6368 124.557V131.986H62.0727V114.851H65.5364V121.402H65.687C65.977 120.644 66.4455 120.05 67.0925 119.62C67.7395 119.185 68.5511 118.968 69.5271 118.968C70.4195 118.968 71.1976 119.163 71.8614 119.553C72.5307 119.938 73.0494 120.493 73.4175 121.218C73.7912 121.938 73.9753 122.8 73.9697 123.804V131.986H70.4056V124.439C70.4112 123.647 70.2104 123.031 69.8032 122.59C69.4016 122.15 68.8383 121.929 68.1132 121.929C67.628 121.929 67.1985 122.033 66.8248 122.239C66.4567 122.445 66.1666 122.747 65.9547 123.143C65.7483 123.533 65.6423 124.004 65.6368 124.557ZM80.439 132.228C79.6191 132.228 78.8884 132.086 78.247 131.802C77.6056 131.512 77.098 131.085 76.7243 130.522C76.3562 129.953 76.1721 129.244 76.1721 128.397C76.1721 127.683 76.3032 127.083 76.5654 126.598C76.8275 126.113 77.1845 125.722 77.6363 125.427C78.088 125.131 78.6012 124.908 79.1757 124.757C79.7557 124.607 80.3637 124.501 80.9995 124.439C81.7469 124.361 82.3493 124.289 82.8067 124.222C83.2641 124.149 83.5959 124.043 83.8023 123.904C84.0087 123.764 84.1118 123.558 84.1118 123.285V123.235C84.1118 122.705 83.9445 122.295 83.6099 122.005C83.2808 121.715 82.8123 121.57 82.2043 121.57C81.5629 121.57 81.0525 121.712 80.6733 121.996C80.294 122.275 80.043 122.627 79.9203 123.051L76.6239 122.783C76.7913 122.002 77.1203 121.327 77.6112 120.758C78.102 120.184 78.735 119.743 79.5103 119.436C80.2912 119.124 81.1948 118.968 82.221 118.968C82.935 118.968 83.6182 119.051 84.2708 119.219C84.929 119.386 85.5118 119.645 86.0194 119.997C86.5325 120.348 86.9369 120.8 87.2325 121.352C87.5281 121.899 87.6759 122.554 87.6759 123.318V131.986H84.2959V130.204H84.1955C83.9891 130.605 83.713 130.96 83.3672 131.266C83.0214 131.568 82.6059 131.805 82.1206 131.978C81.6354 132.145 81.0748 132.228 80.439 132.228ZM81.4597 129.769C81.984 129.769 82.4469 129.666 82.8485 129.459C83.2501 129.247 83.5652 128.963 83.7939 128.606C84.0226 128.249 84.1369 127.845 84.1369 127.393V126.029C84.0254 126.102 83.872 126.168 83.6768 126.23C83.4872 126.286 83.2724 126.339 83.0326 126.389C82.7927 126.433 82.5529 126.475 82.3131 126.514C82.0732 126.548 81.8557 126.578 81.6605 126.606C81.2422 126.668 80.8768 126.765 80.5645 126.899C80.2521 127.033 80.0095 127.214 79.8366 127.443C79.6637 127.666 79.5773 127.945 79.5773 128.28C79.5773 128.765 79.753 129.136 80.1043 129.392C80.4613 129.643 80.9131 129.769 81.4597 129.769ZM105.256 119.779C105.189 119.104 104.902 118.58 104.394 118.206C103.887 117.833 103.198 117.646 102.328 117.646C101.736 117.646 101.237 117.73 100.83 117.897C100.423 118.059 100.11 118.285 99.893 118.575C99.681 118.865 99.575 119.194 99.575 119.562C99.5639 119.869 99.628 120.136 99.7675 120.365C99.9125 120.594 100.11 120.792 100.361 120.959C100.612 121.121 100.903 121.263 101.232 121.386C101.561 121.503 101.912 121.603 102.286 121.687L103.825 122.055C104.573 122.222 105.259 122.445 105.883 122.724C106.508 123.003 107.049 123.346 107.506 123.753C107.964 124.161 108.318 124.64 108.569 125.192C108.825 125.745 108.957 126.378 108.962 127.092C108.957 128.14 108.689 129.049 108.159 129.819C107.635 130.583 106.876 131.177 105.883 131.601C104.896 132.019 103.705 132.228 102.311 132.228C100.928 132.228 99.7229 132.017 98.6966 131.593C97.6759 131.169 96.8783 130.541 96.3038 129.71C95.7349 128.874 95.4365 127.839 95.4086 126.606H98.9141C98.9531 127.181 99.1177 127.66 99.4077 128.045C99.7033 128.425 100.097 128.712 100.587 128.907C101.084 129.097 101.644 129.191 102.269 129.191C102.883 129.191 103.415 129.102 103.867 128.924C104.324 128.745 104.679 128.497 104.93 128.179C105.181 127.861 105.306 127.496 105.306 127.083C105.306 126.698 105.192 126.375 104.963 126.113C104.74 125.851 104.411 125.627 103.976 125.443C103.546 125.259 103.019 125.092 102.395 124.941L100.529 124.473C99.0842 124.121 97.9436 123.572 97.107 122.825C96.2703 122.077 95.8548 121.071 95.8604 119.804C95.8548 118.767 96.1309 117.861 96.6886 117.085C97.252 116.31 98.0245 115.705 99.0061 115.27C99.9878 114.835 101.103 114.617 102.353 114.617C103.624 114.617 104.734 114.835 105.683 115.27C106.636 115.705 107.378 116.31 107.908 117.085C108.438 117.861 108.711 118.759 108.728 119.779H105.256ZM113.532 136.805C113.08 136.805 112.657 136.769 112.261 136.696C111.87 136.629 111.547 136.543 111.29 136.437L112.093 133.776C112.512 133.905 112.888 133.974 113.223 133.985C113.563 133.997 113.856 133.919 114.101 133.751C114.352 133.584 114.556 133.299 114.712 132.898L114.921 132.354L110.311 119.135H114.059L116.72 128.572H116.854L119.539 119.135H123.313L118.318 133.375C118.078 134.066 117.752 134.669 117.339 135.182C116.932 135.701 116.416 136.099 115.791 136.378C115.167 136.663 114.414 136.805 113.532 136.805ZM135.829 122.8L132.566 123C132.51 122.721 132.39 122.47 132.206 122.247C132.022 122.019 131.779 121.837 131.478 121.704C131.183 121.564 130.828 121.494 130.416 121.494C129.863 121.494 129.398 121.612 129.018 121.846C128.639 122.074 128.45 122.381 128.45 122.766C128.45 123.073 128.572 123.332 128.818 123.544C129.063 123.756 129.484 123.926 130.081 124.055L132.407 124.523C133.656 124.78 134.588 125.192 135.201 125.761C135.815 126.33 136.122 127.078 136.122 128.003C136.122 128.846 135.873 129.585 135.377 130.221C134.886 130.856 134.211 131.353 133.352 131.71C132.499 132.061 131.514 132.237 130.399 132.237C128.698 132.237 127.342 131.883 126.333 131.174C125.329 130.46 124.74 129.49 124.568 128.263L128.073 128.079C128.179 128.597 128.436 128.993 128.843 129.267C129.25 129.535 129.771 129.668 130.407 129.668C131.032 129.668 131.534 129.548 131.913 129.309C132.298 129.063 132.493 128.748 132.499 128.363C132.493 128.04 132.357 127.775 132.089 127.568C131.821 127.356 131.408 127.195 130.851 127.083L128.625 126.64C127.37 126.389 126.436 125.954 125.823 125.335C125.215 124.715 124.911 123.926 124.911 122.967C124.911 122.141 125.134 121.43 125.58 120.833C126.032 120.237 126.665 119.777 127.479 119.453C128.299 119.13 129.258 118.968 130.357 118.968C131.98 118.968 133.257 119.311 134.189 119.997C135.126 120.683 135.673 121.617 135.829 122.8ZM145.201 119.135V121.812H137.462V119.135H145.201ZM139.219 116.056H142.783V128.037C142.783 128.366 142.833 128.623 142.934 128.807C143.034 128.985 143.174 129.111 143.352 129.183C143.536 129.256 143.748 129.292 143.988 129.292C144.155 129.292 144.323 129.278 144.49 129.25C144.657 129.217 144.786 129.191 144.875 129.175L145.435 131.827C145.257 131.883 145.006 131.947 144.682 132.019C144.359 132.097 143.966 132.145 143.503 132.162C142.644 132.195 141.891 132.081 141.244 131.819C140.602 131.556 140.103 131.149 139.746 130.597C139.389 130.045 139.214 129.348 139.219 128.505V116.056ZM153.241 132.237C151.919 132.237 150.782 131.969 149.828 131.434C148.88 130.893 148.149 130.129 147.636 129.141C147.123 128.148 146.866 126.974 146.866 125.619C146.866 124.297 147.123 123.137 147.636 122.139C148.149 121.14 148.871 120.362 149.803 119.804C150.74 119.247 151.839 118.968 153.099 118.968C153.947 118.968 154.736 119.104 155.467 119.378C156.203 119.645 156.844 120.05 157.391 120.591C157.943 121.132 158.373 121.812 158.679 122.632C158.986 123.447 159.14 124.4 159.14 125.494V126.472H148.288V124.264H155.785C155.785 123.751 155.673 123.296 155.45 122.9C155.227 122.504 154.917 122.194 154.521 121.971C154.131 121.743 153.676 121.628 153.158 121.628C152.617 121.628 152.137 121.754 151.719 122.005C151.306 122.25 150.982 122.582 150.748 123C150.514 123.413 150.394 123.873 150.388 124.381V126.481C150.388 127.117 150.505 127.666 150.74 128.129C150.98 128.592 151.317 128.949 151.752 129.2C152.187 129.451 152.703 129.576 153.3 129.576C153.696 129.576 154.058 129.521 154.387 129.409C154.717 129.297 154.998 129.13 155.232 128.907C155.467 128.684 155.645 128.411 155.768 128.087L159.064 128.305C158.897 129.097 158.554 129.788 158.035 130.38C157.522 130.965 156.858 131.423 156.044 131.752C155.235 132.075 154.301 132.237 153.241 132.237ZM161.465 131.986V119.135H164.862V121.402H165.013C165.281 120.649 165.727 120.055 166.351 119.62C166.976 119.185 167.724 118.968 168.594 118.968C169.475 118.968 170.225 119.188 170.844 119.629C171.463 120.064 171.876 120.655 172.082 121.402H172.216C172.478 120.666 172.953 120.078 173.639 119.637C174.33 119.191 175.147 118.968 176.09 118.968C177.289 118.968 178.262 119.35 179.01 120.114C179.763 120.873 180.139 121.949 180.139 123.343V131.986H176.584V124.046C176.584 123.332 176.394 122.797 176.015 122.44C175.635 122.083 175.161 121.904 174.592 121.904C173.945 121.904 173.441 122.111 173.078 122.523C172.715 122.931 172.534 123.469 172.534 124.138V131.986H169.079V123.971C169.079 123.341 168.898 122.839 168.535 122.465C168.178 122.091 167.707 121.904 167.121 121.904C166.725 121.904 166.368 122.005 166.05 122.206C165.738 122.401 165.49 122.677 165.306 123.034C165.122 123.385 165.03 123.798 165.03 124.272V131.986H161.465Z" fill="white"/>
<path d="M27.7685 149.289C27.7685 150.306 27.585 151.184 27.2179 151.925C26.8508 152.665 26.3472 153.236 25.7072 153.638C25.0672 154.039 24.3362 154.24 23.5142 154.24C22.6922 154.24 21.9612 154.039 21.3211 153.638C20.6811 153.236 20.1776 152.665 19.8105 151.925C19.4434 151.184 19.2599 150.306 19.2599 149.289C19.2599 148.273 19.4434 147.394 19.8105 146.654C20.1776 145.913 20.6811 145.342 21.3211 144.941C21.9612 144.539 22.6922 144.338 23.5142 144.338C24.3362 144.338 25.0672 144.539 25.7072 144.941C26.3472 145.342 26.8508 145.913 27.2179 146.654C27.585 147.394 27.7685 148.273 27.7685 149.289ZM26.639 149.289C26.639 148.455 26.4994 147.75 26.2202 147.176C25.9441 146.602 25.5692 146.167 25.0954 145.873C24.6248 145.578 24.0977 145.43 23.5142 145.43C22.9306 145.43 22.402 145.578 21.9282 145.873C21.4576 146.167 21.0827 146.602 20.8035 147.176C20.5274 147.75 20.3893 148.455 20.3893 149.289C20.3893 150.124 20.5274 150.828 20.8035 151.402C21.0827 151.976 21.4576 152.411 21.9282 152.706C22.402 153.001 22.9306 153.148 23.5142 153.148C24.0977 153.148 24.6248 153.001 25.0954 152.706C25.5692 152.411 25.9441 151.976 26.2202 151.402C26.4994 150.828 26.639 150.124 26.639 149.289ZM29.5803 156.819V146.88H30.6533V148.028H30.7851C30.8667 147.902 30.9796 147.742 31.1239 147.548C31.2714 147.35 31.4816 147.175 31.7546 147.021C32.0306 146.864 32.404 146.786 32.8746 146.786C33.4833 146.786 34.0198 146.938 34.4841 147.242C34.9484 147.546 35.3108 147.978 35.5712 148.536C35.8316 149.095 35.9618 149.754 35.9618 150.513C35.9618 151.278 35.8316 151.942 35.5712 152.503C35.3108 153.062 34.95 153.495 34.4888 153.802C34.0276 154.107 33.4958 154.259 32.8934 154.259C32.4291 154.259 32.0573 154.182 31.7781 154.028C31.4989 153.871 31.2839 153.694 31.1333 153.496C30.9828 153.296 30.8667 153.129 30.7851 152.998H30.691V156.819H29.5803ZM30.6721 150.494C30.6721 151.04 30.7522 151.521 30.9122 151.939C31.0722 152.353 31.3059 152.678 31.6134 152.913C31.9208 153.145 32.2973 153.261 32.7428 153.261C33.2072 153.261 33.5946 153.139 33.9052 152.894C34.219 152.646 34.4543 152.314 34.6112 151.896C34.7712 151.476 34.8512 151.008 34.8512 150.494C34.8512 149.986 34.7727 149.528 34.6159 149.12C34.4621 148.709 34.2284 148.384 33.9147 148.146C33.604 147.904 33.2134 147.783 32.7428 147.783C32.291 147.783 31.9114 147.898 31.604 148.127C31.2965 148.353 31.0643 148.67 30.9075 149.077C30.7506 149.482 30.6721 149.954 30.6721 150.494ZM40.6867 154.259C39.9902 154.259 39.3894 154.105 38.8843 153.798C38.3823 153.487 37.9948 153.054 37.7219 152.499C37.4521 151.94 37.3172 151.291 37.3172 150.55C37.3172 149.81 37.4521 149.157 37.7219 148.593C37.9948 148.025 38.3745 147.582 38.8608 147.266C39.3502 146.946 39.9212 146.786 40.5738 146.786C40.9503 146.786 41.3221 146.848 41.6891 146.974C42.0562 147.099 42.3903 147.303 42.6915 147.586C42.9927 147.865 43.2327 148.235 43.4116 148.696C43.5904 149.157 43.6798 149.725 43.6798 150.4V150.87H38.1078V149.91H42.5503C42.5503 149.503 42.4688 149.139 42.3056 148.819C42.1456 148.499 41.9166 148.246 41.6185 148.061C41.3236 147.876 40.9754 147.783 40.5738 147.783C40.1314 147.783 39.7486 147.893 39.4255 148.113C39.1055 148.329 38.8592 148.611 38.6866 148.96C38.5141 149.308 38.4278 149.681 38.4278 150.08V150.72C38.4278 151.266 38.5219 151.728 38.7102 152.108C38.9015 152.485 39.1667 152.772 39.5055 152.969C39.8443 153.164 40.2381 153.261 40.6867 153.261C40.9785 153.261 41.242 153.22 41.4774 153.139C41.7158 153.054 41.9213 152.929 42.0939 152.762C42.2664 152.593 42.3997 152.383 42.4939 152.132L43.5669 152.433C43.4539 152.797 43.2641 153.117 42.9974 153.393C42.7307 153.666 42.4013 153.879 42.0091 154.033C41.617 154.184 41.1762 154.259 40.6867 154.259ZM46.4799 149.76V154.108H45.3693V146.88H46.4423V148.009H46.5364C46.7058 147.642 46.9631 147.347 47.3082 147.124C47.6533 146.898 48.0988 146.786 48.6447 146.786C49.1342 146.786 49.5624 146.886 49.9295 147.087C50.2966 147.284 50.5821 147.586 50.786 147.99C50.9899 148.392 51.0919 148.9 51.0919 149.515V154.108H49.9813V149.59C49.9813 149.022 49.8338 148.58 49.5389 148.263C49.244 147.943 48.8393 147.783 48.3247 147.783C47.9702 147.783 47.6533 147.86 47.3741 148.014C47.098 148.168 46.88 148.392 46.7199 148.687C46.5599 148.982 46.4799 149.339 46.4799 149.76ZM59.8794 154.259C59.1829 154.259 58.5821 154.105 58.0769 153.798C57.575 153.487 57.1875 153.054 56.9145 152.499C56.6447 151.94 56.5098 151.291 56.5098 150.55C56.5098 149.81 56.6447 149.157 56.9145 148.593C57.1875 148.025 57.5671 147.582 58.0534 147.266C58.5428 146.946 59.1138 146.786 59.7664 146.786C60.1429 146.786 60.5147 146.848 60.8818 146.974C61.2488 147.099 61.583 147.303 61.8842 147.586C62.1854 147.865 62.4254 148.235 62.6042 148.696C62.783 149.157 62.8724 149.725 62.8724 150.4V150.87H57.3004V149.91H61.743C61.743 149.503 61.6614 149.139 61.4983 148.819C61.3383 148.499 61.1092 148.246 60.8112 148.061C60.5163 147.876 60.168 147.783 59.7664 147.783C59.3241 147.783 58.9413 147.893 58.6181 148.113C58.2981 148.329 58.0518 148.611 57.8793 148.96C57.7067 149.308 57.6204 149.681 57.6204 150.08V150.72C57.6204 151.266 57.7146 151.728 57.9028 152.108C58.0942 152.485 58.3593 152.772 58.6981 152.969C59.037 153.164 59.4307 153.261 59.8794 153.261C60.1711 153.261 60.4347 153.22 60.67 153.139C60.9084 153.054 61.1139 152.929 61.2865 152.762C61.4591 152.593 61.5924 152.383 61.6865 152.132L62.7595 152.433C62.6466 152.797 62.4567 153.117 62.1901 153.393C61.9234 153.666 61.594 153.879 61.2018 154.033C60.8096 154.184 60.3688 154.259 59.8794 154.259ZM65.1961 146.88L66.9279 149.835L68.6598 146.88H69.9398L67.6056 150.494L69.9398 154.108H68.6598L66.9279 151.303L65.1961 154.108H63.916L66.2126 150.494L63.916 146.88H65.1961ZM74.1636 154.259C73.4859 154.259 72.9023 154.099 72.4129 153.779C71.9235 153.459 71.547 153.018 71.2834 152.456C71.0199 151.895 70.8881 151.253 70.8881 150.532C70.8881 149.797 71.023 149.15 71.2928 148.588C71.5658 148.023 71.9454 147.582 72.4317 147.266C72.9211 146.946 73.4922 146.786 74.1447 146.786C74.653 146.786 75.1111 146.88 75.5189 147.068C75.9268 147.256 76.2609 147.52 76.5213 147.859C76.7817 148.197 76.9433 148.593 77.006 149.044H75.8954C75.8107 148.715 75.6224 148.423 75.3307 148.169C75.042 147.912 74.653 147.783 74.1636 147.783C73.7306 147.783 73.351 147.896 73.0247 148.122C72.7015 148.345 72.449 148.66 72.267 149.068C72.0882 149.473 71.9988 149.948 71.9988 150.494C71.9988 151.052 72.0866 151.539 72.2623 151.953C72.4411 152.367 72.6921 152.689 73.0153 152.918C73.3416 153.147 73.7243 153.261 74.1636 153.261C74.4522 153.261 74.7142 153.211 74.9495 153.111C75.1848 153.01 75.384 152.866 75.5471 152.678C75.7103 152.489 75.8264 152.263 75.8954 152H77.006C76.9433 152.427 76.788 152.811 76.5401 153.153C76.2954 153.492 75.9707 153.762 75.566 153.962C75.1644 154.16 74.6969 154.259 74.1636 154.259ZM79.7403 144.47V154.108H78.6296V144.47H79.7403ZM86.33 151.153V146.88H87.4406V154.108H86.33V152.885H86.2547C86.0853 153.252 85.8217 153.564 85.4641 153.821C85.1064 154.075 84.6546 154.202 84.1087 154.202C83.6569 154.202 83.2553 154.104 82.904 153.906C82.5526 153.705 82.2765 153.404 82.0757 153.002C81.8749 152.598 81.7745 152.088 81.7745 151.473V146.88H82.8851V151.398C82.8851 151.925 83.0326 152.345 83.3275 152.659C83.6256 152.972 84.0052 153.129 84.4664 153.129C84.7425 153.129 85.0233 153.059 85.3088 152.918C85.5974 152.776 85.839 152.56 86.0335 152.268C86.2312 151.976 86.33 151.605 86.33 151.153ZM94.5951 148.499L93.5974 148.781C93.5346 148.615 93.4421 148.453 93.3197 148.296C93.2005 148.136 93.0374 148.004 92.8303 147.901C92.6232 147.797 92.3581 147.746 92.035 147.746C91.5926 147.746 91.2239 147.848 90.929 148.051C90.6373 148.252 90.4914 148.508 90.4914 148.819C90.4914 149.095 90.5918 149.313 90.7926 149.473C90.9933 149.633 91.3071 149.766 91.7338 149.873L92.8068 150.136C93.4531 150.293 93.9347 150.533 94.2515 150.856C94.5684 151.176 94.7269 151.589 94.7269 152.094C94.7269 152.508 94.6076 152.878 94.3692 153.205C94.1339 153.531 93.8045 153.788 93.3809 153.976C92.9574 154.165 92.4648 154.259 91.9032 154.259C91.1659 154.259 90.5557 154.099 90.0725 153.779C89.5894 153.459 89.2835 152.991 89.1548 152.376L90.209 152.113C90.3094 152.502 90.4992 152.794 90.7784 152.988C91.0608 153.183 91.4294 153.28 91.8844 153.28C92.402 153.28 92.813 153.17 93.1174 152.951C93.4248 152.728 93.5786 152.461 93.5786 152.15C93.5786 151.899 93.4907 151.689 93.315 151.52C93.1393 151.347 92.8695 151.219 92.5056 151.134L91.3008 150.852C90.6388 150.695 90.1525 150.452 89.8419 150.122C89.5345 149.79 89.3807 149.374 89.3807 148.875C89.3807 148.467 89.4952 148.106 89.7243 147.793C89.9564 147.479 90.2717 147.233 90.6702 147.054C91.0718 146.875 91.5267 146.786 92.035 146.786C92.7503 146.786 93.3119 146.942 93.7197 147.256C94.1307 147.57 94.4225 147.984 94.5951 148.499ZM96.3987 154.108V146.88H97.5093V154.108H96.3987ZM96.9634 145.675C96.7469 145.675 96.5603 145.601 96.4034 145.454C96.2497 145.306 96.1728 145.129 96.1728 144.922C96.1728 144.715 96.2497 144.538 96.4034 144.39C96.5603 144.243 96.7469 144.169 96.9634 144.169C97.1799 144.169 97.365 144.243 97.5187 144.39C97.6756 144.538 97.754 144.715 97.754 144.922C97.754 145.129 97.6756 145.306 97.5187 145.454C97.365 145.601 97.1799 145.675 96.9634 145.675ZM105.454 146.88L102.781 154.108H101.652L98.9788 146.88H100.184L102.179 152.64H102.254L104.25 146.88H105.454ZM109.692 154.259C108.996 154.259 108.395 154.105 107.89 153.798C107.388 153.487 107 153.054 106.727 152.499C106.458 151.94 106.323 151.291 106.323 150.55C106.323 149.81 106.458 149.157 106.727 148.593C107 148.025 107.38 147.582 107.866 147.266C108.356 146.946 108.927 146.786 109.579 146.786C109.956 146.786 110.328 146.848 110.695 146.974C111.062 147.099 111.396 147.303 111.697 147.586C111.998 147.865 112.238 148.235 112.417 148.696C112.596 149.157 112.685 149.725 112.685 150.4V150.87H107.113V149.91H111.556C111.556 149.503 111.474 149.139 111.311 148.819C111.151 148.499 110.922 148.246 110.624 148.061C110.329 147.876 109.981 147.783 109.579 147.783C109.137 147.783 108.754 147.893 108.431 148.113C108.111 148.329 107.865 148.611 107.692 148.96C107.52 149.308 107.433 149.681 107.433 150.08V150.72C107.433 151.266 107.527 151.728 107.716 152.108C107.907 152.485 108.172 152.772 108.511 152.969C108.85 153.164 109.244 153.261 109.692 153.261C109.984 153.261 110.248 153.22 110.483 153.139C110.721 153.054 110.927 152.929 111.099 152.762C111.272 152.593 111.405 152.383 111.499 152.132L112.572 152.433C112.459 152.797 112.27 153.117 112.003 153.393C111.736 153.666 111.407 153.879 111.015 154.033C110.622 154.184 110.182 154.259 109.692 154.259ZM118.102 156.819V146.88H119.175V148.028H119.307C119.388 147.902 119.501 147.742 119.646 147.548C119.793 147.35 120.003 147.175 120.276 147.021C120.552 146.864 120.926 146.786 121.396 146.786C122.005 146.786 122.541 146.938 123.006 147.242C123.47 147.546 123.832 147.978 124.093 148.536C124.353 149.095 124.484 149.754 124.484 150.513C124.484 151.278 124.353 151.942 124.093 152.503C123.832 153.062 123.472 153.495 123.01 153.802C122.549 154.107 122.018 154.259 121.415 154.259C120.951 154.259 120.579 154.182 120.3 154.028C120.021 153.871 119.806 153.694 119.655 153.496C119.504 153.296 119.388 153.129 119.307 152.998H119.213V156.819H118.102ZM119.194 150.494C119.194 151.04 119.274 151.521 119.434 151.939C119.594 152.353 119.828 152.678 120.135 152.913C120.443 153.145 120.819 153.261 121.265 153.261C121.729 153.261 122.116 153.139 122.427 152.894C122.741 152.646 122.976 152.314 123.133 151.896C123.293 151.476 123.373 151.008 123.373 150.494C123.373 149.986 123.294 149.528 123.138 149.12C122.984 148.709 122.75 148.384 122.436 148.146C122.126 147.904 121.735 147.783 121.265 147.783C120.813 147.783 120.433 147.898 120.126 148.127C119.818 148.353 119.586 148.67 119.429 149.077C119.272 149.482 119.194 149.954 119.194 150.494ZM128.305 154.278C127.847 154.278 127.431 154.191 127.058 154.019C126.684 153.843 126.388 153.591 126.168 153.261C125.949 152.929 125.839 152.527 125.839 152.056C125.839 151.642 125.92 151.307 126.084 151.049C126.247 150.789 126.465 150.585 126.738 150.437C127.011 150.29 127.312 150.18 127.641 150.108C127.974 150.033 128.308 149.973 128.644 149.929C129.083 149.873 129.439 149.83 129.712 149.802C129.988 149.771 130.189 149.719 130.314 149.647C130.443 149.575 130.507 149.449 130.507 149.27V149.233C130.507 148.768 130.38 148.408 130.126 148.15C129.875 147.893 129.494 147.764 128.983 147.764C128.452 147.764 128.037 147.88 127.735 148.113C127.434 148.345 127.222 148.593 127.1 148.856L126.046 148.48C126.234 148.04 126.485 147.699 126.799 147.454C127.116 147.206 127.461 147.033 127.834 146.936C128.211 146.836 128.581 146.786 128.945 146.786C129.177 146.786 129.444 146.814 129.745 146.87C130.049 146.924 130.343 147.035 130.625 147.204C130.91 147.374 131.147 147.629 131.336 147.971C131.524 148.313 131.618 148.772 131.618 149.346V154.108H130.507V153.129H130.451C130.376 153.286 130.25 153.454 130.074 153.633C129.899 153.812 129.665 153.964 129.373 154.089C129.081 154.215 128.725 154.278 128.305 154.278ZM128.474 153.28C128.914 153.28 129.284 153.194 129.585 153.021C129.889 152.849 130.118 152.626 130.272 152.353C130.429 152.08 130.507 151.793 130.507 151.492V150.475C130.46 150.532 130.357 150.583 130.197 150.63C130.04 150.674 129.858 150.714 129.651 150.748C129.447 150.779 129.248 150.808 129.053 150.833C128.862 150.855 128.706 150.874 128.587 150.889C128.299 150.927 128.029 150.988 127.778 151.073C127.53 151.154 127.329 151.278 127.175 151.445C127.025 151.608 126.95 151.83 126.95 152.113C126.95 152.499 127.092 152.791 127.378 152.988C127.666 153.183 128.032 153.28 128.474 153.28ZM136.582 154.259C135.904 154.259 135.32 154.099 134.831 153.779C134.342 153.459 133.965 153.018 133.702 152.456C133.438 151.895 133.306 151.253 133.306 150.532C133.306 149.797 133.441 149.15 133.711 148.588C133.984 148.023 134.364 147.582 134.85 147.266C135.339 146.946 135.91 146.786 136.563 146.786C137.071 146.786 137.529 146.88 137.937 147.068C138.345 147.256 138.679 147.52 138.939 147.859C139.2 148.197 139.361 148.593 139.424 149.044H138.314C138.229 148.715 138.041 148.423 137.749 148.169C137.46 147.912 137.071 147.783 136.582 147.783C136.149 147.783 135.769 147.896 135.443 148.122C135.12 148.345 134.867 148.66 134.685 149.068C134.506 149.473 134.417 149.948 134.417 150.494C134.417 151.052 134.505 151.539 134.68 151.953C134.859 152.367 135.11 152.689 135.433 152.918C135.76 153.147 136.142 153.261 136.582 153.261C136.87 153.261 137.132 153.211 137.368 153.111C137.603 153.01 137.802 152.866 137.965 152.678C138.128 152.489 138.245 152.263 138.314 152H139.424C139.361 152.427 139.206 152.811 138.958 153.153C138.714 153.492 138.389 153.762 137.984 153.962C137.583 154.16 137.115 154.259 136.582 154.259ZM142.083 151.473L142.064 150.099H142.29L145.453 146.88H146.827L143.457 150.287H143.363L142.083 151.473ZM141.048 154.108V144.47H142.158V154.108H141.048ZM145.641 154.108L142.817 150.532L143.608 149.76L147.053 154.108H145.641ZM153.377 148.499L152.379 148.781C152.316 148.615 152.224 148.453 152.101 148.296C151.982 148.136 151.819 148.004 151.612 147.901C151.405 147.797 151.14 147.746 150.816 147.746C150.374 147.746 150.005 147.848 149.711 148.051C149.419 148.252 149.273 148.508 149.273 148.819C149.273 149.095 149.373 149.313 149.574 149.473C149.775 149.633 150.089 149.766 150.515 149.873L151.588 150.136C152.235 150.293 152.716 150.533 153.033 150.856C153.35 151.176 153.508 151.589 153.508 152.094C153.508 152.508 153.389 152.878 153.151 153.205C152.915 153.531 152.586 153.788 152.162 153.976C151.739 154.165 151.246 154.259 150.685 154.259C149.947 154.259 149.337 154.099 148.854 153.779C148.371 153.459 148.065 152.991 147.936 152.376L148.991 152.113C149.091 152.502 149.281 152.794 149.56 152.988C149.842 153.183 150.211 153.28 150.666 153.28C151.184 153.28 151.595 153.17 151.899 152.951C152.206 152.728 152.36 152.461 152.36 152.15C152.36 151.899 152.272 151.689 152.097 151.52C151.921 151.347 151.651 151.219 151.287 151.134L150.082 150.852C149.42 150.695 148.934 150.452 148.623 150.122C148.316 149.79 148.162 149.374 148.162 148.875C148.162 148.467 148.277 148.106 148.506 147.793C148.738 147.479 149.053 147.233 149.452 147.054C149.853 146.875 150.308 146.786 150.816 146.786C151.532 146.786 152.093 146.942 152.501 147.256C152.912 147.57 153.204 147.984 153.377 148.499ZM162.051 146.88V147.821H158.305V146.88H162.051ZM159.397 145.148H160.508V152.038C160.508 152.351 160.553 152.587 160.644 152.743C160.738 152.897 160.857 153.001 161.002 153.054C161.149 153.104 161.304 153.129 161.468 153.129C161.59 153.129 161.69 153.123 161.769 153.111C161.847 153.095 161.91 153.082 161.957 153.073L162.183 154.071C162.108 154.099 162.002 154.127 161.868 154.155C161.733 154.187 161.562 154.202 161.355 154.202C161.041 154.202 160.733 154.135 160.432 154C160.134 153.865 159.886 153.66 159.689 153.383C159.494 153.107 159.397 152.759 159.397 152.339V145.148ZM166.581 154.259C165.928 154.259 165.356 154.104 164.863 153.793C164.374 153.482 163.991 153.048 163.715 152.489C163.442 151.931 163.305 151.278 163.305 150.532C163.305 149.779 163.442 149.121 163.715 148.56C163.991 147.998 164.374 147.562 164.863 147.251C165.356 146.941 165.928 146.786 166.581 146.786C167.233 146.786 167.804 146.941 168.294 147.251C168.786 147.562 169.169 147.998 169.442 148.56C169.718 149.121 169.856 149.779 169.856 150.532C169.856 151.278 169.718 151.931 169.442 152.489C169.169 153.048 168.786 153.482 168.294 153.793C167.804 154.104 167.233 154.259 166.581 154.259ZM166.581 153.261C167.076 153.261 167.484 153.134 167.804 152.88C168.124 152.626 168.361 152.292 168.515 151.878C168.669 151.463 168.746 151.015 168.746 150.532C168.746 150.048 168.669 149.598 168.515 149.181C168.361 148.764 168.124 148.426 167.804 148.169C167.484 147.912 167.076 147.783 166.581 147.783C166.085 147.783 165.677 147.912 165.357 148.169C165.037 148.426 164.8 148.764 164.647 149.181C164.493 149.598 164.416 150.048 164.416 150.532C164.416 151.015 164.493 151.463 164.647 151.878C164.8 152.292 165.037 152.626 165.357 152.88C165.677 153.134 166.085 153.261 166.581 153.261ZM179.834 151.153V146.88H180.945V154.108H179.834V152.885H179.759C179.59 153.252 179.326 153.564 178.968 153.821C178.611 154.075 178.159 154.202 177.613 154.202C177.161 154.202 176.76 154.104 176.408 153.906C176.057 153.705 175.781 153.404 175.58 153.002C175.379 152.598 175.279 152.088 175.279 151.473V146.88H176.389V151.398C176.389 151.925 176.537 152.345 176.832 152.659C177.13 152.972 177.509 153.129 177.971 153.129C178.247 153.129 178.528 153.059 178.813 152.918C179.102 152.776 179.343 152.56 179.538 152.268C179.735 151.976 179.834 151.605 179.834 151.153ZM184.09 149.76V154.108H182.979V146.88H184.052V148.009H184.146C184.316 147.642 184.573 147.347 184.918 147.124C185.263 146.898 185.709 146.786 186.255 146.786C186.744 146.786 187.172 146.886 187.539 147.087C187.906 147.284 188.192 147.586 188.396 147.99C188.6 148.392 188.702 148.9 188.702 149.515V154.108H187.591V149.59C187.591 149.022 187.444 148.58 187.149 148.263C186.854 147.943 186.449 147.783 185.935 147.783C185.58 147.783 185.263 147.86 184.984 148.014C184.708 148.168 184.49 148.392 184.33 148.687C184.17 148.982 184.09 149.339 184.09 149.76ZM191.842 144.47V154.108H190.731V144.47H191.842ZM196.813 154.259C196.16 154.259 195.588 154.104 195.095 153.793C194.606 153.482 194.223 153.048 193.947 152.489C193.674 151.931 193.537 151.278 193.537 150.532C193.537 149.779 193.674 149.121 193.947 148.56C194.223 147.998 194.606 147.562 195.095 147.251C195.588 146.941 196.16 146.786 196.813 146.786C197.465 146.786 198.036 146.941 198.526 147.251C199.018 147.562 199.401 147.998 199.674 148.56C199.95 149.121 200.088 149.779 200.088 150.532C200.088 151.278 199.95 151.931 199.674 152.489C199.401 153.048 199.018 153.482 198.526 153.793C198.036 154.104 197.465 154.259 196.813 154.259ZM196.813 153.261C197.308 153.261 197.716 153.134 198.036 152.88C198.356 152.626 198.593 152.292 198.747 151.878C198.901 151.463 198.978 151.015 198.978 150.532C198.978 150.048 198.901 149.598 198.747 149.181C198.593 148.764 198.356 148.426 198.036 148.169C197.716 147.912 197.308 147.783 196.813 147.783C196.317 147.783 195.909 147.912 195.589 148.169C195.269 148.426 195.032 148.764 194.879 149.181C194.725 149.598 194.648 150.048 194.648 150.532C194.648 151.015 194.725 151.463 194.879 151.878C195.032 152.292 195.269 152.626 195.589 152.88C195.909 153.134 196.317 153.261 196.813 153.261ZM204.72 154.259C204.042 154.259 203.459 154.099 202.969 153.779C202.48 153.459 202.104 153.018 201.84 152.456C201.576 151.895 201.445 151.253 201.445 150.532C201.445 149.797 201.58 149.15 201.849 148.588C202.122 148.023 202.502 147.582 202.988 147.266C203.478 146.946 204.049 146.786 204.701 146.786C205.21 146.786 205.668 146.88 206.075 147.068C206.483 147.256 206.817 147.52 207.078 147.859C207.338 148.197 207.5 148.593 207.563 149.044H206.452C206.367 148.715 206.179 148.423 205.887 148.169C205.599 147.912 205.21 147.783 204.72 147.783C204.287 147.783 203.908 147.896 203.581 148.122C203.258 148.345 203.006 148.66 202.824 149.068C202.645 149.473 202.555 149.948 202.555 150.494C202.555 151.052 202.643 151.539 202.819 151.953C202.998 152.367 203.249 152.689 203.572 152.918C203.898 153.147 204.281 153.261 204.72 153.261C205.009 153.261 205.271 153.211 205.506 153.111C205.741 153.01 205.941 152.866 206.104 152.678C206.267 152.489 206.383 152.263 206.452 152H207.563C207.5 152.427 207.345 152.811 207.097 153.153C206.852 153.492 206.527 153.762 206.123 153.962C205.721 154.16 205.253 154.259 204.72 154.259ZM210.222 151.473L210.203 150.099H210.429L213.591 146.88H214.965L211.596 150.287H211.502L210.222 151.473ZM209.186 154.108V144.47H210.297V154.108H209.186ZM213.779 154.108L210.956 150.532L211.746 149.76L215.191 154.108H213.779ZM221.233 144.47V154.108H220.122V144.47H221.233ZM226.298 154.259C225.601 154.259 225 154.105 224.495 153.798C223.993 153.487 223.606 153.054 223.333 152.499C223.063 151.94 222.928 151.291 222.928 150.55C222.928 149.81 223.063 149.157 223.333 148.593C223.606 148.025 223.985 147.582 224.472 147.266C224.961 146.946 225.532 146.786 226.185 146.786C226.561 146.786 226.933 146.848 227.3 146.974C227.667 147.099 228.001 147.303 228.302 147.586C228.604 147.865 228.844 148.235 229.022 148.696C229.201 149.157 229.291 149.725 229.291 150.4V150.87H223.719V149.91H228.161C228.161 149.503 228.08 149.139 227.916 148.819C227.756 148.499 227.527 148.246 227.229 148.061C226.934 147.876 226.586 147.783 226.185 147.783C225.742 147.783 225.359 147.893 225.036 148.113C224.716 148.329 224.47 148.611 224.297 148.96C224.125 149.308 224.039 149.681 224.039 150.08V150.72C224.039 151.266 224.133 151.728 224.321 152.108C224.512 152.485 224.778 152.772 225.116 152.969C225.455 153.164 225.849 153.261 226.298 153.261C226.589 153.261 226.853 153.22 227.088 153.139C227.327 153.054 227.532 152.929 227.705 152.762C227.877 152.593 228.011 152.383 228.105 152.132L229.178 152.433C229.065 152.797 228.875 153.117 228.608 153.393C228.342 153.666 228.012 153.879 227.62 154.033C227.228 154.184 226.787 154.259 226.298 154.259ZM233.898 156.97C233.361 156.97 232.9 156.901 232.514 156.762C232.128 156.628 231.807 156.449 231.55 156.226C231.295 156.006 231.093 155.771 230.943 155.52L231.827 154.899C231.928 155.031 232.055 155.181 232.208 155.351C232.362 155.523 232.572 155.672 232.839 155.798C233.109 155.926 233.462 155.991 233.898 155.991C234.481 155.991 234.963 155.849 235.343 155.567C235.722 155.285 235.912 154.842 235.912 154.24V152.772H235.818C235.736 152.903 235.62 153.067 235.47 153.261C235.322 153.452 235.109 153.623 234.83 153.774C234.554 153.922 234.18 153.995 233.71 153.995C233.126 153.995 232.602 153.857 232.138 153.581C231.677 153.305 231.311 152.903 231.041 152.376C230.775 151.849 230.641 151.209 230.641 150.456C230.641 149.716 230.772 149.071 231.032 148.522C231.292 147.97 231.655 147.543 232.119 147.242C232.583 146.938 233.12 146.786 233.729 146.786C234.199 146.786 234.572 146.864 234.849 147.021C235.128 147.175 235.341 147.35 235.489 147.548C235.639 147.742 235.755 147.902 235.837 148.028H235.95V146.88H237.023V154.315C237.023 154.936 236.882 155.442 236.599 155.831C236.32 156.223 235.944 156.51 235.47 156.692C234.999 156.877 234.475 156.97 233.898 156.97ZM233.86 152.998C234.306 152.998 234.682 152.896 234.99 152.692C235.297 152.488 235.531 152.194 235.691 151.812C235.851 151.429 235.931 150.971 235.931 150.437C235.931 149.917 235.853 149.457 235.696 149.059C235.539 148.66 235.307 148.348 234.999 148.122C234.692 147.896 234.312 147.783 233.86 147.783C233.39 147.783 232.998 147.902 232.684 148.141C232.373 148.379 232.139 148.699 231.983 149.101C231.829 149.503 231.752 149.948 231.752 150.437C231.752 150.939 231.83 151.383 231.987 151.769C232.147 152.152 232.383 152.453 232.693 152.673C233.007 152.889 233.396 152.998 233.86 152.998ZM242.087 154.259C241.39 154.259 240.789 154.105 240.284 153.798C239.782 153.487 239.395 153.054 239.122 152.499C238.852 151.94 238.717 151.291 238.717 150.55C238.717 149.81 238.852 149.157 239.122 148.593C239.395 148.025 239.774 147.582 240.261 147.266C240.75 146.946 241.321 146.786 241.974 146.786C242.35 146.786 242.722 146.848 243.089 146.974C243.456 147.099 243.79 147.303 244.091 147.586C244.393 147.865 244.633 148.235 244.811 148.696C244.99 149.157 245.08 149.725 245.08 150.4V150.87H239.508V149.91H243.95C243.95 149.503 243.869 149.139 243.705 148.819C243.545 148.499 243.316 148.246 243.018 148.061C242.723 147.876 242.375 147.783 241.974 147.783C241.531 147.783 241.148 147.893 240.825 148.113C240.505 148.329 240.259 148.611 240.086 148.96C239.914 149.308 239.828 149.681 239.828 150.08V150.72C239.828 151.266 239.922 151.728 240.11 152.108C240.301 152.485 240.566 152.772 240.905 152.969C241.244 153.164 241.638 153.261 242.087 153.261C242.378 153.261 242.642 153.22 242.877 153.139C243.116 153.054 243.321 152.929 243.494 152.762C243.666 152.593 243.8 152.383 243.894 152.132L244.967 152.433C244.854 152.797 244.664 153.117 244.397 153.393C244.131 153.666 243.801 153.879 243.409 154.033C243.017 154.184 242.576 154.259 242.087 154.259ZM247.88 149.76V154.108H246.769V146.88H247.842V148.009H247.936C248.106 147.642 248.363 147.347 248.708 147.124C249.053 146.898 249.499 146.786 250.045 146.786C250.534 146.786 250.962 146.886 251.329 147.087C251.696 147.284 251.982 147.586 252.186 147.99C252.39 148.392 252.492 148.9 252.492 149.515V154.108H251.381V149.59C251.381 149.022 251.234 148.58 250.939 148.263C250.644 147.943 250.239 147.783 249.725 147.783C249.37 147.783 249.053 147.86 248.774 148.014C248.498 148.168 248.28 148.392 248.12 148.687C247.96 148.982 247.88 149.339 247.88 149.76ZM257.251 154.259C256.648 154.259 256.117 154.107 255.655 153.802C255.194 153.495 254.833 153.062 254.573 152.503C254.313 151.942 254.182 151.278 254.182 150.513C254.182 149.754 254.313 149.095 254.573 148.536C254.833 147.978 255.196 147.546 255.66 147.242C256.124 146.938 256.661 146.786 257.27 146.786C257.74 146.786 258.112 146.864 258.385 147.021C258.661 147.175 258.871 147.35 259.016 147.548C259.163 147.742 259.278 147.902 259.359 148.028H259.453V144.47H260.564V154.108H259.491V152.998H259.359C259.278 153.129 259.161 153.296 259.011 153.496C258.86 153.694 258.645 153.871 258.366 154.028C258.087 154.182 257.715 154.259 257.251 154.259ZM257.401 153.261C257.847 153.261 258.223 153.145 258.531 152.913C258.838 152.678 259.072 152.353 259.232 151.939C259.392 151.521 259.472 151.04 259.472 150.494C259.472 149.954 259.394 149.482 259.237 149.077C259.08 148.67 258.848 148.353 258.54 148.127C258.233 147.898 257.853 147.783 257.401 147.783C256.931 147.783 256.539 147.904 256.225 148.146C255.914 148.384 255.681 148.709 255.524 149.12C255.37 149.528 255.293 149.986 255.293 150.494C255.293 151.008 255.371 151.476 255.528 151.896C255.688 152.314 255.924 152.646 256.234 152.894C256.548 153.139 256.937 153.261 257.401 153.261ZM264.879 154.278C264.421 154.278 264.006 154.191 263.632 154.019C263.259 153.843 262.962 153.591 262.743 153.261C262.523 152.929 262.413 152.527 262.413 152.056C262.413 151.642 262.495 151.307 262.658 151.049C262.821 150.789 263.039 150.585 263.312 150.437C263.585 150.29 263.886 150.18 264.216 150.108C264.548 150.033 264.882 149.973 265.218 149.929C265.657 149.873 266.014 149.83 266.286 149.802C266.563 149.771 266.763 149.719 266.889 149.647C267.017 149.575 267.082 149.449 267.082 149.27V149.233C267.082 148.768 266.955 148.408 266.701 148.15C266.45 147.893 266.068 147.764 265.557 147.764C265.027 147.764 264.611 147.88 264.31 148.113C264.009 148.345 263.797 148.593 263.675 148.856L262.62 148.48C262.809 148.04 263.06 147.699 263.373 147.454C263.69 147.206 264.035 147.033 264.409 146.936C264.785 146.836 265.155 146.786 265.519 146.786C265.752 146.786 266.018 146.814 266.319 146.87C266.624 146.924 266.917 147.035 267.199 147.204C267.485 147.374 267.722 147.629 267.91 147.971C268.098 148.313 268.192 148.772 268.192 149.346V154.108H267.082V153.129H267.025C266.95 153.286 266.825 153.454 266.649 153.633C266.473 153.812 266.239 153.964 265.948 154.089C265.656 154.215 265.3 154.278 264.879 154.278ZM265.049 153.28C265.488 153.28 265.858 153.194 266.159 153.021C266.464 152.849 266.693 152.626 266.846 152.353C267.003 152.08 267.082 151.793 267.082 151.492V150.475C267.035 150.532 266.931 150.583 266.771 150.63C266.614 150.674 266.432 150.714 266.225 150.748C266.021 150.779 265.822 150.808 265.628 150.833C265.436 150.855 265.281 150.874 265.162 150.889C264.873 150.927 264.603 150.988 264.352 151.073C264.104 151.154 263.904 151.278 263.75 151.445C263.599 151.608 263.524 151.83 263.524 152.113C263.524 152.499 263.667 152.791 263.952 152.988C264.241 153.183 264.606 153.28 265.049 153.28ZM270.22 154.108V146.88H271.293V147.971H271.368C271.5 147.614 271.738 147.324 272.083 147.101C272.428 146.878 272.817 146.767 273.25 146.767C273.332 146.767 273.434 146.768 273.556 146.771C273.679 146.775 273.771 146.779 273.834 146.786V147.915C273.796 147.906 273.71 147.891 273.575 147.873C273.443 147.851 273.304 147.84 273.156 147.84C272.805 147.84 272.491 147.913 272.215 148.061C271.942 148.205 271.726 148.406 271.566 148.663C271.409 148.917 271.33 149.208 271.33 149.534V154.108H270.22ZM276.086 156.819C275.897 156.819 275.73 156.803 275.582 156.772C275.435 156.744 275.333 156.715 275.276 156.687L275.559 155.708C275.828 155.777 276.067 155.802 276.274 155.784C276.481 155.765 276.665 155.672 276.825 155.506C276.988 155.343 277.137 155.078 277.272 154.711L277.479 154.146L274.806 146.88H276.01L278.006 152.64H278.081L280.077 146.88H281.281L278.213 155.162C278.075 155.536 277.904 155.845 277.7 156.089C277.496 156.337 277.259 156.521 276.989 156.64C276.723 156.759 276.421 156.819 276.086 156.819ZM289.411 154.259C288.733 154.259 288.15 154.099 287.66 153.779C287.171 153.459 286.794 153.018 286.531 152.456C286.267 151.895 286.136 151.253 286.136 150.532C286.136 149.797 286.271 149.15 286.54 148.588C286.813 148.023 287.193 147.582 287.679 147.266C288.169 146.946 288.74 146.786 289.392 146.786C289.901 146.786 290.359 146.88 290.766 147.068C291.174 147.256 291.508 147.52 291.769 147.859C292.029 148.197 292.191 148.593 292.254 149.044H291.143C291.058 148.715 290.87 148.423 290.578 148.169C290.29 147.912 289.901 147.783 289.411 147.783C288.978 147.783 288.598 147.896 288.272 148.122C287.949 148.345 287.696 148.66 287.515 149.068C287.336 149.473 287.246 149.948 287.246 150.494C287.246 151.052 287.334 151.539 287.51 151.953C287.689 152.367 287.94 152.689 288.263 152.918C288.589 153.147 288.972 153.261 289.411 153.261C289.7 153.261 289.962 153.211 290.197 153.111C290.432 153.01 290.632 152.866 290.795 152.678C290.958 152.489 291.074 152.263 291.143 152H292.254C292.191 152.427 292.036 152.811 291.788 153.153C291.543 153.492 291.218 153.762 290.813 153.962C290.412 154.16 289.944 154.259 289.411 154.259ZM296.004 154.278C295.546 154.278 295.131 154.191 294.757 154.019C294.384 153.843 294.087 153.591 293.868 153.261C293.648 152.929 293.538 152.527 293.538 152.056C293.538 151.642 293.62 151.307 293.783 151.049C293.946 150.789 294.164 150.585 294.437 150.437C294.71 150.29 295.011 150.18 295.341 150.108C295.673 150.033 296.007 149.973 296.343 149.929C296.782 149.873 297.138 149.83 297.411 149.802C297.688 149.771 297.888 149.719 298.014 149.647C298.142 149.575 298.207 149.449 298.207 149.27V149.233C298.207 148.768 298.08 148.408 297.826 148.15C297.575 147.893 297.193 147.764 296.682 147.764C296.152 147.764 295.736 147.88 295.435 148.113C295.134 148.345 294.922 148.593 294.8 148.856L293.745 148.48C293.934 148.04 294.185 147.699 294.498 147.454C294.815 147.206 295.16 147.033 295.534 146.936C295.91 146.836 296.28 146.786 296.644 146.786C296.876 146.786 297.143 146.814 297.444 146.87C297.749 146.924 298.042 147.035 298.324 147.204C298.61 147.374 298.847 147.629 299.035 147.971C299.223 148.313 299.317 148.772 299.317 149.346V154.108H298.207V153.129H298.15C298.075 153.286 297.949 153.454 297.774 153.633C297.598 153.812 297.364 153.964 297.073 154.089C296.781 154.215 296.425 154.278 296.004 154.278ZM296.174 153.28C296.613 153.28 296.983 153.194 297.284 153.021C297.589 152.849 297.818 152.626 297.971 152.353C298.128 152.08 298.207 151.793 298.207 151.492V150.475C298.16 150.532 298.056 150.583 297.896 150.63C297.739 150.674 297.557 150.714 297.35 150.748C297.146 150.779 296.947 150.808 296.753 150.833C296.561 150.855 296.406 150.874 296.287 150.889C295.998 150.927 295.728 150.988 295.477 151.073C295.229 151.154 295.029 151.278 294.875 151.445C294.724 151.608 294.649 151.83 294.649 152.113C294.649 152.499 294.792 152.791 295.077 152.988C295.366 153.183 295.731 153.28 296.174 153.28ZM301.345 154.108V146.88H302.418V147.971H302.493C302.625 147.614 302.863 147.324 303.208 147.101C303.553 146.878 303.942 146.767 304.375 146.767C304.457 146.767 304.559 146.768 304.681 146.771C304.804 146.775 304.896 146.779 304.959 146.786V147.915C304.921 147.906 304.835 147.891 304.7 147.873C304.568 147.851 304.429 147.84 304.281 147.84C303.93 147.84 303.616 147.913 303.34 148.061C303.067 148.205 302.851 148.406 302.69 148.663C302.534 148.917 302.455 149.208 302.455 149.534V154.108H301.345ZM308.785 154.259C308.183 154.259 307.651 154.107 307.19 153.802C306.728 153.495 306.368 153.062 306.107 152.503C305.847 151.942 305.717 151.278 305.717 150.513C305.717 149.754 305.847 149.095 306.107 148.536C306.368 147.978 306.73 147.546 307.194 147.242C307.659 146.938 308.195 146.786 308.804 146.786C309.274 146.786 309.646 146.864 309.919 147.021C310.195 147.175 310.405 147.35 310.55 147.548C310.697 147.742 310.812 147.902 310.893 148.028H310.987V144.47H312.098V154.108H311.025V152.998H310.893C310.812 153.129 310.696 153.296 310.545 153.496C310.394 153.694 310.179 153.871 309.9 154.028C309.621 154.182 309.249 154.259 308.785 154.259ZM308.935 153.261C309.381 153.261 309.757 153.145 310.065 152.913C310.372 152.678 310.606 152.353 310.766 151.939C310.926 151.521 311.006 151.04 311.006 150.494C311.006 149.954 310.928 149.482 310.771 149.077C310.614 148.67 310.382 148.353 310.074 148.127C309.767 147.898 309.387 147.783 308.935 147.783C308.465 147.783 308.073 147.904 307.759 148.146C307.448 148.384 307.215 148.709 307.058 149.12C306.904 149.528 306.827 149.986 306.827 150.494C306.827 151.008 306.906 151.476 307.062 151.896C307.222 152.314 307.458 152.646 307.768 152.894C308.082 153.139 308.471 153.261 308.935 153.261ZM319.407 148.499L318.409 148.781C318.346 148.615 318.254 148.453 318.131 148.296C318.012 148.136 317.849 148.004 317.642 147.901C317.435 147.797 317.17 147.746 316.846 147.746C316.404 147.746 316.035 147.848 315.741 148.051C315.449 148.252 315.303 148.508 315.303 148.819C315.303 149.095 315.403 149.313 315.604 149.473C315.805 149.633 316.119 149.766 316.545 149.873L317.618 150.136C318.265 150.293 318.746 150.533 319.063 150.856C319.38 151.176 319.538 151.589 319.538 152.094C319.538 152.508 319.419 152.878 319.181 153.205C318.945 153.531 318.616 153.788 318.192 153.976C317.769 154.165 317.276 154.259 316.715 154.259C315.977 154.259 315.367 154.099 314.884 153.779C314.401 153.459 314.095 152.991 313.966 152.376L315.02 152.113C315.121 152.502 315.311 152.794 315.59 152.988C315.872 153.183 316.241 153.28 316.696 153.28C317.214 153.28 317.625 153.17 317.929 152.951C318.236 152.728 318.39 152.461 318.39 152.15C318.39 151.899 318.302 151.689 318.126 151.52C317.951 151.347 317.681 151.219 317.317 151.134L316.112 150.852C315.45 150.695 314.964 150.452 314.653 150.122C314.346 149.79 314.192 149.374 314.192 148.875C314.192 148.467 314.307 148.106 314.536 147.793C314.768 147.479 315.083 147.233 315.482 147.054C315.883 146.875 316.338 146.786 316.846 146.786C317.562 146.786 318.123 146.942 318.531 147.256C318.942 147.57 319.234 147.984 319.407 148.499ZM327.065 154.278C326.606 154.278 326.191 154.191 325.817 154.019C325.444 153.843 325.148 153.591 324.928 153.261C324.708 152.929 324.599 152.527 324.599 152.056C324.599 151.642 324.68 151.307 324.843 151.049C325.006 150.789 325.224 150.585 325.497 150.437C325.77 150.29 326.072 150.18 326.401 150.108C326.734 150.033 327.068 149.973 327.403 149.929C327.843 149.873 328.199 149.83 328.472 149.802C328.748 149.771 328.949 149.719 329.074 149.647C329.203 149.575 329.267 149.449 329.267 149.27V149.233C329.267 148.768 329.14 148.408 328.886 148.15C328.635 147.893 328.254 147.764 327.742 147.764C327.212 147.764 326.796 147.88 326.495 148.113C326.194 148.345 325.982 148.593 325.86 148.856L324.806 148.48C324.994 148.04 325.245 147.699 325.559 147.454C325.875 147.206 326.221 147.033 326.594 146.936C326.97 146.836 327.341 146.786 327.705 146.786C327.937 146.786 328.203 146.814 328.505 146.87C328.809 146.924 329.102 147.035 329.385 147.204C329.67 147.374 329.907 147.629 330.095 147.971C330.284 148.313 330.378 148.772 330.378 149.346V154.108H329.267V153.129H329.211C329.135 153.286 329.01 153.454 328.834 153.633C328.658 153.812 328.425 153.964 328.133 154.089C327.841 154.215 327.485 154.278 327.065 154.278ZM327.234 153.28C327.673 153.28 328.043 153.194 328.345 153.021C328.649 152.849 328.878 152.626 329.032 152.353C329.189 152.08 329.267 151.793 329.267 151.492V150.475C329.22 150.532 329.116 150.583 328.956 150.63C328.8 150.674 328.618 150.714 328.41 150.748C328.207 150.779 328.007 150.808 327.813 150.833C327.621 150.855 327.466 150.874 327.347 150.889C327.058 150.927 326.788 150.988 326.537 151.073C326.29 151.154 326.089 151.278 325.935 151.445C325.784 151.608 325.709 151.83 325.709 152.113C325.709 152.499 325.852 152.791 326.137 152.988C326.426 153.183 326.792 153.28 327.234 153.28ZM333.515 149.76V154.108H332.405V146.88H333.478V148.009H333.572C333.741 147.642 333.999 147.347 334.344 147.124C334.689 146.898 335.134 146.786 335.68 146.786C336.17 146.786 336.598 146.886 336.965 147.087C337.332 147.284 337.618 147.586 337.822 147.99C338.025 148.392 338.127 148.9 338.127 149.515V154.108H337.017V149.59C337.017 149.022 336.869 148.58 336.574 148.263C336.279 147.943 335.875 147.783 335.36 147.783C335.006 147.783 334.689 147.86 334.41 148.014C334.133 148.168 333.915 148.392 333.755 148.687C333.595 148.982 333.515 149.339 333.515 149.76ZM342.886 154.259C342.284 154.259 341.752 154.107 341.291 153.802C340.83 153.495 340.469 153.062 340.209 152.503C339.948 151.942 339.818 151.278 339.818 150.513C339.818 149.754 339.948 149.095 340.209 148.536C340.469 147.978 340.831 147.546 341.296 147.242C341.76 146.938 342.297 146.786 342.905 146.786C343.376 146.786 343.748 146.864 344.021 147.021C344.297 147.175 344.507 147.35 344.651 147.548C344.799 147.742 344.913 147.902 344.995 148.028H345.089V144.47H346.2V154.108H345.127V152.998H344.995C344.913 153.129 344.797 153.296 344.647 153.496C344.496 153.694 344.281 153.871 344.002 154.028C343.723 154.182 343.351 154.259 342.886 154.259ZM343.037 153.261C343.483 153.261 343.859 153.145 344.167 152.913C344.474 152.678 344.708 152.353 344.868 151.939C345.028 151.521 345.108 151.04 345.108 150.494C345.108 149.954 345.029 149.482 344.872 149.077C344.716 148.67 344.483 148.353 344.176 148.127C343.868 147.898 343.489 147.783 343.037 147.783C342.566 147.783 342.174 147.904 341.861 148.146C341.55 148.384 341.316 148.709 341.159 149.12C341.006 149.528 340.929 149.986 340.929 150.494C340.929 151.008 341.007 151.476 341.164 151.896C341.324 152.314 341.559 152.646 341.87 152.894C342.184 153.139 342.573 153.261 343.037 153.261ZM357.235 148.499L356.238 148.781C356.175 148.615 356.082 148.453 355.96 148.296C355.841 148.136 355.678 148.004 355.471 147.901C355.263 147.797 354.998 147.746 354.675 147.746C354.233 147.746 353.864 147.848 353.569 148.051C353.278 148.252 353.132 148.508 353.132 148.819C353.132 149.095 353.232 149.313 353.433 149.473C353.634 149.633 353.947 149.766 354.374 149.873L355.447 150.136C356.093 150.293 356.575 150.533 356.892 150.856C357.209 151.176 357.367 151.589 357.367 152.094C357.367 152.508 357.248 152.878 357.009 153.205C356.774 153.531 356.445 153.788 356.021 153.976C355.598 154.165 355.105 154.259 354.543 154.259C353.806 154.259 353.196 154.099 352.713 153.779C352.23 153.459 351.924 152.991 351.795 152.376L352.849 152.113C352.95 152.502 353.139 152.794 353.419 152.988C353.701 153.183 354.07 153.28 354.525 153.28C355.042 153.28 355.453 153.17 355.758 152.951C356.065 152.728 356.219 152.461 356.219 152.15C356.219 151.899 356.131 151.689 355.955 151.52C355.78 151.347 355.51 151.219 355.146 151.134L353.941 150.852C353.279 150.695 352.793 150.452 352.482 150.122C352.175 149.79 352.021 149.374 352.021 148.875C352.021 148.467 352.136 148.106 352.365 147.793C352.597 147.479 352.912 147.233 353.31 147.054C353.712 146.875 354.167 146.786 354.675 146.786C355.391 146.786 355.952 146.942 356.36 147.256C356.771 147.57 357.063 147.984 357.235 148.499ZM360.074 151.473L360.055 150.099H360.281L363.444 146.88H364.818L361.448 150.287H361.354L360.074 151.473ZM359.039 154.108V144.47H360.15V154.108H359.039ZM363.632 154.108L360.808 150.532L361.599 149.76L365.044 154.108H363.632ZM366.248 154.108V146.88H367.358V154.108H366.248ZM366.812 145.675C366.596 145.675 366.409 145.601 366.252 145.454C366.099 145.306 366.022 145.129 366.022 144.922C366.022 144.715 366.099 144.538 366.252 144.39C366.409 144.243 366.596 144.169 366.812 144.169C367.029 144.169 367.214 144.243 367.368 144.39C367.524 144.538 367.603 144.715 367.603 144.922C367.603 145.129 367.524 145.306 367.368 145.454C367.214 145.601 367.029 145.675 366.812 145.675ZM370.503 149.76V154.108H369.392V146.88H370.465V148.009H370.559C370.729 147.642 370.986 147.347 371.331 147.124C371.676 146.898 372.122 146.786 372.668 146.786C373.157 146.786 373.586 146.886 373.953 147.087C374.32 147.284 374.605 147.586 374.809 147.99C375.013 148.392 375.115 148.9 375.115 149.515V154.108H374.004V149.59C374.004 149.022 373.857 148.58 373.562 148.263C373.267 147.943 372.862 147.783 372.348 147.783C371.993 147.783 371.676 147.86 371.397 148.014C371.121 148.168 370.903 148.392 370.743 148.687C370.583 148.982 370.503 149.339 370.503 149.76ZM382.265 148.499L381.267 148.781C381.204 148.615 381.112 148.453 380.989 148.296C380.87 148.136 380.707 148.004 380.5 147.901C380.293 147.797 380.028 147.746 379.705 147.746C379.262 147.746 378.894 147.848 378.599 148.051C378.307 148.252 378.161 148.508 378.161 148.819C378.161 149.095 378.261 149.313 378.462 149.473C378.663 149.633 378.977 149.766 379.403 149.873L380.476 150.136C381.123 150.293 381.604 150.533 381.921 150.856C382.238 151.176 382.397 151.589 382.397 152.094C382.397 152.508 382.277 152.878 382.039 153.205C381.804 153.531 381.474 153.788 381.051 153.976C380.627 154.165 380.134 154.259 379.573 154.259C378.836 154.259 378.225 154.099 377.742 153.779C377.259 153.459 376.953 152.991 376.824 152.376L377.879 152.113C377.979 152.502 378.169 152.794 378.448 152.988C378.73 153.183 379.099 153.28 379.554 153.28C380.072 153.28 380.483 153.17 380.787 152.951C381.094 152.728 381.248 152.461 381.248 152.15C381.248 151.899 381.16 151.689 380.985 151.52C380.809 151.347 380.539 151.219 380.175 151.134L378.97 150.852C378.308 150.695 377.822 150.452 377.512 150.122C377.204 149.79 377.05 149.374 377.05 148.875C377.05 148.467 377.165 148.106 377.394 147.793C377.626 147.479 377.941 147.233 378.34 147.054C378.741 146.875 379.196 146.786 379.705 146.786C380.42 146.786 380.982 146.942 381.389 147.256C381.8 147.57 382.092 147.984 382.265 148.499Z" fill="#E8E8E8"/>
<mask id="path-11-inside-2_389_14880" fill="white">
<path d="M337.92 2.40848H481.018C481.018 2.40848 425.818 36.5285 395.264 69.0629C370.592 95.3349 337.92 146.203 337.92 146.203C337.92 146.203 346.289 99.4982 345.811 69.0629C345.397 42.6722 337.92 2.40848 337.92 2.40848Z"/>
</mask>
<path d="M337.92 2.40848H481.018C481.018 2.40848 425.818 36.5285 395.264 69.0629C370.592 95.3349 337.92 146.203 337.92 146.203C337.92 146.203 346.289 99.4982 345.811 69.0629C345.397 42.6722 337.92 2.40848 337.92 2.40848Z" fill="#010B7B"/>
<path d="M337.92 2.06923C337.92 2.29539 337.92 2.52156 337.92 2.74773C346.136 3.02696 354.353 3.29699 362.57 3.55781C402.052 4.81111 441.535 5.85177 481.018 6.6798L478.772 -1.22479C447.602 17.9071 417.217 38.3489 390.879 64.9449C368.419 89.119 350.214 115.612 332.316 142.604L344.476 147.378C345.984 138.848 347.274 130.357 348.421 121.851C350.695 104.461 352.253 86.9109 351.289 68.9769C350.319 54.3499 347.659 40.3057 344.504 26.3555C342.653 18.3032 340.573 10.2363 338.253 2.34654C338.031 2.38783 337.809 2.42912 337.586 2.47042C338.181 10.6516 338.705 18.9338 339.172 27.1143C339.942 41.2473 340.71 55.4223 340.334 69.149C339.681 85.9322 337.395 103.046 335.16 120.071C334.041 128.383 332.772 136.847 331.364 145.028L343.524 149.802C360.888 123.311 378.922 96.4654 399.649 73.181C423.842 47.5762 453.538 26.0124 483.264 6.04175L496.017 -1.98379L481.018 -1.86285C441.535 -1.03482 402.052 0.00584841 362.57 1.25915C354.353 1.51997 346.136 1.78999 337.92 2.06923ZM337.92 2.74773V2.06923L337.472 2.08446L337.586 2.47042L338.253 2.34654L337.92 2.74773Z" fill="#020C7B" mask="url(#path-11-inside-2_389_14880)"/>
<path d="M328.5 1.0474C327.76 1.26737 327.02 1.48733 326.28 1.7073C326.967 3.97271 327.646 6.3188 328.308 8.65908C332.752 24.6569 336.932 40.8736 338.883 57.3367V57.3367C341.301 84.0718 338.104 111.119 334.272 137.718C333.91 140.09 333.515 142.574 333.116 144.88C333.553 142.581 333.986 140.103 334.386 137.736C338.639 111.178 342.285 84.2353 340.279 57.1969V57.1969C338.57 40.5248 334.635 24.2155 330.43 8.07709C329.801 5.71369 329.16 3.35833 328.5 1.0474Z" fill="url(#paint1_linear_389_14880)"/>
<path d="M482.341 12.4186C482.653 13.178 482.964 13.9375 483.275 14.6969C480.8 16.2278 478.204 17.883 475.685 19.5077C450.065 36.3072 424.609 53.8375 401.933 76.1417V76.1417C384.744 93.904 369.42 114.393 354.449 135.079C352.557 137.72 350.671 140.377 348.816 143.048C348.816 143.048 348.816 143.048 348.816 143.048C350.645 140.349 352.505 137.664 354.372 134.994C369.149 114.078 384.257 93.3736 401.351 75.2701V75.2701C423.926 52.5142 449.242 34.5915 474.764 17.3648C477.277 15.6965 479.855 14.0043 482.341 12.4186Z" fill="url(#paint2_linear_389_14880)"/>
<g filter="url(#filter0_i_389_14880)">
<path d="M315.517 19.3331C315.63 14.0848 315.268 10.2526 314.428 7.1017C313.635 4.12662 312.272 1.21948 309.697 -1.99452C306.961 -5.40785 304.427 -7.11329 301.808 -7.96739C299.022 -8.87589 295.687 -8.96528 291.333 -8.20298C290.179 -8.00085 288.003 -7.12402 284.955 -5.43325C283.727 -4.75263 282.449 -3.98864 281.154 -3.1802C284.556 -1.54345 288.098 0.511868 291.305 3.08454C295.519 6.4644 300.266 11.6343 302.4 19.1679L302.707 20.3056C305.694 32.0096 303.285 42.2365 301.482 49.6454C299.388 58.2463 297.972 63.7224 298.817 69.653C300.844 83.8887 308.914 100.032 318.423 110.065C321.358 113.161 323.831 115.937 326.619 118.768C322.121 112.967 318.34 107.268 315.317 100.868C311.184 92.1134 308.788 82.7465 307.272 71.0401C305.515 57.4783 308.188 49.7153 310.741 42.7636C313.017 36.5701 315.27 30.81 315.517 19.3331Z" fill="#020C7B" fill-opacity="0.25"/>
</g>
<g filter="url(#filter1_i_389_14880)">
<path d="M494.303 59.3294C499.162 57.4166 502.539 55.6071 505.107 53.6156C507.532 51.7352 509.676 49.3523 511.635 45.7247C513.715 41.872 514.306 38.8622 514.083 36.1014C513.845 33.1647 512.645 30.0332 510.272 26.2824C509.643 25.2879 508.002 23.6043 505.279 21.4229C504.182 20.5448 502.99 19.6515 501.75 18.7588C501.556 22.5478 501.032 26.6279 499.904 30.5959C498.423 35.809 495.504 42.2053 489.412 47.0835L488.486 47.8056C478.895 55.0792 468.585 56.7736 461.094 57.9466C452.397 59.3083 446.828 60.0987 441.711 63.1629C429.428 70.5184 417.717 84.2191 412.167 96.9085C410.454 100.824 408.858 104.188 407.332 107.866C410.926 101.459 414.701 95.7558 419.412 90.488C425.856 83.2834 433.53 77.4569 443.688 71.5487C455.457 64.7041 463.607 64.2016 470.968 63.9013C477.525 63.6337 483.677 63.512 494.303 59.3294Z" fill="#020C7B" fill-opacity="0.25"/>
</g>
<g filter="url(#filter2_i_389_14880)">
<path d="M251.049 -1.35855C249.135 -4.7411 247.96 -7.36449 247.264 -9.70887C246.607 -11.9224 246.258 -14.2883 246.407 -17.2734C246.564 -20.4436 247.226 -22.4312 248.231 -23.8927C249.301 -25.4475 250.934 -26.6578 253.377 -27.665C254.025 -27.932 255.422 -28.112 257.542 -28.063C258.396 -28.0432 259.304 -27.9866 260.237 -27.9073C259.118 -25.6649 258.077 -23.1012 257.386 -20.3159C256.478 -16.6567 255.938 -11.6463 257.539 -5.9977L257.789 -5.15005C260.44 3.51206 265.262 9.34713 268.785 13.5541C272.874 18.4379 275.519 21.5189 277.196 25.6769C281.223 35.658 282.908 48.9702 281.711 58.7964C281.342 61.8287 281.089 64.4925 280.699 67.3016C280.892 61.9658 280.763 56.9442 280.006 51.7272C278.972 44.592 276.853 37.6575 273.466 29.5021C269.543 20.054 265.462 15.9163 261.726 12.2666C258.398 9.015 255.235 6.03823 251.049 -1.35855Z" fill="#020C7B" fill-opacity="0.25"/>
</g>
</g>
<path d="M-1.9504 9.42796C-1.9504 3.14387 3.14387 -1.9504 9.42796 -1.9504H513.545C519.829 -1.9504 524.923 3.14387 524.923 9.42796H521.023C521.023 5.29821 517.675 1.9504 513.545 1.9504H9.42796C5.29821 1.9504 1.9504 5.29821 1.9504 9.42796H-1.9504ZM1.9504 9.42796M522.973 187.142H0H522.973M9.42796 187.142C3.14387 187.142 -1.9504 182.048 -1.9504 175.764V9.42796C-1.9504 3.14387 3.14387 -1.9504 9.42796 -1.9504V1.9504C5.29821 1.9504 1.9504 5.29821 1.9504 9.42796V177.714C1.9504 182.921 5.29821 187.142 9.42796 187.142ZM513.545 -1.9504C519.829 -1.9504 524.923 3.14387 524.923 9.42796V175.764C524.923 182.048 519.829 187.142 513.545 187.142C517.675 187.142 521.023 182.921 521.023 177.714V9.42796C521.023 5.29821 517.675 1.9504 513.545 1.9504V-1.9504Z" fill="url(#paint3_linear_389_14880)" mask="url(#path-1-inside-1_389_14880)"/>
<defs>
<filter id="filter0_i_389_14880" x="281.154" y="-8.71765" width="45.4653" height="129.067" filterUnits="userSpaceOnUse" color-interpolation-filters="sRGB">
<feFlood flood-opacity="0" result="BackgroundImageFix"/>
<feBlend mode="normal" in="SourceGraphic" in2="BackgroundImageFix" result="shape"/>
<feColorMatrix in="SourceAlpha" type="matrix" values="0 0 0 0 0 0 0 0 0 0 0 0 0 0 0 0 0 0 127 0" result="hardAlpha"/>
<feOffset dy="1.58107"/>
<feGaussianBlur stdDeviation="0.790534"/>
<feComposite in2="hardAlpha" operator="arithmetic" k2="-1" k3="1"/>
<feColorMatrix type="matrix" values="0 0 0 0 0 0 0 0 0 0 0 0 0 0 0 0 0 0 0.25 0"/>
<feBlend mode="normal" in2="shape" result="effect1_innerShadow_389_14880"/>
</filter>
<filter id="filter1_i_389_14880" x="407.332" y="18.7588" width="106.795" height="90.6885" filterUnits="userSpaceOnUse" color-interpolation-filters="sRGB">
<feFlood flood-opacity="0" result="BackgroundImageFix"/>
<feBlend mode="normal" in="SourceGraphic" in2="BackgroundImageFix" result="shape"/>
<feColorMatrix in="SourceAlpha" type="matrix" values="0 0 0 0 0 0 0 0 0 0 0 0 0 0 0 0 0 0 127 0" result="hardAlpha"/>
<feOffset dy="1.58107"/>
<feGaussianBlur stdDeviation="0.790534"/>
<feComposite in2="hardAlpha" operator="arithmetic" k2="-1" k3="1"/>
<feColorMatrix type="matrix" values="0 0 0 0 0 0 0 0 0 0 0 0 0 0 0 0 0 0 0.25 0"/>
<feBlend mode="normal" in2="shape" result="effect1_innerShadow_389_14880"/>
</filter>
<filter id="filter2_i_389_14880" x="246.373" y="-28.071" width="35.7158" height="97.7411" filterUnits="userSpaceOnUse" color-interpolation-filters="sRGB">
<feFlood flood-opacity="0" result="BackgroundImageFix"/>
<feBlend mode="normal" in="SourceGraphic" in2="BackgroundImageFix" result="shape"/>
<feColorMatrix in="SourceAlpha" type="matrix" values="0 0 0 0 0 0 0 0 0 0 0 0 0 0 0 0 0 0 127 0" result="hardAlpha"/>
<feOffset dy="2.36856"/>
<feGaussianBlur stdDeviation="1.18428"/>
<feComposite in2="hardAlpha" operator="arithmetic" k2="-1" k3="1"/>
<feColorMatrix type="matrix" values="0 0 0 0 0 0 0 0 0 0 0 0 0 0 0 0 0 0 0.25 0"/>
<feBlend mode="normal" in2="shape" result="effect1_innerShadow_389_14880"/>
</filter>
<linearGradient id="paint0_linear_389_14880" x1="261.487" y1="132.49" x2="261.487" y2="-43.0593" gradientUnits="userSpaceOnUse">
<stop stop-color="#010B7B"/>
<stop offset="1" stop-color="#0060DE"/>
</linearGradient>
<linearGradient id="paint1_linear_389_14880" x1="333.485" y1="144.88" x2="337.744" y2="26.7416" gradientUnits="userSpaceOnUse">
<stop stop-color="#001FE8"/>
<stop offset="1" stop-color="#011599"/>
</linearGradient>
<linearGradient id="paint2_linear_389_14880" x1="407.183" y1="85.7843" x2="393.352" y2="57.8473" gradientUnits="userSpaceOnUse">
<stop stop-color="#001FE8"/>
<stop offset="1" stop-color="#011599"/>
</linearGradient>
<linearGradient id="paint3_linear_389_14880" x1="261.487" y1="0" x2="261.487" y2="171.409" gradientUnits="userSpaceOnUse">
<stop stop-color="#ABC3FF"/>
<stop offset="0.128319" stop-color="#566FE3"/>
<stop offset="0.247788" stop-color="#001FE8"/>
<stop offset="0.402655" stop-color="#020C7B"/>
<stop offset="1" stop-color="#010B7B"/>
</linearGradient>
<clipPath id="clip0_389_14880">
<path d="M0 9.42797C0 4.22105 4.22104 0 9.42796 0H513.545C518.752 0 522.973 4.22104 522.973 9.42796V177.714C522.973 182.921 518.752 187.142 513.545 187.142H9.42798C4.22106 187.142 0 182.921 0 177.714V9.42797Z" fill="white"/>
</clipPath>
</defs>
</svg>
