<svg width="523" height="188" viewBox="0 0 523 188" fill="none" xmlns="http://www.w3.org/2000/svg">
<g clip-path="url(#clip0_389_14898)">
<mask id="path-1-inside-1_389_14898" fill="white">
<path d="M0 9.42797C0 4.22105 4.22104 0 9.42796 0H513.545C518.752 0 522.973 4.22104 522.973 9.42796V177.714C522.973 182.921 518.752 187.142 513.545 187.142H9.42798C4.22106 187.142 0 182.921 0 177.714V9.42797Z"/>
</mask>
<path d="M0 9.42797C0 4.22105 4.22104 0 9.42796 0H513.545C518.752 0 522.973 4.22104 522.973 9.42796V177.714C522.973 182.921 518.752 187.142 513.545 187.142H9.42798C4.22106 187.142 0 182.921 0 177.714V9.42797Z" fill="url(#paint0_linear_389_14898)"/>
<path d="M15.1592 41.2754C15.1592 31.8962 22.7625 24.2929 32.1416 24.2929H66.0844C75.4636 24.2929 83.0669 31.8962 83.0669 41.2754V75.2182C83.0669 84.5973 75.4636 92.2006 66.0844 92.2006H32.1416C22.7625 92.2006 15.1592 84.5973 15.1592 75.2182V41.2754Z" fill="#CECECE" fill-opacity="0.125"/>
<g clip-path="url(#clip1_389_14898)">
<path d="M44.8545 45.5198H37.7842C37.0032 45.5198 36.3701 46.1529 36.3701 46.9339V54.0042C36.3701 54.7852 37.0032 55.4183 37.7842 55.4183H44.8545C45.6354 55.4183 46.2685 54.7852 46.2685 54.0042V46.9339C46.2685 46.1529 45.6354 45.5198 44.8545 45.5198Z" stroke="white" stroke-width="2.82812" stroke-linecap="round" stroke-linejoin="round"/>
<path d="M60.4092 45.5198H53.3389C52.5579 45.5198 51.9248 46.1529 51.9248 46.9339V54.0042C51.9248 54.7852 52.5579 55.4183 53.3389 55.4183H60.4092C61.1901 55.4183 61.8232 54.7852 61.8232 54.0042V46.9339C61.8232 46.1529 61.1901 45.5198 60.4092 45.5198Z" stroke="white" stroke-width="2.82812" stroke-linecap="round" stroke-linejoin="round"/>
<path d="M60.4092 61.0749H53.3389C52.5579 61.0749 51.9248 61.708 51.9248 62.4889V69.5592C51.9248 70.3402 52.5579 70.9733 53.3389 70.9733H60.4092C61.1901 70.9733 61.8232 70.3402 61.8232 69.5592V62.4889C61.8232 61.708 61.1901 61.0749 60.4092 61.0749Z" stroke="white" stroke-width="2.82812" stroke-linecap="round" stroke-linejoin="round"/>
<path d="M44.8545 61.0749H37.7842C37.0032 61.0749 36.3701 61.708 36.3701 62.4889V69.5592C36.3701 70.3402 37.0032 70.9733 37.7842 70.9733H44.8545C45.6354 70.9733 46.2685 70.3402 46.2685 69.5592V62.4889C46.2685 61.708 45.6354 61.0749 44.8545 61.0749Z" stroke="white" stroke-width="2.82812" stroke-linecap="round" stroke-linejoin="round"/>
</g>
<path d="M22.7966 131.986H16.7226V114.851H22.8468C24.5703 114.851 26.0539 115.194 27.2977 115.88C28.5415 116.561 29.4981 117.54 30.1674 118.817C30.8423 120.094 31.1798 121.622 31.1798 123.402C31.1798 125.187 30.8423 126.72 30.1674 128.003C29.4981 129.286 28.536 130.271 27.281 130.957C26.0316 131.643 24.5368 131.986 22.7966 131.986ZM20.3453 128.882H22.646C23.7169 128.882 24.6177 128.692 25.3484 128.313C26.0846 127.928 26.6368 127.334 27.0049 126.531C27.3786 125.722 27.5655 124.679 27.5655 123.402C27.5655 122.136 27.3786 121.101 27.0049 120.298C26.6368 119.495 26.0874 118.903 25.3567 118.524C24.6261 118.145 23.7253 117.955 22.6544 117.955H20.3453V128.882ZM39.6528 132.237C38.3309 132.237 37.1931 131.969 36.2393 131.433C35.2911 130.892 34.5605 130.128 34.0473 129.141C33.5342 128.148 33.2776 126.974 33.2776 125.619C33.2776 124.297 33.5342 123.137 34.0473 122.138C34.5605 121.14 35.2828 120.362 36.2142 119.804C37.1513 119.246 38.2501 118.968 39.5106 118.968C40.3584 118.968 41.1476 119.104 41.8783 119.377C42.6145 119.645 43.2559 120.05 43.8026 120.591C44.3547 121.132 44.7842 121.812 45.091 122.632C45.3977 123.446 45.5511 124.4 45.5511 125.493V126.472H34.6999V124.263H42.1962C42.1962 123.75 42.0847 123.296 41.8615 122.9C41.6384 122.504 41.3289 122.194 40.9329 121.971C40.5424 121.742 40.0879 121.628 39.5692 121.628C39.0281 121.628 38.5485 121.754 38.1301 122.005C37.7174 122.25 37.3939 122.582 37.1596 123C36.9254 123.413 36.8055 123.873 36.7999 124.381V126.481C36.7999 127.116 36.917 127.666 37.1513 128.129C37.3911 128.592 37.7285 128.949 38.1636 129.2C38.5987 129.451 39.1146 129.576 39.7114 129.576C40.1074 129.576 40.4699 129.52 40.799 129.409C41.1281 129.297 41.4098 129.13 41.644 128.907C41.8783 128.684 42.0568 128.41 42.1795 128.087L45.4758 128.304C45.3085 129.096 44.9655 129.788 44.4468 130.379C43.9336 130.965 43.2699 131.422 42.4556 131.751C41.6468 132.075 40.7126 132.237 39.6528 132.237ZM53.6833 132.237C52.367 132.237 51.2347 131.958 50.2865 131.4C49.3439 130.837 48.6188 130.056 48.1112 129.057C47.6093 128.059 47.3583 126.91 47.3583 125.61C47.3583 124.294 47.6121 123.14 48.1196 122.147C48.6328 121.148 49.3606 120.37 50.3032 119.813C51.2459 119.249 52.367 118.968 53.6665 118.968C54.7876 118.968 55.7693 119.171 56.6115 119.578C57.4537 119.985 58.1202 120.557 58.6111 121.293C59.1019 122.03 59.3724 122.894 59.4226 123.887H56.0593C55.9645 123.246 55.7135 122.73 55.3063 122.339C54.9048 121.943 54.3777 121.745 53.7251 121.745C53.1729 121.745 52.6905 121.896 52.2777 122.197C51.8705 122.493 51.5526 122.925 51.3239 123.494C51.0953 124.063 50.9809 124.751 50.9809 125.56C50.9809 126.38 51.0925 127.077 51.3156 127.652C51.5443 128.226 51.865 128.664 52.2777 128.965C52.6905 129.267 53.1729 129.417 53.7251 129.417C54.1323 129.417 54.4976 129.333 54.8211 129.166C55.1502 128.999 55.4207 128.756 55.6326 128.438C55.8502 128.115 55.9924 127.727 56.0593 127.275H59.4226C59.3668 128.257 59.0991 129.122 58.6194 129.869C58.1453 130.611 57.49 131.191 56.6533 131.609C55.8167 132.027 54.8267 132.237 53.6833 132.237ZM64.934 128.288L64.9423 124.012H65.4611L69.5773 119.135H73.6685L68.1383 125.594H67.2933L64.934 128.288ZM61.7045 131.986V114.851H65.2686V131.986H61.7045ZM69.7363 131.986L65.9547 126.389L68.3307 123.87L73.9111 131.986H69.7363ZM80.9368 131.986V114.851H87.7972C89.0578 114.851 90.1092 115.038 90.9514 115.412C91.7936 115.785 92.4267 116.304 92.8506 116.968C93.2745 117.626 93.4864 118.385 93.4864 119.244C93.4864 119.913 93.3525 120.501 93.0848 121.009C92.8171 121.511 92.449 121.924 91.9804 122.247C91.5175 122.565 90.9876 122.791 90.3908 122.925V123.092C91.0434 123.12 91.6542 123.304 92.2231 123.644C92.7976 123.985 93.2633 124.461 93.6203 125.075C93.9772 125.683 94.1557 126.408 94.1557 127.25C94.1557 128.159 93.9298 128.971 93.478 129.685C93.0318 130.393 92.3709 130.954 91.4952 131.367C90.6195 131.779 89.5402 131.986 88.2574 131.986H80.9368ZM84.5595 129.024H87.5128C88.5223 129.024 89.2586 128.831 89.7215 128.447C90.1845 128.056 90.4159 127.537 90.4159 126.89C90.4159 126.416 90.3016 125.998 90.0729 125.636C89.8442 125.273 89.5179 124.989 89.094 124.782C88.6757 124.576 88.1765 124.473 87.5965 124.473H84.5595V129.024ZM84.5595 122.021H87.2451C87.7415 122.021 88.1821 121.935 88.567 121.762C88.9574 121.583 89.2642 121.332 89.4873 121.009C89.7159 120.685 89.8303 120.298 89.8303 119.846C89.8303 119.227 89.61 118.728 89.1693 118.348C88.7343 117.969 88.1152 117.779 87.312 117.779H84.5595V122.021ZM104.687 126.514V119.135H108.251V131.986H104.829V129.651H104.695C104.405 130.404 103.923 131.01 103.248 131.467C102.579 131.924 101.761 132.153 100.797 132.153C99.9376 132.153 99.1818 131.958 98.5292 131.567C97.8767 131.177 97.3663 130.622 96.9982 129.902C96.6356 129.183 96.4516 128.321 96.446 127.317V119.135H100.01V126.681C100.016 127.44 100.219 128.039 100.621 128.48C101.022 128.921 101.561 129.141 102.236 129.141C102.665 129.141 103.067 129.043 103.44 128.848C103.814 128.647 104.115 128.352 104.344 127.961C104.578 127.571 104.692 127.088 104.687 126.514ZM111.102 131.986V119.135H114.666V131.986H111.102ZM112.892 117.478C112.362 117.478 111.908 117.303 111.529 116.951C111.155 116.594 110.968 116.168 110.968 115.671C110.968 115.18 111.155 114.759 111.529 114.408C111.908 114.051 112.362 113.872 112.892 113.872C113.422 113.872 113.874 114.051 114.248 114.408C114.627 114.759 114.817 115.18 114.817 115.671C114.817 116.168 114.627 116.594 114.248 116.951C113.874 117.303 113.422 117.478 112.892 117.478ZM121.085 114.851V131.986H117.521V114.851H121.085ZM128.675 132.195C127.699 132.195 126.815 131.944 126.023 131.442C125.237 130.934 124.612 130.19 124.149 129.208C123.692 128.221 123.463 127.01 123.463 125.577C123.463 124.104 123.7 122.88 124.174 121.904C124.648 120.922 125.279 120.189 126.065 119.704C126.857 119.213 127.724 118.968 128.667 118.968C129.387 118.968 129.986 119.09 130.466 119.336C130.951 119.575 131.342 119.877 131.637 120.239C131.938 120.596 132.167 120.948 132.323 121.293H132.432V114.851H135.988V131.986H132.474V129.927H132.323C132.156 130.284 131.919 130.639 131.612 130.99C131.311 131.336 130.918 131.623 130.432 131.852C129.953 132.08 129.367 132.195 128.675 132.195ZM129.805 129.359C130.379 129.359 130.865 129.202 131.261 128.89C131.662 128.572 131.969 128.129 132.181 127.56C132.399 126.991 132.507 126.324 132.507 125.56C132.507 124.796 132.401 124.132 132.189 123.569C131.977 123.006 131.671 122.571 131.269 122.264C130.867 121.957 130.379 121.804 129.805 121.804C129.219 121.804 128.726 121.963 128.324 122.281C127.922 122.599 127.619 123.039 127.412 123.602C127.206 124.166 127.103 124.818 127.103 125.56C127.103 126.308 127.206 126.969 127.412 127.543C127.624 128.112 127.928 128.558 128.324 128.882C128.726 129.2 129.219 129.359 129.805 129.359ZM144.775 132.237C143.453 132.237 142.315 131.969 141.361 131.433C140.413 130.892 139.682 130.128 139.169 129.141C138.656 128.148 138.399 126.974 138.399 125.619C138.399 124.297 138.656 123.137 139.169 122.138C139.682 121.14 140.404 120.362 141.336 119.804C142.273 119.246 143.372 118.968 144.632 118.968C145.48 118.968 146.269 119.104 147 119.377C147.736 119.645 148.378 120.05 148.924 120.591C149.476 121.132 149.906 121.812 150.213 122.632C150.519 123.446 150.673 124.4 150.673 125.493V126.472H139.822V124.263H147.318C147.318 123.75 147.206 123.296 146.983 122.9C146.76 122.504 146.451 122.194 146.055 121.971C145.664 121.742 145.21 121.628 144.691 121.628C144.15 121.628 143.67 121.754 143.252 122.005C142.839 122.25 142.516 122.582 142.281 123C142.047 123.413 141.927 123.873 141.922 124.381V126.481C141.922 127.116 142.039 127.666 142.273 128.129C142.513 128.592 142.85 128.949 143.285 129.2C143.72 129.451 144.236 129.576 144.833 129.576C145.229 129.576 145.592 129.52 145.921 129.409C146.25 129.297 146.531 129.13 146.766 128.907C147 128.684 147.178 128.41 147.301 128.087L150.598 128.304C150.43 129.096 150.087 129.788 149.568 130.379C149.055 130.965 148.392 131.422 147.577 131.751C146.768 132.075 145.834 132.237 144.775 132.237ZM152.999 131.986V119.135H156.454V121.377H156.588C156.822 120.579 157.215 119.977 157.768 119.57C158.32 119.157 158.956 118.951 159.675 118.951C159.854 118.951 160.046 118.962 160.252 118.984C160.459 119.007 160.64 119.037 160.796 119.076V122.239C160.629 122.189 160.397 122.144 160.102 122.105C159.806 122.066 159.536 122.046 159.29 122.046C158.766 122.046 158.297 122.161 157.885 122.389C157.477 122.612 157.154 122.925 156.914 123.326C156.68 123.728 156.563 124.191 156.563 124.715V131.986H152.999Z" fill="white"/>
<path d="M27.769 149.289C27.769 150.305 27.5854 151.184 27.2184 151.924C26.8513 152.665 26.3477 153.236 25.7077 153.637C25.0677 154.039 24.3367 154.24 23.5147 154.24C22.6927 154.24 21.9617 154.039 21.3216 153.637C20.6816 153.236 20.178 152.665 19.811 151.924C19.4439 151.184 19.2604 150.305 19.2604 149.289C19.2604 148.272 19.4439 147.394 19.811 146.654C20.178 145.913 20.6816 145.342 21.3216 144.94C21.9617 144.539 22.6927 144.338 23.5147 144.338C24.3367 144.338 25.0677 144.539 25.7077 144.94C26.3477 145.342 26.8513 145.913 27.2184 146.654C27.5854 147.394 27.769 148.272 27.769 149.289ZM26.6395 149.289C26.6395 148.454 26.4999 147.75 26.2207 147.176C25.9446 146.602 25.5697 146.167 25.0959 145.872C24.6253 145.577 24.0982 145.43 23.5147 145.43C22.9311 145.43 22.4025 145.577 21.9287 145.872C21.4581 146.167 21.0832 146.602 20.804 147.176C20.5279 147.75 20.3898 148.454 20.3898 149.289C20.3898 150.123 20.5279 150.828 20.804 151.402C21.0832 151.976 21.4581 152.411 21.9287 152.706C22.4025 153 22.9311 153.148 23.5147 153.148C24.0982 153.148 24.6253 153 25.0959 152.706C25.5697 152.411 25.9446 151.976 26.2207 151.402C26.4999 150.828 26.6395 150.123 26.6395 149.289ZM29.5808 156.819V146.879H30.6538V148.028H30.7856C30.8672 147.902 30.9801 147.742 31.1244 147.548C31.2719 147.35 31.4821 147.174 31.755 147.021C32.0311 146.864 32.4045 146.785 32.8751 146.785C33.4837 146.785 34.0202 146.937 34.4846 147.242C34.9489 147.546 35.3113 147.977 35.5717 148.536C35.8321 149.094 35.9623 149.753 35.9623 150.513C35.9623 151.278 35.8321 151.942 35.5717 152.503C35.3113 153.062 34.9505 153.495 34.4893 153.802C34.0281 154.106 33.4963 154.259 32.8939 154.259C32.4296 154.259 32.0578 154.182 31.7786 154.028C31.4993 153.871 31.2844 153.694 31.1338 153.496C30.9832 153.295 30.8672 153.129 30.7856 152.997H30.6915V156.819H29.5808ZM30.6726 150.494C30.6726 151.04 30.7526 151.521 30.9126 151.938C31.0727 152.353 31.3064 152.677 31.6139 152.913C31.9213 153.145 32.2978 153.261 32.7433 153.261C33.2077 153.261 33.5951 153.139 33.9057 152.894C34.2195 152.646 34.4548 152.313 34.6116 151.896C34.7716 151.476 34.8517 151.008 34.8517 150.494C34.8517 149.985 34.7732 149.527 34.6163 149.12C34.4626 148.709 34.2289 148.384 33.9151 148.145C33.6045 147.904 33.2139 147.783 32.7433 147.783C32.2915 147.783 31.9119 147.897 31.6044 148.127C31.297 148.352 31.0648 148.669 30.9079 149.077C30.7511 149.482 30.6726 149.954 30.6726 150.494ZM40.6872 154.259C39.9907 154.259 39.3899 154.105 38.8848 153.797C38.3828 153.487 37.9953 153.054 37.7224 152.498C37.4526 151.94 37.3176 151.291 37.3176 150.55C37.3176 149.81 37.4526 149.157 37.7224 148.592C37.9953 148.025 38.375 147.582 38.8612 147.265C39.3507 146.945 39.9217 146.785 40.5743 146.785C40.9508 146.785 41.3225 146.848 41.6896 146.974C42.0567 147.099 42.3908 147.303 42.692 147.585C42.9932 147.865 43.2332 148.235 43.412 148.696C43.5909 149.157 43.6803 149.725 43.6803 150.4V150.87H38.1083V149.91H42.5508C42.5508 149.502 42.4693 149.138 42.3061 148.818C42.1461 148.498 41.9171 148.246 41.619 148.061C41.3241 147.876 40.9759 147.783 40.5743 147.783C40.1319 147.783 39.7491 147.893 39.426 148.112C39.106 148.329 38.8597 148.611 38.6871 148.959C38.5146 149.308 38.4283 149.681 38.4283 150.08V150.72C38.4283 151.265 38.5224 151.728 38.7107 152.108C38.902 152.484 39.1671 152.771 39.506 152.969C39.8448 153.164 40.2386 153.261 40.6872 153.261C40.979 153.261 41.2425 153.22 41.4778 153.139C41.7163 153.054 41.9218 152.928 42.0943 152.762C42.2669 152.593 42.4002 152.382 42.4944 152.131L43.5673 152.433C43.4544 152.797 43.2646 153.117 42.9979 153.393C42.7312 153.666 42.4018 153.879 42.0096 154.033C41.6175 154.183 41.1766 154.259 40.6872 154.259ZM46.4804 149.76V154.108H45.3698V146.879H46.4428V148.009H46.5369C46.7063 147.642 46.9636 147.347 47.3087 147.124C47.6538 146.898 48.0993 146.785 48.6452 146.785C49.1347 146.785 49.5629 146.886 49.93 147.086C50.2971 147.284 50.5826 147.585 50.7865 147.99C50.9904 148.392 51.0924 148.9 51.0924 149.515V154.108H49.9818V149.59C49.9818 149.022 49.8343 148.58 49.5394 148.263C49.2445 147.943 48.8397 147.783 48.3252 147.783C47.9707 147.783 47.6538 147.86 47.3746 148.014C47.0985 148.167 46.8804 148.392 46.7204 148.687C46.5604 148.981 46.4804 149.339 46.4804 149.76ZM59.8799 154.259C59.1834 154.259 58.5825 154.105 58.0774 153.797C57.5754 153.487 57.188 153.054 56.915 152.498C56.6452 151.94 56.5103 151.291 56.5103 150.55C56.5103 149.81 56.6452 149.157 56.915 148.592C57.188 148.025 57.5676 147.582 58.0539 147.265C58.5433 146.945 59.1143 146.785 59.7669 146.785C60.1434 146.785 60.5152 146.848 60.8823 146.974C61.2493 147.099 61.5835 147.303 61.8847 147.585C62.1858 147.865 62.4259 148.235 62.6047 148.696C62.7835 149.157 62.8729 149.725 62.8729 150.4V150.87H57.3009V149.91H61.7435C61.7435 149.502 61.6619 149.138 61.4988 148.818C61.3387 148.498 61.1097 148.246 60.8117 148.061C60.5168 147.876 60.1685 147.783 59.7669 147.783C59.3245 147.783 58.9418 147.893 58.6186 148.112C58.2986 148.329 58.0523 148.611 57.8798 148.959C57.7072 149.308 57.6209 149.681 57.6209 150.08V150.72C57.6209 151.265 57.7151 151.728 57.9033 152.108C58.0947 152.484 58.3598 152.771 58.6986 152.969C59.0375 153.164 59.4312 153.261 59.8799 153.261C60.1716 153.261 60.4352 153.22 60.6705 153.139C60.9089 153.054 61.1144 152.928 61.287 152.762C61.4595 152.593 61.5929 152.382 61.687 152.131L62.76 152.433C62.647 152.797 62.4572 153.117 62.1906 153.393C61.9239 153.666 61.5944 153.879 61.2023 154.033C60.8101 154.183 60.3693 154.259 59.8799 154.259ZM65.1966 146.879L66.9284 149.835L68.6603 146.879H69.9403L67.6061 150.494L69.9403 154.108H68.6603L66.9284 151.303L65.1966 154.108H63.9165L66.2131 150.494L63.9165 146.879H65.1966ZM74.164 154.259C73.4864 154.259 72.9028 154.099 72.4134 153.779C71.9239 153.459 71.5475 153.018 71.2839 152.456C71.0204 151.895 70.8886 151.253 70.8886 150.531C70.8886 149.797 71.0235 149.149 71.2933 148.588C71.5663 148.023 71.9459 147.582 72.4322 147.265C72.9216 146.945 73.4926 146.785 74.1452 146.785C74.6535 146.785 75.1115 146.879 75.5194 147.068C75.9273 147.256 76.2614 147.519 76.5218 147.858C76.7822 148.197 76.9438 148.592 77.0065 149.044H75.8959C75.8112 148.715 75.6229 148.423 75.3312 148.169C75.0425 147.912 74.6535 147.783 74.164 147.783C73.7311 147.783 73.3515 147.896 73.0252 148.122C72.702 148.345 72.4495 148.66 72.2675 149.068C72.0887 149.472 71.9992 149.948 71.9992 150.494C71.9992 151.052 72.0871 151.538 72.2628 151.953C72.4416 152.367 72.6926 152.688 73.0158 152.917C73.342 153.146 73.7248 153.261 74.164 153.261C74.4527 153.261 74.7147 153.211 74.95 153.11C75.1853 153.01 75.3845 152.866 75.5476 152.677C75.7108 152.489 75.8269 152.263 75.8959 152H77.0065C76.9438 152.426 76.7885 152.811 76.5406 153.153C76.2959 153.491 75.9712 153.761 75.5665 153.962C75.1649 154.16 74.6974 154.259 74.164 154.259ZM79.7408 144.47V154.108H78.6301V144.47H79.7408ZM86.3305 151.153V146.879H87.4411V154.108H86.3305V152.884H86.2552C86.0858 153.251 85.8222 153.564 85.4646 153.821C85.1069 154.075 84.6551 154.202 84.1092 154.202C83.6574 154.202 83.2558 154.103 82.9044 153.906C82.5531 153.705 82.277 153.404 82.0762 153.002C81.8754 152.597 81.775 152.087 81.775 151.473V146.879H82.8856V151.397C82.8856 151.924 83.0331 152.345 83.328 152.658C83.626 152.972 84.0057 153.129 84.4669 153.129C84.743 153.129 85.0238 153.059 85.3093 152.917C85.5979 152.776 85.8395 152.56 86.034 152.268C86.2317 151.976 86.3305 151.604 86.3305 151.153ZM94.5956 148.498L93.5979 148.781C93.5351 148.614 93.4426 148.453 93.3202 148.296C93.201 148.136 93.0379 148.004 92.8308 147.901C92.6237 147.797 92.3586 147.745 92.0355 147.745C91.5931 147.745 91.2244 147.847 90.9295 148.051C90.6377 148.252 90.4919 148.508 90.4919 148.818C90.4919 149.094 90.5922 149.312 90.793 149.472C90.9938 149.632 91.3076 149.766 91.7343 149.872L92.8073 150.136C93.4536 150.293 93.9351 150.533 94.252 150.856C94.5689 151.176 94.7273 151.589 94.7273 152.094C94.7273 152.508 94.6081 152.878 94.3697 153.204C94.1344 153.531 93.8049 153.788 93.3814 153.976C92.9578 154.164 92.4653 154.259 91.9037 154.259C91.1664 154.259 90.5562 154.099 90.073 153.779C89.5898 153.459 89.284 152.991 89.1553 152.376L90.2095 152.113C90.3099 152.502 90.4997 152.793 90.7789 152.988C91.0613 153.182 91.4299 153.28 91.8849 153.28C92.4025 153.28 92.8135 153.17 93.1179 152.95C93.4253 152.728 93.5791 152.461 93.5791 152.15C93.5791 151.899 93.4912 151.689 93.3155 151.52C93.1398 151.347 92.87 151.218 92.5061 151.134L91.3013 150.851C90.6393 150.694 90.153 150.451 89.8424 150.122C89.5349 149.789 89.3812 149.374 89.3812 148.875C89.3812 148.467 89.4957 148.106 89.7248 147.792C89.9569 147.479 90.2722 147.232 90.6707 147.054C91.0723 146.875 91.5272 146.785 92.0355 146.785C92.7508 146.785 93.3124 146.942 93.7202 147.256C94.1312 147.57 94.423 147.984 94.5956 148.498ZM96.3992 154.108V146.879H97.5098V154.108H96.3992ZM96.9639 145.675C96.7474 145.675 96.5608 145.601 96.4039 145.453C96.2502 145.306 96.1733 145.129 96.1733 144.922C96.1733 144.715 96.2502 144.537 96.4039 144.39C96.5608 144.242 96.7474 144.169 96.9639 144.169C97.1804 144.169 97.3655 144.242 97.5192 144.39C97.6761 144.537 97.7545 144.715 97.7545 144.922C97.7545 145.129 97.6761 145.306 97.5192 145.453C97.3655 145.601 97.1804 145.675 96.9639 145.675ZM105.455 146.879L102.782 154.108H101.652L98.9793 146.879H100.184L102.179 152.64H102.255L104.25 146.879H105.455ZM109.693 154.259C108.996 154.259 108.395 154.105 107.89 153.797C107.388 153.487 107.001 153.054 106.728 152.498C106.458 151.94 106.323 151.291 106.323 150.55C106.323 149.81 106.458 149.157 106.728 148.592C107.001 148.025 107.38 147.582 107.867 147.265C108.356 146.945 108.927 146.785 109.58 146.785C109.956 146.785 110.328 146.848 110.695 146.974C111.062 147.099 111.396 147.303 111.698 147.585C111.999 147.865 112.239 148.235 112.418 148.696C112.596 149.157 112.686 149.725 112.686 150.4V150.87H107.114V149.91H111.556C111.556 149.502 111.475 149.138 111.312 148.818C111.152 148.498 110.923 148.246 110.625 148.061C110.33 147.876 109.981 147.783 109.58 147.783C109.137 147.783 108.755 147.893 108.431 148.112C108.111 148.329 107.865 148.611 107.693 148.959C107.52 149.308 107.434 149.681 107.434 150.08V150.72C107.434 151.265 107.528 151.728 107.716 152.108C107.908 152.484 108.173 152.771 108.511 152.969C108.85 153.164 109.244 153.261 109.693 153.261C109.985 153.261 110.248 153.22 110.483 153.139C110.722 153.054 110.927 152.928 111.1 152.762C111.272 152.593 111.406 152.382 111.5 152.131L112.573 152.433C112.46 152.797 112.27 153.117 112.003 153.393C111.737 153.666 111.407 153.879 111.015 154.033C110.623 154.183 110.182 154.259 109.693 154.259ZM118.103 156.819V146.879H119.176V148.028H119.307C119.389 147.902 119.502 147.742 119.646 147.548C119.794 147.35 120.004 147.174 120.277 147.021C120.553 146.864 120.926 146.785 121.397 146.785C122.005 146.785 122.542 146.937 123.006 147.242C123.471 147.546 123.833 147.977 124.093 148.536C124.354 149.094 124.484 149.753 124.484 150.513C124.484 151.278 124.354 151.942 124.093 152.503C123.833 153.062 123.472 153.495 123.011 153.802C122.55 154.106 122.018 154.259 121.416 154.259C120.951 154.259 120.579 154.182 120.3 154.028C120.021 153.871 119.806 153.694 119.656 153.496C119.505 153.295 119.389 153.129 119.307 152.997H119.213V156.819H118.103ZM119.194 150.494C119.194 151.04 119.274 151.521 119.434 151.938C119.594 152.353 119.828 152.677 120.136 152.913C120.443 153.145 120.82 153.261 121.265 153.261C121.729 153.261 122.117 153.139 122.427 152.894C122.741 152.646 122.976 152.313 123.133 151.896C123.293 151.476 123.373 151.008 123.373 150.494C123.373 149.985 123.295 149.527 123.138 149.12C122.984 148.709 122.751 148.384 122.437 148.145C122.126 147.904 121.736 147.783 121.265 147.783C120.813 147.783 120.434 147.897 120.126 148.127C119.819 148.352 119.587 148.669 119.43 149.077C119.273 149.482 119.194 149.954 119.194 150.494ZM128.305 154.277C127.847 154.277 127.432 154.191 127.058 154.019C126.685 153.843 126.388 153.59 126.169 153.261C125.949 152.928 125.839 152.527 125.839 152.056C125.839 151.642 125.921 151.306 126.084 151.049C126.247 150.789 126.465 150.585 126.738 150.437C127.011 150.29 127.312 150.18 127.642 150.108C127.974 150.032 128.308 149.973 128.644 149.929C129.083 149.872 129.44 149.83 129.712 149.802C129.989 149.771 130.189 149.719 130.315 149.647C130.443 149.574 130.508 149.449 130.508 149.27V149.232C130.508 148.768 130.381 148.407 130.127 148.15C129.876 147.893 129.494 147.764 128.983 147.764C128.453 147.764 128.037 147.88 127.736 148.112C127.435 148.345 127.223 148.592 127.101 148.856L126.046 148.479C126.235 148.04 126.486 147.698 126.799 147.454C127.116 147.206 127.461 147.033 127.835 146.936C128.211 146.835 128.581 146.785 128.945 146.785C129.178 146.785 129.444 146.814 129.745 146.87C130.05 146.923 130.343 147.035 130.625 147.204C130.911 147.374 131.148 147.629 131.336 147.971C131.524 148.313 131.618 148.771 131.618 149.345V154.108H130.508V153.129H130.451C130.376 153.286 130.251 153.454 130.075 153.633C129.899 153.811 129.665 153.964 129.374 154.089C129.082 154.215 128.726 154.277 128.305 154.277ZM128.475 153.28C128.914 153.28 129.284 153.193 129.585 153.021C129.89 152.848 130.119 152.626 130.272 152.353C130.429 152.08 130.508 151.793 130.508 151.491V150.475C130.461 150.531 130.357 150.583 130.197 150.63C130.04 150.674 129.858 150.713 129.651 150.748C129.447 150.779 129.248 150.807 129.054 150.833C128.862 150.854 128.707 150.873 128.588 150.889C128.299 150.927 128.029 150.988 127.778 151.073C127.53 151.154 127.33 151.278 127.176 151.444C127.025 151.607 126.95 151.83 126.95 152.113C126.95 152.498 127.093 152.79 127.378 152.988C127.667 153.182 128.032 153.28 128.475 153.28ZM136.582 154.259C135.905 154.259 135.321 154.099 134.832 153.779C134.342 153.459 133.966 153.018 133.702 152.456C133.439 151.895 133.307 151.253 133.307 150.531C133.307 149.797 133.442 149.149 133.711 148.588C133.984 148.023 134.364 147.582 134.85 147.265C135.34 146.945 135.911 146.785 136.563 146.785C137.072 146.785 137.53 146.879 137.938 147.068C138.345 147.256 138.68 147.519 138.94 147.858C139.2 148.197 139.362 148.592 139.425 149.044H138.314C138.229 148.715 138.041 148.423 137.749 148.169C137.461 147.912 137.072 147.783 136.582 147.783C136.149 147.783 135.77 147.896 135.443 148.122C135.12 148.345 134.868 148.66 134.686 149.068C134.507 149.472 134.417 149.948 134.417 150.494C134.417 151.052 134.505 151.538 134.681 151.953C134.86 152.367 135.111 152.688 135.434 152.917C135.76 153.146 136.143 153.261 136.582 153.261C136.871 153.261 137.133 153.211 137.368 153.11C137.603 153.01 137.803 152.866 137.966 152.677C138.129 152.489 138.245 152.263 138.314 152H139.425C139.362 152.426 139.207 152.811 138.959 153.153C138.714 153.491 138.389 153.761 137.985 153.962C137.583 154.16 137.116 154.259 136.582 154.259ZM142.084 151.473L142.065 150.098H142.291L145.453 146.879H146.827L143.458 150.287H143.364L142.084 151.473ZM141.048 154.108V144.47H142.159V154.108H141.048ZM145.641 154.108L142.818 150.531L143.608 149.76L147.053 154.108H145.641ZM153.377 148.498L152.379 148.781C152.317 148.614 152.224 148.453 152.102 148.296C151.983 148.136 151.819 148.004 151.612 147.901C151.405 147.797 151.14 147.745 150.817 147.745C150.375 147.745 150.006 147.847 149.711 148.051C149.419 148.252 149.273 148.508 149.273 148.818C149.273 149.094 149.374 149.312 149.575 149.472C149.775 149.632 150.089 149.766 150.516 149.872L151.589 150.136C152.235 150.293 152.717 150.533 153.034 150.856C153.35 151.176 153.509 151.589 153.509 152.094C153.509 152.508 153.39 152.878 153.151 153.204C152.916 153.531 152.586 153.788 152.163 153.976C151.739 154.164 151.247 154.259 150.685 154.259C149.948 154.259 149.338 154.099 148.855 153.779C148.371 153.459 148.065 152.991 147.937 152.376L148.991 152.113C149.091 152.502 149.281 152.793 149.56 152.988C149.843 153.182 150.211 153.28 150.666 153.28C151.184 153.28 151.595 153.17 151.899 152.95C152.207 152.728 152.361 152.461 152.361 152.15C152.361 151.899 152.273 151.689 152.097 151.52C151.921 151.347 151.652 151.218 151.288 151.134L150.083 150.851C149.421 150.694 148.935 150.451 148.624 150.122C148.316 149.789 148.163 149.374 148.163 148.875C148.163 148.467 148.277 148.106 148.506 147.792C148.738 147.479 149.054 147.232 149.452 147.054C149.854 146.875 150.309 146.785 150.817 146.785C151.532 146.785 152.094 146.942 152.502 147.256C152.913 147.57 153.205 147.984 153.377 148.498ZM162.052 146.879V147.821H158.306V146.879H162.052ZM159.397 145.148H160.508V152.037C160.508 152.351 160.553 152.586 160.644 152.743C160.739 152.897 160.858 153 161.002 153.054C161.15 153.104 161.305 153.129 161.468 153.129C161.59 153.129 161.691 153.123 161.769 153.11C161.848 153.095 161.91 153.082 161.957 153.073L162.183 154.07C162.108 154.099 162.003 154.127 161.868 154.155C161.733 154.186 161.562 154.202 161.355 154.202C161.041 154.202 160.734 154.135 160.433 154C160.135 153.865 159.887 153.659 159.689 153.383C159.495 153.107 159.397 152.759 159.397 152.338V145.148ZM166.581 154.259C165.929 154.259 165.356 154.103 164.863 153.793C164.374 153.482 163.991 153.048 163.715 152.489C163.442 151.931 163.306 151.278 163.306 150.531C163.306 149.778 163.442 149.121 163.715 148.559C163.991 147.998 164.374 147.562 164.863 147.251C165.356 146.941 165.929 146.785 166.581 146.785C167.234 146.785 167.805 146.941 168.294 147.251C168.787 147.562 169.17 147.998 169.443 148.559C169.719 149.121 169.857 149.778 169.857 150.531C169.857 151.278 169.719 151.931 169.443 152.489C169.17 153.048 168.787 153.482 168.294 153.793C167.805 154.103 167.234 154.259 166.581 154.259ZM166.581 153.261C167.077 153.261 167.485 153.134 167.805 152.88C168.125 152.626 168.362 152.291 168.515 151.877C168.669 151.463 168.746 151.014 168.746 150.531C168.746 150.048 168.669 149.598 168.515 149.181C168.362 148.763 168.125 148.426 167.805 148.169C167.485 147.912 167.077 147.783 166.581 147.783C166.086 147.783 165.678 147.912 165.358 148.169C165.038 148.426 164.801 148.763 164.647 149.181C164.493 149.598 164.416 150.048 164.416 150.531C164.416 151.014 164.493 151.463 164.647 151.877C164.801 152.291 165.038 152.626 165.358 152.88C165.678 153.134 166.086 153.261 166.581 153.261ZM179.835 151.153V146.879H180.945V154.108H179.835V152.884H179.759C179.59 153.251 179.327 153.564 178.969 153.821C178.611 154.075 178.159 154.202 177.613 154.202C177.162 154.202 176.76 154.103 176.409 153.906C176.057 153.705 175.781 153.404 175.58 153.002C175.38 152.597 175.279 152.087 175.279 151.473V146.879H176.39V151.397C176.39 151.924 176.537 152.345 176.832 152.658C177.13 152.972 177.51 153.129 177.971 153.129C178.247 153.129 178.528 153.059 178.814 152.917C179.102 152.776 179.344 152.56 179.538 152.268C179.736 151.976 179.835 151.604 179.835 151.153ZM184.09 149.76V154.108H182.98V146.879H184.053V148.009H184.147C184.316 147.642 184.573 147.347 184.919 147.124C185.264 146.898 185.709 146.785 186.255 146.785C186.744 146.785 187.173 146.886 187.54 147.086C187.907 147.284 188.192 147.585 188.396 147.99C188.6 148.392 188.702 148.9 188.702 149.515V154.108H187.592V149.59C187.592 149.022 187.444 148.58 187.149 148.263C186.854 147.943 186.45 147.783 185.935 147.783C185.581 147.783 185.264 147.86 184.984 148.014C184.708 148.167 184.49 148.392 184.33 148.687C184.17 148.981 184.09 149.339 184.09 149.76ZM191.842 144.47V154.108H190.732V144.47H191.842ZM196.813 154.259C196.161 154.259 195.588 154.103 195.095 153.793C194.606 153.482 194.223 153.048 193.947 152.489C193.674 151.931 193.538 151.278 193.538 150.531C193.538 149.778 193.674 149.121 193.947 148.559C194.223 147.998 194.606 147.562 195.095 147.251C195.588 146.941 196.161 146.785 196.813 146.785C197.466 146.785 198.037 146.941 198.526 147.251C199.019 147.562 199.402 147.998 199.675 148.559C199.951 149.121 200.089 149.778 200.089 150.531C200.089 151.278 199.951 151.931 199.675 152.489C199.402 153.048 199.019 153.482 198.526 153.793C198.037 154.103 197.466 154.259 196.813 154.259ZM196.813 153.261C197.309 153.261 197.717 153.134 198.037 152.88C198.357 152.626 198.594 152.291 198.747 151.877C198.901 151.463 198.978 151.014 198.978 150.531C198.978 150.048 198.901 149.598 198.747 149.181C198.594 148.763 198.357 148.426 198.037 148.169C197.717 147.912 197.309 147.783 196.813 147.783C196.317 147.783 195.91 147.912 195.59 148.169C195.27 148.426 195.033 148.763 194.879 149.181C194.725 149.598 194.648 150.048 194.648 150.531C194.648 151.014 194.725 151.463 194.879 151.877C195.033 152.291 195.27 152.626 195.59 152.88C195.91 153.134 196.317 153.261 196.813 153.261ZM204.721 154.259C204.043 154.259 203.459 154.099 202.97 153.779C202.481 153.459 202.104 153.018 201.84 152.456C201.577 151.895 201.445 151.253 201.445 150.531C201.445 149.797 201.58 149.149 201.85 148.588C202.123 148.023 202.502 147.582 202.989 147.265C203.478 146.945 204.049 146.785 204.702 146.785C205.21 146.785 205.668 146.879 206.076 147.068C206.484 147.256 206.818 147.519 207.078 147.858C207.339 148.197 207.5 148.592 207.563 149.044H206.452C206.368 148.715 206.179 148.423 205.888 148.169C205.599 147.912 205.21 147.783 204.721 147.783C204.288 147.783 203.908 147.896 203.582 148.122C203.259 148.345 203.006 148.66 202.824 149.068C202.645 149.472 202.556 149.948 202.556 150.494C202.556 151.052 202.644 151.538 202.819 151.953C202.998 152.367 203.249 152.688 203.572 152.917C203.899 153.146 204.281 153.261 204.721 153.261C205.009 153.261 205.271 153.211 205.507 153.11C205.742 153.01 205.941 152.866 206.104 152.677C206.267 152.489 206.383 152.263 206.452 152H207.563C207.5 152.426 207.345 152.811 207.097 153.153C206.852 153.491 206.528 153.761 206.123 153.962C205.721 154.16 205.254 154.259 204.721 154.259ZM210.222 151.473L210.203 150.098H210.429L213.592 146.879H214.966L211.596 150.287H211.502L210.222 151.473ZM209.187 154.108V144.47H210.297V154.108H209.187ZM213.78 154.108L210.956 150.531L211.747 149.76L215.192 154.108H213.78ZM221.233 144.47V154.108H220.122V144.47H221.233ZM226.298 154.259C225.602 154.259 225.001 154.105 224.496 153.797C223.994 153.487 223.606 153.054 223.333 152.498C223.063 151.94 222.929 151.291 222.929 150.55C222.929 149.81 223.063 149.157 223.333 148.592C223.606 148.025 223.986 147.582 224.472 147.265C224.962 146.945 225.533 146.785 226.185 146.785C226.562 146.785 226.933 146.848 227.3 146.974C227.668 147.099 228.002 147.303 228.303 147.585C228.604 147.865 228.844 148.235 229.023 148.696C229.202 149.157 229.291 149.725 229.291 150.4V150.87H223.719V149.91H228.162C228.162 149.502 228.08 149.138 227.917 148.818C227.757 148.498 227.528 148.246 227.23 148.061C226.935 147.876 226.587 147.783 226.185 147.783C225.743 147.783 225.36 147.893 225.037 148.112C224.717 148.329 224.471 148.611 224.298 148.959C224.125 149.308 224.039 149.681 224.039 150.08V150.72C224.039 151.265 224.133 151.728 224.322 152.108C224.513 152.484 224.778 152.771 225.117 152.969C225.456 153.164 225.849 153.261 226.298 153.261C226.59 153.261 226.853 153.22 227.089 153.139C227.327 153.054 227.533 152.928 227.705 152.762C227.878 152.593 228.011 152.382 228.105 152.131L229.178 152.433C229.065 152.797 228.875 153.117 228.609 153.393C228.342 153.666 228.013 153.879 227.62 154.033C227.228 154.183 226.788 154.259 226.298 154.259ZM233.898 156.969C233.362 156.969 232.901 156.9 232.515 156.762C232.129 156.627 231.807 156.448 231.55 156.226C231.296 156.006 231.094 155.771 230.943 155.52L231.828 154.899C231.928 155.03 232.055 155.181 232.209 155.35C232.363 155.523 232.573 155.672 232.84 155.797C233.109 155.926 233.462 155.99 233.898 155.99C234.482 155.99 234.964 155.849 235.343 155.567C235.723 155.284 235.913 154.842 235.913 154.24V152.771H235.819C235.737 152.903 235.621 153.066 235.47 153.261C235.323 153.452 235.109 153.623 234.83 153.774C234.554 153.921 234.181 153.995 233.71 153.995C233.127 153.995 232.603 153.857 232.138 153.581C231.677 153.305 231.312 152.903 231.042 152.376C230.775 151.849 230.642 151.209 230.642 150.456C230.642 149.716 230.772 149.071 231.032 148.522C231.293 147.97 231.655 147.543 232.12 147.242C232.584 146.937 233.12 146.785 233.729 146.785C234.2 146.785 234.573 146.864 234.849 147.021C235.128 147.174 235.342 147.35 235.489 147.548C235.64 147.742 235.756 147.902 235.837 148.028H235.95V146.879H237.023V154.315C237.023 154.936 236.882 155.441 236.6 155.83C236.32 156.223 235.944 156.51 235.47 156.692C235 156.877 234.476 156.969 233.898 156.969ZM233.861 152.997C234.306 152.997 234.683 152.895 234.99 152.691C235.298 152.488 235.531 152.194 235.691 151.811C235.851 151.429 235.931 150.971 235.931 150.437C235.931 149.916 235.853 149.457 235.696 149.058C235.539 148.66 235.307 148.348 235 148.122C234.692 147.896 234.313 147.783 233.861 147.783C233.39 147.783 232.998 147.902 232.684 148.141C232.374 148.379 232.14 148.699 231.983 149.101C231.829 149.502 231.752 149.948 231.752 150.437C231.752 150.939 231.831 151.383 231.988 151.769C232.148 152.152 232.383 152.453 232.694 152.673C233.007 152.889 233.396 152.997 233.861 152.997ZM242.087 154.259C241.391 154.259 240.79 154.105 240.285 153.797C239.783 153.487 239.395 153.054 239.122 152.498C238.852 151.94 238.717 151.291 238.717 150.55C238.717 149.81 238.852 149.157 239.122 148.592C239.395 148.025 239.775 147.582 240.261 147.265C240.75 146.945 241.321 146.785 241.974 146.785C242.351 146.785 242.722 146.848 243.089 146.974C243.456 147.099 243.791 147.303 244.092 147.585C244.393 147.865 244.633 148.235 244.812 148.696C244.991 149.157 245.08 149.725 245.08 150.4V150.87H239.508V149.91H243.951C243.951 149.502 243.869 149.138 243.706 148.818C243.546 148.498 243.317 148.246 243.019 148.061C242.724 147.876 242.376 147.783 241.974 147.783C241.532 147.783 241.149 147.893 240.826 148.112C240.506 148.329 240.259 148.611 240.087 148.959C239.914 149.308 239.828 149.681 239.828 150.08V150.72C239.828 151.265 239.922 151.728 240.11 152.108C240.302 152.484 240.567 152.771 240.906 152.969C241.245 153.164 241.638 153.261 242.087 153.261C242.379 153.261 242.642 153.22 242.878 153.139C243.116 153.054 243.322 152.928 243.494 152.762C243.667 152.593 243.8 152.382 243.894 152.131L244.967 152.433C244.854 152.797 244.664 153.117 244.398 153.393C244.131 153.666 243.802 153.879 243.409 154.033C243.017 154.183 242.576 154.259 242.087 154.259ZM247.88 149.76V154.108H246.77V146.879H247.843V148.009H247.937C248.106 147.642 248.363 147.347 248.709 147.124C249.054 146.898 249.499 146.785 250.045 146.785C250.534 146.785 250.963 146.886 251.33 147.086C251.697 147.284 251.982 147.585 252.186 147.99C252.39 148.392 252.492 148.9 252.492 149.515V154.108H251.382V149.59C251.382 149.022 251.234 148.58 250.939 148.263C250.644 147.943 250.24 147.783 249.725 147.783C249.371 147.783 249.054 147.86 248.774 148.014C248.498 148.167 248.28 148.392 248.12 148.687C247.96 148.981 247.88 149.339 247.88 149.76ZM257.251 154.259C256.649 154.259 256.117 154.106 255.656 153.802C255.195 153.495 254.834 153.062 254.573 152.503C254.313 151.942 254.183 151.278 254.183 150.513C254.183 149.753 254.313 149.094 254.573 148.536C254.834 147.977 255.196 147.546 255.661 147.242C256.125 146.937 256.661 146.785 257.27 146.785C257.741 146.785 258.112 146.864 258.385 147.021C258.662 147.174 258.872 147.35 259.016 147.548C259.164 147.742 259.278 147.902 259.36 148.028H259.454V144.47H260.564V154.108H259.491V152.997H259.36C259.278 153.129 259.162 153.295 259.011 153.496C258.861 153.694 258.646 153.871 258.367 154.028C258.087 154.182 257.716 154.259 257.251 154.259ZM257.402 153.261C257.847 153.261 258.224 153.145 258.531 152.913C258.839 152.677 259.073 152.353 259.233 151.938C259.393 151.521 259.473 151.04 259.473 150.494C259.473 149.954 259.394 149.482 259.237 149.077C259.08 148.669 258.848 148.352 258.541 148.127C258.233 147.897 257.854 147.783 257.402 147.783C256.931 147.783 256.539 147.904 256.225 148.145C255.915 148.384 255.681 148.709 255.524 149.12C255.37 149.527 255.294 149.985 255.294 150.494C255.294 151.008 255.372 151.476 255.529 151.896C255.689 152.313 255.924 152.646 256.235 152.894C256.548 153.139 256.938 153.261 257.402 153.261ZM264.88 154.277C264.422 154.277 264.006 154.191 263.633 154.019C263.259 153.843 262.963 153.59 262.743 153.261C262.524 152.928 262.414 152.527 262.414 152.056C262.414 151.642 262.495 151.306 262.659 151.049C262.822 150.789 263.04 150.585 263.313 150.437C263.586 150.29 263.887 150.18 264.216 150.108C264.549 150.032 264.883 149.973 265.219 149.929C265.658 149.872 266.014 149.83 266.287 149.802C266.563 149.771 266.764 149.719 266.889 149.647C267.018 149.574 267.082 149.449 267.082 149.27V149.232C267.082 148.768 266.955 148.407 266.701 148.15C266.45 147.893 266.069 147.764 265.558 147.764C265.027 147.764 264.612 147.88 264.31 148.112C264.009 148.345 263.797 148.592 263.675 148.856L262.621 148.479C262.809 148.04 263.06 147.698 263.374 147.454C263.691 147.206 264.036 147.033 264.409 146.936C264.786 146.835 265.156 146.785 265.52 146.785C265.752 146.785 266.019 146.814 266.32 146.87C266.624 146.923 266.918 147.035 267.2 147.204C267.485 147.374 267.722 147.629 267.911 147.971C268.099 148.313 268.193 148.771 268.193 149.345V154.108H267.082V153.129H267.026C266.951 153.286 266.825 153.454 266.649 153.633C266.474 153.811 266.24 153.964 265.948 154.089C265.656 154.215 265.3 154.277 264.88 154.277ZM265.049 153.28C265.488 153.28 265.859 153.193 266.16 153.021C266.464 152.848 266.693 152.626 266.847 152.353C267.004 152.08 267.082 151.793 267.082 151.491V150.475C267.035 150.531 266.932 150.583 266.772 150.63C266.615 150.674 266.433 150.713 266.226 150.748C266.022 150.779 265.823 150.807 265.628 150.833C265.437 150.854 265.281 150.873 265.162 150.889C264.874 150.927 264.604 150.988 264.353 151.073C264.105 151.154 263.904 151.278 263.75 151.444C263.6 151.607 263.524 151.83 263.524 152.113C263.524 152.498 263.667 152.79 263.953 152.988C264.241 153.182 264.607 153.28 265.049 153.28ZM270.22 154.108V146.879H271.293V147.971H271.368C271.5 147.614 271.739 147.323 272.084 147.101C272.429 146.878 272.818 146.766 273.251 146.766C273.332 146.766 273.434 146.768 273.557 146.771C273.679 146.774 273.772 146.779 273.834 146.785V147.915C273.797 147.905 273.71 147.891 273.576 147.872C273.444 147.85 273.304 147.839 273.157 147.839C272.805 147.839 272.492 147.913 272.215 148.061C271.943 148.205 271.726 148.406 271.566 148.663C271.409 148.917 271.331 149.207 271.331 149.534V154.108H270.22ZM276.086 156.819C275.898 156.819 275.73 156.803 275.583 156.772C275.435 156.743 275.333 156.715 275.277 156.687L275.559 155.708C275.829 155.777 276.067 155.802 276.274 155.783C276.482 155.765 276.665 155.672 276.825 155.506C276.988 155.343 277.137 155.077 277.272 154.71L277.479 154.146L274.806 146.879H276.011L278.006 152.64H278.082L280.077 146.879H281.282L278.213 155.162C278.075 155.535 277.904 155.845 277.7 156.089C277.496 156.337 277.26 156.521 276.99 156.64C276.723 156.759 276.422 156.819 276.086 156.819ZM289.412 154.259C288.734 154.259 288.15 154.099 287.661 153.779C287.171 153.459 286.795 153.018 286.531 152.456C286.268 151.895 286.136 151.253 286.136 150.531C286.136 149.797 286.271 149.149 286.541 148.588C286.814 148.023 287.193 147.582 287.68 147.265C288.169 146.945 288.74 146.785 289.393 146.785C289.901 146.785 290.359 146.879 290.767 147.068C291.175 147.256 291.509 147.519 291.769 147.858C292.03 148.197 292.191 148.592 292.254 149.044H291.143C291.059 148.715 290.87 148.423 290.579 148.169C290.29 147.912 289.901 147.783 289.412 147.783C288.979 147.783 288.599 147.896 288.273 148.122C287.95 148.345 287.697 148.66 287.515 149.068C287.336 149.472 287.247 149.948 287.247 150.494C287.247 151.052 287.335 151.538 287.51 151.953C287.689 152.367 287.94 152.688 288.263 152.917C288.59 153.146 288.972 153.261 289.412 153.261C289.7 153.261 289.962 153.211 290.197 153.11C290.433 153.01 290.632 152.866 290.795 152.677C290.958 152.489 291.074 152.263 291.143 152H292.254C292.191 152.426 292.036 152.811 291.788 153.153C291.543 153.491 291.219 153.761 290.814 153.962C290.412 154.16 289.945 154.259 289.412 154.259ZM296.005 154.277C295.547 154.277 295.131 154.191 294.758 154.019C294.384 153.843 294.088 153.59 293.868 153.261C293.649 152.928 293.539 152.527 293.539 152.056C293.539 151.642 293.62 151.306 293.784 151.049C293.947 150.789 294.165 150.585 294.438 150.437C294.711 150.29 295.012 150.18 295.341 150.108C295.674 150.032 296.008 149.973 296.344 149.929C296.783 149.872 297.139 149.83 297.412 149.802C297.688 149.771 297.889 149.719 298.014 149.647C298.143 149.574 298.207 149.449 298.207 149.27V149.232C298.207 148.768 298.08 148.407 297.826 148.15C297.575 147.893 297.194 147.764 296.682 147.764C296.152 147.764 295.737 147.88 295.435 148.112C295.134 148.345 294.922 148.592 294.8 148.856L293.746 148.479C293.934 148.04 294.185 147.698 294.499 147.454C294.816 147.206 295.161 147.033 295.534 146.936C295.911 146.835 296.281 146.785 296.645 146.785C296.877 146.785 297.144 146.814 297.445 146.87C297.749 146.923 298.043 147.035 298.325 147.204C298.61 147.374 298.847 147.629 299.036 147.971C299.224 148.313 299.318 148.771 299.318 149.345V154.108H298.207V153.129H298.151C298.075 153.286 297.95 153.454 297.774 153.633C297.599 153.811 297.365 153.964 297.073 154.089C296.781 154.215 296.425 154.277 296.005 154.277ZM296.174 153.28C296.613 153.28 296.984 153.193 297.285 153.021C297.589 152.848 297.818 152.626 297.972 152.353C298.129 152.08 298.207 151.793 298.207 151.491V150.475C298.16 150.531 298.057 150.583 297.897 150.63C297.74 150.674 297.558 150.713 297.351 150.748C297.147 150.779 296.948 150.807 296.753 150.833C296.562 150.854 296.406 150.873 296.287 150.889C295.999 150.927 295.729 150.988 295.478 151.073C295.23 151.154 295.029 151.278 294.875 151.444C294.725 151.607 294.649 151.83 294.649 152.113C294.649 152.498 294.792 152.79 295.078 152.988C295.366 153.182 295.732 153.28 296.174 153.28ZM301.345 154.108V146.879H302.418V147.971H302.493C302.625 147.614 302.864 147.323 303.209 147.101C303.554 146.878 303.943 146.766 304.376 146.766C304.457 146.766 304.559 146.768 304.682 146.771C304.804 146.774 304.897 146.779 304.959 146.785V147.915C304.922 147.905 304.835 147.891 304.7 147.872C304.569 147.85 304.429 147.839 304.282 147.839C303.93 147.839 303.617 147.913 303.34 148.061C303.067 148.205 302.851 148.406 302.691 148.663C302.534 148.917 302.456 149.207 302.456 149.534V154.108H301.345ZM308.785 154.259C308.183 154.259 307.651 154.106 307.19 153.802C306.729 153.495 306.368 153.062 306.108 152.503C305.847 151.942 305.717 151.278 305.717 150.513C305.717 149.753 305.847 149.094 306.108 148.536C306.368 147.977 306.73 147.546 307.195 147.242C307.659 146.937 308.196 146.785 308.804 146.785C309.275 146.785 309.647 146.864 309.92 147.021C310.196 147.174 310.406 147.35 310.55 147.548C310.698 147.742 310.812 147.902 310.894 148.028H310.988V144.47H312.098V154.108H311.025V152.997H310.894C310.812 153.129 310.696 153.295 310.545 153.496C310.395 153.694 310.18 153.871 309.901 154.028C309.622 154.182 309.25 154.259 308.785 154.259ZM308.936 153.261C309.381 153.261 309.758 153.145 310.065 152.913C310.373 152.677 310.607 152.353 310.767 151.938C310.927 151.521 311.007 151.04 311.007 150.494C311.007 149.954 310.928 149.482 310.771 149.077C310.614 148.669 310.382 148.352 310.075 148.127C309.767 147.897 309.388 147.783 308.936 147.783C308.465 147.783 308.073 147.904 307.759 148.145C307.449 148.384 307.215 148.709 307.058 149.12C306.905 149.527 306.828 149.985 306.828 150.494C306.828 151.008 306.906 151.476 307.063 151.896C307.223 152.313 307.458 152.646 307.769 152.894C308.083 153.139 308.472 153.261 308.936 153.261ZM319.407 148.498L318.409 148.781C318.347 148.614 318.254 148.453 318.132 148.296C318.012 148.136 317.849 148.004 317.642 147.901C317.435 147.797 317.17 147.745 316.847 147.745C316.405 147.745 316.036 147.847 315.741 148.051C315.449 148.252 315.303 148.508 315.303 148.818C315.303 149.094 315.404 149.312 315.605 149.472C315.805 149.632 316.119 149.766 316.546 149.872L317.619 150.136C318.265 150.293 318.747 150.533 319.064 150.856C319.38 151.176 319.539 151.589 319.539 152.094C319.539 152.508 319.42 152.878 319.181 153.204C318.946 153.531 318.616 153.788 318.193 153.976C317.769 154.164 317.277 154.259 316.715 154.259C315.978 154.259 315.368 154.099 314.884 153.779C314.401 153.459 314.095 152.991 313.967 152.376L315.021 152.113C315.121 152.502 315.311 152.793 315.59 152.988C315.873 153.182 316.241 153.28 316.696 153.28C317.214 153.28 317.625 153.17 317.929 152.95C318.237 152.728 318.391 152.461 318.391 152.15C318.391 151.899 318.303 151.689 318.127 151.52C317.951 151.347 317.681 151.218 317.318 151.134L316.113 150.851C315.451 150.694 314.964 150.451 314.654 150.122C314.346 149.789 314.193 149.374 314.193 148.875C314.193 148.467 314.307 148.106 314.536 147.792C314.768 147.479 315.084 147.232 315.482 147.054C315.884 146.875 316.339 146.785 316.847 146.785C317.562 146.785 318.124 146.942 318.532 147.256C318.943 147.57 319.234 147.984 319.407 148.498ZM327.065 154.277C326.607 154.277 326.191 154.191 325.818 154.019C325.445 153.843 325.148 153.59 324.928 153.261C324.709 152.928 324.599 152.527 324.599 152.056C324.599 151.642 324.681 151.306 324.844 151.049C325.007 150.789 325.225 150.585 325.498 150.437C325.771 150.29 326.072 150.18 326.401 150.108C326.734 150.032 327.068 149.973 327.404 149.929C327.843 149.872 328.199 149.83 328.472 149.802C328.748 149.771 328.949 149.719 329.075 149.647C329.203 149.574 329.267 149.449 329.267 149.27V149.232C329.267 148.768 329.14 148.407 328.886 148.15C328.635 147.893 328.254 147.764 327.743 147.764C327.212 147.764 326.797 147.88 326.496 148.112C326.194 148.345 325.983 148.592 325.86 148.856L324.806 148.479C324.994 148.04 325.245 147.698 325.559 147.454C325.876 147.206 326.221 147.033 326.594 146.936C326.971 146.835 327.341 146.785 327.705 146.785C327.937 146.785 328.204 146.814 328.505 146.87C328.809 146.923 329.103 147.035 329.385 147.204C329.671 147.374 329.908 147.629 330.096 147.971C330.284 148.313 330.378 148.771 330.378 149.345V154.108H329.267V153.129H329.211C329.136 153.286 329.01 153.454 328.835 153.633C328.659 153.811 328.425 153.964 328.133 154.089C327.842 154.215 327.485 154.277 327.065 154.277ZM327.234 153.28C327.674 153.28 328.044 153.193 328.345 153.021C328.649 152.848 328.878 152.626 329.032 152.353C329.189 152.08 329.267 151.793 329.267 151.491V150.475C329.22 150.531 329.117 150.583 328.957 150.63C328.8 150.674 328.618 150.713 328.411 150.748C328.207 150.779 328.008 150.807 327.813 150.833C327.622 150.854 327.467 150.873 327.347 150.889C327.059 150.927 326.789 150.988 326.538 151.073C326.29 151.154 326.089 151.278 325.936 151.444C325.785 151.607 325.71 151.83 325.71 152.113C325.71 152.498 325.852 152.79 326.138 152.988C326.427 153.182 326.792 153.28 327.234 153.28ZM333.516 149.76V154.108H332.405V146.879H333.478V148.009H333.572C333.742 147.642 333.999 147.347 334.344 147.124C334.689 146.898 335.135 146.785 335.681 146.785C336.17 146.785 336.598 146.886 336.965 147.086C337.333 147.284 337.618 147.585 337.822 147.99C338.026 148.392 338.128 148.9 338.128 149.515V154.108H337.017V149.59C337.017 149.022 336.87 148.58 336.575 148.263C336.28 147.943 335.875 147.783 335.361 147.783C335.006 147.783 334.689 147.86 334.41 148.014C334.134 148.167 333.916 148.392 333.756 148.687C333.596 148.981 333.516 149.339 333.516 149.76ZM342.887 154.259C342.285 154.259 341.753 154.106 341.292 153.802C340.83 153.495 340.47 153.062 340.209 152.503C339.949 151.942 339.819 151.278 339.819 150.513C339.819 149.753 339.949 149.094 340.209 148.536C340.47 147.977 340.832 147.546 341.296 147.242C341.761 146.937 342.297 146.785 342.906 146.785C343.376 146.785 343.748 146.864 344.021 147.021C344.297 147.174 344.507 147.35 344.652 147.548C344.799 147.742 344.914 147.902 344.995 148.028H345.089V144.47H346.2V154.108H345.127V152.997H344.995C344.914 153.129 344.798 153.295 344.647 153.496C344.496 153.694 344.282 153.871 344.002 154.028C343.723 154.182 343.351 154.259 342.887 154.259ZM343.038 153.261C343.483 153.261 343.86 153.145 344.167 152.913C344.474 152.677 344.708 152.353 344.868 151.938C345.028 151.521 345.108 151.04 345.108 150.494C345.108 149.954 345.03 149.482 344.873 149.077C344.716 148.669 344.484 148.352 344.176 148.127C343.869 147.897 343.489 147.783 343.038 147.783C342.567 147.783 342.175 147.904 341.861 148.145C341.55 148.384 341.317 148.709 341.16 149.12C341.006 149.527 340.929 149.985 340.929 150.494C340.929 151.008 341.008 151.476 341.165 151.896C341.325 152.313 341.56 152.646 341.87 152.894C342.184 153.139 342.573 153.261 343.038 153.261ZM357.236 148.498L356.238 148.781C356.175 148.614 356.083 148.453 355.96 148.296C355.841 148.136 355.678 148.004 355.471 147.901C355.264 147.797 354.999 147.745 354.676 147.745C354.233 147.745 353.865 147.847 353.57 148.051C353.278 148.252 353.132 148.508 353.132 148.818C353.132 149.094 353.233 149.312 353.433 149.472C353.634 149.632 353.948 149.766 354.375 149.872L355.448 150.136C356.094 150.293 356.575 150.533 356.892 150.856C357.209 151.176 357.368 151.589 357.368 152.094C357.368 152.508 357.248 152.878 357.01 153.204C356.775 153.531 356.445 153.788 356.022 153.976C355.598 154.164 355.106 154.259 354.544 154.259C353.807 154.259 353.196 154.099 352.713 153.779C352.23 153.459 351.924 152.991 351.796 152.376L352.85 152.113C352.95 152.502 353.14 152.793 353.419 152.988C353.702 153.182 354.07 153.28 354.525 153.28C355.043 153.28 355.454 153.17 355.758 152.95C356.066 152.728 356.219 152.461 356.219 152.15C356.219 151.899 356.131 151.689 355.956 151.52C355.78 151.347 355.51 151.218 355.146 151.134L353.942 150.851C353.28 150.694 352.793 150.451 352.483 150.122C352.175 149.789 352.021 149.374 352.021 148.875C352.021 148.467 352.136 148.106 352.365 147.792C352.597 147.479 352.913 147.232 353.311 147.054C353.713 146.875 354.167 146.785 354.676 146.785C355.391 146.785 355.953 146.942 356.361 147.256C356.772 147.57 357.063 147.984 357.236 148.498ZM360.075 151.473L360.056 150.098H360.282L363.444 146.879H364.819L361.449 150.287H361.355L360.075 151.473ZM359.039 154.108V144.47H360.15V154.108H359.039ZM363.633 154.108L360.809 150.531L361.6 149.76L365.044 154.108H363.633ZM366.248 154.108V146.879H367.359V154.108H366.248ZM366.813 145.675C366.596 145.675 366.41 145.601 366.253 145.453C366.099 145.306 366.022 145.129 366.022 144.922C366.022 144.715 366.099 144.537 366.253 144.39C366.41 144.242 366.596 144.169 366.813 144.169C367.029 144.169 367.214 144.242 367.368 144.39C367.525 144.537 367.603 144.715 367.603 144.922C367.603 145.129 367.525 145.306 367.368 145.453C367.214 145.601 367.029 145.675 366.813 145.675ZM370.503 149.76V154.108H369.393V146.879H370.466V148.009H370.56C370.729 147.642 370.987 147.347 371.332 147.124C371.677 146.898 372.122 146.785 372.668 146.785C373.158 146.785 373.586 146.886 373.953 147.086C374.32 147.284 374.606 147.585 374.81 147.99C375.014 148.392 375.115 148.9 375.115 149.515V154.108H374.005V149.59C374.005 149.022 373.857 148.58 373.562 148.263C373.268 147.943 372.863 147.783 372.348 147.783C371.994 147.783 371.677 147.86 371.398 148.014C371.122 148.167 370.904 148.392 370.744 148.687C370.584 148.981 370.503 149.339 370.503 149.76ZM382.265 148.498L381.268 148.781C381.205 148.614 381.112 148.453 380.99 148.296C380.871 148.136 380.708 148.004 380.5 147.901C380.293 147.797 380.028 147.745 379.705 147.745C379.263 147.745 378.894 147.847 378.599 148.051C378.307 148.252 378.162 148.508 378.162 148.818C378.162 149.094 378.262 149.312 378.463 149.472C378.663 149.632 378.977 149.766 379.404 149.872L380.477 150.136C381.123 150.293 381.605 150.533 381.922 150.856C382.239 151.176 382.397 151.589 382.397 152.094C382.397 152.508 382.278 152.878 382.039 153.204C381.804 153.531 381.475 153.788 381.051 153.976C380.628 154.164 380.135 154.259 379.573 154.259C378.836 154.259 378.226 154.099 377.743 153.779C377.26 153.459 376.954 152.991 376.825 152.376L377.879 152.113C377.98 152.502 378.169 152.793 378.449 152.988C378.731 153.182 379.1 153.28 379.555 153.28C380.072 153.28 380.483 153.17 380.788 152.95C381.095 152.728 381.249 152.461 381.249 152.15C381.249 151.899 381.161 151.689 380.985 151.52C380.809 151.347 380.54 151.218 380.176 151.134L378.971 150.851C378.309 150.694 377.823 150.451 377.512 150.122C377.205 149.789 377.051 149.374 377.051 148.875C377.051 148.467 377.165 148.106 377.394 147.792C377.627 147.479 377.942 147.232 378.34 147.054C378.742 146.875 379.197 146.785 379.705 146.785C380.42 146.785 380.982 146.942 381.39 147.256C381.801 147.57 382.093 147.984 382.265 148.498Z" fill="#E8E8E8"/>
<mask id="path-10-inside-2_389_14898" fill="white">
<path d="M337.92 2.40823H481.019C481.019 2.40823 425.819 36.5283 395.265 69.0627C370.592 95.3346 337.92 146.203 337.92 146.203C337.92 146.203 346.29 99.498 345.812 69.0627C345.397 42.672 337.92 2.40823 337.92 2.40823Z"/>
</mask>
<path d="M337.92 2.40823H481.019C481.019 2.40823 425.819 36.5283 395.265 69.0627C370.592 95.3346 337.92 146.203 337.92 146.203C337.92 146.203 346.29 99.498 345.812 69.0627C345.397 42.672 337.92 2.40823 337.92 2.40823Z" fill="#010B7B"/>
<path d="M337.92 2.06898C337.92 2.29515 337.92 2.52132 337.92 2.74748C346.137 3.02672 354.354 3.29675 362.57 3.55756C402.053 4.81086 441.536 5.85153 481.019 6.67956L478.773 -1.22503C447.603 17.9068 417.217 38.3486 390.88 64.9446C368.42 89.1188 350.214 115.612 332.317 142.604L344.476 147.378C345.984 138.848 347.275 130.357 348.421 121.851C350.696 104.46 352.254 86.9106 351.29 68.9766C350.319 54.3497 347.659 40.3055 344.505 26.3552C342.654 18.3029 340.574 10.2361 338.254 2.34629C338.032 2.38759 337.809 2.42888 337.587 2.47017C338.181 10.6514 338.706 18.9336 339.173 27.1141C339.942 41.2471 340.71 55.422 340.334 69.1487C339.682 85.9319 337.395 103.046 335.161 120.071C334.041 128.383 332.772 136.847 331.365 145.028L343.524 149.802C360.888 123.311 378.922 96.4651 399.65 73.1807C423.842 47.5759 453.538 26.0122 483.264 6.0415L496.017 -1.98403L481.019 -1.86309C441.536 -1.03506 402.053 0.00560427 362.57 1.2589C354.354 1.51972 346.137 1.78975 337.92 2.06898ZM337.92 2.74748V2.06898L337.472 2.08422L337.587 2.47017L338.254 2.34629L337.92 2.74748Z" fill="#020C7B" mask="url(#path-10-inside-2_389_14898)"/>
<path d="M328.5 1.04715C327.761 1.26712 327.021 1.48709 326.281 1.70706C326.968 3.97246 327.646 6.31855 328.309 8.65884C332.752 24.6567 336.932 40.8734 338.883 57.3364V57.3364C341.301 84.0715 338.104 111.119 334.272 137.718C333.91 140.09 333.515 142.574 333.117 144.88C333.553 142.58 333.986 140.103 334.387 137.736C338.64 111.178 342.285 84.2351 340.279 57.1967V57.1967C338.571 40.5245 334.635 24.2152 330.43 8.07684C329.801 5.71344 329.16 3.35809 328.5 1.04715Z" fill="url(#paint1_linear_389_14898)"/>
<path d="M482.341 12.4183C482.653 13.1778 482.964 13.9372 483.275 14.6967C480.8 16.2275 478.204 17.8828 475.685 19.5074C450.065 36.307 424.609 53.8373 401.933 76.1415V76.1415C384.744 93.9038 369.42 114.392 354.449 135.079C352.557 137.72 350.671 140.377 348.816 143.048C348.816 143.048 348.816 143.048 348.816 143.048C350.645 140.349 352.505 137.664 354.372 134.994C369.149 114.078 384.257 93.3733 401.351 75.2699V75.2699C423.926 52.5139 449.242 34.5912 474.764 17.3646C477.277 15.6963 479.855 14.0041 482.341 12.4183Z" fill="url(#paint2_linear_389_14898)"/>
<g filter="url(#filter0_i_389_14898)">
<path d="M315.516 19.3329C315.629 14.0845 315.267 10.2524 314.427 7.10146C313.634 4.12637 312.272 1.21924 309.696 -1.99477C306.961 -5.40809 304.426 -7.11354 301.807 -7.96763C299.021 -8.87613 295.687 -8.96552 291.333 -8.20322C290.178 -8.00109 288.003 -7.12426 284.954 -5.4335C283.727 -4.75287 282.449 -3.98888 281.153 -3.18045C284.555 -1.54369 288.097 0.511624 291.305 3.0843C295.519 6.46415 300.266 11.6341 302.4 19.1677L302.707 20.3054C305.694 32.0094 303.285 42.2363 301.481 49.6452C299.387 58.2461 297.972 63.7222 298.816 69.6528C300.844 83.8885 308.913 100.032 318.423 110.065C321.358 113.161 323.831 115.937 326.619 118.768C322.121 112.967 318.339 107.268 315.317 100.867C311.183 92.1132 308.787 82.7462 307.271 71.0399C305.515 57.478 308.187 49.715 310.741 42.7634C313.016 36.5699 315.27 30.8097 315.516 19.3329Z" fill="#020C7B" fill-opacity="0.25"/>
</g>
<g filter="url(#filter1_i_389_14898)">
<path d="M494.303 59.3291C499.162 57.4164 502.539 55.6069 505.107 53.6154C507.532 51.735 509.676 49.3521 511.635 45.7244C513.715 41.8717 514.306 38.8619 514.083 36.1012C513.845 33.1645 512.645 30.033 510.272 26.2822C509.643 25.2877 508.002 23.604 505.279 21.4227C504.182 20.5446 502.99 19.6513 501.75 18.7586C501.556 22.5476 501.032 26.6276 499.904 30.5957C498.423 35.8087 495.504 42.2051 489.412 47.0832L488.486 47.8054C478.895 55.079 468.585 56.7734 461.094 57.9463C452.397 59.308 446.828 60.0984 441.711 63.1626C429.428 70.5182 417.717 84.2188 412.167 96.9083C410.454 100.824 408.858 104.188 407.332 107.866C410.926 101.458 414.701 95.7555 419.412 90.4877C425.856 83.2831 433.53 77.4567 443.688 71.5484C455.457 64.7038 463.607 64.2014 470.968 63.901C477.525 63.6334 483.677 63.5118 494.303 59.3291Z" fill="#020C7B" fill-opacity="0.25"/>
</g>
<g filter="url(#filter2_i_389_14898)">
<path d="M251.048 -1.35876C249.134 -4.74131 247.959 -7.36471 247.263 -9.70908C246.606 -11.9226 246.257 -14.2886 246.406 -17.2736C246.563 -20.4439 247.225 -22.4314 248.23 -23.893C249.3 -25.4477 250.933 -26.658 253.376 -27.6652C254.024 -27.9322 255.421 -28.1123 257.541 -28.0632C258.395 -28.0434 259.303 -27.9868 260.236 -27.9075C259.117 -25.6651 258.076 -23.1014 257.385 -20.3161C256.478 -16.6569 255.937 -11.6465 257.538 -5.99792L257.788 -5.15027C260.439 3.51184 265.261 9.34692 268.784 13.5539C272.873 18.4377 275.518 21.5187 277.195 25.6767C281.222 35.6578 282.907 48.97 281.71 58.7962C281.341 61.8285 281.088 64.4923 280.698 67.3013C280.891 61.9656 280.762 56.944 280.005 51.7269C278.971 44.5917 276.852 37.6573 273.465 29.5019C269.542 20.0538 265.461 15.9161 261.725 12.2664C258.397 9.01479 255.234 6.03802 251.048 -1.35876Z" fill="#020C7B" fill-opacity="0.25"/>
</g>
</g>
<path d="M-1.9504 9.42796C-1.9504 3.14387 3.14387 -1.9504 9.42796 -1.9504H513.545C519.829 -1.9504 524.923 3.14387 524.923 9.42796H521.023C521.023 5.29821 517.675 1.9504 513.545 1.9504H9.42796C5.29821 1.9504 1.9504 5.29821 1.9504 9.42796H-1.9504ZM1.9504 9.42796M522.973 187.142H0H522.973M9.42796 187.142C3.14387 187.142 -1.9504 182.048 -1.9504 175.764V9.42796C-1.9504 3.14387 3.14387 -1.9504 9.42796 -1.9504V1.9504C5.29821 1.9504 1.9504 5.29821 1.9504 9.42796V177.714C1.9504 182.921 5.29821 187.142 9.42796 187.142ZM513.545 -1.9504C519.829 -1.9504 524.923 3.14387 524.923 9.42796V175.764C524.923 182.048 519.829 187.142 513.545 187.142C517.675 187.142 521.023 182.921 521.023 177.714V9.42796C521.023 5.29821 517.675 1.9504 513.545 1.9504V-1.9504Z" fill="url(#paint3_linear_389_14898)" mask="url(#path-1-inside-1_389_14898)"/>
<defs>
<filter id="filter0_i_389_14898" x="281.153" y="-8.7179" width="45.4653" height="129.067" filterUnits="userSpaceOnUse" color-interpolation-filters="sRGB">
<feFlood flood-opacity="0" result="BackgroundImageFix"/>
<feBlend mode="normal" in="SourceGraphic" in2="BackgroundImageFix" result="shape"/>
<feColorMatrix in="SourceAlpha" type="matrix" values="0 0 0 0 0 0 0 0 0 0 0 0 0 0 0 0 0 0 127 0" result="hardAlpha"/>
<feOffset dy="1.58107"/>
<feGaussianBlur stdDeviation="0.790534"/>
<feComposite in2="hardAlpha" operator="arithmetic" k2="-1" k3="1"/>
<feColorMatrix type="matrix" values="0 0 0 0 0 0 0 0 0 0 0 0 0 0 0 0 0 0 0.25 0"/>
<feBlend mode="normal" in2="shape" result="effect1_innerShadow_389_14898"/>
</filter>
<filter id="filter1_i_389_14898" x="407.332" y="18.7586" width="106.795" height="90.6885" filterUnits="userSpaceOnUse" color-interpolation-filters="sRGB">
<feFlood flood-opacity="0" result="BackgroundImageFix"/>
<feBlend mode="normal" in="SourceGraphic" in2="BackgroundImageFix" result="shape"/>
<feColorMatrix in="SourceAlpha" type="matrix" values="0 0 0 0 0 0 0 0 0 0 0 0 0 0 0 0 0 0 127 0" result="hardAlpha"/>
<feOffset dy="1.58107"/>
<feGaussianBlur stdDeviation="0.790534"/>
<feComposite in2="hardAlpha" operator="arithmetic" k2="-1" k3="1"/>
<feColorMatrix type="matrix" values="0 0 0 0 0 0 0 0 0 0 0 0 0 0 0 0 0 0 0.25 0"/>
<feBlend mode="normal" in2="shape" result="effect1_innerShadow_389_14898"/>
</filter>
<filter id="filter2_i_389_14898" x="246.372" y="-28.0712" width="35.7158" height="97.7411" filterUnits="userSpaceOnUse" color-interpolation-filters="sRGB">
<feFlood flood-opacity="0" result="BackgroundImageFix"/>
<feBlend mode="normal" in="SourceGraphic" in2="BackgroundImageFix" result="shape"/>
<feColorMatrix in="SourceAlpha" type="matrix" values="0 0 0 0 0 0 0 0 0 0 0 0 0 0 0 0 0 0 127 0" result="hardAlpha"/>
<feOffset dy="2.36856"/>
<feGaussianBlur stdDeviation="1.18428"/>
<feComposite in2="hardAlpha" operator="arithmetic" k2="-1" k3="1"/>
<feColorMatrix type="matrix" values="0 0 0 0 0 0 0 0 0 0 0 0 0 0 0 0 0 0 0.25 0"/>
<feBlend mode="normal" in2="shape" result="effect1_innerShadow_389_14898"/>
</filter>
<linearGradient id="paint0_linear_389_14898" x1="261.487" y1="132.49" x2="261.487" y2="-43.0593" gradientUnits="userSpaceOnUse">
<stop stop-color="#010B7B"/>
<stop offset="1" stop-color="#0060DE"/>
</linearGradient>
<linearGradient id="paint1_linear_389_14898" x1="333.486" y1="144.88" x2="337.745" y2="26.7413" gradientUnits="userSpaceOnUse">
<stop stop-color="#001FE8"/>
<stop offset="1" stop-color="#011599"/>
</linearGradient>
<linearGradient id="paint2_linear_389_14898" x1="407.183" y1="85.7841" x2="393.352" y2="57.847" gradientUnits="userSpaceOnUse">
<stop stop-color="#001FE8"/>
<stop offset="1" stop-color="#011599"/>
</linearGradient>
<linearGradient id="paint3_linear_389_14898" x1="261.487" y1="0" x2="261.487" y2="171.409" gradientUnits="userSpaceOnUse">
<stop stop-color="#ABC3FF"/>
<stop offset="0.128319" stop-color="#566FE3"/>
<stop offset="0.247788" stop-color="#001FE8"/>
<stop offset="0.402655" stop-color="#020C7B"/>
<stop offset="1" stop-color="#010B7B"/>
</linearGradient>
<clipPath id="clip0_389_14898">
<path d="M0 9.42797C0 4.22105 4.22104 0 9.42796 0H513.545C518.752 0 522.973 4.22104 522.973 9.42796V177.714C522.973 182.921 518.752 187.142 513.545 187.142H9.42798C4.22106 187.142 0 182.921 0 177.714V9.42797Z" fill="white"/>
</clipPath>
<clipPath id="clip1_389_14898">
<rect width="33.9374" height="33.9374" fill="white" transform="translate(32.1279 41.278)"/>
</clipPath>
</defs>
</svg>
